<svg xmlns="http://www.w3.org/2000/svg" width="468.013" height="455.215" viewBox="0 0 468.013 455.215"><defs><style>.a{fill:#fff;}</style></defs><g transform="translate(-46.661 -18.004)"><path class="a" d="M55.792,109.279s10.884,32.563,38.554,54.848c27.718,22.314,67.507,24.222,67.507,24.222.606-13.733,11.433-38.09,11.433-38.09L148.572,132.18c-4.21,7.842-7.807,22.317-7.807,22.317C88.32,135.815,85.917,97.9,85.917,97.9Z" transform="translate(19.708 172.436)"/><path class="a" d="M71.567,120.511c7.981,21.388,17.469,43.229,63.881,79.111,46.377,35.844,44.587,48.263,44.587,48.263l32.569.079s5.972-21.376,13.23-29.9l-19.926-19.97s-9.039,15.846-11.4,19.97c0,0-13.865-16.335-28.927-27.784l12.656-17.437-22.3-19.929-13.278,16.853s-28.915-17.482-41.58-56.026c0,0-7.8-18.1,0-43.393L71.567,63.174s-7.972,35.958,0,57.337" transform="translate(46.11 97.493)"/><path class="a" d="M94.6,131.5c17.665,31.738,15.463,29.155,81.337,88.583,0,0,32.14,23.249,41.179,60.315h33.106s1.431-12.5,17.712-26.571l-13.265-22.908S238.2,246.588,235.989,248.6c0,0-14.854-24.9-20.883-29.537l17.87-15.432-20.1-20.514L195.6,199.806s-23.486-21.9-27.3-25.3l18.082-18.293-22.093-22.9-17.469,19.692s-20.311-16.878-27.724-41.371c-7.428-24.493,2.394-51.415,3.623-54.848L92.988,48.148S76.921,99.781,94.6,131.5" transform="translate(85.56 65.062)"/><path class="a" d="M155.306,70.048s47.581,53.414,0,97.786c0,0-46.4-35.522,0-97.786M107.438,99.171c-7.871,41.877,4.463,60.859,10.2,70.217,5.758,9.308,54.226,59.968,54.226,59.968,44.574,40.389,57.868,66.225,57.868,66.225,13.83,18.078,25.6,65.211,25.6,65.211,45.768-5.338,60.871-20.908,60.871-20.908,35.813-22,43.958-58.458,43.958-58.458l-28.908-9.642c-9.646,42.161-54.264,55.158-54.264,55.158-1.784-7.561-14.137-36.185-14.137-36.185,2.691-2.085,34.938-27.083,50.61-59.024s5.691-69.595,5.691-69.595l-28.283,5.7c2.11,6.348,5.123,32.844-6.911,56.674-12.1,23.776-36.489,43.639-36.489,43.639l-21.982-28.58c22.585-25.608,27.721-34.06,35.547-56.648,7.861-22.589-2.7-69.708-2.7-69.708l-30.519,8.534s8.493,15.394,5.814,46.09c-2.726,30.737-29.524,49.732-29.524,49.732l-27.67-27.427c36.151-37.146,29.749-76.928,29.749-76.928C198.089,62.8,155.581,18,155.581,18c-2.141,3.234-40.335,39.29-48.143,81.167" transform="translate(125.674 0)"/><path class="a" d="M47.94,169.259l1.068-4.049,1.1-3.812,1.143-4.024,1.412-4.444,1.5-4.58,1.579-4.472,1.5-3.961,1.355-3.3.992-2.2H70.867l1.026,2.2,1.371,3.3,1.45,3.961,1.62,4.472,1.51,4.58,1.361,4.444L80.4,161.4l1.09,3.812,1.143,4.049,1.146,4.785v.417H73.763l-.878-4.052L71.738,165.7H57.921l-1.146,4.709-.913,4.052h-9.2v-.417Zm17.077-27.513-.925,2.593-1.222,3.752-1.336,4.58-1.472,5.072h9.7l-1.295-5.072-1.308-4.58-1.146-3.752-.992-2.593v0Z" transform="translate(0 251.279)"/><path class="a" d="M70.115,174.46a11.841,11.841,0,0,1-4.359-.72,8.449,8.449,0,0,1-3.136-2.2,9.153,9.153,0,0,1-1.873-3.36,15.4,15.4,0,0,1-.61-4.548V134.425H69.3v27.528l.208,2.145a2.962,2.962,0,0,0,.61,1.418,2.9,2.9,0,0,0,1.333.821l2.018.2H84.318v7.921h-14.2v0Z" transform="translate(29.088 251.279)"/><path class="a" d="M73.341,166.541h5.834l2.394-.306a3.626,3.626,0,0,0,1.522-.935l.821-1.734.268-2.435v-18.77H75.056v-7.937H93.34v26.707c0,4.415-1.109,7.735-3.313,10.012-2.29,2.217-5.593,3.319-10.015,3.319h-6.67Z" transform="translate(57.585 251.277)"/><path class="a" d="M82.765,169.259l1.1-4.049,1.109-3.812,1.14-4.024,1.409-4.444,1.522-4.58,1.563-4.472,1.51-3.961,1.349-3.3.989-2.2h11.272l1.033,2.2,1.371,3.3,1.447,3.961,1.6,4.472,1.522,4.58,1.352,4.444,1.2,4.024,1.109,3.812,1.143,4.049,1.14,4.785v.417h-10l-.891-4.052-1.143-4.709H92.774l-1.14,4.709-.913,4.052h-9.2v-.417ZM99.9,141.746l-.957,2.593-1.216,3.752-1.333,4.58-1.469,5.072h9.7l-1.295-5.072-1.314-4.58-1.162-3.752-.951-2.593v0Z" transform="translate(75.247 251.279)"/><path class="a" d="M105.009,174.46a12,12,0,0,1-4.393-.72,8.531,8.531,0,0,1-3.124-2.2,9.292,9.292,0,0,1-1.873-3.36,15.817,15.817,0,0,1-.625-4.548V134.425h9.185v27.528l.2,2.145a2.8,2.8,0,0,0,.629,1.418,2.632,2.632,0,0,0,1.3.821l2.031.2H119.2v7.921H105.009v0Z" transform="translate(104.32 251.279)"/><path class="a" d="M104.5,134.461h9.183V174.5H104.5V134.461Z" transform="translate(124.844 251.242)"/><path class="a" d="M120.071,174.46a11.946,11.946,0,0,1-4.384-.72,8.493,8.493,0,0,1-3.12-2.2,8.788,8.788,0,0,1-1.886-3.36,15.386,15.386,0,0,1-.632-4.548V134.425h9.185v27.528l.2,2.145a2.64,2.64,0,0,0,.641,1.418,2.613,2.613,0,0,0,1.295.821l2.015.2h10.862v7.921H120.071v0Z" transform="translate(136.814 251.279)"/><path class="a" d="M143,175.151a25.921,25.921,0,0,1-8.1-1.184,17.835,17.835,0,0,1-6.143-3.506,15.6,15.6,0,0,1-3.961-5.745,20.67,20.67,0,0,1-1.405-7.909v-4.169a19.818,19.818,0,0,1,.774-5.745,15.75,15.75,0,0,1,2.208-4.64,14.038,14.038,0,0,1,3.379-3.528,18.1,18.1,0,0,1,4.321-2.467,24.446,24.446,0,0,1,5.066-1.466l5.578-.493,6.323.493a29.422,29.422,0,0,1,6.137,1.589V144.3h-.423l-3.124-.954-3.275-.622-3.2-.344-2.928-.177-4.535.742a10.208,10.208,0,0,0-3.582,1.977,9.167,9.167,0,0,0-2.283,3.285,10.858,10.858,0,0,0-.84,4.434v4.169a11.383,11.383,0,0,0,.726,4.207,10.4,10.4,0,0,0,2.018,3.3,9.283,9.283,0,0,0,3.158,2.107,10.2,10.2,0,0,0,4.112.809h2.972l1.03-.12,1.033-.155.8-.152V160.56H143v-7.921h14.175v20.226l-2.021.72-2.928.8-3.452.556-3.708.208H143v0Z" transform="translate(165.603 251.011)"/><path class="a" d="M137.057,169.259l1.1-4.049,1.1-3.812,1.143-4.024,1.406-4.444,1.525-4.58,1.529-4.472,1.525-3.961,1.361-3.3,1-2.2H160l1.049,2.2,1.336,3.3,1.481,3.961,1.6,4.472,1.525,4.58,1.352,4.444,1.2,4.024,1.109,3.812,1.14,4.049,1.143,4.785v.417H162.912l-.878-4.052-1.14-4.709H147.069l-1.146,4.709-.951,4.052H135.8v-.417Zm17.1-27.513-.935,2.593-1.206,3.752-1.345,4.58-1.465,5.072h9.712l-1.33-5.072-1.3-4.58-1.14-3.752-.992-2.593v0Z" transform="translate(192.388 251.279)"/><path class="a" d="M163.882,134.424l6.244.635a11.021,11.021,0,0,1,4.687,2.2,9.4,9.4,0,0,1,3.016,4.049,17.061,17.061,0,0,1,1.058,6.471,16.378,16.378,0,0,1-.524,4.28,14.58,14.58,0,0,1-1.456,3.231,12.366,12.366,0,0,1-2.04,2.394l-2.457,1.775,2.1,2.1,2.025,2.593,1.829,2.925,1.447,2.82,1.1,2.435.493,1.721v.411H171.376l-.524-1.478-.878-2.154-1.21-2.34-1.456-2.359-1.56-2.081-1.674-1.472h-5.638v11.885h-9.166V134.424Zm-1.68,20.441,3.234-.306a5.256,5.256,0,0,0,2.182-1.143,4.448,4.448,0,0,0,1.3-2.034,11.675,11.675,0,0,0,.373-3.177,9.935,9.935,0,0,0-.373-3.026,3.509,3.509,0,0,0-1.3-1.775,4.813,4.813,0,0,0-2.182-.837l-3.234-.208h-3.765v12.507H162.2v0Z" transform="translate(221.47 251.277)"/><path class="a" d="M175.893,134.424a24.176,24.176,0,0,1,8.455,1.323,17.1,17.1,0,0,1,6.02,3.474,15.158,15.158,0,0,1,3.578,5.436,19.752,19.752,0,0,1,1.146,6.876v5.006a23.29,23.29,0,0,1-1.1,7.236,14.874,14.874,0,0,1-3.506,5.7,16.625,16.625,0,0,1-5.922,3.686,25.59,25.59,0,0,1-8.67,1.3h-15V134.424Zm0,32.117a11.359,11.359,0,0,0,4.194-.72,8.109,8.109,0,0,0,2.95-2.189,9.7,9.7,0,0,0,1.844-3.386,15.454,15.454,0,0,0,.613-4.545V152.37a12.766,12.766,0,0,0-.613-4.166,8.415,8.415,0,0,0-1.844-3.146,7.713,7.713,0,0,0-2.95-1.977,11.556,11.556,0,0,0-4.194-.72h-5.83v24.18h5.83v0Z" transform="translate(246.55 251.277)"/><path class="a" d="M183.7,174.46a11.958,11.958,0,0,1-4.378-.72,8.493,8.493,0,0,1-3.12-2.2,9.093,9.093,0,0,1-1.889-3.36,15.717,15.717,0,0,1-.613-4.548V134.425h25.883v7.931H182.873v7.924h15.005V158.2H182.873v3.752l.205,2.145A2.634,2.634,0,0,0,185,166.337l2.047.2h13.338v7.921H183.7v0Z" transform="translate(274.199 251.279)"/><path class="a" d="M184.525,134.458h8.346l15.007,23.776V134.458h9.235v40.036h-8.4L193.7,150.73v23.763h-9.179Z" transform="translate(297.561 251.243)"/><path class="a" d="M88.478,181.348a1.28,1.28,0,0,1-.325.884,1.227,1.227,0,0,1-.938.328H85.964a1.246,1.246,0,0,1-.916-.328,1.342,1.342,0,0,1-.3-.884V168.336H70v13.012a1.1,1.1,0,0,1-1.251,1.213H67.513a1.133,1.133,0,0,1-.9-.328,1.25,1.25,0,0,1-.3-.884V153.776a1.22,1.22,0,0,1,.3-.9,1.062,1.062,0,0,1,.9-.347h1.235a1.24,1.24,0,0,1,.951.347,1.3,1.3,0,0,1,.3.9v11.263h14.75V153.776a1.3,1.3,0,0,1,.3-.9,1.162,1.162,0,0,1,.916-.347h1.251a1.147,1.147,0,0,1,.938.347,1.244,1.244,0,0,1,.325.9Z" transform="translate(42.416 290.352)"/><path class="a" d="M82.323,182.188a10.044,10.044,0,0,1-3.9-2.738,11.739,11.739,0,0,1-2.391-4.422,20.411,20.411,0,0,1-.805-6.014v-2.482a19.981,19.981,0,0,1,.805-5.9,12,12,0,0,1,2.391-4.46,10.656,10.656,0,0,1,3.9-2.764,13.507,13.507,0,0,1,5.357-.982,14.809,14.809,0,0,1,5.407.925,10.329,10.329,0,0,1,3.907,2.745,11.462,11.462,0,0,1,2.416,4.415,20.293,20.293,0,0,1,.837,6.02v2.482a19.707,19.707,0,0,1-.837,5.9,11.665,11.665,0,0,1-2.416,4.419,10.062,10.062,0,0,1-3.907,2.8,14.1,14.1,0,0,1-5.407.948,15.038,15.038,0,0,1-5.357-.894m5.357-2.4a10.958,10.958,0,0,0,3.844-.61,6.614,6.614,0,0,0,2.745-1.917,9.1,9.1,0,0,0,1.636-3.37,19.8,19.8,0,0,0,.534-4.873v-2.482a19.493,19.493,0,0,0-.534-4.877,9.177,9.177,0,0,0-1.636-3.386,6.561,6.561,0,0,0-2.745-1.946,10.8,10.8,0,0,0-3.844-.622,10.441,10.441,0,0,0-3.771.622,6.522,6.522,0,0,0-2.745,1.946,8.223,8.223,0,0,0-1.677,3.386,18.178,18.178,0,0,0-.556,4.877v2.482a18.458,18.458,0,0,0,.556,4.873,8.157,8.157,0,0,0,1.677,3.37,6.574,6.574,0,0,0,2.745,1.917,10.588,10.588,0,0,0,3.771.61v0Z" transform="translate(61.647 290.134)"/><path class="a" d="M106.8,172.235a12.18,12.18,0,0,1-.78,4.573,9.033,9.033,0,0,1-2.233,3.323,9.481,9.481,0,0,1-3.439,2.072,14.073,14.073,0,0,1-4.494.663,14.428,14.428,0,0,1-4.611-.7,9.553,9.553,0,0,1-3.449-2.031,9,9,0,0,1-2.145-3.323,12.87,12.87,0,0,1-.73-4.573V153.775a1.1,1.1,0,0,1,.347-.9,1.185,1.185,0,0,1,.888-.347H87.4a1.274,1.274,0,0,1,.951.347,1.194,1.194,0,0,1,.347.9v18.461a9.584,9.584,0,0,0,.55,3.417A5.76,5.76,0,0,0,90.77,177.9a5.5,5.5,0,0,0,2.268,1.292l2.814.379,2.852-.379a5.734,5.734,0,0,0,2.265-1.292,5.571,5.571,0,0,0,1.529-2.242,9.655,9.655,0,0,0,.55-3.417V153.775a1.194,1.194,0,0,1,.347-.9,1.146,1.146,0,0,1,.913-.347H105.6a1.156,1.156,0,0,1,1.2,1.248Z" transform="translate(82.573 290.35)"/><path class="a" d="M94.865,178.774l1.175.325,1.633.306,1.946.272,1.829.107h1.241l2.568-.259a5.932,5.932,0,0,0,2.015-.859,4.315,4.315,0,0,0,1.241-1.6,5.579,5.579,0,0,0,.477-2.426,6.277,6.277,0,0,0-.3-2.034,3.982,3.982,0,0,0-.881-1.406,4.387,4.387,0,0,0-1.405-.954l-1.829-.606-4.036-1.08a12.212,12.212,0,0,1-2.242-.84,8.486,8.486,0,0,1-2.145-1.447,6.948,6.948,0,0,1-1.554-2.306,9.324,9.324,0,0,1,.035-6.724,7.268,7.268,0,0,1,1.946-2.552,8.773,8.773,0,0,1,3.067-1.671,12.576,12.576,0,0,1,4.017-.591h.913l1.674.13,1.636.186,1.522.3,1.263.36a.99.99,0,0,1,.685.458l.111.9v1.064l-.227.625-.493.193-.227-.041-.287-.057-2.653-.534-3-.313h-.913l-2.539.281a5.049,5.049,0,0,0-1.867.869,3.576,3.576,0,0,0-1.178,1.491,5.928,5.928,0,0,0-.4,2.211,4.6,4.6,0,0,0,.36,1.958,4.127,4.127,0,0,0,.938,1.3l1.412.853,1.709.591,3.885,1.086,2.34.859a7.031,7.031,0,0,1,2.2,1.459,7.719,7.719,0,0,1,1.554,2.362,10.052,10.052,0,0,1-.035,7.125,7.411,7.411,0,0,1-2,2.666,9.019,9.019,0,0,1-3.13,1.677,14.553,14.553,0,0,1-4.22.587h-1.241l-2.009-.117-2.069-.284-1.753-.306-1.219-.3c-.338-.079-.55-.227-.61-.477a2.614,2.614,0,0,1-.133-.938v-1.178a.924.924,0,0,1,.193-.638.853.853,0,0,1,.477-.136h.268l.272.069v0Z" transform="translate(101.43 290.134)"/><path class="a" d="M105.3,181.348a1.3,1.3,0,0,1-.3.884,1.392,1.392,0,0,1-.957.328h-1.254a1.144,1.144,0,0,1-.881-.328,1.2,1.2,0,0,1-.325-.884V153.776a1.17,1.17,0,0,1,.325-.9,1.07,1.07,0,0,1,.881-.347h1.254a1.292,1.292,0,0,1,.957.347,1.262,1.262,0,0,1,.3.9Z" transform="translate(118.529 290.352)"/><path class="a" d="M127.63,181.348a1.123,1.123,0,0,1-1.235,1.213h-.486a1.1,1.1,0,0,1-.805-.208l-.575-.575L108.91,160.339l-.051-.152v21.161a1.19,1.19,0,0,1-.332.884,1.233,1.233,0,0,1-.913.328h-1.254a1.238,1.238,0,0,1-.913-.328,1.314,1.314,0,0,1-.306-.884V153.776a1.278,1.278,0,0,1,.306-.9,1.155,1.155,0,0,1,.913-.347h.493l.837.227.5.587,15.691,21.395V153.776a1.188,1.188,0,0,1,.338-.9,1.2,1.2,0,0,1,.957-.347h1.219a1.124,1.124,0,0,1,.916.347,1.167,1.167,0,0,1,.319.9Z" transform="translate(126.223 290.352)"/><path class="a" d="M135.314,168.052a1.034,1.034,0,0,1,.764.344,1.353,1.353,0,0,1,.347.919v12.251l-1.219.467-1.829.493-2.132.382-1.98.171H127.97a16.33,16.33,0,0,1-5.941-.982,11.818,11.818,0,0,1-4.314-2.8,11.614,11.614,0,0,1-2.618-4.27,16.07,16.07,0,0,1-.837-5.395v-4.065a14.487,14.487,0,0,1,1.042-5.755,11.836,11.836,0,0,1,3.01-4.112,12.833,12.833,0,0,1,4.57-2.457,19.576,19.576,0,0,1,5.707-.812l2.233.13,1.942.259,1.617.347,1.292.395a.769.769,0,0,1,.632.467l.12.929v1.03l-.2.619a.687.687,0,0,1-.49.215l-.272-.057-.306-.016-2.776-.689-3.8-.36-4.125.518a9.064,9.064,0,0,0-3.414,1.671,7.488,7.488,0,0,0-2.265,3.06,11.392,11.392,0,0,0-.84,4.618v4.065a12.9,12.9,0,0,0,.685,4.368,8.372,8.372,0,0,0,1.98,3.174,8.527,8.527,0,0,0,3.124,1.974,13.067,13.067,0,0,0,4.235.638h1.295l1.98-.1,1.731-.385V171.35H127.97a1.168,1.168,0,0,1-.9-.322,1.183,1.183,0,0,1-.363-.9v-.815a1.283,1.283,0,0,1,.363-.919,1.254,1.254,0,0,1,.9-.344h7.343v0Z" transform="translate(145.903 290.136)"/><path class="a" d="M127.535,178.774l1.175.325,1.677.306,1.886.272,1.851.107h1.26l2.577-.259a5.621,5.621,0,0,0,1.99-.859,4.515,4.515,0,0,0,1.254-1.6,5.873,5.873,0,0,0,.458-2.426,6.023,6.023,0,0,0-.306-2.034,3.6,3.6,0,0,0-.872-1.406,4.324,4.324,0,0,0-1.4-.954l-1.845-.606-4-1.08a11.028,11.028,0,0,1-2.239-.84,7.438,7.438,0,0,1-2.132-1.447,6.329,6.329,0,0,1-1.582-2.306,8.12,8.12,0,0,1-.629-3.408,7.873,7.873,0,0,1,.682-3.316,6.578,6.578,0,0,1,1.939-2.552,8.361,8.361,0,0,1,3.048-1.671,12.613,12.613,0,0,1,4-.591h.913l1.7.13,1.639.186,1.507.3,1.267.36a.947.947,0,0,1,.676.458l.107.9v1.064l-.186.625-.531.193-.231-.041-.259-.057-2.666-.534-3.019-.313h-.913l-2.514.281a5.268,5.268,0,0,0-1.892.869,3.956,3.956,0,0,0-1.188,1.491,6.309,6.309,0,0,0-.347,2.211,5.391,5.391,0,0,0,.316,1.958,4.522,4.522,0,0,0,.944,1.3l1.418.853,1.706.591,3.885,1.086,2.353.859a6.73,6.73,0,0,1,2.176,1.459,7.528,7.528,0,0,1,1.57,2.362,9.074,9.074,0,0,1,.638,3.61,8.639,8.639,0,0,1-.682,3.515,7.3,7.3,0,0,1-1.98,2.666,9.327,9.327,0,0,1-3.127,1.677,14.7,14.7,0,0,1-4.22.587h-1.26l-1.987-.117-2.088-.284-1.75-.306-1.219-.3c-.338-.079-.559-.227-.619-.477a3.112,3.112,0,0,1-.107-.938v-1.178a.97.97,0,0,1,.167-.638A.875.875,0,0,1,127,178.7h.281l.249.069v0Z" transform="translate(172.007 290.134)"/><path class="a" d="M153.807,178.911l.531-.136.527.215.158.562v1.036l-.117.929-.666.518-.815.262-1.295.344-1.6.322-1.715.12H146.89a15.6,15.6,0,0,1-5.843-.985,10.831,10.831,0,0,1-4.119-2.8,11.181,11.181,0,0,1-2.35-4.264,17.426,17.426,0,0,1-.809-5.4v-3.743a15.505,15.505,0,0,1,1.027-5.792,11.2,11.2,0,0,1,2.858-4.226,12.474,12.474,0,0,1,4.542-2.549,18.2,18.2,0,0,1,5.944-.891l2.119.139,1.9.37,1.677.417,1.181.477v5.486a1.26,1.26,0,0,1-.332.932,1.206,1.206,0,0,1-.884.309h-.992a1.2,1.2,0,0,1-.881-.309,1.269,1.269,0,0,1-.347-.932v-3.146l-1.892-.338-2.179-.129a12.207,12.207,0,0,0-3.948.606,7.8,7.8,0,0,0-3.168,1.747,7.632,7.632,0,0,0-2.1,3.174,12.015,12.015,0,0,0-.8,4.655v3.743a13.306,13.306,0,0,0,.647,4.365,8.123,8.123,0,0,0,1.829,3.18,7.926,7.926,0,0,0,2.969,1.968,11.063,11.063,0,0,0,3.942.638h1.923l1.478-.073,1.418-.227,1.175-.3.922-.265v0Z" transform="translate(188.013 290.136)"/><path class="a" d="M164.571,181.348a1.314,1.314,0,0,1-.306.884,1.217,1.217,0,0,1-.922.328h-1.251a1.188,1.188,0,0,1-.916-.328,1.239,1.239,0,0,1-.306-.884V168.336H146.127v13.012a1.328,1.328,0,0,1-.3.884,1.37,1.37,0,0,1-.951.328h-1.251a1.211,1.211,0,0,1-.916-.328,1.343,1.343,0,0,1-.3-.884V153.776a1.3,1.3,0,0,1,.3-.9,1.132,1.132,0,0,1,.916-.347h1.251a1.273,1.273,0,0,1,.951.347,1.291,1.291,0,0,1,.3.9v11.263H160.87V153.776a1.21,1.21,0,0,1,.306-.9,1.111,1.111,0,0,1,.916-.347h1.251a1.137,1.137,0,0,1,.922.347,1.277,1.277,0,0,1,.306.9Z" transform="translate(206.653 290.352)"/><path class="a" d="M159.908,182.563c-2.656,0-4.678-.666-6.02-1.958-1.368-1.3-2.072-3.37-2.072-6.184V153.775a1.217,1.217,0,0,1,.322-.9,1.076,1.076,0,0,1,.881-.347h14.4a1.3,1.3,0,0,1,.947.347,1.159,1.159,0,0,1,.325.9v.777a1.255,1.255,0,0,1-.325.932,1.411,1.411,0,0,1-.947.322H155.533v9.273h10.622a1.1,1.1,0,0,1,1.26,1.238v.749a1.368,1.368,0,0,1-.3.929,1.212,1.212,0,0,1-.957.347H155.533v6.43a6.159,6.159,0,0,0,.281,2.037,4.169,4.169,0,0,0,.818,1.39,3.277,3.277,0,0,0,1.26.84l1.712.227h7.811a1.306,1.306,0,0,1,.947.36l.325.9v.828a1.2,1.2,0,0,1-.325.884,1.4,1.4,0,0,1-.947.325h-7.507v0Z" transform="translate(226.963 290.35)"/><path class="a" d="M171.7,171.332a.785.785,0,0,1-.6-.24l-.42-.512-7.814-11.013v21.786a1.267,1.267,0,0,1-.319.884,1.371,1.371,0,0,1-.932.325h-1.254a1.283,1.283,0,0,1-.913-.325,1.335,1.335,0,0,1-.306-.884V153.775a1.292,1.292,0,0,1,.306-.9,1.2,1.2,0,0,1,.913-.347h1.1a1.028,1.028,0,0,1,.837.275l.515.543,9.428,13.407,9.447-13.407.534-.543a.949.949,0,0,1,.805-.275h1.14a1.2,1.2,0,0,1,.906.347,1.306,1.306,0,0,1,.3.9v27.579a1.351,1.351,0,0,1-.3.884,1.289,1.289,0,0,1-.906.325h-1.3a1.153,1.153,0,0,1-.878-.325,1.2,1.2,0,0,1-.338-.884V159.232l-8.231,11.348-.445.512a.754.754,0,0,1-.578.24H171.7v0Z" transform="translate(242.777 290.35)"/><path class="a" d="M177.96,182.563a8.5,8.5,0,0,1-6.048-1.958c-1.374-1.3-2.059-3.37-2.059-6.184V153.775a1.228,1.228,0,0,1,.319-.9,1.135,1.135,0,0,1,.9-.347h14.39a1.189,1.189,0,0,1,.919.347,1.078,1.078,0,0,1,.376.9v.777a1.163,1.163,0,0,1-.376.932,1.287,1.287,0,0,1-.919.322H173.573v9.273H184.2a1.1,1.1,0,0,1,1.254,1.238v.749a1.4,1.4,0,0,1-.3.929,1.22,1.22,0,0,1-.951.347H173.573v6.43a6.707,6.707,0,0,0,.275,2.037,4.391,4.391,0,0,0,.818,1.39,3.37,3.37,0,0,0,1.279.84l1.69.227h7.823a1.2,1.2,0,0,1,.919.36l.376.9v.828a1.112,1.112,0,0,1-.376.884,1.275,1.275,0,0,1-.919.325h-7.5v0Z" transform="translate(265.891 290.35)"/></g></svg>