<svg xmlns="http://www.w3.org/2000/svg" width="100.967" height="84.346" viewBox="0 0 100.967 84.346"><defs><style>.a{fill:#fff;}</style></defs><g transform="translate(-18448.833 8016.608)"><path class="a" d="M55.792,100.7a32.664,32.664,0,0,0,9.487,13.5c6.82,5.491,16.611,5.96,16.611,5.96.149-3.379,2.813-9.372,2.813-9.372l-6.081-4.448a30.618,30.618,0,0,0-1.921,5.491C63.8,107.226,63.2,97.9,63.2,97.9Z" transform="translate(18393.041 -8052.417)"/><path class="a" d="M68.9,77.282c1.964,5.263,4.3,10.637,15.719,19.466s10.971,11.876,10.971,11.876l8.014.019s1.47-5.26,3.255-7.358l-4.9-4.914s-2.224,3.9-2.8,4.914a53.266,53.266,0,0,0-7.118-6.837l3.114-4.291-5.487-4.9L86.39,89.4A26.676,26.676,0,0,1,76.158,75.615a16.532,16.532,0,0,1,0-10.677L68.9,63.174s-1.962,8.848,0,14.108" transform="translate(18390.314 -8044.678)"/><path class="a" d="M88.344,68.658c4.347,7.81,3.8,7.174,20.014,21.8,0,0,7.908,5.721,10.132,14.841h8.146s.352-3.075,4.358-6.538l-3.264-5.637s-4.052,3.855-4.6,4.35c0,0-3.655-6.128-5.138-7.268l4.4-3.8-4.946-5.048L113.2,85.465s-5.779-5.389-6.717-6.226l4.449-4.5L105.492,69.1l-4.3,4.845a23.962,23.962,0,0,1-6.822-10.18c-1.828-6.027.589-12.651.891-13.5l-7.316-2.126s-3.953,12.7.4,20.51" transform="translate(18386.242 -8041.33)"/><path class="a" d="M117.293,30.81s11.708,13.143,0,24.061c0,0-11.416-8.741,0-24.061m-11.778,7.166c-1.937,10.3,1.1,14.975,2.51,17.277s13.343,14.756,13.343,14.756c10.968,9.938,14.239,16.3,14.239,16.3,3.4,4.448,6.3,16.046,6.3,16.046,11.262-1.313,14.978-5.145,14.978-5.145A24.885,24.885,0,0,0,167.7,82.821l-7.113-2.373c-2.373,10.374-13.352,13.572-13.352,13.572-.439-1.86-3.478-8.9-3.478-8.9.662-.513,8.6-6.664,12.453-14.523s1.4-17.124,1.4-17.124l-6.959,1.4a21.639,21.639,0,0,1-1.7,13.945c-2.977,5.85-8.978,10.738-8.978,10.738l-5.409-7.032c5.557-6.3,6.821-8.381,8.747-13.939s-.664-17.152-.664-17.152l-7.51,2.1s2.09,3.788,1.431,11.341S129.3,67.108,129.3,67.108l-6.809-6.749c8.9-9.14,7.32-18.929,7.32-18.929C127.821,29.026,117.361,18,117.361,18c-.527.8-9.925,9.668-11.846,19.972" transform="translate(18382.1 -8034.612)"/></g></svg>