<svg xmlns="http://www.w3.org/2000/svg" xmlns:xlink="http://www.w3.org/1999/xlink" width="1920" height="2037" viewBox="0 0 1920 2037"><defs><style>.a{fill:#fff;stroke:#707070;}.b{clip-path:url(#a);}.c{opacity:0.034;}.d{fill:#237054;}</style><clipPath id="a"><rect class="a" width="1920" height="2037" transform="translate(0 5412)"/></clipPath></defs><g class="b" transform="translate(0 -5412)"><g class="c" transform="translate(-197.896 5412.257)"><path class="d" d="M55.792,165.537s64.676,193.5,229.1,325.93C449.607,624.065,686.051,635.4,686.051,635.4c3.6-81.6,67.941-226.346,67.941-226.346L607.13,301.626c-25.018,46.6-46.4,132.616-46.4,132.616C249.087,323.228,234.8,97.9,234.8,97.9Z" transform="translate(-55.792 1401.534)"/><path class="d" d="M89.078,403.894C136.505,530.993,192.886,660.776,468.686,874c275.593,213,264.952,286.8,264.952,286.8l193.539.469s35.491-127.024,78.62-177.7L887.388,864.9s-53.715,94.16-67.735,118.672c0,0-82.393-97.07-171.9-165.1l75.2-103.62L590.455,596.42l-78.9,100.148S339.729,592.685,264.468,363.636c0,0-46.377-107.542,0-257.858l-175.39-42.6s-47.371,213.677,0,340.72" transform="translate(161.541 784.603)"/><path class="d" d="M135.621,543.463c104.971,188.6,91.889,173.25,483.34,526.395,0,0,190.986,138.153,244.7,358.419h196.73s8.5-74.266,105.253-157.9l-78.828-136.127S988.96,1227.361,975.8,1239.3c0,0-88.267-147.989-124.1-175.522l106.192-91.7-119.442-121.9L735.794,949.365S596.233,819.225,573.58,799.012L681.028,690.306,549.744,554.254,445.936,671.275s-120.7-100.3-164.748-245.847C237.045,279.881,295.414,119.9,302.715,99.5L126.03,48.148s-95.474,306.825,9.591,495.315" transform="translate(486.338 517.603)"/><path class="d" d="M404.5,327.268s282.744,317.41,0,581.086c0,0-275.706-211.087,0-581.086M120.043,500.331c-46.77,248.849,26.52,361.647,60.622,417.257C214.879,972.9,502.9,1273.942,502.9,1273.942c264.877,240.009,343.872,393.534,343.872,393.534,82.187,107.43,152.136,387.51,152.136,387.51,271.971-31.719,361.722-124.247,361.722-124.247,212.813-130.759,261.217-347.382,261.217-347.382l-171.786-57.3c-57.319,250.538-322.459,327.77-322.459,327.77-10.6-44.931-84.007-215.029-84.007-215.029,15.99-12.387,207.615-160.938,300.743-350.742,93.128-189.823,33.82-413.56,33.82-413.56l-168.07,33.858c12.537,37.725,30.442,195.172-41.065,336.779-71.9,141.288-216.831,259.321-216.831,259.321L821.565,1334.62c134.211-152.173,164.729-202.4,211.237-336.628,46.714-134.231-16.028-414.235-16.028-414.235L835.417,634.468s50.467,91.477,34.552,273.886c-16.2,182.654-175.447,295.527-175.447,295.527L530.093,1040.9c214.822-220.734,176.779-457.14,176.779-457.14C658.731,284.2,406.129,18,406.129,18,393.4,37.223,166.438,251.482,120.043,500.331" transform="translate(816.547 -18.004)"/></g></g></svg>