<svg xmlns="http://www.w3.org/2000/svg" width="402.755" height="618.572" viewBox="0 0 402.755 618.572"><defs><style>.a{fill:#237054;stroke:rgba(0,0,0,0);stroke-miterlimit:10;}</style></defs><path class="a" d="M396.9,617.572h0l-.339-.9h2.825c-1.245.472-2.072.762-2.456.893l-.028.01ZM264.339,559.426a242.992,242.992,0,0,1-34.4-2.667c-8.714-1.261-14.575-2.526-15.215-2.665h-.009l10.793-44.417a114.877,114.877,0,0,0,33.851,5.219,99.809,99.809,0,0,0,22.986-2.61,57.3,57.3,0,0,0,8.471-2.61,167.853,167.853,0,0,0,35.868-16.7v50.324a266.843,266.843,0,0,1-25.673,10.8C291.526,557.631,279.187,559.426,264.339,559.426ZM211.4,472.532a223.112,223.112,0,0,1-25.732-1.57c-7.136-.836-14.449-2-21.732-3.459-11.908-2.386-19.773-4.765-20.632-5.029l-.006,0,13-44.747.2.071c9.944,3.556,29.984,9.524,52.479,9.524a102.993,102.993,0,0,0,29.871-4.144,117.7,117.7,0,0,0,25.282-11.227A151.6,151.6,0,0,0,283.8,398.128a142.541,142.541,0,0,0,17.31-16.678l-29.643-26.293,34.461-33.251,20.754,20.513v77.03c-19.539,19.238-29.849,24.972-54.765,38.827-.64.353-1.281.712-1.934,1.074l-1.247.693C253.873,468.331,234.577,472.532,211.4,472.532Zm-51-88.332a208.625,208.625,0,0,1-38.231-3.838c-23.069-4.3-47.669-15.238-73.116-32.508A379.657,379.657,0,0,1,4.91,312.243C2.369,309.908.691,308.364,0,307.905a.292.292,0,0,1,.034-.034c.772-.723,4.957-4.606,11.686-10.154a388.845,388.845,0,0,1,31.474-23.326,327.736,327.736,0,0,1,45.7-25.61c18.788-8.529,37.09-14.264,54.4-17.044a78.129,78.129,0,0,1,11.147-.659,138.059,138.059,0,0,1,44.3,7.649c22.02,7.537,42.318,20.249,60.334,37.783l41.282-41.647c-.011-.017-1.838-2.578-5.19-6.366a131.393,131.393,0,0,0-14.888-14.313,115.353,115.353,0,0,0-23.56-15.084,91.655,91.655,0,0,0-31.212-8.674c-5.976-.521-11.9-.786-17.594-.786a166.324,166.324,0,0,0-22.639,1.49,125.428,125.428,0,0,0-16.18,3.278,66.614,66.614,0,0,0-12.95,4.767l-12.848-45.932.023-.006c1.013-.223,10.243-2.234,23.007-4.213,12.419-1.924,30.866-4.218,48.219-4.218,13.991,0,25.316,1.472,33.666,4.377,15.031,5.208,26.747,9.878,38.689,17.053,10.886,6.541,22.042,15.1,39.789,30.518v77.315c-2.827,3.018-5.716,6.154-8.588,9.326-.192.181-19.185,18.351-39.874,37.557-12.08,11.214-22.3,20.517-30.37,27.649-10.087,8.912-16.82,14.433-20.016,16.409q-.409.253-.834.514a119.646,119.646,0,0,1-23.85,11.875,113.143,113.143,0,0,1-18.622,4.836A142.436,142.436,0,0,1,160.391,384.2Zm-2.729-107.71h0a102.787,102.787,0,0,0-30.79,4.973,137.8,137.8,0,0,0-25.227,10.941,142.125,142.125,0,0,0-23.314,15.914c27.632,20.592,54.481,31.033,79.8,31.035a87.776,87.776,0,0,0,28.924-4.848,91.334,91.334,0,0,0,34.05-21.336,57.134,57.134,0,0,0,4.39-4.842l0-.007c-19.694-21.118-42.516-31.828-67.837-31.829ZM326.686,124.119h0a151.08,151.08,0,0,0-15.886-9.435,122.223,122.223,0,0,0-31.126-10.577,144.152,144.152,0,0,0-28.216-2.763c-11.805,0-21.541,1.476-25.952,2.94l-8.577-42.565.015-.005c.484-.125,4.927-1.253,11.889-2.353A195.707,195.707,0,0,1,258.807,57a165.5,165.5,0,0,1,30.6,2.748,126.646,126.646,0,0,1,32.271,10.53c1.676.822,3.362,1.686,5.01,2.567l0,51.268ZM398.753.6h-2.49l.2-.6h0l.026.005c.35.082,1.113.268,2.264.59Z" transform="translate(0.645 0.5)"/></svg>