<svg xmlns="http://www.w3.org/2000/svg" width="403.212" height="618.851" viewBox="0 0 403.212 618.851"><defs><style>.a{fill:#237054;stroke:rgba(0,0,0,0);stroke-miterlimit:10;}</style></defs><path class="a" d="M2.484,617.577h0l-.028-.008c-.382-.131-1.211-.422-2.456-.894H2.825l-.341.9Zm132.559-58.145c-14.848,0-27.186-1.794-36.674-5.333-8.516-3.176-15.731-6.029-23.27-9.63V494.434a167.814,167.814,0,0,0,33.468,15.244,58.53,58.53,0,0,0,8.473,2.61,99.75,99.75,0,0,0,22.982,2.61,114.864,114.864,0,0,0,33.849-5.219l10.793,44.42-.034.008c-1.072.231-6.846,1.451-15.189,2.659A248.234,248.234,0,0,1,135.043,559.432Zm52.944-86.894c-23.182,0-42.476-4.2-57.347-12.491l-.955-.533-2.2-1.224-.036-.02c-11.872-6.6-20.447-11.368-28.308-16.659A170.755,170.755,0,0,1,75.1,421.795V340.05L93.45,321.91l34.461,33.25L98.268,381.452a142.954,142.954,0,0,0,17.313,16.679,151.353,151.353,0,0,0,19.675,13.821,117.707,117.707,0,0,0,25.282,11.229,103.073,103.073,0,0,0,29.869,4.142,151.254,151.254,0,0,0,34.408-4.2,162.362,162.362,0,0,0,18.106-5.336l.164-.06,13.008,44.753-.023.007c-.87.267-8.855,2.667-20.617,5.023-7.3,1.462-14.616,2.625-21.735,3.458A222.706,222.706,0,0,1,187.987,472.538Zm51-88.334a142.429,142.429,0,0,1-24.14-1.967,113,113,0,0,1-18.617-4.836,119.627,119.627,0,0,1-23.841-11.87l-.006,0-.473-.291-.365-.225c-3.192-1.972-9.927-7.493-20.014-16.405-8.07-7.133-18.287-16.435-30.37-27.649-20.649-19.171-39.683-37.377-39.872-37.558-2.025-2.238-4.109-4.507-6.187-6.749V194.675c16.549-14.28,27.623-22.662,38.224-28.935,11.671-6.906,23.137-11.454,37.851-16.553,8.349-2.9,19.677-4.377,33.666-4.377,7.667,0,16.18.445,25.3,1.319,7.29.7,15,1.674,22.92,2.9,13.439,2.082,22.937,4.2,23.029,4.218L243.247,199.18a65.738,65.738,0,0,0-12.955-4.768,126.03,126.03,0,0,0-16.183-3.278,166.272,166.272,0,0,0-22.636-1.49c-5.695,0-11.616.264-17.592.786a91.682,91.682,0,0,0-31.212,8.674,115.379,115.379,0,0,0-23.562,15.084A131.159,131.159,0,0,0,104.221,228.5c-3.315,3.745-5.115,6.26-5.19,6.364l41.279,41.646c18.012-17.531,38.312-30.243,60.332-37.78a138.049,138.049,0,0,1,44.3-7.65,78.719,78.719,0,0,1,11.147.659c17.306,2.781,35.608,8.517,54.394,17.046a327.9,327.9,0,0,1,45.7,25.611,388.885,388.885,0,0,1,31.474,23.325c7.3,6.019,11.541,10.02,11.718,10.187-.687.457-2.367,2-4.908,4.338a379.453,379.453,0,0,1-44.134,35.61c-25.444,17.27-50.045,28.209-73.118,32.509A208.469,208.469,0,0,1,238.984,384.2ZM241.709,276.5c-25.312,0-48.134,10.708-67.828,31.828a56.674,56.674,0,0,0,4.4,4.848,91.42,91.42,0,0,0,34.05,21.336,87.762,87.762,0,0,0,28.92,4.852h.009c25.31,0,52.16-10.442,79.8-31.036a142.611,142.611,0,0,0-23.317-15.913,137.887,137.887,0,0,0-25.227-10.941,102.8,102.8,0,0,0-30.79-4.974ZM75.1,122.532V71.6c.957-.489,1.812-.919,2.612-1.311a126.618,126.618,0,0,1,32.274-10.529,165.432,165.432,0,0,1,30.6-2.751,195.652,195.652,0,0,1,29.969,2.356c7.341,1.16,11.857,2.344,11.9,2.356l-8.573,42.57c-4.4-1.464-14.138-2.942-25.952-2.942a144.072,144.072,0,0,0-28.216,2.764A122.141,122.141,0,0,0,88.586,114.69a147.555,147.555,0,0,0-13.486,7.84ZM3.119.6H.6C2.077.189,2.91,0,2.919,0l.2.6Z" transform="translate(3.035 0.597)"/></svg>