<svg xmlns="http://www.w3.org/2000/svg" width="306" height="216" viewBox="0 0 306 216">
  <g id="Group_1460" data-name="Group 1460" transform="translate(-163 -650)">
    <g id="Group_783" data-name="Group 783">
      <rect id="Rectangle_46" data-name="Rectangle 46" width="306" height="216" transform="translate(163 650)" fill="#f7f7f7"/>
      <g id="Group_88" data-name="Group 88" transform="translate(277.448 707.82)">
        <path id="Path_112" data-name="Path 112" d="M2562.767,91.124c.544-.052.729-.6.88-1.071a17.411,17.411,0,0,0,.514-3.824c-.119-2.112-.131-4.285-1.247-6.24-.189-.331-.329-.811-.772-.8-.531.012-.664.553-.785.948a15.8,15.8,0,0,0,.322,9.968C2561.855,90.617,2562.124,91.184,2562.767,91.124Z" transform="translate(-2549.583 -79.187)" fill="#050505"/>
        <path id="Path_113" data-name="Path 113" d="M2565.479,88.59a16.659,16.659,0,0,0,6.015-6.328,11.9,11.9,0,0,0,.655-1.664c-.167-1.259-.875-.862-1.4-.584a15.339,15.339,0,0,0-6.78,7.309c-.211.45-.393.969.026,1.374C2564.487,89.168,2565.013,88.865,2565.479,88.59Z" transform="translate(-2548.558 -79.005)" fill="#050505"/>
        <path id="Path_114" data-name="Path 114" d="M2559.184,101.893a.785.785,0,0,0,.95-.17,15.783,15.783,0,0,0,5.489-8.863c-.036-.628.06-1.02-.276-1.242-.414-.271-.759.047-1.072.249a10.611,10.611,0,0,0-3.054,3.359,13.634,13.634,0,0,0-2.412,5.489C2558.75,101.15,2558.7,101.609,2559.184,101.893Z" transform="translate(-2550.231 -75.038)" fill="#050505"/>
        <path id="Path_115" data-name="Path 115" d="M2568.642,116.669c.463-.144,1.013-.235,1.078-.843.06-.556-.429-.748-.819-.918a15.268,15.268,0,0,0-9.518-.928c-.371.08-.853.246-.92.654-.086.524.423.738.81.929a15.039,15.039,0,0,0,6.441,1.338A8.74,8.74,0,0,0,2568.642,116.669Z" transform="translate(-2550.338 -67.602)" fill="#050505"/>
        <path id="Path_116" data-name="Path 116" d="M2567.441,114.538c.22-.474-.082-.875-.389-1.184a18.553,18.553,0,0,0-9.747-5.033c-.878.025-1.572-.163-1.824.39s.314,1,.688,1.354a18.615,18.615,0,0,0,9.993,4.949C2566.647,115.1,2567.188,115.08,2567.441,114.538Z" transform="translate(-2551.36 -69.386)" fill="#050505"/>
        <path id="Path_117" data-name="Path 117" d="M2571.031,87.342c.4-.9-.087-1.136-.779-1.008a15.21,15.21,0,0,0-9.138,5.462c-.676.815-.3,1.393.727,1.414C2564.2,93.26,2570.1,89.463,2571.031,87.342Z" transform="translate(-2549.558 -76.793)" fill="#050505"/>
        <path id="Path_118" data-name="Path 118" d="M2575.624,119.6c.456-.144.994-.3,1.048-.9s-.444-.883-.879-1.059a18.057,18.057,0,0,0-11.671-.809c-.444.119-1.081.277-1.076.846.006.524.589.739,1.026.956a17.654,17.654,0,0,0,7.3,1.423A14.507,14.507,0,0,0,2575.624,119.6Z" transform="translate(-2548.792 -66.726)" fill="#050505"/>
        <path id="Path_119" data-name="Path 119" d="M2562.588,108.3a.979.979,0,0,0-.3-1.194,16.163,16.163,0,0,0-8.435-4.763c-.6.036-1.1-.143-1.389.3-.221.349.072.662.294.909a15.646,15.646,0,0,0,8.767,5.02C2561.889,108.652,2562.354,108.715,2562.588,108.3Z" transform="translate(-2552.381 -71.395)" fill="#050505"/>
        <path id="Path_120" data-name="Path 120" d="M2558.363,98.812a.953.953,0,0,0,1.054.364c.464-.194.339-.654.372-1.128a14.937,14.937,0,0,0-4.177-7.872c-.292-.238-.639-.549-1.057-.343-.389.192-.265.621-.222.936A14.154,14.154,0,0,0,2558.363,98.812Z" transform="translate(-2551.743 -75.627)" fill="#050505"/>
        <path id="Path_121" data-name="Path 121" d="M2562.091,99.538c-.605-.866-1.177-.914-1.472.2a17.447,17.447,0,0,0,1.134,11.628,1.072,1.072,0,0,0,1.009.746c.62-.021.781-.56.916-1.013a11.924,11.924,0,0,0,.341-3.5c-.04-.736-.031-1.478-.128-2.207A12.729,12.729,0,0,0,2562.091,99.538Z" transform="translate(-2549.79 -72.555)" fill="#050505"/>
        <path id="Path_122" data-name="Path 122" d="M2556.387,96.29c-.621-.472-1.325-.628-1.2.466a14.83,14.83,0,0,0,4.551,9.15.841.841,0,0,0,1.073.2c.338-.211.3-.585.316-1.02a12.678,12.678,0,0,0-1.241-3.965A12.086,12.086,0,0,0,2556.387,96.29Z" transform="translate(-2551.443 -73.553)" fill="#050505"/>
        <path id="Path_123" data-name="Path 123" d="M2559.1,96.305c.472.039.716-.3.863-.674a14.789,14.789,0,0,0,.772-9.639c-.12-.436-.327-.893-.836-.889-.433,0-.6.454-.771.806a14.5,14.5,0,0,0-1.234,6.232,12.068,12.068,0,0,0,.348,3.274C2558.4,95.847,2558.577,96.263,2559.1,96.305Z" transform="translate(-2550.524 -77.196)" fill="#050505"/>
        <path id="Path_124" data-name="Path 124" d="M2604.545,100.35a16.252,16.252,0,0,0-5.855-8.586c-.969-.7-1.264-.032-1.1.821a15.166,15.166,0,0,0,5.617,8.931C2604.024,102.183,2604.578,101.777,2604.545,100.35Z" transform="translate(-2537.182 -75.053)" fill="#050505"/>
        <path id="Path_125" data-name="Path 125" d="M2601.164,98.8c-.691-.025-.975.794-1.2,1.361a18.622,18.622,0,0,0-.827,10.3c.109.6.246,1.391,1.042,1.433.766.039,1.039-.694,1.262-1.278a18.284,18.284,0,0,0,1.064-6.374,12.829,12.829,0,0,0-.364-3.952C2601.939,99.71,2601.91,98.825,2601.164,98.8Z" transform="translate(-2536.769 -72.588)" fill="#050505"/>
        <path id="Path_126" data-name="Path 126" d="M2599.254,107.529a4.925,4.925,0,0,0-1.4.8,19.1,19.1,0,0,0-5.418,7.963c-.23.655-.688,1.52.162,2,.758.426,1.4-.23,1.946-.706a20.49,20.49,0,0,0,5.033-6.839,6.763,6.763,0,0,0,.694-2.35C2600.362,107.55,2600.036,107.2,2599.254,107.529Z" transform="translate(-2539.013 -69.69)" fill="#050505"/>
        <path id="Path_127" data-name="Path 127" d="M2563.812,109.053a18.356,18.356,0,0,0,4.451,7.232,7.788,7.788,0,0,0,2.486,2.064c.7.315,1.4.385,1.359-.829a2.359,2.359,0,0,0-.083-.513,18.055,18.055,0,0,0-6.814-9.047c-.372-.253-.865-.675-1.338-.285C2563.425,108.044,2563.679,108.582,2563.812,109.053Z" transform="translate(-2548.6 -69.653)" fill="#050505"/>
        <path id="Path_128" data-name="Path 128" d="M2602.508,105.976c.464.245.873-.06,1.176-.386a15.973,15.973,0,0,0,4.012-8.381c0-1-.047-1.247-.357-1.359-.585-.213-.95.233-1.267.563a15.087,15.087,0,0,0-3.992,8.388A1.053,1.053,0,0,0,2602.508,105.976Z" transform="translate(-2535.665 -73.598)" fill="#050505"/>
        <path id="Path_129" data-name="Path 129" d="M2603.555,99.094c.429.144.754-.131,1.028-.425a14.972,14.972,0,0,0,3.7-7.51c-.094-.612.143-1.16-.325-1.406-.541-.285-.965.2-1.263.52a13.416,13.416,0,0,0-3.612,7.706C2603.031,98.415,2603.018,98.913,2603.555,99.094Z" transform="translate(-2535.327 -75.66)" fill="#050505"/>
        <path id="Path_130" data-name="Path 130" d="M2577.649,129.175c.664-1.315,1.9-2.66.718-4.548-1.042,1.683-1.243,3.482-2.125,5.008-1.045,1.806-2.833,2.053-4.974,2.465C2574.443,132.494,2576.429,131.592,2577.649,129.175Z" transform="translate(-2546.027 -63.895)" fill="#050505"/>
        <path id="Path_131" data-name="Path 131" d="M2602.439,95.7c.585.763,1.089.764,1.486-.175a8.124,8.124,0,0,0,.333-3.062,14.875,14.875,0,0,0-1.286-6.276c-.219-.457-.377-1.155-1.043-1.059-.621.087-.749.767-.823,1.272a16.381,16.381,0,0,0,.969,8.666A2.789,2.789,0,0,0,2602.439,95.7Z" transform="translate(-2536.05 -77.192)" fill="#050505"/>
        <path id="Path_132" data-name="Path 132" d="M2580.383,95.179c1.588,1.268,1.435,2.791,1.518,4.235.053.934-.025,1.878.06,2.807.068.756.4,1.573,1.2,1.676.771.1,1.317-.529,1.656-1.251a8.74,8.74,0,0,0,.426-3.639c.036-1.256-.3-2.557.525-3.786Z" transform="translate(-2542.958 -73.805)" fill="#050505"/>
        <path id="Path_133" data-name="Path 133" d="M2576.365,106.972c.58.222,1.338.307,1.25,1.195-.2,2-.149,4.063-1.446,5.8a2.26,2.26,0,0,0-.662,1.5c1.241.009,2.458.031,3.676.02.382,0,.9.136,1.1-.237.279-.533-.316-.742-.62-1.008a1.682,1.682,0,0,1-.44-1.5,28.882,28.882,0,0,1,.238-3.244c.091-.577-.3-1.553.794-1.6.984-.045,2.016-.329,2.656.956.989,1.982,2.162,3.871,3.261,5.8.262.46.428.985,1.143.988.769,0,.829-.58,1.02-1.06.73-1.83,1.44-3.667,2.169-5.5.735-1.85,1.481-3.7,2.221-5.543a47.17,47.17,0,0,1,1.207,6.589c.225,1.81,1.191,3.686-.763,5.454,2.046.015,3.714.028,5.383.039.241,0,.541.021.6-.274a.591.591,0,0,0-.249-.478c-1.242-.723-1.375-1.983-1.542-3.2-.459-3.367-.938-6.733-1.288-10.112-.2-1.893-1.092-3.868.413-5.676.332-.4-.036-.547-.448-.613-1.882-.307-2.472.017-3.188,1.831-.216.551-.414,1.108-.632,1.657-1.5,3.8-3,7.591-4.64,11.752-2.1-4.61-4.005-8.822-5.927-13.031-1.02-2.235-1.034-2.208-3.419-2.044-.846.059-1.04.4-.453.941a2.862,2.862,0,0,1,.715,2.717c-.165,1.668-.261,3.344-.465,5.007-.146,1.183.707,1.234,1.447,1.434,1.007.271.6-.613.8-1.005.139-.283-.058-.719.484-.9a7.8,7.8,0,0,1,1.118,2.706,6.349,6.349,0,0,1-3.332-.568c-3.176-1.476-4.568-4.223-5.2-7.45-.689-3.534.7-7.141,3.208-8.633,3.126-1.855,6.36-1.565,9.329.81.45.361.867,1.161,1.386.949.632-.259.242-1.129.343-1.727.041-.241.013-.493.045-.738.086-.694-.256-.961-.909-1.042a44.3,44.3,0,0,0-7.635-.763,9.962,9.962,0,0,0-9.454,8.614A10.065,10.065,0,0,0,2576.365,106.972Z" transform="translate(-2546.607 -76.508)" fill="#050505"/>
        <path id="Path_134" data-name="Path 134" d="M2599.6,91.066c.605-.005.763-.557.938-1a14.944,14.944,0,0,0,.689-5.321,12.2,12.2,0,0,0-.717-4.544c-.15-.4-.329-.922-.835-.929-.486-.005-.724.45-.875.874a15.78,15.78,0,0,0-.2,9.985C2598.745,90.617,2599.028,91.07,2599.6,91.066Z" transform="translate(-2537.067 -79.159)" fill="#050505"/>
        <path id="Path_135" data-name="Path 135" d="M2594.075,86.317c-.559.115-1.037-.171-1.236.331a1.087,1.087,0,0,0,.341,1.081,15.99,15.99,0,0,0,8.756,5.4c.376.091.815.155,1.089-.219a.916.916,0,0,0-.194-1.21A17.411,17.411,0,0,0,2594.075,86.317Z" transform="translate(-2538.784 -76.787)" fill="#050505"/>
        <path id="Path_136" data-name="Path 136" d="M2597.858,88.522c.46.3,1.111.738,1.619.21.472-.491.109-1.119-.162-1.64a17.538,17.538,0,0,0-6.256-6.747,9.765,9.765,0,0,0-1.381-.611c-.823.191-.6.77-.412,1.243A16.217,16.217,0,0,0,2597.858,88.522Z" transform="translate(-2539.355 -79.003)" fill="#050505"/>
        <path id="Path_137" data-name="Path 137" d="M2580.955,119.889a20.25,20.25,0,0,0-6.779-6.673,8.127,8.127,0,0,0-1.914-.76c-.783-.231-1.154.068-.887.907a9.106,9.106,0,0,0,1.338,2.45,30.878,30.878,0,0,0,4.728,4.814c-.911.154-1.493.231-2.065.352a17.864,17.864,0,0,0-6.348,2.277c-.5.331-1.289.692-1.091,1.4.169.611.978.588,1.55.631a19.494,19.494,0,0,0,10.68-2.318C2581.8,122.117,2581.933,121.461,2580.955,119.889Z" transform="translate(-2547.158 -68.017)" fill="#050505"/>
        <path id="Path_138" data-name="Path 138" d="M2585.921,124.455c-1.681,3.6,2.55,7.944,6.963,7.483C2587.892,132.107,2587.459,127.843,2585.921,124.455Z" transform="translate(-2541.221 -63.953)" fill="#050505"/>
        <path id="Path_139" data-name="Path 139" d="M2601.063,116.464a12.316,12.316,0,0,0-3.629-.425,19.073,19.073,0,0,0-7.085,1.251c-.572.238-1.343.438-1.326,1.207.02.893.9.93,1.526,1.12a12.72,12.72,0,0,0,4.248.294,17,17,0,0,0,6.458-1.337c.525-.237,1.3-.449,1.267-1.084C2602.483,116.767,2601.644,116.675,2601.063,116.464Z" transform="translate(-2540.051 -66.785)" fill="#050505"/>
        <path id="Path_140" data-name="Path 140" d="M2594.815,122.105a30.358,30.358,0,0,0-6.24-1.512c.946-1.018,1.8-1.9,2.613-2.817a13.2,13.2,0,0,0,2.834-4.274c.4-1.117-.119-1.4-1.063-1.119a7.334,7.334,0,0,0-2,.925,19.667,19.667,0,0,0-6.171,6.451c-.968,1.664-.752,2.4,1.008,3.273a21.444,21.444,0,0,0,9.555,2.193,7.763,7.763,0,0,0,1.893-.286c.7-.175.887-.568.31-1.137A7.871,7.871,0,0,0,2594.815,122.105Z" transform="translate(-2541.668 -68.049)" fill="#050505"/>
        <path id="Path_141" data-name="Path 141" d="M2580.007,122.271c.219.408.543.655.937.424.443-.259.059-.623-.1-.867a6.1,6.1,0,0,0-2.177-2.094l.439,1.128C2579.644,121.174,2579.744,121.781,2580.007,122.271Z" transform="translate(-2543.535 -65.542)" fill="#050505"/>
        <path id="Path_142" data-name="Path 142" d="M2610.871,102.1a13.67,13.67,0,0,0-8.873,5c-.663.775-.3,1.378,1.129,1.357a15.468,15.468,0,0,0,5.291-2.4,10.292,10.292,0,0,0,3.028-2.763C2611.9,102.64,2611.916,101.976,2610.871,102.1Z" transform="translate(-2535.792 -71.48)" fill="#050505"/>
        <path id="Path_143" data-name="Path 143" d="M2608.186,108.067a16.961,16.961,0,0,0-10.218,5.1,1.01,1.01,0,0,0-.351,1.189c.234.465.723.445,1.4.517a18.1,18.1,0,0,0,10.009-5.417c.259-.283.515-.676.243-1.063A1.1,1.1,0,0,0,2608.186,108.067Z" transform="translate(-2537.188 -69.473)" fill="#050505"/>
        <path id="Path_144" data-name="Path 144" d="M2605.609,113.78a14.53,14.53,0,0,0-9.776,1.046c-.308.144-.624.36-.6.767.023.468.4.671.768.8a8.018,8.018,0,0,0,2.771.366,15.648,15.648,0,0,0,6.865-1.465c.345-.182.775-.362.794-.8C2606.448,114,2605.97,113.865,2605.609,113.78Z" transform="translate(-2537.962 -67.684)" fill="#050505"/>
        <path id="Path_145" data-name="Path 145" d="M2581.144,125.4a7.556,7.556,0,0,1-.846-4.8,10.834,10.834,0,0,0-1.827.263c-1.59.176-1.675,1.14-1.267,2.3a19.972,19.972,0,0,0,1.247,2.67c1.819,3.452.868,6.79-2.484,8.7-.354.2-.858.25-.981.765.976.595,2.832-.811,3.039,1.391.088-.02.176-.041.263-.057a3.911,3.911,0,0,1,2.94.458c-.488-1.414-1.8-1.323-2.693-2.319a3.279,3.279,0,0,0,.707-.314C2583.1,131.465,2583.465,129.723,2581.144,125.4Z" transform="translate(-2544.774 -65.253)" fill="#050505"/>
        <path id="Path_146" data-name="Path 146" d="M2582.034,121.864c-.146.242-.539.6-.079.859.39.218.7.017.924-.409.274-.52.362-1.212,1.065-1.409l.268-1.268A6.02,6.02,0,0,0,2582.034,121.864Z" transform="translate(-2542.501 -65.574)" fill="#050505"/>
        <path id="Path_147" data-name="Path 147" d="M2586.144,125.107a7.2,7.2,0,0,0,.987-2.92c.054-.478.024-.949-.515-1.073-.867-.2-1.684-.726-2.63-.492a12.254,12.254,0,0,1-1.422,5.74c-1.6,3.212-.841,5.573,2.149,7.629.392.269.873.456,1.072,1.024-.783.6-2.034.646-2.431,1.782.388.237.575.028.789-.065a6.175,6.175,0,0,1,.8-.323c.63-.174,1.83,1.045,1.8-.774,0-.249.508-.182.79-.2.667-.055,1.334-.092,2.28-.155a4.076,4.076,0,0,0-.672-.52C2584.8,133.133,2584.013,128.694,2586.144,125.107Z" transform="translate(-2542.501 -65.263)" fill="#050505"/>
        <path id="Path_148" data-name="Path 148" d="M2583.391,120.59l-.008.04c.017-.005.033-.008.05-.012v-.043C2583.418,120.579,2583.407,120.586,2583.391,120.59Z" transform="translate(-2541.949 -65.259)" fill="#050505"/>
        <path id="Path_149" data-name="Path 149" d="M2579.007,120.584c-.015-.008-.025-.019-.04-.027l-.005.049h.055Z" transform="translate(-2543.437 -65.265)" fill="#050505"/>
      </g>
    </g>
    <g id="Group_89" data-name="Group 89" transform="translate(239 791.711)">
      <path id="Path_150" data-name="Path 150" d="M2532.523,147.248c-.758.134-.851.187-.851,1.091v1.024a7.484,7.484,0,0,0,.08,1.29,20.184,20.184,0,0,1-3.218.44c-3.125,0-4.92-1.9-4.92-4.535,0-2.991,2.434-4.493,5.266-4.493a20.85,20.85,0,0,1,2.686.306c.027.584.133,1.594.225,2.326l-.518.094a2.516,2.516,0,0,0-1.635-1.981,3.992,3.992,0,0,0-1.131-.159c-1.609,0-2.818,1.4-2.818,3.682,0,2.34.824,4.189,3.006,4.189a1.735,1.735,0,0,0,.85-.186c.2-.12.306-.346.306-.758v-1.171c0-.93-.186-1.024-1.3-1.157v-.492h3.977Z" transform="translate(-2523.614 -141.917)" fill="#050505"/>
      <path id="Path_151" data-name="Path 151" d="M2538.081,150.846v-.493c1.01-.106,1.077-.2,1.077-1.4l-.013-5.186c-.958,2.287-2.007,4.813-2.966,7.074h-.438c-.865-2.168-1.808-4.642-2.765-6.967-.173,4.174-.173,5-.173,5.477.012.718.278.9,1.277,1v.493h-3.3v-.493c.758-.065,1.1-.212,1.211-1.01.052-.4.106-1.156.412-5.544.038-.639-.053-1-1.2-1.1V142.2h2.873l2.566,5.863,2.58-5.863h2.805v.492c-1.064.106-1.183.212-1.158,1.276l.107,4.987c.013,1.2.065,1.25,1.144,1.4v.493Z" transform="translate(-2521.202 -141.87)" fill="#050505"/>
      <path id="Path_152" data-name="Path 152" d="M2549.548,148.592c-.067.36-.438,1.889-.559,2.261h-6.9v-.48c1.209-.119,1.289-.186,1.289-1.3v-5.08c0-1.129-.16-1.211-1.064-1.29v-.492h4.321c1.4,0,1.862-.013,2.049-.027.012.239.079,1.33.132,2.154l-.518.065a3.361,3.361,0,0,0-.572-1.236c-.24-.266-.412-.345-1.091-.345h-.865c-.505,0-.557.025-.557.479v2.779h1.3c.746,0,.879-.2,1.079-1.144h.517V147.9h-.517c-.214-.984-.319-1.144-1.09-1.144h-1.29v2.287c0,.918.025,1.2.851,1.211h.944c.744,0,.944-.094,1.237-.453a5.951,5.951,0,0,0,.811-1.328Z" transform="translate(-2517.397 -141.877)" fill="#050505"/>
      <path id="Path_153" data-name="Path 153" d="M2553.385,144.443c-.266-.85-.638-1.82-1.861-1.82a1.224,1.224,0,0,0-1.277,1.288c0,.732.492,1.171,1.663,1.756,1.422.7,2.327,1.4,2.327,2.712,0,1.569-1.3,2.713-3.206,2.713a7.647,7.647,0,0,1-2.233-.413c-.08-.306-.306-1.688-.4-2.314l.519-.119c.266.837,1.012,2.287,2.315,2.287a1.224,1.224,0,0,0,1.3-1.357c0-.771-.479-1.223-1.6-1.822-1.383-.744-2.287-1.41-2.287-2.792s1.091-2.5,3.086-2.5a9.81,9.81,0,0,1,1.9.239c.053.492.147,1.183.253,2.021Z" transform="translate(-2515.273 -141.917)" fill="#050505"/>
      <path id="Path_154" data-name="Path 154" d="M2560.889,144.587a4.071,4.071,0,0,0-.572-1.3c-.24-.279-.345-.385-1.131-.385h-.85v6.25c0,1.116.133,1.2,1.317,1.288v.493h-4.415v-.493c1.131-.092,1.25-.172,1.25-1.288V142.9h-.812c-.744,0-.957.119-1.21.438a5.075,5.075,0,0,0-.545,1.263h-.506c.093-.97.186-2.007.213-2.646h.4c.2.306.358.333.758.333h5.318a.879.879,0,0,0,.771-.333h.386c.012.559.066,1.729.132,2.593Z" transform="translate(-2513.585 -141.954)" fill="#050505"/>
      <path id="Path_155" data-name="Path 155" d="M2564.077,150.893V150.4c.837-.119.837-.265.652-.838-.134-.4-.346-1-.545-1.529h-2.593c-.145.413-.332.918-.465,1.33-.279.838.041.945,1.089,1.037v.493h-3.284V150.4c.839-.106,1.051-.226,1.5-1.343l2.767-6.874.637-.119c.851,2.314,1.756,4.681,2.62,6.9.491,1.236.612,1.33,1.477,1.435v.493Zm-1.17-6.357c-.386.957-.758,1.848-1.091,2.819h2.115Z" transform="translate(-2511.729 -141.917)" fill="#050505"/>
      <path id="Path_156" data-name="Path 156" d="M2572.614,144.587a4.037,4.037,0,0,0-.572-1.3c-.238-.279-.344-.385-1.129-.385h-.852v6.25c0,1.116.133,1.2,1.317,1.288v.493h-4.415v-.493c1.131-.092,1.249-.172,1.249-1.288V142.9h-.811c-.744,0-.957.119-1.209.438a5.055,5.055,0,0,0-.545,1.263h-.505c.092-.97.186-2.007.212-2.646h.4c.2.306.358.333.757.333h5.318a.879.879,0,0,0,.771-.333h.386c.013.559.067,1.729.133,2.593Z" transform="translate(-2509.639 -141.954)" fill="#050505"/>
      <path id="Path_157" data-name="Path 157" d="M2579.151,148.592c-.067.36-.439,1.889-.559,2.261h-6.9v-.48c1.211-.119,1.291-.186,1.291-1.3v-5.08c0-1.129-.16-1.211-1.064-1.29v-.492h4.321c1.4,0,1.861-.013,2.047-.027.013.239.08,1.33.134,2.154l-.519.065a3.361,3.361,0,0,0-.572-1.236c-.239-.266-.412-.345-1.09-.345h-.865c-.505,0-.557.025-.557.479v2.779h1.3c.746,0,.878-.2,1.079-1.144h.517V147.9h-.517c-.214-.984-.32-1.144-1.091-1.144h-1.29v2.287c0,.918.026,1.2.851,1.211h.944c.744,0,.944-.094,1.236-.453a5.889,5.889,0,0,0,.811-1.328Z" transform="translate(-2507.435 -141.877)" fill="#050505"/>
      <path id="Path_158" data-name="Path 158" d="M2589.191,145.7a1.564,1.564,0,0,0-1.463.863c-.385.48-.758.972-1.171,1.542a17.223,17.223,0,0,1,2.38,2.807l-.065.159a4.264,4.264,0,0,1-2.327-.465c-.174-.174-.612-.6-1.09-1.091a3.266,3.266,0,0,1-2.606,1.556,2.552,2.552,0,0,1-2.765-2.473c0-1.117.6-1.6,1.9-2.382a2.59,2.59,0,0,1-.918-1.914,2.325,2.325,0,0,1,2.434-2.235,2.01,2.01,0,0,1,2.235,1.929,1.362,1.362,0,0,1-.585,1.131,12.65,12.65,0,0,1-1.077.678c.373.306,1.158,1.024,2.088,1.9a7.5,7.5,0,0,0,.677-1.117c.279-.585.253-.8-.718-.89V145.2h3.073Zm-5.706,4.149a2.143,2.143,0,0,0,1.57-.759,35.716,35.716,0,0,0-2.7-2.513,1.663,1.663,0,0,0-.6,1.41A1.7,1.7,0,0,0,2583.486,149.853Zm-.105-7.233a1,1,0,0,0-.9,1.116c0,.666.293,1.051,1.184,1.741a1.751,1.751,0,0,0,.744-1.542C2584.4,143.257,2584.085,142.62,2583.38,142.62Z" transform="translate(-2504.611 -141.914)" fill="#050505"/>
      <path id="Path_159" data-name="Path 159" d="M2594.854,146.086c1.4.253,2.381.918,2.381,2.18a2.394,2.394,0,0,1-1.277,2.022,5.26,5.26,0,0,1-2.526.559h-3.723v-.493c1.024-.106,1.13-.172,1.13-1.288V144c0-1.117-.173-1.236-1.117-1.3V142.2h4.041a3.909,3.909,0,0,1,2.182.465,1.711,1.711,0,0,1,.811,1.476A2.177,2.177,0,0,1,2594.854,146.086Zm-1.688-.172c1.263,0,1.728-.545,1.728-1.529a1.436,1.436,0,0,0-1.489-1.6,1.272,1.272,0,0,0-.625.106c-.146.094-.133.212-.133.492v2.527Zm-.519,3.123c0,.958.439,1.251,1.157,1.238s1.449-.652,1.449-1.889c0-1.29-.652-1.9-2.141-1.9h-.465Z" transform="translate(-2501.373 -141.87)" fill="#050505"/>
      <path id="Path_160" data-name="Path 160" d="M2605.094,142.695c-.85.079-1.077.333-1.129.811a16.714,16.714,0,0,0-.067,1.782v1.741a4.381,4.381,0,0,1-.945,3.1,3.439,3.439,0,0,1-2.5.918,3.784,3.784,0,0,1-2.379-.692,3.2,3.2,0,0,1-1.144-2.884V144.1c0-1.224-.121-1.316-1.131-1.41V142.2h4.108v.492c-1,.094-1.116.186-1.116,1.41v3.536c0,1.489.731,2.473,2.153,2.473,1.583,0,2.275-1.169,2.275-3.165v-1.661c0-.918-.041-1.4-.067-1.795-.053-.612-.427-.744-1.357-.8V142.2h3.3Z" transform="translate(-2499.322 -141.87)" fill="#050505"/>
      <path id="Path_161" data-name="Path 161" d="M2603.255,150.846v-.493c1.012-.092,1.131-.172,1.131-1.288V144c0-1.117-.133-1.224-1.131-1.3V142.2h4.11v.492c-1,.094-1.131.186-1.131,1.3v5.067c0,1.1.119,1.183,1.131,1.288v.493Z" transform="translate(-2496.813 -141.87)" fill="#050505"/>
      <path id="Path_162" data-name="Path 162" d="M2614.261,148.506c-.106.571-.479,1.981-.6,2.34h-6.6v-.493c1.17-.079,1.276-.172,1.276-1.288V144c0-1.117-.134-1.224-1.131-1.3V142.2h4.148v.492c-1.037.094-1.169.186-1.169,1.3v5.159c0,.731.027,1.064.758,1.077.027.013.637.013.691.013a1.339,1.339,0,0,0,1.276-.519,5.547,5.547,0,0,0,.838-1.383Z" transform="translate(-2495.53 -141.87)" fill="#050505"/>
      <path id="Path_163" data-name="Path 163" d="M2617,142.2a5.341,5.341,0,0,1,3.8,1.156,3.783,3.783,0,0,1,1.2,2.9,4.174,4.174,0,0,1-1.661,3.471,6.083,6.083,0,0,1-3.764,1.117h-3.656v-.493c1.012-.079,1.131-.2,1.131-1.3V144c0-1.117-.146-1.224-1.131-1.3V142.2Zm-1.1,6.755c0,.944.239,1.263,1.209,1.263,1.8,0,2.833-1.25,2.833-3.764a4.1,4.1,0,0,0-.957-2.938,2.8,2.8,0,0,0-2.14-.746,1.184,1.184,0,0,0-.8.187c-.119.119-.146.345-.146.731Z" transform="translate(-2493.561 -141.87)" fill="#050505"/>
      <path id="Path_164" data-name="Path 164" d="M2627.925,148.592c-.067.36-.438,1.889-.559,2.261h-6.9v-.48c1.209-.119,1.29-.186,1.29-1.3v-5.08c0-1.129-.16-1.211-1.064-1.29v-.492h4.321c1.4,0,1.862-.013,2.048-.027.013.239.08,1.33.133,2.154l-.518.065a3.357,3.357,0,0,0-.572-1.236c-.24-.266-.412-.345-1.091-.345h-.865c-.505,0-.557.025-.557.479v2.779h1.3c.745,0,.878-.2,1.078-1.144h.517V147.9h-.517c-.214-.984-.319-1.144-1.09-1.144h-1.29v2.287c0,.918.025,1.2.852,1.211h.943c.745,0,.944-.094,1.237-.453a5.932,5.932,0,0,0,.811-1.328Z" transform="translate(-2491.021 -141.877)" fill="#050505"/>
      <path id="Path_165" data-name="Path 165" d="M2635,150.925c-.081,0-.241,0-.4-.013-1.688-.079-2.181-.438-2.579-1a23.994,23.994,0,0,1-1.37-2.34.75.75,0,0,0-.812-.438l-.265-.013v1.942c0,1.076.133,1.169,1.13,1.288v.493h-4.068v-.493c1.01-.106,1.129-.212,1.129-1.288v-5.094c0-1.051-.132-1.2-1.129-1.276V142.2h3.855a4.051,4.051,0,0,1,2.407.505,2.03,2.03,0,0,1,.89,1.768,2.27,2.27,0,0,1-1.661,2.154c.2.4.717,1.263,1.116,1.875a10.987,10.987,0,0,0,1.01,1.382,1.618,1.618,0,0,0,.838.585Zm-5.067-4.348a1.954,1.954,0,0,0,1.3-.346,1.891,1.891,0,0,0,.624-1.556c0-1.409-.81-1.914-1.554-1.914-.36,0-.534.053-.612.132s-.119.239-.119.505v3.178Z" transform="translate(-2488.945 -141.87)" fill="#050505"/>
      <path id="Path_166" data-name="Path 166" d="M2638.432,144.443c-.266-.85-.639-1.82-1.862-1.82a1.224,1.224,0,0,0-1.276,1.288c0,.732.491,1.171,1.663,1.756,1.422.7,2.327,1.4,2.327,2.712,0,1.569-1.3,2.713-3.205,2.713a7.642,7.642,0,0,1-2.233-.413c-.08-.306-.306-1.688-.4-2.314l.519-.119c.265.837,1.01,2.287,2.314,2.287a1.224,1.224,0,0,0,1.3-1.357c0-.771-.479-1.223-1.6-1.822-1.382-.744-2.287-1.41-2.287-2.792s1.091-2.5,3.084-2.5a9.816,9.816,0,0,1,1.9.239c.054.492.147,1.183.252,2.021Z" transform="translate(-2486.653 -141.917)" fill="#050505"/>
    </g>
    <g id="Group_90" data-name="Group 90" transform="translate(310.683 806.623)">
      <path id="Path_167" data-name="Path 167" d="M2577.248,154.821a7.506,7.506,0,0,1,.611-1.548l.364-.04a9.112,9.112,0,0,0-.383,1.524Zm.969,0a7.65,7.65,0,0,1,.6-1.548l.365-.04a9.111,9.111,0,0,0-.384,1.524Z" transform="translate(-2577.248 -153.071)" fill="#050505"/>
      <path id="Path_168" data-name="Path 168" d="M2580.128,157.672l-1.112-4.385h.6l.52,2.219c.131.547.248,1.093.326,1.516h.013c.071-.436.207-.956.357-1.522l.585-2.212h.592l.533,2.225c.124.52.241,1.041.306,1.5h.013c.091-.481.214-.969.35-1.516l.58-2.212h.579l-1.243,4.385h-.592l-.553-2.284a12.868,12.868,0,0,1-.285-1.43h-.013a13.965,13.965,0,0,1-.339,1.43l-.625,2.284Z" transform="translate(-2576.653 -153.053)" fill="#050505"/>
      <path id="Path_169" data-name="Path 169" d="M2583.635,155.909a1.009,1.009,0,0,0,1.08,1.093,2.078,2.078,0,0,0,.873-.163l.1.41a2.55,2.55,0,0,1-1.047.2,1.463,1.463,0,0,1-1.549-1.588,1.529,1.529,0,0,1,1.477-1.7,1.335,1.335,0,0,1,1.3,1.484,2.188,2.188,0,0,1-.02.267Zm1.679-.41a.815.815,0,0,0-.794-.93.949.949,0,0,0-.878.93Z" transform="translate(-2575.283 -152.76)" fill="#050505"/>
      <path id="Path_170" data-name="Path 170" d="M2587.539,156.293l-.456,1.379h-.585l1.49-4.385h.683l1.5,4.385h-.605l-.468-1.379Zm1.438-.442-.43-1.262c-.1-.287-.162-.547-.227-.8h-.012c-.066.261-.138.527-.222.794l-.429,1.268Z" transform="translate(-2574.135 -153.053)" fill="#050505"/>
      <path id="Path_171" data-name="Path 171" d="M2589.706,155.213c0-.37-.007-.69-.027-.982h.5l.019.617h.027a.945.945,0,0,1,.872-.69.6.6,0,0,1,.163.02v.54a.852.852,0,0,0-.2-.019.8.8,0,0,0-.767.734,1.6,1.6,0,0,0-.027.267v1.679h-.565Z" transform="translate(-2573.065 -152.76)" fill="#050505"/>
      <path id="Path_172" data-name="Path 172" d="M2591.62,155.909A1.009,1.009,0,0,0,2592.7,157a2.076,2.076,0,0,0,.871-.163l.1.41a2.552,2.552,0,0,1-1.048.2,1.462,1.462,0,0,1-1.548-1.588,1.529,1.529,0,0,1,1.477-1.7,1.334,1.334,0,0,1,1.3,1.484,2.142,2.142,0,0,1-.019.267Zm1.677-.41a.814.814,0,0,0-.792-.93.95.95,0,0,0-.879.93Z" transform="translate(-2572.595 -152.76)" fill="#050505"/>
      <path id="Path_173" data-name="Path 173" d="M2595.523,156.293l-.456,1.379h-.585l1.49-4.385h.683l1.5,4.385h-.606l-.468-1.379Zm1.438-.442-.428-1.262c-.1-.287-.163-.547-.229-.8h-.012c-.065.261-.138.527-.222.794l-.429,1.268Z" transform="translate(-2571.448 -153.053)" fill="#050505"/>
      <path id="Path_174" data-name="Path 174" d="M2597.683,153.112h.573v4.619h-.573Z" transform="translate(-2570.371 -153.112)" fill="#050505"/>
      <path id="Path_175" data-name="Path 175" d="M2598.833,153.112h.572v4.619h-.572Z" transform="translate(-2569.984 -153.112)" fill="#050505"/>
      <path id="Path_176" data-name="Path 176" d="M2601.822,156.293l-.456,1.379h-.585l1.49-4.385h.683l1.5,4.385h-.605l-.468-1.379Zm1.437-.442-.429-1.262c-.1-.287-.163-.547-.227-.8h-.013c-.064.261-.136.527-.22.794l-.429,1.268Z" transform="translate(-2569.329 -153.053)" fill="#050505"/>
      <path id="Path_177" data-name="Path 177" d="M2603.962,157.731c.014-.215.027-.533.027-.813v-3.806h.566v1.978h.013a1.173,1.173,0,0,1,1.073-.58c.781,0,1.333.651,1.327,1.608a1.5,1.5,0,0,1-1.413,1.685,1.122,1.122,0,0,1-1.053-.593h-.02l-.025.521Zm.593-1.262a1.126,1.126,0,0,0,.025.207.884.884,0,0,0,.859.671c.6,0,.956-.488.956-1.21,0-.632-.324-1.172-.936-1.172a.915.915,0,0,0-.873.7,1.194,1.194,0,0,0-.032.234Z" transform="translate(-2568.258 -153.112)" fill="#050505"/>
      <path id="Path_178" data-name="Path 178" d="M2609.66,155.779a1.539,1.539,0,0,1-1.568,1.672,1.5,1.5,0,0,1-1.509-1.621,1.538,1.538,0,0,1,1.561-1.672A1.491,1.491,0,0,1,2609.66,155.779Zm-2.5.032c0,.69.4,1.21.957,1.21s.956-.513.956-1.223c0-.533-.266-1.21-.944-1.21S2607.162,155.213,2607.162,155.811Z" transform="translate(-2567.376 -152.76)" fill="#050505"/>
      <path id="Path_179" data-name="Path 179" d="M2612.067,156.5c0,.326.007.612.027.859h-.508l-.032-.515h-.013a1.185,1.185,0,0,1-1.041.587c-.495,0-1.086-.274-1.086-1.381v-1.84h.572v1.744c0,.6.183,1,.7,1a.83.83,0,0,0,.755-.52.853.853,0,0,0,.052-.293v-1.933h.572Z" transform="translate(-2566.424 -152.742)" fill="#050505"/>
      <path id="Path_180" data-name="Path 180" d="M2612.892,153.535v.9h.819v.436h-.819v1.7c0,.39.111.611.429.611a1.242,1.242,0,0,0,.331-.039l.027.429a1.4,1.4,0,0,1-.508.079.8.8,0,0,1-.617-.241,1.167,1.167,0,0,1-.222-.821v-1.717h-.488v-.436h.488v-.754Z" transform="translate(-2565.605 -152.97)" fill="#050505"/>
      <path id="Path_181" data-name="Path 181" d="M2618.584,155.453a2.054,2.054,0,0,1-2.037,2.31,2.01,2.01,0,0,1-1.97-2.225,2.083,2.083,0,0,1,2.036-2.3A2,2,0,0,1,2618.584,155.453Zm-3.4.071c0,.937.508,1.776,1.4,1.776s1.405-.826,1.405-1.822c0-.871-.455-1.783-1.4-1.783S2615.181,154.562,2615.181,155.524Z" transform="translate(-2564.686 -153.071)" fill="#050505"/>
      <path id="Path_182" data-name="Path 182" d="M2620.768,156.5c0,.326.007.612.025.859h-.508l-.032-.515h-.012a1.187,1.187,0,0,1-1.041.587c-.495,0-1.086-.274-1.086-1.381v-1.84h.572v1.744c0,.6.182,1,.7,1a.8.8,0,0,0,.806-.813v-1.933h.574Z" transform="translate(-2563.496 -152.742)" fill="#050505"/>
      <path id="Path_183" data-name="Path 183" d="M2620.819,155.213c0-.37-.007-.69-.027-.982h.5l.019.617h.027a.946.946,0,0,1,.872-.69.608.608,0,0,1,.163.02v.54a.849.849,0,0,0-.2-.019.8.8,0,0,0-.769.734,1.757,1.757,0,0,0-.025.267v1.679h-.565Z" transform="translate(-2562.594 -152.76)" fill="#050505"/>
      <path id="Path_184" data-name="Path 184" d="M2626.583,157.547a2.812,2.812,0,0,1-1.159.208,2.05,2.05,0,0,1-2.166-2.219,2.183,2.183,0,0,1,2.291-2.3,2.364,2.364,0,0,1,1.041.2l-.136.462a2.085,2.085,0,0,0-.886-.182,1.631,1.631,0,0,0-1.711,1.808,1.6,1.6,0,0,0,1.686,1.763,2.257,2.257,0,0,0,.924-.182Z" transform="translate(-2561.765 -153.071)" fill="#050505"/>
      <path id="Path_185" data-name="Path 185" d="M2626.263,153.112h.572v4.619h-.572Z" transform="translate(-2560.753 -153.112)" fill="#050505"/>
      <path id="Path_186" data-name="Path 186" d="M2628.068,153.64a.355.355,0,0,1-.71,0,.349.349,0,0,1,.358-.358A.34.34,0,0,1,2628.068,153.64Zm-.637,4.034v-3.149H2628v3.149Z" transform="translate(-2560.385 -153.055)" fill="#050505"/>
      <path id="Path_187" data-name="Path 187" d="M2628.929,155.909a1.008,1.008,0,0,0,1.08,1.093,2.076,2.076,0,0,0,.872-.163l.1.41a2.557,2.557,0,0,1-1.048.2,1.462,1.462,0,0,1-1.548-1.588,1.528,1.528,0,0,1,1.477-1.7,1.334,1.334,0,0,1,1.3,1.484,2.191,2.191,0,0,1-.019.267Zm1.677-.41a.814.814,0,0,0-.792-.93.951.951,0,0,0-.879.93Z" transform="translate(-2560.04 -152.76)" fill="#050505"/>
      <path id="Path_188" data-name="Path 188" d="M2631,155.083c0-.325-.007-.592-.027-.853h.508l.032.521h.013a1.157,1.157,0,0,1,1.041-.593c.436,0,1.112.261,1.112,1.34v1.88h-.572v-1.815c0-.508-.189-.93-.73-.93a.811.811,0,0,0-.767.585.825.825,0,0,0-.039.266v1.894H2631Z" transform="translate(-2559.168 -152.76)" fill="#050505"/>
      <path id="Path_189" data-name="Path 189" d="M2634.456,153.535v.9h.821v.436h-.821v1.7c0,.39.111.611.43.611a1.246,1.246,0,0,0,.332-.039l.027.429a1.408,1.408,0,0,1-.508.079.794.794,0,0,1-.617-.241,1.168,1.168,0,0,1-.222-.821v-1.717h-.488v-.436h.488v-.754Z" transform="translate(-2558.348 -152.97)" fill="#050505"/>
      <path id="Path_190" data-name="Path 190" d="M2635.267,156.794a1.5,1.5,0,0,0,.753.227c.417,0,.613-.207.613-.468s-.164-.424-.586-.579c-.566-.2-.833-.515-.833-.891a.972.972,0,0,1,1.086-.925,1.577,1.577,0,0,1,.776.2l-.144.416a1.233,1.233,0,0,0-.644-.182c-.338,0-.526.2-.526.429,0,.261.188.378.6.533.546.209.827.481.827.95,0,.553-.431.944-1.178.944a1.8,1.8,0,0,1-.884-.215Z" transform="translate(-2557.771 -152.76)" fill="#050505"/>
      <path id="Path_191" data-name="Path 191" d="M2637.914,153.233a7.837,7.837,0,0,1-.6,1.542l-.365.045a9.834,9.834,0,0,0,.383-1.529Zm.964,0a7.924,7.924,0,0,1-.6,1.542l-.365.045a9.313,9.313,0,0,0,.383-1.529Z" transform="translate(-2557.159 -153.071)" fill="#050505"/>
    </g>
  </g>
</svg>
