<svg xmlns="http://www.w3.org/2000/svg" width="306" height="216" viewBox="0 0 306 216"><defs><style>.a{fill:#f7f7f7;}.b{fill:#6a6e4d;}.c{fill:#1e1e1e;}</style></defs><g transform="translate(-3387 -893)"><rect class="a" width="306" height="216" transform="translate(3387 893)"/><path class="b" d="M1886.08,766.757v18.126l-5.409-4.958a3.305,3.305,0,0,0,.543-4.66c-1.224-1.76-3.152-2.188-5.57-.5l-9.763,6.833-2.823-4.032,7.514-5.264c2.418-1.691,2.67-3.65,1.446-5.4s-3.152-2.188-5.578-.49l-7.506,5.257-2.487-3.55,9.373-6.557c2.425-1.7,2.678-3.65,1.446-5.4s-3.152-2.188-5.57-.5l-12.847,8.99c-3.129,2.188-3.6,4.66-1.232,8.034l10.957,15.655c2.357,3.367,4.836,3.78,7.957,1.591l13.237-9.266a5.985,5.985,0,0,0,.528-.406v29.022h-41.409l15.716-11c2.418-1.691,2.923-3.665,1.469-5.739s-3.474-2.272-5.892-.574l-9.128,6.381,2.41-19.565c.268-2.234.038-3.382-.773-4.537-1.377-1.966-3.6-2.762-6.167-.972l-15.234,10.666c-2.632,1.844-2.976,3.963-1.653,5.861s3.443,2.3,6.075.459l7.865-5.5-2.25,18.3c-.405,3.16-.26,4.422.673,5.754a4.484,4.484,0,0,0,.367.467h-13.5V781.111l-4.132,3.772V768.158l36.635-26.719Z" transform="translate(1693.688 219.77)"/><g transform="translate(3505.538 958.283)"><path class="c" d="M1814.158,771.792l-1.641,1.2.19.8-.687.5-1.057-4.43.687-.5,3.895,2.361-.683.5Zm-.611-.372-1.64-.992.442,1.864Z" transform="translate(-1810.963 -745.072)"/><path class="c" d="M1817.06,765.809l-1.088.792-.411-.563,2.788-2.032.411.564-1.088.793,2.064,2.833-.613.447Z" transform="translate(-1812.043 -743.814)"/><path class="c" d="M1821.992,763.207l.376.514a1.015,1.015,0,0,0-.324,1.477l.94,1.291-.6.44-1.863-2.557.6-.439.36.5A1.209,1.209,0,0,1,1821.992,763.207Z" transform="translate(-1813.207 -743.627)"/><path class="c" d="M1825.24,760.763l1.864,2.557-.6.44-.249-.341a1.176,1.176,0,0,1-.5.977,1.15,1.15,0,0,1-1.67-.3l-1.187-1.627.585-.425,1.1,1.508a.676.676,0,0,0,.971.2.748.748,0,0,0,.265-.936l-1.177-1.616Z" transform="translate(-1813.766 -743.053)"/><path class="c" d="M1828.2,762.269l-.034-.618a1.8,1.8,0,0,0,1.071-.327c.242-.177.335-.4.22-.561-.143-.2-.414-.1-.762.033-.659.261-1.125.359-1.461-.093a1.055,1.055,0,0,1,.376-1.508,2.253,2.253,0,0,1,1.2-.407l.068.624a1.738,1.738,0,0,0-.894.3c-.214.155-.314.358-.21.5.118.163.287.116.76-.055.517-.194,1.089-.386,1.48.149a1.075,1.075,0,0,1-.417,1.537A2.268,2.268,0,0,1,1828.2,762.269Z" transform="translate(-1814.74 -742.589)"/><path class="c" d="M1832.817,759a1.072,1.072,0,0,1-.4.6.865.865,0,0,1-1.259-.21l-1.005-1.379-.371.269-.364-.5.37-.27-.511-.7.589-.429.511.7.58-.422.363.5-.578.422.952,1.305a.334.334,0,0,0,.468.114.461.461,0,0,0,.184-.279Z" transform="translate(-1815.265 -742.023)"/><path class="c" d="M1835.367,756.431l.67.119a1.915,1.915,0,0,1-.75,1.152,1.629,1.629,0,0,1-2.315-.372,1.6,1.6,0,0,1,.332-2.278c.79-.576,1.687-.313,2.374.631l-1.927,1.4a.881.881,0,0,0,1.143.083A1.239,1.239,0,0,0,1835.367,756.431Zm-1.947.194,1.345-.98a.786.786,0,0,0-1.047-.077A.875.875,0,0,0,1833.42,756.625Z" transform="translate(-1816.053 -741.64)"/><path class="c" d="M1837.737,750.056l2.518,3.456-.6.44-.288-.4a1.3,1.3,0,0,1-.553,1.1,1.67,1.67,0,0,1-1.95-2.675,1.3,1.3,0,0,1,1.217-.19l-.944-1.3Zm.982,2.615a.919.919,0,0,0-1.32-.294,1.027,1.027,0,1,0,1.32.294Z" transform="translate(-1816.911 -740.538)"/><path class="c" d="M1840.689,747.67l.619-.45,3.534,1.08-1.739-2.388.613-.447,2.476,3.4-.615.447-3.534-1.08,1.739,2.388-.617.451Z" transform="translate(-1817.945 -739.46)"/><path class="c" d="M1849.249,745.045l1.121,1.537-.588.429-.224-.307a1.3,1.3,0,0,1-.539.953,1.057,1.057,0,0,1-1.548-.121,1.163,1.163,0,0,1,.423-1.611,2.568,2.568,0,0,1,.817-.384l-.05-.069a.686.686,0,0,0-1.053-.125,1.94,1.94,0,0,0-.552.7l-.514-.269a2.863,2.863,0,0,1,.825-1.01A1.259,1.259,0,0,1,1849.249,745.045Zm-.05,1.165-.21-.287a2.4,2.4,0,0,0-.7.359.593.593,0,0,0-.245.806.537.537,0,0,0,.787.031A.822.822,0,0,0,1849.2,746.21Z" transform="translate(-1819.319 -739.225)"/><path class="c" d="M1854.354,740.745l1.185,1.627-.588.429-1.113-1.529a.639.639,0,0,0-.913-.213.648.648,0,0,0-.169.942l1.142,1.566-.588.429-1.113-1.528a.639.639,0,0,0-.918-.21.652.652,0,0,0-.168.942l1.142,1.567-.6.44-1.862-2.557.6-.439.253.347a.968.968,0,0,1,.417-.925,1.107,1.107,0,0,1,1.169-.109,1.065,1.065,0,0,1,.472-1.086A1.153,1.153,0,0,1,1854.354,740.745Z" transform="translate(-1820.081 -738.226)"/><path class="c" d="M1858.875,739.3l.668.119a1.91,1.91,0,0,1-.751,1.152,1.628,1.628,0,0,1-2.315-.372,1.6,1.6,0,0,1,.332-2.278c.792-.576,1.687-.313,2.374.631l-1.927,1.4a.881.881,0,0,0,1.143.083A1.255,1.255,0,0,0,1858.875,739.3Zm-1.949.194,1.345-.979a.786.786,0,0,0-1.047-.078A.877.877,0,0,0,1856.926,739.493Z" transform="translate(-1821.575 -737.617)"/></g><g transform="translate(3546.59 957.04)"><path class="c" d="M1866.474,736.924l.6.438-1.86,2.559-.6-.438Zm.492-.761a.426.426,0,1,1,.1.6A.434.434,0,0,1,1866.966,736.163Z" transform="translate(-1864.615 -735.991)"/><path class="c" d="M1869.807,741.053l-1.184,1.629-.584-.425,1.1-1.509a.676.676,0,0,0-.108-.986.749.749,0,0,0-.972.036l-1.176,1.618-.6-.439,1.859-2.559.6.439-.248.34a1.176,1.176,0,0,1,1.083.175A1.151,1.151,0,0,1,1869.807,741.053Z" transform="translate(-1865.005 -736.561)"/><path class="c" d="M1874.135,746.429l.03-1.725-.659-.478-.831,1.143-.618-.45,2.471-3.4,1.48,1.076a1.442,1.442,0,0,1,.452,2.053,1.366,1.366,0,0,1-1.594.467l-.028,1.826Zm-.215-2.772.792.575c.42.305.867.305,1.119-.041s.115-.771-.306-1.077l-.792-.575Z" transform="translate(-1866.363 -737.289)"/><path class="c" d="M1878.891,749.066l.093.673a1.913,1.913,0,0,1-1.327-.359,1.63,1.63,0,0,1-.358-2.318,1.6,1.6,0,0,1,2.269-.385c.791.575.816,1.509.13,2.453l-1.93-1.4a.88.88,0,0,0,.272,1.113A1.239,1.239,0,0,0,1878.891,749.066Zm-.784-1.794,1.347.979a.787.787,0,0,0-.249-1.021A.875.875,0,0,0,1878.107,747.271Z" transform="translate(-1867.516 -738.427)"/><path class="c" d="M1883.6,751.251l-1.118,1.539-.589-.428.222-.307a1.3,1.3,0,0,1-1.072-.22,1.059,1.059,0,0,1-.363-1.51,1.164,1.164,0,0,1,1.663-.093,2.558,2.558,0,0,1,.618.661l.049-.07a.685.685,0,0,0-.2-1.041,1.932,1.932,0,0,0-.833-.311l.1-.571a2.849,2.849,0,0,1,1.213.474A1.259,1.259,0,0,1,1883.6,751.251Zm-1.125.31.208-.287a2.361,2.361,0,0,0-.556-.556.594.594,0,0,0-.843.015.538.538,0,0,0,.213.759A.824.824,0,0,0,1882.479,751.561Z" transform="translate(-1868.345 -739.023)"/><path class="c" d="M1886.465,750.086l.6.438-2.513,3.459-.6-.439Z" transform="translate(-1869.156 -739.302)"/><path class="c" d="M1890.152,753.737l-.6.821,1.757,1.276-.41.564-1.757-1.276-.644.886,1.94,1.409-.41.564-2.558-1.859,2.471-3.4,2.559,1.859-.409.565Z" transform="translate(-1869.983 -739.921)"/><path class="c" d="M1891.652,759l.578-.223a1.81,1.81,0,0,0,.64.919c.243.175.487.194.6.036.144-.2-.033-.424-.266-.715-.451-.547-.687-.96-.361-1.419a1.055,1.055,0,0,1,1.551-.1,2.255,2.255,0,0,1,.758,1.018l-.573.258a1.73,1.73,0,0,0-.558-.761c-.212-.155-.438-.188-.541-.045-.119.163-.021.309.287.707.344.432.7.918.312,1.453a1.074,1.074,0,0,1-1.591.077A2.269,2.269,0,0,1,1891.652,759Z" transform="translate(-1870.965 -740.974)"/><path class="c" d="M1896.506,762.442a1.067,1.067,0,0,1-.691-.193.865.865,0,0,1-.187-1.262l1-1.38-.37-.269.363-.5.371.269.511-.7.59.429-.511.7.578.42-.364.5-.578-.421-.951,1.307a.334.334,0,0,0,.037.48.453.453,0,0,0,.321.09Z" transform="translate(-1871.854 -741.255)"/><path class="c" d="M1900.714,763.685l-1.119,1.539-.589-.428.224-.307a1.3,1.3,0,0,1-1.073-.22,1.059,1.059,0,0,1-.362-1.511,1.163,1.163,0,0,1,1.663-.093,2.537,2.537,0,0,1,.617.66l.05-.069a.687.687,0,0,0-.2-1.041,1.947,1.947,0,0,0-.833-.31l.1-.571a2.844,2.844,0,0,1,1.214.474A1.259,1.259,0,0,1,1900.714,763.685Zm-1.125.309.21-.287a2.414,2.414,0,0,0-.557-.555.594.594,0,0,0-.843.015.537.537,0,0,0,.212.759A.822.822,0,0,0,1899.589,763.995Z" transform="translate(-1872.364 -741.944)"/><path class="c" d="M1902.765,766.991a1.085,1.085,0,0,1-.693-.194.865.865,0,0,1-.187-1.262l1-1.381-.372-.27.363-.5.371.27.511-.7.589.428-.511.7.579.42-.363.5-.579-.422-.95,1.308a.332.332,0,0,0,.037.48.456.456,0,0,0,.321.089Z" transform="translate(-1873.323 -742.323)"/><path class="c" d="M1906.1,768.841l.093.672a1.92,1.92,0,0,1-1.327-.359,1.629,1.629,0,0,1-.358-2.318,1.6,1.6,0,0,1,2.269-.385c.792.576.816,1.508.13,2.453l-1.93-1.4a.88.88,0,0,0,.272,1.113A1.247,1.247,0,0,0,1906.1,768.841Zm-.784-1.794,1.347.978a.787.787,0,0,0-.249-1.021A.879.879,0,0,0,1905.32,767.047Z" transform="translate(-1873.907 -743.072)"/></g><g transform="translate(3490 1035.99)"><path class="b" d="M1790.655,850.061l4.332-8.25h-4v-2.338h7.081v2.064l-4.071,8.006h4.328l-.331,2.331h-7.335Z" transform="translate(-1790.655 -839.245)"/><path class="b" d="M1804.994,849.22l-.422,2.654h-2.85l2.446-12.4h4.006l2.478,12.4h-2.96l-.435-2.654Zm1.885-2.4c-.281-1.81-.553-3.828-.709-4.968h-.094c-.121,1.188-.424,3.158-.718,4.968Z" transform="translate(-1793.254 -839.245)"/><path class="b" d="M1822.418,847.9c0-1.927.031-4.492.067-5.99h-.082c-.364,2.587-.881,6.779-1.438,9.961h-2.3c-.434-3.31-.95-7.484-1.29-9.991h-.094c.061,1.457.116,3.964.116,6.112v3.879h-2.507v-12.4h4.012c.409,2.589.815,5.7,1,7.441h.057c.238-1.847.7-4.54,1.17-7.441h3.972v12.4h-2.682Z" transform="translate(-1796.346 -839.245)"/><path class="b" d="M1837.462,846.618h-3.755v2.956h4.251l-.333,2.3h-6.712v-12.4h6.719V841.8h-3.926v2.5h3.755Z" transform="translate(-1800.11 -839.245)"/><path class="b" d="M1848.382,846.618h-3.755v2.956h4.251l-.333,2.3h-6.712v-12.4h6.719V841.8h-3.926v2.5h3.755Z" transform="translate(-1802.675 -839.245)"/><path class="b" d="M1852.752,851.874v-12.4h3.119c1.885,5.846,2.323,7.251,2.451,7.818h.051c-.123-1.561-.162-3.6-.162-5.54v-2.278h2.517v12.4h-3.072c-1.959-6.445-2.327-7.695-2.466-8.231h-.057c.1,1.492.15,3.79.15,5.818v2.413Z" transform="translate(-1805.239 -839.245)"/><path class="b" d="M1876.582,846.618h-3.755v2.956h4.251l-.333,2.3h-6.712v-12.4h6.719V841.8h-3.926v2.5h3.755Z" transform="translate(-1809.298 -839.245)"/><path class="b" d="M1883.132,848.215c.071,1.018.361,1.719,1.213,1.719.828,0,1.092-.557,1.092-1.262,0-.858-.431-1.363-1.889-2.11-2.155-1.112-2.968-2.051-2.968-3.874,0-2.122,1.3-3.512,3.753-3.512,2.89,0,3.716,1.8,3.741,3.709h-2.743c-.048-.864-.206-1.605-1.015-1.605-.634,0-.918.411-.918,1.1,0,.711.278,1.077,1.626,1.751,2.3,1.158,3.275,2.136,3.275,4.222,0,2.049-1.2,3.683-3.982,3.683-3.016,0-3.935-1.719-4-3.823Z" transform="translate(-1811.714 -839.176)"/><path class="b" d="M1893.472,841.8h-2.445v-2.331h7.722V841.8h-2.432v10.071h-2.844Z" transform="translate(-1814.229 -839.245)"/><path class="b" d="M1903.776,849.22l-.422,2.654h-2.85l2.447-12.4h4l2.477,12.4h-2.959l-.435-2.654Zm1.886-2.4c-.282-1.81-.553-3.828-.71-4.968h-.094c-.121,1.188-.424,3.158-.718,4.968Z" transform="translate(-1816.454 -839.245)"/><path class="b" d="M1913.607,841.8h-2.445v-2.331h7.721V841.8h-2.432v10.071h-2.844Z" transform="translate(-1818.958 -839.245)"/><path class="b" d="M1929.406,846.618h-3.756v2.956h4.251l-.333,2.3h-6.712v-12.4h6.719V841.8h-3.926v2.5h3.756Z" transform="translate(-1821.704 -839.245)"/></g><g transform="translate(3496.296 1053.65)"><path class="c" d="M1800.087,867.223a1.271,1.271,0,0,0,1.432,1c.82,0,1.16-.349,1.16-.86,0-.558-.308-.827-1.458-1.1-1.647-.39-2.105-.979-2.105-1.849,0-1.05.782-1.806,2.255-1.806,1.625,0,2.28.894,2.369,1.79h-1.2c-.083-.451-.345-.887-1.2-.887-.63,0-1,.27-1,.773s.3.693,1.355.941c1.833.437,2.209,1.13,2.209,2,0,1.113-.836,1.91-2.471,1.91-1.605,0-2.4-.819-2.544-1.914Z" transform="translate(-1798.884 -862.341)"/><path class="c" d="M1810.434,868.391a9.466,9.466,0,0,0,.064,1.155h-1.09a2.137,2.137,0,0,1-.07-.513,1.415,1.415,0,0,1-1.37.624,1.447,1.447,0,0,1-1.606-1.466c0-1.068.85-1.559,2.24-1.559h.717v-.327c0-.363-.125-.752-.823-.752-.631,0-.756.287-.825.637h-1.089c.068-.774.548-1.478,1.956-1.471,1.226.005,1.9.491,1.9,1.6Zm-1.112-1.043h-.611c-.838,0-1.2.246-1.2.772a.681.681,0,0,0,.76.7c.933,0,1.052-.64,1.052-1.341Z" transform="translate(-1800.64 -862.835)"/><path class="c" d="M1813.215,868.968v-6.711h1.142v6.711Z" transform="translate(-1802.25 -862.257)"/><path class="c" d="M1816.977,867.423c0,.714.361,1.326,1.062,1.326a.859.859,0,0,0,.929-.58h1.143a2.015,2.015,0,0,1-2.1,1.487,2.16,2.16,0,0,1-2.181-2.406c0-1.453.741-2.53,2.229-2.53a2.056,2.056,0,0,1,2.12,2.308,3.409,3.409,0,0,1-.015.4Zm2.053-.725c-.009-.626-.285-1.142-.979-1.142s-.984.481-1.047,1.142Z" transform="translate(-1802.863 -862.836)"/><path class="c" d="M1823.359,868.152a.9.9,0,0,0,.981.665c.553,0,.761-.215.761-.549,0-.35-.207-.5-.959-.68-1.473-.362-1.734-.816-1.734-1.473,0-.686.49-1.394,1.842-1.394s1.848.755,1.9,1.4h-1.09c-.051-.219-.2-.579-.857-.579-.509,0-.667.232-.667.478,0,.274.162.408.962.6,1.525.357,1.77.876,1.77,1.57,0,.8-.615,1.471-1.965,1.471s-1.955-.666-2.064-1.505Z" transform="translate(-1804.368 -862.836)"/><path class="c" d="M1828.337,871.62a7.312,7.312,0,0,0,.668-2.581h1.167a5.235,5.235,0,0,1-.94,2.581Z" transform="translate(-1805.801 -863.85)"/><path class="c" d="M1834.868,862.733h2.551a1.948,1.948,0,0,1,2.2,1.925,1.969,1.969,0,0,1-2.24,1.97h-1.321v2.452h-1.192Zm1.192,2.935h1.193c.714,0,1.159-.306,1.159-.985,0-.695-.492-.989-1.129-.989h-1.223Z" transform="translate(-1807.335 -862.369)"/><path class="c" d="M1846.278,868.208c0,.456,0,1,.009,1.372h-1.116c-.019-.125-.028-.39-.035-.6a1.364,1.364,0,0,1-1.342.709c-.906,0-1.57-.521-1.57-1.745v-3.083h1.138v2.851c0,.553.173,1.031.811,1.031.687,0,.963-.373.963-1.389v-2.494h1.141Z" transform="translate(-1809.063 -862.869)"/><path class="c" d="M1849.032,866.109c0-.533,0-.933-.009-1.28h1.119c.015.115.031.55.031.874a1.559,1.559,0,0,1,1.539-.983v1.1c-.954-.006-1.539.333-1.539,1.592v2.135h-1.141Z" transform="translate(-1810.66 -862.836)"/><path class="c" d="M1857.3,868.05a1.934,1.934,0,0,1-2.064,1.607,2.145,2.145,0,0,1-2.182-2.438,2.271,2.271,0,0,1,2.244-2.5,1.83,1.83,0,0,1,2,1.641h-1.118a.843.843,0,0,0-.906-.734c-.676,0-1.06.588-1.06,1.555,0,1.028.392,1.575,1.047,1.575a.907.907,0,0,0,.913-.706Z" transform="translate(-1811.607 -862.836)"/><path class="c" d="M1860.772,862.257v2.6a1.53,1.53,0,0,1,1.391-.713c.839,0,1.583.484,1.583,1.806v3.021h-1.134v-2.846c0-.676-.259-1.043-.853-1.043-.767,0-.987.547-.987,1.36v2.528h-1.142v-6.711Z" transform="translate(-1813.151 -862.257)"/><path class="c" d="M1870.11,868.391a9.408,9.408,0,0,0,.064,1.155h-1.09a2.137,2.137,0,0,1-.07-.513,1.414,1.414,0,0,1-1.37.624,1.447,1.447,0,0,1-1.606-1.466c0-1.068.85-1.559,2.24-1.559H1869v-.327c0-.363-.125-.752-.823-.752-.632,0-.757.287-.825.637h-1.09c.068-.774.548-1.478,1.955-1.471,1.226.005,1.9.491,1.9,1.6ZM1869,867.348h-.61c-.839,0-1.2.246-1.2.772a.681.681,0,0,0,.76.7c.932,0,1.052-.64,1.052-1.341Z" transform="translate(-1814.656 -862.835)"/><path class="c" d="M1873.494,868.152a.9.9,0,0,0,.982.665c.553,0,.761-.215.761-.549,0-.35-.207-.5-.958-.68-1.473-.362-1.735-.816-1.735-1.473,0-.686.49-1.394,1.842-1.394s1.848.755,1.9,1.4h-1.09c-.051-.219-.205-.579-.857-.579-.509,0-.667.232-.667.478,0,.274.162.408.962.6,1.525.357,1.769.876,1.769,1.57,0,.8-.614,1.471-1.964,1.471s-1.955-.666-2.064-1.505Z" transform="translate(-1816.143 -862.836)"/><path class="c" d="M1879.425,867.423c0,.714.361,1.326,1.063,1.326a.858.858,0,0,0,.928-.58h1.144a2.017,2.017,0,0,1-2.1,1.487,2.16,2.16,0,0,1-2.18-2.406c0-1.453.742-2.53,2.229-2.53a2.056,2.056,0,0,1,2.119,2.308,3.381,3.381,0,0,1-.015.4Zm2.053-.725c-.008-.626-.285-1.142-.979-1.142s-.984.481-1.047,1.142Z" transform="translate(-1817.53 -862.836)"/><path class="c" d="M1893.859,865.084l-1.668,2.316c-.741,1.035-1.262,1.744-2.58,1.744a1.777,1.777,0,0,1-1.97-1.736c0-.889.564-1.435,1.742-2.015.7-.3,1.278-.643,1.278-1.243a.661.661,0,0,0-.666-.728.669.669,0,0,0-.679.751c0,.388.31.709.712,1.09l3.877,3.789h-1.487l-3.372-3.314a2.118,2.118,0,0,1-.784-1.487,1.613,1.613,0,0,1,1.732-1.637,1.547,1.547,0,0,1,1.684,1.517c0,.791-.571,1.265-1.719,1.834-.914.412-1.147.862-1.147,1.31a.878.878,0,0,0,.92.9c.686,0,1-.328,1.783-1.431l1.168-1.659Z" transform="translate(-1819.73 -862.341)"/><path class="c" d="M1901.218,866.452v2.628h-1.168v-6.347h2.683c1.356,0,2.085.744,2.085,1.728a1.487,1.487,0,0,1-.978,1.5c.384.124.851.471.851,1.6v.3a4.855,4.855,0,0,0,.089,1.226h-1.135a4.4,4.4,0,0,1-.125-1.4v-.107c0-.766-.2-1.116-1.265-1.116Zm0-.96h1.229c.826,0,1.163-.313,1.163-.907,0-.57-.373-.891-1.109-.891h-1.282Z" transform="translate(-1822.644 -862.369)"/><path class="c" d="M1908.284,867.423c0,.714.362,1.326,1.063,1.326a.859.859,0,0,0,.929-.58h1.143a2.016,2.016,0,0,1-2.1,1.487,2.161,2.161,0,0,1-2.181-2.406c0-1.453.742-2.53,2.229-2.53a2.056,2.056,0,0,1,2.12,2.308,3.221,3.221,0,0,1-.015.4Zm2.054-.725c-.009-.626-.286-1.142-.979-1.142s-.985.481-1.048,1.142Z" transform="translate(-1824.308 -862.836)"/><path class="c" d="M1913.983,866.018c0-.4,0-.835-.009-1.189h1.105a6.4,6.4,0,0,1,.045.66,1.448,1.448,0,0,1,1.408-.769c.926,0,1.568.607,1.568,1.815v3.012h-1.141v-2.881c0-.591-.211-1.008-.836-1.008-.668,0-1,.433-1,1.3v2.585h-1.141Z" transform="translate(-1825.914 -862.836)"/><path class="c" d="M1920.094,864.459h.757v-1.316h1.141v1.316h.963v.875h-.963v2.475c0,.392.109.562.512.562a2.049,2.049,0,0,0,.335-.022v.8a2.711,2.711,0,0,1-.82.089c-.858,0-1.169-.455-1.169-1.266v-2.641h-.757Z" transform="translate(-1827.352 -862.465)"/></g></g></svg>