<svg xmlns="http://www.w3.org/2000/svg" width="306" height="216" viewBox="0 0 306 216"><defs><style>.a{fill:#f7f7f7;}.b{fill:#231f20;}</style></defs><g transform="translate(-4353 -650)"><rect class="a" width="306" height="216" transform="translate(4353 650)"/><g transform="translate(4445 759)"><path class="b" d="M1543.845,1404.584a7.775,7.775,0,0,0-3.02-.857c-.723,0-1.2.317-1.2.819,0,.447.392.856,1.613,1.714l.931.634c2.068,1.434,2.729,2.329,2.729,3.669,0,2.347-2.089,3.949-5.171,3.949a10.9,10.9,0,0,1-2.978-.448V1411.7a7.064,7.064,0,0,0,2.978.727c1.552,0,2.565-.651,2.565-1.62,0-.616-.413-1.1-1.8-2.087l-.993-.708c-1.86-1.323-2.42-2.068-2.42-3.187,0-1.788,1.531-3.036,3.723-3.036a9.161,9.161,0,0,1,3.041.578Z" transform="translate(-1536.751 -1401.79)"/><path class="b" d="M1549.951,1413.1a3.223,3.223,0,0,1-2.212.8c-2.09,0-3.537-1.6-3.537-3.949a7.677,7.677,0,0,1,1.821-4.676l2.15.969a5.136,5.136,0,0,0-1.571,3.538c0,1.323.681,2.235,1.675,2.235a2.229,2.229,0,0,0,1.51-.762V1407.7c0-.075-.021-.243-.021-.541-.02-.67-.063-.969-.124-1.566h2.606c-.041.429-.084.691-.1,1.062,0,.15-.022.448-.022.839v4.731c.022.671.063.969.125,1.566h-2.3Z" transform="translate(-1535.555 -1401.231)"/><path class="b" d="M1554.6,1402.965l-.042.838c0,.111-.021.186-.021.224v2.569a3.942,3.942,0,0,1,2.026-.577c2.069,0,3.518,1.658,3.518,4.043,0,2.5-1.573,4.34-3.661,4.34a2.811,2.811,0,0,1-2.006-.8v.726h-2.337c.042-.429.083-.689.1-1.062,0-.148.02-.447.02-.839v-8.96a11.961,11.961,0,0,0-.124-1.564h2.627A9.1,9.1,0,0,0,1554.6,1402.965Zm1.344,9.481c1.013,0,1.7-.968,1.7-2.366,0-1.359-.58-2.161-1.572-2.161a2.62,2.62,0,0,0-1.531.634v3.278A2.275,2.275,0,0,0,1555.948,1412.446Z" transform="translate(-1534.29 -1401.772)"/><path class="b" d="M1562.2,1402.965c-.021.167-.021.447-.042.838,0,.093-.021.168-.021.224v2.645a3.82,3.82,0,0,1,2.193-.671c2.151,0,3.639,1.64,3.639,3.986a9.486,9.486,0,0,1-3.454,6.893l-1.841-1.435a6.829,6.829,0,0,0,2.854-5.345c0-1.323-.682-2.161-1.779-2.161a2.928,2.928,0,0,0-1.613.577v3.708c0,.074.021.241.042.54a12.038,12.038,0,0,0,.124,1.566h-2.627c.042-.429.083-.689.1-1.062,0-.148.021-.447.021-.839v-8.96a12.2,12.2,0,0,0-.124-1.564h2.627C1562.238,1402.331,1562.217,1402.611,1562.2,1402.965Z" transform="translate(-1533.072 -1401.772)"/><path class="b" d="M1572.18,1413.038a3.11,3.11,0,0,1-2.234.875,2.556,2.556,0,0,1-2.75-2.571c0-1.677,1.447-2.869,3.5-2.869a5.577,5.577,0,0,1,1.386.168v-.225c0-.856-.476-1.21-1.531-1.21a8.284,8.284,0,0,0-2.523.541v-1.957a11.539,11.539,0,0,1,2.813-.373c1.468,0,2.441.317,2.957.969a3.2,3.2,0,0,1,.558,2.309v2.963c0,.074,0,.241.022.54a12.024,12.024,0,0,0,.123,1.566h-2.316Zm-.268-2.776a4.227,4.227,0,0,0-.869-.113c-.868,0-1.489.428-1.489,1.025,0,.5.413.839,1.014.839a2.446,2.446,0,0,0,1.509-.6V1410.3Z" transform="translate(-1531.864 -1401.208)"/><path class="b" d="M1576.793,1406.235a3.639,3.639,0,0,1,2.275-.8c2.172,0,3.62,1.621,3.62,4.006a9.767,9.767,0,0,1-3.433,6.874l-1.82-1.4a6.879,6.879,0,0,0,2.812-5.365c0-1.36-.661-2.179-1.737-2.179a2.682,2.682,0,0,0-1.613.634v3.651c0,.074,0,.241.02.54a12.225,12.225,0,0,0,.125,1.566h-2.627c.042-.429.083-.689.1-1.062,0-.148.02-.447.02-.839,0-.093.021-.168.021-.2v-3.986c0-.075-.021-.243-.021-.541a12.01,12.01,0,0,0-.124-1.566h2.379Z" transform="translate(-1530.706 -1401.205)"/><path class="b" d="M1595.714,1414.624a5.815,5.815,0,0,0-.642-.728c-.289-.278-.557-.5-.723-.652l-.373-.316a5.268,5.268,0,0,1-3.909,1.6c-2.813,0-4.923-1.788-4.923-4.173a4.507,4.507,0,0,1,2.626-3.948,2.653,2.653,0,0,1-.537-1.6c0-1.751,1.571-3,3.785-3a9.243,9.243,0,0,1,2.978.54v2.124a6.316,6.316,0,0,0-2.71-.764c-.95,0-1.57.485-1.57,1.192a2.315,2.315,0,0,0,.682,1.434c.145.168.331.391.765.819.227.243.352.374.434.448l2.006,1.881a5.276,5.276,0,0,0,.248-1.713,5.963,5.963,0,0,0-.248-1.734h2.337a1.576,1.576,0,0,0,.248-.019l.642-.019c.144-.017.331-.037.6-.056l.144-.019v2.068c-.5-.037-.826-.057-1.158-.057h-.289v.3a5.99,5.99,0,0,1-.744,2.906l.6.558.229.205a9.576,9.576,0,0,0,1.3.949Zm-5.626-5.385a14.663,14.663,0,0,1-1.118-1.173,2.349,2.349,0,0,0-1.405,2.123,2.461,2.461,0,0,0,2.563,2.312,3.133,3.133,0,0,0,2.318-1.025Z" transform="translate(-1528.983 -1401.787)"/><path class="b" d="M1608.32,1412.335c.744,0,1.593-.037,2.336-.111v2.105h-8.417v-1.9c.31-.391.724-.968.993-1.4l.144-.205,4.344-6.931H1605.2c-.081,0-.289,0-.6.019a12.859,12.859,0,0,0-1.739.131V1401.9h7.778v1.863l-.145.186c-.413.578-.413.578-.723,1.044-.248.353-.29.428-.352.5l-4.282,6.837Z" transform="translate(-1526.24 -1401.772)"/><path class="b" d="M1614.781,1413.038a3.108,3.108,0,0,1-2.234.875,2.556,2.556,0,0,1-2.75-2.571c0-1.677,1.447-2.869,3.5-2.869a5.591,5.591,0,0,1,1.386.168v-.225c0-.856-.476-1.21-1.531-1.21a8.271,8.271,0,0,0-2.523.541v-1.957a11.531,11.531,0,0,1,2.813-.373c1.468,0,2.439.317,2.957.969a3.207,3.207,0,0,1,.558,2.309v2.963c0,.074,0,.241.02.54a12.45,12.45,0,0,0,.125,1.566h-2.316Zm-.269-2.776a4.2,4.2,0,0,0-.869-.113c-.868,0-1.489.428-1.489,1.025,0,.5.414.839,1.013.839a2.45,2.45,0,0,0,1.511-.6V1410.3Z" transform="translate(-1525.026 -1401.208)"/><path class="b" d="M1619.414,1406.161a3.193,3.193,0,0,1,1.985-.727,3.4,3.4,0,0,1,1.986.691,4.165,4.165,0,0,1,2.316-.691,3.621,3.621,0,0,1,3.7,3.931c0,2.4-1.2,4.807-3.454,6.949l-1.778-1.379a7.235,7.235,0,0,0,2.792-5.515c0-1.266-.661-2.031-1.738-2.031a2.636,2.636,0,0,0-1.013.225,4.043,4.043,0,0,1,.1,1.192v2.85c0,.074,0,.241.02.54a12.059,12.059,0,0,0,.124,1.566h-2.605c.041-.467.082-.726.1-1.062,0-.112.021-.411.021-.839v-3.111c-.021-.949-.371-1.36-1.179-1.36a2.485,2.485,0,0,0-1.2.374l-.123.074v3.819c0,.074.02.241.042.54a12.046,12.046,0,0,0,.123,1.566h-2.626a.523.523,0,0,1,.021-.205l.083-.857c0-.038,0-.354.021-.839v-4.731a12.229,12.229,0,0,0-.124-1.566h2.4Z" transform="translate(-1523.868 -1401.205)"/><path class="b" d="M1637.106,1412.335c.744,0,1.592-.037,2.337-.111v2.105h-8.418v-1.9c.311-.391.723-.968.993-1.4l.145-.205,4.343-6.931h-2.523c-.084,0-.29,0-.6.019a12.837,12.837,0,0,0-1.737.131V1401.9h7.776v1.863l-.144.186c-.415.578-.415.578-.724,1.044-.248.353-.29.428-.353.5l-4.28,6.837Z" transform="translate(-1521.619 -1401.772)"/><path class="b" d="M1643.567,1413.038a3.11,3.11,0,0,1-2.234.875,2.555,2.555,0,0,1-2.75-2.571c0-1.677,1.447-2.869,3.5-2.869a5.59,5.59,0,0,1,1.386.168v-.225c0-.856-.476-1.21-1.531-1.21a8.285,8.285,0,0,0-2.523.541v-1.957a11.532,11.532,0,0,1,2.813-.373c1.467,0,2.439.317,2.957.969a3.2,3.2,0,0,1,.558,2.309v2.963c0,.074,0,.241.022.54a12.045,12.045,0,0,0,.123,1.566h-2.316Zm-.269-2.776a4.208,4.208,0,0,0-.869-.113c-.868,0-1.489.428-1.489,1.025,0,.5.414.839,1.014.839a2.447,2.447,0,0,0,1.51-.6V1410.3Z" transform="translate(-1520.406 -1401.208)"/><path class="b" d="M1648.2,1406.161a3.2,3.2,0,0,1,1.985-.727,3.4,3.4,0,0,1,1.986.691,4.165,4.165,0,0,1,2.316-.691,3.621,3.621,0,0,1,3.7,3.931c0,2.4-1.2,4.807-3.455,6.949l-1.778-1.379a7.235,7.235,0,0,0,2.792-5.515c0-1.266-.661-2.031-1.739-2.031a2.636,2.636,0,0,0-1.013.225,4.043,4.043,0,0,1,.1,1.192v2.85c0,.074,0,.241.02.54a12.037,12.037,0,0,0,.124,1.566h-2.605c.041-.467.082-.726.1-1.062,0-.112.02-.411.02-.839v-3.111c-.02-.949-.371-1.36-1.179-1.36a2.484,2.484,0,0,0-1.2.374l-.123.074v3.819c0,.074.02.241.042.54a12.286,12.286,0,0,0,.123,1.566H1645.8a.523.523,0,0,1,.021-.205l.083-.857c0-.038,0-.354.021-.839v-4.731a12.25,12.25,0,0,0-.124-1.566h2.4Z" transform="translate(-1519.247 -1401.205)"/></g><g transform="translate(4480.85 776.721)"><path class="b" d="M1570.289,1427.072c0,.075,0,.224.02.634a12.041,12.041,0,0,0,.145,1.844h-2.812c.061-.5.1-.8.123-1.248,0-.112,0-.224.022-.6.02-.41.02-.558.02-.634v-7.45c0-.093,0-.224-.02-.653a12.237,12.237,0,0,0-.145-1.844h4.115a5.812,5.812,0,0,1,2.752.5,2.876,2.876,0,0,1,1.509,2.665c0,2.179-1.571,3.875-4.652,5.067l-1.076-1.49Zm0-3.577c2.047-.671,3.226-1.807,3.226-3.054,0-.951-.579-1.323-2.005-1.323h-1.221Z" transform="translate(-1567.642 -1417.05)"/><path class="b" d="M1577.483,1421.486a2.194,2.194,0,0,1,2.523-.614v2.03a1.829,1.829,0,0,0-.992-.317,2.369,2.369,0,0,0-1.406.577v3.709c0,.073.02.241.042.54a11.991,11.991,0,0,0,.123,1.564h-2.626c.042-.428.082-.688.1-1.062,0-.149.022-.447.022-.838v-4.733a12.441,12.441,0,0,0-.124-1.564h2.337Z" transform="translate(-1566.438 -1416.475)"/><path class="b" d="M1583.537,1429.111a4.22,4.22,0,1,1,4.219-4.229A4.04,4.04,0,0,1,1583.537,1429.111Zm0-6.651c-1.1,0-1.779.912-1.779,2.422s.682,2.44,1.779,2.44c1.116,0,1.778-.932,1.778-2.44S1584.653,1422.46,1583.537,1422.46Z" transform="translate(-1565.768 -1416.48)"/><path class="b" d="M1589.618,1421.537a3.779,3.779,0,0,1,2.276-.8c2.026,0,3.412,1.6,3.412,3.967,0,2.5-1.592,4.4-3.743,4.4a3.621,3.621,0,0,1-1.78-.484v2.552c0,.073,0,.26.022.558a12.244,12.244,0,0,0,.123,1.564H1587.3c.042-.428.082-.707.1-1.061,0-.168.021-.448.021-.839,0-.093.021-.167.021-.223v-8.291c0-.074-.021-.243-.021-.541a12.216,12.216,0,0,0-.124-1.564h2.316Zm1.489,5.682c1.055,0,1.758-.986,1.758-2.5,0-1.323-.578-2.142-1.55-2.142a2.232,2.232,0,0,0-1.532.782v3.3A1.971,1.971,0,0,0,1591.107,1427.218Z" transform="translate(-1564.486 -1416.47)"/><path class="b" d="M1597.166,1425.482a1.917,1.917,0,0,0,2.131,1.844,4.637,4.637,0,0,0,2.813-1.118l-.042,2.254a6.424,6.424,0,0,1-2.916.689,4.116,4.116,0,0,1-4.488-4.4,3.766,3.766,0,0,1,3.805-4.1,3.39,3.39,0,0,1,3.661,3.672,7.667,7.667,0,0,1-.084,1.155Zm1.387-3.149c-.869,0-1.346.5-1.407,1.47h2.77C1599.9,1422.817,1599.442,1422.333,1598.553,1422.333Z" transform="translate(-1563.305 -1416.483)"/><path class="b" d="M1604.184,1421.486a2.195,2.195,0,0,1,2.523-.614v2.03a1.829,1.829,0,0,0-.992-.317,2.372,2.372,0,0,0-1.406.577v3.709c0,.073.02.241.042.54a11.992,11.992,0,0,0,.123,1.564h-2.626c.042-.428.082-.688.1-1.062,0-.149.021-.447.021-.838v-4.733a12.217,12.217,0,0,0-.124-1.564h2.337Z" transform="translate(-1562.152 -1416.475)"/><path class="b" d="M1609.115,1426.161c0,1.044.29,1.473.993,1.473a2.293,2.293,0,0,0,1.2-.392v1.826a5.509,5.509,0,0,1-1.924.374,2.431,2.431,0,0,1-2.4-1.286,4.9,4.9,0,0,1-.249-1.974v-3.168c-.391.02-.557.038-.95.075v-1.975h.993a6.254,6.254,0,0,0-.124-1.193l-.021-.147,2.606-1.156a10.858,10.858,0,0,0-.166,2.235v.261h1.861v1.975c-.579-.056-1.261-.112-1.7-.112h-.125Z" transform="translate(-1561.52 -1416.81)"/><path class="b" d="M1612.216,1417.06a1.368,1.368,0,1,1-1.51,1.36A1.436,1.436,0,0,1,1612.216,1417.06Zm-1.3,12.5c.062-.447.082-.708.1-1.062,0-.13.021-.428.021-.838,0-.094.021-.168.021-.2v-3.987c0-.074-.021-.223-.021-.541a12.512,12.512,0,0,0-.124-1.564h2.626a10.6,10.6,0,0,0-.1,1.062c-.021.15-.021.448-.043.838v4.193c0,.073,0,.241.022.54a12.207,12.207,0,0,0,.123,1.564Z" transform="translate(-1560.73 -1417.06)"/><path class="b" d="M1616.327,1425.482a1.917,1.917,0,0,0,2.131,1.844,4.634,4.634,0,0,0,2.813-1.118l-.042,2.254a6.421,6.421,0,0,1-2.916.689,4.117,4.117,0,0,1-4.488-4.4,3.767,3.767,0,0,1,3.805-4.1,3.39,3.39,0,0,1,3.661,3.672,7.682,7.682,0,0,1-.083,1.155Zm1.387-3.149c-.869,0-1.344.5-1.406,1.47h2.771C1619.058,1422.817,1618.6,1422.333,1617.714,1422.333Z" transform="translate(-1560.229 -1416.483)"/><path class="b" d="M1626.485,1422.931l-.229-.093a6.542,6.542,0,0,0-2.213-.5c-.62,0-.888.11-.888.408,0,.243.165.392.743.653l.559.26c2.11.988,2.71,1.584,2.71,2.776,0,1.676-1.427,2.7-3.723,2.7a8.41,8.41,0,0,1-2.793-.521v-2.087a6.957,6.957,0,0,0,2.793.726c.807,0,1.3-.261,1.3-.689,0-.316-.125-.41-1.035-.875l-.6-.3c-1.716-.859-2.192-1.4-2.192-2.46,0-1.4,1.179-2.291,3.02-2.291a9.652,9.652,0,0,1,2.337.335l.208.037Z" transform="translate(-1559.134 -1416.485)"/></g></g></svg>