<svg xmlns="http://www.w3.org/2000/svg" xmlns:xlink="http://www.w3.org/1999/xlink" width="306" height="216" viewBox="0 0 306 216"><defs><style>.a{fill:none;}.b{fill:#f7f7f7;}.c{fill:#344a50;}.d{fill:#4f7687;}.e{fill:#acab9b;}.f{isolation:isolate;}.g{fill:#14522d;}.h{clip-path:url(#a);}.i{fill:#15552e;}.j{clip-path:url(#b);}.k{fill:#259853;}.l{clip-path:url(#c);}.m{clip-path:url(#d);}.n{clip-path:url(#e);}.o{clip-path:url(#f);}.p{fill:#1a6839;}.q{fill:#1a6c3b;}.r{fill:#196537;}.s{fill:#186235;}.t{fill:#175f34;}.u{fill:#165b32;}.v{fill:#165830;}.w{clip-path:url(#g);}.x{fill:#1a6b3b;}.y{fill:#228b4c;}.z{fill:#6b6962;}.aa{fill:#77777b;}.ab{fill:url(#h);}.ac{fill:url(#i);}.ad{fill:#223d46;}</style><clipPath id="a"><path class="a" d="M1689,269.39l-.837.8c-.1-2.319-.283-4.141-3.177-4.288l.837-.8C1688.721,265.248,1688.9,267.071,1689,269.39Z"/></clipPath><clipPath id="b"><path class="a" d="M1683.076,266.568l.837-.8a2.6,2.6,0,0,1,1.914-.664l-.837.8A2.605,2.605,0,0,0,1683.076,266.568Z"/></clipPath><clipPath id="c"><path class="a" d="M1679.707,264.029l.837-.8a5.908,5.908,0,0,0-1.572,3.009l-.837.8A5.909,5.909,0,0,1,1679.707,264.029Z"/></clipPath><clipPath id="d"><path class="a" d="M1677.257,266.35l.711.615a3.033,3.033,0,0,0-1.948-.528l-.71-.615A3.028,3.028,0,0,1,1677.257,266.35Z"/></clipPath><clipPath id="e"><path class="a" d="M1676.967,275.168l.71.616a1.637,1.637,0,0,0-.67-.344,9.289,9.289,0,0,0-2.3-.237c-.514,0-1.025.007-1.5,0l-.71-.615c.476,0,.986-.008,1.5,0a9.193,9.193,0,0,1,2.3.237A1.647,1.647,0,0,1,1676.967,275.168Z"/></clipPath><clipPath id="f"><path class="a" d="M1681.04,264.192l.71.615a4.338,4.338,0,0,1,1.374,3.6c-.057,2.259-.766,4.612-3.651,4.958l-.711-.615c2.886-.346,3.6-2.7,3.651-4.959A4.334,4.334,0,0,0,1681.04,264.192Z"/></clipPath><clipPath id="g"><path class="a" d="M1680.941,273.631l.71.615a3.539,3.539,0,0,1,1.031,2.941c-.021.828-.252,5.657.682,6.465l-.711-.615c-.933-.808-.7-5.637-.681-6.465A3.546,3.546,0,0,0,1680.941,273.631Z"/></clipPath><linearGradient id="h" y1="0.5" x2="1" y2="0.5" gradientUnits="objectBoundingBox"><stop offset="0" stop-color="#316a77"/><stop offset="1" stop-color="#344a50"/></linearGradient><linearGradient id="i" x1="-0.08" y1="1.403" x2="1.082" y2="0.28" gradientUnits="objectBoundingBox"><stop offset="0" stop-color="#4f7687"/><stop offset="1" stop-color="#3b5566"/></linearGradient></defs><g transform="translate(-2099 -650)"><rect class="b" width="306" height="216" transform="translate(2099 650)"/><g transform="translate(496.372 502.223)"><rect class="c" width="2.788" height="4.337" transform="translate(1689.324 255.573)"/><rect class="d" width="1.394" height="4.337" transform="translate(1690.661 255.573)"/></g><g transform="translate(496.372 502.223)"><rect class="e" width="1.633" height="1.633" transform="translate(1681.199 257.742)"/><rect class="e" width="1.633" height="1.633" transform="translate(1683.278 257.742)"/><rect class="e" width="1.633" height="1.633" transform="translate(1681.199 259.638)"/><rect class="e" width="1.633" height="1.633" transform="translate(1683.278 259.638)"/></g><g transform="translate(496.372 502.223)"><g class="f"><path class="g" d="M1693.262,269.436l-.837.8-4.258-.046.837-.8Z"/><g class="f"><g class="h"><g class="f"><path class="i" d="M1689,269.39l-.837.8c-.1-2.319-.283-4.141-3.177-4.288l.837-.8c2.894.146,3.076,1.969,3.177,4.288"/></g></g></g><g class="f"><g class="j"><g class="f"><path class="i" d="M1685.827,265.1l-.837.8a2.605,2.605,0,0,0-1.914.664l.837-.8a2.6,2.6,0,0,1,1.914-.664"/></g></g></g><path class="k" d="M1685.769,261.655c3.647.075,6.191,1.044,7.243,5.016a14.615,14.615,0,0,1,.25,2.765L1689,269.39c-.1-2.319-.283-4.142-3.177-4.288a2.456,2.456,0,0,0-2.321,1.182l-4.534-.048C1679.643,263.4,1681.369,261.608,1685.769,261.655Z"/><path class="g" d="M1683.505,266.284l-.837.8-4.533-.049.837-.8Z"/><g class="f"><g class="l"><g class="f"><path class="i" d="M1678.972,266.236l-.837.8a5.909,5.909,0,0,1,1.572-3.009l.837-.8a5.908,5.908,0,0,0-1.572,3.009"/></g></g></g></g><g class="f"><path class="g" d="M1675.31,265.822l.71.615-2.4-.017-.71-.615Z"/><g class="f"><g class="m"><g class="f"><path class="i" d="M1677.257,266.35l.711.615a3.033,3.033,0,0,0-1.948-.528l-.71-.615a3.028,3.028,0,0,1,1.947.528"/></g></g></g><g class="f"><g class="n"><g class="f"><path class="i" d="M1676.967,275.168l.71.616a1.637,1.637,0,0,0-.67-.344,9.289,9.289,0,0,0-2.3-.237c-.514,0-1.025.007-1.5,0l-.71-.615c.476,0,.986-.008,1.5,0a9.193,9.193,0,0,1,2.3.237,1.647,1.647,0,0,1,.671.343"/></g></g></g><g class="f"><g class="o"><g class="f"><path class="p" d="M1681.04,264.192l.71.615c.094.081.184.167.27.257l-.711-.615a3.626,3.626,0,0,0-.269-.257"/><path class="q" d="M1681.309,264.449l.711.615a4.2,4.2,0,0,1,1.093,2.729l-.711-.616a4.2,4.2,0,0,0-1.093-2.728"/><path class="p" d="M1682.4,267.177l.711.616c.012.2.016.4.011.617-.007.268-.023.538-.051.806l-.71-.615c.028-.268.044-.538.05-.807.006-.214,0-.419-.011-.617"/><path class="r" d="M1682.363,268.6l.71.615a7.492,7.492,0,0,1-.173,1.024l-.71-.615a7.645,7.645,0,0,0,.173-1.024"/><path class="s" d="M1682.19,269.625l.71.615a5.7,5.7,0,0,1-.211.683l-.711-.615a5.7,5.7,0,0,0,.212-.683"/><path class="t" d="M1681.978,270.308l.711.615a4.734,4.734,0,0,1-.239.523l-.711-.615a4.418,4.418,0,0,0,.239-.523"/><path class="u" d="M1681.739,270.831l.711.615a3.933,3.933,0,0,1-.279.447l-.711-.615a3.8,3.8,0,0,0,.279-.447"/><path class="v" d="M1681.46,271.278l.711.615a3.568,3.568,0,0,1-.368.43l-.71-.615a3.475,3.475,0,0,0,.367-.43"/><path class="i" d="M1681.093,271.708l.71.615a3.835,3.835,0,0,1-2.33,1.045l-.711-.615a3.838,3.838,0,0,0,2.331-1.045"/></g></g></g><g class="f"><g class="w"><g class="f"><path class="p" d="M1680.941,273.631l.71.615c.068.059.132.12.193.183l-.711-.615q-.09-.094-.192-.183"/><path class="q" d="M1681.133,273.814l.711.615a3.33,3.33,0,0,1,.828,2.163l-.711-.615a3.325,3.325,0,0,0-.828-2.163"/><path class="p" d="M1681.961,275.977l.711.615q.018.289.01.6c-.012.466-.09,2.195.01,3.764l-.71-.615c-.1-1.569-.022-3.3-.01-3.764.005-.2,0-.4-.011-.6"/><path class="q" d="M1681.982,280.336l.71.615a5.231,5.231,0,0,0,.618,2.648l-.711-.615a5.234,5.234,0,0,1-.617-2.648"/><path class="p" d="M1682.6,282.984l.711.615a.532.532,0,0,0,.054.053l-.711-.615c-.018-.016-.036-.034-.054-.053"/></g></g></g><path class="g" d="M1682.717,283.474l.71.615-4.711-.034-.71-.615Z"/><path class="x" d="M1682.726,283.09l.71.615-.01.384-.71-.615Z"/><path class="y" d="M1676.018,262.8c3.705.027,6.49,1.208,6.4,4.995-.056,2.26-.765,4.613-3.651,4.959,2.538.375,3.259,1.828,3.21,3.819-.022.849-.264,5.9.754,6.518l-.009.384-4.712-.034c-.483-1.326-.331-3.844-.314-5.228.005-1.269.074-3-1.4-3.387a9.193,9.193,0,0,0-2.3-.237c-.514,0-1.024.007-1.5,0l.075-3.019,2.583.019a2.816,2.816,0,0,0,2.774-3.026c.058-2.313-1.01-2.705-2.621-2.744l-2.4-.017-2.317-2.438Z"/></g><path class="z" d="M1692.879,272.99v10.367h-3.246V280.97h-.052a4.372,4.372,0,0,1-4.08,2.89c-.313,0-.613-.012-.9-.023V281.4a3,3,0,0,0,.9.117c2.425,0,3.233-2.247,3.181-5.277v-.211h-3V272.99Z"/><path class="aa" d="M1692.879,272.194v11.163h-3.246V280.97h-.052a4.372,4.372,0,0,1-4.08,2.89c-.313,0-.613-.012-.9-.023v-3.23a3,3,0,0,0,.9.117c2.2,0,3.076-1.86,3.181-4.481v-.211c.013-.257.013-.526,0-.8h-3v-3.042Z"/></g><path class="ab" d="M1670.386,264.549l12.7-9.621,10.89,9.135h2.88L1683,251.777l-12.511,9.19-4,2.9-.859.553Z" transform="translate(496.372 502.223)"/><path class="ac" d="M1672.018,259.856s-2.04,3.264-1.428,4.08-4.692.363-4.692.363Z" transform="translate(496.372 502.223)"/><g transform="translate(496.372 502.223)"><path class="ad" d="M1708.03,266.618a18.679,18.679,0,0,0,.183,2.631,7.765,7.765,0,0,0,.472,1.945h-3.77a7.771,7.771,0,0,0,.472-1.945,18.679,18.679,0,0,0,.183-2.631v-7.681a18.11,18.11,0,0,0-.188-2.589,8.753,8.753,0,0,0-.467-1.987h4.415a6.014,6.014,0,0,1,4.157,1.337,4.741,4.741,0,0,1,1.493,3.722,5.079,5.079,0,0,1-.945,3.126,4.454,4.454,0,0,1-2.589,1.676l2.589,3.588a14.658,14.658,0,0,0,3.061,3.384h-4.533a4.6,4.6,0,0,0-1.01-2.482l-3.523-5.177Zm1.3-10.238h-1.3v6.08h1.3q3.191,0,3.19-3.04T1709.33,256.38Z"/><path class="ad" d="M1728.223,266.091h-5.586l-.268.655a12.373,12.373,0,0,0-.9,4.448h-4.135a13.693,13.693,0,0,0,2.342-3.932l5.757-13.159,5.769,13.159a13.41,13.41,0,0,0,2.331,3.932h-4.136a12.272,12.272,0,0,0-.9-4.448Zm-2.793-6.993-1.976,4.974h3.953Z"/><path class="ad" d="M1743.959,257.787l-5.618,11.387h3.233a11.588,11.588,0,0,0,5.2-1.01l-.9,3.03h-11.688a28.061,28.061,0,0,0,2.535-4.286l5.189-10.528h-3.126a9.646,9.646,0,0,0-2.251.226,8.156,8.156,0,0,0-1.971.8l.9-3.04h10.624A21.191,21.191,0,0,0,1743.959,257.787Z"/><path class="ad" d="M1758.071,266.091h-5.586l-.269.655a12.394,12.394,0,0,0-.9,4.448h-4.136a13.646,13.646,0,0,0,2.342-3.932l5.758-13.159,5.769,13.159a13.389,13.389,0,0,0,2.331,3.932h-4.136a12.272,12.272,0,0,0-.9-4.448Zm-2.793-6.993-1.977,4.974h3.954Z"/><path class="ad" d="M1785.7,261.955a7.764,7.764,0,0,0-.473,1.945,18.683,18.683,0,0,0-.182,2.632v3.781a15.68,15.68,0,0,1-5.608,1.149,9.383,9.383,0,0,1-3.378-.6,7.776,7.776,0,0,1-2.713-1.724,9.5,9.5,0,0,1,0-12.73,7.733,7.733,0,0,1,2.713-1.718,9.469,9.469,0,0,1,3.378-.591,14.546,14.546,0,0,1,4.179.677v3.04a3.948,3.948,0,0,0-1.729-1.252,6.564,6.564,0,0,0-2.45-.446,5.468,5.468,0,0,0-4.3,1.794,8.2,8.2,0,0,0,0,9.722,5.45,5.45,0,0,0,4.3,1.8,5.98,5.98,0,0,0,3.148-.774v-2.137a18.26,18.26,0,0,0-.188-2.589,8.749,8.749,0,0,0-.468-1.988Z"/><path class="ad" d="M1791.087,266.618a18.679,18.679,0,0,0,.182,2.631,7.765,7.765,0,0,0,.473,1.945h-3.771a7.716,7.716,0,0,0,.473-1.945,18.679,18.679,0,0,0,.183-2.631v-7.681a18.13,18.13,0,0,0-.189-2.589,8.693,8.693,0,0,0-.467-1.987h4.415a6.015,6.015,0,0,1,4.158,1.337,4.741,4.741,0,0,1,1.493,3.722,5.079,5.079,0,0,1-.946,3.126,4.451,4.451,0,0,1-2.588,1.676l2.588,3.588a14.659,14.659,0,0,0,3.062,3.384h-4.533a4.617,4.617,0,0,0-1.01-2.482l-3.523-5.177Zm1.3-10.238h-1.3v6.08h1.3q3.19,0,3.191-3.04T1792.386,256.38Z"/><path class="ad" d="M1809.3,254.1a9.47,9.47,0,0,1,3.378.591,7.726,7.726,0,0,1,2.713,1.718,9.5,9.5,0,0,1,0,12.73,7.768,7.768,0,0,1-2.713,1.724,9.871,9.871,0,0,1-6.756,0,7.773,7.773,0,0,1-2.712-1.724,9.493,9.493,0,0,1,0-12.73,7.73,7.73,0,0,1,2.712-1.718A9.469,9.469,0,0,1,1809.3,254.1Zm0,2.019a5.468,5.468,0,0,0-4.3,1.794,8.2,8.2,0,0,0,0,9.722,6.028,6.028,0,0,0,8.6,0,8.2,8.2,0,0,0,0-9.722A5.468,5.468,0,0,0,1809.3,256.122Z"/><path class="ad" d="M1831.172,266.532v-7.6a18.271,18.271,0,0,0-.188-2.589,8.737,8.737,0,0,0-.468-1.987h3.771a7.728,7.728,0,0,0-.473,1.944,18.712,18.712,0,0,0-.182,2.632v7.691a17.983,17.983,0,0,0,.188,2.583,8.676,8.676,0,0,0,.467,1.983h-3.115V269.55a5.1,5.1,0,0,1-2.084,1.386,7.789,7.789,0,0,1-2.847.526,5.449,5.449,0,0,1-4.157-1.649,6.2,6.2,0,0,1-1.558-4.442v-6.434a18.128,18.128,0,0,0-.188-2.589,8.745,8.745,0,0,0-.467-1.987h3.77a7.778,7.778,0,0,0-.472,1.944,18.712,18.712,0,0,0-.183,2.632v6.434a4.007,4.007,0,0,0,1.09,3.014,4.256,4.256,0,0,0,3.089,1.058,4.635,4.635,0,0,0,2.819-.87A2.5,2.5,0,0,0,1831.172,266.532Z"/><path class="ad" d="M1839.946,266.618a18.679,18.679,0,0,0,.183,2.631,7.771,7.771,0,0,0,.472,1.945h-3.77a7.771,7.771,0,0,0,.472-1.945,18.679,18.679,0,0,0,.183-2.631v-7.681a18.128,18.128,0,0,0-.188-2.589,8.753,8.753,0,0,0-.467-1.987h3.77a5.714,5.714,0,0,1,4.039,1.3,5.757,5.757,0,0,1,0,7.519,5.713,5.713,0,0,1-4.039,1.3h-.655Zm.655-10.238h-.655v6.08h.655a3.06,3.06,0,0,0,2.267-.725,4.134,4.134,0,0,0,0-4.63A3.064,3.064,0,0,0,1840.6,256.38Z"/><path class="ad" d="M1725.682,282.151a6.856,6.856,0,0,0,.067.957,2.775,2.775,0,0,0,.172.707h-1.372a2.775,2.775,0,0,0,.172-.707,6.856,6.856,0,0,0,.067-.957v-2.793a6.571,6.571,0,0,0-.069-.942,3.138,3.138,0,0,0-.17-.722h1.606a2.191,2.191,0,0,1,1.512.486,1.723,1.723,0,0,1,.543,1.354,1.847,1.847,0,0,1-.344,1.136,1.62,1.62,0,0,1-.942.61l.942,1.3a5.325,5.325,0,0,0,1.113,1.231h-1.648a1.679,1.679,0,0,0-.367-.9l-1.282-1.882Zm.473-3.723h-.473v2.211h.473q1.159,0,1.16-1.105T1726.155,278.428Z"/><path class="ad" d="M1731.153,278.428h-.352v1.813h2.122l-.579.972a2.912,2.912,0,0,0-.681-.168,5.682,5.682,0,0,0-.862-.07v2.1h.7a4.287,4.287,0,0,0,1.89-.367l-.328,1.1h-3.4a2.817,2.817,0,0,0,.172-.707,7.008,7.008,0,0,0,.066-.957v-2.793a6.712,6.712,0,0,0-.068-.942,3.245,3.245,0,0,0-.17-.722h3.726l-.578.976a2.822,2.822,0,0,0-.7-.174A6.74,6.74,0,0,0,1731.153,278.428Z"/><path class="ad" d="M1737.835,281.959H1735.8l-.1.239a4.489,4.489,0,0,0-.328,1.617h-1.5a4.968,4.968,0,0,0,.851-1.43l2.094-4.785,2.1,4.785a4.874,4.874,0,0,0,.847,1.43h-1.5a4.448,4.448,0,0,0-.328-1.617Zm-1.016-2.543-.719,1.809h1.438Z"/><path class="ad" d="M1742.016,277.694a2.811,2.811,0,0,0-.172.707,6.865,6.865,0,0,0-.066.957v3.722h.7a4.288,4.288,0,0,0,1.891-.367l-.328,1.1h-3.4a2.786,2.786,0,0,0,.172-.707,6.875,6.875,0,0,0,.066-.957v-2.793a6.569,6.569,0,0,0-.068-.942,3.185,3.185,0,0,0-.17-.722Z"/><path class="ad" d="M1749.106,278.428h-.351v1.813h2.121l-.578.972a2.923,2.923,0,0,0-.682-.168,5.68,5.68,0,0,0-.861-.07v2.1h.7a4.287,4.287,0,0,0,1.89-.367l-.328,1.1h-3.4a2.817,2.817,0,0,0,.172-.707,6.856,6.856,0,0,0,.066-.957v-2.793a6.568,6.568,0,0,0-.068-.942,3.245,3.245,0,0,0-.17-.722h3.726l-.578.976a2.81,2.81,0,0,0-.7-.174A6.73,6.73,0,0,0,1749.106,278.428Z"/><path class="ad" d="M1752.108,282.561a1.793,1.793,0,0,0,.688.451,2.422,2.422,0,0,0,.882.166.881.881,0,0,0,.6-.224.675.675,0,0,0,.254-.514,1.112,1.112,0,0,0-.5-.895l-1.114-.859a2.086,2.086,0,0,1-.937-1.664,1.28,1.28,0,0,1,.475-1.018,1.782,1.782,0,0,1,1.2-.4,4.6,4.6,0,0,1,1.41.191v1.032a1.706,1.706,0,0,0-1.281-.489.932.932,0,0,0-.614.19.616.616,0,0,0-.226.5,1.135,1.135,0,0,0,.535.887l1.3,1a1.78,1.78,0,0,1,.515.619,1.632,1.632,0,0,1,.2.756,1.562,1.562,0,0,1-.465,1.193,1.746,1.746,0,0,1-1.25.439,5.772,5.772,0,0,1-1.672-.25Z"/><path class="ad" d="M1758.785,278.428v3.723a6.875,6.875,0,0,0,.066.957,2.828,2.828,0,0,0,.172.707h-1.371a2.817,2.817,0,0,0,.172-.707,6.856,6.856,0,0,0,.066-.957v-3.723h-.511a5.075,5.075,0,0,0-.8.074,2.8,2.8,0,0,0-.656.168l.343-.976h4.52l-.336.976a2.822,2.822,0,0,0-.7-.174A6.739,6.739,0,0,0,1758.785,278.428Z"/><path class="ad" d="M1765.138,281.959h-2.031l-.1.239a4.51,4.51,0,0,0-.328,1.617h-1.5a4.966,4.966,0,0,0,.852-1.43l2.094-4.785,2.1,4.785a4.851,4.851,0,0,0,.848,1.43h-1.5a4.448,4.448,0,0,0-.328-1.617Zm-1.015-2.543-.719,1.809h1.437Z"/><path class="ad" d="M1770.351,278.428v3.723a6.875,6.875,0,0,0,.067.957,2.786,2.786,0,0,0,.172.707h-1.372a2.786,2.786,0,0,0,.172-.707,6.875,6.875,0,0,0,.067-.957v-3.723h-.512a5.085,5.085,0,0,0-.8.074,2.815,2.815,0,0,0-.656.168l.344-.976h4.519l-.336.976a2.81,2.81,0,0,0-.7-.174A6.73,6.73,0,0,0,1770.351,278.428Z"/><path class="ad" d="M1774.552,278.428h-.351v1.813h2.121l-.578.972a2.925,2.925,0,0,0-.682-.168,5.671,5.671,0,0,0-.861-.07v2.1h.7a4.288,4.288,0,0,0,1.891-.367l-.329,1.1h-3.4a2.823,2.823,0,0,0,.172-.707,6.856,6.856,0,0,0,.066-.957v-2.793a6.568,6.568,0,0,0-.068-.942,3.245,3.245,0,0,0-.17-.722h3.727l-.579.976a2.808,2.808,0,0,0-.7-.174A6.717,6.717,0,0,0,1774.552,278.428Z"/><path class="ad" d="M1783.763,280.037v-1.015h2.59v1.015a1.515,1.515,0,0,0-.445-.2,1.874,1.874,0,0,0-.516-.076v.4a4.551,4.551,0,0,1-.138,1.093,4.128,4.128,0,0,1-.381,1,7.352,7.352,0,0,1,1.222,1.567h-1.6a1.318,1.318,0,0,0-.254-.727,2.643,2.643,0,0,1-.938.61,3.191,3.191,0,0,1-1.168.214,2.669,2.669,0,0,1-1.691-.458,1.624,1.624,0,0,1-.574-1.35,1.563,1.563,0,0,1,.326-.936,4.244,4.244,0,0,1,1.053-.939,2.7,2.7,0,0,1-.53-.67,1.432,1.432,0,0,1-.166-.666,1.182,1.182,0,0,1,.4-.957,2.038,2.038,0,0,1,2.242,0,1.259,1.259,0,0,1,.178,1.631,3.018,3.018,0,0,1-.709.678q.773.627,1.527,1.332a3.525,3.525,0,0,0,.289-1.418v-.4A1.293,1.293,0,0,0,1783.763,280.037Zm-.1,2.364a23.105,23.105,0,0,0-1.782-1.617,3.84,3.84,0,0,0-.826.709.988.988,0,0,0-.224.611.963.963,0,0,0,.353.783,1.452,1.452,0,0,0,.951.291,1.737,1.737,0,0,0,.789-.2A2.554,2.554,0,0,0,1783.666,282.4Zm-1.645-2.7a2.432,2.432,0,0,0,.471-.436.621.621,0,0,0,.142-.373.559.559,0,1,0-1.117,0A1.217,1.217,0,0,0,1782.021,279.7Z"/><path class="ad" d="M1793.361,279.272a1.351,1.351,0,0,1-.256.822,1.335,1.335,0,0,1-.709.49,1.349,1.349,0,0,1,.832.493,1.475,1.475,0,0,1,.309.945,1.642,1.642,0,0,1-.559,1.31,2.257,2.257,0,0,1-1.527.483h-1.613a2.792,2.792,0,0,0,.171-.707,6.875,6.875,0,0,0,.067-.957v-2.793a6.731,6.731,0,0,0-.068-.942,3.245,3.245,0,0,0-.17-.722h1.55a2.327,2.327,0,0,1,1.475.4A1.422,1.422,0,0,1,1793.361,279.272Zm-1.973-.844h-.418v1.813h.418a1.213,1.213,0,0,0,.8-.233.832.832,0,0,0,.275-.674Q1792.466,278.428,1791.388,278.428Zm1.254,3.594a.975.975,0,0,0-.314-.768,1.277,1.277,0,0,0-.877-.279h-.481v2.1h.481a1.27,1.27,0,0,0,.875-.281A.984.984,0,0,0,1792.642,282.022Z"/><path class="ad" d="M1798.621,282.12v-2.762a6.571,6.571,0,0,0-.069-.942,3.207,3.207,0,0,0-.169-.722h1.371a2.764,2.764,0,0,0-.172.707,6.845,6.845,0,0,0-.067.957v2.8a6.519,6.519,0,0,0,.069.939,3.179,3.179,0,0,0,.17.721h-1.133v-.6a1.859,1.859,0,0,1-.758.5,2.822,2.822,0,0,1-1.035.191,1.985,1.985,0,0,1-1.512-.6,2.256,2.256,0,0,1-.566-1.615v-2.34a6.571,6.571,0,0,0-.069-.942,3.191,3.191,0,0,0-.17-.722h1.372a2.764,2.764,0,0,0-.172.707,6.845,6.845,0,0,0-.067.957v2.34a1.453,1.453,0,0,0,.4,1.1,1.543,1.543,0,0,0,1.123.385,1.687,1.687,0,0,0,1.025-.316A.91.91,0,0,0,1798.621,282.12Z"/><path class="ad" d="M1802.1,279.358v2.793a6.557,6.557,0,0,0,.069.941,3.188,3.188,0,0,0,.17.723h-1.372a2.775,2.775,0,0,0,.172-.707,6.856,6.856,0,0,0,.067-.957v-2.793a6.571,6.571,0,0,0-.069-.942,3.132,3.132,0,0,0-.17-.722h1.372a2.764,2.764,0,0,0-.172.707A6.845,6.845,0,0,0,1802.1,279.358Z"/><path class="ad" d="M1804.929,277.694a2.776,2.776,0,0,0-.171.707,6.845,6.845,0,0,0-.067.957v3.722h.7a4.288,4.288,0,0,0,1.891-.367l-.328,1.1h-3.4a2.775,2.775,0,0,0,.172-.707,6.856,6.856,0,0,0,.067-.957v-2.793a6.571,6.571,0,0,0-.069-.942,3.191,3.191,0,0,0-.17-.722Z"/><path class="ad" d="M1809.525,277.694a3.112,3.112,0,0,1,2.215.793,3.326,3.326,0,0,1,0,4.531,3.106,3.106,0,0,1-2.215.8h-1.59a2.786,2.786,0,0,0,.172-.707,6.875,6.875,0,0,0,.067-.957v-2.793a6.571,6.571,0,0,0-.069-.942,3.192,3.192,0,0,0-.17-.722Zm-.457,5.386h.457a2.038,2.038,0,0,0,1.574-.617,2.849,2.849,0,0,0,0-3.422,2.043,2.043,0,0,0-1.574-.613h-.457Z"/><path class="ad" d="M1815.132,278.428h-.352v1.813h2.121l-.578.972a2.925,2.925,0,0,0-.682-.168,5.66,5.66,0,0,0-.861-.07v2.1h.7a4.288,4.288,0,0,0,1.891-.367l-.328,1.1h-3.4a2.817,2.817,0,0,0,.172-.707,6.856,6.856,0,0,0,.066-.957v-2.793a6.568,6.568,0,0,0-.068-.942,3.191,3.191,0,0,0-.17-.722h3.727l-.578.976a2.832,2.832,0,0,0-.7-.174A6.716,6.716,0,0,0,1815.132,278.428Z"/><path class="ad" d="M1819.309,282.151a6.875,6.875,0,0,0,.067.957,2.786,2.786,0,0,0,.172.707h-1.372a2.786,2.786,0,0,0,.172-.707,6.875,6.875,0,0,0,.067-.957v-2.793a6.571,6.571,0,0,0-.069-.942,3.185,3.185,0,0,0-.17-.722h1.606a2.191,2.191,0,0,1,1.512.486,1.723,1.723,0,0,1,.543,1.354,1.847,1.847,0,0,1-.344,1.136,1.621,1.621,0,0,1-.942.61l.942,1.3a5.325,5.325,0,0,0,1.113,1.231h-1.648a1.678,1.678,0,0,0-.367-.9l-1.282-1.882Zm.473-3.723h-.473v2.211h.473q1.16,0,1.16-1.105T1819.782,278.428Z"/><path class="ad" d="M1823.253,282.561a1.789,1.789,0,0,0,.687.451,2.424,2.424,0,0,0,.883.166.879.879,0,0,0,.6-.224.674.674,0,0,0,.254-.514,1.112,1.112,0,0,0-.5-.895l-1.113-.859a2.086,2.086,0,0,1-.937-1.664,1.283,1.283,0,0,1,.474-1.018,1.786,1.786,0,0,1,1.2-.4,4.613,4.613,0,0,1,1.411.191v1.032a1.71,1.71,0,0,0-1.282-.489.927.927,0,0,0-.613.19.617.617,0,0,0-.227.5,1.134,1.134,0,0,0,.536.887l1.3,1a1.8,1.8,0,0,1,.516.619,1.63,1.63,0,0,1,.2.756,1.562,1.562,0,0,1-.465,1.193,1.742,1.742,0,0,1-1.25.439,5.765,5.765,0,0,1-1.671-.25Z"/><rect class="ad" width="17.046" height="1.08" transform="translate(1828.991 280.428)"/><rect class="ad" width="17.046" height="1.08" transform="translate(1704.915 280.428)"/></g></g></svg>