<svg xmlns="http://www.w3.org/2000/svg" width="306" height="216" viewBox="0 0 306 216"><defs><style>.a{fill:#f7f7f7;}.b{fill:#2e3192;}.c{fill:#fff;}</style></defs><g transform="translate(-1777 -650)"><rect class="a" width="306" height="216" transform="translate(1777 650)"/><g transform="translate(1899.781 733.951)"><path class="b" d="M1503.536,177.3h-14.6V149.281h-40.3v28.2h-6.393v-34.6h53.082V170.9h8.2Z" transform="translate(-1442.251 -142.888)"/><g transform="translate(11.398 10.471)"><path class="b" d="M1461.123,178.478h-6.393V154.352h28.624v6.393h-22.23Z" transform="translate(-1454.73 -154.352)"/></g><rect class="b" width="18.742" height="11.138" transform="translate(21.719 23.459)"/><g transform="translate(24.736 27.292)"><path class="c" d="M1472.279,172.884h.956l-.653,3.709h-.957l.071-.4a1.445,1.445,0,0,1-1.149.506,1.18,1.18,0,0,1-.964-.415,1.327,1.327,0,0,1-.215-1.122l.4-2.277h.955l-.373,2.159a.66.66,0,0,0,.1.571.619.619,0,0,0,.5.193.927.927,0,0,0,.6-.2,1.087,1.087,0,0,0,.358-.606Z" transform="translate(-1469.334 -172.78)"/><path class="c" d="M1476.6,172.77a1.391,1.391,0,0,1,1.213.612,1.86,1.86,0,0,1,.293,1.42,2.294,2.294,0,0,1-.683,1.336,1.885,1.885,0,0,1-1.365.549,1.273,1.273,0,0,1-1.185-.624l-.353,2h-.956l.912-5.193h.957l-.067.38A1.678,1.678,0,0,1,1476.6,172.77Zm.553,1.966a.912.912,0,0,0-.152-.761.817.817,0,0,0-.679-.293,1.183,1.183,0,0,0-.753.259,1.238,1.238,0,0,0-.441.68l-.034.19a.814.814,0,0,0,.2.7.906.906,0,0,0,.677.259,1.162,1.162,0,0,0,.764-.279A1.22,1.22,0,0,0,1477.152,174.736Z" transform="translate(-1469.7 -172.77)"/><path class="c" d="M1480.793,176.687a1.649,1.649,0,0,1-1.347-.59,1.727,1.727,0,0,1-.345-1.443,2.147,2.147,0,0,1,.754-1.35,2.187,2.187,0,0,1,1.465-.534,1.768,1.768,0,0,1,.979.263,1.482,1.482,0,0,1,.587.7l-.869.459a.764.764,0,0,0-.779-.481,1.171,1.171,0,0,0-.767.278,1.15,1.15,0,0,0-.413.716.906.906,0,0,0,.156.738.791.791,0,0,0,.66.294,1.063,1.063,0,0,0,.921-.5l.771.5a1.891,1.891,0,0,1-.753.7A2.181,2.181,0,0,1,1480.793,176.687Z" transform="translate(-1470.177 -172.77)"/></g></g><g transform="translate(1883 777.901)"><path d="M1423.877,200.889v-9.881h3.725v9.73c0,2.685,1.724,4.585,4.156,4.585,2.406,0,4.129-1.9,4.129-4.585v-9.73h3.75v9.881a7.88,7.88,0,0,1-15.76,0Z" transform="translate(-1423.877 -191.008)"/><path d="M1445.013,191.008h3.725l8.386,11.25v-11.25h3.749v17.406h-3.749l-8.386-11.25v11.25h-3.725Z" transform="translate(-1425.709 -191.008)"/><path d="M1466.369,191.008h3.751v17.406h-3.751Z" transform="translate(-1427.56 -191.008)"/><path d="M1478.7,194.378h-5.422v-3.37h14.593v3.37h-5.422v14.036H1478.7Z" transform="translate(-1428.158 -191.008)"/><path d="M1495.748,194.378v3.471h8.741v3.37h-8.741v3.825h9.653v3.37H1492V191.008h13.4v3.37Z" transform="translate(-1429.781 -191.008)"/><path d="M1509.943,191.008h6.234c5.853,0,10.007,3.6,10.007,8.69s-4.155,8.716-10.007,8.716h-6.234Zm6.715,14.011c3.319,0,5.675-2.2,5.675-5.321,0-3.091-2.356-5.3-5.675-5.3h-2.99v10.617Z" transform="translate(-1431.336 -191.008)"/></g><g transform="translate(1883.096 801.486)"><path d="M1423.982,216.946h2.268a1.757,1.757,0,1,1,0,3.482H1424.5v2.042h-.514Zm2.178,2.991c.925,0,1.569-.482,1.569-1.246s-.644-1.255-1.569-1.255H1424.5v2.5Z" transform="translate(-1423.982 -216.841)"/><path d="M1432.1,220.4l1.463,2.074h-.594l-1.439-2.042h-1.6v2.042h-.515v-5.524h2.269a1.826,1.826,0,0,1,1.994,1.745A1.743,1.743,0,0,1,1432.1,220.4Zm-2.171-.459h1.664c.925,0,1.569-.482,1.569-1.246s-.644-1.255-1.569-1.255h-1.664Z" transform="translate(-1424.453 -216.841)"/><path d="M1434.639,219.7a2.827,2.827,0,1,1,2.83,2.862A2.882,2.882,0,0,1,1434.639,219.7Zm5.13,0a2.305,2.305,0,1,0-2.3,2.38A2.362,2.362,0,0,0,1439.769,219.7Z" transform="translate(-1424.906 -216.832)"/><path d="M1441.757,216.946h2.268a1.757,1.757,0,1,1,0,3.482h-1.754v2.042h-.514Zm2.179,2.991c.924,0,1.568-.482,1.568-1.246s-.644-1.255-1.568-1.255h-1.665v2.5Z" transform="translate(-1425.523 -216.841)"/><path d="M1447.709,217.436v1.97h3.023v.5h-3.023v2.074h3.329v.49h-3.852v-5.524h3.852v.49Z" transform="translate(-1425.993 -216.841)"/><path d="M1455.047,220.4l1.463,2.074h-.595l-1.439-2.042h-1.6v2.042h-.515v-5.524h2.269a1.826,1.826,0,0,1,1.994,1.745A1.742,1.742,0,0,1,1455.047,220.4Zm-2.171-.459h1.664c.925,0,1.569-.482,1.569-1.246s-.644-1.255-1.569-1.255h-1.664Z" transform="translate(-1426.442 -216.841)"/><path d="M1459.44,217.436h-1.913v-.49h4.342v.49h-1.913v5.033h-.515Z" transform="translate(-1426.889 -216.841)"/><path d="M1464.85,220.219l-2.237-3.273h.644l1.858,2.767,1.873-2.767h.627l-2.228,3.273v2.25h-.538Z" transform="translate(-1427.33 -216.841)"/><path d="M1470.815,219.7a2.882,2.882,0,0,1,2.829-2.855,2.792,2.792,0,0,1,1.987.845l-.354.353a2.286,2.286,0,0,0-1.632-.715,2.377,2.377,0,0,0,0,4.752,2.261,2.261,0,0,0,1.632-.723l.354.362a2.822,2.822,0,0,1-1.987.844A2.888,2.888,0,0,1,1470.815,219.7Z" transform="translate(-1428.041 -216.832)"/><path d="M1476.447,219.7a2.827,2.827,0,1,1,2.83,2.862A2.882,2.882,0,0,1,1476.447,219.7Zm5.131,0a2.305,2.305,0,1,0-2.3,2.38A2.362,2.362,0,0,0,1481.578,219.7Z" transform="translate(-1428.529 -216.832)"/><path d="M1483.7,216.946h.515l3.538,4.687v-4.687h.514v5.524h-.514l-3.538-4.687v4.687h-.515Z" transform="translate(-1429.157 -216.841)"/><path d="M1489.708,221.672l.322-.4a2.6,2.6,0,0,0,1.873.8c.877,0,1.384-.483,1.384-1.046,0-.6-.507-.876-1.552-1.118-1.166-.272-1.81-.635-1.81-1.5a1.669,1.669,0,0,1,1.826-1.576,2.815,2.815,0,0,1,1.93.789l-.322.4a2.357,2.357,0,0,0-1.632-.715,1.159,1.159,0,0,0-1.279,1.061c0,.554.522.8,1.544,1.046,1.133.266,1.818.667,1.818,1.567,0,.885-.7,1.568-1.922,1.568A3.043,3.043,0,0,1,1489.708,221.672Z" transform="translate(-1429.678 -216.831)"/><path d="M1495.208,220.235v-3.289h.515v3.289a1.741,1.741,0,1,0,3.473,0v-3.289h.515v3.289a2.253,2.253,0,1,1-4.5,0Z" transform="translate(-1430.155 -216.841)"/><path d="M1504.858,221.979v.49h-3.586v-5.524h.514v5.033Z" transform="translate(-1430.68 -216.841)"/><path d="M1507.347,217.436h-1.913v-.49h4.342v.49h-1.914v5.033h-.515Z" transform="translate(-1431.041 -216.841)"/><path d="M1514.329,221.167h-3.167l-.571,1.3h-.563l2.436-5.524h.564l2.437,5.524h-.563Zm-.226-.5-1.358-3.088-1.359,3.088Z" transform="translate(-1431.439 -216.841)"/><path d="M1516.864,216.946h.515l3.538,4.687v-4.687h.514v5.524h-.514l-3.538-4.687v4.687h-.515Z" transform="translate(-1432.032 -216.841)"/><path d="M1524.78,217.436h-1.914v-.49h4.342v.49h-1.913v5.033h-.515Z" transform="translate(-1432.552 -216.841)"/></g></g></svg>