<svg xmlns="http://www.w3.org/2000/svg" width="306" height="216" viewBox="0 0 306 216"><defs><style>.a{fill:#f7f7f7;}.b{fill:#26a9e0;}.c{fill:#262261;}.d{fill:#ffdd15;}.e{fill:#2b388f;}</style></defs><g transform="translate(-3387 -650)"><rect class="a" width="306" height="216" transform="translate(3387 650)"/><g transform="translate(1431.55 163.881)"><path class="b" d="M2050.782,617.876l1.549-3.713a20.532,20.532,0,0,1-2.816-1.1l-4.242,4.348.345.12c.368.122.738.238,1.113.343Z"/><path class="c" d="M2074.508,584.681a20.43,20.43,0,1,0-32.729,24.139,20.216,20.216,0,0,0,3.7,3.225l-2.084,2.088-2.5,2.508a24.6,24.6,0,1,1,33.616-31.96Z"/><path class="d" d="M2076.675,593.97q0,.867-.066,1.722a22.578,22.578,0,0,1-1.055,5.353l-9.986-9.988-19.588,19.634a18.908,18.908,0,1,1,30.681-17.44C2076.668,593.489,2076.675,593.729,2076.675,593.97Z"/><path class="c" d="M2094.833,614.413l-3.463,3.463-14.682-14.687L2065.9,592.4l-19.078,19.123-2.083,2.088-2.5,2.507-.914.917-.841.843-3.463-3.463.23-.23.777-.779,3.323-3.331,1.774-1.777,1.083-1.086,21.693-21.738,11.283,11.288.645.645Z"/><path class="c" d="M2087.032,617.876h-42.211l.451-.463,4.242-4.348,16.15-16.557Z"/></g><g transform="translate(1431.55 163.881)"><path class="e" d="M2101.553,592.5h8.614l-.559,2.258h-5.177l-.6,2.725h4.266l-.538,2.258h-4.2l-1.139,5.244h-3.354Z"/><path class="e" d="M2114.288,592.5h2.858l2.65,12.485h-3.437l-.518-2.985h-4.058L2110,605.136l-3.271-.5Zm.642,3.844-1.884,3.4h2.4C2115.22,598.474,2115.054,597.186,2114.93,596.346Z"/><path class="e" d="M2130.087,599.575h-4.037l-1.16,5.412h-3.354l2.692-12.485h3.354l-1.036,4.815h4.018l1.056-4.815h3.354l-2.691,12.485h-3.355Z"/><path class="e" d="M2141.456,592.5h2.858l2.65,12.485h-3.437l-.518-2.985h-4.058l-1.781,3.134-3.271-.5Zm.642,3.844-1.884,3.4h2.4C2142.388,598.474,2142.222,597.186,2142.1,596.346Z"/><path class="e" d="M2151.437,592.409l2.153.149a17.228,17.228,0,0,1,3.024-.279c3.375,0,4.8,1.567,4.8,4.254,0,4.908-2.029,8.491-8.51,8.491-1.346,0-2.609-.037-2.9-.037h-1.262Zm2.878,2.3-1.7,7.949h.869c3.106,0,4.348-2.687,4.348-5.822,0-1.288-.476-2.277-1.905-2.277A6.96,6.96,0,0,0,2154.315,594.705Z"/></g><path class="e" d="M2098.472,605.3l2.828-13.109h9.27l-.715,2.885h-5.171l-.462,2.1h4.273l-.688,2.885h-4.2l-1.139,5.242Z" transform="translate(1431.55 163.881)"/><path class="d" d="M2101.553,592.505h8.616l-.56,2.258h-5.177l-.6,2.724h4.266l-.539,2.257h-4.2l-1.139,5.243h-3.355Z" transform="translate(1431.55 163.881)"/><path class="e" d="M2106.212,604.87l7.9-12.678h3.286l2.784,13.108H2116.1l-.518-2.985h-3.612l-1.8,3.164Zm8.863-5.44c-.127-.745-.233-1.482-.323-2.113l-1.173,2.113Z" transform="translate(1431.55 163.881)"/><path class="d" d="M2114.289,592.505h2.858l2.651,12.482h-3.438l-.518-2.985h-4.059L2110,605.136l-3.272-.5Zm.642,3.844-1.885,3.4h2.4C2115.221,598.476,2115.055,597.188,2114.931,596.349Z" transform="translate(1431.55 163.881)"/><path class="e" d="M2128.541,605.3l1.16-5.41h-3.4l-1.16,5.41h-4l2.828-13.109h4L2126.936,597h3.376l1.056-4.813h4l-2.828,13.109Z" transform="translate(1431.55 163.881)"/><path class="d" d="M2130.089,599.576h-4.039l-1.159,5.411h-3.355l2.692-12.482h3.355l-1.035,4.814h4.017l1.056-4.814h3.355l-2.692,12.482h-3.355Z" transform="translate(1431.55 163.881)"/><path class="e" d="M2133.38,604.87l7.9-12.678h3.287l2.784,13.108h-4.09l-.518-2.985h-3.612l-1.8,3.164Zm8.863-5.44c-.127-.745-.233-1.482-.322-2.113l-1.173,2.113Z" transform="translate(1431.55 163.881)"/><path class="d" d="M2141.457,592.505h2.858l2.651,12.482h-3.438l-.517-2.985h-4.059l-1.782,3.134-3.272-.5Zm.642,3.844-1.884,3.4h2.4C2142.389,598.476,2142.224,597.188,2142.1,596.349Z" transform="translate(1431.55 163.881)"/><path class="e" d="M2152.908,605.338c-.922,0-1.8-.018-2.365-.029-.256-.005-.444-.009-.534-.009h-1.652l2.831-13.22,2.385.165a17.711,17.711,0,0,1,3.042-.277c3.4,0,5.119,1.537,5.119,4.567C2161.734,602.459,2158.847,605.338,2152.908,605.338Zm.58-3c3.641,0,4.034-3.851,4.034-5.507,0-1.759-.907-1.962-1.59-1.962a7.283,7.283,0,0,0-1.352.1l-1.573,7.368Z" transform="translate(1431.55 163.881)"/><path class="d" d="M2151.438,592.412l2.154.149a17.3,17.3,0,0,1,3.023-.279c3.376,0,4.8,1.567,4.8,4.253,0,4.907-2.03,8.489-8.512,8.489-1.346,0-2.61-.037-2.9-.037h-1.264Zm2.878,2.295-1.7,7.948h.87c3.107,0,4.349-2.687,4.349-5.821,0-1.288-.476-2.276-1.905-2.276A7.03,7.03,0,0,0,2154.316,594.707Z" transform="translate(1431.55 163.881)"/><g transform="translate(1431.55 163.881)"><path class="e" d="M2100.114,609.327h5.255l-.341,1.528h-3.158l-.353,1.73h2.589l-.328,1.529h-2.539l-.43,2.135h3.234v1.528h-5.571Z"/><path class="e" d="M2112.052,610.83l-1.592.732c-.189-.53-.341-.821-.8-.821a.73.73,0,0,0-.8.708,1.052,1.052,0,0,0,.593.935l1.112.821a2.448,2.448,0,0,1,1.061,2.084c0,1.793-1.579,2.653-3.3,2.653a5.729,5.729,0,0,1-2.817-.708l.884-1.566a3.87,3.87,0,0,0,1.9.695c.682,0,1.137-.291,1.137-.91a1.216,1.216,0,0,0-.644-1.048l-.9-.657a2.551,2.551,0,0,1-1.225-2.236c0-1.478,1.288-2.337,2.993-2.337A2.14,2.14,0,0,1,2112.052,610.83Z"/><path class="e" d="M2113.29,609.327h6.291l-.329,1.528h-1.983l-1.339,6.922h-2.059l1.326-6.922h-1.907Z"/><path class="e" d="M2122.309,609.327h1.743l1.617,8.45h-2.1l-.315-2.02h-2.476l-1.087,2.121-2-.341Zm.392,2.6-1.15,2.3h1.466C2122.878,613.369,2122.777,612.5,2122.7,611.929Z"/><path class="e" d="M2127.034,609.327h6.291l-.329,1.528h-1.983l-1.339,6.922h-2.059l1.326-6.922h-1.907Z"/><path class="e" d="M2134.942,609.327h5.255l-.342,1.528H2136.7l-.353,1.73h2.589l-.328,1.529h-2.539l-.43,2.135h3.234v1.528h-5.57Z"/><path class="e" d="M2148.13,609.327h1.743l1.616,8.45h-2.1l-.316-2.02H2146.6l-1.086,2.121-2-.341Zm.391,2.6-1.149,2.3h1.465C2148.7,613.369,2148.6,612.5,2148.521,611.929Z"/><path class="e" d="M2154.5,609.264l1.314.1a9.458,9.458,0,0,1,1.844-.19c2.059,0,2.93,1.061,2.93,2.88,0,3.322-1.238,5.748-5.191,5.748-.822,0-1.592-.026-1.769-.026h-.77Zm1.755,1.553-1.035,5.381h.53c1.9,0,2.653-1.819,2.653-3.941,0-.871-.291-1.541-1.162-1.541A3.874,3.874,0,0,0,2156.251,610.817Z"/><path class="e" d="M2165.17,617.777h-1.743l-1.617-8.45h2.134l.695,4.762.152,1.1c.1-.24.341-.771.518-1.1l2.45-4.876,1.971.455Z"/><path class="e" d="M2171.46,609.327h2.047l-1.642,8.45h-2.046Z"/><path class="e" d="M2180.455,610.83l-1.592.732c-.189-.53-.341-.821-.8-.821a.731.731,0,0,0-.8.708,1.053,1.053,0,0,0,.594.935l1.111.821a2.446,2.446,0,0,1,1.062,2.084c0,1.793-1.579,2.653-3.3,2.653a5.726,5.726,0,0,1-2.817-.708l.884-1.566a3.869,3.869,0,0,0,1.895.695c.682,0,1.137-.291,1.137-.91a1.216,1.216,0,0,0-.644-1.048l-.9-.657a2.551,2.551,0,0,1-1.226-2.236c0-1.478,1.289-2.337,2.994-2.337A2.141,2.141,0,0,1,2180.455,610.83Z"/><path class="e" d="M2189.639,612.055c0,2.981-1.491,5.912-4.7,5.912-2.072,0-2.931-1.087-2.931-2.9,0-2.994,1.49-5.887,4.686-5.887C2188.767,609.175,2189.639,610.223,2189.639,612.055Zm-5.432,2.779c0,.872.265,1.567,1.149,1.567,1.453,0,2.1-2.451,2.1-4.144,0-.858-.278-1.516-1.149-1.516C2184.851,610.741,2184.207,613.154,2184.207,614.834Z"/><path class="e" d="M2192.645,609.276l1.4.089a6.558,6.558,0,0,1,1.225-.114c1.478,0,2.6.48,2.6,1.97a2.89,2.89,0,0,1-2.047,2.818,15.322,15.322,0,0,0,2.615,4.155l-1.68.884a14.247,14.247,0,0,1-2.7-4.787c-.1,0-.227-.013-.328-.013l-.682,3.5H2191Zm1.781,1.364-.417,2.186h.177c.935,0,1.541-.505,1.541-1.352a.775.775,0,0,0-.884-.859A2.261,2.261,0,0,0,2194.426,610.64Z"/></g></g></svg>