<svg xmlns="http://www.w3.org/2000/svg" xmlns:xlink="http://www.w3.org/1999/xlink" width="306" height="216" viewBox="0 0 306 216"><defs><style>.a{fill:#f7f7f7;}.b{fill:url(#a);}.c{fill:#607c63;}.d{fill:url(#b);}.e{fill:url(#c);}.f{fill:#7d6d67;}.g{fill:url(#d);}.h{fill:url(#e);}.i{fill:url(#f);}.j{fill:url(#g);}.k{fill:url(#h);}.l{fill:url(#i);}.m{fill:url(#j);}.n{fill:url(#k);}.o{fill:url(#l);}.p{fill:url(#m);}.q{fill:url(#n);}.r{fill:url(#o);}.s{fill:#37337e;}</style><linearGradient id="a" x1="0.341" y1="-0.817" x2="0.331" y2="-1.835" gradientUnits="objectBoundingBox"><stop offset="0" stop-color="#389544"/><stop offset="0.339" stop-color="#418f4b"/><stop offset="0.903" stop-color="#5a7f5f"/><stop offset="1" stop-color="#607c63"/></linearGradient><linearGradient id="b" x1="-59" y1="2.134" x2="-59.015" y2="0.844" gradientUnits="objectBoundingBox"><stop offset="0" stop-color="#b55148"/><stop offset="0.129" stop-color="#ab4d45"/><stop offset="0.344" stop-color="#91443e"/><stop offset="0.618" stop-color="#683632"/><stop offset="0.938" stop-color="#2f2323"/><stop offset="1" stop-color="#231f20"/></linearGradient><linearGradient id="c" x1="-202.422" y1="2.019" x2="-202.464" y2="1.019" xlink:href="#b"/><linearGradient id="d" x1="-5.081" y1="-2.295" x2="-5.096" y2="-3.577" xlink:href="#b"/><linearGradient id="e" x1="-16.557" y1="-2.07" x2="-16.596" y2="-3.082" xlink:href="#b"/><linearGradient id="f" x1="0.44" y1="-9.238" x2="0.439" y2="-10.539" xlink:href="#a"/><linearGradient id="g" x1="0.617" y1="3.345" x2="0.355" y2="-2.673" xlink:href="#b"/><linearGradient id="h" x1="0.58" y1="3.319" x2="0.372" y2="-2.7" xlink:href="#b"/><linearGradient id="i" x1="0.585" y1="3.285" x2="0.361" y2="-2.734" xlink:href="#b"/><linearGradient id="j" x1="0.608" y1="3.242" x2="0.358" y2="-2.776" xlink:href="#b"/><linearGradient id="k" x1="0.577" y1="3.211" x2="0.368" y2="-2.808" xlink:href="#b"/><linearGradient id="l" x1="0.608" y1="3.178" x2="0.365" y2="-2.841" xlink:href="#b"/><linearGradient id="m" x1="0.594" y1="3.146" x2="0.348" y2="-2.873" xlink:href="#b"/><linearGradient id="n" x1="0.573" y1="3.114" x2="0.365" y2="-2.904" xlink:href="#b"/><linearGradient id="o" x1="0.602" y1="3.081" x2="0.352" y2="-2.937" xlink:href="#b"/></defs><g transform="translate(-807 -893)"><rect class="a" width="306" height="216" transform="translate(807 893)"/><g transform="translate(885 975.794)"><g transform="translate(7.308)"><path class="b" d="M1832.74,599.146l-14.761,21.366-2.639.4,16.966-24,16.716,7.052,3.569,5.52-1.357-8.288,4.749,1.4.827,5.26,6.186,2.9,5.682,9.884-12.233-.575Z" transform="translate(-1772.655 -596.906)"/><path class="c" d="M1834.893,616.489l-.123,2.344,2.96-.383.118-2.257Z" transform="translate(-1777.229 -602.223)"/><path class="c" d="M1841.179,615.719l-.123,2.344,2.96-.383.118-2.257Z" transform="translate(-1778.709 -602.011)"/><path class="c" d="M1834.566,623.08l-.123,2.344,2.96-.383.118-2.257Z" transform="translate(-1777.152 -604.04)"/><path class="c" d="M1840.852,622.311l-.123,2.344,2.96-.383.118-2.257Z" transform="translate(-1778.632 -603.828)"/><g transform="translate(92.369 7.873)"><path class="d" d="M1892.345,615.2l-.187-7.429-5.215.64.108,4.3-6.728.674,6.876,10.669,12.287,1.418,15.539-17.044-19.752,2.794Z" transform="translate(-1880.323 -607.776)"/><path class="e" d="M1922.986,610.62l2.154-1.94,8.223,17.681-2.752.062-.034,1.377-1.72.039-.094-3.722Z" transform="translate(-1890.367 -608.025)"/><path class="f" d="M1924.253,621.7l.031,1.226-1.541-.238-.03-1.181Z" transform="translate(-1890.303 -611.562)"/><path class="f" d="M1921.259,624.012l.029,1.134-1.425-.22-.027-1.092Z" transform="translate(-1889.626 -612.203)"/><path class="f" d="M1921.316,621.354l.029,1.134-1.425-.22-.027-1.092Z" transform="translate(-1889.639 -611.47)"/><path class="f" d="M1924.062,624.5l.029,1.134-1.425-.22-.027-1.092Z" transform="translate(-1890.285 -612.337)"/></g><g transform="translate(3.363 7.643)"><path class="g" d="M1798.286,615.345l.594-7.41,5.173.9-.344,4.29,6.682,1-7.452,10.316-12.349.811-14.584-17.786,19.573,3.762Z" transform="translate(-1766.757 -607.461)"/><path class="h" d="M1775.134,609.5l-2.044-2.043-9.182,17.252,2.745.2-.041,1.377,1.715.123.3-3.712Z" transform="translate(-1763.908 -607.459)"/><path class="f" d="M1776.281,620.55l-.1,1.223,1.552-.162.094-1.178Z" transform="translate(-1766.798 -611.036)"/><path class="f" d="M1779.188,623.01l-.091,1.131,1.436-.149.087-1.089Z" transform="translate(-1767.484 -611.716)"/><path class="f" d="M1779.27,620.353l-.091,1.131,1.436-.15.087-1.089Z" transform="translate(-1767.503 -610.984)"/><path class="f" d="M1776.365,623.351l-.091,1.131,1.436-.15.087-1.089Z" transform="translate(-1766.819 -611.81)"/></g><path class="i" d="M1759.51,636.474s87.717-8,135.138.945" transform="translate(-1759.51 -606.906)"/></g><g transform="translate(0 37.019)"><path class="j" d="M1749.951,648.015h6.707a6.324,6.324,0,0,1,4.314,1.37,4.751,4.751,0,0,1,1.564,3.772,4.855,4.855,0,0,1-1.612,3.884,6.787,6.787,0,0,1-4.574,1.392h-2.892V664h-3.508Zm3.508,7.612h2.584a3.662,3.662,0,0,0,2.311-.628,2.443,2.443,0,0,0,.059-3.548,3,3,0,0,0-2.014-.629h-2.94Z" transform="translate(-1749.951 -648.015)"/><path class="k" d="M1781.865,664h-3.745l-1.137-3.323h-6.115L1769.73,664h-3.72l5.972-15.987h4.053Zm-9.362-8.038-.687,1.975h4.242l-.687-1.975-1.422-4.6Z" transform="translate(-1753.732 -648.015)"/><path class="l" d="M1804.5,664h-4.337l-5.333-7.342-1.564,1.482V664h-3.508V648.015h3.508v6.175l5.973-6.175h4.48l-6.4,6.422Z" transform="translate(-1759.323 -648.015)"/><path class="m" d="M1829.369,656.324a3.073,3.073,0,0,1,1.8.886,3.388,3.388,0,0,1,.71,1.718l.688,5.074h-3.6l-.4-4.109a2.336,2.336,0,0,0-.7-1.594,2.849,2.849,0,0,0-1.86-.493H1822.9V664h-3.508V648.015h7.869a5.712,5.712,0,0,1,4.077,1.235,4.3,4.3,0,0,1,1.257,3.166A3.744,3.744,0,0,1,1829.369,656.324ZM1822.9,650.8v4.31h3.366a3.358,3.358,0,0,0,2.169-.595,2.022,2.022,0,0,0,.722-1.651,1.946,1.946,0,0,0-.6-1.515,2.615,2.615,0,0,0-1.813-.55Z" transform="translate(-1766.3 -648.015)"/><path class="n" d="M1855.21,664h-3.745l-1.138-3.323h-6.115L1843.075,664h-3.721l5.973-15.987h4.053Zm-9.363-8.038-.687,1.975h4.243l-.688-1.975-1.421-4.6Z" transform="translate(-1771 -648.015)"/><path class="o" d="M1873.2,654.19v-6.175h3.508V664H1873.2v-6.848h-6.589V664H1863.1V648.015h3.508v6.175Z" transform="translate(-1776.591 -648.015)"/><path class="p" d="M1895.285,655.312a3.787,3.787,0,0,1,3.27,4,4.3,4.3,0,0,1-1.445,3.345,5.755,5.755,0,0,1-4.076,1.347h-7.893V648.015h7.846a5.918,5.918,0,0,1,3.685,1.044,3.41,3.41,0,0,1,1.363,2.864,3.306,3.306,0,0,1-.711,2.155A3.815,3.815,0,0,1,1895.285,655.312Zm-2.915-4.6h-3.722v3.48h3.58a2.816,2.816,0,0,0,1.778-.471,1.574,1.574,0,0,0,.592-1.3Q1894.6,650.71,1892.37,650.71Zm-3.722,10.485h3.769a3.04,3.04,0,0,0,2.015-.583,2.009,2.009,0,0,0,.687-1.617,1.915,1.915,0,0,0-.664-1.56,2.858,2.858,0,0,0-1.872-.55h-3.935Z" transform="translate(-1781.78 -648.015)"/><path class="q" d="M1920.96,664h-3.745l-1.138-3.323h-6.115L1908.825,664H1905.1l5.973-15.987h4.053Zm-9.363-8.038-.687,1.975h4.243l-.688-1.975-1.421-4.6Z" transform="translate(-1786.481 -648.015)"/><path class="r" d="M1938.828,656.324a3.073,3.073,0,0,1,1.8.886,3.387,3.387,0,0,1,.71,1.718l.688,5.074h-3.6l-.4-4.109a2.333,2.333,0,0,0-.7-1.594,2.849,2.849,0,0,0-1.86-.493h-3.106V664h-3.508V648.015h7.869a5.712,5.712,0,0,1,4.077,1.235,4.3,4.3,0,0,1,1.257,3.166A3.744,3.744,0,0,1,1938.828,656.324Zm-6.471-5.524v4.31h3.366a3.357,3.357,0,0,0,2.169-.595,2.022,2.022,0,0,0,.723-1.651,1.946,1.946,0,0,0-.6-1.515,2.618,2.618,0,0,0-1.813-.55Z" transform="translate(-1792.071 -648.015)"/></g></g><g transform="translate(885.011 1032.668)"><path class="s" d="M1752.228,681.649v2.622h5.811v1.811h-8.074V675.768h7.921v1.811h-5.658v2.231h5.092v1.84Z" transform="translate(-1749.965 -675.522)"/><path class="s" d="M1766.863,686.328a5.367,5.367,0,0,1-3.341-.942,3.205,3.205,0,0,1-1.277-2.593h2.216a1.661,1.661,0,0,0,.673,1.319,2.828,2.828,0,0,0,1.713.463,2.719,2.719,0,0,0,1.468-.34,1.068,1.068,0,0,0,.536-.95.886.886,0,0,0-.382-.774,3.984,3.984,0,0,0-1.284-.486l-2-.477a3.87,3.87,0,0,1-1.98-1.044,2.558,2.558,0,0,1-.7-1.824,2.957,2.957,0,0,1,1.055-2.29,4.338,4.338,0,0,1,3.012-.941,4.95,4.95,0,0,1,3.149.926,3.321,3.321,0,0,1,1.285,2.463h-2.2a1.718,1.718,0,0,0-.7-1.2,2.506,2.506,0,0,0-1.514-.434,2.229,2.229,0,0,0-1.315.347,1.057,1.057,0,0,0-.49.9q0,.855,1.269,1.159l2.171.507q2.967.681,2.967,2.97a2.812,2.812,0,0,1-1.155,2.375A5.163,5.163,0,0,1,1766.863,686.328Z" transform="translate(-1752.856 -675.434)"/><path class="s" d="M1774.965,675.768h8.792v1.913H1780.5v8.4h-2.263v-8.4h-3.272Z" transform="translate(-1755.851 -675.522)"/><path class="s" d="M1795.935,686.082h-2.416l-.734-2.144h-3.946l-.733,2.144h-2.4l3.853-10.314h2.615Zm-6.04-5.186-.443,1.275h2.737l-.443-1.275-.917-2.97Z" transform="translate(-1758.38 -675.522)"/><path class="s" d="M1798.325,675.768h8.792v1.913h-3.258v8.4H1801.6v-8.4h-3.271Z" transform="translate(-1761.351 -675.522)"/><path class="s" d="M1813.927,681.649v2.622h5.811v1.811h-8.074V675.768h7.921v1.811h-5.658v2.231h5.092v1.84Z" transform="translate(-1764.491 -675.522)"/><path class="s" d="M1837.486,683.6l2.064,2.4h-2.584l-.826-1.014a4.526,4.526,0,0,1-3.134,1.217,3.788,3.788,0,0,1-2.523-.8,2.558,2.558,0,0,1-.979-2.085q0-2.1,2.6-3.217l-.076-.087a3.834,3.834,0,0,1-1.1-2.245,2.084,2.084,0,0,1,.826-1.694,3.642,3.642,0,0,1,4.221.043,2.17,2.17,0,0,1,.826,1.724,3.19,3.19,0,0,1-1.927,2.709l1.376,1.594a5.324,5.324,0,0,0,.474-1.709h2.064A6.972,6.972,0,0,1,1837.486,683.6Zm-4.236.841a2.459,2.459,0,0,0,1.79-.783l-1.8-2.173q-1.5.7-1.5,1.695a1.133,1.133,0,0,0,.413.913A1.649,1.649,0,0,0,1833.251,684.439Zm1.3-7.1a1.051,1.051,0,0,0-1.307-.007.768.768,0,0,0-.252.6,1.458,1.458,0,0,0,.429.927l.321.377q1.069-.637,1.069-1.275A.793.793,0,0,0,1834.55,677.34Z" transform="translate(-1768.692 -675.428)"/><path class="s" d="M1856.089,680.476a2.443,2.443,0,0,1,2.11,2.579,2.773,2.773,0,0,1-.933,2.158,3.712,3.712,0,0,1-2.63.869h-5.092V675.768h5.062a3.816,3.816,0,0,1,2.378.674,2.2,2.2,0,0,1,.879,1.846,2.135,2.135,0,0,1-.459,1.391A2.463,2.463,0,0,1,1856.089,680.476Zm-1.881-2.97h-2.4v2.245h2.309a1.821,1.821,0,0,0,1.147-.3,1.015,1.015,0,0,0,.382-.84Q1855.645,677.507,1854.208,677.506Zm-2.4,6.765h2.431a1.964,1.964,0,0,0,1.3-.376,1.3,1.3,0,0,0,.443-1.044,1.234,1.234,0,0,0-.428-1.006,1.838,1.838,0,0,0-1.208-.356h-2.538Z" transform="translate(-1773.41 -675.522)"/><path class="s" d="M1870.564,685.5a4.8,4.8,0,0,1-3.119.913,4.737,4.737,0,0,1-3.1-.913,3.158,3.158,0,0,1-1.116-2.593v-7.142h2.263v7.171q0,1.623,1.973,1.623t1.958-1.623v-7.171h2.263v7.142A3.158,3.158,0,0,1,1870.564,685.5Z" transform="translate(-1776.631 -675.522)"/><path class="s" d="M1879.286,686.082h-2.263V675.768h2.263Z" transform="translate(-1779.88 -675.522)"/><path class="s" d="M1884.986,675.768v8.4h5.307v1.911h-7.57V675.768Z" transform="translate(-1781.222 -675.522)"/><path class="s" d="M1894.363,675.768h4.006q5.169,0,5.169,5.157a5.45,5.45,0,0,1-1.23,3.81,4.678,4.678,0,0,1-3.632,1.347h-4.313Zm2.263,8.5h1.759a2.791,2.791,0,0,0,2.233-.775,3.984,3.984,0,0,0,.657-2.571,4.064,4.064,0,0,0-.687-2.636,3.306,3.306,0,0,0-2.508-.782h-1.453Z" transform="translate(-1783.962 -675.522)"/><path class="s" d="M1910.706,681.649v2.622h5.812v1.811h-8.074V675.768h7.921v1.811h-5.658v2.231h5.092v1.84Z" transform="translate(-1787.277 -675.522)"/><path class="s" d="M1927.681,681.128a1.983,1.983,0,0,1,1.162.572,2.188,2.188,0,0,1,.459,1.109l.443,3.273h-2.324l-.26-2.651a1.506,1.506,0,0,0-.451-1.029,1.84,1.84,0,0,0-1.2-.318h-2v4h-2.263V675.768h5.078a3.682,3.682,0,0,1,2.629.8,2.769,2.769,0,0,1,.811,2.042A2.416,2.416,0,0,1,1927.681,681.128Zm-4.174-3.564v2.781h2.171a2.162,2.162,0,0,0,1.4-.384,1.3,1.3,0,0,0,.466-1.065,1.254,1.254,0,0,0-.39-.977,1.685,1.685,0,0,0-1.17-.356Z" transform="translate(-1790.291 -675.522)"/><path class="s" d="M1939.021,686.328a5.367,5.367,0,0,1-3.341-.942,3.206,3.206,0,0,1-1.277-2.593h2.217a1.663,1.663,0,0,0,.672,1.319,2.829,2.829,0,0,0,1.713.463,2.724,2.724,0,0,0,1.468-.34,1.069,1.069,0,0,0,.535-.95.886.886,0,0,0-.382-.774,3.983,3.983,0,0,0-1.284-.486l-2-.477a3.873,3.873,0,0,1-1.98-1.044,2.558,2.558,0,0,1-.7-1.824,2.957,2.957,0,0,1,1.055-2.29,4.339,4.339,0,0,1,3.012-.941,4.95,4.95,0,0,1,3.149.926,3.321,3.321,0,0,1,1.285,2.463h-2.2a1.719,1.719,0,0,0-.7-1.2,2.5,2.5,0,0,0-1.514-.434,2.229,2.229,0,0,0-1.315.347,1.058,1.058,0,0,0-.49.9q0,.855,1.27,1.159l2.171.507q2.967.681,2.967,2.97a2.814,2.814,0,0,1-1.154,2.375A5.167,5.167,0,0,1,1939.021,686.328Z" transform="translate(-1793.389 -675.434)"/></g></g></svg>