<svg xmlns="http://www.w3.org/2000/svg" width="306" height="216" viewBox="0 0 306 216"><defs><style>.a{fill:#f7f7f7;}</style></defs><g transform="translate(-485 -650)"><rect class="a" width="306" height="216" transform="translate(485 650)"/><path d="M2793.086,118.353c-.043,5.142-.043,5.142-1.725,8l5.754,3.192a3.179,3.179,0,0,1-2.8.05,29.929,29.929,0,0,1-5.25-3.283,28.162,28.162,0,0,1-7.361-8.373,7.667,7.667,0,0,1-.631-1.355c-.694-2.333-.29-3.908,2-4.382a19.815,19.815,0,0,1,4.8-.129c.9.038,1.253.732,1.111,1.619s-.305,1.794-.459,2.691l-.457-.028c-.069-.379-.134-.759-.208-1.137a2.8,2.8,0,0,0-2.823-2.2,2.293,2.293,0,0,0-2.455,2.175,5.552,5.552,0,0,0,1.083,3.092c1.982,2.4,4.175,4.625,6.446,7.094,1.977-3.54.952-7.123,1.38-10.794.763.678,1.41,1.217,2.02,1.8,3.929,3.74,7.83,7.507,11.8,11.2a3.176,3.176,0,0,0,1.975.77c9.995.044,19.99.024,29.985.021a3.331,3.331,0,0,1,1.118.04c.278.1.464.454.69.7a3.6,3.6,0,0,1-.714.638c-.2.1-.492.02-.743.02-10.331,0-20.66.028-30.99-.037a3.826,3.826,0,0,1-2.259-1.034c-3.6-3.236-7.132-6.55-10.686-9.836C2793.509,118.7,2793.324,118.555,2793.086,118.353Z" transform="translate(-2147.915 630.701)"/><path d="M2787.407,146.514q-26.283,0-52.564,0a3.086,3.086,0,0,1-.992-.041.837.837,0,0,1-.408-.608c-.016-.143.238-.408.418-.465a3.045,3.045,0,0,1,.871-.031l105.254-.005a2.571,2.571,0,0,1,.869.033c.208.08.472.361.468.548a.743.743,0,0,1-.479.538,7.415,7.415,0,0,1-1.375.037h-52.062Z" transform="translate(-2150.148 632.275)"/><path d="M2776.753,129.687c-1.24,0-2.481.025-3.718-.038-.133-.006-.343-.528-.344-.811-.018-5.269,0-10.538-.015-15.807,0-.694.252-.972.953-.973,2.047,0,4.094-.075,6.141-.038.282.005.591.453.815.751.1.136.058.409.031.614-.491,3.489,1.109,6.187,3.44,8.468,2.4,2.351,4.986,4.519,7.521,6.73.439.383,1.031.592,1.5,1-1.758.318-3.094-.559-4.493-1.524-1.824,1.79-4.121,2.079-6.579,1.945a5.838,5.838,0,0,1-5.187-3.678,6.02,6.02,0,0,1,2.2-6.121c.366-.274.746-.529,1.2-.846a6.028,6.028,0,0,1-.918-4.52,1.06,1.06,0,0,0-.554-.87c-1.428-.177-2.871-.24-4.375-.345,0,4.477-.032,8.693.018,12.908.018,1.487.329,2.9,2.609,2.551Zm10.506-2.543-6.638-6.174c-1.274,1.145-1.423,4.076.067,5.857C2782.294,128.748,2784.944,128.872,2787.258,127.144Z" transform="translate(-2148.298 630.702)"/><path d="M2733.558,129.789c-.443-1.345.272-1.417,1.127-1.416q9.025.013,18.051.005,8.837,0,17.676,0h1.645V113.844a6.884,6.884,0,0,0-6.4,1.438c.214-1.075.411-2.155.668-3.22.03-.117.416-.215.633-.208,1.915.059,3.83.189,5.745.2.907.005,1.264.288,1.259,1.223q-.043,7.713,0,15.427c.007,1.1-.658,1.069-1.4,1.069q-8.4,0-16.8,0-10.342,0-20.684.015C2734.592,129.79,2734.1,129.789,2733.558,129.789Z" transform="translate(-2150.15 630.695)"/><path d="M2804.676,124.035c0-3.447.047-6.869-.056-10.284-.015-.456-.754-.931-1.226-1.312-.2-.164-.58-.114-.878-.161l.024-.312h6.129c-1.8.959-1.776.976-1.812,3.16-.067,4.14-.18,8.278-.278,12.417a6.477,6.477,0,0,1-.136.738c-1.1-1.023-2.058-1.909-3.006-2.81q-5.9-5.6-11.792-11.2c-.181-.173-.484-.334-.509-.529a15.561,15.561,0,0,1-.054-1.775,4.051,4.051,0,0,1,1.224.523C2796.464,116.336,2800.6,120.216,2804.676,124.035Z" transform="translate(-2147.429 630.7)"/><path d="M2777.263,137.089a6.423,6.423,0,0,1-6.664,6.837c-4.354-.04-6.717-2.713-6.747-6.456-.029-3.831,2.547-6.3,6.444-6.524C2774.379,130.712,2777.582,133.388,2777.263,137.089Zm-10.841-.08-.246.1a23.36,23.36,0,0,0,1.311,3.693,3.906,3.906,0,0,0,4.042,1.944,3.139,3.139,0,0,0,2.909-2.522,7.965,7.965,0,0,0-.546-6.033,4.3,4.3,0,0,0-4.7-2.074c-1.365.265-2.333,1.443-2.641,3.272C2766.46,135.921,2766.463,136.468,2766.423,137.01Z" transform="translate(-2148.714 631.596)"/><path d="M2789.533,134.707c-1.493-2.455-3.284-3.334-5.9-2.5a4.788,4.788,0,0,0-2.092,1.684c-2.262,2.969-.1,8.2,3.569,8.664,1.738.218,3.51.23,4.114-2.1.86,1.581.294,2.892-1.279,3.238a8.82,8.82,0,0,1-7.384-1.339c-2.171-1.581-2.874-4.261-2.069-7.212a6.314,6.314,0,0,1,5.479-4.131c1.489-.082,2.992.114,4.49.178.882.037,1.266.461,1.174,1.361C2789.563,133.267,2789.566,133.989,2789.533,134.707Z" transform="translate(-2148.038 631.598)"/><path d="M2746.948,143.3a12.412,12.412,0,0,1-1.72.357c-.869.061-1.745.016-2.482.016-.227-.842-.359-1.563-.617-2.237-.766-2-.785-1.991-2.965-1.988-1.167,0-2.759,2.171-2.332,3.253.11.28.525.439,1.012.819h-4.311c2.621-.975,2.363-3.673,3.323-5.586,1.023-2.038,1.716-4.239,2.578-6.36a5.721,5.721,0,0,1,.8-.992c.809,1.976,1.513,3.683,2.206,5.394.733,1.812,1.487,3.615,2.17,5.445a2.933,2.933,0,0,0,2.379,1.918Zm-7.316-8.707-1.27,3.592h2.579Z" transform="translate(-2150.145 631.579)"/><path d="M2793.413,143.609h-3.944a9.489,9.489,0,0,0,1.837-2.121c1.309-3,2.449-6.078,3.667-9.121.207-.518.483-1.008.727-1.512l.37-.039c.336.714.708,1.415,1,2.146,1.072,2.657,2.043,5.356,3.213,7.968a14.165,14.165,0,0,0,1.966,2.613h-3.489a36.06,36.06,0,0,0-1.439-3.719c-.15-.3-.953-.357-1.458-.363-2.2-.026-2.9.538-3.194,2.716C2792.618,142.573,2793.1,143.042,2793.413,143.609Zm.737-5.388h2.6c-.431-1.219-.8-2.271-1.278-3.616C2794.966,135.987,2794.584,137.031,2794.15,138.222Z" transform="translate(-2147.505 631.59)"/><path d="M2820.138,131.156h7.743l-.2,2.654c-1.157-1.581-1.434-1.667-3.8-1.322v4.038l3.788-.28c-.056.76-.12,1.644-.184,2.527l-.264.2c-.581-2.05-2.056-1.176-3.416-1.366a29.34,29.34,0,0,0,.041,3.454c.063.511.553,1.366.869,1.375.99.028,2.219.633,2.927-.667.115-.212.2-.442.311-.7.881,1.577.342,2.584-1.315,2.583-1.753,0-3.506,0-5.26-.005a3.536,3.536,0,0,1-1.118-.187c1.189-.335,1.225-1.292,1.246-2.152.069-2.8.14-5.6.024-8.388C2821.506,132.35,2820.682,131.814,2820.138,131.156Z" transform="translate(-2146.058 631.605)"/><path d="M2808.469,133.774c-.548-1.97.038-2.655,1.65-2.617,3,.07,6.011.02,9.1.02v2.414c-.7-1.219-1.8-1.18-2.928-1.226-.936-.039-1.248.24-1.224,1.191.062,2.383.017,4.769.033,7.153.009,1.173-.335,2.579,1.844,2.469l-.274.324H2811.6c1.379-.478,1.066-1.616,1.075-2.59.019-2.468-.02-4.938.033-7.4.019-.882-.265-1.215-1.145-1.133C2810.431,132.479,2809.167,132.166,2808.469,133.774Z" transform="translate(-2146.618 631.605)"/><path d="M2746.382,143.326v-3.033l.514-.069a11.787,11.787,0,0,1,.429,1.144,1.633,1.633,0,0,0,1.813,1.367c.723-.081,1.785-.331,2.015-.823a2.771,2.771,0,0,0-.351-2.277,13.092,13.092,0,0,0-2.184-2.024,4.4,4.4,0,0,1-1.819-3.265,3.188,3.188,0,0,1,2.988-3.361,7.467,7.467,0,0,1,.751-.013c2.731-.013,2.91.22,2.244,3.163a5.791,5.791,0,0,1-.426-.8,1.586,1.586,0,0,0-1.9-1.226,2.446,2.446,0,0,0-1.613.807,1.738,1.738,0,0,0,.711,2.189c.71.578,1.421,1.157,2.109,1.762,1.636,1.441,2.24,3.314,1.555,4.757a4.47,4.47,0,0,1-4.853,2.265,16.085,16.085,0,0,1-2.02-.6Z" transform="translate(-2149.541 631.597)"/><path d="M2761.657,134.208c-.406-1.391-.991-2.372-2.38-2.109a2.312,2.312,0,0,0-1.531.959,1.889,1.889,0,0,0,.44,1.63,31.037,31.037,0,0,0,2.632,2.3c2.238,1.943,2.171,4.947-.173,6.32a5.513,5.513,0,0,1-4.7.241c-.175-.058-.421-.26-.428-.4-.037-.952-.02-1.907-.02-2.86l.374-.04c.16.435.205.99.506,1.277a5.141,5.141,0,0,0,1.847,1.217,1.624,1.624,0,0,0,1.99-.89c.587-1.061.034-1.86-.637-2.551-.693-.713-1.552-1.265-2.257-1.968-1.122-1.116-2-2.347-1.4-4.088a3.414,3.414,0,0,1,2.975-2.271c.416-.024.835-.006,1.252,0C2762.2,131.006,2762.717,131.957,2761.657,134.208Z" transform="translate(-2149.108 631.597)"/><path d="M2830.634,140.292c.152.409.277.83.459,1.226a2.361,2.361,0,0,0,3.258.994c.727-.5,1.237-1.278.635-2.134a23.829,23.829,0,0,0-2.069-2.283,14.954,14.954,0,0,1-1.98-2.223,2.993,2.993,0,0,1,1.616-4.584,10.613,10.613,0,0,1,3.564-.157c.26.012.653.576.7.926a5.007,5.007,0,0,1-.226,1.956c-.645-1.1-1.191-2.264-2.684-1.906a2.273,2.273,0,0,0-1.426.928,1.742,1.742,0,0,0,.372,1.535c.966,1.029,2.109,1.888,3.113,2.884a3.606,3.606,0,0,1,1.016,3.882c-.745,2.263-4.421,3.48-6.406,2.14a.76.76,0,0,1-.345-.469c-.034-.887-.016-1.776-.016-2.664Z" transform="translate(-2145.582 631.602)"/><path d="M2802.708,131.276h4.3c-1.3.613-1.186,1.722-1.18,2.809.014,2.912,0,5.826,0,8.7l1.622.447-.031.273h-5c1.3-.424,1.015-1.5,1.027-2.431.035-2.506.1-5.014.026-7.517A8.554,8.554,0,0,0,2802.708,131.276Z" transform="translate(-2146.894 631.611)"/><g transform="translate(540.162 786.024)"><path d="M2777.516,164.134c.4-1.331-.331-2.213-.737-3.129-.12-.27-.951-.3-1.457-.308a2.167,2.167,0,0,0-2.343,2.372c.006.283.406.556.691.917h-7.362c1.018-.469.983-1.342.981-2.209,0-1.9-.011-3.8,0-5.7.006-.849.124-1.734-1.052-2.065h3.829c-1,.43-1.026,1.252-1.02,2.1.012,1.932-.029,3.865.033,5.8.021.644-.153,1.533.851,1.707a1.618,1.618,0,0,0,1.943-1.2c1.024-2.638,2.1-5.257,3.157-7.881.122-.3.291-.581.592-1.171.421.9.749,1.531,1.017,2.187.867,2.123,1.709,4.254,2.565,6.381a6.111,6.111,0,0,0,.348.732c.7,1.239,1.237,1.249,1.988.076,1.458-2.277,2.932-4.542,4.4-6.813.2-.306.372-.624.688-1.158-1.891.363-3.933-.729-5.319,1.481l.231-2.225h7.69c-1.977,3.1-3.8,5.956-5.8,9.1,1.986-.535,4.153.945,5.39-1.513a1.584,1.584,0,0,1-1.319,2.515C2784.19,164.14,2780.881,164.134,2777.516,164.134Zm-3.311-4.466h2.162l-1.079-2.939Z" transform="translate(-2688.763 -153.37)"/><path d="M2719.676,153.977h3.976c-1.025.479-.949,1.364-.949,2.211,0,1.9.011,3.8.006,5.695,0,.934.092,1.781,1.478,1.805-.241.192-.333.328-.425.329a51.56,51.56,0,0,1-5.562-.043,4.448,4.448,0,0,1-2.169-1.284,7.5,7.5,0,0,1-1.453-1.94,1.279,1.279,0,0,0-1.764-.611c-.358,2.255-.092,3.065,1.486,3.811h-4.27c.992-.348.953-1.1.946-1.878-.019-2.034,0-4.067-.007-6.1,0-.837.248-1.842-1.17-1.876.13-.075.262-.22.39-.218a35.3,35.3,0,0,1,4.75.183c2.195.35,2.887,2.457,1.513,4.208-.29.37-.6.723-.955,1.141.913,1.1,1.8,2.195,2.719,3.268a2.81,2.81,0,0,0,.712.561c1.289.758,1.881.448,1.909-1.033.04-2.066.051-4.133.051-6.2C2720.888,154.762,2720.81,154.649,2719.676,153.977Zm-6.971.957c0,1.011-.033,2.05.019,3.086.016.348.175.9.4.977a1.835,1.835,0,0,0,1.317-.088c.844-.435,1.105-1.987.62-3.1C2714.686,154.96,2713.916,154.651,2712.7,154.934Z" transform="translate(-2691.427 -153.346)"/><path d="M2733.4,163.121c3.312,1.838,6.544,3.587,10.5,2.276l.055.424a21.406,21.406,0,0,1-2.068.748,8.776,8.776,0,0,1-7.335-1.248,7.513,7.513,0,0,0-5.018-1.207,4.419,4.419,0,0,1-4.355-2.588,5.042,5.042,0,0,1,.292-5.561,5.166,5.166,0,0,1,5.03-2.173c2.343.183,4.052,1.181,4.724,3.561a4.983,4.983,0,0,1-.87,4.589C2734.07,162.314,2733.766,162.671,2733.4,163.121Zm-6.792-4.614a5.08,5.08,0,0,0,1.134,3.583c1.152,1.455,4.349,1.921,5.187-.464a6.172,6.172,0,0,0-.257-5.2,3.277,3.277,0,0,0-3.355-1.8,2.851,2.851,0,0,0-2.563,2.482A9.957,9.957,0,0,0,2726.611,158.507Z" transform="translate(-2690.734 -153.351)"/><path d="M2853.114,153.4c.507,1.2.93,2.169,1.323,3.147.7,1.752,1.381,3.516,2.086,5.268a3.287,3.287,0,0,0,1.913,2.165h-3.127a21.02,21.02,0,0,0-1.1-2.965c-.149-.276-.9-.3-1.382-.313-1.6-.058-2.309.573-2.4,2.192-.019.318.3.657.511,1.074h-7.252a1.573,1.573,0,0,0,.932-1.731c-.045-2.136-.033-4.274,0-6.41.012-.779.019-1.482-.949-1.812h3.786c-1.035.319-.921,1.1-.916,1.842q.024,3.154.016,6.308c0,.616-.122,1.288.714,1.446a1.529,1.529,0,0,0,1.889-.955q.973-2.391,1.928-4.788c.465-1.155.916-2.316,1.394-3.465A8.569,8.569,0,0,1,2853.114,153.4Zm-1.525,6.268h2.161l-1.068-2.92Z" transform="translate(-2685.109 -153.369)"/><path d="M2826.981,164.152a5.046,5.046,0,0,1-5.333-5.224,5.219,5.219,0,0,1,5.544-5.2c3.539.046,5.391,2.1,5.376,5.105A5.228,5.228,0,0,1,2826.981,164.152Zm-3.249-5.62c-.017,1.965.555,3.667,2.475,4.472,1.536.643,3.182.344,3.828-1.3a5.851,5.851,0,0,0-.421-5.6,3.242,3.242,0,0,0-3.422-1.415,2.77,2.77,0,0,0-2.345,2.437A7.933,7.933,0,0,0,2823.732,158.532Z" transform="translate(-2686.148 -153.353)"/><path d="M2747.156,161.514c.954-1.73.89-2.21-.2-2.912l.026-.282a18.372,18.372,0,0,1,2.027.31c.122.03.247.549.173.777-.276.856-.635,1.684-1.037,2.709l3.211,1.783a5.191,5.191,0,0,1-3.887-.395,1.071,1.071,0,0,0-1.349.037,4.565,4.565,0,0,1-3.809.5,2.929,2.929,0,0,1-1.519-4.917c.331-.381.679-.748,1.078-1.184-.047-.132-.132-.381-.223-.627a2.294,2.294,0,0,1,1.328-3.228,4.511,4.511,0,0,1,2.064-.3c1.784.175,2.034.772,1.141,2.664-.11-.284-.2-.471-.255-.668a1.541,1.541,0,0,0-2.12-1.086,1.251,1.251,0,0,0-.59,2C2744.4,158.349,2745.785,159.859,2747.156,161.514Zm-4.773-2.5a2.442,2.442,0,0,0,1.019,3.953,7.047,7.047,0,0,0,2.213-.206c.031,0,.1-.58-.032-.709C2744.537,161.017,2743.45,160.021,2742.382,159.018Z" transform="translate(-2690.002 -153.351)"/><path d="M2763.831,164.3l-7.21-7.338-.217.219c0,1.745-.012,3.488.006,5.232a1.127,1.127,0,0,0,1.3,1.249l-.087.26h-3.491c1.061-.351.912-1.239.914-2.04.009-2.669,0-5.338.209-8.084,1.59.9,2.574,2.292,3.787,3.435,1.228,1.158,2.442,2.331,3.673,3.509,0-1.833.05-3.731-.045-5.621-.018-.355-.617-.681-.957-1.03a4.892,4.892,0,0,1,3.025-.09,5.925,5.925,0,0,0-.613,1.635c-.126,2.467-.156,4.939-.226,7.408C2763.895,163.371,2763.867,163.7,2763.831,164.3Z" transform="translate(-2689.334 -153.35)"/><path d="M2709.956,163.984h-2.8a14.533,14.533,0,0,0-1.318-3.1c-.251-.347-1.265-.119-1.927-.2a1.048,1.048,0,0,0-1.333.992c-.042.257-.264.483-.313.74-.107.572-.694,1.4.937,1.2l-.331.326h-3.385c1.978-.738,1.884-2.742,2.583-4.209.825-1.734,1.448-3.564,2.168-5.348a11.314,11.314,0,0,1,.568-1c.42.917.768,1.6,1.054,2.313.832,2.06,1.579,4.156,2.49,6.181A11.483,11.483,0,0,0,2709.956,163.984ZM2705.5,159.7l-1.058-3-1.1,3Z" transform="translate(-2691.913 -153.369)"/><path d="M2807.871,163.976h-3.1c-.4-1.091-.736-2.049-1.113-2.991-.055-.136-.3-.234-.471-.276a2.539,2.539,0,0,0-.606-.015c-2.106,0-2.355.163-2.774,2.232-.057.281.363.658.6,1.057h-3.255c1.452-.389,1.579-1.715,2.015-2.742.909-2.143,1.727-4.325,2.591-6.487.147-.367.338-.715.659-1.383.361.692.631,1.12.817,1.582.881,2.191,1.715,4.4,2.619,6.584C2806.261,162.509,2806.6,163.6,2807.871,163.976Zm-6.858-4.282h2.159l-1.059-2.968C2801.687,157.878,2801.367,158.739,2801.013,159.694Z" transform="translate(-2687.304 -153.37)"/><path d="M2842.323,161.422c.455,2.037-.075,2.677-1.977,2.726-1.844.047-3.642.013-5.2-1.209a5.152,5.152,0,0,1-1.691-5.464,4.71,4.71,0,0,1,4.26-3.6c1.236-.072,2.481-.005,3.722.028.81.022,1.254.385,1.09,1.283-.094.517-.118,1.047-.176,1.592-.194-.058-.3-.059-.314-.1-.744-1.775-1.86-2.366-3.816-2.013a3.144,3.144,0,0,0-2.8,3.275,4.862,4.862,0,0,0,1.093,3.967,4.172,4.172,0,0,0,3.166,1.329A2.619,2.619,0,0,0,2842.323,161.422Z" transform="translate(-2685.601 -153.348)"/><path d="M2865.933,153.973h6.375l-.333,2.278c-.636-1.414-1.016-1.575-2.856-1.405v3.306l3.013-.152-.211,1.819a21.327,21.327,0,0,0-2.03-.727c-.575-.143-.883.16-.861.785.021.575-.034,1.154,0,1.728.039.605-.142,1.326.8,1.511a1.923,1.923,0,0,0,2.289-.9,2.58,2.58,0,0,1,.259-.33c.46,1.739.1,2.253-1.459,2.233-1.453-.019-2.9-.04-4.357-.073a3.168,3.168,0,0,1-.676-.246c1.183-.273,1.271-1.007,1.266-1.818-.012-2.034-.029-4.067.007-6.1.015-.9-.028-1.674-1.4-1.549Z" transform="translate(-2684.066 -153.342)"/><path d="M2695.922,154.769c-1.212.478-2.591-.39-3.385,1.075-.622-1.288-.2-2.007,1.075-1.994q3.148.033,6.3.023c1.518,0,1.855.593,1.077,2.126-.62-1.572-1.989-.853-3.217-1.18,0,.409,0,.726,0,1.041.016,2,.028,4,.053,6,.011.911-.124,1.934,1.516,1.8l-.249.308h-4.145c.933-.424.989-1.187.983-2.013C2695.913,159.651,2695.922,157.348,2695.922,154.769Z" transform="translate(-2692.255 -153.347)"/><path d="M2863.144,163.953h-3.893a5.267,5.267,0,0,0,.675-1.624c.1-2.264.1-4.534.086-6.8a.8.8,0,0,0-.5-.568,3.615,3.615,0,0,0-3.263,1.055l.392-2.155c2.731,0,5.4-.016,8.064.027a.917.917,0,0,1,.659.6,3.9,3.9,0,0,1-.2,1.471c-.709-1.572-2.086-.751-3.223-1.139,0,.83,0,1.523,0,2.216.006,1.727.035,3.454.015,5.18-.01.842.141,1.491,1.259,1.441Z" transform="translate(-2684.515 -153.347)"/><path d="M2815.256,161.1c.135.432.221.679.288.929a1.541,1.541,0,0,0,1.592,1.265c.684.021,1.444-.066,1.569-.764a3.258,3.258,0,0,0-.414-1.937c-.25-.472-.865-.738-1.262-1.149a13.59,13.59,0,0,1-1.571-1.815,2.262,2.262,0,0,1,.132-2.751,3.361,3.361,0,0,1,2.99-1.144,2.2,2.2,0,0,1,.3.066c1.456.222,1.8.934,1.069,2.5-.155-.331-.281-.574-.384-.827a1.242,1.242,0,0,0-1.538-.821,1.919,1.919,0,0,0-1.2.667,1.37,1.37,0,0,0,.511,1.691,13.747,13.747,0,0,1,2.7,2.687,2.82,2.82,0,0,1-2.244,4.439c-.371.019-.743.008-1.116,0C2814.781,164.114,2814.171,162.959,2815.256,161.1Z" transform="translate(-2686.475 -153.353)"/><path d="M2807.923,161.03c.2.6.3.973.447,1.33a1.47,1.47,0,0,0,1.738.911,1.459,1.459,0,0,0,1.025-2.516,8.411,8.411,0,0,0-1.469-1.373,11.673,11.673,0,0,1-.886-.833,2.934,2.934,0,0,1-.638-3.447,3.393,3.393,0,0,1,3.18-1.351c.168.022.332.068.5.087,1.309.142,1.669,1.077.823,2.366-.412-.9-.826-1.845-2.027-1.561-.415.1-.986.367-1.1.692a1.627,1.627,0,0,0,.27,1.367,21.164,21.164,0,0,0,2.045,1.81c1.343,1.182,1.733,2.394,1.229,3.767a2.855,2.855,0,0,1-2.442,1.855,4.986,4.986,0,0,1-.812.018C2807.531,164.155,2807.115,163.554,2807.923,161.03Z" transform="translate(-2686.814 -153.353)"/><path d="M2879.129,156.366c-.345-1.084-.8-1.917-1.917-1.717a2.114,2.114,0,0,0-1.308.835c-.159.257.078.951.353,1.247.617.663,1.383,1.182,2.061,1.79a3.26,3.26,0,0,1,1.192,3.776,2.844,2.844,0,0,1-2.636,1.85,4.528,4.528,0,0,1-1.112-.014c-.56-.135-1.436-.247-1.565-.6a6.863,6.863,0,0,1-.073-2.275l.319-.006c.08.241.155.482.238.72a1.843,1.843,0,0,0,2.67,1.164,1.2,1.2,0,0,0,.67-1.686,6.467,6.467,0,0,0-1.182-1.482c-.563-.578-1.24-1.05-1.767-1.656a2.706,2.706,0,0,1-.465-3.189,3.252,3.252,0,0,1,3.068-1.4c.134.016.262.07.4.088C2879.554,154.023,2879.882,154.693,2879.129,156.366Z" transform="translate(-2683.675 -153.354)"/><path d="M2793.641,163.954h-3.906a5.06,5.06,0,0,0,.678-1.57c.1-2.265.145-4.535.086-6.8-.013-.523-.506-1.033-.8-1.589h3.608c-1.131.369-.995,1.246-.986,2.093.019,1.967.033,3.933,0,5.9-.019.971.145,1.716,1.444,1.666Z" transform="translate(-2687.656 -153.341)"/></g><path d="M2787.683,89.97l17.024,12.051c-.286-2.22,1.059-1.872,2.188-1.86,2.192.023,2.354.038,2.148,2.181-.2,2.108.446,3.536,2.344,4.422a3.793,3.793,0,0,1,.514.356c2.051,1.411,2.051,1.411,1.932,4.085-.437-.274-.811-.487-1.162-.733q-8.637-6.085-17.272-12.178c-2.306-1.627-4.634-3.227-6.9-4.907a1.277,1.277,0,0,0-1.762.02q-10.761,7.632-21.545,15.238c-1.172.827-2.355,1.639-3.543,2.465-.5-2.841-.475-2.387,1.647-3.882,7.462-5.259,14.883-10.574,22.323-15.862C2786.291,90.887,2786.989,90.438,2787.683,89.97Z" transform="translate(-2148.831 629.662)"/><path d="M2813.687,113.58q-7.855-5.553-15.711-11.1c-3.168-2.237-6.361-4.44-9.5-6.717-.759-.55-1.248-.288-1.864.148q-12.031,8.515-24.08,17.006c-.269.19-.556.355-.888.565-.4-.973.339-1.309.864-1.68q7.755-5.482,15.534-10.932c2.9-2.036,5.815-4.044,8.664-6.142a1.388,1.388,0,0,1,1.943.034c8.185,5.812,16.395,11.589,24.578,17.4a4.26,4.26,0,0,1,.8,1.164Z" transform="translate(-2148.823 629.869)"/><g transform="translate(636.122 729.93)"><path d="M2783.9,99.8h2.029v2.072H2783.9Z" transform="translate(-2783.889 -99.804)"/><path d="M2787.071,99.8h2.017v2.072h-2.017Z" transform="translate(-2783.74 -99.804)"/><path d="M2787.061,102.819h2.018v2.072h-2.018Z" transform="translate(-2783.74 -99.662)"/><path d="M2783.89,102.819h2.028v2.072h-2.028Z" transform="translate(-2783.89 -99.662)"/></g></g></svg>