<svg xmlns="http://www.w3.org/2000/svg" width="306" height="216" viewBox="0 0 306 216"><defs><style>.a{fill:#f7f7f7;}.b{fill:#677b04;}</style></defs><g transform="translate(-2099 -893)"><rect class="a" width="306" height="216" transform="translate(2099 893)"/><g transform="translate(380.95 835.204)"><path d="M1776.437,172.671a26.326,26.326,0,0,0,.257,3.707,10.911,10.911,0,0,0,.665,2.738h-5.309a10.911,10.911,0,0,0,.665-2.738,26.325,26.325,0,0,0,.258-3.707V161.855a25.708,25.708,0,0,0-.265-3.645,12.352,12.352,0,0,0-.658-2.8h5.309a8.053,8.053,0,0,1,5.688,1.83,8.109,8.109,0,0,1,0,10.589,8.049,8.049,0,0,1-5.688,1.831h-.922Zm.922-14.416h-.922v8.562h.922a4.306,4.306,0,0,0,3.192-1.021,5.819,5.819,0,0,0,0-6.52A4.306,4.306,0,0,0,1777.359,158.255Z"/><path d="M1792.517,172.671a26.325,26.325,0,0,0,.257,3.707,10.857,10.857,0,0,0,.666,2.738h-5.31a10.911,10.911,0,0,0,.665-2.738,26.325,26.325,0,0,0,.258-3.707V161.855a25.708,25.708,0,0,0-.265-3.645,12.352,12.352,0,0,0-.658-2.8h6.217a8.467,8.467,0,0,1,5.854,1.883,6.675,6.675,0,0,1,2.1,5.242,7.158,7.158,0,0,1-1.331,4.4,6.277,6.277,0,0,1-3.646,2.36l3.646,5.053a20.615,20.615,0,0,0,4.311,4.765H1798.9a6.469,6.469,0,0,0-1.422-3.495l-4.961-7.291Zm1.83-14.416h-1.83v8.562h1.83q4.492,0,4.493-4.281T1794.347,158.255Z"/><path d="M1812.061,161.855v10.816a25.726,25.726,0,0,0,.264,3.646,12.37,12.37,0,0,0,.659,2.8h-5.31a10.942,10.942,0,0,0,.666-2.738,26.472,26.472,0,0,0,.257-3.707V161.855a25.708,25.708,0,0,0-.265-3.645,12.345,12.345,0,0,0-.658-2.8h5.31a10.935,10.935,0,0,0-.666,2.738A26.458,26.458,0,0,0,1812.061,161.855Z"/><path d="M1823.558,155.411a12.052,12.052,0,0,1,8.577,3.071,12.885,12.885,0,0,1,0,17.548,12.017,12.017,0,0,1-8.577,3.086H1817.4a10.947,10.947,0,0,0,.666-2.738,26.472,26.472,0,0,0,.257-3.707V161.855a25.708,25.708,0,0,0-.265-3.645,12.352,12.352,0,0,0-.658-2.8Zm-1.77,20.861h1.77a7.891,7.891,0,0,0,6.1-2.39,11.046,11.046,0,0,0,0-13.252,7.917,7.917,0,0,0-6.1-2.375h-1.77Z"/><path d="M1858.544,161.89l-5.886-4.441h-7.9v13.064h6.893l4.776-3.511.155,8.984-4.7-3.15h-6.764v13.855h7.762l7.022-5.438-.757,7.366-21.48.62a10.959,10.959,0,0,0,1.515-5.99c0-3.855-.069-23.752-.069-23.752s-.276-2.788-1.738-4.01h21.273Z"/></g><g transform="translate(380.95 835.204)"><path class="b" d="M1891.4,185.682a.186.186,0,0,0-.137.053l-.094.094q-.189.231-.41.462l-.441.462q-.221.231-.462.452t-.482.419a6.024,6.024,0,0,1-.494.368q-.252.168-.483.294a2.143,2.143,0,0,1-.462.189,1.676,1.676,0,0,1-.441.063.959.959,0,0,1-.3-.053.717.717,0,0,1-.283-.178.925.925,0,0,1-.2-.305,1.193,1.193,0,0,1-.073-.451,1.417,1.417,0,0,1,.021-.42q.042-.21.084-.462.336-.063.7-.168t.735-.241q.367-.136.714-.294a7.453,7.453,0,0,0,.671-.347,4.149,4.149,0,0,0,.588-.409,3.593,3.593,0,0,0,.462-.462,2.153,2.153,0,0,0,.315-.5,1.366,1.366,0,0,0,.116-.556,1.038,1.038,0,0,0-.074-.378.865.865,0,0,0-.22-.325,1.1,1.1,0,0,0-.378-.221,1.53,1.53,0,0,0-.525-.084,2.584,2.584,0,0,0-.8.084,4.022,4.022,0,0,0-.777.294,6.293,6.293,0,0,0-.745.441,7.611,7.611,0,0,0-.682.525q-.315.273-.6.556t-.5.536a5.53,5.53,0,0,0-.367.461l-.083.12a.219.219,0,0,0-.106.038,1.467,1.467,0,0,1-.126.094l-.357.4q-.189.21-.4.431l-.43.451q-.22.231-.431.441t-.42.388a3.991,3.991,0,0,1-.419.315,2.909,2.909,0,0,1-.4.221.844.844,0,0,1-.336.084.314.314,0,0,1-.158-.042.456.456,0,0,1-.126-.1.941.941,0,0,1-.094-.137.162.162,0,0,1-.021-.136,1.275,1.275,0,0,1,.126-.462q.126-.294.336-.682t.5-.861l.619-1q.326-.525.682-1.071t.693-1.081q.336-.535.662-1.04t.577-.944h2.372l.294-.294h-2.456q.336-.567.672-1.113t.693-1.092H1885.9l-.672,1.092-.672,1.092h-1.05l-.315.315h1.176q-.231.355-.441.671t-.43.6q-.221.284-.431.556t-.44.546q-.231.273-.473.546t-.525.588l-.588.651c-.159.175-.33.367-.5.56a.306.306,0,0,0-.053,0,.187.187,0,0,0-.1.052q-.168.21-.367.431t-.42.451q-.22.231-.452.462c-.154.154-.308.3-.462.43s-.3.259-.44.378a3.636,3.636,0,0,1-.41.305,2.252,2.252,0,0,1-.357.189.773.773,0,0,1-.283.063.347.347,0,0,1-.084-.011.408.408,0,0,1-.084-.031.178.178,0,0,1-.074-.084.379.379,0,0,1-.031-.168,1.282,1.282,0,0,1,.094-.441,4.292,4.292,0,0,1,.263-.556q.168-.3.388-.662t.473-.735q.252-.378.514-.776l.525-.8q.263-.4.5-.788c.161-.258.311-.507.451-.745h-1.386l-.965,1.449a1.232,1.232,0,0,0,.063-.725.91.91,0,0,0-.725-.671,2.52,2.52,0,0,0-.493-.053,3.232,3.232,0,0,0-.777.137,5.145,5.145,0,0,0-.745.294,5.913,5.913,0,0,0-.714.409q-.346.231-.661.483t-.588.514q-.273.263-.5.515t-.41.472c-.061.076-.1.127-.146.189a.218.218,0,0,0-.116.042,1.488,1.488,0,0,1-.126.094l-.357.4q-.189.21-.4.431l-.43.451q-.221.231-.431.441t-.419.388a4.089,4.089,0,0,1-.42.315,2.91,2.91,0,0,1-.4.221.844.844,0,0,1-.336.084.315.315,0,0,1-.158-.042.46.46,0,0,1-.126-.1.941.941,0,0,1-.094-.137.163.163,0,0,1-.021-.136,1.275,1.275,0,0,1,.126-.462q.126-.294.336-.682t.5-.861l.619-1q.326-.525.682-1.071t.693-1.081q.336-.535.662-1.04t.577-.944h2.372l.294-.294h-2.456q.336-.567.672-1.113t.693-1.092h-1.344l-.672,1.092-.672,1.092h-1.05l-.315.315h1.176q-.231.355-.441.671t-.43.6c-.147.189-.291.374-.43.556s-.287.364-.441.546-.312.364-.473.546-.336.378-.525.588l-.588.651c-.159.176-.331.368-.5.561a.13.13,0,0,0-.053.026l-.063.063-.787.788q-.388.389-.767.787a1.616,1.616,0,0,1,.074-.273c.035-.1.066-.2.094-.294a2.279,2.279,0,0,0,.063-.283,1.865,1.865,0,0,0,.021-.284q-.021-.336-.073-.661t-.126-.651q-.073-.325-.126-.651t-.073-.661a.87.87,0,0,1,.146-.556.724.724,0,0,1,.378-.242.592.592,0,0,0,.315-.178.559.559,0,0,0,.147-.326.615.615,0,0,0-.021-.147.311.311,0,0,0-.084-.147.644.644,0,0,0-.136-.105.314.314,0,0,0-.158-.042.573.573,0,0,0-.315.1,1.069,1.069,0,0,0-.251.22,1.674,1.674,0,0,0-.189.284c-.056.1-.1.2-.147.283l-.7.787q-.346.389-.7.777t-.7.809q-.346.419-.662.881c-.014.014-.007.032.021.053a.139.139,0,0,0,.084.031.092.092,0,0,0,.074-.042.617.617,0,0,1,.052-.063q.336-.336.651-.692t.619-.714q.3-.357.62-.714t.651-.672q.021.21.052.462a3.623,3.623,0,0,1,.032.441q-.021.336-.063.7a6.232,6.232,0,0,1-.126.724q-.084.357-.2.714a5.779,5.779,0,0,1-.577,1.26,3.876,3.876,0,0,1-.357.493,1.77,1.77,0,0,1-.41.357,1.3,1.3,0,0,1-.43.179.583.583,0,0,1-.115-.011.246.246,0,0,1-.1-.052.474.474,0,0,1-.084-.084.17.17,0,0,1-.032-.105.325.325,0,0,1,.021-.2c.028-.063.056-.129.084-.2s.056-.137.084-.2a.933.933,0,0,0,.063-.2.467.467,0,0,0-.042-.21.362.362,0,0,0-.115-.136.628.628,0,0,0-.168-.084.524.524,0,0,0-.158-.032.39.39,0,0,0-.2.074.888.888,0,0,0-.21.189.921.921,0,0,0-.147.251.438.438,0,0,0-.032.242,1.261,1.261,0,0,0,.116.43,1,1,0,0,0,.273.347,1.187,1.187,0,0,0,.441.22,2.308,2.308,0,0,0,.619.074,2.418,2.418,0,0,0,.588-.074,2.372,2.372,0,0,0,.577-.231,6.5,6.5,0,0,0,1.113-.787q.263-.231.514-.493t.473-.5q.22-.242.42-.483c.1-.121.187-.23.275-.339l.071-.071.882-.923q.441-.462.861-.924a8.6,8.6,0,0,1-.473.861q-.263.42-.514.85t-.451.861a3.651,3.651,0,0,0-.284.913,1.02,1.02,0,0,0,.053.42,1.482,1.482,0,0,0,.231.441,1.184,1.184,0,0,0,.388.336.888.888,0,0,0,.5.105,1.328,1.328,0,0,0,.462-.1,2.477,2.477,0,0,0,.5-.262q.252-.168.514-.378t.514-.452c.168-.16.333-.325.494-.493s.308-.332.441-.493.259-.312.378-.452c.042-.05.065-.083.1-.128a.2.2,0,0,0,.055-.019.692.692,0,0,0,.1-.084.336.336,0,0,0,.136-.126.828.828,0,0,1,.116-.147q-.042.252-.1.515a2.283,2.283,0,0,0-.063.535,6.948,6.948,0,0,0,.084.756,2.512,2.512,0,0,0,.21.682,1.324,1.324,0,0,0,.378.483.9.9,0,0,0,.567.179,1.965,1.965,0,0,0,.787-.168,3.086,3.086,0,0,0,.724-.441,5.811,5.811,0,0,0,.641-.609q.3-.336.556-.651c-.014.14-.031.277-.052.41s-.039.269-.053.409a1.681,1.681,0,0,0,.053.43.844.844,0,0,0,.168.336.688.688,0,0,0,.272.2.988.988,0,0,0,.368.063,1.542,1.542,0,0,0,.535-.105,3.387,3.387,0,0,0,.578-.284,3.978,3.978,0,0,0,.577-.43q.284-.252.556-.5t.515-.514q.242-.263.43-.473t.315-.367c.084-.1.14-.179.168-.221a.06.06,0,0,0,.021-.042l0-.018.865-.9q.441-.462.861-.924a8.6,8.6,0,0,1-.473.861q-.262.42-.514.85t-.452.861a3.644,3.644,0,0,0-.283.913,1.02,1.02,0,0,0,.053.42,1.478,1.478,0,0,0,.23.441,1.2,1.2,0,0,0,.389.336.888.888,0,0,0,.5.105,1.328,1.328,0,0,0,.462-.1,2.483,2.483,0,0,0,.5-.262c.167-.112.339-.238.514-.378s.346-.291.514-.452.333-.325.494-.493.308-.332.441-.493.259-.312.377-.452c.045-.052.069-.087.107-.134a.159.159,0,0,0,.051-.013.327.327,0,0,0,.084-.063.731.731,0,0,0,.157-.168,1.406,1.406,0,0,1,.158-.189c-.042.154-.077.312-.1.473a2.742,2.742,0,0,0-.042.472,2.879,2.879,0,0,0,.136.914,2.32,2.32,0,0,0,.378.713,1.706,1.706,0,0,0,.578.473,1.574,1.574,0,0,0,.713.168,2.243,2.243,0,0,0,.672-.1,3.792,3.792,0,0,0,.683-.294,5.029,5.029,0,0,0,.672-.441q.324-.252.629-.525t.557-.546q.252-.273.451-.493a3.866,3.866,0,0,0,.315-.389,1.221,1.221,0,0,0,.137-.231.069.069,0,0,0-.021-.084Q1891.424,185.682,1891.4,185.682Zm-4.378.2a5.424,5.424,0,0,1,.273-.535q.157-.273.346-.567a5.435,5.435,0,0,1,.41-.557q.221-.263.451-.493a4.216,4.216,0,0,1,.473-.41,2.476,2.476,0,0,1,.483-.283,1.174,1.174,0,0,1,.472-.1.338.338,0,0,1,.147.042.414.414,0,0,1,.136.1.5.5,0,0,1,.084.147.535.535,0,0,1,.032.189,1.2,1.2,0,0,1-.084.43,2.514,2.514,0,0,1-.231.452,3.422,3.422,0,0,1-.357.462,4.627,4.627,0,0,1-.462.441,6.224,6.224,0,0,1-.535.4,4.9,4.9,0,0,1-.588.336,5.6,5.6,0,0,1-.609.252,4.76,4.76,0,0,1-.619.168A4.137,4.137,0,0,1,1887.025,185.882Zm-10.7.42a8.6,8.6,0,0,1-.588.745,7.135,7.135,0,0,1-.651.651,4.881,4.881,0,0,1-.682.5,2.035,2.035,0,0,1-.7.273.3.3,0,0,1-.231-.053.661.661,0,0,1-.179-.189.8.8,0,0,1-.1-.252,1.082,1.082,0,0,1-.031-.241,3.461,3.461,0,0,1,.1-.525,6.776,6.776,0,0,1,.22-.672q.136-.357.336-.756a7.389,7.389,0,0,1,.451-.776q.252-.378.536-.725a4.631,4.631,0,0,1,.609-.619,3.9,3.9,0,0,1,.682-.462,2.424,2.424,0,0,1,.714-.252.623.623,0,0,1,.262.063.691.691,0,0,1,.242.189,1.183,1.183,0,0,1,.168.262.591.591,0,0,1,.063.242,1.625,1.625,0,0,1-.084.462,4.438,4.438,0,0,1-.252.619q-.168.347-.389.735T1876.328,186.3Z"/><path class="b" d="M1924.753,179.174a3.68,3.68,0,0,0,.609-1.018,7.025,7.025,0,0,0,.347-1.166,1.767,1.767,0,0,0-.074-.913,3.213,3.213,0,0,0-.462-.861,4.653,4.653,0,0,0-.693-.745,5.106,5.106,0,0,0-.787-.567,1.149,1.149,0,0,1,.242-.126,2.3,2.3,0,0,0,.241-.1q.126-.063.231-.126a.708.708,0,0,0,.189-.168c.028-.014.031-.031.01-.052a.67.67,0,0,0-.073-.063.237.237,0,0,0-.1-.042.17.17,0,0,0-.1.01,2.428,2.428,0,0,0-.535.242q-.262.157-.515.3a11.7,11.7,0,0,0-2.078-.556,16.436,16.436,0,0,0-2.1-.221,3.7,3.7,0,0,0-.787,0c-.259.028-.515.063-.766.1l-.767.126q-.389.063-.787.105a2.709,2.709,0,0,0-.588-.367,4.547,4.547,0,0,0-.714-.263,6.952,6.952,0,0,0-.777-.168,4.977,4.977,0,0,0-.776-.063,6.148,6.148,0,0,0-1.407.158,5.854,5.854,0,0,0-1.249.441,6.375,6.375,0,0,0-1.071.661,7.793,7.793,0,0,0-1.638,1.7,8.1,8.1,0,0,0-.556.9,7.582,7.582,0,0,0-.378.829q-.147.388-.231.682a.067.067,0,0,0,.042.063.119.119,0,0,0,.084.011l.095-.021a.1.1,0,0,0,.073-.053,8.05,8.05,0,0,1,1.029-2.015,7.873,7.873,0,0,1,1.48-1.6,7.283,7.283,0,0,1,1.785-1.071,6.07,6.07,0,0,1,1.984-.462,3.2,3.2,0,0,1,.629.063,4.766,4.766,0,0,1,.62.168,5.6,5.6,0,0,1,.609.252q.3.147.577.273a10.316,10.316,0,0,0-1.512.494,11.4,11.4,0,0,0-1.4.692,10.388,10.388,0,0,0-1.249.861,11.338,11.338,0,0,0-1.081.987,9.441,9.441,0,0,0-.882,1.06,7.216,7.216,0,0,0-.651,1.1,5.874,5.874,0,0,0-.4,1.112,3.793,3.793,0,0,0-.115,1.061c.014.154.035.311.063.472a3.184,3.184,0,0,0,.115.462,2.976,2.976,0,0,0,.189.441,2.315,2.315,0,0,0,.273.409,2.03,2.03,0,0,0,.357.336,1.814,1.814,0,0,0,.451.241,3.114,3.114,0,0,0,.546.147,2.1,2.1,0,0,0,.63.011,6.06,6.06,0,0,0,1.459-.294,6.471,6.471,0,0,0,1.26-.577,6.325,6.325,0,0,0,1.071-.809,7.576,7.576,0,0,0,.881-.976,7.312,7.312,0,0,0,.683-1.092,10.384,10.384,0,0,0,.5-1.154,9.171,9.171,0,0,0,.336-1.145,6.157,6.157,0,0,0,.147-1.091,2.959,2.959,0,0,0-.042-.7,3.952,3.952,0,0,0-.189-.682,5.09,5.09,0,0,0-.3-.661q-.179-.326-.367-.62.357-.042.714-.1t.713-.1q.357-.042.714-.073a3.477,3.477,0,0,1,.714.01c.308.028.62.06.934.1s.63.084.945.147a7.1,7.1,0,0,1,.9.241,4.649,4.649,0,0,1,.829.378,10.765,10.765,0,0,0-2.236,1.68q-.493.483-.944,1t-.851,1.071q-.4.557-.756,1.133t-.7,1.166q-.347.588-.661,1.165l-.63,1.155q-.315.577-.63,1.123t-.64,1.06q-.326.515-.672.976a11.137,11.137,0,0,1-.725.872,8.731,8.731,0,0,1-.787.756,6,6,0,0,1-.861.608,5,5,0,0,1-.965.431,6.6,6.6,0,0,1-1.082.252,1.14,1.14,0,0,1-.43-.042,1.445,1.445,0,0,1-.42-.2,1.659,1.659,0,0,1-.346-.315,1.106,1.106,0,0,1-.21-.388.319.319,0,0,1,.01-.241,1.892,1.892,0,0,1,.126-.231c.049-.077.1-.154.137-.231a.293.293,0,0,0,.021-.242,2.2,2.2,0,0,0-.126-.325,1.423,1.423,0,0,0-.2-.315,1.172,1.172,0,0,0-.262-.231.424.424,0,0,0-.294-.074.937.937,0,0,0-.4.137,1.662,1.662,0,0,0-.347.283,1.239,1.239,0,0,0-.241.368,1,1,0,0,0-.084.388,1.939,1.939,0,0,0,.1.525,1.964,1.964,0,0,0,.21.42,1.537,1.537,0,0,0,.3.336,2.8,2.8,0,0,0,.378.262,2.9,2.9,0,0,0,.42.2,2.049,2.049,0,0,0,.441.115c.147.021.3.035.452.042s.3.011.44.011a9.31,9.31,0,0,0,1.365-.179,7.075,7.075,0,0,0,1.239-.378,7.559,7.559,0,0,0,1.113-.567,9.108,9.108,0,0,0,1.007-.724,11.744,11.744,0,0,0,.924-.85,12.421,12.421,0,0,0,.84-.955q.4-.5.777-1.05t.735-1.123q.357-.577.692-1.166t.683-1.175q.346-.588.682-1.176t.672-1.165q.336-.578.7-1.113t.746-1.039q.378-.5.8-.966a9.69,9.69,0,0,1,.861-.84,5.328,5.328,0,0,1,.41.462,3.573,3.573,0,0,1,.346.525,2.768,2.768,0,0,1,.231.577,1.458,1.458,0,0,1,.042.6c-.028.195-.066.395-.115.6s-.1.4-.168.6-.137.392-.221.588a3.774,3.774,0,0,1-.294.556,3.7,3.7,0,0,1-.378.494,3.1,3.1,0,0,1-.451.409,2.934,2.934,0,0,1-.546.315,2.8,2.8,0,0,1-.661.2.7.7,0,0,1-.242,0c-.091-.014-.178-.032-.262-.053l-.252-.063a.443.443,0,0,0-.252.011c-.07.014-.147.031-.231.052a1.125,1.125,0,0,0-.231.084.725.725,0,0,0-.189.137.261.261,0,0,0-.084.189.251.251,0,0,0,.032.189.709.709,0,0,0,.136.157.619.619,0,0,0,.2.115.647.647,0,0,0,.221.042.79.79,0,0,0,.378-.052c.126-.049.252-.1.378-.157s.252-.105.378-.147a.7.7,0,0,1,.378-.021,1.489,1.489,0,0,1,.745.335,2.715,2.715,0,0,1,.556.641,2.9,2.9,0,0,1,.347.8,2.179,2.179,0,0,1,.073.808,4.907,4.907,0,0,1-.115.819,6.991,6.991,0,0,1-.242.829,7.01,7.01,0,0,1-.829,1.606,4.662,4.662,0,0,1-.588.693,4.461,4.461,0,0,1-.7.556,3.671,3.671,0,0,1-.819.389,3.372,3.372,0,0,1-.924.168,1.611,1.611,0,0,1-.829-.126,1.917,1.917,0,0,1-.62-.441,1.835,1.835,0,0,1-.377-.619,1.991,1.991,0,0,1-.126-.683,2.8,2.8,0,0,1,.147-.913,3.878,3.878,0,0,1,.409-.84,4.573,4.573,0,0,1,.619-.766,7.239,7.239,0,0,1,.777-.672.063.063,0,0,0,.011-.063.158.158,0,0,0-.042-.074.408.408,0,0,0-.063-.052.038.038,0,0,0-.053,0,5.907,5.907,0,0,0-1.522,1.48,3.67,3.67,0,0,0-.472.913,2.375,2.375,0,0,0-.126.987,2.98,2.98,0,0,0,.157.819,1.975,1.975,0,0,0,.431.714,2.094,2.094,0,0,0,.755.5,3.338,3.338,0,0,0,1.155.21,5.179,5.179,0,0,0,.976-.095,5.04,5.04,0,0,0,.977-.294,6.216,6.216,0,0,0,.934-.483,6.835,6.835,0,0,0,.85-.629,5.692,5.692,0,0,0,.725-.756,6,6,0,0,0,.566-.851,4.672,4.672,0,0,0,.378-.892,3.785,3.785,0,0,0,.158-.934,3.305,3.305,0,0,0-.221-1.228,3.24,3.24,0,0,0-.609-.987,3.371,3.371,0,0,0-.913-.714,4.766,4.766,0,0,0-1.113-.43,5.611,5.611,0,0,0,1.523-.525A3.432,3.432,0,0,0,1924.753,179.174Zm-8.324-3.895a2,2,0,0,1,.042.578,5.117,5.117,0,0,1-.158,1.007,7.468,7.468,0,0,1-.378,1.113,11.666,11.666,0,0,1-.566,1.144,10.457,10.457,0,0,1-.725,1.113,8.986,8.986,0,0,1-.861,1,6.34,6.34,0,0,1-.965.8,5.054,5.054,0,0,1-1.04.536,3.13,3.13,0,0,1-1.1.2,1.949,1.949,0,0,1-.882-.189,1.92,1.92,0,0,1-.63-.493,1.991,1.991,0,0,1-.367-.672,2.4,2.4,0,0,1-.115-.724,4.739,4.739,0,0,1,.147-.956,5.1,5.1,0,0,1,.367-.986,7.315,7.315,0,0,1,.588-.987,7.775,7.775,0,0,1,.808-.966,11.6,11.6,0,0,1,1.008-.913,11.3,11.3,0,0,1,1.2-.84,12.944,12.944,0,0,1,1.385-.735q.735-.336,1.533-.609a5.717,5.717,0,0,1,.315.483,2.836,2.836,0,0,1,.241.535A5.712,5.712,0,0,1,1916.429,175.279Z"/><path class="b" d="M1938.568,179.814a.494.494,0,0,0,.189.147.986.986,0,0,0,.284.074.572.572,0,0,0,.315-.1,1.434,1.434,0,0,0,.272-.231,1.049,1.049,0,0,0,.2-.315.968.968,0,0,0,0-.629.55.55,0,0,0-.137-.189.519.519,0,0,0-.178-.105.623.623,0,0,0-.2-.032.663.663,0,0,0-.347.1,1,1,0,0,0-.273.241,1.444,1.444,0,0,0-.189.315.751.751,0,0,0-.073.294.833.833,0,0,0,.031.22A.593.593,0,0,0,1938.568,179.814Z"/><path class="b" d="M1970.071,185.756a.115.115,0,0,0-.084-.053.121.121,0,0,0-.084.042l-.062.063-.788.788q-.389.389-.766.787a1.6,1.6,0,0,1,.073-.273c.035-.1.067-.2.095-.294a2.279,2.279,0,0,0,.063-.283,1.865,1.865,0,0,0,.021-.284q-.021-.336-.074-.661t-.126-.651q-.073-.325-.126-.651t-.073-.661a.864.864,0,0,1,.147-.556.724.724,0,0,1,.378-.242.592.592,0,0,0,.315-.178.559.559,0,0,0,.147-.326.615.615,0,0,0-.021-.147.311.311,0,0,0-.084-.147.65.65,0,0,0-.137-.105.31.31,0,0,0-.157-.042.573.573,0,0,0-.315.1,1.094,1.094,0,0,0-.252.22,1.66,1.66,0,0,0-.189.284c-.056.1-.105.2-.147.283l-.7.787q-.346.389-.7.777t-.7.809c-.148.179-.284.373-.423.564-.01-.005-.016-.019-.028-.019a.14.14,0,0,0-.084.032.619.619,0,0,0-.063.052q-.21.21-.389.378a2.535,2.535,0,0,1-.357.284,2.67,2.67,0,0,1-.367.2,1.322,1.322,0,0,1-.42.1.406.406,0,0,1-.2-.052.7.7,0,0,1-.178-.147.519.519,0,0,1-.115-.21.843.843,0,0,1-.032-.221,1.578,1.578,0,0,1,.137-.672,2.5,2.5,0,0,1,.346-.545,3.032,3.032,0,0,1,.483-.462q.273-.21.588-.42a4.431,4.431,0,0,0,.378-.294,3.608,3.608,0,0,0,.283-.273,1.262,1.262,0,0,0,.179-.242.424.424,0,0,0,.063-.157.311.311,0,0,0-.042-.157.361.361,0,0,0-.126-.126.944.944,0,0,0-.168-.084.477.477,0,0,0-.168-.032,1.408,1.408,0,0,0-.63.179,1.724,1.724,0,0,0-.483.419,2.977,2.977,0,0,0-.368.6,6.594,6.594,0,0,0-.283.714q-.462.4-.913.829l-.914.871q.21-.357.389-.693t.315-.65a4.2,4.2,0,0,0,.22-.651,3.752,3.752,0,0,0,.1-.693.932.932,0,0,0-.073-.378.909.909,0,0,0-.189-.283.951.951,0,0,0-.273-.189.721.721,0,0,0-.305-.074,1.534,1.534,0,0,0-.4.1,2.725,2.725,0,0,0-.44.231,4.725,4.725,0,0,0-.483.357q-.252.21-.5.451t-.5.5q-.252.263-.493.546c-.161.189-.315.375-.462.556-.081.1-.143.2-.213.3l-.008-.006a.184.184,0,0,0-.136.053l-.095.094q-.189.231-.409.462l-.441.462q-.22.231-.462.452t-.483.419a5.991,5.991,0,0,1-.493.368q-.252.168-.483.294a2.146,2.146,0,0,1-.462.189,1.677,1.677,0,0,1-.441.063.959.959,0,0,1-.3-.053.721.721,0,0,1-.284-.178.923.923,0,0,1-.2-.305,1.192,1.192,0,0,1-.074-.451,1.413,1.413,0,0,1,.021-.42q.042-.21.084-.462.336-.063.7-.168t.734-.241q.367-.136.714-.294t.672-.347a4.149,4.149,0,0,0,.588-.409,3.6,3.6,0,0,0,.462-.462,2.152,2.152,0,0,0,.315-.5,1.363,1.363,0,0,0,.115-.556,1.034,1.034,0,0,0-.073-.378.866.866,0,0,0-.221-.325,1.1,1.1,0,0,0-.378-.221,1.523,1.523,0,0,0-.524-.084,2.584,2.584,0,0,0-.8.084,4.026,4.026,0,0,0-.777.294,6.3,6.3,0,0,0-.745.441,7.646,7.646,0,0,0-.683.525q-.315.273-.6.556t-.5.536a5.5,5.5,0,0,0-.367.461c-.033.047-.06.085-.087.126a.286.286,0,0,0-.071.021.642.642,0,0,0-.136.1c-.084.1-.179.207-.284.326s-.22.248-.346.388-.256.28-.389.42-.269.277-.409.41-.28.258-.42.377-.273.228-.4.326a2.527,2.527,0,0,1-.367.241,1.723,1.723,0,0,1-.326.137.219.219,0,0,1-.115-.032.356.356,0,0,1-.095-.084.544.544,0,0,1-.073-.126.394.394,0,0,1-.032-.157,1.471,1.471,0,0,1,.179-.619q.2-.452.556-1.113t.83-1.5q.471-.84,1.007-1.764t1.124-1.911q.586-.985,1.154-1.963l1.092-1.879q.525-.9.945-1.679h-1.344l-4.766,8.4.042-.252a1.41,1.41,0,0,0,.021-.231.8.8,0,0,0-.136-.378,1.091,1.091,0,0,0-.284-.283,1.373,1.373,0,0,0-.367-.179,1.29,1.29,0,0,0-.389-.063,3.131,3.131,0,0,0-1.123.242,6.466,6.466,0,0,0-1.259.671,9.759,9.759,0,0,0-1.271,1.029,8.836,8.836,0,0,0-1,1.147.407.407,0,0,0-.108.018.2.2,0,0,0-.1.084q-.189.189-.41.42t-.451.462q-.231.231-.483.452t-.483.43q-.231.21-.451.378c-.147.112-.284.21-.41.294a3.2,3.2,0,0,1-.336.2.587.587,0,0,1-.252.074.43.43,0,0,1-.147-.032.676.676,0,0,1-.157-.084.4.4,0,0,1-.116-.126.276.276,0,0,1-.042-.136,1.489,1.489,0,0,1,.189-.63,12.606,12.606,0,0,1,.6-1.123q.389-.661.9-1.5t1.112-1.774q.6-.935,1.25-1.922t1.28-1.973q.63-.987,1.207-1.911t1.061-1.721h-1.281q-.882,1.449-1.722,2.792t-1.711,2.6q-.872,1.258-1.816,2.445-.915,1.15-1.992,2.271a.218.218,0,0,0-.086.028.374.374,0,0,0-.1.105,9.788,9.788,0,0,0-.735.777q-.357.42-.735.809a5.862,5.862,0,0,1-.808.692,2.742,2.742,0,0,1-.977.431.216.216,0,0,1-.167-.021.374.374,0,0,1-.1-.1.716.716,0,0,1-.074-.147,1.525,1.525,0,0,1-.052-.168.486.486,0,0,1,.063-.263q.084-.2.241-.493t.388-.661q.231-.368.494-.767t.546-.839q.283-.441.556-.872t.535-.829q.262-.4.452-.735h-1.428q-.378.4-.766.8t-.767.808q-.376.409-.734.83c-.165.193-.313.4-.465.609a.406.406,0,0,0-.123.02.2.2,0,0,0-.1.084q-.168.21-.368.431l-.419.462q-.22.241-.452.462l-.451.43q-.22.21-.441.388t-.4.3a1.833,1.833,0,0,1-.326.189.383.383,0,0,1-.23.042.28.28,0,0,1-.137-.042.459.459,0,0,1-.126-.105.391.391,0,0,1-.073-.126.194.194,0,0,1,0-.126,2.26,2.26,0,0,1,.157-.441q.116-.252.284-.556c.111-.2.241-.424.388-.662s.3-.483.462-.735.325-.51.493-.776.336-.529.5-.788.329-.514.483-.766.3-.49.441-.714h-1.449a5.738,5.738,0,0,1-.283.577q-.2.367-.494.819t-.64.956q-.346.5-.745,1t-.809.945a10.671,10.671,0,0,1-.8.8,4.07,4.07,0,0,1-.756.546,1.448,1.448,0,0,1-.683.2.276.276,0,0,1-.136-.042.458.458,0,0,1-.126-.105,1.494,1.494,0,0,1-.095-.126.226.226,0,0,1-.042-.126,1.754,1.754,0,0,1,.126-.368c.07-.161.161-.342.273-.545s.238-.424.378-.662.294-.486.462-.745.34-.525.515-.8.35-.542.524-.808.34-.529.494-.788.3-.5.441-.724h-1.365q-.735.819-1.47,1.627t-1.427,1.648c-.014.014-.007.032.021.053a.125.125,0,0,0,.063.031.367.367,0,0,0,.1-.052.8.8,0,0,0,.084-.074q.441-.462.86-.923l.861-.945a7.461,7.461,0,0,1-.483.861q-.273.42-.524.839a8.43,8.43,0,0,0-.452.861,2.818,2.818,0,0,0-.241.924,1.089,1.089,0,0,0,.052.441,1.35,1.35,0,0,0,.231.43,1.037,1.037,0,0,0,.389.3,1.2,1.2,0,0,0,.5.105,1.78,1.78,0,0,0,.672-.2,4.116,4.116,0,0,0,.725-.472q.367-.294.734-.651t.683-.714l-.042.336a2.54,2.54,0,0,0-.021.315,1.353,1.353,0,0,0,.042.462,1.688,1.688,0,0,0,.189.462,1.088,1.088,0,0,0,.3.336.694.694,0,0,0,.41.126,1.207,1.207,0,0,0,.461-.105,2.874,2.874,0,0,0,.525-.294,5.894,5.894,0,0,0,.557-.441c.189-.168.374-.34.556-.514s.353-.35.514-.525.305-.34.431-.494.227-.287.3-.4l.009-.013c.012-.008.021-.006.033-.018l.095-.1q.462-.462.861-.934a12.274,12.274,0,0,1,.9-.955q-.252.42-.546.871t-.566.892a6.663,6.663,0,0,0-.462.882,2.134,2.134,0,0,0-.189.84,1.46,1.46,0,0,0,.105.567,1.518,1.518,0,0,0,.252.42.923.923,0,0,0,.357.252,1.122,1.122,0,0,0,.419.084,1.16,1.16,0,0,0,.378-.074,2.493,2.493,0,0,0,.441-.21,5.31,5.31,0,0,0,.483-.325q.252-.189.5-.41t.5-.472q.252-.252.483-.5t.441-.514c.083-.1.16-.2.239-.3a.209.209,0,0,0,.013.033q.021.042.042.042a.149.149,0,0,0,.115-.063c.035-.042.067-.077.1-.1q.441-.462.829-.944t.808-.945q-.21.42-.493.882t-.546.923a8.1,8.1,0,0,0-.441.893,2.072,2.072,0,0,0-.178.787,2.123,2.123,0,0,0,.052.451,1.14,1.14,0,0,0,.189.431,1.009,1.009,0,0,0,.357.3,1.191,1.191,0,0,0,.556.116,1.21,1.21,0,0,0,.4-.074,1.736,1.736,0,0,0,.431-.231q.22-.157.451-.357t.472-.43q.242-.231.483-.483l.473-.493.462-.483c.086-.09.172-.162.259-.242a.16.16,0,0,0,.108,0,.649.649,0,0,0,.116-.063.406.406,0,0,0,.115-.126.825.825,0,0,1,.115-.147q-.021.252-.063.525t-.063.525a4.425,4.425,0,0,0,.053.662,2.506,2.506,0,0,0,.189.65,1.423,1.423,0,0,0,.367.5.958.958,0,0,0,.588.221,1.981,1.981,0,0,0,.788-.158,2.987,2.987,0,0,0,.7-.43,6.424,6.424,0,0,0,.64-.6q.3-.324.578-.64-.021.105-.042.231l-.042.252c-.014.084-.025.154-.032.21a1.091,1.091,0,0,0-.01.126,2.454,2.454,0,0,0,.115.514.975.975,0,0,0,.189.326.568.568,0,0,0,.262.168,2.089,2.089,0,0,0,.315.063,1.33,1.33,0,0,0,.378-.063,2.241,2.241,0,0,0,.452-.2,5.493,5.493,0,0,0,.5-.325,6.694,6.694,0,0,0,.524-.42q.263-.231.515-.483t.493-.514q.242-.263.452-.525c.079-.1.143-.187.213-.279.006,0,.012,0,.018-.005a.329.329,0,0,0,.084-.063.728.728,0,0,0,.157-.168,1.416,1.416,0,0,1,.158-.189c-.042.154-.077.312-.1.473a2.742,2.742,0,0,0-.042.472,2.879,2.879,0,0,0,.136.914,2.32,2.32,0,0,0,.378.713,1.7,1.7,0,0,0,.577.473,1.575,1.575,0,0,0,.714.168,2.243,2.243,0,0,0,.672-.1,3.784,3.784,0,0,0,.682-.294,5.044,5.044,0,0,0,.672-.441q.326-.252.63-.525t.556-.546q.252-.273.452-.493a4.088,4.088,0,0,0,.283-.347h0a.385.385,0,0,0,.095-.073l.094-.1a5.082,5.082,0,0,0,.389-.388q.2-.22.4-.451t.419-.473l.431-.472q.21-.231.43-.431a4.437,4.437,0,0,1,.431-.346,2.579,2.579,0,0,1,.42-.241,1.325,1.325,0,0,1,.4-.116.134.134,0,0,1,.116.011.48.48,0,0,1,.094.073.279.279,0,0,1,.063.1.3.3,0,0,1,.021.115.816.816,0,0,1-.1.294q-.1.21-.283.5c-.119.2-.256.416-.409.661s-.322.5-.5.766l-.567.83q-.294.431-.578.85t-.545.819q-.262.4-.494.735h1.428q.357-.462.745-.956t.8-.965q.409-.473.84-.9a11,11,0,0,1,.871-.787,4.8,4.8,0,0,0-.178.5,2.582,2.582,0,0,0-.095.525.711.711,0,0,0,.042.347.692.692,0,0,0,.2.273,1.022,1.022,0,0,0,.3.178.763.763,0,0,0,.357.042.889.889,0,0,0,.262-.042,1.518,1.518,0,0,0,.273-.115c.091-.049.186-.1.284-.158a2.619,2.619,0,0,0,.273-.178c.084-.063.164-.13.241-.2a1.611,1.611,0,0,0,.189-.2l.022-.029c.014-.007.029-.008.041-.024a.6.6,0,0,1,.053-.063q.336-.336.65-.692t.62-.714q.3-.357.619-.714t.651-.672c.014.14.031.294.052.462a3.626,3.626,0,0,1,.032.441q-.021.336-.063.7a6.206,6.206,0,0,1-.126.724q-.084.357-.2.714a5.859,5.859,0,0,1-.263.672,5.8,5.8,0,0,1-.315.588,3.876,3.876,0,0,1-.357.493,1.766,1.766,0,0,1-.409.357,1.315,1.315,0,0,1-.431.179.583.583,0,0,1-.115-.011.246.246,0,0,1-.1-.052.474.474,0,0,1-.084-.084.17.17,0,0,1-.031-.105.325.325,0,0,1,.021-.2c.028-.063.056-.129.084-.2s.055-.137.083-.2a.947.947,0,0,0,.063-.2.468.468,0,0,0-.042-.21.363.363,0,0,0-.115-.136.628.628,0,0,0-.168-.084.518.518,0,0,0-.157-.032.393.393,0,0,0-.2.074.886.886,0,0,0-.21.189.921.921,0,0,0-.147.251.437.437,0,0,0-.031.242,1.26,1.26,0,0,0,.115.43,1,1,0,0,0,.273.347,1.187,1.187,0,0,0,.441.22,2.308,2.308,0,0,0,.619.074,2.418,2.418,0,0,0,.588-.074,2.378,2.378,0,0,0,.578-.231,6.169,6.169,0,0,0,.566-.357,6.4,6.4,0,0,0,.546-.43q.263-.231.515-.493t.472-.5q.22-.242.42-.483t.367-.452C1970.106,185.815,1970.1,185.791,1970.071,185.756Zm-6.151-1.869a3.351,3.351,0,0,1,.294-.43,2.491,2.491,0,0,1,.357-.367.558.558,0,0,1,.336-.158.55.55,0,0,1,.084.053.09.09,0,0,1,.042.073.954.954,0,0,1-.21.367,2.281,2.281,0,0,1-.378.357c-.14.1-.277.2-.41.284a1.208,1.208,0,0,1-.283.147A3,3,0,0,1,1963.92,183.887Zm-10.193,2a5.4,5.4,0,0,1,.273-.535q.157-.273.346-.567a5.6,5.6,0,0,1,.409-.557q.22-.263.452-.493a4.2,4.2,0,0,1,.472-.41,2.476,2.476,0,0,1,.483-.283,1.182,1.182,0,0,1,.473-.1.338.338,0,0,1,.147.042.425.425,0,0,1,.136.1.5.5,0,0,1,.084.147.535.535,0,0,1,.031.189,1.2,1.2,0,0,1-.084.43,2.506,2.506,0,0,1-.23.452,3.432,3.432,0,0,1-.357.462,4.627,4.627,0,0,1-.462.441,6.259,6.259,0,0,1-.536.4,4.9,4.9,0,0,1-.588.336,5.51,5.51,0,0,1-.608.252,4.771,4.771,0,0,1-.62.168A4.162,4.162,0,0,1,1953.727,185.882Zm-5.564-.021q-.262.41-.556.787a8.742,8.742,0,0,1-.62.714,5.361,5.361,0,0,1-.651.577,3.947,3.947,0,0,1-.629.389,1.128,1.128,0,0,1-.578.126.341.341,0,0,1-.21-.063.543.543,0,0,1-.136-.147.451.451,0,0,1-.063-.2,2.056,2.056,0,0,0-.032-.22,1.828,1.828,0,0,1,.053-.556,4.994,4.994,0,0,1,.22-.7,8.385,8.385,0,0,1,.357-.787,8.66,8.66,0,0,1,.473-.808,7.475,7.475,0,0,1,.556-.746,5.167,5.167,0,0,1,.619-.619,3.128,3.128,0,0,1,.651-.43,1.766,1.766,0,0,1,.661-.179.774.774,0,0,1,.326.063.7.7,0,0,1,.231.168.539.539,0,0,1,.126.231,1.125,1.125,0,0,1,.031.273,1.525,1.525,0,0,1-.094.6,7.271,7.271,0,0,1-.294.735A6.557,6.557,0,0,1,1948.163,185.861Z"/><path class="b" d="M1902.562,183.8q-.395.519-.83,1.048t-.861,1.081q-.231-.5-.451-1.007t-.441-1.019q-.22-.515-.42-1.049t-.388-1.1q.315-.1.651-.231t.671-.283c.224-.105.448-.221.672-.346s.438-.259.641-.4a6.1,6.1,0,0,0,.567-.441,2.506,2.506,0,0,0,.44-.5,2.349,2.349,0,0,0,.273-.567,1.622,1.622,0,0,0,.074-.609,1.648,1.648,0,0,0-.189-.693,2.146,2.146,0,0,0-.41-.546,1.954,1.954,0,0,0-.535-.367,1.43,1.43,0,0,0-.609-.136,2.478,2.478,0,0,0-.546.062,2.083,2.083,0,0,0-.525.2,3.58,3.58,0,0,0-.493.325,2.631,2.631,0,0,0-.441.441,3.967,3.967,0,0,0-.357.536,2.927,2.927,0,0,0-.252.609,5.159,5.159,0,0,0-.147.671,2.631,2.631,0,0,0-.01.7q.021.336.042.661t.063.661a10.085,10.085,0,0,0-2.037.683,6.931,6.931,0,0,0-1.595,1.007,4.4,4.4,0,0,0-1.05,1.3,3.374,3.374,0,0,0-.378,1.585,4.124,4.124,0,0,0,.063.756,2.306,2.306,0,0,0,.2.609,2.4,2.4,0,0,0,.315.483,2.066,2.066,0,0,0,.389.357,2.571,2.571,0,0,0,.451.252,3.039,3.039,0,0,0,.5.168,4.587,4.587,0,0,0,.525.094c.175.021.346.039.514.053a3.87,3.87,0,0,0,1.176-.137,4.229,4.229,0,0,0,1.081-.472,6.591,6.591,0,0,0,.987-.745,8.928,8.928,0,0,0,.871-.914,7.468,7.468,0,0,1,.273.935c.039.172.083.349.127.524h0a2.755,2.755,0,0,1,.035.415,6.417,6.417,0,0,1-.45,1.811,6.04,6.04,0,0,1-2.491,2.914,4.965,4.965,0,0,1-1.8.66,3.5,3.5,0,0,1-1.85-.143,2.071,2.071,0,0,1-1.123-1.4,6.106,6.106,0,0,1-.207-2.012,5.31,5.31,0,0,0-.136,2.091,2.417,2.417,0,0,0,1.217,1.823,4.656,4.656,0,0,0,4.259-.4,6.073,6.073,0,0,0,2.649-3.338,5.264,5.264,0,0,0-.238-4.083c0-.016-.01-.032-.014-.048q.441-.588.9-1.154t.882-1.134a.285.285,0,0,0,.03-.075l.016.01a1.761,1.761,0,0,1,1.777-.843l.067-.33A2.117,2.117,0,0,0,1902.562,183.8ZM1899,179.384a3,3,0,0,1,.189-.63,4,4,0,0,1,.283-.546,3.281,3.281,0,0,1,.336-.451,3.017,3.017,0,0,1,.378-.357,2.609,2.609,0,0,1,.4-.263,1.535,1.535,0,0,1,.4-.147,1.111,1.111,0,0,1,.367-.021,1.918,1.918,0,0,1,.462.063,1.506,1.506,0,0,1,.473.21,1.188,1.188,0,0,1,.367.4,1.234,1.234,0,0,1,.147.63,1.987,1.987,0,0,1-.315,1.071,3.4,3.4,0,0,1-.84.9,5.931,5.931,0,0,1-1.186.693,7.825,7.825,0,0,1-1.375.461c-.014-.1-.032-.2-.053-.315s-.038-.227-.052-.346-.028-.234-.042-.346a2.564,2.564,0,0,1-.021-.315A5.523,5.523,0,0,1,1899,179.384Zm.808,7.821a7.063,7.063,0,0,1-.945.724,5.1,5.1,0,0,1-1.018.5,3.6,3.6,0,0,1-1.092.21,1.323,1.323,0,0,1-.745-.179,2.312,2.312,0,0,1-.619-.525,2.451,2.451,0,0,1-.42-.713,1.862,1.862,0,0,1-.126-.767,4.3,4.3,0,0,1,.262-1.385,4.178,4.178,0,0,1,.725-1.229,5.621,5.621,0,0,1,1.228-1.07,8.407,8.407,0,0,1,1.795-.872l.441,1.145q.231.6.462,1.186t.462,1.133q.23.546.44.987Q1900.262,186.795,1899.811,187.205Z"/></g><g transform="translate(380.95 835.204)"><path d="M1866.423,159.3l-.955-1.638h-1.151V159.3h-.409v-4.094h1.638a1.227,1.227,0,0,1,.979,1.968,1.2,1.2,0,0,1-.635.436l1,1.69Zm-2.106-3.708v1.684h1.229a.774.774,0,0,0,.579-.248.861.861,0,0,0,0-1.191.782.782,0,0,0-.579-.245Z"/><path d="M1865.4,160.714a3.459,3.459,0,1,1,3.459-3.459A3.463,3.463,0,0,1,1865.4,160.714Zm0-6.535a3.076,3.076,0,1,0,3.076,3.076A3.08,3.08,0,0,0,1865.4,154.179Z"/></g></g></svg>