<svg xmlns="http://www.w3.org/2000/svg" width="306" height="216" viewBox="0 0 306 216"><defs><style>.a{fill:#f7f7f7;}.b{fill:#2c313d;}.c{fill:#3571b7;}.d{fill:#318270;}.e{fill:#be1e2d;}.f{fill:#d0cfc3;}.g{fill:#231f20;}</style></defs><g transform="translate(-3065 -650)"><rect class="a" width="306" height="216" transform="translate(3065 650)"/><g transform="translate(1520.473 105.093)"><path class="b" d="M1651.82,647.592l28.294-32.71h24.205l-40.56,50.863Z"/><path class="c" d="M1650.7,645.653l19.576-23.74-33.337-.652-14,16.784,4.4-.18,8.993-10.831Z"/><rect class="d" width="2.574" height="2.574" transform="translate(1633.146 632.623)"/><rect class="d" width="2.574" height="2.574" transform="translate(1636.649 632.623)"/><rect class="d" width="2.574" height="2.574" transform="translate(1633.146 635.698)"/><rect class="d" width="2.574" height="2.574" transform="translate(1636.649 635.698)"/><rect class="b" width="2.42" height="2.42" transform="translate(1703.68 626.549)"/><rect class="b" width="2.42" height="2.42" transform="translate(1706.975 626.549)"/><rect class="b" width="2.42" height="2.42" transform="translate(1703.68 629.441)"/><rect class="b" width="2.42" height="2.42" transform="translate(1706.975 629.441)"/><path class="e" d="M1664.661,666.565l42.607-52.657,12.144,16.959-3.3,2.263-9.054-12.567-38.628,48.41Z"/></g><g transform="translate(1520.473 105.093)"><path class="b" d="M1706.1,637.427a5.833,5.833,0,0,0-5.831,5.821v9.928h11.661v-9.928A5.833,5.833,0,0,0,1706.1,637.427Zm5.3,15.23h-10.6v-9.409a5.3,5.3,0,0,1,10.6,0Z"/><path class="f" d="M1711.4,643.251a5.3,5.3,0,0,0-4.979-5.285v14.688h4.979Z"/><path class="f" d="M1700.8,643.251v9.4h4.979V637.966A5.3,5.3,0,0,0,1700.8,643.251Z"/><circle class="b" cx="1.203" cy="1.203" r="1.203" transform="translate(1704.898 644.107)"/><rect class="b" width="0.646" height="14.688" transform="translate(1705.777 637.966)"/></g><g transform="translate(1520.473 105.093)"><path class="g" d="M1682.564,663.694c0-3.5,2.059-5.375,5.051-5.375s5.05,1.879,5.05,5.375c0,3.578-2.059,5.471-5.05,5.471S1682.564,667.272,1682.564,663.694Zm7.187,0c0-2.174-.826-3.33-2.136-3.33s-2.137,1.156-2.137,3.33c0,2.257.827,3.426,2.137,3.426S1689.751,665.951,1689.751,663.694Z"/><path class="g" d="M1694.246,658.511h2.913l2.642,5.2,1.075,2.3h.067a34.778,34.778,0,0,1-.393-3.8v-3.7h2.71v10.461h-2.913l-2.642-5.212-1.076-2.287h-.066a36.149,36.149,0,0,1,.393,3.788v3.711h-2.71Z"/><path class="g" d="M1705.889,658.511h8.325V660.5h-5.482v2.1h4.657v1.986h-4.657v2.407h5.675v1.985h-8.518Z"/><path class="g" d="M1727.743,658.511h3.469c3.644,0,6.039,1.589,6.039,5.183s-2.4,5.278-5.878,5.278h-3.63Zm3.311,8.554c1.954,0,3.283-.869,3.283-3.371s-1.329-3.275-3.283-3.275h-.47v6.646Z"/><path class="g" d="M1738.253,663.694c0-3.5,2.06-5.375,5.052-5.375s5.051,1.879,5.051,5.375c0,3.578-2.06,5.471-5.051,5.471S1738.253,667.272,1738.253,663.694Zm7.189,0c0-2.174-.827-3.33-2.137-3.33s-2.138,1.156-2.138,3.33c0,2.257.828,3.426,2.138,3.426S1745.442,665.951,1745.442,663.694Z"/><path class="g" d="M1749.392,663.694c0-3.5,2.06-5.375,5.051-5.375s5.051,1.879,5.051,5.375c0,3.578-2.06,5.471-5.051,5.471S1749.392,667.272,1749.392,663.694Zm7.188,0c0-2.174-.827-3.33-2.137-3.33s-2.137,1.156-2.137,3.33c0,2.257.827,3.426,2.137,3.426S1756.58,665.951,1756.58,663.694Z"/><path class="g" d="M1761.137,658.511h4.465c2.66,0,4.85.771,4.85,3.26,0,2.4-2.19,3.439-4.85,3.439h-1.617v3.762h-2.848Zm4.234,4.819c1.493,0,2.294-.535,2.294-1.559s-.8-1.381-2.294-1.381h-1.386v2.94Zm1.676-.262,4.007,5.9h-3.18l-2.794-4.386Z"/></g><g transform="translate(1520.473 105.093)"><path class="g" d="M1625.839,686.309h-.212c-1.965-.08-2.64-.5-3.334-1.605a21.564,21.564,0,0,1-1.33-2.391,1.117,1.117,0,0,0-1.272-.755h-.809l-.559,2.52c-.308,1.445-.193,1.525,1.387,1.654l-.115.449h-5.068l.135-.449c1.522-.129,1.637-.209,1.984-1.638l1.5-6.533c.307-1.349.23-1.4-1.35-1.526l.135-.449h4.355a5.876,5.876,0,0,1,2.815.514,2.156,2.156,0,0,1,1.214,2.022c0,1.622-1.485,2.633-3.065,3.082.212.45.733,1.446,1.176,2.184a11.3,11.3,0,0,0,1.234,1.718,2.291,2.291,0,0,0,1.33.786Zm-5.936-5.3a4.365,4.365,0,0,0,2.082-.4,2.729,2.729,0,0,0,1.483-2.376,2.012,2.012,0,0,0-2.293-2.119,1.828,1.828,0,0,0-.886.177c-.173.08-.27.288-.367.722l-.905,4Z"/><path class="g" d="M1633.046,684.495a6.261,6.261,0,0,1-4.2,1.878,2.107,2.107,0,0,1-2.217-2.407,5.111,5.111,0,0,1,2.352-4.19,5.874,5.874,0,0,1,2.794-.931c1.06,0,1.754.626,1.754,1.316,0,1.638-3.315,2.5-5.184,2.89a2.5,2.5,0,0,0-.039.514c0,.866.328,1.8,1.523,1.8a4.951,4.951,0,0,0,2.872-1.237Zm-2.813-4.783a3.724,3.724,0,0,0-1.812,2.841c2.737-.626,3.565-1.364,3.584-2.119a.9.9,0,0,0-.982-.9A1.869,1.869,0,0,0,1630.233,679.712Z"/><path class="g" d="M1642.469,684.655a5.745,5.745,0,0,1-2.948,1.718c-.386,0-.675-.224-.366-1.476l.366-1.509h-.039a12,12,0,0,1-2.505,2.231,3.593,3.593,0,0,1-1.87.754c-.539,0-1.156-.546-1.156-1.861a5.562,5.562,0,0,1,2.332-4.4,7.178,7.178,0,0,1,3.719-1.268,6.579,6.579,0,0,1,1.253.129,4.918,4.918,0,0,0,.79.1l.058.08c-.309,1.011-.905,3.194-1.349,5.249-.116.562-.058.707.038.707a4.321,4.321,0,0,0,1.426-.868Zm-2.679-2.519c.212-.626.521-1.83.636-2.328a3.884,3.884,0,0,0-1.291-.225,2.7,2.7,0,0,0-1.368.321,5.31,5.31,0,0,0-2.1,4.319c0,.738.25,1.058.521,1.058C1636.957,685.281,1639.173,683.211,1639.79,682.136Z"/><path class="g" d="M1646.863,684.64a6.112,6.112,0,0,1-3.084,1.733c-.405,0-.713-.369-.309-1.99.655-2.648,1.35-5.313,2.005-7.962.212-.738.115-.835-.79-.85l-.56-.017.078-.4a24.828,24.828,0,0,0,3.006-.578c.193,0,.212.145.116.5q-1.185,4.72-2.39,9.488c-.115.466-.058.578.058.578a4.246,4.246,0,0,0,1.561-.884Z"/><path class="g" d="M1662.085,675.586c-.038.321-.231,1.558-.366,2.536l-.578.032a3.076,3.076,0,0,0-.269-1.476c-.232-.354-.482-.529-1.909-.529h-1.5c-.693,0-.732.063-.886.673l-.79,3.516h1.85c1.657,0,1.792-.144,2.274-1.2h.559l-.732,3.13h-.578c.038-1.172.018-1.284-1.7-1.284h-1.811l-.655,2.841c-.212.916-.193,1.348.077,1.542a4.3,4.3,0,0,0,1.985.24,3.848,3.848,0,0,0,2.582-.546,8.664,8.664,0,0,0,1.33-1.572l.559.16c-.212.466-.945,2.022-1.234,2.536h-9.308l.135-.449c1.581-.129,1.753-.209,2.062-1.526l1.542-6.661c.289-1.3.212-1.381-1.427-1.51l.135-.449Z"/><path class="g" d="M1661.93,685.169a.9.9,0,0,1,.617-.706.4.4,0,0,1,.5.032,2.6,2.6,0,0,0,1.947,1.044c.751,0,1.233-.45,1.233-.931,0-.4-.212-.754-1.156-1.365-.887-.53-1.754-1.139-1.754-2.006a1.969,1.969,0,0,1,1.041-1.589,4.381,4.381,0,0,1,2.235-.8c.867,0,1.542.514,1.561.947a.868.868,0,0,1-.521.706.348.348,0,0,1-.462-.064,1.972,1.972,0,0,0-1.561-.771.938.938,0,0,0-1.022.883c0,.563.578.98,1.311,1.429,1.176.722,1.658,1.2,1.658,1.927,0,1.252-1.985,2.471-3.585,2.471C1663.029,686.373,1661.95,685.779,1661.93,685.169Z"/><path class="g" d="M1673.974,679.728l-1.965.08-1.118,4.4c-.212.8-.1.995.1.995a4.409,4.409,0,0,0,1.772-.947l.289.37a6.014,6.014,0,0,1-3.218,1.749c-.5,0-.886-.481-.462-2.182l1.136-4.383h-1.445l-.058-.145.482-.513h1.195l.463-1.557,1.561-1.027.192.112-.713,2.472h2.313Z"/><path class="g" d="M1682.531,684.655a5.743,5.743,0,0,1-2.949,1.718c-.385,0-.674-.224-.366-1.476l.366-1.509h-.039a11.973,11.973,0,0,1-2.5,2.231,3.6,3.6,0,0,1-1.871.754c-.539,0-1.156-.546-1.156-1.861a5.561,5.561,0,0,1,2.332-4.4,7.178,7.178,0,0,1,3.72-1.268,6.58,6.58,0,0,1,1.253.129,4.892,4.892,0,0,0,.79.1l.058.08c-.309,1.011-.907,3.194-1.349,5.249-.116.562-.059.707.038.707a4.321,4.321,0,0,0,1.426-.868Zm-2.679-2.519c.212-.626.521-1.83.636-2.328a3.884,3.884,0,0,0-1.291-.225,2.7,2.7,0,0,0-1.368.321,5.309,5.309,0,0,0-2.1,4.319c0,.738.25,1.058.52,1.058C1677.019,685.281,1679.235,683.211,1679.852,682.136Z"/><path class="g" d="M1688.311,679.728l-1.965.08-1.118,4.4c-.212.8-.1.995.1.995a4.409,4.409,0,0,0,1.772-.947l.289.37a6.018,6.018,0,0,1-3.218,1.749c-.5,0-.886-.481-.462-2.182l1.136-4.383H1683.4l-.058-.145.482-.513h1.195l.463-1.557,1.561-1.027.192.112-.713,2.472h2.312Z"/><path class="g" d="M1694.844,684.495a6.263,6.263,0,0,1-4.2,1.878,2.107,2.107,0,0,1-2.217-2.407,5.111,5.111,0,0,1,2.352-4.19,5.871,5.871,0,0,1,2.794-.931c1.06,0,1.754.626,1.754,1.316,0,1.638-3.315,2.5-5.184,2.89a2.5,2.5,0,0,0-.039.514c0,.866.328,1.8,1.522,1.8a4.951,4.951,0,0,0,2.873-1.237Zm-2.813-4.783a3.724,3.724,0,0,0-1.812,2.841c2.737-.626,3.565-1.364,3.584-2.119a.9.9,0,0,0-.982-.9A1.869,1.869,0,0,0,1692.031,679.712Z"/><path class="g" d="M1726.29,675.586c2.2,0,3.739.578,3.739,2.248,0,1.492-1.464,2.263-3.218,2.569v.031c1.561.257,2.91,1.044,2.91,2.537a3.045,3.045,0,0,1-2.274,2.648,11.138,11.138,0,0,1-4.029.562h-4.258l.134-.449c1.5-.129,1.677-.209,1.986-1.526l1.58-6.773c.269-1.189.192-1.284-1.406-1.4l.134-.449Zm-3.314,8.572c-.27,1.2.23,1.445,1.522,1.445,1.85,0,3.257-1.043,3.257-2.713,0-1.637-1.426-2.151-3.084-2.151h-.924Zm1.869-3.981c2.158,0,3.334-.9,3.334-2.327,0-1.349-1.195-1.734-2.312-1.734a2,2,0,0,0-.887.161c-.192.1-.289.272-.386.738l-.713,3.162Z"/><path class="g" d="M1739.9,684.688a5.663,5.663,0,0,1-2.948,1.685c-.424,0-.694-.32-.309-1.733.154-.562.232-.883.386-1.413h-.077a13.775,13.775,0,0,1-3.16,2.681,3.316,3.316,0,0,1-1.582.465c-.558,0-1.174-.32-.673-2.119.366-1.2.713-2.424,1.04-3.627.116-.433.077-.562-.038-.6a5.722,5.722,0,0,0-1.369.788l-.231-.4a6.478,6.478,0,0,1,2.968-1.573c.443,0,.54.337.231,1.444-.346,1.284-.694,2.569-1.079,3.869-.212.8-.058,1.06.25,1.06,1.061,0,3.238-2.151,4.009-3.307.212-.77.424-1.622.693-2.632l1.446-.434h.231c-.539,1.733-1.06,3.563-1.541,5.635-.116.529-.077.658.058.658a4.15,4.15,0,0,0,1.445-.852Z"/><path class="g" d="M1744.482,684.737a6.4,6.4,0,0,1-2.949,1.636c-.4,0-.674-.257-.289-1.621l1.214-4.109c.1-.354.1-.53-.019-.53a4.139,4.139,0,0,0-1.33.69l-.25-.369a7.141,7.141,0,0,1,3.045-1.589c.462,0,.462.546.212,1.316l-1.311,4.431c-.135.4-.1.529.038.529a3.851,3.851,0,0,0,1.368-.754Zm.462-8.251a1.021,1.021,0,0,1-1.1.978.771.771,0,0,1-.828-.754,1.067,1.067,0,0,1,1.1-.995A.766.766,0,0,1,1744.944,676.486Z"/><path class="g" d="M1749.223,684.64a6.112,6.112,0,0,1-3.084,1.733c-.4,0-.713-.369-.308-1.99.655-2.648,1.349-5.313,2-7.962.212-.738.116-.835-.79-.85l-.559-.017.077-.4a24.818,24.818,0,0,0,3.007-.578c.192,0,.212.145.115.5-.79,3.147-1.58,6.309-2.39,9.488-.115.466-.057.578.058.578a4.256,4.256,0,0,0,1.562-.884Z"/><path class="g" d="M1758.723,684.7a5.443,5.443,0,0,1-2.929,1.669c-.423,0-.694-.257-.385-1.492l.346-1.381h-.038a13.249,13.249,0,0,1-2.6,2.152,3.686,3.686,0,0,1-1.889.721c-.694,0-1.33-.641-1.33-1.974a5.525,5.525,0,0,1,2.293-4.3,7.576,7.576,0,0,1,3.488-1.252,3.766,3.766,0,0,1,1.2.177l.617-2.633c.193-.754.116-.818-.751-.818h-.617l.058-.418a28.84,28.84,0,0,0,3.083-.578c.193,0,.232.113.135.465-.9,3.276-1.695,6.39-2.409,9.552-.077.369-.058.529.077.529a3.293,3.293,0,0,0,1.388-.818Zm-2.736-2.391.636-2.312a3.055,3.055,0,0,0-1.6-.433,2.6,2.6,0,0,0-1.329.321,5.4,5.4,0,0,0-2.063,4.189c0,.851.289,1.2.6,1.2C1753.231,685.281,1755.371,683.276,1755.987,682.313Z"/><path class="g" d="M1765.988,684.495a6.265,6.265,0,0,1-4.2,1.878,2.107,2.107,0,0,1-2.217-2.407,5.11,5.11,0,0,1,2.351-4.19,5.878,5.878,0,0,1,2.794-.931c1.061,0,1.754.626,1.754,1.316,0,1.638-3.314,2.5-5.183,2.89a2.5,2.5,0,0,0-.039.514c0,.866.328,1.8,1.522,1.8a4.951,4.951,0,0,0,2.872-1.237Zm-2.814-4.783a3.726,3.726,0,0,0-1.811,2.841c2.736-.626,3.564-1.364,3.584-2.119a.9.9,0,0,0-.983-.9A1.877,1.877,0,0,0,1763.174,679.712Z"/><path class="g" d="M1770.112,681.542c.982-1.557,2.138-2.7,2.928-2.7a1.052,1.052,0,0,1,.868.434.57.57,0,0,1-.019.706,1.7,1.7,0,0,1-.54.513.346.346,0,0,1-.424.017,1.08,1.08,0,0,0-.694-.289c-.231,0-.539.16-.963.658a12.01,12.01,0,0,0-1.407,2.006c-.289,1.076-.54,2.119-.771,3.179a12.218,12.218,0,0,0-1.484.3l-.135-.128c.482-1.733,1.041-3.708,1.407-5.442.116-.545.1-.722-.039-.722a4.124,4.124,0,0,0-1.387.771l-.27-.369a5.95,5.95,0,0,1,2.814-1.638c.5,0,.54.723.251,1.894l-.212.8Z"/><path class="g" d="M1773.232,685.169a.9.9,0,0,1,.617-.706.4.4,0,0,1,.5.032,2.6,2.6,0,0,0,1.946,1.044c.751,0,1.234-.45,1.234-.931,0-.4-.212-.754-1.157-1.365-.886-.53-1.753-1.139-1.753-2.006a1.969,1.969,0,0,1,1.041-1.589,4.378,4.378,0,0,1,2.235-.8c.867,0,1.542.514,1.56.947a.866.866,0,0,1-.52.706.348.348,0,0,1-.462-.064,1.974,1.974,0,0,0-1.561-.771.937.937,0,0,0-1.022.883c0,.563.578.98,1.311,1.429,1.175.722,1.658,1.2,1.658,1.927,0,1.252-1.986,2.471-3.585,2.471C1774.331,686.373,1773.251,685.779,1773.232,685.169Z"/><path class="g" d="M1706.758,676.307a3.749,3.749,0,0,1,1.995.458,1.448,1.448,0,0,1,.734,1.3,2.087,2.087,0,0,1-.221.949,2.632,2.632,0,0,1-.658.812,7.714,7.714,0,0,1-.866.643c-.287.18-.638.377-1.059.591a20.955,20.955,0,0,0,2.785,3.121,8.486,8.486,0,0,0,.772-1.14,2.206,2.206,0,0,0,.3-.7c0-.093-.056-.16-.17-.2a1.518,1.518,0,0,0-.418-.07l-.259-.012a.316.316,0,0,1-.042-.192.218.218,0,0,1,.061-.168h1.487c.194,0,.394,0,.6-.012s.451-.019.731-.035.525-.026.738-.032c.025.016.035.094.033.231s-.021.208-.053.208a3.66,3.66,0,0,0-.695.094,2.772,2.772,0,0,0-.6.173,3.377,3.377,0,0,0-.272.356c-.164.228-.4.533-.716.918a12.515,12.515,0,0,1-.97,1.063q.435.376.6.521c.112.1.262.214.446.353a2.157,2.157,0,0,0,.456.278.79.79,0,0,0,.913-.192,1.558,1.558,0,0,0,.405-.458.508.508,0,0,1,.292.1c.093.066.14.127.14.185a1.663,1.663,0,0,1-.1.18,2.393,2.393,0,0,1-.235.278,2.134,2.134,0,0,1-.386.33,2.214,2.214,0,0,1-.565.247,2.584,2.584,0,0,1-.761.109,1.992,1.992,0,0,1-.65-.117,2.921,2.921,0,0,1-.6-.282c-.173-.11-.332-.22-.475-.33a2.632,2.632,0,0,1-.329-.282l-.114-.117a6.344,6.344,0,0,1-1.623.85,5.309,5.309,0,0,1-1.8.325,4.656,4.656,0,0,1-2.658-.674,2.121,2.121,0,0,1-.993-1.85,2.063,2.063,0,0,1,.25-1,2.606,2.606,0,0,1,.734-.827,7.433,7.433,0,0,1,.969-.631c.323-.176.713-.359,1.171-.553-.231-.335-.411-.6-.536-.8a4.213,4.213,0,0,1-.371-.824,3.04,3.04,0,0,1-.183-1.022,1.875,1.875,0,0,1,.794-1.526A3.094,3.094,0,0,1,1706.758,676.307Zm1.844,8.8a14.234,14.234,0,0,1-1.317-1.32q-.771-.859-1.27-1.486l-.5-.627c-.275.156-.479.274-.607.352s-.3.194-.5.349a2.132,2.132,0,0,0-.453.428,2.323,2.323,0,0,0-.258.482,1.6,1.6,0,0,0-.118.615,1.745,1.745,0,0,0,.772,1.553,3.332,3.332,0,0,0,1.9.517,3.748,3.748,0,0,0,1.246-.235A3.3,3.3,0,0,0,1708.6,685.1Zm-1.75-8.232a1.658,1.658,0,0,0-1.053.337,1.051,1.051,0,0,0-.433.87,4.8,4.8,0,0,0,.978,2.477,6.988,6.988,0,0,0,1.017-.576,2.082,2.082,0,0,0,.606-.689,2.027,2.027,0,0,0,.24-1.008,1.436,1.436,0,0,0-.377-.988A1.242,1.242,0,0,0,1706.852,676.872Z"/></g><rect class="f" width="164.93" height="2.522" transform="translate(3135 795.933)"/></g></svg>