<svg xmlns="http://www.w3.org/2000/svg" width="306" height="216" viewBox="0 0 306 216"><defs><style>.a{fill:#f7f7f7;}.b{fill:#26a9e0;}.c{fill:#009345;}.d{fill:#3c2264;}.e{fill:#faaf40;}.f{fill:#341c58;}.g{fill:#321b56;}.h{fill:#270e44;}.i{fill:#fff;font-size:1px;font-family:MyriadPro-Regular, Myriad Pro;}</style></defs><g transform="translate(-2421 -893)"><rect class="a" width="306" height="216" transform="translate(2421 893)"/><path class="b" d="M1618.58,724.042l.476-1.905,18.1,13.921-.529.741Z" transform="translate(910.641 233.229)"/><path class="c" d="M1616.8,730.74l1.482.926-18.473,13.5-.423-.794Z" transform="translate(913.482 231.955)"/><path class="d" d="M1614.107,746.733l1.906-.741-.582,17.784Z" transform="translate(911.303 229.698)"/><path class="e" d="M1630.072,741.457l1.618.665-.559,16.272Z" transform="translate(908.94 230.369)"/><g transform="translate(2505.515 996.227)"><path class="f" d="M1600.954,786.513l-2.384-5.751h-3.2v5.751h-4.609V770.095h8.741a8.927,8.927,0,0,1,3.8.632,3.2,3.2,0,0,1,1.7,1.742,8.785,8.785,0,0,1,.41,2.971,8.234,8.234,0,0,1-.49,2.983,3.209,3.209,0,0,1-1.947,1.837l2.807,6.253Zm-1.178-9.187a1.07,1.07,0,0,0,.781-.538,3.374,3.374,0,0,0,.186-1.324,4,4,0,0,0-.159-1.349.984.984,0,0,0-.755-.537,9.842,9.842,0,0,0-2.026-.143h-2.437v4.034h2.384A9.9,9.9,0,0,0,1599.776,777.326Z" transform="translate(-1590.756 -770.095)"/><path class="f" d="M1613.844,786.55a3.631,3.631,0,0,1-.953-2.817,5.335,5.335,0,0,1,.371-2.219,2.255,2.255,0,0,1,1.285-1.146,7.542,7.542,0,0,1,2.635-.358q1.3,0,3.735.1v-.429a2.616,2.616,0,0,0-.225-1.276,1.126,1.126,0,0,0-.848-.465,16.982,16.982,0,0,0-2.212-.1q-1.986,0-3.947.192v-2.768a32.886,32.886,0,0,1,5.3-.406,11.769,11.769,0,0,1,4.092.526,2.814,2.814,0,0,1,1.708,1.551,8.553,8.553,0,0,1,.4,2.959v7.327H1621.1L1621,785.81h-.212a3.226,3.226,0,0,1-1.668,1.289,7.784,7.784,0,0,1-2.331.31A4.293,4.293,0,0,1,1613.844,786.55Zm6.119-2.076a1.256,1.256,0,0,0,.662-.5,2.84,2.84,0,0,0,.292-1.48v-.477h-2.41a3.952,3.952,0,0,0-1.033.1.653.653,0,0,0-.437.37,2.411,2.411,0,0,0-.12.895,1.812,1.812,0,0,0,.133.788.734.734,0,0,0,.516.358,5.68,5.68,0,0,0,1.232.1A3.776,3.776,0,0,0,1619.964,784.474Z" transform="translate(-1594.031 -770.799)"/><path class="f" d="M1636.394,792.084q-1.311-.084-2.159-.227v-2.721l1.245.023,2.437.024a10.931,10.931,0,0,0,2.41-.179,1.125,1.125,0,0,0,.861-.656,5.929,5.929,0,0,0,.172-1.742v-1h-.212a2.987,2.987,0,0,1-1.483,1.206,6.476,6.476,0,0,1-2.331.37,5.2,5.2,0,0,1-2.609-.525,2.531,2.531,0,0,1-1.179-1.516,9.872,9.872,0,0,1-.291-2.685v-7.373h4.264v6.2a9.469,9.469,0,0,0,.119,1.849.856.856,0,0,0,.463.657,3.784,3.784,0,0,0,1.271.143,2.85,2.85,0,0,0,1.311-.227,1.134,1.134,0,0,0,.544-.764,8.052,8.052,0,0,0,.132-1.73v-6.133h4.264v10.81a13.062,13.062,0,0,1-.4,3.711,3.151,3.151,0,0,1-1.815,1.909,11.283,11.283,0,0,1-4.463.656Q1637.7,792.167,1636.394,792.084Z" transform="translate(-1597.045 -770.833)"/><path class="f" d="M1653.918,786.55a3.631,3.631,0,0,1-.953-2.817,5.337,5.337,0,0,1,.371-2.219,2.256,2.256,0,0,1,1.285-1.146,7.543,7.543,0,0,1,2.635-.358q1.3,0,3.735.1v-.429a2.615,2.615,0,0,0-.225-1.276,1.125,1.125,0,0,0-.848-.465,16.99,16.99,0,0,0-2.212-.1q-1.987,0-3.947.192v-2.768a32.876,32.876,0,0,1,5.3-.406,11.77,11.77,0,0,1,4.093.526,2.814,2.814,0,0,1,1.708,1.551,8.556,8.556,0,0,1,.4,2.959v7.327h-4.079l-.106-1.408h-.212a3.229,3.229,0,0,1-1.668,1.289,7.785,7.785,0,0,1-2.331.31A4.292,4.292,0,0,1,1653.918,786.55Zm6.119-2.076a1.256,1.256,0,0,0,.662-.5,2.842,2.842,0,0,0,.291-1.48v-.477h-2.41a3.959,3.959,0,0,0-1.033.1.654.654,0,0,0-.437.37,2.433,2.433,0,0,0-.119.895,1.814,1.814,0,0,0,.133.788.733.733,0,0,0,.516.358,5.679,5.679,0,0,0,1.232.1A3.776,3.776,0,0,0,1660.038,784.474Z" transform="translate(-1599.962 -770.799)"/><path class="f" d="M1681.433,780.8a9.688,9.688,0,0,0-.119-1.862.862.862,0,0,0-.464-.668,3.779,3.779,0,0,0-1.271-.144,2.849,2.849,0,0,0-1.311.227,1.136,1.136,0,0,0-.544.776,8.172,8.172,0,0,0-.132,1.742v6.348h-4.264v-12.17h4.053l.106,1.455h.238q1.034-1.646,3.895-1.647a5.1,5.1,0,0,1,2.609.538,2.582,2.582,0,0,1,1.179,1.527,9.906,9.906,0,0,1,.291,2.685v7.613h-4.264Z" transform="translate(-1602.975 -770.799)"/></g><g transform="translate(2596.705 1004.651)"><path class="f" d="M1697.785,779.983h6.422v1.624h-3.963v1.945h3.292l-.283,1.6h-3.009v2.294h4.172v1.623h-6.63Z" transform="translate(-1697.785 -779.983)"/><path class="f" d="M1712.949,783.161l-.745,1.5a4.317,4.317,0,0,0-1.625-.482c-.313,0-.566.12-.566.388s.447.564,1.117.819c1.177.442,1.863,1.006,1.863,2.039,0,1.154-.924,2.16-2.682,2.16a7.853,7.853,0,0,1-2.964-.617l.774-1.543a4.935,4.935,0,0,0,1.743.55c.417,0,.715-.147.715-.429,0-.336-.372-.617-.878-.792-1.49-.537-2.087-1.154-2.087-2.16,0-1.141.984-2,2.638-2A7.069,7.069,0,0,1,1712.949,783.161Z" transform="translate(-1699.2 -780.37)"/><path class="f" d="M1715.807,782.492h1.222l.254-1.382,2.041-.4v1.784h1.759l-.284,1.556h-1.475v2.992c0,.389.239.59.685.59a5.4,5.4,0,0,0,1.074-.147l.4,1.422a6.954,6.954,0,0,1-2.115.322c-1.49,0-2.384-.5-2.384-1.825v-3.354h-1.177Z" transform="translate(-1700.452 -780.09)"/><path class="f" d="M1730.589,786.225c0,2.12.819,2.8.819,2.8l-1.892.537a2.5,2.5,0,0,1-.715-1.342,1.986,1.986,0,0,1-2.041,1.315c-1.952,0-2.876-1.328-2.876-3.342a3.516,3.516,0,0,1,3.74-3.568,17.357,17.357,0,0,1,2.965.389Zm-2.355-.376v-1.556a2.115,2.115,0,0,0-.61-.107c-.969,0-1.237.791-1.237,1.878,0,.993.045,1.919.76,1.919C1727.757,787.982,1728.233,786.976,1728.233,785.849Z" transform="translate(-1701.647 -780.375)"/><path class="f" d="M1734.284,782.492h1.222l.254-1.382,2.041-.4v1.784h1.759l-.284,1.556H1737.8v2.992c0,.389.239.59.686.59a5.4,5.4,0,0,0,1.073-.147l.4,1.422a6.956,6.956,0,0,1-2.116.322c-1.49,0-2.384-.5-2.384-1.825v-3.354h-1.177Z" transform="translate(-1703.186 -780.09)"/><path class="f" d="M1746.145,782.582c1.863,0,2.608.872,2.608,2.025,0,1.3-1.476,2.322-3.844,2.5a1.109,1.109,0,0,0,1.221.9,8.3,8.3,0,0,0,2.116-.429l.447,1.4a8.071,8.071,0,0,1-2.935.6c-2.428,0-3.4-1.328-3.4-3.3A3.5,3.5,0,0,1,1746.145,782.582Zm-1.355,3.166c1.177-.027,1.624-.658,1.624-1.087a.541.541,0,0,0-.567-.563C1745.088,784.1,1744.819,784.983,1744.789,785.748Z" transform="translate(-1704.381 -780.368)"/></g><rect class="g" width="139.703" height="1.044" transform="translate(2503.581 1019.785)"/><rect class="g" width="139.703" height="0.415" transform="translate(2503.581 1021.673)"/><g transform="translate(2503 1027.663)"><path class="h" d="M1587.805,815.194v-8.042h3.349a4.559,4.559,0,0,1,1.641.244,2.067,2.067,0,0,1,.969.751,1.847,1.847,0,0,1,.349,1.062,1.691,1.691,0,0,1-.31.971,2.158,2.158,0,0,1-.938.735,2.367,2.367,0,0,1,1.246.729,1.828,1.828,0,0,1,.435,1.218,2.161,2.161,0,0,1-.265,1.051,2.083,2.083,0,0,1-.655.749,2.872,2.872,0,0,1-.977.4,6.586,6.586,0,0,1-1.44.134Zm1.181-4.663h1.931a4.771,4.771,0,0,0,1.126-.093,1.273,1.273,0,0,0,.679-.4,1.074,1.074,0,0,0,.228-.7,1.2,1.2,0,0,0-.213-.7,1.079,1.079,0,0,0-.609-.418,5.681,5.681,0,0,0-1.358-.112h-1.784Zm0,3.715h2.223a5.63,5.63,0,0,0,.8-.039,2.053,2.053,0,0,0,.682-.219,1.225,1.225,0,0,0,.451-.447,1.29,1.29,0,0,0,.176-.677,1.246,1.246,0,0,0-.256-.782,1.347,1.347,0,0,0-.71-.466,4.858,4.858,0,0,0-1.306-.135h-2.064Z" transform="translate(-1587.805 -807.015)"/><path class="h" d="M1602.691,815.579v-.855a2.448,2.448,0,0,1-2.053.987,2.868,2.868,0,0,1-1.068-.2,1.572,1.572,0,0,1-1.074-1.229,4.5,4.5,0,0,1-.067-.922v-3.61h1.1v3.231a5.152,5.152,0,0,0,.067,1.043,1.028,1.028,0,0,0,.438.612,1.468,1.468,0,0,0,.828.222,1.95,1.95,0,0,0,.926-.228,1.313,1.313,0,0,0,.612-.619,2.822,2.822,0,0,0,.18-1.138v-3.122h1.1v5.826Z" transform="translate(-1589.377 -807.4)"/><path class="h" d="M1607.6,808.287v-1.135h1.1v1.135Zm0,6.907v-5.826h1.1v5.826Z" transform="translate(-1590.734 -807.015)"/><path class="h" d="M1611.811,815.194v-8.042h1.1v8.042Z" transform="translate(-1591.357 -807.015)"/><path class="h" d="M1620.214,815.194v-.734a2.075,2.075,0,0,1-1.808.867,2.736,2.736,0,0,1-1.422-.384,2.615,2.615,0,0,1-1-1.073,3.391,3.391,0,0,1-.356-1.582,3.791,3.791,0,0,1,.322-1.583,2.359,2.359,0,0,1,.969-1.089,2.8,2.8,0,0,1,1.443-.378,2.363,2.363,0,0,1,1.041.222,2.136,2.136,0,0,1,.743.579v-2.886h1.09v8.042Zm-3.464-2.907a2.362,2.362,0,0,0,.523,1.673,1.65,1.65,0,0,0,1.236.554,1.622,1.622,0,0,0,1.222-.53,2.272,2.272,0,0,0,.5-1.615,2.542,2.542,0,0,0-.511-1.755,1.642,1.642,0,0,0-1.261-.56,1.588,1.588,0,0,0-1.221.538A2.462,2.462,0,0,0,1616.749,812.287Z" transform="translate(-1591.922 -807.015)"/><path class="h" d="M1629.588,813.68l1.132.126a2.488,2.488,0,0,1-.993,1.389,3.221,3.221,0,0,1-1.851.493,3.14,3.14,0,0,1-2.25-.787,2.9,2.9,0,0,1-.831-2.208,2.848,2.848,0,0,1,3.02-3.094,2.921,2.921,0,0,1,2.119.795,2.971,2.971,0,0,1,.822,2.238c0,.059,0,.147-.006.263h-4.823a2.114,2.114,0,0,0,.6,1.471,1.894,1.894,0,0,0,1.351.51,1.807,1.807,0,0,0,1.029-.285A1.9,1.9,0,0,0,1629.588,813.68Zm-3.6-1.6h3.611a1.853,1.853,0,0,0-.414-1.1,1.76,1.76,0,0,0-1.358-.571,1.85,1.85,0,0,0-1.27.456A1.719,1.719,0,0,0,1625.989,812.084Z" transform="translate(-1593.279 -807.377)"/><path class="h" d="M1634.345,815.556V809.73h.987v.884a2.458,2.458,0,0,1,.7-.817,1.309,1.309,0,0,1,.7-.2,2.309,2.309,0,0,1,1.126.318l-.377.916a1.7,1.7,0,0,0-.8-.214,1.127,1.127,0,0,0-.646.2,1.062,1.062,0,0,0-.407.54,3.493,3.493,0,0,0-.182,1.152v3.05Z" transform="translate(-1594.692 -807.377)"/><path class="h" d="M1639.715,813.817l1.084-.153a1.325,1.325,0,0,0,.509.9,1.912,1.912,0,0,0,1.166.313,1.848,1.848,0,0,0,1.12-.277.8.8,0,0,0,.365-.65.59.59,0,0,0-.322-.527,5.162,5.162,0,0,0-1.12-.334,11.169,11.169,0,0,1-1.673-.475,1.588,1.588,0,0,1-.706-.555,1.359,1.359,0,0,1-.24-.781,1.392,1.392,0,0,1,.2-.722,1.665,1.665,0,0,1,.539-.551,2.378,2.378,0,0,1,.7-.288,3.674,3.674,0,0,1,.948-.118,4.111,4.111,0,0,1,1.337.2,1.827,1.827,0,0,1,.85.534,1.975,1.975,0,0,1,.377.9l-1.072.131a1.031,1.031,0,0,0-.423-.7,1.668,1.668,0,0,0-.989-.253,1.959,1.959,0,0,0-1.079.225.644.644,0,0,0-.322.527.509.509,0,0,0,.134.345.965.965,0,0,0,.42.263q.165.055.969.252a14.859,14.859,0,0,1,1.622.458,1.628,1.628,0,0,1,.722.519,1.343,1.343,0,0,1,.262.845,1.547,1.547,0,0,1-.32.93,2.042,2.042,0,0,1-.922.675,3.7,3.7,0,0,1-1.364.239,3.277,3.277,0,0,1-1.921-.472A2.147,2.147,0,0,1,1639.715,813.817Z" transform="translate(-1595.487 -807.377)"/><path class="h" d="M1658.659,814.222a3.746,3.746,0,0,1-1.181.815,3.511,3.511,0,0,1-1.383.271,2.878,2.878,0,0,1-2.174-.834,2.147,2.147,0,0,1-.651-1.519,1.978,1.978,0,0,1,.532-1.347,4.45,4.45,0,0,1,1.592-1.057,4.87,4.87,0,0,1-.8-1.014,1.633,1.633,0,0,1-.2-.752,1.606,1.606,0,0,1,.63-1.258,2.367,2.367,0,0,1,1.587-.535,2.2,2.2,0,0,1,1.495.5,1.553,1.553,0,0,1,.582,1.212q0,1.146-1.687,1.959l1.6,1.838a4.273,4.273,0,0,0,.426-1.12l1.139.22a5.305,5.305,0,0,1-.792,1.733,6.114,6.114,0,0,0,1.395,1.235l-.737.784A6.207,6.207,0,0,1,1658.659,814.222Zm-.688-.78-2.009-2.243a3.771,3.771,0,0,0-1.2.885,1.341,1.341,0,0,0-.311.809,1.622,1.622,0,0,0,.433,1.015,1.494,1.494,0,0,0,1.224.527,2.189,2.189,0,0,0,1.021-.278A2.372,2.372,0,0,0,1657.971,813.443Zm-1.541-3.412a2.867,2.867,0,0,0,.923-.664,1.042,1.042,0,0,0,.21-.631.86.86,0,0,0-.29-.671,1.036,1.036,0,0,0-.722-.261,1.082,1.082,0,0,0-.74.257.808.808,0,0,0-.3.631.857.857,0,0,0,.106.392,2.023,2.023,0,0,0,.32.436Z" transform="translate(-1597.493 -806.991)"/><path class="h" d="M1669.591,815.194v-8.042h3.075a8.278,8.278,0,0,1,1.59.115,3.175,3.175,0,0,1,1.309.576,3.283,3.283,0,0,1,1.057,1.374,4.915,4.915,0,0,1,.351,1.912,5.116,5.116,0,0,1-.238,1.624,3.8,3.8,0,0,1-.609,1.172,3.116,3.116,0,0,1-.813.729,3.5,3.5,0,0,1-1.066.4,6.683,6.683,0,0,1-1.434.137Zm1.181-.948h1.907a5.144,5.144,0,0,0,1.385-.148,2.042,2.042,0,0,0,.8-.417,2.5,2.5,0,0,0,.655-1.017,4.528,4.528,0,0,0,.234-1.55,3.445,3.445,0,0,0-.46-1.94,2.245,2.245,0,0,0-1.117-.907,5.1,5.1,0,0,0-1.529-.164h-1.876Z" transform="translate(-1599.908 -807.015)"/><path class="h" d="M1685.357,813.68l1.132.126a2.488,2.488,0,0,1-.993,1.389,3.221,3.221,0,0,1-1.851.493,3.14,3.14,0,0,1-2.25-.787,2.9,2.9,0,0,1-.831-2.208,2.848,2.848,0,0,1,3.02-3.094,2.92,2.92,0,0,1,2.119.795,2.971,2.971,0,0,1,.822,2.238c0,.059,0,.147-.006.263H1681.7a2.115,2.115,0,0,0,.6,1.471,1.9,1.9,0,0,0,1.351.51,1.807,1.807,0,0,0,1.029-.285A1.9,1.9,0,0,0,1685.357,813.68Zm-3.6-1.6h3.611a1.853,1.853,0,0,0-.414-1.1,1.761,1.761,0,0,0-1.358-.571,1.847,1.847,0,0,0-1.27.456A1.72,1.72,0,0,0,1681.758,812.084Z" transform="translate(-1601.532 -807.377)"/><path class="h" d="M1691.81,815.579l-2.46-5.826h1.157l1.388,3.489q.225.566.414,1.174.147-.46.408-1.108l1.437-3.556h1.126l-2.448,5.826Z" transform="translate(-1602.832 -807.4)"/><path class="h" d="M1702.807,813.68l1.132.126a2.479,2.479,0,0,1-.993,1.389,3.218,3.218,0,0,1-1.851.493,3.138,3.138,0,0,1-2.25-.787,2.9,2.9,0,0,1-.832-2.208,2.849,2.849,0,0,1,3.02-3.094,2.923,2.923,0,0,1,2.12.795,2.971,2.971,0,0,1,.821,2.238q0,.088-.005.263h-4.824a2.117,2.117,0,0,0,.6,1.471,1.9,1.9,0,0,0,1.352.51,1.808,1.808,0,0,0,1.029-.285A1.9,1.9,0,0,0,1702.807,813.68Zm-3.6-1.6h3.612a1.865,1.865,0,0,0-.414-1.1,1.762,1.762,0,0,0-1.359-.571,1.85,1.85,0,0,0-1.27.456A1.723,1.723,0,0,0,1699.208,812.084Z" transform="translate(-1604.114 -807.377)"/><path class="h" d="M1707.551,815.194v-8.042h1.1v8.042Z" transform="translate(-1605.525 -807.015)"/><path class="h" d="M1711.347,812.643a2.852,2.852,0,0,1,1-2.4,3.219,3.219,0,0,1,2.034-.647,3.08,3.08,0,0,1,2.18.786,2.829,2.829,0,0,1,.846,2.176,3.526,3.526,0,0,1-.374,1.769,2.524,2.524,0,0,1-1.091,1,3.452,3.452,0,0,1-1.562.357,3.082,3.082,0,0,1-2.2-.785A2.948,2.948,0,0,1,1711.347,812.643Zm1.127,0a2.314,2.314,0,0,0,.542,1.676,1.938,1.938,0,0,0,2.722,0,2.368,2.368,0,0,0,.542-1.706,2.25,2.25,0,0,0-.545-1.638,1.941,1.941,0,0,0-2.719,0A2.3,2.3,0,0,0,1712.474,812.643Z" transform="translate(-1606.087 -807.377)"/><path class="h" d="M1720.963,817.789V809.73h1v.758a2.188,2.188,0,0,1,1.875-.889,2.764,2.764,0,0,1,1.461.383,2.421,2.421,0,0,1,.957,1.084,3.619,3.619,0,0,1,.322,1.534,3.568,3.568,0,0,1-.356,1.61,2.505,2.505,0,0,1-1.035,1.1,2.868,2.868,0,0,1-1.428.382,2.25,2.25,0,0,1-.983-.209,2.2,2.2,0,0,1-.716-.527v2.836Zm.992-5.113a2.356,2.356,0,0,0,.505,1.662,1.616,1.616,0,0,0,1.223.538,1.652,1.652,0,0,0,1.252-.557,2.452,2.452,0,0,0,.521-1.725,2.393,2.393,0,0,0-.51-1.667,1.591,1.591,0,0,0-1.214-.555,1.638,1.638,0,0,0-1.24.59A2.459,2.459,0,0,0,1721.956,812.677Z" transform="translate(-1607.51 -807.377)"/><path class="h" d="M1734.463,813.68l1.132.126a2.479,2.479,0,0,1-.993,1.389,3.22,3.22,0,0,1-1.851.493,3.137,3.137,0,0,1-2.25-.787,2.894,2.894,0,0,1-.832-2.208,2.847,2.847,0,0,1,3.02-3.094,2.921,2.921,0,0,1,2.119.795,2.971,2.971,0,0,1,.822,2.238c0,.059,0,.147-.006.263H1730.8a2.117,2.117,0,0,0,.6,1.471,1.9,1.9,0,0,0,1.352.51,1.81,1.81,0,0,0,1.029-.285A1.907,1.907,0,0,0,1734.463,813.68Zm-3.6-1.6h3.611a1.854,1.854,0,0,0-.414-1.1,1.76,1.76,0,0,0-1.358-.571,1.848,1.848,0,0,0-1.27.456A1.723,1.723,0,0,0,1730.864,812.084Z" transform="translate(-1608.798 -807.377)"/><path class="h" d="M1739.221,815.556V809.73h.987v.884a2.458,2.458,0,0,1,.7-.817,1.309,1.309,0,0,1,.7-.2,2.308,2.308,0,0,1,1.126.318l-.377.916a1.7,1.7,0,0,0-.8-.214,1.127,1.127,0,0,0-.646.2,1.061,1.061,0,0,0-.407.54,3.49,3.49,0,0,0-.182,1.152v3.05Z" transform="translate(-1610.212 -807.377)"/><path class="h" d="M1744.59,813.817l1.085-.153a1.327,1.327,0,0,0,.508.9,1.914,1.914,0,0,0,1.167.313,1.85,1.85,0,0,0,1.12-.277.8.8,0,0,0,.365-.65.59.59,0,0,0-.323-.527,5.143,5.143,0,0,0-1.12-.334,11.118,11.118,0,0,1-1.672-.475,1.579,1.579,0,0,1-.706-.555,1.361,1.361,0,0,1-.241-.781,1.384,1.384,0,0,1,.2-.722,1.671,1.671,0,0,1,.538-.551,2.374,2.374,0,0,1,.7-.288,3.666,3.666,0,0,1,.947-.118,4.108,4.108,0,0,1,1.337.2,1.827,1.827,0,0,1,.85.534,1.968,1.968,0,0,1,.377.9l-1.072.131a1.03,1.03,0,0,0-.423-.7,1.671,1.671,0,0,0-.99-.253,1.954,1.954,0,0,0-1.078.225.644.644,0,0,0-.323.527.514.514,0,0,0,.134.345.97.97,0,0,0,.42.263q.165.055.969.252a14.9,14.9,0,0,1,1.623.458,1.637,1.637,0,0,1,.722.519,1.344,1.344,0,0,1,.262.845,1.545,1.545,0,0,1-.32.93,2.038,2.038,0,0,1-.923.675,3.7,3.7,0,0,1-1.364.239,3.281,3.281,0,0,1-1.921-.472A2.149,2.149,0,0,1,1744.59,813.817Z" transform="translate(-1611.006 -807.377)"/></g><circle class="f" cx="1.084" cy="1.084" r="1.084" transform="translate(2641.839 1006.205)"/><text class="i" transform="translate(2642.451 1007.1)"><tspan x="0" y="0">R</tspan></text></g></svg>