<svg xmlns="http://www.w3.org/2000/svg" width="306" height="216" viewBox="0 0 306 216"><defs><style>.a{fill:#f7f7f7;}.b{fill:#fff;}.c{fill:#26a9e0;}.d{fill:#f6921e;}.e{fill:#231f20;}</style></defs><g transform="translate(-3709 -893)"><rect class="a" width="306" height="216" transform="translate(3709 893)"/><g transform="translate(3755 987.595)"><path class="b" d="M1333.312,1064.876v-15.152l-24.7-21.792-24.253,21.4v15.547h-5.222v-10.939l-2.253,1.988-3.692-3.258,35.342-31.182.086.076.081-.069,35.332,31.175-3.692,3.258-1.806-1.593v10.544Z" transform="translate(-1273.191 -1021.485)"/><path class="c" d="M1343.884,1053.2l-2.939,2.594-2.338-2.063v11.208h-4.157v-14.876l-25.233-22.262-24.785,21.867v15.271h-4.157v-11.6l-2.786,2.458-2.939-2.594,34.589-30.518.078.069.081-.069Z" transform="translate(-1273.796 -1022.019)"/><g transform="translate(18.277 19.803)"><path class="b" d="M1319.586,1081.156c-3.121,0-6.916-.214-11.279-.634l-.9-.087,3.782-2.889.918.15c.878.159,1.717.278,2.5.355a4.769,4.769,0,0,0,2.268-1.8,15.3,15.3,0,0,0,1.164-4.453l1.876-12.085a16.9,16.9,0,0,0-7.043,1.775c-1.819,1.015-2.7,2.245-2.7,3.762a4.075,4.075,0,0,0,.956,2.562l.218.276-4.514,2.836-.173-.453a7.543,7.543,0,0,1-.51-2.7c0-3.106,1.872-5.68,5.562-7.651,3.63-1.938,8.324-2.921,13.952-2.921,7.427,0,11.194,1.6,11.194,4.761,0,2.469-2.245,4.487-6.679,6,4.325,1.316,6.516,3.281,6.516,5.849,0,2.264-1.6,4.083-4.771,5.405C1328.858,1080.506,1324.706,1081.156,1319.586,1081.156Zm-1.672-2.736c2.571.255,5.137.383,7.647.383,4.632,0,6.883-1.236,6.883-3.779a4.3,4.3,0,0,0-1.875-3.186,10.624,10.624,0,0,0-4.634-2.155l-.552.015-1.135.034-1.043-.034-.264-.007-.3,1.917-.209,1.395a6.63,6.63,0,0,1-1.478,3.659A9.512,9.512,0,0,1,1317.914,1078.42Zm5.341-10.749c.726.038,1.371.058,1.922.058.715,0,1.58-.037,2.573-.109,3.1-1.284,4.671-2.82,4.671-4.565,0-2.27-2.659-3.446-7.906-3.5Z" transform="translate(-1306.155 -1057.203)"/><path class="c" d="M1308.677,1080.456l2.961-2.261.723.118q1.4.253,2.657.37a5.205,5.205,0,0,0,2.553-2,15.4,15.4,0,0,0,1.2-4.557l1.942-12.5a17.8,17.8,0,0,0-7.728,1.86q-2.887,1.611-2.886,4.051a4.365,4.365,0,0,0,1.025,2.756l-3.752,2.357a7.2,7.2,0,0,1-.49-2.594q0-4.49,5.372-7.358t13.739-2.869q10.79,0,10.79,4.416,0,3.769-7.492,6.027,7.329,1.9,7.329,5.827,0,3.2-4.545,5.095t-12.166,1.9Q1315.227,1081.088,1308.677,1080.456Zm14.237-10.841-.345,2.226-.209,1.4a6.4,6.4,0,0,1-1.387,3.481,12.249,12.249,0,0,1-4.207,2.168,78.463,78.463,0,0,0,9.12.539q7.287,0,7.287-4.123a4.584,4.584,0,0,0-2-3.434,11.018,11.018,0,0,0-4.872-2.253l-.608.017-1.122.033-1.028-.033Zm1.573-10.126-1.364,8.78q1.376.083,2.379.083,1.118,0,2.681-.115,4.966-2.037,4.965-4.9Q1333.148,1059.488,1324.487,1059.488Z" transform="translate(-1306.479 -1057.48)"/><g transform="translate(11.571 10.218)"><path class="b" d="M1334.519,1096.126c-3.8,0-6.277-1.079-7.365-3.206l-.129-.252,4.033-1.735.086.376c.493,2.156,2.282,3.2,5.47,3.2a7.276,7.276,0,0,0,3.8-.889,2.5,2.5,0,0,0,1.411-2.188c0-1.242-1.109-2.515-3.3-3.785l-2.38-1.368a20.763,20.763,0,0,1-3.908-2.7,3.3,3.3,0,0,1-1.045-2.374c0-1.623.916-2.977,2.723-4.027a13.225,13.225,0,0,1,6.695-1.546,16.95,16.95,0,0,1,6.052,1.087l.33.126-1.307,2.132-.511.826a1.439,1.439,0,0,1-2.027.7l-.247-.126.1-.228a2.807,2.807,0,0,0,.311-1.058c0-.485-.393-.892-1.2-1.244a8.255,8.255,0,0,0-3.274-.572c-4.3,0-4.3,1.834-4.3,2.437a2.265,2.265,0,0,0,.935,1.679,31.886,31.886,0,0,0,4.24,2.752l1.908,1.119c2.509,1.448,3.782,3.011,3.782,4.644,0,1.793-1.066,3.3-3.169,4.48A15.679,15.679,0,0,1,1334.519,1096.126Z" transform="translate(-1327.025 -1075.633)"/><path class="c" d="M1327.819,1093.037l3.345-1.439q.787,3.438,5.8,3.438a7.608,7.608,0,0,0,3.994-.943,2.783,2.783,0,0,0,1.554-2.425q0-2.026-3.445-4.024l-2.382-1.37a20.7,20.7,0,0,1-3.838-2.648,3.031,3.031,0,0,1-.965-2.187q0-2.292,2.574-3.787a12.8,12.8,0,0,1,6.5-1.495,16.482,16.482,0,0,1,5.914,1.062l-1.139,1.859-.511.824a1.222,1.222,0,0,1-1.022.727,1.171,1.171,0,0,1-.531-.14,3.027,3.027,0,0,0,.334-1.164q0-.9-1.385-1.5a8.587,8.587,0,0,0-3.429-.6q-4.637,0-4.637,2.727a2.54,2.54,0,0,0,1.031,1.881,31.87,31.87,0,0,0,4.293,2.789l1.906,1.119q3.635,2.1,3.635,4.405,0,2.546-3.016,4.238a15.238,15.238,0,0,1-7.535,1.692Q1329.371,1096.069,1327.819,1093.037Z" transform="translate(-1327.379 -1075.866)"/></g></g></g><g transform="translate(3831.418 997.12)"><g transform="translate(0)"><path class="b" d="M1411.02,1059.1v-16.247h8.686a7.432,7.432,0,0,1,4.3,1.106,4.216,4.216,0,0,1,.759,6,4.061,4.061,0,0,1-.894.775,4.354,4.354,0,0,1,1.19.964,4.03,4.03,0,0,1,1.007,2.7,4.133,4.133,0,0,1-1.68,3.5,7.438,7.438,0,0,1-4.494,1.191Zm7.88-4.534c1.24,0,1.24-.506,1.24-.779,0-.307,0-.821-1.24-.821h-2.045v1.6Zm-.284-5.686c1.169,0,1.169-.461,1.169-.736,0-.292,0-.779-1.193-.779h-1.738v1.515Z" transform="translate(-1411.02 -1040.531)"/><path class="d" d="M1425.091,1052.552a3.447,3.447,0,0,1,.864,2.322,3.563,3.563,0,0,1-1.445,3.035,6.855,6.855,0,0,1-4.146,1.076h-8.292v-15.079h8.1a6.846,6.846,0,0,1,3.968,1,3.634,3.634,0,0,1,.651,5.144,3.656,3.656,0,0,1-2.061,1.182A4.161,4.161,0,0,1,1425.091,1052.552Zm-8.351-2.619h2.345q1.753,0,1.753-1.321,0-1.363-1.776-1.363h-2.322Zm4.454,4.323q0-1.406-1.824-1.406h-2.63v2.769h2.63Q1421.193,1055.62,1421.193,1054.256Z" transform="translate(-1411.489 -1041)"/><path class="b" d="M1443.624,1061.644a6.254,6.254,0,0,1-3.158-.812,5.758,5.758,0,0,1-2.24-2.365,8.2,8.2,0,0,1,0-7.073,5.774,5.774,0,0,1,2.239-2.352,6.257,6.257,0,0,1,3.158-.812,5.74,5.74,0,0,1,2.7.61,4.542,4.542,0,0,1,.671.431v-.893h5.812v13.116H1447v-.892a4.607,4.607,0,0,1-.672.431A5.735,5.735,0,0,1,1443.624,1061.644Zm1.54-8.583a1.862,1.862,0,0,0-1.36.487,1.809,1.809,0,0,0-.5,1.378,1.838,1.838,0,0,0,.5,1.4,1.864,1.864,0,0,0,1.36.486,1.732,1.732,0,0,0,1.832-1.886,1.793,1.793,0,0,0-.507-1.368A1.819,1.819,0,0,0,1445.163,1053.061Z" transform="translate(-1422.785 -1042.927)"/><path class="d" d="M1446.521,1049.827a3.509,3.509,0,0,1,1.528,1.5v-1.9h4.643v11.948h-4.643v-1.9a3.508,3.508,0,0,1-1.528,1.5,5.139,5.139,0,0,1-2.428.543,5.652,5.652,0,0,1-2.866-.735,5.151,5.151,0,0,1-2.014-2.13,7.617,7.617,0,0,1,0-6.527,5.167,5.167,0,0,1,2.014-2.119,5.647,5.647,0,0,1,2.866-.735A5.14,5.14,0,0,1,1446.521,1049.827Zm-2.654,3.77a2.382,2.382,0,0,0-.675,1.8,2.41,2.41,0,0,0,.675,1.821,2.437,2.437,0,0,0,1.765.649,2.313,2.313,0,0,0,2.416-2.47,2.365,2.365,0,0,0-.687-1.789,2.4,2.4,0,0,0-1.729-.66A2.44,2.44,0,0,0,1443.867,1053.6Z" transform="translate(-1423.254 -1043.396)"/><path class="b" d="M1472.884,1061.644a8.632,8.632,0,0,1-4.774-1.181,5.063,5.063,0,0,1-2.269-3.5l-.121-.686h3.524q-.255-.074-.481-.151a4.867,4.867,0,0,1-1.922-1.208,3.348,3.348,0,0,1-.89-2.444,3.707,3.707,0,0,1,1.637-3.113,7.243,7.243,0,0,1,4.325-1.134,7.522,7.522,0,0,1,4.54,1.264,5.529,5.529,0,0,1,2.191,3.395l.15.706h-3.359q.273.079.515.161a4.97,4.97,0,0,1,1.985,1.253,3.412,3.412,0,0,1,.911,2.473,3.486,3.486,0,0,1-.766,2.215,4.748,4.748,0,0,1-2.112,1.452A8.8,8.8,0,0,1,1472.884,1061.644Zm-1.412-4.862a.711.711,0,0,0,.35.561,2,2,0,0,0,1.038.236.818.818,0,0,0,.479-.1c.05-.038.05-.053.05-.087s0-.11-.231-.2A10.308,10.308,0,0,0,1471.473,1056.782Zm.322-4.466a.774.774,0,0,0-.445.087c-.023.017-.036.027-.036.1,0,0,.036.06.206.125a11.865,11.865,0,0,0,1.6.427.914.914,0,0,0-.389-.505A1.734,1.734,0,0,0,1471.794,1052.316Z" transform="translate(-1435.393 -1042.927)"/><path class="d" d="M1476.665,1050.434a4.937,4.937,0,0,1,1.966,3.046h-4.359a1.535,1.535,0,0,0-.675-.959,2.3,2.3,0,0,0-1.244-.319,1.32,1.32,0,0,0-.794.2.663.663,0,0,0-.272.564q0,.448.581.671a13.52,13.52,0,0,0,1.907.5,20.084,20.084,0,0,1,2.547.639,4.374,4.374,0,0,1,1.753,1.107,2.838,2.838,0,0,1,.746,2.066,2.906,2.906,0,0,1-.64,1.853,4.156,4.156,0,0,1-1.859,1.267,8.184,8.184,0,0,1-2.879.458,8.037,8.037,0,0,1-4.454-1.086,4.482,4.482,0,0,1-2.014-3.11h4.478a1.291,1.291,0,0,0,.628.98,2.563,2.563,0,0,0,1.338.319,1.366,1.366,0,0,0,.829-.213.661.661,0,0,0,.284-.554.791.791,0,0,0-.6-.745,11.285,11.285,0,0,0-1.931-.469,17.783,17.783,0,0,1-2.488-.607,4.269,4.269,0,0,1-1.694-1.064,2.775,2.775,0,0,1-.723-2.034,3.137,3.137,0,0,1,1.4-2.641,6.658,6.658,0,0,1,3.98-1.022A6.924,6.924,0,0,1,1476.665,1050.434Z" transform="translate(-1435.952 -1043.396)"/><path class="b" d="M1499.188,1058.551v-6.995a1.6,1.6,0,0,0-.427-1.21,1.658,1.658,0,0,0-1.216-.421,1.685,1.685,0,0,0-1.247.439,1.667,1.667,0,0,0-.442,1.256v6.931h-5.836v-16.928h5.836v4.866a5.243,5.243,0,0,1,.8-.518,6.009,6.009,0,0,1,2.832-.643,5.306,5.306,0,0,1,4.025,1.556,5.794,5.794,0,0,1,1.463,4.139v7.527Z" transform="translate(-1446.219 -1039.983)"/><path class="d" d="M1503.559,1047.756a5.214,5.214,0,0,1,1.3,3.737v6.943h-4.619v-6.411a2.166,2.166,0,0,0-.6-1.629,2.27,2.27,0,0,0-3.9,1.693v6.347h-4.667v-15.76h4.667v5.814a4.093,4.093,0,0,1,1.658-1.533,5.4,5.4,0,0,1,2.559-.575A4.725,4.725,0,0,1,1503.559,1047.756Z" transform="translate(-1446.689 -1040.453)"/><path class="b" d="M1518.129,1057.233v-13.116h5.836v13.116Zm2.954-13.161a3.706,3.706,0,0,1-2.351-.721,2.422,2.422,0,0,1-.981-1.95,2.491,2.491,0,0,1,.976-2,3.667,3.667,0,0,1,2.356-.736,3.566,3.566,0,0,1,2.338.741,2.483,2.483,0,0,1,.946,1.994,2.431,2.431,0,0,1-.965,1.947A3.616,3.616,0,0,1,1521.083,1044.072Z" transform="translate(-1458.575 -1038.665)"/><path class="d" d="M1519.562,1040.326a3.088,3.088,0,0,1,1.99-.607,2.989,2.989,0,0,1,1.965.607,1.915,1.915,0,0,1,.735,1.544,1.837,1.837,0,0,1-.746,1.491,3.038,3.038,0,0,1-1.954.6,3.125,3.125,0,0,1-1.99-.6,1.825,1.825,0,0,1-.758-1.491A1.893,1.893,0,0,1,1519.562,1040.326Zm4.288,4.845v11.948h-4.667v-11.948Z" transform="translate(-1459.044 -1039.135)"/><path class="b" d="M1530.567,1061.529v-13.116h5.836v1.349a6.6,6.6,0,0,1,1.1-.747,5.818,5.818,0,0,1,2.788-.709h.584v5.641h-1.934a3.615,3.615,0,0,0-2.013.438,1.589,1.589,0,0,0-.53,1.405v5.738Z" transform="translate(-1464.285 -1042.961)"/><path class="d" d="M1538.254,1050a5.219,5.219,0,0,1,2.511-.638v4.472h-1.349a4.129,4.129,0,0,0-2.346.543,2.133,2.133,0,0,0-.781,1.885v5.154h-4.668v-11.948h4.668v2.236A5.861,5.861,0,0,1,1538.254,1050Z" transform="translate(-1464.755 -1043.431)"/><path class="b" d="M1562.485,1059.059a9.08,9.08,0,0,1-5.121-1.354,5.036,5.036,0,0,1-2.308-4.022l-.045-.626h6.113l.048.532a1.053,1.053,0,0,0,.329.768,1.208,1.208,0,0,0,.794.254,1,1,0,0,0,.593-.147.376.376,0,0,0,.126-.333c0-.173-.046-.359-.381-.541a12,12,0,0,0-2.069-.774,23.049,23.049,0,0,1-2.692-.986,5.376,5.376,0,0,1-1.992-1.574,4.716,4.716,0,0,1,.059-5.551,5.547,5.547,0,0,1,2.456-1.717,9.66,9.66,0,0,1,3.379-.559,8.386,8.386,0,0,1,4.947,1.333,4.994,4.994,0,0,1,2.127,3.872l.047.628h-6.138l-.069-.505a1.079,1.079,0,0,0-.291-.682.949.949,0,0,0-.646-.2.8.8,0,0,0-.479.12c-.024.021-.1.082-.1.318,0,.094,0,.289.366.486a12.4,12.4,0,0,0,2.017.766,23.372,23.372,0,0,1,2.705,1.03,5.675,5.675,0,0,1,2.006,1.589,4.323,4.323,0,0,1,.888,2.795,4.5,4.5,0,0,1-.815,2.613,5.362,5.362,0,0,1-2.331,1.821A8.858,8.858,0,0,1,1562.485,1059.059Z" transform="translate(-1475.175 -1040.342)"/><path class="d" d="M1568.333,1056.73a4.767,4.767,0,0,1-2.085,1.618,8.242,8.242,0,0,1-3.293.6,8.475,8.475,0,0,1-4.8-1.256,4.459,4.459,0,0,1-2.049-3.578h4.951a1.612,1.612,0,0,0,.544,1.171,1.786,1.786,0,0,0,1.161.384,1.494,1.494,0,0,0,.959-.277.955.955,0,0,0,.344-.788,1.155,1.155,0,0,0-.687-1.054,12.386,12.386,0,0,0-2.18-.82,22.528,22.528,0,0,1-2.618-.958,4.784,4.784,0,0,1-1.776-1.406,4.137,4.137,0,0,1,.059-4.824,4.945,4.945,0,0,1,2.2-1.533,9.017,9.017,0,0,1,3.174-.522,7.788,7.788,0,0,1,4.607,1.225,4.415,4.415,0,0,1,1.883,3.44h-5a1.621,1.621,0,0,0-.486-1.044,1.513,1.513,0,0,0-1.031-.34,1.293,1.293,0,0,0-.853.255.939.939,0,0,0-.308.767,1.105,1.105,0,0,0,.675,1,12.813,12.813,0,0,0,2.12.809,22.609,22.609,0,0,1,2.63,1,5.07,5.07,0,0,1,1.8,1.427,3.739,3.739,0,0,1,.758,2.427A3.9,3.9,0,0,1,1568.333,1056.73Z" transform="translate(-1475.644 -1040.812)"/><path class="b" d="M1587.466,1061.644a8.925,8.925,0,0,1-3.826-.8,6.675,6.675,0,0,1-2.728-9.494,6.392,6.392,0,0,1,2.732-2.33,9.626,9.626,0,0,1,7.635,0,6.382,6.382,0,0,1,2.719,2.342,6.508,6.508,0,0,1-2.717,9.481A8.838,8.838,0,0,1,1587.466,1061.644Zm0-8.625a1.612,1.612,0,0,0-1.2.468,1.944,1.944,0,0,0-.467,1.439,2,2,0,0,0,.468,1.461,1.611,1.611,0,0,0,1.2.467,1.562,1.562,0,0,0,1.171-.475,1.976,1.976,0,0,0,.471-1.453,1.942,1.942,0,0,0-.468-1.44A1.583,1.583,0,0,0,1587.466,1053.019Z" transform="translate(-1486.274 -1042.927)"/><path class="d" d="M1591.5,1050.019a5.785,5.785,0,0,1,2.476,2.13,5.925,5.925,0,0,1-2.476,8.636,8.93,8.93,0,0,1-7.143,0,6.092,6.092,0,0,1-2.487-8.646,5.792,5.792,0,0,1,2.487-2.119,9.049,9.049,0,0,1,7.143,0Zm-5.176,3.525a2.51,2.51,0,0,0-.639,1.853,2.541,2.541,0,0,0,.639,1.874,2.185,2.185,0,0,0,1.611.639,2.139,2.139,0,0,0,1.587-.649,2.543,2.543,0,0,0,.64-1.863,2.505,2.505,0,0,0-.64-1.853,2.157,2.157,0,0,0-1.587-.639A2.187,2.187,0,0,0,1586.325,1053.543Z" transform="translate(-1486.743 -1043.396)"/><path class="b" d="M1616.6,1061.529v-6.995a1.6,1.6,0,0,0-.427-1.21,1.659,1.659,0,0,0-1.216-.421,1.687,1.687,0,0,0-1.248.439,1.669,1.669,0,0,0-.441,1.256v6.93h-5.837v-13.116h5.837v1.055a5.19,5.19,0,0,1,.8-.518,6.007,6.007,0,0,1,2.832-.643,5.3,5.3,0,0,1,4.024,1.556,5.792,5.792,0,0,1,1.464,4.139v7.527Z" transform="translate(-1498.533 -1042.961)"/><path class="d" d="M1620.971,1050.734a5.211,5.211,0,0,1,1.3,3.737v6.943h-4.619V1055a2.165,2.165,0,0,0-.6-1.629,2.234,2.234,0,0,0-1.623-.586,2.112,2.112,0,0,0-2.273,2.279v6.347h-4.668v-11.948h4.668v2a4.085,4.085,0,0,1,1.658-1.533,5.4,5.4,0,0,1,2.559-.575A4.725,4.725,0,0,1,1620.971,1050.734Z" transform="translate(-1499.003 -1043.431)"/><path class="b" d="M1642,1061.644a8.632,8.632,0,0,1-4.774-1.181,5.064,5.064,0,0,1-2.269-3.5l-.12-.685h3.523q-.255-.074-.481-.151a4.858,4.858,0,0,1-1.922-1.209,3.347,3.347,0,0,1-.89-2.443,3.707,3.707,0,0,1,1.637-3.113,7.243,7.243,0,0,1,4.325-1.134,7.52,7.52,0,0,1,4.539,1.264,5.527,5.527,0,0,1,2.191,3.394l.15.706h-3.359c.182.053.353.107.514.161a4.97,4.97,0,0,1,1.985,1.253,3.412,3.412,0,0,1,.911,2.473,3.491,3.491,0,0,1-.765,2.215,4.753,4.753,0,0,1-2.113,1.452A8.8,8.8,0,0,1,1642,1061.644Zm-1.412-4.862a.714.714,0,0,0,.349.561,2.016,2.016,0,0,0,1.038.236.817.817,0,0,0,.478-.1c.052-.038.052-.054.052-.087s0-.11-.232-.2A10.266,10.266,0,0,0,1640.586,1056.782Zm.322-4.466a.773.773,0,0,0-.445.087c-.024.018-.036.028-.036.1,0,0,.036.06.206.125a11.86,11.86,0,0,0,1.6.427.915.915,0,0,0-.389-.505A1.732,1.732,0,0,0,1640.908,1052.316Z" transform="translate(-1510.742 -1042.927)"/><path class="d" d="M1645.778,1050.434a4.935,4.935,0,0,1,1.967,3.046h-4.359a1.536,1.536,0,0,0-.675-.959,2.3,2.3,0,0,0-1.243-.319,1.319,1.319,0,0,0-.794.2.663.663,0,0,0-.272.564q0,.448.58.671a13.506,13.506,0,0,0,1.907.5,20.017,20.017,0,0,1,2.547.639,4.373,4.373,0,0,1,1.753,1.107,2.838,2.838,0,0,1,.746,2.066,2.908,2.908,0,0,1-.639,1.853,4.16,4.16,0,0,1-1.86,1.267,8.18,8.18,0,0,1-2.878.458,8.039,8.039,0,0,1-4.454-1.086,4.479,4.479,0,0,1-2.013-3.11h4.478a1.292,1.292,0,0,0,.627.98,2.563,2.563,0,0,0,1.338.319,1.365,1.365,0,0,0,.829-.213.661.661,0,0,0,.284-.554.791.791,0,0,0-.6-.745,11.308,11.308,0,0,0-1.931-.469,17.8,17.8,0,0,1-2.488-.607,4.267,4.267,0,0,1-1.693-1.064,2.773,2.773,0,0,1-.722-2.034,3.137,3.137,0,0,1,1.4-2.641,6.66,6.66,0,0,1,3.98-1.022A6.923,6.923,0,0,1,1645.778,1050.434Z" transform="translate(-1511.302 -1043.396)"/></g><g transform="translate(0.443 23.015)"><path class="e" d="M1416.282,1093.07V1081.7h-4.463v-1.522h10.738v1.522h-4.482v11.372Z" transform="translate(-1411.819 -1080.176)"/><path class="e" d="M1432.068,1095.756v-9.34h1.5v1.416a3.9,3.9,0,0,1,1.058-1.311,1.915,1.915,0,0,1,1.067-.316,3.357,3.357,0,0,1,1.709.51l-.573,1.468a2.468,2.468,0,0,0-1.219-.343,1.635,1.635,0,0,0-.98.312,1.692,1.692,0,0,0-.619.866,5.893,5.893,0,0,0-.277,1.847v4.89Z" transform="translate(-1420.841 -1082.862)"/><path class="e" d="M1448.667,1094.6a6.24,6.24,0,0,1-1.779,1.055,5.36,5.36,0,0,1-1.834.308,3.689,3.689,0,0,1-2.486-.752,2.431,2.431,0,0,1-.868-1.922,2.464,2.464,0,0,1,.328-1.254,2.634,2.634,0,0,1,.859-.91,4.123,4.123,0,0,1,1.2-.519,12.456,12.456,0,0,1,1.478-.238,15.829,15.829,0,0,0,2.966-.545q.009-.326.009-.413a1.7,1.7,0,0,0-.471-1.364,2.879,2.879,0,0,0-1.895-.537,3.052,3.052,0,0,0-1.733.391,2.372,2.372,0,0,0-.827,1.385l-1.627-.211a3.747,3.747,0,0,1,.73-1.6,3.2,3.2,0,0,1,1.469-.942,6.862,6.862,0,0,1,2.227-.329,6.16,6.16,0,0,1,2.042.282,2.7,2.7,0,0,1,1.156.708,2.443,2.443,0,0,1,.517,1.077,8.5,8.5,0,0,1,.083,1.46v2.111a21.293,21.293,0,0,0,.107,2.792,3.4,3.4,0,0,0,.42,1.121H1449A3.239,3.239,0,0,1,1448.667,1094.6Zm-.139-3.536a12.676,12.676,0,0,1-2.717.6,6.513,6.513,0,0,0-1.45.317,1.429,1.429,0,0,0-.656.514,1.306,1.306,0,0,0-.231.752,1.322,1.322,0,0,0,.5,1.055,2.24,2.24,0,0,0,1.474.422,3.56,3.56,0,0,0,1.709-.4,2.516,2.516,0,0,0,1.1-1.094,3.652,3.652,0,0,0,.268-1.583Z" transform="translate(-1425.133 -1082.862)"/><path class="e" d="M1466.832,1093.07v-1.179a3.093,3.093,0,0,1-2.744,1.39,3.989,3.989,0,0,1-2.158-.615,4.107,4.107,0,0,1-1.525-1.72,5.7,5.7,0,0,1-.541-2.537,6.356,6.356,0,0,1,.49-2.537,3.719,3.719,0,0,1,1.469-1.746,4.073,4.073,0,0,1,2.19-.607,3.408,3.408,0,0,1,1.58.356,3.261,3.261,0,0,1,1.127.927v-4.626h1.654v12.894Zm-5.258-4.661a3.92,3.92,0,0,0,.795,2.682,2.442,2.442,0,0,0,1.876.888,2.4,2.4,0,0,0,1.852-.849,3.778,3.778,0,0,0,.762-2.59,4.239,4.239,0,0,0-.776-2.814,2.432,2.432,0,0,0-1.913-.9,2.349,2.349,0,0,0-1.852.862A4.1,4.1,0,0,0,1461.574,1088.408Z" transform="translate(-1433.226 -1080.176)"/><path class="e" d="M1485.452,1092.748l1.719.2a3.981,3.981,0,0,1-1.506,2.225,4.686,4.686,0,0,1-2.809.792,4.612,4.612,0,0,1-3.414-1.262,4.787,4.787,0,0,1-1.261-3.54,5.005,5.005,0,0,1,1.275-3.659,4.426,4.426,0,0,1,3.308-1.3,4.3,4.3,0,0,1,3.216,1.275,4.913,4.913,0,0,1,1.248,3.588c0,.094,0,.235-.009.422H1479.9a3.5,3.5,0,0,0,.915,2.357,2.793,2.793,0,0,0,2.052.818,2.636,2.636,0,0,0,1.562-.458A3.036,3.036,0,0,0,1485.452,1092.748Zm-5.461-2.559h5.479a3.069,3.069,0,0,0-.628-1.768,2.6,2.6,0,0,0-2.06-.915,2.715,2.715,0,0,0-1.927.73A2.826,2.826,0,0,0,1479.991,1090.189Z" transform="translate(-1441.387 -1082.862)"/><path class="e" d="M1497.379,1095.756v-9.34h1.5v1.416a3.907,3.907,0,0,1,1.058-1.311,1.917,1.917,0,0,1,1.067-.316,3.36,3.36,0,0,1,1.71.51l-.573,1.468a2.47,2.47,0,0,0-1.22-.343,1.635,1.635,0,0,0-.979.312,1.687,1.687,0,0,0-.619.866,5.893,5.893,0,0,0-.277,1.847v4.89Z" transform="translate(-1449.941 -1082.862)"/><path class="e" d="M1506.827,1092.968l1.645-.246a2.153,2.153,0,0,0,.771,1.442,2.784,2.784,0,0,0,1.77.5,2.7,2.7,0,0,0,1.7-.444,1.307,1.307,0,0,0,.554-1.042.952.952,0,0,0-.49-.845,7.444,7.444,0,0,0-1.7-.536,16.127,16.127,0,0,1-2.536-.76,2.425,2.425,0,0,1-1.072-.888,2.271,2.271,0,0,1-.365-1.254,2.31,2.31,0,0,1,.3-1.157,2.6,2.6,0,0,1,.817-.883,3.491,3.491,0,0,1,1.058-.462,5.251,5.251,0,0,1,1.437-.189,5.951,5.951,0,0,1,2.029.316,2.757,2.757,0,0,1,1.289.858,3.247,3.247,0,0,1,.573,1.447l-1.626.211a1.675,1.675,0,0,0-.642-1.125,2.439,2.439,0,0,0-1.5-.4,2.826,2.826,0,0,0-1.636.361,1.037,1.037,0,0,0-.49.844.848.848,0,0,0,.2.554,1.46,1.46,0,0,0,.638.423q.25.087,1.469.4a21.207,21.207,0,0,1,2.463.735,2.473,2.473,0,0,1,1.1.831,2.239,2.239,0,0,1,.4,1.354,2.57,2.57,0,0,1-.485,1.491,3.108,3.108,0,0,1-1.4,1.082,5.323,5.323,0,0,1-2.07.383,4.782,4.782,0,0,1-2.915-.756A3.474,3.474,0,0,1,1506.827,1092.968Z" transform="translate(-1454.151 -1082.862)"/></g></g></g></svg>