<svg xmlns="http://www.w3.org/2000/svg" xmlns:xlink="http://www.w3.org/1999/xlink" width="306" height="216" viewBox="0 0 306 216"><defs><style>.a{fill:#f7f7f7;}.b{fill:url(#a);}.c{fill:url(#b);}.d{fill:url(#c);}.e{fill:url(#d);}.f{fill:#31515e;}</style><radialGradient id="a" cx="0.5" cy="0.5" r="0.751" gradientTransform="translate(0.233) scale(0.533 1)" gradientUnits="objectBoundingBox"><stop offset="0" stop-color="#00aeef"/><stop offset="1" stop-color="#2e3192"/></radialGradient><radialGradient id="b" cx="0.5" r="0.766" gradientTransform="translate(0.24) scale(0.521 1)" xlink:href="#a"/><radialGradient id="c" cx="0.5" r="0.683" gradientTransform="translate(0.198) scale(0.605 1)" xlink:href="#a"/><radialGradient id="d" cx="0.5" r="0.575" gradientTransform="translate(0.111) scale(0.779 1)" xlink:href="#a"/></defs><g transform="translate(-2421 -650)"><rect class="a" width="306" height="216" transform="translate(2421 650)"/><g transform="translate(2526.709 739.211)"><path class="b" d="M2041.509,281.1h-3.559l-22.185-22.731L1995.344,281.1h-3.409l23.754-26.447Z" transform="translate(-1991.935 -254.65)"/></g><g transform="translate(2601.613 745.658)"><path class="c" d="M2125.11,282.3h-3.553l-15.775-15.769L2091.268,282.3h-3.415l17.853-19.4Z" transform="translate(-2087.853 -262.906)"/></g><path class="d" d="M2025.619,253.762l26.324,27.141h18.572l-19.831-19.435Z" transform="translate(527.395 484.756)"/><path class="e" d="M2076.382,274.884l6.667,6.328,16.836-18.305-16.385,5.311Z" transform="translate(516.272 482.752)"/><path class="f" d="M2086.752,238.336v22.3l7.684-2.863v-22.6Z" transform="translate(514.001 488.828)"/><path class="f" d="M2069.967,236.717v-5.122l9.341-5.876.923,34.2-6.5,6.177-.151-26.215Z" transform="translate(517.678 490.899)"/><path class="f" d="M2059.163,241.658v5.574l2.109,1.507v10.7l3.164,2.863V238.645Z" transform="translate(520.045 488.067)"/><path class="f" d="M2050.192,257l5.424,2.26v-9.379l-5.424,3.333Z" transform="translate(522.011 485.605)"/><rect class="f" width="3.352" height="3.352" transform="translate(2545.535 755.79)"/><rect class="f" width="3.352" height="3.352" transform="translate(2549.82 755.79)"/><rect class="f" width="3.352" height="3.352" transform="translate(2545.535 760.141)"/><rect class="f" width="3.352" height="3.352" transform="translate(2549.82 760.141)"/><rect class="f" width="2.303" height="2.303" transform="translate(2616.771 757.803)"/><rect class="f" width="2.303" height="2.303" transform="translate(2619.715 757.803)"/><rect class="f" width="2.303" height="2.303" transform="translate(2616.771 760.791)"/><rect class="f" width="2.303" height="2.303" transform="translate(2619.715 760.791)"/><g transform="translate(2505.311 751.195)"><g transform="translate(0 0)"><path class="f" d="M1964.533,270h12.251v1.2a4.369,4.369,0,0,0-3.031.86,4.56,4.56,0,0,0-.776,3.1v10.146l6.188-6.063a24.071,24.071,0,0,0,2.793-3.32,5.827,5.827,0,0,0,1.315-3.044q0-1.6-2.58-1.679V270h11.514v1.2q-3.256.391-6.964,3.98l-8.117,7.855,8.795,11.749q4.509,6.061,7.741,6.054v1.2h-8.083l-12.6-16.911v11.75q0,3.837,3.808,3.958v1.2h-12.251v-1.2a4.2,4.2,0,0,0,3.031-.858,4.62,4.62,0,0,0,.777-3.1V275.159q0-2.44-.852-3.175a4.761,4.761,0,0,0-2.956-.784Z" transform="translate(-1964.533 -269.997)"/></g></g><g transform="translate(2538.758 774.453)"><g transform="translate(0 0)"><path class="f" d="M2009.18,304a2.319,2.319,0,0,1,1.848-.963,1.7,1.7,0,0,1,1.3.484,2.512,2.512,0,0,1,.454,1.718l-.039,1.706c0,.546.007.875.019.992a.446.446,0,0,0,.184.3.567.567,0,0,0,.325.134c.116,0,.174.027.174.077,0,.077-.094.116-.284.116h-1.905c-.073-.017-.109-.054-.109-.109s.05-.1.148-.11q.457-.059.54-.357a11.31,11.31,0,0,0,.084-1.9,4.554,4.554,0,0,0-.344-2.224,1.059,1.059,0,0,0-.911-.5,1.338,1.338,0,0,0-.975.422,1.952,1.952,0,0,0-.5,1.239q-.078.818-.077,2a4.049,4.049,0,0,0,.083,1.043q.085.245.476.322c.108.017.161.055.161.116s-.052.1-.154.1l-1.3-.026q-.418,0-.728.02c-.129,0-.193-.034-.193-.1s.052-.1.155-.109a.624.624,0,0,0,.419-.174,2.934,2.934,0,0,0,.187-1.039q.076-.9.077-2.312,0-2.515-.023-3.3a2.48,2.48,0,0,0-.229-1.132.77.77,0,0,0-.5-.409c-.12-.025-.18-.069-.18-.129a.055.055,0,0,1,.042-.061c.028-.006.166-.009.416-.009q.63,0,1.358-.044l-.019,3.2Q2009.161,303.589,2009.18,304Z" transform="translate(-2007.365 -299.779)"/><path class="f" d="M2019.666,308.658a2.009,2.009,0,0,1-1.745.914,1.43,1.43,0,0,1-1.021-.348,1.193,1.193,0,0,1-.37-.914,1.5,1.5,0,0,1,.223-.792,1.43,1.43,0,0,1,.508-.529,6.717,6.717,0,0,1,1.007-.405,3.573,3.573,0,0,0,1.235-.567.833.833,0,0,0,.206-.586,1.341,1.341,0,0,0-.27-.894.946.946,0,0,0-.766-.32.9.9,0,0,0-.611.181,1.364,1.364,0,0,0-.316.73q-.116.6-.508.6a.507.507,0,0,1-.312-.142.513.513,0,0,1-.17-.419,1.012,1.012,0,0,1,.534-.839,2.615,2.615,0,0,1,1.467-.358,2.784,2.784,0,0,1,1.182.21,1.039,1.039,0,0,1,.554.48,3.17,3.17,0,0,1,.112,1.044l-.039,1.7a5.693,5.693,0,0,0,.12,1.4q.119.416.441.416a1.252,1.252,0,0,0,.18-.02l.109-.013c.1,0,.148.036.148.107q0,.246-1.268.247a.58.58,0,0,1-.492-.171A1.374,1.374,0,0,1,2019.666,308.658Zm0-2.511a2.876,2.876,0,0,1-.876.611,3.6,3.6,0,0,0-.971.663,1.1,1.1,0,0,0-.3.772,1.023,1.023,0,0,0,.242.689.757.757,0,0,0,.6.283,1.2,1.2,0,0,0,.7-.228,1.387,1.387,0,0,0,.486-.583,2.687,2.687,0,0,0,.158-1.05Q2019.711,306.784,2019.666,306.148Z" transform="translate(-2009.373 -300.696)"/><path class="f" d="M2025.308,303.974a4.14,4.14,0,0,1,.188,1.281,3,3,0,0,1,.885-.946,1.9,1.9,0,0,1,1.059-.316,2.272,2.272,0,0,1,.847.164,1.229,1.229,0,0,1,.63.566,3.022,3.022,0,0,1,.222,1.366l-.039,2.166a1.69,1.69,0,0,0,.1.75.73.73,0,0,0,.428.241c.15.043.226.09.226.141s-.037.1-.109.1a.7.7,0,0,1-.09-.006,4.875,4.875,0,0,0-.875-.058c-.348,0-.721.014-1.12.045-.159,0-.238-.037-.238-.109q0-.077.129-.1a1.337,1.337,0,0,0,.463-.161.446.446,0,0,0,.155-.222,5.553,5.553,0,0,0,.074-.929q.029-.792.029-1.286a3.257,3.257,0,0,0-.341-1.806,1.03,1.03,0,0,0-.85-.45,1.452,1.452,0,0,0-1.252.814,5.451,5.451,0,0,0-.5,2.712,3.22,3.22,0,0,0,.112,1.1c.075.157.263.252.563.287.1.009.142.049.142.122s-.047.091-.141.091l-.333-.026q-.18-.013-1.188-.013l-.514.013c-.188,0-.283-.034-.283-.1s.1-.129.307-.168a.6.6,0,0,0,.4-.2,2.632,2.632,0,0,0,.137-.964q.035-.819.035-2.043a3.815,3.815,0,0,0-.154-1.418.657.657,0,0,0-.432-.342c-.167-.038-.251-.092-.251-.161s.065-.109.194-.109l.522.006Q2024.523,303.993,2025.308,303.974Z" transform="translate(-2010.941 -300.698)"/><path class="f" d="M2039.36,304.571q0,.289-.038.869c-.013.188-.02.38-.02.572q0,.219.023.943a3.866,3.866,0,0,0,.09.905.818.818,0,0,0,.3.348.888.888,0,0,0,.493.18c.2.013.3.059.3.136a.1.1,0,0,1-.09.106q-.09.016-.682.016l-1.771-.006a5.832,5.832,0,0,1-.795-.023.086.086,0,0,1-.048-.087c0-.069.081-.12.244-.155a1.058,1.058,0,0,0,.6-.3,1.669,1.669,0,0,0,.209-.884q.04-.679.039-1.567l-.019-1.717.019-1.852a3.556,3.556,0,0,0-.135-1.257.674.674,0,0,0-.528-.344q-.425-.076-.425-.187c0-.073.064-.109.193-.109l1.274.006,2.048-.012a4.219,4.219,0,0,1,2.719.629,2.034,2.034,0,0,1,.7,1.575,1.86,1.86,0,0,1-.914,1.691,5.319,5.319,0,0,1-2.749.566C2040.093,304.61,2039.75,304.6,2039.36,304.571Zm0-.257q.946.032,1.075.032a3.4,3.4,0,0,0,1.235-.225,1.5,1.5,0,0,0,.846-.811,2.769,2.769,0,0,0,.269-1.157,1.7,1.7,0,0,0-.493-1.231,2.451,2.451,0,0,0-1.774-.5,4.27,4.27,0,0,0-1.159.141c0,.155-.006.251-.006.289l.026,1.479-.026,1.574Q2039.354,304.018,2039.36,304.314Z" transform="translate(-2013.883 -299.86)"/><path class="f" d="M2049.055,305.418a3.575,3.575,0,0,1,.866-1.083,1.546,1.546,0,0,1,.968-.361.838.838,0,0,1,.612.254.791.791,0,0,1,.258.576q0,.611-.522.612c-.163,0-.3-.115-.411-.342-.137-.287-.319-.431-.548-.431a.953.953,0,0,0-.663.361,1.855,1.855,0,0,0-.457.789,8.6,8.6,0,0,0-.116,1.8,5.014,5.014,0,0,0,.1,1.435q.1.184.527.235c.077.009.116.038.116.091,0,.09-.1.135-.3.135h-2.053c-.146,0-.219-.037-.219-.109s.1-.108.289-.116c.271-.017.438-.1.5-.251a7.3,7.3,0,0,0,.1-1.663,19.814,19.814,0,0,0-.087-2.533q-.087-.425-.647-.451c-.154-.009-.232-.048-.232-.122a.1.1,0,0,1,.049-.087,3.155,3.155,0,0,1,.589-.061l1.184-.065Q2049,304.374,2049.055,305.418Z" transform="translate(-2016.078 -300.698)"/><path class="f" d="M2053.954,306.787a2.812,2.812,0,0,1,.817-1.994,2.661,2.661,0,0,1,2.009-.861,2.7,2.7,0,0,1,1.928.771,2.561,2.561,0,0,1,.807,1.93,2.872,2.872,0,0,1-.849,2.054,2.669,2.669,0,0,1-1.983.885,2.617,2.617,0,0,1-1.925-.814A2.7,2.7,0,0,1,2053.954,306.787Zm1.043-.039a3.128,3.128,0,0,0,.511,1.839,1.436,1.436,0,0,0,2.478.045,2.93,2.93,0,0,0,.525-1.825,3.3,3.3,0,0,0-.506-1.81,1.507,1.507,0,0,0-1.31-.793,1.419,1.419,0,0,0-1.223.723A3.253,3.253,0,0,0,2055,306.748Z" transform="translate(-2017.572 -300.689)"/><path class="f" d="M2063.744,303.982a4.5,4.5,0,0,1,.033.5c0,.128-.012.315-.033.56a5.117,5.117,0,0,1,.976-.783,1.615,1.615,0,0,1,.757-.176,2.152,2.152,0,0,1,1.69.814,2.851,2.851,0,0,1,.7,1.916,2.564,2.564,0,0,1-.8,1.947,2.622,2.622,0,0,1-1.861.757,2.844,2.844,0,0,1-1.461-.431,12.823,12.823,0,0,0-.109,1.744,6.358,6.358,0,0,0,.045.869l.019.251a.758.758,0,0,0,.65.508c.12.025.185.075.194.148l-.02.064-.045.026q-.793-.046-1.245-.045c-.762,0-1.219.006-1.375.02-.1,0-.148-.037-.148-.109s.042-.108.129-.116a1.1,1.1,0,0,0,.75-.271,5.666,5.666,0,0,0,.193-1.825q.042-1.619.042-2.024l-.019-1.751.006-1.043a2.954,2.954,0,0,0-.109-1.035q-.11-.226-.56-.258c-.1-.009-.148-.045-.148-.11a.1.1,0,0,1,.055-.09,2.547,2.547,0,0,1,.585-.038Zm-.051,2.864a11.491,11.491,0,0,0,.058,1.506,1.026,1.026,0,0,0,.415.612,1.463,1.463,0,0,0,.936.283,1.478,1.478,0,0,0,1.263-.672,2.779,2.779,0,0,0,.476-1.645,2.939,2.939,0,0,0-.486-1.773,1.432,1.432,0,0,0-1.187-.667,1.247,1.247,0,0,0-1.078.567A3.177,3.177,0,0,0,2063.694,306.846Z" transform="translate(-2019.271 -300.7)"/><path class="f" d="M2071.731,306.472c-.018.219-.026.393-.026.522a2.3,2.3,0,0,0,.538,1.545,1.682,1.682,0,0,0,1.332.631,2.078,2.078,0,0,0,1.438-.618c.129-.116.212-.174.245-.174.068,0,.105.056.11.167a1.92,1.92,0,0,1-.837.76,2.811,2.811,0,0,1-1.32.308,2.418,2.418,0,0,1-1.81-.768,2.7,2.7,0,0,1-.74-1.948,2.905,2.905,0,0,1,.814-2.1,2.406,2.406,0,0,1,1.74-.844,2.242,2.242,0,0,1,1.571.661,2.061,2.061,0,0,1,.7,1.549.367.367,0,0,1-.041.2c-.028.044-.192.066-.494.066Zm0-.335c.559.026,1.1.039,1.626.039l.341-.019a1.139,1.139,0,0,0,.593-.152.539.539,0,0,0,.207-.486,1.344,1.344,0,0,0-.372-.943,1.151,1.151,0,0,0-.874-.4,1.333,1.333,0,0,0-.925.459A2.55,2.55,0,0,0,2071.731,306.137Z" transform="translate(-2021.233 -300.692)"/><path class="f" d="M2079.661,305.418a3.585,3.585,0,0,1,.865-1.083,1.549,1.549,0,0,1,.969-.361.842.842,0,0,1,.612.254.8.8,0,0,1,.257.576q0,.611-.521.612c-.163,0-.3-.115-.412-.342q-.205-.431-.547-.431a.953.953,0,0,0-.662.361,1.848,1.848,0,0,0-.457.789,8.532,8.532,0,0,0-.116,1.8,5.039,5.039,0,0,0,.1,1.435q.1.184.528.235c.077.009.116.038.116.091,0,.09-.1.135-.3.135h-2.053c-.147,0-.219-.037-.219-.109s.1-.108.29-.116c.271-.017.437-.1.5-.251a7.284,7.284,0,0,0,.1-1.663,20.032,20.032,0,0,0-.086-2.533q-.087-.425-.647-.451c-.155-.009-.232-.048-.232-.122a.1.1,0,0,1,.048-.087,3.154,3.154,0,0,1,.589-.061l1.184-.065Q2079.608,304.374,2079.661,305.418Z" transform="translate(-2022.784 -300.698)"/><path class="f" d="M2086.871,304.03q-.09,1.424-.09,2.8a2.489,2.489,0,0,0,.251,1.379.866.866,0,0,0,.725.323,1.487,1.487,0,0,0,.756-.251.625.625,0,0,1,.181-.091c.056,0,.083.03.083.091q0,.155-.458.489a1.85,1.85,0,0,1-1.123.334,1.135,1.135,0,0,1-.987-.458,2.326,2.326,0,0,1-.33-1.366q0-.948.116-3.249c-.031-.008-.234-.023-.612-.045l-.385-.027c-.095,0-.142-.035-.142-.1s.053-.1.16-.134a4.314,4.314,0,0,0,.885-.565,1.853,1.853,0,0,0,.725-1.322c.017-.15.065-.225.144-.225s.119.06.119.18c0,.039,0,.08-.006.122-.013.167-.02.359-.02.577l.007,1,1.409-.02c.24,0,.365.028.374.084,0,.2-.037.322-.1.373C2088.334,303.933,2087.771,303.966,2086.871,304.03Z" transform="translate(-2024.342 -300.181)"/><path class="f" d="M2093.957,308.548q.7-1.9.9-2.589a4.169,4.169,0,0,0,.2-1.1q0-.534-.669-.592c-.125-.014-.187-.058-.187-.133s.049-.106.148-.106c.033,0,.15.007.347.02.077,0,.212.006.4.006q.857,0,1.146-.027c.086-.008.146-.012.18-.012.107,0,.161.038.161.112s-.058.112-.174.139a1.219,1.219,0,0,0-.814.749q-.3.634-1.085,2.942-.765,2.257-1.232,3.257a3.662,3.662,0,0,1-.972,1.384,1.648,1.648,0,0,1-.994.383,1.078,1.078,0,0,1-.795-.29.84.84,0,0,1-.293-.592.658.658,0,0,1,.6-.618.513.513,0,0,1,.572.528c.018.236.122.354.315.354q.464,0,1.033-.971a3.358,3.358,0,0,0,.569-1.518,4.92,4.92,0,0,0-.44-1.518q-.441-1.086-.982-2.35a8.04,8.04,0,0,0-.736-1.486.712.712,0,0,0-.429-.255c-.142-.018-.212-.063-.212-.135s.051-.127.154-.127a.893.893,0,0,1,.148.014,6.48,6.48,0,0,0,.857.05,10.315,10.315,0,0,0,1.255-.041,1.392,1.392,0,0,1,.187-.023q.161,0,.161.122,0,.1-.283.174-.508.135-.508.489A30.125,30.125,0,0,0,2093.957,308.548Z" transform="translate(-2025.52 -300.705)"/><path class="f" d="M2105.781,304.571q0,.289-.039.869c-.013.188-.019.38-.019.572,0,.146.007.46.022.943a3.787,3.787,0,0,0,.09.905.807.807,0,0,0,.3.348.885.885,0,0,0,.493.18c.2.013.3.059.3.136a.1.1,0,0,1-.09.106c-.061.011-.288.016-.682.016l-1.77-.006a5.821,5.821,0,0,1-.8-.023.085.085,0,0,1-.048-.087c0-.069.081-.12.244-.155a1.063,1.063,0,0,0,.6-.3,1.679,1.679,0,0,0,.209-.884q.039-.679.038-1.567l-.019-1.717.019-1.852a3.535,3.535,0,0,0-.135-1.257.673.673,0,0,0-.527-.344c-.284-.051-.425-.113-.425-.187s.064-.109.193-.109l1.274.006,2.047-.012a4.218,4.218,0,0,1,2.719.629,2.031,2.031,0,0,1,.7,1.575,1.858,1.858,0,0,1-.914,1.691,5.316,5.316,0,0,1-2.749.566Q2106.366,304.61,2105.781,304.571Zm0-.257q.945.032,1.075.032a3.4,3.4,0,0,0,1.235-.225,1.5,1.5,0,0,0,.846-.811,2.766,2.766,0,0,0,.268-1.157,1.7,1.7,0,0,0-.493-1.231,2.449,2.449,0,0,0-1.774-.5,4.266,4.266,0,0,0-1.158.141c0,.155-.006.251-.006.289l.025,1.479-.025,1.574C2105.774,303.979,2105.776,304.117,2105.781,304.314Z" transform="translate(-2028.434 -299.86)"/><path class="f" d="M2112.741,306.787a2.812,2.812,0,0,1,.818-1.994,2.661,2.661,0,0,1,2.009-.861,2.7,2.7,0,0,1,1.928.771,2.561,2.561,0,0,1,.807,1.93,2.872,2.872,0,0,1-.85,2.054,2.668,2.668,0,0,1-1.983.885,2.615,2.615,0,0,1-1.925-.814A2.7,2.7,0,0,1,2112.741,306.787Zm1.043-.039a3.133,3.133,0,0,0,.511,1.839,1.436,1.436,0,0,0,2.478.045,2.929,2.929,0,0,0,.524-1.825,3.3,3.3,0,0,0-.5-1.81,1.507,1.507,0,0,0-1.31-.793,1.421,1.421,0,0,0-1.224.723A3.251,3.251,0,0,0,2113.784,306.748Z" transform="translate(-2030.452 -300.689)"/><path class="f" d="M2122.812,303.065l-.006,1.449.013,1.351v1.018l-.007.772q0,.464.151.589a.745.745,0,0,0,.454.138c.236.013.354.063.354.149,0,.068-.044.1-.134.1-.035,0-.073,0-.116-.006a8.735,8.735,0,0,0-1.115-.077,8.357,8.357,0,0,0-1.139.051.587.587,0,0,1-.128.013c-.1,0-.155-.038-.155-.116s.119-.13.358-.162a.768.768,0,0,0,.458-.157,1.211,1.211,0,0,0,.1-.64l.045-2.665a2.723,2.723,0,0,0-.161-1.264.816.816,0,0,0-.624-.21c-.1,0-.156-.034-.156-.1a.1.1,0,0,1,.052-.09,4.759,4.759,0,0,1,.765-.084Q2122.536,303.072,2122.812,303.065Zm-.714-3.147a.623.623,0,0,1,.437.18.532.532,0,0,1,.193.393.631.631,0,0,1-.157.431.547.547,0,0,1-.434.18.677.677,0,0,1-.438-.158.523.523,0,0,1-.193-.428.592.592,0,0,1,.164-.432A.577.577,0,0,1,2122.1,299.918Z" transform="translate(-2032.257 -299.809)"/><path class="f" d="M2127.009,303.974a4.19,4.19,0,0,1,.186,1.281,3.01,3.01,0,0,1,.885-.946,1.9,1.9,0,0,1,1.058-.316,2.266,2.266,0,0,1,.846.164,1.231,1.231,0,0,1,.632.566,3.036,3.036,0,0,1,.222,1.366l-.039,2.166a1.688,1.688,0,0,0,.1.75.731.731,0,0,0,.428.241c.15.043.226.09.226.141s-.037.1-.11.1a.692.692,0,0,1-.09-.006,4.876,4.876,0,0,0-.875-.058c-.348,0-.721.014-1.121.045-.158,0-.237-.037-.237-.109,0-.052.042-.086.129-.1a1.344,1.344,0,0,0,.463-.161.451.451,0,0,0,.155-.222,5.577,5.577,0,0,0,.073-.929q.03-.792.03-1.286a3.259,3.259,0,0,0-.341-1.806,1.03,1.03,0,0,0-.85-.45,1.452,1.452,0,0,0-1.252.814,5.454,5.454,0,0,0-.5,2.712,3.213,3.213,0,0,0,.113,1.1c.075.157.262.252.563.287.094.009.142.049.142.122s-.048.091-.141.091l-.334-.026q-.179-.013-1.187-.013l-.513.013c-.189,0-.283-.034-.283-.1s.1-.129.307-.168a.6.6,0,0,0,.4-.2,2.616,2.616,0,0,0,.137-.964q.035-.819.035-2.043a3.8,3.8,0,0,0-.154-1.418.656.656,0,0,0-.432-.342c-.166-.038-.25-.092-.25-.161s.065-.109.193-.109l.522.006Q2126.223,303.993,2127.009,303.974Z" transform="translate(-2033.222 -300.698)"/><path class="f" d="M2136.394,304.03q-.091,1.424-.091,2.8a2.489,2.489,0,0,0,.252,1.379.865.865,0,0,0,.724.323,1.486,1.486,0,0,0,.756-.251.615.615,0,0,1,.182-.091c.055,0,.083.03.083.091,0,.1-.152.266-.459.489a1.847,1.847,0,0,1-1.122.334,1.135,1.135,0,0,1-.988-.458,2.333,2.333,0,0,1-.33-1.366q0-.948.116-3.249c-.031-.008-.234-.023-.612-.045l-.385-.027c-.095,0-.142-.035-.142-.1s.053-.1.16-.134a4.329,4.329,0,0,0,.885-.565,1.85,1.85,0,0,0,.725-1.322c.018-.15.066-.225.145-.225s.119.06.119.18c0,.039,0,.08-.006.122-.013.167-.02.359-.02.577l.007,1,1.409-.02c.241,0,.365.028.374.084,0,.2-.037.322-.1.373C2137.857,303.933,2137.294,303.966,2136.394,304.03Z" transform="translate(-2035.192 -300.181)"/></g></g><g transform="translate(2514.427 792.076)"><g transform="translate(0 0)"><path class="f" d="M1983.171,322.628a18.786,18.786,0,0,1,.367,2.022c-.021.034-.044.052-.069.052a.143.143,0,0,1-.1-.052,5.249,5.249,0,0,0-.85-1.088,2.6,2.6,0,0,0-.814-.531,4.355,4.355,0,0,0-1.408-.158,7.981,7.981,0,0,0-1.488.109.4.4,0,0,0-.052.237c0,.03,0,.084-.012.161q-.066.514-.065,2.789c0,.064,0,.154.013.269.327.013.549.02.67.02a2.182,2.182,0,0,0,1.175-.243,2,2,0,0,0,.634-1.045c.03-.09.073-.136.128-.136.081,0,.122.063.122.188l-.026.258a10.412,10.412,0,0,0-.052,1.05q0,.877.032,1.581c0,.146-.04.219-.118.219-.058,0-.1-.052-.119-.155a1.692,1.692,0,0,0-.568-1.094,3.443,3.443,0,0,0-1.879-.334q-.02.469-.019,1.518a9.015,9.015,0,0,0,.1,1.726.939.939,0,0,0,.463.582,2.6,2.6,0,0,0,1.243.216q2.505,0,3.234-1.725c.059-.142.121-.212.184-.212s.1.048.1.141a.512.512,0,0,1-.032.168c-.026.081-.088.386-.187.914q-.032.168-.245,1l-2.7-.006q-.579,0-1.7-.049t-1.989-.051a5.233,5.233,0,0,1-.9-.036.091.091,0,0,1-.038-.07c0-.086.07-.129.212-.129a1.006,1.006,0,0,0,.939-.38,4.534,4.534,0,0,0,.225-1.845l-.005-1.319.019-1.235q0-.372-.042-1.412t-.077-1.186a.6.6,0,0,0-.2-.293,2.006,2.006,0,0,0-.724-.292c-.112-.03-.167-.078-.167-.142s.074-.116.225-.116l1.313.071q.7.032,3.418.032Q1983.133,322.622,1983.171,322.628Z" transform="translate(-1976.207 -322.384)"/><path class="f" d="M1992.054,322.992a.9.9,0,0,0,.232-.36q.051-.155.148-.155a.175.175,0,0,1,.116.065q.044.231.129.933l.154,1.21c0,.077-.047.116-.141.116-.052,0-.1-.043-.135-.129a3.521,3.521,0,0,0-1.01-1.4,2.25,2.25,0,0,0-1.461-.553,1.446,1.446,0,0,0-1.175.47,1.525,1.525,0,0,0-.4,1,1.181,1.181,0,0,0,.431.985,6.331,6.331,0,0,0,1.777.772,7.472,7.472,0,0,1,1.484.6,2.473,2.473,0,0,1,.827.811,2.031,2.031,0,0,1,.335,1.119,2.457,2.457,0,0,1-.844,1.822,2.877,2.877,0,0,1-2.066.805,4.183,4.183,0,0,1-2.214-.689.81.81,0,0,0-.284.425c-.034.137-.091.205-.168.205s-.118-.087-.148-.263-.092-1.008-.187-2.5c.017-.051.062-.077.135-.077s.116.047.155.141q.991,2.49,2.768,2.491a1.8,1.8,0,0,0,1.38-.531,1.729,1.729,0,0,0,.5-1.22,1.54,1.54,0,0,0-.267-.875,2.017,2.017,0,0,0-.708-.644,8.238,8.238,0,0,0-1.393-.547,5.7,5.7,0,0,1-1.664-.743,2.216,2.216,0,0,1-.647-.792,2,2,0,0,1-.206-.853,1.963,1.963,0,0,1,.775-1.52,2.83,2.83,0,0,1,1.9-.662,3.208,3.208,0,0,1,.891.134A4.944,4.944,0,0,1,1992.054,322.992Z" transform="translate(-1978.672 -322.368)"/><path class="f" d="M1999.7,322.9c-.335-.017-.571-.025-.708-.025a2.9,2.9,0,0,0-2.016.581,2.257,2.257,0,0,0-.728,1.033c-.021.109-.079.162-.173.162a.164.164,0,0,1-.121-.062,17.526,17.526,0,0,1,.25-2.069l.393-.006c.335,0,.783.017,1.346.052q.907.052,2.781.052,1.918,0,2.5-.045.527-.051,1.448-.052a8.514,8.514,0,0,1,.1.966c.026.381.052.65.077.8a.816.816,0,0,1,.006.109q0,.155-.134.155a.184.184,0,0,1-.137-.055,3.122,3.122,0,0,1-.248-.364,2.965,2.965,0,0,0-.7-.789,1.883,1.883,0,0,0-.805-.344,14.675,14.675,0,0,0-1.8-.1q-.077.972-.077,2.221a34.906,34.906,0,0,0,.177,4.873q.177.74,1.265.74c.176,0,.264.037.264.109s-.084.129-.251.129h-3.958q-.155,0-.155-.122c0-.082.1-.123.3-.123a1.107,1.107,0,0,0,1.181-1.061q.048-.49.048-2.826Q1999.838,324.85,1999.7,322.9Z" transform="translate(-1980.534 -322.384)"/><path class="f" d="M2010.772,322.346h.3q.72,1.474,1.984,5.04a23.388,23.388,0,0,0,1.118,2.8,1.174,1.174,0,0,0,.975.576c.142.013.214.06.214.142,0,.06-.037.09-.11.09l-.09-.006c-.4-.035-.9-.052-1.507-.052-.935,0-1.536.015-1.8.045-.134,0-.2-.038-.2-.116,0-.055.048-.09.148-.1a1.832,1.832,0,0,0,.757-.187.47.47,0,0,0,.209-.425,6.226,6.226,0,0,0-.392-1.383l-.38-1.107q-.334,0-2.992.038a9.428,9.428,0,0,0-.671,2.249.631.631,0,0,0,.333.586,1.48,1.48,0,0,0,.653.211c.159.012.237.06.237.144q0,.05-.077.094-1.03-.045-1.242-.045c-.721,0-1.207.009-1.455.026-.138,0-.206-.039-.206-.116s.06-.112.18-.129a1.463,1.463,0,0,0,1.133-1.005q.392-.907,1.223-3.263Q2009.871,324.309,2010.772,322.346Zm-.256,1.4a32.23,32.23,0,0,0-1.4,3.553q.663-.033.951-.032l1.809.032q-.238-.67-.668-1.777Q2010.683,324.206,2010.516,323.749Z" transform="translate(-1982.86 -322.346)"/><path class="f" d="M2020.928,322.9c-.335-.017-.571-.025-.708-.025a2.9,2.9,0,0,0-2.016.581,2.267,2.267,0,0,0-.729,1.033c-.02.109-.078.162-.172.162a.166.166,0,0,1-.122-.062,17.751,17.751,0,0,1,.251-2.069l.392-.006q.5,0,1.345.052.908.052,2.781.052,1.917,0,2.5-.045.528-.051,1.448-.052a8.321,8.321,0,0,1,.1.966c.025.381.052.65.077.8a.931.931,0,0,1,.006.109c0,.1-.045.155-.134.155a.185.185,0,0,1-.138-.055,3.046,3.046,0,0,1-.247-.364,2.968,2.968,0,0,0-.7-.789,1.882,1.882,0,0,0-.805-.344,14.684,14.684,0,0,0-1.8-.1q-.077.972-.077,2.221a34.9,34.9,0,0,0,.177,4.873q.176.74,1.264.74c.177,0,.264.037.264.109s-.084.129-.251.129h-3.959c-.1,0-.154-.041-.154-.122s.1-.123.3-.123a1.1,1.1,0,0,0,1.181-1.061q.048-.49.049-2.826Q2021.064,324.85,2020.928,322.9Z" transform="translate(-1985.184 -322.384)"/><path class="f" d="M2036.4,322.628a19.034,19.034,0,0,1,.367,2.022c-.021.034-.044.052-.069.052a.145.145,0,0,1-.1-.052,5.241,5.241,0,0,0-.85-1.088,2.612,2.612,0,0,0-.814-.531,4.354,4.354,0,0,0-1.408-.158,7.988,7.988,0,0,0-1.488.109.4.4,0,0,0-.052.237,1.487,1.487,0,0,1-.013.161q-.064.514-.064,2.789c0,.064,0,.154.013.269q.49.02.669.02a2.184,2.184,0,0,0,1.176-.243,2,2,0,0,0,.634-1.045c.03-.09.073-.136.128-.136.081,0,.122.063.122.188l-.027.258c-.034.339-.051.69-.051,1.05q0,.877.032,1.581c0,.146-.04.219-.118.219-.059,0-.1-.052-.119-.155a1.7,1.7,0,0,0-.568-1.094,3.448,3.448,0,0,0-1.88-.334q-.02.469-.019,1.518a9.1,9.1,0,0,0,.1,1.726.94.94,0,0,0,.464.582,2.6,2.6,0,0,0,1.243.216q2.506,0,3.233-1.725c.06-.142.122-.212.185-.212s.1.048.1.141a.515.515,0,0,1-.032.168q-.04.122-.187.914-.031.168-.245,1l-2.7-.006q-.58,0-1.7-.049t-1.989-.051a5.233,5.233,0,0,1-.9-.036.092.092,0,0,1-.039-.07q0-.129.213-.129a1.007,1.007,0,0,0,.939-.38,4.528,4.528,0,0,0,.226-1.845l-.007-1.319.02-1.235q0-.372-.041-1.412a11.8,11.8,0,0,0-.078-1.186.589.589,0,0,0-.2-.293,2.005,2.005,0,0,0-.725-.292c-.111-.03-.166-.078-.166-.142s.074-.116.225-.116l1.313.071q.7.032,3.418.032Q2036.365,322.622,2036.4,322.628Z" transform="translate(-1987.869 -322.384)"/><path class="f" d="M2050.643,328.917a5.009,5.009,0,0,0,.9,1.371,1.014,1.014,0,0,0,.63.251,1.222,1.222,0,0,0,.817-.347.125.125,0,0,1,.078-.045.114.114,0,0,1,.128.129q0,.123-.586.489a2.176,2.176,0,0,1-1.164.367,1.112,1.112,0,0,1-.648-.209,4.217,4.217,0,0,1-.858-1.188,4.123,4.123,0,0,1-2.768,1.4,2.227,2.227,0,0,1-1.532-.554,1.778,1.778,0,0,1-.625-1.39,2.266,2.266,0,0,1,.509-1.432,7.023,7.023,0,0,1,1.719-1.42,3.15,3.15,0,0,1-1.165-2.02,1.509,1.509,0,0,1,.522-1.192,1.767,1.767,0,0,1,1.2-.457,1.646,1.646,0,0,1,1.068.383,1.231,1.231,0,0,1,.469,1,2.619,2.619,0,0,1-1.145,1.808,8.888,8.888,0,0,1,2.3,2.775,4.194,4.194,0,0,0,.83-2,.688.688,0,0,0-.2-.518.775.775,0,0,0-.563-.2c-.211,0-.315-.038-.315-.115a.119.119,0,0,1,.135-.136l1.134.045,1.519-.013c.119,0,.18.041.18.123s-.077.116-.231.116a1.123,1.123,0,0,0-.792.34,4.949,4.949,0,0,0-.779,1.3A6.537,6.537,0,0,1,2050.643,328.917Zm-3.187-2.368a4.251,4.251,0,0,0-1.032.914,2.019,2.019,0,0,0,.138,2.52,1.6,1.6,0,0,0,1.2.544,2.973,2.973,0,0,0,2.04-1.056,11.2,11.2,0,0,0-.93-1.471A14.527,14.527,0,0,0,2047.457,326.549Zm.515-.9a2.04,2.04,0,0,0,.824-1.5,1.178,1.178,0,0,0-.322-.821.991.991,0,0,0-.753-.351.8.8,0,0,0-.65.3,1.05,1.05,0,0,0-.244.689Q2046.826,324.721,2047.972,325.648Z" transform="translate(-1991.282 -322.416)"/><path class="f" d="M2065.357,326.4a4.074,4.074,0,0,1,1.793.882,1.83,1.83,0,0,1,.6,1.378,2.225,2.225,0,0,1-.74,1.6,2.947,2.947,0,0,1-2.176.741q-.271,0-.863-.033l-.411-.019q-1.983,0-2.678.039c-.155,0-.232-.041-.232-.123a.092.092,0,0,1,.067-.09c.046-.016.212-.051.5-.1a.656.656,0,0,0,.4-.219,1.5,1.5,0,0,0,.226-.708,12.054,12.054,0,0,0,.077-1.59q0-1.044.026-1.684t.026-.982a14.441,14.441,0,0,0-.081-1.706,1.81,1.81,0,0,0-.229-.822.987.987,0,0,0-.605-.248c-.124-.017-.187-.062-.187-.135s.063-.116.187-.116l1.171.02c.383,0,.741-.009,1.075-.026q1.126-.059,1.455-.058a3.106,3.106,0,0,1,1.893.521,1.681,1.681,0,0,1,.7,1.421,1.755,1.755,0,0,1-.458,1.216A3.347,3.347,0,0,1,2065.357,326.4Zm-2.208.3a1.229,1.229,0,0,0-.09.559l-.045,2a5.943,5.943,0,0,0,.055,1.178c.036.081.161.15.373.206a4.333,4.333,0,0,0,1.007.084,2.444,2.444,0,0,0,.995-.171,1.7,1.7,0,0,0,.706-.672,2.188,2.188,0,0,0,.321-1.2,1.841,1.841,0,0,0-.614-1.532,2.882,2.882,0,0,0-1.819-.489C2063.768,326.652,2063.471,326.667,2063.15,326.7Zm0-3.837q-.057,1.409-.058,2.285l.007.953a.365.365,0,0,0,.054.244.524.524,0,0,0,.3.052,3.767,3.767,0,0,0,1.963-.447,1.9,1.9,0,0,0,.19-2.839,2.12,2.12,0,0,0-1.367-.441A3.645,3.645,0,0,0,2063.15,322.861Z" transform="translate(-1994.706 -322.359)"/><path class="f" d="M2070.956,322.56h3.224c.184,0,.277.039.277.116s-.069.123-.205.135a1.136,1.136,0,0,0-.676.251,1.41,1.41,0,0,0-.331.727,13.541,13.541,0,0,0-.112,2.233,22.624,22.624,0,0,0,.119,2.846,1.849,1.849,0,0,0,.747,1.258,2.8,2.8,0,0,0,1.709.467,2.909,2.909,0,0,0,1.725-.431,2.02,2.02,0,0,0,.769-1.281,23.346,23.346,0,0,0,.177-3.689,3.937,3.937,0,0,0-.3-1.915,1.007,1.007,0,0,0-.894-.454c-.159,0-.239-.045-.239-.135s.105-.129.315-.129h2.574c.117,0,.174.043.174.129,0,.06-.047.1-.141.109a1.208,1.208,0,0,0-.719.309,1.51,1.51,0,0,0-.3.862,17.757,17.757,0,0,0-.07,1.834,24.563,24.563,0,0,1-.113,2.568,3.335,3.335,0,0,1-.486,1.574,2.577,2.577,0,0,1-1.124.836,4.7,4.7,0,0,1-1.844.319,4.6,4.6,0,0,1-1.909-.358,2.041,2.041,0,0,1-1.068-.947,4.256,4.256,0,0,1-.28-1.761l.026-1.785a11.646,11.646,0,0,0-.2-2.908.854.854,0,0,0-.873-.544c-.145,0-.219-.035-.219-.106C2070.685,322.6,2070.775,322.56,2070.956,322.56Z" transform="translate(-1996.906 -322.393)"/><path class="f" d="M2084.1,322.478l1.174.026,1.8-.026c.215,0,.322.042.322.129,0,.064-.058.105-.174.122a1,1,0,0,0-.891.515,14.129,14.129,0,0,0-.177,3.142q0,1,.052,2.247a11.125,11.125,0,0,0,.115,1.493.761.761,0,0,0,.245.4,1.343,1.343,0,0,0,.669.219c.107.012.161.053.161.122s-.049.116-.148.116l-1.6-.012-1.361.019c-.151,0-.225-.042-.225-.128s.059-.136.179-.136c.4-.008.633-.141.7-.4a15.483,15.483,0,0,0,.1-2.466q0-2.007-.035-3.25a4,4,0,0,0-.209-1.519.876.876,0,0,0-.656-.348c-.12-.022-.18-.071-.18-.148S2084.009,322.478,2084.1,322.478Z" transform="translate(-1999.815 -322.375)"/><path class="f" d="M2092.41,322.538l1.326-.027a5.326,5.326,0,0,1,3.8,1.224,4.071,4.071,0,0,1,1.287,3.083,4.2,4.2,0,0,1-.618,2.3,4.114,4.114,0,0,1-1.544,1.47,5.245,5.245,0,0,1-2.472.5q-.348,0-.882-.038-.954-.077-1.068-.077-2.112,0-2.486.045c-.141,0-.212-.037-.212-.108a.1.1,0,0,1,.077-.1,4,4,0,0,1,.477-.076.942.942,0,0,0,.723-.412,6.2,6.2,0,0,0,.261-2.126l.1-3.408a7.961,7.961,0,0,0-.08-1.143,1.268,1.268,0,0,0-.251-.708,1.023,1.023,0,0,0-.544-.216c-.179-.026-.27-.075-.27-.148a.12.12,0,0,1,.135-.135c.087,0,.348.018.789.055S2091.886,322.538,2092.41,322.538Zm-.226,6.218a4.556,4.556,0,0,0,.113,1.213,1.088,1.088,0,0,0,.483.6,2.29,2.29,0,0,0,1.188.235,3.054,3.054,0,0,0,1.9-.553,3.7,3.7,0,0,0,1.135-1.474,4.753,4.753,0,0,0,.409-1.957,4.507,4.507,0,0,0-.934-2.775,3.394,3.394,0,0,0-2.9-1.242,4.566,4.566,0,0,0-1.021.059c-.1.038-.145.151-.145.34,0,.167-.016.466-.045.895q-.064.939-.084,1.468l-.058,1.77Q2092.184,328.576,2092.185,328.756Z" transform="translate(-2001.038 -322.364)"/><path class="f" d="M2109.616,322.628a18.971,18.971,0,0,1,.367,2.022c-.021.034-.044.052-.069.052a.144.144,0,0,1-.1-.052,5.253,5.253,0,0,0-.851-1.088,2.612,2.612,0,0,0-.814-.531,4.355,4.355,0,0,0-1.408-.158,7.983,7.983,0,0,0-1.488.109.4.4,0,0,0-.052.237,1.453,1.453,0,0,1-.012.161q-.064.514-.064,2.789c0,.064,0,.154.013.269.326.013.551.02.67.02a2.185,2.185,0,0,0,1.176-.243,2,2,0,0,0,.634-1.045c.03-.09.073-.136.128-.136.081,0,.122.063.122.188l-.027.258a10.489,10.489,0,0,0-.051,1.05q0,.877.032,1.581c0,.146-.04.219-.118.219-.058,0-.1-.052-.118-.155a1.7,1.7,0,0,0-.568-1.094,3.448,3.448,0,0,0-1.88-.334q-.019.469-.019,1.518a9.12,9.12,0,0,0,.1,1.726.941.941,0,0,0,.464.582,2.6,2.6,0,0,0,1.243.216q2.506,0,3.233-1.725c.059-.142.122-.212.185-.212s.1.048.1.141a.493.493,0,0,1-.032.168q-.038.122-.187.914-.031.168-.244,1l-2.7-.006q-.581,0-1.7-.049t-1.989-.051a5.234,5.234,0,0,1-.9-.036.092.092,0,0,1-.039-.07q0-.129.213-.129a1.007,1.007,0,0,0,.94-.38,4.523,4.523,0,0,0,.226-1.845l-.007-1.319.02-1.235q0-.372-.042-1.412t-.078-1.186a.589.589,0,0,0-.2-.293,2.009,2.009,0,0,0-.725-.292c-.111-.03-.167-.078-.167-.142s.075-.116.225-.116l1.313.071q.7.032,3.418.032Q2109.576,322.622,2109.616,322.628Z" transform="translate(-2003.909 -322.384)"/><path class="f" d="M2118.708,326.637a3.339,3.339,0,0,1,1.243.811,2.887,2.887,0,0,1,.515,1.3,3.183,3.183,0,0,0,.6,1.558,1.428,1.428,0,0,0,1.007.425c.116.008.174.05.174.125s-.067.112-.2.112a11.034,11.034,0,0,1-2.186-.119q-.383-.119-.569-1.317a10,10,0,0,0-.364-1.7,1.62,1.62,0,0,0-.6-.825,2.321,2.321,0,0,0-1.3-.286,4.624,4.624,0,0,0-.759.07c-.022.269-.032.551-.032.842q0,1.652.044,2.137a1.094,1.094,0,0,0,.274.707,1.114,1.114,0,0,0,.762.235c.156,0,.232.042.232.112s-.094.126-.283.126h-3.186c-.184,0-.277-.042-.277-.126s.073-.112.219-.112a1.151,1.151,0,0,0,.68-.148.979.979,0,0,0,.3-.46,3.915,3.915,0,0,0,.11-1.128l-.013-1.313.006-2a18.911,18.911,0,0,0-.067-2.026,1.178,1.178,0,0,0-.241-.665,1.609,1.609,0,0,0-.8-.267c-.091-.012-.135-.049-.135-.109s.09-.1.269-.1l3.811-.084a3.51,3.51,0,0,1,2.289.605,1.9,1.9,0,0,1,.425,2.489,1.8,1.8,0,0,1-.679.663A7.852,7.852,0,0,1,2118.708,326.637Zm-2.439-.164a9.4,9.4,0,0,0,1.854-.174,1.97,1.97,0,0,0,1.052-.65,1.761,1.761,0,0,0,.435-1.192,1.843,1.843,0,0,0-.483-1.267,1.977,1.977,0,0,0-1.545-.54,6,6,0,0,0-1.281.154q-.077,1.771-.077,2.82C2116.224,325.863,2116.239,326.148,2116.269,326.473Z" transform="translate(-2006.353 -322.36)"/><path class="f" d="M2129.931,322.992a.882.882,0,0,0,.232-.36c.034-.1.084-.155.148-.155a.175.175,0,0,1,.115.065q.046.231.129.933l.155,1.21c0,.077-.047.116-.141.116-.052,0-.1-.043-.135-.129a3.522,3.522,0,0,0-1.011-1.4,2.248,2.248,0,0,0-1.461-.553,1.448,1.448,0,0,0-1.174.47,1.524,1.524,0,0,0-.4,1,1.181,1.181,0,0,0,.431.985,6.342,6.342,0,0,0,1.777.772,7.463,7.463,0,0,1,1.484.6,2.467,2.467,0,0,1,.826.811,2.035,2.035,0,0,1,.335,1.119,2.456,2.456,0,0,1-.843,1.822,2.878,2.878,0,0,1-2.066.805,4.19,4.19,0,0,1-2.215-.689.817.817,0,0,0-.283.425c-.034.137-.09.205-.167.205s-.118-.087-.148-.263-.092-1.008-.186-2.5c.017-.051.062-.077.134-.077s.116.047.156.141q.99,2.49,2.767,2.491a1.8,1.8,0,0,0,1.381-.531,1.729,1.729,0,0,0,.5-1.22,1.535,1.535,0,0,0-.268-.875,2.011,2.011,0,0,0-.708-.644,8.286,8.286,0,0,0-1.393-.547,5.693,5.693,0,0,1-1.664-.743,2.211,2.211,0,0,1-.647-.792,2.013,2.013,0,0,1-.206-.853,1.962,1.962,0,0,1,.775-1.52,2.832,2.832,0,0,1,1.9-.662,3.214,3.214,0,0,1,.891.134A4.933,4.933,0,0,1,2129.931,322.992Z" transform="translate(-2008.879 -322.368)"/></g></g></g></svg>