<svg xmlns="http://www.w3.org/2000/svg" width="306" height="216" viewBox="0 0 306 216"><defs><style>.a{fill:#f7f7f7;}.b{fill:#231f20;}</style></defs><g transform="translate(-1129 -893)"><rect class="a" width="306" height="216" transform="translate(1129 893)"/><path class="b" d="M2393.307,353.883v-9.641h2.741v8.625Z" transform="translate(-1155.516 643.743)"/><path class="b" d="M2388.638,362l-.437,8.583-.029.581-.511.044-10.722.913,10.542-2.162-.541.624L2386.5,362Z" transform="translate(-1150.796 638.622)"/><g transform="translate(1222.638 964.027)"><path class="b" d="M2383.608,349.25l-3.416-1.025,22.481-19.065,1.755,2.166Z" transform="translate(-2374.372 -315.936)"/><path class="b" d="M2411.793,329.16l16.4,20.325,15.542,1.2-14.347-16.71Z" transform="translate(-2383.484 -315.936)"/><rect class="b" width="2.007" height="2.007" transform="translate(24.211 25.693)"/><rect class="b" width="2.007" height="2.007" transform="translate(27.307 25.693)"/><rect class="b" width="2.007" height="2.007" transform="translate(24.211 29.109)"/><rect class="b" width="2.007" height="2.007" transform="translate(27.307 29.109)"/><path class="b" d="M2467.485,351.771v-2.22l18.19-16.61-18.19,3.459-14.041,12.695,2.3,2.677Z" transform="translate(-2395.493 -317.026)"/><path class="b" d="M2513.379,353.052h3.459l-18.83-20.111-1.793,2.121Z" transform="translate(-2407.826 -317.026)"/><path class="b" d="M2518.69,356.28l-.484,8.241-.713-.911,12.178,3.986-12.63-2.163-.666-.114-.047-.8-.485-8.241Z" transform="translate(-2413.486 -323.755)"/><rect class="b" width="2.146" height="2.146" transform="translate(85.826 27.844)"/><rect class="b" width="2.146" height="2.146" transform="translate(88.772 27.844)"/><rect class="b" width="2.146" height="2.146" transform="translate(85.826 30.854)"/><rect class="b" width="2.146" height="2.146" transform="translate(88.772 30.854)"/><path class="b" d="M2452.529,316.5l-13.2,12.112,6.6,7.294h5.742l27.375-25.33Z" transform="translate(-2391.424 -310.577)"/><path class="b" d="M2510.7,325.307v-2.562l2.882-1.025,3.928,1.793v8.312Z" transform="translate(-2412.004 -313.79)"/><path class="b" d="M2519.06,338.935h-8.284v-3.859l-18.7-20.069,2.53-2.647Z" transform="translate(-2406.632 -311.091)"/><path class="b" d="M2372.013,370.648c9.644-1.375,19.351-2.308,29.076-2.917,4.863-.327,9.733-.52,14.6-.688,4.872-.15,9.748-.182,14.625-.174,9.751.092,19.515.5,29.223,1.568a140.34,140.34,0,0,1,28.656,5.755,145.119,145.119,0,0,0-14.338-2.589c-4.806-.666-9.635-1.146-14.471-1.507-4.839-.341-9.679-.653-14.53-.791-4.848-.174-9.7-.3-14.555-.3-9.708-.093-19.422.1-29.137.386-4.856.157-9.715.33-14.573.55C2381.732,370.11,2376.877,370.4,2372.013,370.648Z" transform="translate(-2372.013 -326.808)"/><path class="b" d="M2375.043,375.794c9.645-1.375,19.35-2.308,29.076-2.916,4.863-.327,9.733-.52,14.6-.689,4.872-.149,9.748-.182,14.625-.174,9.752.093,19.515.5,29.223,1.568a140.333,140.333,0,0,1,28.656,5.755,145.09,145.09,0,0,0-14.339-2.589c-4.805-.666-9.634-1.146-14.47-1.507-4.839-.341-9.679-.653-14.53-.791-4.848-.174-9.7-.3-14.555-.3-9.708-.092-19.421.1-29.136.386-4.856.157-9.715.331-14.573.55C2384.763,375.256,2379.907,375.542,2375.043,375.794Z" transform="translate(-2372.887 -328.292)"/></g><g transform="translate(1222 1017.563)"><path class="b" d="M2384.638,410.074v-.917c2.129-.263,2.391-.59,1.932-1.834-.426-1.277-1.08-2.914-1.768-4.977h-7.072c-.523,1.474-1.014,2.751-1.472,4.093-.721,2.128-.262,2.39,2.423,2.718v.917h-7.564v-.917c2.063-.263,2.587-.492,3.733-3.438l6.777-17.189,1.047-.2c2.063,5.6,4.322,11.786,6.384,17.451,1.048,2.848,1.343,3.11,3.667,3.373v.917Zm-3.273-17.451c-1.048,2.815-2.161,5.8-3.143,8.382h6.121Z" transform="translate(-2371.117 -386.533)"/><path class="b" d="M2403.409,409.344v-.917c2.1-.2,2.358-.36,2.358-2.521V390.223c0-2-.164-2.193-2.26-2.455v-.851a23.189,23.189,0,0,0,4.846-1.113v20.1c0,2.161.2,2.324,2.325,2.521v.917Z" transform="translate(-2380.428 -385.804)"/><path class="b" d="M2424.325,409.056h-7.531l.229-2h7.531Z" transform="translate(-2384.288 -391.932)"/><path class="b" d="M2442.674,388.334a10.524,10.524,0,0,1,10.607,10.8c0,7.04-4.911,11.427-10.935,11.427a10.648,10.648,0,0,1-10.739-10.935C2431.607,393.77,2435.765,388.334,2442.674,388.334Zm-.655,1.211c-3.667,0-7.007,3.078-7.007,9.2s3.34,10.575,7.988,10.575c3.667,0,6.94-2.946,6.94-9.264C2449.941,393.18,2446.307,389.545,2442.019,389.545Zm2.193,18.892a43.42,43.42,0,0,0,10.116,6.09l-.229.786a20.55,20.55,0,0,1-4.42-.426c-2.259-.622-6.122-3.437-8.774-5.3Z" transform="translate(-2388.559 -386.533)"/><path class="b" d="M2476.538,413.292a2.4,2.4,0,0,1-1.539-.622,3.062,3.062,0,0,1-.786-1.473c-1.31.884-2.914,2.1-3.928,2.1a4.016,4.016,0,0,1-4-4.027c0-1.6.885-2.652,2.685-3.274a25.742,25.742,0,0,0,5.173-2.129v-.655c0-2.324-1.179-3.667-2.882-3.667a1.9,1.9,0,0,0-1.538.754,7.033,7.033,0,0,0-.884,2.128.911.911,0,0,1-.949.754,1.575,1.575,0,0,1-1.441-1.441c0-.458.425-.851,1.08-1.31a13.752,13.752,0,0,1,4.714-2.291,4.3,4.3,0,0,1,4.42,4.681v6.319c0,1.506.557,1.964,1.146,1.964a2.609,2.609,0,0,0,1.178-.359l.328.917Zm-2.39-8.282c-.72.36-2.292,1.047-3.045,1.374-1.245.557-2,1.179-2,2.39a2.382,2.382,0,0,0,2.358,2.521,4.354,4.354,0,0,0,2.685-1.179Z" transform="translate(-2398.559 -389.359)"/><path class="b" d="M2502.541,408.525a34.843,34.843,0,0,0-5.075,1.211v-2.128c-.589.36-1.44.819-2.03,1.179a5.944,5.944,0,0,1-2.586.949c-2.619,0-6.09-2.618-6.09-7.2,0-4.55,3.994-7.955,8.479-7.955a6.657,6.657,0,0,1,2.227.359v-4.812c0-2.1-.229-2.161-2.554-2.358v-.851a32.641,32.641,0,0,0,5.141-1.113v19.742c0,1.7.229,1.932,1.44,2l1.048.065Zm-5.075-11a4.1,4.1,0,0,0-3.438-1.67c-1.571,0-4.354,1.047-4.354,5.762,0,3.962,2.456,6.057,4.551,6.09a5.885,5.885,0,0,0,3.241-1.178Z" transform="translate(-2404.462 -385.804)"/><path class="b" d="M2511.094,410.14v-.917c2.062-.2,2.291-.36,2.291-2.587v-6.744c0-2.03-.1-2.161-2.063-2.489v-.785a21.437,21.437,0,0,0,4.65-1.31v11.328c0,2.227.229,2.39,2.357,2.587v.917Zm3.4-18.04a1.791,1.791,0,0,1-1.735-1.735,1.768,1.768,0,0,1,1.768-1.8,1.71,1.71,0,0,1,1.67,1.8A1.741,1.741,0,0,1,2514.5,392.1Z" transform="translate(-2411.479 -386.6)"/><path class="b" d="M2531.136,412.859h-7.53v-.917c2.063-.2,2.259-.36,2.259-2.489v-6.81c0-2.161-.131-2.26-2.03-2.488v-.818a18.088,18.088,0,0,0,4.616-1.343v3.6c1.146-1.7,2.521-3.5,4.158-3.5a1.691,1.691,0,0,1,1.9,1.571,2.2,2.2,0,0,1-1.113,1.8.648.648,0,0,1-.852-.065,2.063,2.063,0,0,0-1.472-.818c-.688,0-1.9,1.014-2.62,2.684v6.156c0,2.161.164,2.324,2.685,2.521Z" transform="translate(-2415.086 -389.319)"/></g><g transform="translate(1222.378 1049.276)"><path class="b" d="M2377.242,436.514c-.052,0-.159,0-.267-.009-1.13-.053-1.458-.293-1.725-.667a16.094,16.094,0,0,1-.916-1.566.5.5,0,0,0-.542-.293l-.178-.009v1.3c0,.72.089.782.756.863v.329h-2.721v-.329c.677-.072.756-.143.756-.863v-3.406c0-.7-.089-.8-.756-.854v-.329h2.579a2.715,2.715,0,0,1,1.61.337,1.359,1.359,0,0,1,.6,1.183,1.518,1.518,0,0,1-1.112,1.441c.134.267.48.845.747,1.254a7.071,7.071,0,0,0,.676.925,1.083,1.083,0,0,0,.56.391Zm-3.388-2.909a1.3,1.3,0,0,0,.872-.231,1.266,1.266,0,0,0,.418-1.04c0-.942-.542-1.28-1.041-1.28-.24,0-.356.036-.409.088s-.08.161-.08.339v2.125Z" transform="translate(-2371.648 -430.457)"/><path class="b" d="M2385.437,434.942c-.044.239-.293,1.262-.373,1.512h-4.616v-.321c.809-.08.863-.124.863-.871v-3.4c0-.756-.107-.809-.711-.863v-.329h2.891c.934,0,1.245-.009,1.37-.018.008.161.052.89.089,1.442l-.347.044a2.24,2.24,0,0,0-.383-.828c-.159-.178-.275-.231-.729-.231h-.579c-.337,0-.374.017-.374.32v1.859h.872c.5,0,.587-.133.72-.765h.347v1.983h-.347c-.142-.658-.213-.764-.729-.764h-.863v1.529c0,.614.018.8.569.809h.631c.5,0,.632-.062.828-.3a3.99,3.99,0,0,0,.542-.89Z" transform="translate(-2374.185 -430.45)"/><path class="b" d="M2392.077,436.41v-.329c.561-.081.561-.178.436-.561-.089-.267-.231-.667-.365-1.023h-1.734c-.1.275-.222.613-.311.889-.187.561.026.632.729.695v.329h-2.2v-.329c.56-.072.7-.152,1.005-.9l1.85-4.6.426-.08c.569,1.548,1.174,3.13,1.752,4.615.33.828.409.89.988.961v.329Zm-.783-4.251c-.258.64-.507,1.236-.729,1.885h1.414Z" transform="translate(-2376.546 -430.407)"/><path class="b" d="M2402.784,434.9c-.07.382-.319,1.325-.4,1.566h-4.411v-.329c.782-.054.854-.116.854-.863v-3.388c0-.747-.089-.818-.757-.872v-.329h2.775v.329c-.694.062-.783.125-.783.872v3.451c0,.489.018.712.508.72.018.009.427.009.462.009a.9.9,0,0,0,.854-.347,3.732,3.732,0,0,0,.56-.925Z" transform="translate(-2379.239 -430.457)"/><path class="b" d="M2414.174,434.942c-.044.239-.293,1.262-.373,1.512h-4.616v-.321c.809-.08.863-.124.863-.871v-3.4c0-.756-.107-.809-.712-.863v-.329h2.891c.934,0,1.245-.009,1.37-.018.009.161.052.89.089,1.442l-.347.044a2.236,2.236,0,0,0-.383-.828c-.159-.178-.275-.231-.729-.231h-.578c-.338,0-.374.017-.374.32v1.859h.872c.5,0,.586-.133.719-.765h.347v1.983h-.347c-.142-.658-.213-.764-.729-.764h-.862v1.529c0,.614.018.8.569.809h.631c.5,0,.631-.062.827-.3a3.981,3.981,0,0,0,.542-.89Z" transform="translate(-2382.471 -430.45)"/><path class="b" d="M2421.007,432.1c-.178-.569-.426-1.219-1.245-1.219a.82.82,0,0,0-.853.863c0,.489.329.783,1.112,1.173.952.472,1.556.934,1.556,1.814a1.917,1.917,0,0,1-2.143,1.815,5.137,5.137,0,0,1-1.495-.276c-.053-.2-.2-1.129-.267-1.546l.347-.081c.178.561.676,1.53,1.548,1.53a.819.819,0,0,0,.872-.907c0-.515-.321-.818-1.067-1.218-.925-.5-1.53-.942-1.53-1.867s.73-1.672,2.064-1.672a6.623,6.623,0,0,1,1.272.159c.036.329.1.792.169,1.352Z" transform="translate(-2384.919 -430.407)"/><path class="b" d="M2429.534,432.128a2.741,2.741,0,0,0-.383-.872c-.16-.187-.231-.258-.756-.258h-.569v4.18c0,.747.089.8.88.863v.329h-2.952v-.329c.756-.063.836-.116.836-.863V431h-.543c-.5,0-.64.08-.809.293a3.4,3.4,0,0,0-.365.845h-.338c.062-.649.125-1.343.142-1.77h.267c.134.2.24.223.507.223h3.558a.59.59,0,0,0,.516-.223h.258c.009.374.045,1.156.089,1.735Z" transform="translate(-2386.898 -430.367)"/><path class="b" d="M2435.464,436.41v-.329c.562-.081.562-.178.437-.561-.089-.267-.231-.667-.365-1.023H2433.8c-.1.275-.222.613-.311.889-.187.561.027.632.729.695v.329h-2.2v-.329c.561-.072.7-.152,1.006-.9l1.849-4.6.427-.08c.569,1.548,1.173,3.13,1.752,4.615.33.828.409.89.987.961v.329Zm-.782-4.251c-.258.64-.507,1.236-.73,1.885h1.415Z" transform="translate(-2389.056 -430.407)"/><path class="b" d="M2445.383,432.128a2.727,2.727,0,0,0-.383-.872c-.16-.187-.231-.258-.755-.258h-.57v4.18c0,.747.089.8.88.863v.329H2441.6v-.329c.756-.063.836-.116.836-.863V431h-.543c-.5,0-.641.08-.809.293a3.38,3.38,0,0,0-.365.845h-.337c.062-.649.125-1.343.142-1.77h.267c.134.2.241.223.508.223h3.557a.589.589,0,0,0,.516-.223h.258c.009.374.044,1.156.089,1.735Z" transform="translate(-2391.468 -430.367)"/><path class="b" d="M2454.162,434.942c-.045.239-.293,1.262-.374,1.512h-4.616v-.321c.81-.08.863-.124.863-.871v-3.4c0-.756-.108-.809-.712-.863v-.329h2.89c.934,0,1.245-.009,1.37-.018.009.161.052.89.089,1.442l-.347.044a2.22,2.22,0,0,0-.382-.828c-.16-.178-.276-.231-.729-.231h-.578c-.338,0-.374.017-.374.32v1.859h.872c.5,0,.586-.133.72-.765h.347v1.983h-.347c-.142-.658-.214-.764-.729-.764h-.863v1.529c0,.614.018.8.569.809h.631c.5,0,.632-.062.827-.3a3.946,3.946,0,0,0,.543-.89Z" transform="translate(-2394.002 -430.45)"/><path class="b" d="M2466.927,432.945a1.045,1.045,0,0,0-.978.578c-.259.32-.508.649-.783,1.031a11.625,11.625,0,0,1,1.591,1.877l-.044.106a2.845,2.845,0,0,1-1.556-.311c-.116-.115-.409-.4-.729-.729a2.183,2.183,0,0,1-1.743,1.04,1.708,1.708,0,0,1-1.851-1.654c0-.747.4-1.067,1.272-1.592a1.735,1.735,0,0,1-.614-1.28,1.554,1.554,0,0,1,1.628-1.494,1.344,1.344,0,0,1,1.494,1.289.91.91,0,0,1-.391.756c-.223.16-.445.294-.72.454.249.2.773.685,1.4,1.272a5.074,5.074,0,0,0,.453-.747c.186-.391.168-.534-.48-.6v-.338h2.054Zm-3.816,2.775a1.436,1.436,0,0,0,1.05-.507,24.061,24.061,0,0,0-1.805-1.68,1.111,1.111,0,0,0-.4.942A1.135,1.135,0,0,0,2463.111,435.72Zm-.071-4.839a.669.669,0,0,0-.6.747c0,.445.2.7.792,1.166a1.175,1.175,0,0,0,.5-1.033C2463.725,431.309,2463.511,430.881,2463.04,430.881Z" transform="translate(-2397.364 -430.41)"/><path class="b" d="M2477.488,433.277c.934.169,1.592.613,1.592,1.458a1.6,1.6,0,0,1-.854,1.352,3.512,3.512,0,0,1-1.689.374h-2.49v-.329c.685-.072.756-.116.756-.863v-3.388c0-.747-.116-.827-.747-.872v-.329h2.7a2.621,2.621,0,0,1,1.459.311,1.143,1.143,0,0,1,.542.987A1.457,1.457,0,0,1,2477.488,433.277Zm-1.129-.116c.845,0,1.156-.364,1.156-1.023a.961.961,0,0,0-1-1.068.843.843,0,0,0-.418.071c-.1.063-.089.142-.089.329v1.689Zm-.347,2.09c0,.641.293.836.774.827s.969-.436.969-1.263c0-.863-.436-1.272-1.432-1.272h-.311Z" transform="translate(-2401.174 -430.457)"/><path class="b" d="M2488.475,431.009c-.569.053-.721.222-.756.542a11.438,11.438,0,0,0-.045,1.192v1.165a2.936,2.936,0,0,1-.631,2.072,2.306,2.306,0,0,1-1.672.613,2.534,2.534,0,0,1-1.592-.462,2.146,2.146,0,0,1-.765-1.93v-2.25c0-.818-.08-.881-.756-.943v-.329h2.748v.329c-.667.062-.747.125-.747.943v2.366c0,1,.49,1.654,1.441,1.654,1.058,0,1.521-.783,1.521-2.116v-1.112c0-.613-.027-.934-.044-1.2-.036-.408-.285-.5-.907-.533v-.329h2.205Z" transform="translate(-2403.542 -430.457)"/><path class="b" d="M2492.184,436.461v-.329c.675-.063.756-.116.756-.863v-3.388c0-.747-.089-.818-.756-.872v-.329h2.747v.329c-.667.062-.756.125-.756.872v3.388c0,.738.081.791.756.863v.329Z" transform="translate(-2406.404 -430.457)"/><path class="b" d="M2502.345,434.9c-.071.382-.32,1.325-.4,1.566h-4.411v-.329c.783-.054.854-.116.854-.863v-3.388c0-.747-.089-.818-.756-.872v-.329h2.774v.329c-.693.062-.782.125-.782.872v3.451c0,.489.018.712.508.72.017.009.426.009.462.009a.9.9,0,0,0,.854-.347,3.68,3.68,0,0,0,.56-.925Z" transform="translate(-2407.946 -430.457)"/><path class="b" d="M2508.177,430.68a3.572,3.572,0,0,1,2.543.773,2.527,2.527,0,0,1,.8,1.939,2.791,2.791,0,0,1-1.111,2.321,4.067,4.067,0,0,1-2.517.747h-2.446v-.329c.676-.054.756-.134.756-.873v-3.379c0-.747-.1-.818-.756-.872v-.329Zm-.739,4.518c0,.631.161.845.81.845,1.2,0,1.894-.836,1.894-2.517a2.743,2.743,0,0,0-.64-1.966,1.873,1.873,0,0,0-1.432-.5.8.8,0,0,0-.534.124c-.08.081-.1.232-.1.49Z" transform="translate(-2410.228 -430.457)"/><path class="b" d="M2520.473,434.942c-.044.239-.293,1.262-.373,1.512h-4.616v-.321c.81-.08.863-.124.863-.871v-3.4c0-.756-.107-.809-.712-.863v-.329h2.891c.934,0,1.245-.009,1.37-.018.008.161.053.89.089,1.442l-.348.044a2.224,2.224,0,0,0-.382-.828c-.159-.178-.275-.231-.729-.231h-.578c-.337,0-.373.017-.373.32v1.859h.872c.5,0,.586-.133.719-.765h.347v1.983h-.347c-.143-.658-.214-.764-.729-.764h-.863v1.529c0,.614.017.8.57.809h.631c.5,0,.632-.062.828-.3a3.98,3.98,0,0,0,.542-.89Z" transform="translate(-2413.122 -430.45)"/><path class="b" d="M2529.39,436.514c-.053,0-.16,0-.267-.009-1.129-.053-1.458-.293-1.725-.667a16.043,16.043,0,0,1-.916-1.566.5.5,0,0,0-.542-.293l-.178-.009v1.3c0,.72.089.782.756.863v.329H2523.8v-.329c.676-.072.756-.143.756-.863v-3.406c0-.7-.089-.8-.756-.854v-.329h2.579a2.715,2.715,0,0,1,1.61.337,1.359,1.359,0,0,1,.6,1.183,1.518,1.518,0,0,1-1.112,1.441c.134.267.48.845.747,1.254a7.184,7.184,0,0,0,.675.925,1.091,1.091,0,0,0,.561.391ZM2526,433.606a1.3,1.3,0,0,0,.871-.231,1.266,1.266,0,0,0,.418-1.04c0-.942-.543-1.28-1.041-1.28-.24,0-.356.036-.409.088s-.079.161-.079.339v2.125Z" transform="translate(-2415.519 -430.457)"/><path class="b" d="M2536.244,432.1c-.178-.569-.427-1.219-1.245-1.219a.819.819,0,0,0-.853.863c0,.489.328.783,1.111,1.173.952.472,1.557.934,1.557,1.814a1.918,1.918,0,0,1-2.143,1.815,5.139,5.139,0,0,1-1.495-.276c-.053-.2-.2-1.129-.267-1.546l.347-.081c.178.561.676,1.53,1.547,1.53a.819.819,0,0,0,.872-.907c0-.515-.32-.818-1.068-1.218-.925-.5-1.529-.942-1.529-1.867s.729-1.672,2.063-1.672a6.614,6.614,0,0,1,1.272.159c.036.329.1.792.169,1.352Z" transform="translate(-2418.147 -430.407)"/></g></g></svg>