<svg xmlns="http://www.w3.org/2000/svg" width="306" height="216" viewBox="0 0 306 216"><defs><style>.a{fill:#f7f7f7;}.b{fill:#444877;}.c{fill:#fff;stroke:#000;stroke-miterlimit:10;stroke-width:0.5px;}</style></defs><g transform="translate(-4675 -893)"><rect class="a" width="306" height="216" transform="translate(4675 893)"/><g transform="translate(4773 955.146)"><g transform="translate(23.739 8.623)"><g transform="translate(2.385 12.096)"><g transform="translate(6.291)"><path d="M1564.352,1902.436h-20.765v-12.523h-4.3l.161,12.523h-10.632v-20.3h-4.922l20.352-15.539,10.285,7.246.1-3.763h5.808l.669,7.774,8.519,6.068h-5.276Zm-19.425-1.339h18.085v-18.6h2.442l-5.627-4.027-.617-7.2h-3.276l-.137,4.982-11.524-8.155-16.435,12.6h2.313V1901.1h7.935l-.161-12.579h7Z" transform="translate(-1523.89 -1866.598)"/></g><circle cx="4.616" cy="4.616" r="4.616" transform="translate(23.095 7.783)"/><path d="M1524.763,1901.837a17.132,17.132,0,0,1-10.264-15.694v-2.42a17.144,17.144,0,0,1,17.124-17.124h23.517a17.144,17.144,0,0,1,17.125,17.124v2.42a17.17,17.17,0,0,1-10.053,15.6l-.553-1.22a15.826,15.826,0,0,0,9.267-14.38v-2.42a15.8,15.8,0,0,0-15.785-15.784h-23.517a15.8,15.8,0,0,0-15.785,15.784v2.42a15.792,15.792,0,0,0,9.463,14.468Z" transform="translate(-1514.498 -1866.598)"/></g><g transform="translate(1.969)"><path d="M1519.039,1852.728a2.01,2.01,0,0,1,1.664,2.147,2.367,2.367,0,0,1-.736,1.8,2.832,2.832,0,0,1-2.074.723h-4.015v-8.584h3.991a2.894,2.894,0,0,1,1.875.561,1.868,1.868,0,0,1,.693,1.537,1.842,1.842,0,0,1-.362,1.157A1.929,1.929,0,0,1,1519.039,1852.728Zm-1.483-2.472h-1.893v1.869h1.821a1.378,1.378,0,0,0,.9-.253.863.863,0,0,0,.3-.7Q1518.689,1850.256,1517.556,1850.256Zm-1.893,5.631h1.917a1.491,1.491,0,0,0,1.025-.313,1.107,1.107,0,0,0,.35-.868,1.055,1.055,0,0,0-.338-.838,1.4,1.4,0,0,0-.952-.3h-2Z" transform="translate(-1513.878 -1848.628)"/><path d="M1533.536,1857.393h-1.905l-.579-1.784h-3.111l-.578,1.784h-1.893l3.038-8.584h2.062Zm-4.763-4.316-.349,1.061h2.158l-.35-1.061-.723-2.472Z" transform="translate(-1517.706 -1848.628)"/><path d="M1542.517,1852.663h3.581v4.641h-1.157l-.278-.928a2.673,2.673,0,0,1-2.4,1.121,3.593,3.593,0,0,1-2.785-1.23,5.261,5.261,0,0,1,.013-6.51,3.727,3.727,0,0,1,2.869-1.219,3.924,3.924,0,0,1,2.507.754,3.251,3.251,0,0,1,1.17,2.141l-1.748.109a1.774,1.774,0,0,0-.6-1.085,1.875,1.875,0,0,0-1.229-.386,2.03,2.03,0,0,0-1.7.8,3.422,3.422,0,0,0-.615,2.146,3.592,3.592,0,0,0,.615,2.206,2.008,2.008,0,0,0,1.7.82,2.066,2.066,0,0,0,1.4-.489,2.172,2.172,0,0,0,.7-1.393h-2.037Z" transform="translate(-1521.96 -1848.539)"/><path d="M1557.516,1852.125v-3.316h1.784v8.584h-1.784v-3.677h-3.352v3.677h-1.785v-8.584h1.785v3.316Z" transform="translate(-1526.59 -1848.628)"/><path d="M1565.178,1848.809h3.159q4.075,0,4.075,4.292a4.7,4.7,0,0,1-.97,3.171,3.579,3.579,0,0,1-2.864,1.121h-3.4Zm1.785,7.077h1.386a2.138,2.138,0,0,0,1.76-.645,3.446,3.446,0,0,0,.518-2.14,3.517,3.517,0,0,0-.542-2.194,2.518,2.518,0,0,0-1.977-.652h-1.145Z" transform="translate(-1530.816 -1848.628)"/><path d="M1584.836,1857.393h-1.9l-.579-1.784h-3.111l-.578,1.784h-1.893l3.038-8.584h2.062Zm-4.763-4.316-.349,1.061h2.157l-.35-1.061-.723-2.472Z" transform="translate(-1534.643 -1848.628)"/><path d="M1590.558,1848.809h3.158q4.076,0,4.075,4.292a4.7,4.7,0,0,1-.97,3.171,3.58,3.58,0,0,1-2.863,1.121h-3.4Zm1.785,7.077h1.387a2.138,2.138,0,0,0,1.76-.645,3.448,3.448,0,0,0,.518-2.14,3.515,3.515,0,0,0-.542-2.194,2.518,2.518,0,0,0-1.977-.652h-1.145Z" transform="translate(-1539.196 -1848.628)"/></g><g transform="translate(0 51.072)"><path d="M1517.6,1932.179h-1.316l-.622-1.788h-2.793l-.633,1.788h-1.3l2.653-7.153h1.4Zm-3.747-4.592-.623,1.778h2.079l-.613-1.778-.422-1.407Z" transform="translate(-1510.938 -1924.865)"/><path d="M1524.831,1932.291a3.265,3.265,0,0,1-2.135-.634,2.429,2.429,0,0,1-.839-1.828h1.185q.111,1.467,1.8,1.467a1.991,1.991,0,0,0,1.16-.287.928.928,0,0,0,.407-.808.829.829,0,0,0-.3-.672,2.368,2.368,0,0,0-.995-.4l-1.166-.271q-1.879-.432-1.879-1.929a2,2,0,0,1,.683-1.537,2.78,2.78,0,0,1,1.919-.6,3.043,3.043,0,0,1,1.979.6,2.251,2.251,0,0,1,.824,1.657H1526.3a1.324,1.324,0,0,0-.5-.934,1.815,1.815,0,0,0-1.141-.331,1.685,1.685,0,0,0-1.025.276.882.882,0,0,0-.371.748q0,.714,1.034.935l1.346.311q2,.462,2,2.05a1.946,1.946,0,0,1-.739,1.6A3.237,3.237,0,0,1,1524.831,1932.291Z" transform="translate(-1514.543 -1924.785)"/><path d="M1534.687,1932.291a3.266,3.266,0,0,1-2.135-.634,2.434,2.434,0,0,1-.839-1.828h1.186q.11,1.467,1.8,1.467a2,2,0,0,0,1.161-.287.929.929,0,0,0,.406-.808.828.828,0,0,0-.3-.672,2.369,2.369,0,0,0-.994-.4l-1.166-.271q-1.88-.432-1.879-1.929a2,2,0,0,1,.682-1.537,2.781,2.781,0,0,1,1.92-.6,3.046,3.046,0,0,1,1.979.6,2.251,2.251,0,0,1,.823,1.657h-1.176a1.318,1.318,0,0,0-.5-.934,1.813,1.813,0,0,0-1.14-.331,1.684,1.684,0,0,0-1.025.276.883.883,0,0,0-.372.748q0,.714,1.035.935l1.347.311q2,.462,2,2.05a1.944,1.944,0,0,1-.739,1.6A3.235,3.235,0,0,1,1534.687,1932.291Z" transform="translate(-1517.797 -1924.785)"/><path d="M1545,1932.306a3.1,3.1,0,0,1-2.421-1.055,3.891,3.891,0,0,1-.955-2.733,3.815,3.815,0,0,1,.955-2.693A3.167,3.167,0,0,1,1545,1924.8a3.224,3.224,0,0,1,2.452,1.025,3.838,3.838,0,0,1,.954,2.693,3.893,3.893,0,0,1-.954,2.733A3.175,3.175,0,0,1,1545,1932.306Zm-1.557-1.808a1.906,1.906,0,0,0,1.567.743,1.934,1.934,0,0,0,1.578-.743,3.083,3.083,0,0,0,.593-1.979,3,3,0,0,0-.593-1.929,1.955,1.955,0,0,0-1.578-.724,1.908,1.908,0,0,0-1.567.724,2.994,2.994,0,0,0-.592,1.929A3.078,3.078,0,0,0,1543.446,1930.5Z" transform="translate(-1521.071 -1924.79)"/><path d="M1556.388,1932.306a2.986,2.986,0,0,1-2.371-1.044,3.979,3.979,0,0,1-.913-2.733,3.888,3.888,0,0,1,.913-2.7,3.015,3.015,0,0,1,2.371-1.025,3.175,3.175,0,0,1,2.04.653,2.6,2.6,0,0,1,.945,1.768h-1.185a1.69,1.69,0,0,0-.593-1,1.792,1.792,0,0,0-1.145-.357,1.873,1.873,0,0,0-1.557.713,3.065,3.065,0,0,0-.563,1.95,3.154,3.154,0,0,0,.567,1.979,1.859,1.859,0,0,0,1.553.733,1.732,1.732,0,0,0,1.216-.422,1.911,1.911,0,0,0,.573-1.186h1.176a2.907,2.907,0,0,1-.935,1.965A3.043,3.043,0,0,1,1556.388,1932.306Z" transform="translate(-1524.86 -1924.79)"/><path d="M1565.268,1932.179h-1.216v-7.153h1.216Z" transform="translate(-1528.475 -1924.865)"/><path d="M1573.938,1932.179h-1.316l-.622-1.788h-2.793l-.633,1.788h-1.3l2.652-7.153h1.4Zm-3.748-4.592-.622,1.778h2.079l-.613-1.778-.422-1.407Z" transform="translate(-1529.54 -1924.865)"/><path d="M1576.5,1925.026h5.748v1.074h-2.261v6.079h-1.216V1926.1H1576.5Z" transform="translate(-1532.586 -1924.865)"/><path d="M1587.724,1929v2.14h4.008v1.035h-5.225v-7.153h5.134v1.035h-3.918v1.9h3.566V1929Z" transform="translate(-1535.889 -1924.865)"/><path d="M1598.631,1932.291a3.264,3.264,0,0,1-2.135-.634,2.43,2.43,0,0,1-.839-1.828h1.186q.111,1.467,1.8,1.467a1.991,1.991,0,0,0,1.16-.287.928.928,0,0,0,.407-.808.827.827,0,0,0-.3-.672,2.362,2.362,0,0,0-.994-.4l-1.166-.271q-1.879-.432-1.879-1.929a2,2,0,0,1,.683-1.537,2.779,2.779,0,0,1,1.919-.6,3.046,3.046,0,0,1,1.979.6,2.254,2.254,0,0,1,.824,1.657H1600.1a1.322,1.322,0,0,0-.5-.934,1.811,1.811,0,0,0-1.14-.331,1.685,1.685,0,0,0-1.025.276.883.883,0,0,0-.372.748q0,.714,1.035.935l1.346.311q2,.462,2,2.05a1.945,1.945,0,0,1-.738,1.6A3.238,3.238,0,0,1,1598.631,1932.291Z" transform="translate(-1538.91 -1924.785)"/></g></g><path d="M1547.617,1911.45H1513.39a37.892,37.892,0,0,1,0-75.785h34.227a37.892,37.892,0,1,1,0,75.785ZM1513.39,1837a36.553,36.553,0,0,0,0,73.106h34.227a36.553,36.553,0,1,0,0-73.106Z" transform="translate(-1475.498 -1835.665)"/><g transform="translate(7.292 83.715)"><path class="b" d="M1498.99,1963.783a2.572,2.572,0,0,1-.455,1.451,3.7,3.7,0,0,1-1.356,1.172,6.521,6.521,0,0,1-2.125.679q2.579.824,2.58,3.035a3,3,0,0,1-.6,1.831,4.533,4.533,0,0,1-1.423,1.271,4.275,4.275,0,0,1-1.176.427,8.21,8.21,0,0,1-1.19.166q-.555.033-1.229.034h-5.634l.275-.873a1.16,1.16,0,0,0,.945-.36,3.138,3.138,0,0,0,.517-1.081l2.467-8.043a2.734,2.734,0,0,0,.151-.73q0-.9-1.11-.9l.256-.872h5.17a9.255,9.255,0,0,1,1.4.09,3.194,3.194,0,0,1,1.123.413,3.016,3.016,0,0,1,1.02.953A2.376,2.376,0,0,1,1498.99,1963.783ZM1495,1969.1q0-1.006-.479-1.271a2.54,2.54,0,0,0-1.238-.265h-1.338l-1.128,3.661a2.6,2.6,0,0,0-.152.815.793.793,0,0,0,.321.593,1.748,1.748,0,0,0,1.129.28,2.944,2.944,0,0,0,1.223-.27,2.465,2.465,0,0,0,1.072-1.247,5.848,5.848,0,0,0,.413-1.105A4.513,4.513,0,0,0,1495,1969.1Zm1.47-5.9q0-.844-.513-1.062a4.085,4.085,0,0,0-1.527-.218h-.759l-1.451,4.714h.873a3.863,3.863,0,0,0,1.384-.228,2.708,2.708,0,0,0,.883-.493,3.3,3.3,0,0,0,.787-1.267A4.149,4.149,0,0,0,1496.468,1963.2Z" transform="translate(-1486.385 -1960.757)"/><path class="b" d="M1515.707,1972.861l-.257.873h-5.842l.265-.873a2.958,2.958,0,0,0,1.129-.171,1.039,1.039,0,0,0,.569-.622,3.852,3.852,0,0,0,.17-1.3v-1.613h-4.04l-1.386,2.021a2.428,2.428,0,0,0-.5,1.081q0,.607,1.168.607h.54l-.265.873h-4.61l.275-.873a2.172,2.172,0,0,0,1.3-.65,11.047,11.047,0,0,0,1.419-1.683l6.971-9.883h1.651l-.134,10.718a2.378,2.378,0,0,0,.143.944.811.811,0,0,0,.474.431A2.88,2.88,0,0,0,1515.707,1972.861Zm-3.87-9.617-3.5,5.036h3.4Z" transform="translate(-1491.754 -1960.645)"/><path class="b" d="M1538.094,1968.176l-.293.873a1.149,1.149,0,0,0-.893.327,3.588,3.588,0,0,0-.549,1.172l-.949,3.092-1.129-.721a13.475,13.475,0,0,1-1.978.773,7.423,7.423,0,0,1-2.12.28,5.347,5.347,0,0,1-2.849-.7,4.207,4.207,0,0,1-1.665-1.849,5.834,5.834,0,0,1-.531-2.471,7.79,7.79,0,0,1,.616-3,9.236,9.236,0,0,1,1.718-2.7,8.282,8.282,0,0,1,2.556-1.911,6.933,6.933,0,0,1,3.049-.7,3.584,3.584,0,0,1,3.349,1.651,3.3,3.3,0,0,0,.778-1.347h.891l-.977,4.429h-.873a5.674,5.674,0,0,0-.37-2.172,2.551,2.551,0,0,0-2.542-1.688,3.591,3.591,0,0,0-2.267.8,6.716,6.716,0,0,0-1.725,2.063,11.486,11.486,0,0,0-1.082,2.727,10.906,10.906,0,0,0-.379,2.718,5.38,5.38,0,0,0,.185,1.366,2.609,2.609,0,0,0,.778,1.252,2.4,2.4,0,0,0,1.693.55,3.918,3.918,0,0,0,1.921-.512,2.611,2.611,0,0,0,1.247-1.678l.094-.352a2.015,2.015,0,0,0,.1-.521q0-.883-1.262-.882l.275-.873Z" transform="translate(-1499.18 -1960.645)"/><path class="b" d="M1561.974,1960.985l-.266.872a3.757,3.757,0,0,0-.948.09.91.91,0,0,0-.521.384,3.718,3.718,0,0,0-.4.948l-2.428,7.949a2.991,2.991,0,0,0-.17.815.738.738,0,0,0,.412.725,1.854,1.854,0,0,0,.831.2l-.256.873h-5.748l.275-.873a3.382,3.382,0,0,0,1.024-.119,1,1,0,0,0,.541-.413,3.7,3.7,0,0,0,.37-.91l1.224-3.965h-5.473l-1.129,3.661a3.682,3.682,0,0,0-.172.815.736.736,0,0,0,.423.731,1.8,1.8,0,0,0,.745.2l-.275.873h-5.264l.275-.873a1.538,1.538,0,0,0,.835-.194,1.184,1.184,0,0,0,.446-.489,5.327,5.327,0,0,0,.285-.759l2.428-7.939a3.4,3.4,0,0,0,.18-.8.789.789,0,0,0-.342-.726,1.326,1.326,0,0,0-.711-.214l.276-.872h5.539l-.275.872a4.308,4.308,0,0,0-1.024.09.917.917,0,0,0-.541.384,3.743,3.743,0,0,0-.4.948l-1.006,3.282h5.473l.911-2.969a3.462,3.462,0,0,0,.18-.778.823.823,0,0,0-.332-.73,1.411,1.411,0,0,0-.816-.228l.275-.872Z" transform="translate(-1505.662 -1960.757)"/><path class="b" d="M1582.193,1966.344a8.506,8.506,0,0,1-.17,1.683,7.557,7.557,0,0,1-.56,1.688,6.828,6.828,0,0,1-1.048,1.6,7.372,7.372,0,0,1-1.579,1.361,6.4,6.4,0,0,1-1.812.792,9.994,9.994,0,0,1-1.821.313q-.864.062-1.982.062h-5.113l.274-.873a1.129,1.129,0,0,0,.959-.365,3.555,3.555,0,0,0,.493-1.076l2.456-7.958a3.78,3.78,0,0,0,.172-.834q0-.55-.342-.7a2.477,2.477,0,0,0-.863-.181l.257-.872h4.524a13.488,13.488,0,0,1,1.954.123,4.625,4.625,0,0,1,1.641.6,4.39,4.39,0,0,1,2.062,2.143A6.752,6.752,0,0,1,1582.193,1966.344Zm-2.741-.854a4.766,4.766,0,0,0-.318-1.892,2.485,2.485,0,0,0-.829-1.081,2.926,2.926,0,0,0-1.12-.474,6.951,6.951,0,0,0-1.328-.119h-.464l-2.836,9.257a4.724,4.724,0,0,0-.17.815q0,.92,1.612.92a4.234,4.234,0,0,0,2.827-.938,6.614,6.614,0,0,0,1.773-2.486,9.9,9.9,0,0,0,.673-2.285A11.607,11.607,0,0,0,1579.452,1965.49Z" transform="translate(-1513.368 -1960.757)"/><path class="b" d="M1600.545,1972.861l-.256.873h-5.843l.266-.873a2.955,2.955,0,0,0,1.129-.171,1.038,1.038,0,0,0,.569-.622,3.835,3.835,0,0,0,.17-1.3v-1.613h-4.04l-1.386,2.021a2.428,2.428,0,0,0-.5,1.081q0,.607,1.168.607h.54l-.265.873h-4.61l.275-.873a2.174,2.174,0,0,0,1.3-.65,11.019,11.019,0,0,0,1.419-1.683l6.971-9.883h1.651l-.134,10.718a2.378,2.378,0,0,0,.143.944.812.812,0,0,0,.474.431A2.88,2.88,0,0,0,1600.545,1972.861Zm-3.87-9.617-3.5,5.036h3.405Z" transform="translate(-1519.766 -1960.645)"/><path class="b" d="M1621.907,1966.344a8.505,8.505,0,0,1-.17,1.683,7.532,7.532,0,0,1-.56,1.688,6.834,6.834,0,0,1-1.047,1.6,7.378,7.378,0,0,1-1.579,1.361,6.4,6.4,0,0,1-1.812.792,9.989,9.989,0,0,1-1.82.313q-.864.062-1.982.062h-5.113l.275-.873a1.128,1.128,0,0,0,.958-.365,3.541,3.541,0,0,0,.493-1.076l2.456-7.958a3.792,3.792,0,0,0,.171-.834q0-.55-.341-.7a2.482,2.482,0,0,0-.864-.181l.257-.872h4.524a13.5,13.5,0,0,1,1.954.123,4.629,4.629,0,0,1,1.641.6,4.392,4.392,0,0,1,2.062,2.143A6.752,6.752,0,0,1,1621.907,1966.344Zm-2.741-.854a4.77,4.77,0,0,0-.318-1.892,2.481,2.481,0,0,0-.83-1.081,2.919,2.919,0,0,0-1.119-.474,6.953,6.953,0,0,0-1.328-.119h-.464l-2.837,9.257a4.711,4.711,0,0,0-.17.815q0,.92,1.612.92a4.231,4.231,0,0,0,2.827-.938,6.609,6.609,0,0,0,1.774-2.486,9.911,9.911,0,0,0,.673-2.285A11.739,11.739,0,0,0,1619.167,1965.49Z" transform="translate(-1526.481 -1960.757)"/><g transform="translate(15.524 17.105)"><path class="c" d="M1511.907,1992.073l-.547,1.969h-1.8l2.346-7.674h2.277l2.38,7.674H1514.7l-.592-1.969Zm1.947-1.3-.478-1.629c-.137-.456-.273-1.024-.387-1.48h-.023c-.114.456-.228,1.036-.353,1.48l-.455,1.629Z" transform="translate(-1509.561 -1986.244)"/><path class="c" d="M1521.8,1992.194a4.428,4.428,0,0,0,1.924.478c.8,0,1.218-.33,1.218-.83,0-.479-.364-.752-1.287-1.082-1.275-.444-2.106-1.15-2.106-2.266,0-1.309,1.093-2.311,2.9-2.311a4.686,4.686,0,0,1,1.958.387l-.387,1.4a3.641,3.641,0,0,0-1.605-.365c-.751,0-1.116.342-1.116.74,0,.49.433.706,1.423,1.083,1.355.5,1.993,1.206,1.993,2.288,0,1.287-.991,2.379-3.1,2.379a5.019,5.019,0,0,1-2.175-.467Z" transform="translate(-1513.484 -1986.182)"/><path class="c" d="M1531.316,1992.194a4.43,4.43,0,0,0,1.924.478c.8,0,1.219-.33,1.219-.83,0-.479-.364-.752-1.287-1.082-1.275-.444-2.107-1.15-2.107-2.266,0-1.309,1.093-2.311,2.9-2.311a4.688,4.688,0,0,1,1.958.387l-.386,1.4a3.644,3.644,0,0,0-1.606-.365c-.752,0-1.116.342-1.116.74,0,.49.433.706,1.424,1.083,1.355.5,1.993,1.206,1.993,2.288,0,1.287-.99,2.379-3.1,2.379a5.014,5.014,0,0,1-2.175-.467Z" transform="translate(-1516.627 -1986.182)"/><path class="c" d="M1547.775,1990.064c0,2.517-1.525,4.042-3.768,4.042-2.276,0-3.61-1.719-3.61-3.9a3.715,3.715,0,0,1,3.735-4.019A3.576,3.576,0,0,1,1547.775,1990.064Zm-5.544.1c0,1.5.705,2.561,1.867,2.561s1.845-1.115,1.845-2.607c0-1.378-.661-2.562-1.856-2.562C1542.914,1987.56,1542.231,1988.676,1542.231,1990.167Z" transform="translate(-1519.742 -1986.182)"/><path class="c" d="M1558.915,1993.765a4.933,4.933,0,0,1-1.969.33,3.649,3.649,0,0,1-4.019-3.837,3.912,3.912,0,0,1,4.19-4.076,4.508,4.508,0,0,1,1.89.342l-.352,1.377a3.766,3.766,0,0,0-1.458-.284,2.523,2.523,0,0,0,.011,5.043,4.335,4.335,0,0,0,1.447-.251Z" transform="translate(-1523.879 -1986.182)"/><path class="c" d="M1565.65,1986.368v7.674h-1.742v-7.674Z" transform="translate(-1527.505 -1986.244)"/><path class="c" d="M1570.606,1992.073l-.547,1.969h-1.8l2.345-7.674h2.277l2.38,7.674h-1.868l-.592-1.969Zm1.947-1.3-.478-1.629c-.137-.456-.273-1.024-.387-1.48h-.023c-.114.456-.228,1.036-.353,1.48l-.455,1.629Z" transform="translate(-1528.942 -1986.244)"/><path class="c" d="M1580.367,1987.825h-2.061v-1.457h5.9v1.457h-2.1v6.217h-1.742Z" transform="translate(-1532.259 -1986.244)"/><path class="c" d="M1593.4,1990.8h-2.824v1.821h3.154v1.423h-4.9v-7.674h4.736v1.424h-2.994v1.594h2.824Z" transform="translate(-1535.733 -1986.244)"/><path class="c" d="M1598.158,1992.194a4.426,4.426,0,0,0,1.924.478c.8,0,1.218-.33,1.218-.83,0-.479-.364-.752-1.286-1.082-1.276-.444-2.106-1.15-2.106-2.266,0-1.309,1.093-2.311,2.9-2.311a4.688,4.688,0,0,1,1.958.387l-.386,1.4a3.645,3.645,0,0,0-1.606-.365c-.751,0-1.116.342-1.116.74,0,.49.434.706,1.424,1.083,1.356.5,1.993,1.206,1.993,2.288,0,1.287-.991,2.379-3.1,2.379a5.014,5.014,0,0,1-2.175-.467Z" transform="translate(-1538.697 -1986.182)"/></g></g></g><g transform="translate(4874.049 1035.394)"><g transform="translate(1.318 0.946)"><path d="M1630.009,1959.623l-.64-1.1h-.77v1.1h-.274v-2.742h1.1a.822.822,0,0,1,.656,1.318.807.807,0,0,1-.425.292l.67,1.132Zm-1.411-2.484v1.128h.823a.518.518,0,0,0,.388-.166.575.575,0,0,0,0-.8.524.524,0,0,0-.388-.164Z" transform="translate(-1628.324 -1956.881)"/></g><g transform="translate(0)"><path d="M1628.673,1960.1a2.317,2.317,0,1,1,2.317-2.317A2.32,2.32,0,0,1,1628.673,1960.1Zm0-4.377a2.06,2.06,0,1,0,2.06,2.06A2.063,2.063,0,0,0,1628.673,1955.726Z" transform="translate(-1626.356 -1955.469)"/></g></g></g></svg>