<svg xmlns="http://www.w3.org/2000/svg" width="306" height="216" viewBox="0 0 306 216"><defs><style>.a{fill:#f7f7f7;}.b,.c{fill:#6063a4;}.b,.c,.e{stroke:#fff;stroke-miterlimit:10;}.b,.e{stroke-width:0.4px;}.c{stroke-width:0.25px;}.d{fill:#424294;}.e{fill:#e95f69;}</style></defs><g transform="translate(-6929 -650)"><rect class="a" width="306" height="216" transform="translate(6929 650)"/><g transform="translate(7076.854 774.534)"><path class="b" d="M2755.8,1668.777H2753l-.362,1.9h3.137l-.268,1.433h-4.816l1.492-7.858h4.652l-.28,1.434H2753.6l-.327,1.679h2.8Z" transform="translate(-2750.693 -1663.834)"/><path class="b" d="M2758.511,1671.19a3.722,3.722,0,0,0,1.493.4c.478,0,.724-.233.724-.513s-.187-.479-.711-.735a1.793,1.793,0,0,1-1.213-1.515c0-1.178,1.038-1.96,2.508-1.96a3.142,3.142,0,0,1,1.468.292l-.4,1.19a2.662,2.662,0,0,0-1.144-.257c-.443,0-.746.2-.746.5,0,.233.234.432.7.653.618.314,1.271.769,1.271,1.563,0,1.305-1.107,2.006-2.611,2.006a3.172,3.172,0,0,1-1.749-.443Z" transform="translate(-2752.343 -1664.415)"/><path class="b" d="M2767.918,1664.974l-.3,1.6h1.213l-.245,1.27h-1.212l-.385,1.936a4.222,4.222,0,0,0-.093.722.42.42,0,0,0,.478.478,3.128,3.128,0,0,0,.466-.023l-.2,1.318a3.272,3.272,0,0,1-.991.129c-1,0-1.481-.514-1.481-1.225a5.53,5.53,0,0,1,.117-1.06l.443-2.275H2765l.233-1.27h.735l.233-1.2Z" transform="translate(-2753.879 -1663.995)"/><path class="b" d="M2773.544,1672.693c.011-.337.047-.722.082-1.131h-.035a2.152,2.152,0,0,1-1.912,1.26,1.769,1.769,0,0,1-1.726-1.982,3.851,3.851,0,0,1,4.081-3.977,6.79,6.79,0,0,1,1.889.281l-.605,2.985a13.71,13.71,0,0,0-.222,2.564Zm.49-4.512a2.6,2.6,0,0,0-.455-.047c-1.083,0-1.877,1.329-1.877,2.39,0,.56.222.944.688.944.5,0,1.12-.571,1.377-1.97Z" transform="translate(-2754.981 -1664.415)"/><path class="b" d="M2781.447,1664.974l-.3,1.6h1.212l-.245,1.27H2780.9l-.385,1.936a4.2,4.2,0,0,0-.094.722.42.42,0,0,0,.478.478,3.128,3.128,0,0,0,.467-.023l-.2,1.318a3.277,3.277,0,0,1-.991.129c-1,0-1.481-.514-1.481-1.225a5.53,5.53,0,0,1,.117-1.06l.443-2.275h-.723l.233-1.27h.734l.234-1.2Z" transform="translate(-2756.892 -1663.995)"/><path class="b" d="M2788.091,1672.367a4.9,4.9,0,0,1-2.121.443,2.212,2.212,0,0,1-2.472-2.4,3.426,3.426,0,0,1,3.323-3.545,1.751,1.751,0,0,1,1.981,1.7c0,1.458-1.41,1.982-3.7,1.924a1.13,1.13,0,0,0,.176.583,1.316,1.316,0,0,0,1.1.443,3.6,3.6,0,0,0,1.6-.361Zm-1.48-4.279a1.417,1.417,0,0,0-1.342,1.177c1.307.012,1.959-.174,1.959-.687C2787.229,1668.286,2787,1668.088,2786.611,1668.088Z" transform="translate(-2757.998 -1664.415)"/><path class="b" d="M2795.65,1670.072l-.933,2.041h-1.784l3.824-7.858h2.157l.921,7.858h-1.761l-.163-2.041Zm2.192-1.282-.152-1.692c-.035-.431-.082-1.06-.117-1.538h-.022c-.2.478-.42,1.084-.63,1.538l-.781,1.692Z" transform="translate(-2760.098 -1663.834)"/><path class="b" d="M2809.389,1663.714l-1.155,6.063a15.371,15.371,0,0,0-.268,2.215h-1.539l.082-.92h-.024a2.187,2.187,0,0,1-1.865,1.049c-.967,0-1.772-.77-1.772-2.158a3.661,3.661,0,0,1,3.591-3.8,2.313,2.313,0,0,1,.781.129l.49-2.577Zm-2.414,3.918a1.12,1.12,0,0,0-.665-.2c-1,0-1.714,1.166-1.714,2.262,0,.688.3,1.073.792,1.073s1.073-.513,1.294-1.6Z" transform="translate(-2762.306 -1663.714)"/><path class="b" d="M2813.33,1667.029l.257,2.494c.058.7.128,1.132.152,1.552h.047c.14-.409.326-.84.63-1.539l1.154-2.507h1.877l-3.184,5.7h-1.7l-.968-5.7Z" transform="translate(-2764.253 -1664.452)"/><path class="b" d="M2818.793,1672.019l1.084-5.7h1.679l-1.085,5.7Zm1.317-7.229a.955.955,0,0,1,.968-.956.793.793,0,0,1,.84.828.93.93,0,0,1-.992.944A.777.777,0,0,1,2820.11,1664.79Z" transform="translate(-2765.856 -1663.741)"/><path class="b" d="M2822.921,1671.19a3.716,3.716,0,0,0,1.492.4c.478,0,.723-.233.723-.513s-.186-.479-.711-.735a1.793,1.793,0,0,1-1.212-1.515c0-1.178,1.038-1.96,2.507-1.96a3.146,3.146,0,0,1,1.469.292l-.4,1.19a2.654,2.654,0,0,0-1.143-.257c-.442,0-.746.2-.746.5,0,.233.233.432.7.653.618.314,1.271.769,1.271,1.563,0,1.305-1.108,2.006-2.612,2.006a3.171,3.171,0,0,1-1.748-.443Z" transform="translate(-2766.685 -1664.415)"/><path class="b" d="M2835.081,1669.208a3.4,3.4,0,0,1-3.4,3.615,2.256,2.256,0,0,1-2.413-2.356,3.419,3.419,0,0,1,3.4-3.6A2.264,2.264,0,0,1,2835.081,1669.208Zm-4.081,1.224c0,.665.327,1.108.91,1.108.922,0,1.435-1.34,1.435-2.32,0-.525-.222-1.085-.9-1.085C2831.478,1668.134,2830.989,1669.546,2831,1670.431Z" transform="translate(-2768.188 -1664.415)"/><path class="b" d="M2837.393,1672.693l.641-3.393c.163-.862.234-1.819.292-2.308h1.458c-.035.385-.07.77-.1,1.166h.035a2.131,2.131,0,0,1,1.819-1.3,2.664,2.664,0,0,1,.315.012l-.327,1.632a1.959,1.959,0,0,0-.267-.012c-1.073,0-1.575.956-1.784,2.076l-.4,2.121Z" transform="translate(-2769.998 -1664.415)"/><path class="b" d="M2850.688,1672.075c-.163-.174-.281-.35-.431-.536a3.328,3.328,0,0,1-2.1.665c-1.458,0-2.425-.805-2.425-2.075a2.753,2.753,0,0,1,1.889-2.426l.011-.034a2.564,2.564,0,0,1-.431-1.329,2.292,2.292,0,0,1,2.46-2.25,1.788,1.788,0,0,1,1.994,1.749c0,.91-.688,1.586-1.947,2.169v.035c.3.5.735,1.073,1.049,1.5a6.057,6.057,0,0,0,1.085-1.994h1.538a7.248,7.248,0,0,1-1.853,3.055,17.128,17.128,0,0,0,1.142,1.468Zm-1.1-1.5c-.4-.525-.932-1.259-1.387-1.97a1.57,1.57,0,0,0-.77,1.236,1.081,1.081,0,0,0,1.189,1.107A1.385,1.385,0,0,0,2849.591,1670.572Zm-.886-4.4a1.634,1.634,0,0,0,.35.968c.606-.281,1.107-.711,1.107-1.294a.614.614,0,0,0-.641-.676A.91.91,0,0,0,2848.705,1666.176Z" transform="translate(-2771.854 -1663.797)"/></g><g transform="translate(7000 787.49)"><path class="b" d="M2658.541,1684.547l-1.661,8.806a6.478,6.478,0,0,1-1.269,3.247,3.315,3.315,0,0,1-2.5.97,5.122,5.122,0,0,1-1.288-.15l.318-2.033a2.829,2.829,0,0,0,.6.056c.616,0,1.138-.317,1.438-1.959l1.679-8.937Zm-2.388-2.444a1.506,1.506,0,0,1,1.548-1.531,1.268,1.268,0,0,1,1.342,1.325,1.488,1.488,0,0,1-1.586,1.511A1.234,1.234,0,0,1,2656.153,1682.1Z" transform="translate(-2651.824 -1680.423)"/><path class="b" d="M2666.258,1694.75c.02-.541.075-1.157.131-1.81h-.055a3.441,3.441,0,0,1-3.06,2.015c-1.643,0-2.762-1.269-2.762-3.172a6.161,6.161,0,0,1,6.531-6.363,10.872,10.872,0,0,1,3.022.448l-.97,4.777a22.054,22.054,0,0,0-.355,4.1Zm.784-7.221a4.159,4.159,0,0,0-.728-.075c-1.736,0-3,2.128-3,3.824,0,.9.354,1.512,1.1,1.512.8,0,1.792-.914,2.2-3.153Z" transform="translate(-2653.759 -1681.503)"/><path class="b" d="M2672.92,1694.75l1.138-6.157c.205-1.157.354-2.164.466-2.966h2.313l-.168,1.474h.037a3.692,3.692,0,0,1,3.117-1.679,1.959,1.959,0,0,1,2.164,1.716,3.76,3.76,0,0,1,3.134-1.716,2.141,2.141,0,0,1,2.239,2.445,9.75,9.75,0,0,1-.168,1.566l-.989,5.318h-2.593l.914-4.981a5.9,5.9,0,0,0,.131-1.12c0-.634-.28-1.082-.914-1.082-.9,0-1.772,1.213-2.127,3.042l-.766,4.142h-2.593l.933-5.019a5.494,5.494,0,0,0,.131-1.045c0-.616-.2-1.119-.858-1.119-.914,0-1.865,1.287-2.2,3.079l-.747,4.1Z" transform="translate(-2656.521 -1681.503)"/><path class="b" d="M2698.178,1694.75c.019-.541.074-1.157.13-1.81h-.056a3.441,3.441,0,0,1-3.06,2.015c-1.642,0-2.761-1.269-2.761-3.172a6.161,6.161,0,0,1,6.53-6.363,10.878,10.878,0,0,1,3.023.448l-.97,4.777a22.1,22.1,0,0,0-.354,4.1Zm.784-7.221a4.153,4.153,0,0,0-.727-.075c-1.736,0-3.005,2.128-3.005,3.824,0,.9.354,1.512,1.1,1.512.8,0,1.791-.914,2.2-3.153Z" transform="translate(-2660.866 -1681.503)"/><path class="b" d="M2704.72,1693.628l2.537-13.247h2.687l-2.537,13.247Z" transform="translate(-2663.602 -1680.381)"/><path class="b" d="M2716.537,1681.423a18.341,18.341,0,0,1,3.3-.3,5.811,5.811,0,0,1,3.115.672,2.544,2.544,0,0,1,1.455,2.3,3.162,3.162,0,0,1-2.536,2.985v.057a2.717,2.717,0,0,1,1.978,2.742,3.515,3.515,0,0,1-1.717,2.985,8.653,8.653,0,0,1-4.739,1.007,17.448,17.448,0,0,1-3.171-.224Zm.672,10.3a8.5,8.5,0,0,0,1.026.056c1.455,0,2.78-.578,2.78-1.978,0-1.249-1.045-1.623-2.295-1.623h-.839Zm1.082-5.5h.9c1.474,0,2.481-.633,2.481-1.7,0-.914-.746-1.306-1.772-1.306a4.505,4.505,0,0,0-1.044.093Z" transform="translate(-2665.718 -1680.546)"/><path class="b" d="M2737.36,1685.685l-1.176,6.157c-.224,1.157-.354,2.145-.485,2.966h-2.369l.168-1.493h-.038a3.965,3.965,0,0,1-3.153,1.7c-1.455,0-2.332-.821-2.332-2.556a8.222,8.222,0,0,1,.186-1.68l.952-5.093h2.687l-.915,4.889a7.3,7.3,0,0,0-.13,1.194c0,.6.224,1.063.914,1.063.914,0,1.847-1.1,2.2-2.929l.8-4.217Z" transform="translate(-2668.78 -1681.562)"/><path class="b" d="M2740.024,1693.67l1.734-9.124h2.688l-1.735,9.124Zm2.107-11.568a1.528,1.528,0,0,1,1.549-1.531,1.268,1.268,0,0,1,1.343,1.325,1.488,1.488,0,0,1-1.586,1.511A1.244,1.244,0,0,1,2742.131,1682.1Z" transform="translate(-2671.463 -1680.423)"/><path class="b" d="M2745.663,1693.628l2.537-13.247h2.687l-2.537,13.247Z" transform="translate(-2672.718 -1680.381)"/><path class="b" d="M2762.081,1680.381l-1.847,9.7a24.505,24.505,0,0,0-.429,3.545h-2.462l.13-1.474h-.037a3.5,3.5,0,0,1-2.985,1.679c-1.548,0-2.836-1.231-2.836-3.452a5.858,5.858,0,0,1,5.747-6.082,3.731,3.731,0,0,1,1.25.205l.784-4.123Zm-3.862,6.269a1.8,1.8,0,0,0-1.063-.318c-1.6,0-2.743,1.866-2.743,3.62,0,1.1.485,1.716,1.269,1.716.765,0,1.717-.821,2.071-2.557Z" transform="translate(-2674.043 -1680.381)"/><path class="b" d="M2771.734,1694.228a7.828,7.828,0,0,1-3.4.709c-2.613,0-3.956-1.474-3.956-3.843a5.482,5.482,0,0,1,5.318-5.672c1.847,0,3.171,1.026,3.171,2.724,0,2.333-2.257,3.172-5.915,3.079a1.8,1.8,0,0,0,.28.933,2.108,2.108,0,0,0,1.754.709,5.736,5.736,0,0,0,2.556-.578Zm-2.369-6.847a2.266,2.266,0,0,0-2.146,1.883c2.09.02,3.135-.28,3.135-1.1C2770.354,1687.7,2769.981,1687.381,2769.365,1687.381Z" transform="translate(-2676.886 -1681.503)"/><path class="b" d="M2775.327,1694.75l1.026-5.429c.261-1.381.373-2.91.467-3.695h2.332c-.056.616-.111,1.231-.168,1.865h.057a3.409,3.409,0,0,1,2.91-2.071,4.334,4.334,0,0,1,.5.02l-.522,2.611a3.128,3.128,0,0,0-.428-.019c-1.716,0-2.519,1.53-2.855,3.322l-.635,3.4Z" transform="translate(-2679.323 -1681.503)"/><path class="b" d="M2783.731,1692.342a5.937,5.937,0,0,0,2.388.635c.766,0,1.157-.373,1.157-.821s-.3-.765-1.138-1.176a2.87,2.87,0,0,1-1.941-2.425c0-1.884,1.66-3.134,4.012-3.134a5.014,5.014,0,0,1,2.351.466l-.634,1.9a4.281,4.281,0,0,0-1.829-.41c-.709,0-1.194.316-1.194.8,0,.373.374.691,1.12,1.046.989.5,2.033,1.231,2.033,2.5,0,2.09-1.772,3.21-4.18,3.21a5.077,5.077,0,0,1-2.8-.709Z" transform="translate(-2681.049 -1681.503)"/></g><g transform="translate(7110.228 794.665)"><path class="c" d="M2799.116,1692.29a3.851,3.851,0,0,1-1.027,2.719,2.991,2.991,0,0,1-2.129.829,2.239,2.239,0,0,1-2.335-2.4,3.839,3.839,0,0,1,1.06-2.727,3.02,3.02,0,0,1,2.1-.822A2.2,2.2,0,0,1,2799.116,1692.29Zm-3.464-.941a3.133,3.133,0,0,0-.718,2.044c0,.812.368,1.419,1.206,1.419a1.409,1.409,0,0,0,.967-.419,3.289,3.289,0,0,0,.7-2.069c0-.719-.257-1.412-1.163-1.412A1.366,1.366,0,0,0,2795.652,1691.348Z" transform="translate(-2793.625 -1689.672)"/><path class="c" d="M2801.028,1696.2l.47-2.488c.12-.634.172-1.335.214-1.694h1.069c-.026.282-.051.565-.076.856h.026a1.561,1.561,0,0,1,1.334-.95,2.087,2.087,0,0,1,.231.009l-.239,1.2a1.338,1.338,0,0,0-.2-.009c-.787,0-1.154.7-1.309,1.523l-.291,1.556Z" transform="translate(-2795.273 -1690.125)"/><path class="c" d="M2810.039,1689.611l-.847,4.447a11.211,11.211,0,0,0-.2,1.625h-1.129l.06-.676h-.017a1.605,1.605,0,0,1-1.368.77c-.71,0-1.3-.564-1.3-1.582a2.686,2.686,0,0,1,2.634-2.788,1.71,1.71,0,0,1,.573.094l.359-1.89Zm-1.77,2.874a.82.82,0,0,0-.487-.146c-.736,0-1.257.856-1.257,1.66,0,.5.222.787.581.787s.786-.377.949-1.171Z" transform="translate(-2796.211 -1689.611)"/><path class="c" d="M2814.793,1695.958a3.588,3.588,0,0,1-1.557.325,1.622,1.622,0,0,1-1.812-1.761,2.512,2.512,0,0,1,2.438-2.6,1.284,1.284,0,0,1,1.454,1.249c0,1.069-1.035,1.454-2.711,1.411a.82.82,0,0,0,.128.427.967.967,0,0,0,.8.325,2.631,2.631,0,0,0,1.171-.265Zm-1.087-3.139a1.038,1.038,0,0,0-.983.864c.957.008,1.436-.128,1.436-.505C2814.159,1692.965,2813.989,1692.819,2813.706,1692.819Z" transform="translate(-2797.588 -1690.125)"/><path class="c" d="M2816.77,1696.2l.469-2.488c.12-.634.172-1.335.214-1.694h1.069c-.026.282-.051.565-.077.856h.026a1.562,1.562,0,0,1,1.334-.95,2.08,2.08,0,0,1,.231.009l-.239,1.2a1.338,1.338,0,0,0-.2-.009c-.787,0-1.154.7-1.308,1.523L2818,1696.2Z" transform="translate(-2798.779 -1690.125)"/><path class="c" d="M2823.13,1694.41a2.714,2.714,0,0,0,1.36.368c.479,0,.916-.222.916-.675,0-.325-.248-.54-.779-.812-.616-.334-1.2-.778-1.2-1.531,0-1.163,1.018-1.873,2.275-1.873a2.728,2.728,0,0,1,1.36.291l-.385,1.026a2.3,2.3,0,0,0-1.077-.256c-.573,0-.872.291-.872.607,0,.333.351.54.838.812a1.748,1.748,0,0,1,1.146,1.522c0,1.283-1.061,1.942-2.343,1.942a2.893,2.893,0,0,1-1.651-.41Z" transform="translate(-2800.103 -1689.672)"/><path class="c" d="M2833.083,1692.042l-.539,2.823c-.1.53-.163.983-.222,1.36h-1.086l.076-.684h-.016a1.819,1.819,0,0,1-1.446.778c-.667,0-1.069-.376-1.069-1.171a3.756,3.756,0,0,1,.086-.77l.436-2.335h1.231l-.419,2.241a3.333,3.333,0,0,0-.06.547c0,.274.1.487.419.487.419,0,.847-.5,1.01-1.342l.368-1.933Z" transform="translate(-2801.453 -1690.152)"/><path class="c" d="M2834.2,1697.891l.8-4.26c.095-.5.2-1.188.249-1.616h1.1l-.077.607h.017a1.691,1.691,0,0,1,1.343-.7c.906,0,1.343.728,1.343,1.582a2.6,2.6,0,0,1-2.421,2.788,1.671,1.671,0,0,1-.779-.171h-.016l-.343,1.771Zm1.754-2.737a.8.8,0,0,0,.564.205c.658,0,1.171-.941,1.171-1.762,0-.333-.136-.684-.539-.684-.462,0-.889.522-1.043,1.343Z" transform="translate(-2802.66 -1690.125)"/><path class="c" d="M2840.386,1697.891l.8-4.26c.094-.5.2-1.188.248-1.616h1.1l-.076.607h.016a1.692,1.692,0,0,1,1.343-.7c.906,0,1.342.728,1.342,1.582a2.6,2.6,0,0,1-2.421,2.788,1.668,1.668,0,0,1-.778-.171h-.016l-.343,1.771Zm1.754-2.737a.8.8,0,0,0,.563.205c.659,0,1.171-.941,1.171-1.762,0-.333-.137-.684-.538-.684-.463,0-.89.522-1.044,1.343Z" transform="translate(-2804.037 -1690.125)"/><path class="c" d="M2847,1695.683l1.164-6.072h1.231l-1.163,6.072Z" transform="translate(-2805.509 -1689.611)"/><path class="c" d="M2849.911,1695.7l.8-4.182h1.231l-.8,4.182Zm.966-5.3a.7.7,0,0,1,.71-.7.581.581,0,0,1,.616.607.683.683,0,0,1-.727.693A.57.57,0,0,1,2850.877,1690.4Z" transform="translate(-2806.158 -1689.631)"/><path class="c" d="M2856.361,1695.958a3.588,3.588,0,0,1-1.556.325,1.622,1.622,0,0,1-1.813-1.761,2.513,2.513,0,0,1,2.438-2.6,1.285,1.285,0,0,1,1.454,1.249c0,1.069-1.035,1.454-2.711,1.411a.825.825,0,0,0,.128.427.966.966,0,0,0,.8.325,2.631,2.631,0,0,0,1.171-.265Zm-1.086-3.139a1.038,1.038,0,0,0-.983.864c.958.008,1.436-.128,1.436-.505C2855.728,1692.965,2855.557,1692.819,2855.275,1692.819Z" transform="translate(-2806.844 -1690.125)"/><path class="c" d="M2858.337,1696.2l.47-2.488c.121-.634.171-1.335.215-1.694h1.069c-.026.282-.052.565-.077.856h.025a1.563,1.563,0,0,1,1.335-.95,2.082,2.082,0,0,1,.231.009l-.24,1.2a1.338,1.338,0,0,0-.2-.009c-.787,0-1.154.7-1.308,1.523l-.291,1.556Z" transform="translate(-2808.034 -1690.125)"/></g><g transform="translate(7021.691 712.416)"><path class="d" d="M2679.729,1624.783l34.98-34.98,72.386,26.025-69.867-15.391Z" transform="translate(-2679.729 -1585.138)"/><path class="d" d="M2751.528,1598.727l13.059-8.022,45.708,16.791-48.879-23.693-11.007,14.552Z" transform="translate(-2695.466 -1583.802)"/></g><g transform="translate(7044.033 739.17)"><path class="e" d="M2725.862,1638.259a3.771,3.771,0,0,0,.183.53,3.278,3.278,0,0,0,.164.292c.061.1.128.2.2.292a2.9,2.9,0,0,0,.6.639,5.182,5.182,0,0,0,.786.53q.584.294,1.059.475a3.1,3.1,0,0,0,.548.183h-11.947a14.308,14.308,0,0,0,1.572-.73q.4-.256.767-.53a2.468,2.468,0,0,0,.584-.6c.049-.073.1-.14.146-.2a.651.651,0,0,0,.11-.2,2.753,2.753,0,0,0,.347-.6,1.856,1.856,0,0,0,.128-.713v-15.527c.073-.389.133-.707.183-.95.024-.073.054-.158.091-.256s.067-.183.092-.256c.048-.1.085-.177.109-.237a1.186,1.186,0,0,1,.109-.2c.025-.048.056-.1.093-.165s.067-.114.091-.164q.073-.109.127-.2c.037-.061.079-.128.128-.2h-4.312a8.332,8.332,0,0,0-1.3.128,4.543,4.543,0,0,0-1.625.639,6.618,6.618,0,0,0-2.174,2.375,11.658,11.658,0,0,0-1.261,4.969v.365a5.318,5.318,0,0,0,1.042,3.142,14.976,14.976,0,0,0,2.284,2.557,16.407,16.407,0,0,0,2.265,1.663q1.023.6,1.06.6h-.548a18.049,18.049,0,0,1-1.828-.128,11.326,11.326,0,0,1-2.447-.567,8.751,8.751,0,0,1-3.307-2.246,6.674,6.674,0,0,1-1.516-4.768q0-6.5,3.489-8.239a17.963,17.963,0,0,1,8.093-1.735h9.06a3.428,3.428,0,0,0-.437.165,8.922,8.922,0,0,0-.877.42,3.95,3.95,0,0,0-.566.347,2.54,2.54,0,0,0-.457.42,2.086,2.086,0,0,0-.275.347c-.085.135-.164.274-.238.421a4.756,4.756,0,0,0-.347.694,2.574,2.574,0,0,0-.127.365v7.088l7.453-7.271a1,1,0,0,0,.311-.456,1.671,1.671,0,0,0,.091-.53v-.182a.125.125,0,0,1-.037-.093v-.091a1.709,1.709,0,0,0-.621-1.187,1.89,1.89,0,0,0-1.243-.457h9.974q-.547.183-1.022.365c-.316.122-.634.256-.95.4a7.2,7.2,0,0,0-.676.347q-.348.2-.749.42c-.122.073-.237.14-.348.2a2.735,2.735,0,0,0-.31.2c-.146.1-.281.189-.4.274s-.244.177-.365.274c-.1.073-.2.152-.292.238s-.2.176-.292.273l-7.672,7.636,17.683,17.573a12.532,12.532,0,0,0,2.083,1.552,4.754,4.754,0,0,0,2.484.676h.493a1.157,1.157,0,0,0,.274-.036,2.629,2.629,0,0,1,.274-.055,1.9,1.9,0,0,1,.274-.018,14.926,14.926,0,0,0,1.589-.347,5.372,5.372,0,0,0,1.406-.639,2.225,2.225,0,0,0,.274-.165,1.868,1.868,0,0,0,.237-.2,3.061,3.061,0,0,0,.621-.676q.292-.42.548-.858a9.914,9.914,0,0,0,.584-1.223,4.016,4.016,0,0,0,.219-.64v.4q0,.4-.036,1.078a10.111,10.111,0,0,1-.183,1.406,7.145,7.145,0,0,1-.31,1.133,3.276,3.276,0,0,1-.53.95,4.735,4.735,0,0,1-2.283,1.7,11.037,11.037,0,0,1-2.905.494h-.4a8.738,8.738,0,0,1-4.75-1.242,19.935,19.935,0,0,1-3.471-2.74l-17.024-17.1v7.782A2.283,2.283,0,0,0,2725.862,1638.259Z" transform="translate(-2708.471 -1618.22)"/><path class="e" d="M2762.871,1642.874a4.981,4.981,0,0,1-.584-1.516c-.05-.316-.085-.626-.11-.931s-.037-.567-.037-.786v-.475a7.388,7.388,0,0,1-.383.713,9.555,9.555,0,0,1-1.077,1.479,8.6,8.6,0,0,1-1.791,1.535,4.236,4.236,0,0,1-2.375.694,2.974,2.974,0,0,1-2.722-1.443,6.69,6.69,0,0,1-.858-3.307,8.856,8.856,0,0,1,.054-.968c.037-.33.08-.651.128-.969a12.325,12.325,0,0,1,.8-2.613,9.587,9.587,0,0,1,1.316-2.21,9.7,9.7,0,0,1,.84-.877,7.323,7.323,0,0,1,.877-.694,12.185,12.185,0,0,1,3.653-1.571h4.457v11.582a1.655,1.655,0,0,0,.2.658.617.617,0,0,0,.494.329h.256a2.019,2.019,0,0,0,.548-.146c.17-.073.329-.146.474-.219a5.293,5.293,0,0,0,.548-.365,3.191,3.191,0,0,1-.292.475,6.124,6.124,0,0,1-.767.913,5.263,5.263,0,0,1-.932.859,3.279,3.279,0,0,1-1.078.53.821.821,0,0,0-.165.018,1.008,1.008,0,0,1-.2.018h-.036A1.422,1.422,0,0,1,2762.871,1642.874Zm-3.727-11.544a7.481,7.481,0,0,0-1.279.895,7.572,7.572,0,0,0-1.461,1.754,4.547,4.547,0,0,0-.658,2.448v.621a11.636,11.636,0,0,0,.109,2.082,2.066,2.066,0,0,0,1.1,1.534,2.406,2.406,0,0,0,.493.219,1.66,1.66,0,0,0,.494.073,2.846,2.846,0,0,0,2.028-.986,7.637,7.637,0,0,0,1.516-2.192c.048-.121.1-.243.145-.365s.1-.243.147-.365.091-.243.127-.365.067-.243.092-.365a2.818,2.818,0,0,0,.11-.474,3.964,3.964,0,0,0,.036-.549v-4.275h-2.229A2.294,2.294,0,0,0,2759.144,1631.329Z" transform="translate(-2718.371 -1620.606)"/><path class="e" d="M2783.967,1632.078c-.025.268-.05.5-.073.694-.05.219-.1.438-.147.658l-.218-.438a8.833,8.833,0,0,0-.731-1.169,7.3,7.3,0,0,0-.913-1.023,1.967,1.967,0,0,0-1.1-.548h-.037a.919.919,0,0,0-.584.311,8.8,8.8,0,0,0-.695.749c-.1.122-.2.256-.292.4l-.292.438q-.438.658-.766,1.242a5.866,5.866,0,0,0-.329.621v7.966l-2.924,1.68V1631.9l-2.009,1.425a23.093,23.093,0,0,1,1.169-2.411q.33-.548.713-1.077a5.475,5.475,0,0,1,.749-.859,2.011,2.011,0,0,1,.512-.383,1.077,1.077,0,0,1,.476-.128q.877,0,1.1.53a3,3,0,0,1,.219,1.151v2.156a16.9,16.9,0,0,1,1.242-2.01,9.6,9.6,0,0,1,1.352-1.37,2.522,2.522,0,0,1,1.643-.639h.074a1.477,1.477,0,0,1,1.462.84,4.581,4.581,0,0,1,.438,1.827v.292Q2784,1631.676,2783.967,1632.078Z" transform="translate(-2722.808 -1620.46)"/><path class="e" d="M2805.129,1639.322l2.009-3.616a.325.325,0,0,0,.092-.165,1.565,1.565,0,0,1,.054-.2.362.362,0,0,0,.037-.164v-.165a3.251,3.251,0,0,0-.019-.347c-.012-.11-.031-.225-.055-.348a.941.941,0,0,0-.018-.165.982.982,0,0,1-.019-.2.629.629,0,0,0-.018-.146.572.572,0,0,1-.019-.146,3.1,3.1,0,0,0-.438-1.023,5.494,5.494,0,0,0-.731-.913,11.735,11.735,0,0,0-1.2-1.1l2.3-2.3q.693.476,1.133.84a5.869,5.869,0,0,1,.474.456,5.313,5.313,0,0,1,.4.494.241.241,0,0,1,.054.091.223.223,0,0,0,.055.092c.074.17.14.348.2.529s.115.372.165.567c.023.2.047.384.073.566a4.188,4.188,0,0,1,.036.53,5.552,5.552,0,0,1-.072.932,2.139,2.139,0,0,1-.22.676l-5.663,9.463-3.69-9.463-4.9,9.463-3.507-9.316q-.4-.658-.658-1.059a1,1,0,0,0-.091-.146.916.916,0,0,1-.091-.146c-.123-.146-.238-.28-.347-.4s-.2-.219-.274-.292a1.709,1.709,0,0,0-.33-.256l-.365-.219a9.121,9.121,0,0,0-1.169-.548l2.411-2.484a6.341,6.341,0,0,1,.986.567,4.567,4.567,0,0,1,.84.785.89.89,0,0,1,.128.164.772.772,0,0,0,.128.165c.048.073.1.153.164.238s.115.164.164.237c.194.293.366.566.512.822a1.781,1.781,0,0,1,.219.457l2.484,6.321,2.229-4.311a1.541,1.541,0,0,0,.109-.274q.037-.128.074-.238a1.412,1.412,0,0,0,.091-.347,3.528,3.528,0,0,0,.018-.384,1.928,1.928,0,0,0-.018-.274.954.954,0,0,0-.091-.274,1.975,1.975,0,0,0-.256-.529c-.123-.183-.232-.348-.329-.494a10.168,10.168,0,0,0-.731-.8l1.9-1.9c.292.2.523.353.693.475a1.807,1.807,0,0,0,.165.146,2.366,2.366,0,0,0,.2.146.375.375,0,0,0,.074.11c.023.025.048.049.072.073a1.45,1.45,0,0,1,.128.147,1.136,1.136,0,0,1,.092.145,2.2,2.2,0,0,1,.256.31c.073.11.145.225.218.348a8.382,8.382,0,0,1,.512.785,3.632,3.632,0,0,1,.292.6Z" transform="translate(-2726.251 -1620.47)"/><path class="e" d="M2828.762,1642.874a5.011,5.011,0,0,1-.584-1.516q-.074-.474-.11-.931t-.037-.786v-.475a7.457,7.457,0,0,1-.383.713,9.5,9.5,0,0,1-1.078,1.479,8.572,8.572,0,0,1-1.79,1.535,4.233,4.233,0,0,1-2.374.694,2.975,2.975,0,0,1-2.722-1.443,6.7,6.7,0,0,1-.859-3.307,8.741,8.741,0,0,1,.055-.968c.036-.33.078-.651.128-.969a12.214,12.214,0,0,1,.8-2.613,9.593,9.593,0,0,1,1.315-2.21,9.834,9.834,0,0,1,.84-.877,7.342,7.342,0,0,1,.877-.694,12.206,12.206,0,0,1,3.654-1.571h4.457v11.582a1.659,1.659,0,0,0,.2.658.615.615,0,0,0,.493.329h.256a2.026,2.026,0,0,0,.549-.146c.169-.073.328-.146.474-.219a5.292,5.292,0,0,0,.548-.365,3.191,3.191,0,0,1-.292.475,6.166,6.166,0,0,1-.766.913,5.254,5.254,0,0,1-.933.859,3.279,3.279,0,0,1-1.077.53.817.817,0,0,0-.165.018,1,1,0,0,1-.2.018H2830A1.422,1.422,0,0,1,2828.762,1642.874Zm-3.726-11.544a7.472,7.472,0,0,0-1.28.895,7.6,7.6,0,0,0-1.461,1.754,4.555,4.555,0,0,0-.657,2.448v.621a11.612,11.612,0,0,0,.109,2.082,2.067,2.067,0,0,0,1.1,1.534,2.435,2.435,0,0,0,.493.219,1.659,1.659,0,0,0,.494.073,2.844,2.844,0,0,0,2.027-.986,7.617,7.617,0,0,0,1.516-2.192c.049-.121.1-.243.146-.365l.146-.365c.049-.121.092-.243.128-.365s.067-.243.092-.365a2.726,2.726,0,0,0,.109-.474,3.921,3.921,0,0,0,.037-.549v-4.275H2825.8A2.3,2.3,0,0,0,2825.037,1631.329Z" transform="translate(-2733.042 -1620.606)"/><path class="e" d="M2850.873,1640.3v.511a8.4,8.4,0,0,0,.109.84.72.72,0,0,0,.256.511c.049.025.1.049.165.073a.535.535,0,0,0,.2.036,1,1,0,0,0,.2-.018,1.689,1.689,0,0,0,.2-.055c.121-.072.256-.159.4-.256s.281-.2.4-.292a5.142,5.142,0,0,0,.584-.621,13.322,13.322,0,0,1-.987,1.352,6.188,6.188,0,0,1-.913.877,2.511,2.511,0,0,1-1.06.511h-.31a.36.36,0,0,1-.164-.036,2.4,2.4,0,0,1-1.517-1.206,4.086,4.086,0,0,1-.494-1.973v-8.513l-4.348,3.032v7.052l-2.923,1.68v-11.764l-1.973,1.425a6.9,6.9,0,0,0,.329-.731,10.276,10.276,0,0,1,.8-1.5,8.555,8.555,0,0,1,.749-1.115,4.324,4.324,0,0,1,.823-.822,1.644,1.644,0,0,1,.4-.237,1.06,1.06,0,0,1,.4-.092q.987,0,1.188.493a2.842,2.842,0,0,1,.2,1.078v3.69q1.352-1.644,2.3-2.666a6.2,6.2,0,0,0,.494-.476,6.018,6.018,0,0,1,.493-.475,13.06,13.06,0,0,1,1.425-1.187,2.178,2.178,0,0,1,1.169-.494q.986,0,1.188.475a2.7,2.7,0,0,1,.2,1.06v9.828Z" transform="translate(-2737.469 -1620.606)"/></g></g></svg>