<svg xmlns="http://www.w3.org/2000/svg" width="306" height="216" viewBox="0 0 306 216"><defs><style>.a{fill:#f7f7f7;}.b{fill:#3e4240;}.c{fill:#b64649;}.d{fill:#6b6860;}</style></defs><g transform="translate(-1777 -893)"><rect class="a" width="306" height="216" transform="translate(1777 893)"/><g transform="translate(1880.171 964.909)"><g transform="translate(22.902)"><path class="b" d="M1942.994,376.875l-2.1-2.513-16.785-20.141-17.443,20.927-2.087,2.513-7.241,8.686h4.174l5.154-6.181,2.087-2.5,15.356-18.423,14.7,17.636,2.087,2.5,5.812,6.968h4.174Z" transform="translate(-1897.343 -354.222)"/></g><g transform="translate(64.371 5.635)"><path class="b" d="M1963.187,361.242l-12.1,14.505L1949,378.26l2.087,2.5,2.1-2.5,10-12,17.9,21.473h4.182Z" transform="translate(-1949.003 -361.242)"/></g><g transform="translate(0 7.192)"><path class="b" d="M1901.043,376.917,1889.6,363.182l-20.783,24.933H1873l16.6-19.916,9.36,11.23,2.087,2.5,2.087-2.5Z" transform="translate(-1868.813 -363.182)"/></g><path class="c" d="M1939.593,360.971l9.866,10.018,11.037-13.2-9.729,3.275Z" transform="translate(-1882.776 -354.926)"/><path class="c" d="M1896.543,361.971l9.865,10.018,11.038-13.2-9.729,3.275Z" transform="translate(-1874.283 -355.123)"/><g transform="translate(43.965 17.122)"><rect class="c" width="4.178" height="4.178"/><rect class="c" width="4.178" height="4.178" transform="translate(5.707)"/><rect class="c" width="4.178" height="4.178" transform="translate(0 5.328)"/><rect class="c" width="4.178" height="4.178" transform="translate(5.707 5.328)"/></g><g transform="translate(17.734 18.1)"><rect class="d" width="2.412" height="2.412"/><rect class="d" width="2.412" height="2.412" transform="translate(3.295)"/><rect class="d" width="2.412" height="2.412" transform="translate(0 3.076)"/><rect class="d" width="2.412" height="2.412" transform="translate(3.295 3.076)"/></g><g transform="translate(75.669 18.1)"><rect class="d" width="2.412" height="2.412"/><rect class="d" width="2.412" height="2.412" transform="translate(3.295)"/><rect class="d" width="2.412" height="2.412" transform="translate(0 3.076)"/><rect class="d" width="2.412" height="2.412" transform="translate(3.295 3.076)"/></g><path class="b" d="M1878.685,384.8l-4.253.54V374.232h4.253Z" transform="translate(-1869.922 -358.169)"/><g transform="translate(0.096 35.655)"><path class="b" d="M1871.341,398.711v.319h-1.036v3.053h-.337V399.03h-1.036v-.319Z" transform="translate(-1868.933 -398.653)"/><path class="b" d="M1874.663,402.082l-.787-1.348h-.947v1.348h-.337v-3.371h1.349a1.01,1.01,0,0,1,.283,1.98l.824,1.392Zm-1.733-3.053v1.386h1.011a.638.638,0,0,0,.476-.2.706.706,0,0,0,0-.979.641.641,0,0,0-.476-.2Z" transform="translate(-1869.655 -398.653)"/><path class="b" d="M1878.381,401.813a1.414,1.414,0,0,1-1.812,0,1.149,1.149,0,0,1-.346-.876v-2.226h.337v2.226a.853.853,0,0,0,.24.64,1.082,1.082,0,0,0,1.349,0,.857.857,0,0,0,.241-.64v-2.226h.337v2.226A1.147,1.147,0,0,1,1878.381,401.813Z" transform="translate(-1870.371 -398.653)"/><path class="b" d="M1881.314,402.127a1.389,1.389,0,0,1-.792-.22,1.133,1.133,0,0,1-.46-.6l.288-.169a.9.9,0,0,0,.337.49,1.066,1.066,0,0,0,.631.175.92.92,0,0,0,.586-.166.534.534,0,0,0,.209-.44.459.459,0,0,0-.193-.4,2.562,2.562,0,0,0-.636-.279,3.7,3.7,0,0,1-.693-.279.735.735,0,0,1-.386-.669.834.834,0,0,1,.3-.677,1.114,1.114,0,0,1,.737-.248,1.151,1.151,0,0,1,.684.206,1.24,1.24,0,0,1,.429.522l-.283.159a.833.833,0,0,0-.829-.559.788.788,0,0,0-.506.154.519.519,0,0,0-.193.429.432.432,0,0,0,.173.375,2.231,2.231,0,0,0,.573.256l.262.088q.079.028.231.087a1.435,1.435,0,0,1,.224.106c.048.031.107.072.176.126a.554.554,0,0,1,.15.158.982.982,0,0,1,.081.193.776.776,0,0,1,.036.244.845.845,0,0,1-.312.686A1.257,1.257,0,0,1,1881.314,402.127Z" transform="translate(-1871.129 -398.639)"/><path class="b" d="M1885.717,398.711v.319h-1.035v3.053h-.337V399.03h-1.035v-.319Z" transform="translate(-1871.769 -398.653)"/><path class="b" d="M1887.306,401.765h1.637v.318h-1.975v-3.371h1.951v.319h-1.614v1.194h1.492v.318h-1.492Z" transform="translate(-1872.491 -398.653)"/><path class="b" d="M1891.509,398.711a1.481,1.481,0,0,1,1.139.489,1.813,1.813,0,0,1,0,2.394,1.481,1.481,0,0,1-1.139.489h-1.3v-3.371Zm0,3.054a1.166,1.166,0,0,0,.909-.394,1.516,1.516,0,0,0,0-1.946,1.167,1.167,0,0,0-.909-.395h-.962v2.735Z" transform="translate(-1873.13 -398.653)"/><path class="b" d="M1898.316,398.711h.337v3.371h-.337v-1.575h-1.83v1.575h-.336v-3.371h.336v1.479h1.83Z" transform="translate(-1874.302 -398.653)"/><path class="b" d="M1902.45,402.082l-.313-.828h-1.6l-.312.828h-.357l1.3-3.371h.347l1.295,3.371Zm-1.792-1.145h1.36l-.681-1.8Z" transform="translate(-1875.036 -398.653)"/><path class="b" d="M1906.3,398.711h.337v3.371h-.288l-1.878-2.745v2.745h-.337v-3.371h.293l1.874,2.738Z" transform="translate(-1875.876 -398.653)"/><path class="b" d="M1909.569,398.711a1.482,1.482,0,0,1,1.139.489,1.816,1.816,0,0,1,0,2.394,1.482,1.482,0,0,1-1.139.489h-1.3v-3.371Zm0,3.054a1.166,1.166,0,0,0,.909-.394,1.517,1.517,0,0,0,0-1.946,1.167,1.167,0,0,0-.909-.395h-.963v2.735Z" transform="translate(-1876.693 -398.653)"/><path class="b" d="M1913.51,402.127a1.392,1.392,0,0,1-.792-.22,1.136,1.136,0,0,1-.46-.6l.288-.169a.9.9,0,0,0,.337.49,1.066,1.066,0,0,0,.631.175.92.92,0,0,0,.586-.166.533.533,0,0,0,.209-.44.458.458,0,0,0-.193-.4,2.55,2.55,0,0,0-.636-.279,3.747,3.747,0,0,1-.693-.279.736.736,0,0,1-.385-.669.834.834,0,0,1,.3-.677,1.113,1.113,0,0,1,.737-.248,1.148,1.148,0,0,1,.683.206,1.243,1.243,0,0,1,.429.522l-.283.159a.831.831,0,0,0-.828-.559.785.785,0,0,0-.506.154.519.519,0,0,0-.193.429.433.433,0,0,0,.173.375,2.226,2.226,0,0,0,.573.256l.262.088c.054.018.13.047.231.087a1.5,1.5,0,0,1,.225.106c.047.031.107.072.175.126a.564.564,0,0,1,.15.158,1.043,1.043,0,0,1,.082.193.8.8,0,0,1,.036.244.844.844,0,0,1-.313.686A1.257,1.257,0,0,1,1913.51,402.127Z" transform="translate(-1877.48 -398.639)"/><path class="b" d="M1919.476,399.03h-1.564v1.242h1.493v.318h-1.493v1.493h-.337v-3.371h1.9Z" transform="translate(-1878.528 -398.653)"/><path class="b" d="M1923.465,401.619a1.762,1.762,0,1,1,.506-1.235A1.679,1.679,0,0,1,1923.465,401.619Zm-2.24-.231a1.426,1.426,0,0,0,2,0,1.449,1.449,0,0,0,0-2.008,1.423,1.423,0,0,0-2,0,1.449,1.449,0,0,0,0,2.008Z" transform="translate(-1879.103 -398.639)"/><path class="b" d="M1927.679,402.082l-.787-1.348h-.947v1.348h-.336v-3.371h1.348a1.012,1.012,0,0,1,.807,1.621.986.986,0,0,1-.523.358l.824,1.392Zm-1.734-3.053v1.386h1.011a.638.638,0,0,0,.477-.2.706.706,0,0,0,0-.979.642.642,0,0,0-.477-.2Z" transform="translate(-1880.114 -398.653)"/><path class="b" d="M1933.237,398.711l-1.219,1.99v1.382h-.336v-1.391l-1.215-1.98h.381l1.007,1.653,1-1.653Z" transform="translate(-1881.072 -398.653)"/><path class="b" d="M1936.959,401.619a1.764,1.764,0,1,1,.505-1.235A1.681,1.681,0,0,1,1936.959,401.619Zm-2.24-.231a1.427,1.427,0,0,0,2,0,1.451,1.451,0,0,0,0-2.008,1.423,1.423,0,0,0-2,0,1.451,1.451,0,0,0,0,2.008Z" transform="translate(-1881.764 -398.639)"/><path class="b" d="M1941.17,401.813a1.414,1.414,0,0,1-1.812,0,1.149,1.149,0,0,1-.346-.876v-2.226h.337v2.226a.851.851,0,0,0,.241.64,1.081,1.081,0,0,0,1.349,0,.857.857,0,0,0,.241-.64v-2.226h.337v2.226A1.146,1.146,0,0,1,1941.17,401.813Z" transform="translate(-1882.758 -398.653)"/><path class="b" d="M1945.162,402.082l-.786-1.348h-.947v1.348h-.337v-3.371h1.349a1.01,1.01,0,0,1,.283,1.98l.824,1.392Zm-1.733-3.053v1.386h1.011a.638.638,0,0,0,.476-.2.706.706,0,0,0,0-.979.641.641,0,0,0-.476-.2Z" transform="translate(-1883.562 -398.653)"/><path class="b" d="M1950.274,399.03h-1.565v1.242h1.492v.318h-1.492v1.493h-.337v-3.371h1.9Z" transform="translate(-1884.604 -398.653)"/><path class="b" d="M1953.5,402.082l-.313-.828h-1.6l-.313.828h-.356l1.3-3.371h.348l1.295,3.371Zm-1.793-1.145h1.361l-.681-1.8Z" transform="translate(-1885.107 -398.653)"/><path class="b" d="M1958.264,398.711v3.371h-.337v-2.861l-1.181,1.976h-.048l-1.179-1.976v2.861h-.337v-3.371h.413l1.129,1.887,1.127-1.887Z" transform="translate(-1885.947 -398.653)"/><path class="b" d="M1960.042,398.711h.337v3.371h-.337Z" transform="translate(-1886.906 -398.653)"/><path class="b" d="M1961.818,401.765h1.541v.318h-1.877v-3.371h.336Z" transform="translate(-1887.19 -398.653)"/><path class="b" d="M1966.29,398.711l-1.219,1.99v1.382h-.337v-1.391l-1.214-1.98h.381l1.007,1.653,1-1.653Z" transform="translate(-1887.592 -398.653)"/><path class="b" d="M1968.029,398.711l-.289,1.085h-.289l.193-1.085Z" transform="translate(-1888.368 -398.653)"/><path class="b" d="M1969.9,402.127a1.389,1.389,0,0,1-.792-.22,1.138,1.138,0,0,1-.461-.6l.289-.169a.9.9,0,0,0,.337.49,1.065,1.065,0,0,0,.631.175.918.918,0,0,0,.585-.166.533.533,0,0,0,.21-.44.459.459,0,0,0-.193-.4,2.56,2.56,0,0,0-.636-.279,3.7,3.7,0,0,1-.693-.279.735.735,0,0,1-.386-.669.834.834,0,0,1,.3-.677,1.115,1.115,0,0,1,.737-.248,1.151,1.151,0,0,1,.684.206,1.241,1.241,0,0,1,.429.522l-.284.159a.831.831,0,0,0-.828-.559.785.785,0,0,0-.506.154.519.519,0,0,0-.193.429.431.431,0,0,0,.173.375,2.215,2.215,0,0,0,.573.256l.262.088q.079.028.231.087a1.433,1.433,0,0,1,.224.106c.048.031.107.072.176.126a.567.567,0,0,1,.15.158,1,1,0,0,1,.081.193.8.8,0,0,1,.036.244.844.844,0,0,1-.313.686A1.253,1.253,0,0,1,1969.9,402.127Z" transform="translate(-1888.604 -398.639)"/><path class="b" d="M1975.87,399.03h-1.565v1.242h1.492v.318h-1.492v1.493h-.337v-3.371h1.9Z" transform="translate(-1889.653 -398.653)"/><path class="b" d="M1979.215,401.813a1.414,1.414,0,0,1-1.812,0,1.149,1.149,0,0,1-.346-.876v-2.226h.337v2.226a.854.854,0,0,0,.24.64,1.082,1.082,0,0,0,1.349,0,.857.857,0,0,0,.241-.64v-2.226h.337v2.226A1.147,1.147,0,0,1,1979.215,401.813Z" transform="translate(-1890.263 -398.653)"/><path class="b" d="M1983.185,398.711v.319h-1.035v3.053h-.337V399.03h-1.036v-.319Z" transform="translate(-1890.997 -398.653)"/><path class="b" d="M1986.536,401.813a1.414,1.414,0,0,1-1.812,0,1.15,1.15,0,0,1-.347-.876v-2.226h.337v2.226a.854.854,0,0,0,.241.64,1.081,1.081,0,0,0,1.348,0,.854.854,0,0,0,.241-.64v-2.226h.337v2.226A1.147,1.147,0,0,1,1986.536,401.813Z" transform="translate(-1891.707 -398.653)"/><path class="b" d="M1990.527,402.082l-.786-1.348h-.947v1.348h-.337v-3.371h1.349a1.011,1.011,0,0,1,.807,1.621.985.985,0,0,1-.523.358l.824,1.392Zm-1.733-3.053v1.386h1.011a.639.639,0,0,0,.477-.2.706.706,0,0,0,0-.979.643.643,0,0,0-.477-.2Z" transform="translate(-1892.512 -398.653)"/><path class="b" d="M1992.515,401.765h1.637v.318h-1.975v-3.371h1.951v.319h-1.614v1.194h1.492v.318h-1.492Z" transform="translate(-1893.246 -398.653)"/></g></g><g transform="translate(1876.667 1012.412)"><path class="b" d="M1864.448,438.166l4.771-.614h1.174l4.041.614v2.2h-9.986Zm.356-24.7h5.846l.059,2.813h-.669l-5.236-.615Zm3.594,0h2.34l.309,14.177v12.718H1868.4Zm.248,0h6.951l7.371,19.924h-1.363l6.957-19.924h2.7l-9.444,26.895h-3.158Zm17.337,24.7,5.238-.614h1.882l5.942.614v2.2h-13.062Zm3.06-9.634.147-15.062h6.827c-.123,4.193-.123,8.45-.123,12.69v1.515c0,4.275,0,8.533.123,12.69h-7.1C1889.043,436.171,1889.013,431.914,1889.043,428.532Zm3.414-15.062h6.44v2.2l-5.793.615h-.646Z" transform="translate(-1864.448 -413.413)"/><path class="b" d="M1911.388,415.668v-2.2h13.2v2.2l-6.061.615h-1.2Zm7.144,21.884,6.061.614v2.2h-13.2v-2.2l5.942-.614Zm-3.994-11.392c0-4.216,0-8.474-.123-12.69h7.119c-.123,4.134-.123,8.391-.123,12.69v1.486c0,4.246,0,8.5.123,12.719h-7.119c.123-4.134.123-8.392.123-12.69Z" transform="translate(-1873.708 -413.413)"/><path class="b" d="M1930.454,438.152l4.212-.614h.73l3.883.614v2.2h-8.824Zm11.638-24.753h4.229l9.208,26.952h-7l-6.988-21.98,1.532-2.067-7.819,24.047h-2.427Zm-4.405,16.754h11.053l.921,2.384H1937Zm6.883,8.087,4.626-.614h2.739l5.253.614v2.11h-12.618Z" transform="translate(-1877.469 -413.399)"/><path class="b" d="M1966.249,438.166l4.357-.614h1.174l5.268.614v2.2h-10.8Zm2.136-23.25,2.361,1.16-4.44-.378V413.47h9.241l14.684,20.154v6.821h-3.465Zm1.344-1.446,2.637,2.228v24.667h-2.637Zm13.183,0h10.8v2.2l-4.153.615h-1.144l-5.5-.615Zm4.682,0h2.637v26.975l-2.637-2.639Z" transform="translate(-1884.53 -413.413)"/></g><g transform="translate(1876 1044.833)"><path class="b" d="M1863.617,460.488l.99-.144h.172l.913.144v.518h-2.075Zm2.737-5.821h1l2.165,6.339h-1.646l-1.643-5.17.361-.486-1.839,5.656h-.571Zm-1.036,3.94h2.6l.217.562h-2.977Zm1.619,1.9,1.089-.145h.644l1.235.145v.5h-2.968Z" transform="translate(-1863.617 -453.961)"/><path class="b" d="M1872.1,461.088l.023-1.182h.775l.218,1.288-.54-.186v-.4a2.19,2.19,0,0,0,1.2.388c.554,0,.859-.181.859-.568,0-.3-.178-.5-.812-.687l-.519-.15a1.438,1.438,0,0,1-1.166-1.435c0-.888.713-1.575,2.011-1.575a3.224,3.224,0,0,1,1.526.389l-.067,1.056h-.773l-.276-1.187.535.23v.354a1.544,1.544,0,0,0-.982-.311c-.431,0-.718.191-.718.539,0,.266.144.451.805.65l.47.134c.914.273,1.28.774,1.28,1.488,0,1.019-.82,1.6-2.178,1.6A3.2,3.2,0,0,1,1872.1,461.088Z" transform="translate(-1865.29 -454.339)"/><path class="b" d="M1877.678,461.088l.023-1.182h.774l.218,1.288-.54-.186v-.4a2.188,2.188,0,0,0,1.2.388c.554,0,.859-.181.859-.568,0-.3-.178-.5-.812-.687l-.519-.15a1.437,1.437,0,0,1-1.165-1.435c0-.888.712-1.575,2.01-1.575a3.225,3.225,0,0,1,1.526.389l-.067,1.056h-.773l-.276-1.187.535.23v.354a1.544,1.544,0,0,0-.982-.311c-.431,0-.718.191-.718.539,0,.266.144.451.8.65l.47.134c.914.273,1.28.774,1.28,1.488,0,1.019-.82,1.6-2.178,1.6A3.2,3.2,0,0,1,1877.678,461.088Z" transform="translate(-1866.391 -454.339)"/><path class="b" d="M1883.237,459.039a2.445,2.445,0,1,1,4.891,0,2.446,2.446,0,1,1-4.891,0Zm3.26.02c0-1.366-.275-1.971-.815-1.971s-.814.605-.814,1.971.271,1.968.814,1.968S1886.5,460.432,1886.5,459.059Z" transform="translate(-1867.487 -454.339)"/><path class="b" d="M1891.823,458.893c0,1.109.534,1.718,1.342,1.718a1.387,1.387,0,0,0,1.083-.535l.335.3a2.015,2.015,0,0,1-1.976,1.158,2.284,2.284,0,0,1-2.4-2.46,2.424,2.424,0,0,1,2.6-2.486,1.675,1.675,0,0,1,1.8,1.4.612.612,0,0,1-.649.5c-.38,0-.693-.234-.74-.912l-.088-.688.7.4a1.928,1.928,0,0,0-.855-.206C1892.427,457.08,1891.823,457.591,1891.823,458.893Z" transform="translate(-1868.863 -454.339)"/><path class="b" d="M1896.992,460.833c.019-.434.029-1.426.029-2.022v-.459c0-.53-.01-.828-.029-1.214l-.595-.086v-.379l2.016-.641.165.1-.029,1.4v1.278c0,.6.01,1.589.029,2.022Zm2.052-.449v.449h-2.554v-.449l.892-.192h.727Zm-2.091-5.831a.818.818,0,1,1,.816.767A.774.774,0,0,1,1896.952,454.553Z" transform="translate(-1870.083 -453.787)"/><path class="b" d="M1902.3,458.7c.4-.117,1.081-.3,1.534-.4v.4a8.849,8.849,0,0,0-1.255.384,1.038,1.038,0,0,0-.72.962c0,.482.254.706.578.706.184,0,.336-.077.644-.3l.386-.291.1.14-.4.439a1.8,1.8,0,0,1-1.464.792,1.156,1.156,0,0,1-1.262-1.231C1900.435,459.614,1900.813,459.132,1902.3,458.7Zm.732,1.893v-2.411c0-.853-.165-1.1-.78-1.1a3.381,3.381,0,0,0-.9.138l.663-.375-.07.669c-.024.641-.335.9-.706.9a.6.6,0,0,1-.649-.482c.051-.8.825-1.345,2.212-1.345,1.235,0,1.723.523,1.723,1.812v2.159c0,.19.079.282.218.282.1,0,.18-.052.292-.213l.255.17a1.1,1.1,0,0,1-1.159.728A1,1,0,0,1,1903.03,460.6Z" transform="translate(-1870.88 -454.339)"/><path class="b" d="M1909.336,460.447a.859.859,0,0,0,.523-.214l.235.232a1.445,1.445,0,0,1-1.408.769c-.873,0-1.385-.388-1.385-1.338,0-.335.01-.592.01-.968v-1.833h-.62v-.574l1.138-.147-.552.387.609-1.678h.982l-.021,1.733v2.974C1908.846,460.242,1909.051,460.447,1909.336,460.447Zm.52-4.012v.66h-1.769v-.66Z" transform="translate(-1872.114 -454.043)"/><path class="b" d="M1915.739,458.617a2.132,2.132,0,0,1-.054.519h-3.768v-.508h1.805c.462,0,.582-.173.582-.6,0-.632-.3-.945-.653-.945-.4,0-.766.437-.766,1.827,0,1.174.582,1.7,1.3,1.7a1.548,1.548,0,0,0,1.168-.518l.332.313a2.11,2.11,0,0,1-2.02,1.123,2.282,2.282,0,0,1-2.4-2.469,2.407,2.407,0,0,1,2.48-2.476A1.889,1.889,0,0,1,1915.739,458.617Z" transform="translate(-1873.017 -454.339)"/><path class="b" d="M1917.66,461.088l.024-1.182h.774l.218,1.288-.541-.186v-.4a2.19,2.19,0,0,0,1.2.388c.554,0,.859-.181.859-.568,0-.3-.177-.5-.812-.687l-.52-.15a1.437,1.437,0,0,1-1.165-1.435c0-.888.713-1.575,2.011-1.575a3.22,3.22,0,0,1,1.525.389l-.067,1.056h-.773l-.275-1.187.535.23v.354a1.546,1.546,0,0,0-.983-.311c-.43,0-.718.191-.718.539,0,.266.144.451.805.65l.469.134c.914.273,1.28.774,1.28,1.488,0,1.019-.82,1.6-2.178,1.6A3.2,3.2,0,0,1,1917.66,461.088Z" transform="translate(-1874.278 -454.339)"/><path class="b" d="M1927.154,459.022a1.259,1.259,0,0,0,1.317,1.3,1.5,1.5,0,0,0,1.167-.478l.267.269a2.3,2.3,0,0,1-2.089,1.015,1.742,1.742,0,0,1-1.972-1.692c0-.819.513-1.47,1.828-1.947l.151.223A1.576,1.576,0,0,0,1927.154,459.022Zm.107-1.446a2.394,2.394,0,0,1-.581-1.515c0-.942.719-1.532,1.816-1.532,1.069,0,1.669.5,1.669,1.246,0,.678-.482,1.137-1.568,1.585l-.245-.207a2.253,2.253,0,0,0,.766-1.512.629.629,0,0,0-.639-.713.666.666,0,0,0-.65.731,1.635,1.635,0,0,0,.344.958,17.818,17.818,0,0,0,1.282,1.467c.885.967,1.3,1.382,2.134,2.272l-.7-.346,1.416.3-.08.675a3.842,3.842,0,0,1-.945.137,1.941,1.941,0,0,1-1.412-.5,14.365,14.365,0,0,1-1.378-1.536C1927.822,458.266,1927.511,457.874,1927.261,457.576Zm3.718-.408h.749a6.95,6.95,0,0,1-1.332,2.564l-.329-.242A5.439,5.439,0,0,0,1930.979,457.169Zm.169.3-.956-.159v-.433h2.125v.433l-.962.159Z" transform="translate(-1875.893 -453.934)"/><path class="b" d="M1937.416,455.2v-.517h1.549v.661h-.152Zm1.549,5.147v.661h-1.549v-.518l1.4-.144Zm-.808-2.68c0-.992,0-1.993-.029-2.985h1.675c-.028.972-.028,1.974-.028,2.985v.317c0,1.031,0,2.032.028,3.024h-1.675c.029-.972.029-1.974.029-3.017Zm.808,2.786h1.146c1.1,0,1.783-.943,1.783-2.613,0-1.695-.682-2.6-1.766-2.6h-1.162v-.554h1.313a2.971,2.971,0,0,1,3.286,3.144c0,2.01-1.355,3.181-3.458,3.181h-1.141Z" transform="translate(-1878.175 -453.964)"/><path class="b" d="M1950.417,458.617a2.088,2.088,0,0,1-.055.519H1946.6v-.508h1.8c.462,0,.583-.173.583-.6,0-.632-.3-.945-.653-.945-.4,0-.766.437-.766,1.827,0,1.174.582,1.7,1.3,1.7a1.545,1.545,0,0,0,1.167-.518l.332.313a2.108,2.108,0,0,1-2.019,1.123,2.283,2.283,0,0,1-2.4-2.469,2.407,2.407,0,0,1,2.48-2.476A1.89,1.89,0,0,1,1950.417,458.617Z" transform="translate(-1879.858 -454.339)"/><path class="b" d="M1952.727,457.366l-.874-.171v-.428h2.734v.428l-.876.171Zm1.051-.6,1.259,3.424-.644,1.043,1.515-4.467h.673l-1.787,4.669h-.735l-1.945-4.669Zm2.145.578-.8-.15v-.428h1.816v.428l-.793.15Z" transform="translate(-1881.023 -454.375)"/><path class="b" d="M1962.874,458.617a2.088,2.088,0,0,1-.055.519h-3.767v-.508h1.805c.462,0,.582-.173.582-.6,0-.632-.3-.945-.653-.945-.4,0-.766.437-.766,1.827,0,1.174.582,1.7,1.3,1.7a1.546,1.546,0,0,0,1.167-.518l.332.313a2.108,2.108,0,0,1-2.019,1.123,2.283,2.283,0,0,1-2.4-2.469,2.407,2.407,0,0,1,2.48-2.476A1.89,1.89,0,0,1,1962.874,458.617Z" transform="translate(-1882.316 -454.339)"/><path class="b" d="M1966.5,453.853l.156.1-.039,1.346v3.526q0,1.011.029,2.022h-1.593q.03-1.011.03-2.022v-4.035l-.6-.1v-.406Zm.666,6.544v.449h-2.632V460.4l.921-.192h.728Z" transform="translate(-1883.515 -453.8)"/><path class="b" d="M1968.567,459.039a2.446,2.446,0,1,1,4.891,0,2.446,2.446,0,1,1-4.891,0Zm3.26.02c0-1.366-.275-1.971-.815-1.971s-.814.605-.814,1.971.271,1.968.814,1.968S1971.827,460.432,1971.827,459.059Z" transform="translate(-1884.321 -454.339)"/><path class="b" d="M1975.89,458.806c0-.53-.01-.73-.029-1.117l-.589-.086v-.379l1.885-.641.158.09.064.748.045.145v3.024l-.029.12v.692c0,.612.01,1.312.029,2.166h-1.563c.019-.854.029-1.548.029-2.16Zm2.142,4.309v.454h-2.693v-.454l.921-.193h.936Zm.052-5.7c-.51,0-.942.534-1.256.857l-.087-.161c.552-1.035,1.191-1.532,2.041-1.532,1.048,0,1.884.85,1.884,2.451a2.234,2.234,0,0,1-2.057,2.495c-.865,0-1.372-.491-1.8-1.486l.086-.175c.4.531.678.847,1.157.847.572,0,.982-.519.982-1.657S1978.65,457.42,1978.084,457.42Z" transform="translate(-1885.643 -454.339)"/><path class="b" d="M1987.353,458.617a2.09,2.09,0,0,1-.054.519h-3.767v-.508h1.8c.462,0,.582-.173.582-.6,0-.632-.3-.945-.652-.945-.4,0-.766.437-.766,1.827,0,1.174.581,1.7,1.3,1.7a1.548,1.548,0,0,0,1.167-.518l.332.313a2.11,2.11,0,0,1-2.02,1.123,2.282,2.282,0,0,1-2.4-2.469,2.407,2.407,0,0,1,2.48-2.476A1.889,1.889,0,0,1,1987.353,458.617Z" transform="translate(-1887.145 -454.339)"/><path class="b" d="M1989.759,459.362V458.8c0-.53-.009-.723-.029-1.109l-.589-.086v-.379l1.9-.641.165.1.088,1.183v1.491c0,.6.01,1.589.03,2.022h-1.593C1989.75,460.951,1989.759,459.959,1989.759,459.362Zm-.542,1.573.921-.192h1.012l.92.192v.449h-2.853Zm1.365-2.846h.722l-.129.262c.169-1.179.84-1.768,1.415-1.768a.8.8,0,0,1,.836.71c-.021.5-.3.787-.684.787a.907.907,0,0,1-.744-.446l-.28-.368.388.14a2.337,2.337,0,0,0-.817,1.336l-.706-.069Z" transform="translate(-1888.379 -454.339)"/><path class="b" d="M1994.856,461.088l.023-1.182h.775l.218,1.288-.541-.186v-.4a2.193,2.193,0,0,0,1.2.388c.555,0,.86-.181.86-.568,0-.3-.178-.5-.812-.687l-.52-.15a1.438,1.438,0,0,1-1.165-1.435c0-.888.713-1.575,2.011-1.575a3.226,3.226,0,0,1,1.526.389l-.067,1.056h-.773l-.276-1.187.535.23v.354a1.547,1.547,0,0,0-.983-.311c-.43,0-.717.191-.717.539,0,.266.143.451.805.65l.47.134c.913.273,1.279.774,1.279,1.488,0,1.019-.82,1.6-2.177,1.6A3.2,3.2,0,0,1,1994.856,461.088Z" transform="translate(-1889.507 -454.339)"/></g></g></svg>