<svg xmlns="http://www.w3.org/2000/svg" width="306" height="216" viewBox="0 0 306 216"><defs><style>.a{fill:#f7f7f7;}.b{fill:#bb232f;stroke:#fff;stroke-miterlimit:10;}</style></defs><g transform="translate(-6284 -893)"><rect class="a" width="306" height="216" transform="translate(6284 893)"/><g transform="translate(6382 989.557)"><path class="b" d="M2702.759,1339.425h4.358l6.022,17.38h-4.847l-1.054-3.4h-4.626l-1.028,3.4h-4.872Zm3.722,10.8-1.542-5.385-1.616,5.385Z" transform="translate(-2696.712 -1339.327)"/><path class="b" d="M2721.073,1356.806v-17.38h4.773v13.219h7.883v4.162Z" transform="translate(-2703.86 -1339.327)"/><path class="b" d="M2740.254,1355.169v-4.162h7.663v4.162Z" transform="translate(-2709.424 -1342.366)"/><path class="b" d="M2759.233,1348.262v8.544h-4.773v-17.38h3.721l6.976,8.837v-8.837h4.774v17.38h-3.793Z" transform="translate(-2713.707 -1339.327)"/><path class="b" d="M2787.11,1356.917a8.361,8.361,0,0,1-3.6-.759,8.9,8.9,0,0,1-2.766-1.995,9.035,9.035,0,0,1-1.787-2.828,8.754,8.754,0,0,1-.636-3.28,8.56,8.56,0,0,1,.66-3.305,8.8,8.8,0,0,1,1.848-2.8,9.037,9.037,0,0,1,2.816-1.934,8.694,8.694,0,0,1,3.562-.721,8.371,8.371,0,0,1,3.6.758,8.825,8.825,0,0,1,2.766,2.008,9.025,9.025,0,0,1,1.775,2.839,8.851,8.851,0,0,1,.625,3.256,8.433,8.433,0,0,1-.662,3.293,8.913,8.913,0,0,1-1.836,2.791,9.026,9.026,0,0,1-2.8,1.946A8.56,8.56,0,0,1,2787.11,1356.917Zm-3.941-8.813a5.886,5.886,0,0,0,.245,1.7,4.432,4.432,0,0,0,.734,1.456,3.706,3.706,0,0,0,1.236,1.029,3.786,3.786,0,0,0,1.775.392,3.749,3.749,0,0,0,1.787-.4,3.616,3.616,0,0,0,1.236-1.053,4.51,4.51,0,0,0,.71-1.48,6.255,6.255,0,0,0,.232-1.689,5.927,5.927,0,0,0-.245-1.7,4.2,4.2,0,0,0-.746-1.444,3.772,3.772,0,0,0-1.249-1,4.219,4.219,0,0,0-3.525.012,3.651,3.651,0,0,0-1.236,1.04,4.42,4.42,0,0,0-.721,1.469A6.1,6.1,0,0,0,2783.169,1348.1Z" transform="translate(-2720.788 -1339.292)"/><path class="b" d="M2812.631,1356.917a8.362,8.362,0,0,1-3.6-.759,8.918,8.918,0,0,1-2.766-1.995,9.033,9.033,0,0,1-1.786-2.828,8.74,8.74,0,0,1-.637-3.28,8.543,8.543,0,0,1,.661-3.305,8.769,8.769,0,0,1,1.848-2.8,9.035,9.035,0,0,1,2.815-1.934,8.7,8.7,0,0,1,3.562-.721,8.372,8.372,0,0,1,3.6.758,8.831,8.831,0,0,1,2.766,2.008,9.02,9.02,0,0,1,1.775,2.839,8.841,8.841,0,0,1,.625,3.256,8.449,8.449,0,0,1-.661,3.293,8.907,8.907,0,0,1-1.837,2.791,9.014,9.014,0,0,1-2.8,1.946A8.557,8.557,0,0,1,2812.631,1356.917Zm-3.94-8.813a5.894,5.894,0,0,0,.245,1.7,4.413,4.413,0,0,0,.734,1.456,3.7,3.7,0,0,0,1.236,1.029,4.185,4.185,0,0,0,3.562-.013,3.614,3.614,0,0,0,1.236-1.053,4.514,4.514,0,0,0,.71-1.48,6.246,6.246,0,0,0,.233-1.689,5.944,5.944,0,0,0-.245-1.7,4.212,4.212,0,0,0-.747-1.444,3.772,3.772,0,0,0-1.248-1,4.22,4.22,0,0,0-3.526.012,3.661,3.661,0,0,0-1.236,1.04,4.421,4.421,0,0,0-.722,1.469A6.105,6.105,0,0,0,2808.691,1348.1Z" transform="translate(-2728.317 -1339.292)"/><path class="b" d="M2830.66,1356.806v-17.38h7.98a5.306,5.306,0,0,1,2.351.525,6.117,6.117,0,0,1,1.848,1.372,6.408,6.408,0,0,1,1.212,1.933,5.809,5.809,0,0,1,.44,2.191,6.177,6.177,0,0,1-.661,2.827,5.761,5.761,0,0,1-1.836,2.142l3.672,6.389h-5.385l-3.06-5.337h-1.787v5.337Zm4.773-9.5h3.011a1.057,1.057,0,0,0,.821-.49,2.19,2.19,0,0,0,.379-1.37,1.967,1.967,0,0,0-.44-1.383,1.236,1.236,0,0,0-.882-.478h-2.889Z" transform="translate(-2736.111 -1339.327)"/></g><g transform="translate(6384.187 1008.235)"><path d="M2701.117,1376.2h5.034v1.363h-6.475v-10.844h6.4v1.364h-4.957v3.33h4.57v1.348h-4.57Z" transform="translate(-2699.676 -1366.598)"/><path d="M2712.658,1372.919a.793.793,0,0,0,.456.7,4.88,4.88,0,0,0,1.088.451l1.269.373a2.225,2.225,0,0,1,1.081.7,1.964,1.964,0,0,1,.443,1.324,2.036,2.036,0,0,1-.814,1.688,3.284,3.284,0,0,1-2.083.635,3.619,3.619,0,0,1-1.936-.5,2.76,2.76,0,0,1-1.146-1.316l1.161-.666a1.638,1.638,0,0,0,.7.883,2.23,2.23,0,0,0,1.224.325,2.15,2.15,0,0,0,1.1-.255.86.86,0,0,0,.434-.8.814.814,0,0,0-.449-.719,4.773,4.773,0,0,0-1.081-.46l-1.27-.381a2.355,2.355,0,0,1-1.088-.687,1.819,1.819,0,0,1-.448-1.27,2.063,2.063,0,0,1,.783-1.658,2.957,2.957,0,0,1,1.959-.651,3.3,3.3,0,0,1,1.68.426,2.729,2.729,0,0,1,1.108,1.185l-1.131.635a1.622,1.622,0,0,0-1.657-.992,1.731,1.731,0,0,0-.976.266A.845.845,0,0,0,2712.658,1372.919Z" transform="translate(-2702.652 -1367.628)"/><path d="M2725.869,1371.452h-2.06v4.2a1.179,1.179,0,0,0,.224.813.925.925,0,0,0,.69.248q.464.008,1.146-.023v1.208a3.985,3.985,0,0,1-2.587-.287,2.137,2.137,0,0,1-.822-1.959v-4.2h-1.533v-1.3h1.533v-1.766l1.348-.4v2.169h2.06Z" transform="translate(-2705.252 -1366.929)"/><path d="M2736.573,1370.851h1.348v7.745h-1.348v-1.332a3.285,3.285,0,0,1-2.927,1.534,3.716,3.716,0,0,1-2.773-1.185,4.213,4.213,0,0,1,0-5.777,3.714,3.714,0,0,1,2.773-1.186,3.287,3.287,0,0,1,2.927,1.534Zm-2.757,6.644a2.655,2.655,0,0,0,1.967-.8,2.864,2.864,0,0,0,0-3.95,2.805,2.805,0,0,0-3.918,0,2.862,2.862,0,0,0,0,3.95A2.635,2.635,0,0,0,2733.816,1377.5Z" transform="translate(-2708.492 -1367.628)"/><path d="M2748.612,1371.452h-2.06v4.2a1.179,1.179,0,0,0,.224.813.927.927,0,0,0,.69.248c.31.005.691,0,1.146-.023v1.208a3.986,3.986,0,0,1-2.587-.287,2.139,2.139,0,0,1-.821-1.959v-4.2h-1.534v-1.3h1.534v-1.766l1.348-.4v2.169h2.06Z" transform="translate(-2712.541 -1366.929)"/><path d="M2753.847,1375.343a2.556,2.556,0,0,0,.953,1.612,2.96,2.96,0,0,0,1.851.573,2.424,2.424,0,0,0,2.231-1.131l1.146.651a3.783,3.783,0,0,1-3.408,1.75,4.054,4.054,0,0,1-3-1.154,3.96,3.96,0,0,1-1.154-2.92,4.008,4.008,0,0,1,1.131-2.913,3.907,3.907,0,0,1,2.928-1.162,3.564,3.564,0,0,1,2.781,1.2,4.183,4.183,0,0,1,1.077,2.889,4.086,4.086,0,0,1-.047.6Zm2.68-3.423a2.574,2.574,0,0,0-2.68,2.246h5.174a2.586,2.586,0,0,0-.867-1.674A2.488,2.488,0,0,0,2756.527,1371.92Z" transform="translate(-2715.16 -1367.628)"/><path d="M2779.611,1377.566l-.885-2.432h-4.876l-.885,2.432h-1.533l4.044-10.844h1.625l4.043,10.844Zm-5.27-3.78h3.895l-1.947-5.353Z" transform="translate(-2720.761 -1366.598)"/><path d="M2793.209,1366.722h1.348v10.844h-1.348v-1.332a3.285,3.285,0,0,1-2.928,1.534,3.716,3.716,0,0,1-2.772-1.185,4.212,4.212,0,0,1,0-5.777,3.714,3.714,0,0,1,2.772-1.186,3.287,3.287,0,0,1,2.928,1.534Zm-2.757,9.743a2.655,2.655,0,0,0,1.967-.8,2.863,2.863,0,0,0,0-3.95,2.806,2.806,0,0,0-3.919,0,2.863,2.863,0,0,0,0,3.95A2.638,2.638,0,0,0,2790.452,1376.465Z" transform="translate(-2725.108 -1366.598)"/><path d="M2806.4,1370.923h1.456l-3.1,7.745h-1.58l-3.1-7.745h1.455l2.432,6.288Z" transform="translate(-2729.119 -1367.7)"/><path d="M2813.821,1368.366a.883.883,0,0,1-.651-.263.864.864,0,0,1-.262-.635.891.891,0,0,1,.262-.643.874.874,0,0,1,.651-.271.855.855,0,0,1,.635.271.889.889,0,0,1,.264.643.9.9,0,0,1-.9.9Zm-.682,9.155v-7.745h1.348v7.745Z" transform="translate(-2732.688 -1366.554)"/><path d="M2819.862,1372.919a.793.793,0,0,0,.456.7,4.9,4.9,0,0,0,1.088.451l1.269.373a2.228,2.228,0,0,1,1.082.7,1.961,1.961,0,0,1,.442,1.324,2.033,2.033,0,0,1-.814,1.688,3.282,3.282,0,0,1-2.083.635,3.622,3.622,0,0,1-1.936-.5,2.761,2.761,0,0,1-1.146-1.316l1.161-.666a1.637,1.637,0,0,0,.7.883,2.228,2.228,0,0,0,1.223.325,2.147,2.147,0,0,0,1.1-.255.86.86,0,0,0,.434-.8.814.814,0,0,0-.449-.719,4.778,4.778,0,0,0-1.081-.46l-1.27-.381a2.349,2.349,0,0,1-1.087-.687,1.815,1.815,0,0,1-.449-1.27,2.062,2.062,0,0,1,.782-1.658,2.96,2.96,0,0,1,1.959-.651,3.3,3.3,0,0,1,1.68.426,2.726,2.726,0,0,1,1.108,1.185l-1.131.635a1.622,1.622,0,0,0-1.657-.992,1.732,1.732,0,0,0-.976.266A.845.845,0,0,0,2819.862,1372.919Z" transform="translate(-2735.034 -1367.628)"/><path d="M2835.627,1377.619a4.141,4.141,0,0,1-5.786,0,4.074,4.074,0,0,1,2.889-6.97,3.967,3.967,0,0,1,2.9,1.178,4.112,4.112,0,0,1,0,5.792Zm-2.9-.139a2.7,2.7,0,1,0-1.936-.79A2.654,2.654,0,0,0,2832.731,1377.481Z" transform="translate(-2737.772 -1367.628)"/><path d="M2844.285,1372.174a2.431,2.431,0,0,1,2.417-1.441v1.41a2.447,2.447,0,0,0-1.7.527,2.229,2.229,0,0,0-.712,1.843v4.106h-1.348v-7.745h1.348Z" transform="translate(-2741.519 -1367.651)"/></g></g></svg>