<svg xmlns="http://www.w3.org/2000/svg" width="306" height="216" viewBox="0 0 306 216"><defs><style>.a{fill:#f7f7f7;}.b{fill:#248cc0;}.c{fill:#252821;}.d{fill:#f33034;}</style></defs><g transform="translate(-4031 -650)"><rect class="a" width="306" height="216" transform="translate(4031 650)"/><g transform="translate(4148.929 715.384)"><path class="b" d="M1318.749,1238.819a33.688,33.688,0,0,1-7.321-15,37.113,37.113,0,0,1-.718-8.5,35.02,35.02,0,0,1,1.377-8.471,34,34,0,0,1,3.391-7.928,36.056,36.056,0,0,1,5.2-6.913,35.355,35.355,0,0,1,3.188-2.951,38.145,38.145,0,0,1,3.536-2.531,35.628,35.628,0,0,1,7.859-3.708,37.567,37.567,0,0,1,8.514-1.718,36.377,36.377,0,0,1,8.671.371,34.78,34.78,0,0,1,8.308,2.439,36.777,36.777,0,0,1,3.866,1.941,37.829,37.829,0,0,1,3.578,2.414,34.627,34.627,0,0,1,13.24,21.267c.1.7.235,1.386.314,2.083s.165,1.391.2,2.089a33.024,33.024,0,0,1-.019,4.179,38.575,38.575,0,0,0-1.393-8.14,36.04,36.04,0,0,0-3.131-7.53,33.808,33.808,0,0,0-4.706-6.563c-.437-.51-.933-.966-1.394-1.453-.478-.47-.972-.924-1.469-1.373-.518-.425-1.008-.882-1.549-1.277l-.8-.611c-.27-.2-.548-.383-.821-.574a34.534,34.534,0,0,0-7.039-3.745,33.425,33.425,0,0,0-7.672-2.032,34.357,34.357,0,0,0-15.662,1.387,32.808,32.808,0,0,0-7.167,3.334,34.893,34.893,0,0,0-3.256,2.26,38.514,38.514,0,0,0-2.964,2.64,34.536,34.536,0,0,0-8.369,13.416,35.13,35.13,0,0,0-1.523,15.92A36.479,36.479,0,0,0,1318.749,1238.819Z" transform="translate(-1310.692 -1181)"/><path class="b" d="M1329.872,1215.212a36.574,36.574,0,0,0,5.547,1.894,37.975,37.975,0,0,0,5.724,1.036,29.161,29.161,0,0,0,11.415-1.027,24.49,24.49,0,0,0,5.275-2.256,28.279,28.279,0,0,0,2.447-1.524c.395-.275.765-.584,1.152-.873l.578-.436c.188-.151.365-.316.548-.473a44.816,44.816,0,0,0,7.671-8.783,34.288,34.288,0,0,1-7.024,9.508c-.181.172-.355.351-.542.516l-.574.481c-.388.315-.766.644-1.166.942a29.334,29.334,0,0,1-2.5,1.664,24.878,24.878,0,0,1-5.5,2.426,27.135,27.135,0,0,1-5.916,1.058,28.548,28.548,0,0,1-5.98-.262,32.366,32.366,0,0,1-5.781-1.415A27.766,27.766,0,0,1,1329.872,1215.212Z" transform="translate(-1320.973 -1192.668)"/><path class="b" d="M1356.831,1249.819l.27,1.2c-.1.058-.2.112-.291.166a24.748,24.748,0,0,1-5.5,2.425,27.077,27.077,0,0,1-5.917,1.059,28.525,28.525,0,0,1-5.979-.262,32.306,32.306,0,0,1-5.78-1.416,27.738,27.738,0,0,1-5.373-2.475,36.511,36.511,0,0,0,5.547,1.894,38.524,38.524,0,0,0,5.725,1.038,29.139,29.139,0,0,0,11.414-1.03,24.574,24.574,0,0,0,5.277-2.255C1356.432,1250.052,1356.631,1249.939,1356.831,1249.819Z" transform="translate(-1320.109 -1217.887)"/><path class="b" d="M1412.85,1224.495q-.772,1.52-1.682,2.973l-.386-.145Q1411.859,1225.947,1412.85,1224.495Z" transform="translate(-1364.341 -1204.314)"/><path class="b" d="M1331.756,1274.925c.1.029.2.062.3.087l-.141.619c-.12-.042-.237-.087-.357-.133a27.746,27.746,0,0,1-5.265-2.691A37.066,37.066,0,0,0,1331.756,1274.925Z" transform="translate(-1319.054 -1230.209)"/><path class="b" d="M1369.7,1270.382c-.664.872-1.308,1.727-1.914,2.541l0,0c-.245.142-.494.278-.747.407a24.779,24.779,0,0,1-5.6,2.2c-.527.133-1.059.249-1.59.348a27.074,27.074,0,0,1-4.364.47,28.691,28.691,0,0,1-5.962-.507c-.128-.025-.257-.05-.386-.079,0-.315.008-.648.012-.959.179.029.353.058.531.083a29.182,29.182,0,0,0,11.447-.561c.1-.025.191-.045.282-.075a24.6,24.6,0,0,0,5.078-1.968,28.129,28.129,0,0,0,2.508-1.42C1369.237,1270.714,1369.469,1270.548,1369.7,1270.382Z" transform="translate(-1331.299 -1228.909)"/><path class="b" d="M1377.412,1184.142a54.786,54.786,0,0,0-5.081,7.976,45.534,45.534,0,0,0-3.561,8.745,32.454,32.454,0,0,0-1.008,4.6c-.125.776-.2,1.556-.284,2.338l-.065,1.176c-.032.393-.038.786-.039,1.179a35.407,35.407,0,0,0,1.194,9.46,23.2,23.2,0,0,1-2.679-9.415,26.123,26.123,0,0,1,.1-4.967,34.365,34.365,0,0,1,.9-4.885,41.953,41.953,0,0,1,1.548-4.71,45.261,45.261,0,0,1,4.672-8.69,35.952,35.952,0,0,1,3.062-3.905Z" transform="translate(-1340.237 -1182.096)"/><path class="b" d="M1362.991,1184.112c-.716.38-1.468.856-2.181,1.327s-1.427.977-2.111,1.508a42.539,42.539,0,0,0-3.915,3.414,37.956,37.956,0,0,0-6.324,8.209,34.86,34.86,0,0,0-2.237,4.693,36.317,36.317,0,0,0-1.513,4.986,72.556,72.556,0,0,0-1.222,10.45,27.94,27.94,0,0,1,.07-10.686,37.588,37.588,0,0,1,1.408-5.214,36.238,36.238,0,0,1,2.177-4.955,38.668,38.668,0,0,1,10.521-12.247,31.3,31.3,0,0,1,4.586-2.971Z" transform="translate(-1328.012 -1181.872)"/><path class="c" d="M1383.381,1252.854l-1.15-.838s3.588-6.577-1.893-9.168c-3.957-1.873-9.528,4.675-14.042,10.6-.664.872-1.308,1.727-1.918,2.545-.984,1.316-1.889,2.52-2.674,3.5-2.184,2.7-4.708,5.667-8.034,7.046a7.756,7.756,0,0,1-5.851.13c-3.875-1.529-5.265-4.557-5.006-8.567.016-.258.045-.515.087-.785a12.452,12.452,0,0,1,1.366-4.1l1,.415a14.259,14.259,0,0,0-.6,4.065c0,.3.016.611.05.922a5.867,5.867,0,0,0,1.485,3.546c3.416,3.5,7.8-.782,10.248-3.21.494-.49,1.013-1.03,1.561-1.627a71.1,71.1,0,0,0,5.07-6.3c2.819-3.9,5.946-8.113,10.1-10.728,3.986-2.5,9.72-2.1,11.671,2.9C1386.059,1246.29,1384.618,1250.01,1383.381,1252.854Z" transform="translate(-1327.893 -1211.975)"/><path class="d" d="M1357.559,1244.662c.207-2.486-1.568-3.908-3.95-3.744a3.421,3.421,0,0,0-3.4,3.4c.039,1.547,1.578,2.691,2.881,3.431a20.993,20.993,0,0,1,4.109,2.492,20.213,20.213,0,0,1,1.958,2.1c.1.119.719,1.111.865,1.111l-3.886,4.219c.166-.181-1.817-2.466-1.958-2.626-2.313-2.616-6.149-3.776-6.944-7.439a7.4,7.4,0,0,1,1.509-6.416c2.526-2.855,6.838-2.684,10.232-1.9l-.225,5.68h-1.22Z" transform="translate(-1330.184 -1211.975)"/><path class="d" d="M1380.924,1242.631c.1-.426.13-1.49-2-1.569v-1h8.968v1.1s-2.093-.1-2.043,1.445a7.032,7.032,0,0,1,0,1.544l-5.107,5.107.117-6.06A2.728,2.728,0,0,1,1380.924,1242.631Z" transform="translate(-1347.266 -1212.659)"/><path class="d" d="M1378.55,1285.583h1.495s.561.224.635-.785a9.531,9.531,0,0,0,0-1.644l4.746-6.016v7.735s.112.566,1.046.731a8.747,8.747,0,0,0,1.239.166v.747h-9.161Z" transform="translate(-1347.064 -1232.531)"/><path class="d" d="M1400.721,1264.333l6.028,8.968s3.837,5.17,7.773,5.375v.553a5.605,5.605,0,0,1-4.335,1.046c-2.691-.4-5.68-1.893-11.933-12.406Z" transform="translate(-1357.626 -1225.667)"/><g transform="translate(8.75 40.561)"><path class="c" d="M1333.851,1309.453l.272-.293c.734.513.908.507,1.152-.035s.515-1.226.837-2.02l-2.24-2.084c-.61.305-1.119.573-1.629.855-.8.413-.828.61-.117,1.427l-.272.293-2.3-2.142.273-.293c.774.524.986.592,2.2.028l7.144-3.287.448.247c-1.011,2.43-2.029,4.869-3.006,7.3-.5,1.212-.46,1.46.152,2.159l-.272.294Zm3.986-6.342-.022-.019c-1.12.533-2.26,1.1-3.34,1.631l1.913,1.779Z" transform="translate(-1329.551 -1286.365)"/><path class="c" d="M1357.163,1319.27a1.709,1.709,0,0,0-.712-1.9.864.864,0,0,0-1.192.451c-.249.515.087,1.048.554,1.548.784.855,1.224,1.629.8,2.512a2.124,2.124,0,0,1-2.986.727,2.918,2.918,0,0,1-1.276-1.124,7.548,7.548,0,0,1,.523-1.653l.376.118a2.118,2.118,0,0,0,.8,2.346.952.952,0,0,0,1.286-.427c.249-.515.051-.959-.46-1.566-.577-.691-1.253-1.547-.772-2.543a1.972,1.972,0,0,1,2.77-.694,3.008,3.008,0,0,1,1.041.779,7.86,7.86,0,0,1-.359,1.488Z" transform="translate(-1341.77 -1294.345)"/><path class="c" d="M1371.592,1323.766c-.077-.861-.424-1.542-1.1-1.706a.865.865,0,0,0-1.069.694c-.133.556.308,1.005.87,1.4.946.669,1.542,1.332,1.312,2.286a2.125,2.125,0,0,1-2.764,1.344,2.929,2.929,0,0,1-1.487-.828,7.631,7.631,0,0,1,.161-1.726l.394.035a2.117,2.117,0,0,0,1.283,2.123.952.952,0,0,0,1.166-.69c.134-.556-.154-.949-.783-1.433-.709-.553-1.553-1.246-1.294-2.32a1.973,1.973,0,0,1,2.559-1.267,3.018,3.018,0,0,1,1.184.54,7.823,7.823,0,0,1-.035,1.53Z" transform="translate(-1349.807 -1296.919)"/><path class="c" d="M1386.777,1323.281a3.08,3.08,0,0,1,3.228,3,3.159,3.159,0,0,1-3.061,3.4,3.073,3.073,0,0,1-3.294-2.969,3.265,3.265,0,0,1,3.117-3.431Zm-.168.471c-.819.023-1.558.873-1.515,2.444.049,1.762.846,3.027,1.989,2.995.819-.023,1.538-.595,1.483-2.547-.046-1.667-.748-2.925-1.938-2.892Z" transform="translate(-1358.548 -1297.824)"/><path class="c" d="M1409.793,1323.753a3.435,3.435,0,0,1-1.881,2.113,2.84,2.84,0,0,1-3.655-1.894,3.3,3.3,0,0,1,.557-3.013,3.947,3.947,0,0,1,1.843-1.411l.018-.006a2.038,2.038,0,0,1,1.33-.03.494.494,0,0,1,.347.341.693.693,0,0,1-.281.758c-.082.025-.156.009-.312-.071a2.135,2.135,0,0,0-1.561-.137c-.837.264-1.387,1.177-.943,2.586a2.217,2.217,0,0,0,4.216.538Z" transform="translate(-1369.512 -1295.752)"/><path class="c" d="M1415.681,1311.061a.777.777,0,0,1,.3-1.064.747.747,0,0,1,1.031.315.756.756,0,0,1-.294,1.03A.782.782,0,0,1,1415.681,1311.061Zm3.367,7.486-.183-.323c.73-.51.779-.637.3-1.483l-1.375-2.44c-.43-.764-.5-.8-1.305-.511l-.164-.291a10.542,10.542,0,0,0,1.581-1.5l2.334,4.141c.473.838.594.857,1.433.5l.182.324Z" transform="translate(-1375.662 -1290.652)"/><path class="c" d="M1434.692,1310.309a1.128,1.128,0,0,1-.724.276,1.256,1.256,0,0,1-.65-.213,4.751,4.751,0,0,1-.646,1.74,1.722,1.722,0,0,1-2.451-.113,1.37,1.37,0,0,1-.047-1.784,9.049,9.049,0,0,0,1.033-2.135l-.166-.185c-.667-.747-1.363-.841-1.869-.39a.813.813,0,0,0-.283.584,2.189,2.189,0,0,0,.309.99.444.444,0,0,1-.113.562.7.7,0,0,1-.9-.031c-.139-.156-.118-.405-.038-.731a6.514,6.514,0,0,1,.96-2.173,1.907,1.907,0,0,1,1.117-.524,2.1,2.1,0,0,1,1.679.865l1.669,1.871c.412.462.737.453.929.283a1.117,1.117,0,0,0,.276-.451l.354.182Zm-3.161-1.868c-.118.3-.368.877-.5,1.173-.253.545-.3.955.046,1.339a1,1,0,0,0,1.43.143,1.7,1.7,0,0,0,.47-1.034Z" transform="translate(-1382.367 -1288.658)"/><path class="c" d="M1443.187,1298.595a1.334,1.334,0,0,1-.2.6c-.553.764-1.292.876-2.2.217l-3.241-2.345-.564.779-.17-.041-.111-.562.375-.517-.819-.592-.179-1.411.143-.132,1.574,1.139.927-1.281a.409.409,0,0,1,.415.418l-.871,1.2,2.848,2.061c.911.659,1.35.377,1.557.091a1.983,1.983,0,0,0,.31-.834l.381.122Z" transform="translate(-1386.65 -1282.367)"/><path class="c" d="M1451.44,1283.317a3.28,3.28,0,0,1,.333,2.752,2.781,2.781,0,0,1-3.813,1.368,3.487,3.487,0,0,1-1.825-1.779,2.985,2.985,0,0,1-.129-2.383l0-.008a2.2,2.2,0,0,1,2.832-1.14c.245.106.328.225.278.484-.067.251-.641,1.934-1.242,3.46,1.664.69,2.784.023,3.175-.877a2.356,2.356,0,0,0,.013-1.781Zm-5.087.473c-.242.56.013,1.335,1,1.982.3-.691.6-1.381.887-2.118.09-.231.054-.34-.112-.413a1.293,1.293,0,0,0-1.772.541Z" transform="translate(-1391.869 -1275.678)"/><path class="c" d="M1452.111,1268.827c-.855.126-1.516.51-1.641,1.195a.864.864,0,0,0,.754,1.027c.563.1.986-.363,1.344-.948.614-.983,1.242-1.615,2.208-1.44a2.125,2.125,0,0,1,1.5,2.683,2.928,2.928,0,0,1-.743,1.531,7.612,7.612,0,0,1-1.732-.062l.012-.395c.967-.1,1.9-.576,2.046-1.4a.951.951,0,0,0-.755-1.125c-.563-.1-.938.207-1.386.863-.513.74-1.156,1.62-2.244,1.424a1.973,1.973,0,0,1-1.409-2.483,3.042,3.042,0,0,1,.471-1.213,8.027,8.027,0,0,1,1.53-.052Z" transform="translate(-1394.122 -1268.417)"/></g></g><g transform="translate(4138 792.797)"><path class="d" d="M1291.393,1349.321v1.776h-.714v5.841h1.736v-1.709h2.261v3.5h-7.537v-1.79h.74V1351.1h-.74v-1.776Z" transform="translate(-1287.14 -1348.634)"/><path class="d" d="M1304.822,1355.207a6.048,6.048,0,0,1,2.934-.956c1.615,0,3.647.606,3.647,2.773v2.624h.807v1.723h-2.88l-.323-.606a2.282,2.282,0,0,1-1.817.862,2.374,2.374,0,0,1-2.651-2.248,2.57,2.57,0,0,1,2.8-2.476,1.911,1.911,0,0,1,1.332.471v-.471c0-.605-.552-.754-1.278-.754a4.2,4.2,0,0,0-2.005.62Zm3.849,3.715a.839.839,0,0,0-.794-.39c-.538,0-.781.3-.781.713a.653.653,0,0,0,.713.632,1.057,1.057,0,0,0,.862-.444Z" transform="translate(-1296.467 -1351.277)"/><path class="d" d="M1322.229,1361.542v-1.763h.565v-3.216h-.565v-1.75h2.867l.31.835a2.321,2.321,0,0,1,1.924-1.076c2.086,0,2.436,1.548,2.436,2.961v2.248h.632v1.763h-3.391v-3.674c0-.458.04-1.251-.754-1.251-.687,0-.848.673-.848,1.251v1.911h.969v1.763Z" transform="translate(-1305.948 -1351.448)"/><path class="d" d="M1344.755,1349.591v-1.75h3.351v8.345h.646v1.749H1345.6l-.229-.5a2.542,2.542,0,0,1-1.7.619,3.3,3.3,0,0,1-3.123-3.553,3.206,3.206,0,0,1,3.123-3.433,2.807,2.807,0,0,1,1.7.512v-1.992Zm-.336,6.568c.525,0,1.01-.659.956-1.723,0-.915-.458-1.615-.969-1.615-.565,0-.956.659-.956,1.682C1343.449,1355.311,1343.827,1356.158,1344.419,1356.158Z" transform="translate(-1315.771 -1347.841)"/><path class="d" d="M1370.988,1349.321c3.123,0,3.715,1.346,3.715,2.88,0,1.777-1.615,2.665-3.539,2.665h-1.023v2.086h.821v1.777h-4.334v-1.777h.754v-5.868h-.754v-1.763Zm-.848,4.091h.605c.781,0,1.319-.4,1.319-1.117a1.127,1.127,0,0,0-1.252-1.225h-.673Z" transform="translate(-1329.745 -1348.634)"/><path class="d" d="M1385.188,1361.434v-1.763h.592v-3.217h-.579v-1.75h2.53l.4.862a1.947,1.947,0,0,1,2.086-1.2v2.422c-1.212,0-1.9.31-1.9,1.494v1.386H1389v1.763Z" transform="translate(-1339.694 -1351.339)"/><path class="d" d="M1396.787,1358.244a3.72,3.72,0,0,1,7.429.054,3.4,3.4,0,0,1-3.674,3.513A3.484,3.484,0,0,1,1396.787,1358.244Zm4.67.054c0-1.01-.35-1.791-.983-1.8-.525,0-.928.781-.928,1.764,0,1.1.431,1.83,1,1.83S1401.457,1359.307,1401.457,1358.3Z" transform="translate(-1345.911 -1351.542)"/><path class="d" d="M1417.555,1359.641a5.367,5.367,0,0,1,.4-1.481l.646-1.359h-.713v-1.71h3.472v1.71h-.7l-2.328,5.02h-2.086l-2.5-5.02h-.632v-1.71h4.092v1.71h-.673l.619,1.426a7.837,7.837,0,0,1,.35,1.413Z" transform="translate(-1354.663 -1351.728)"/><path class="d" d="M1431.616,1357.966V1356.2h.565v-3.216h-.565v-1.75h3.122v4.967h.646v1.763Zm1.83-10.067a1.447,1.447,0,0,1,1.48,1.373,1.349,1.349,0,0,1-1.48,1.359,1.45,1.45,0,0,1-1.454-1.359A1.412,1.412,0,0,1,1433.446,1347.9Z" transform="translate(-1364.58 -1347.872)"/><path class="d" d="M1444.949,1349.591v-1.75h3.351v8.345h.646v1.749h-3.15l-.229-.5a2.542,2.542,0,0,1-1.7.619,3.3,3.3,0,0,1-3.122-3.553,3.206,3.206,0,0,1,3.122-3.433,2.8,2.8,0,0,1,1.7.512v-1.992Zm-.336,6.568c.525,0,1.01-.659.955-1.723,0-.915-.458-1.615-.969-1.615-.565,0-.955.659-.955,1.682C1443.643,1355.311,1444.02,1356.158,1444.613,1356.158Z" transform="translate(-1369.476 -1347.841)"/><path class="d" d="M1466.016,1360.676a4.91,4.91,0,0,1-3.473,1.172,3.425,3.425,0,0,1-3.553-3.648,3.39,3.39,0,0,1,3.62-3.512,3.238,3.238,0,0,1,3.217,1.952,3.9,3.9,0,0,1,.027,2.274h-4.24a1.241,1.241,0,0,0,1.386,1.1,2.741,2.741,0,0,0,1.884-.646Zm-2.328-3.1c-.014-.511-.135-1.076-1-1.076a1.059,1.059,0,0,0-1.036,1.076Z" transform="translate(-1379.253 -1351.51)"/><path class="d" d="M1475.289,1361.434v-1.763h.592v-3.217h-.579v-1.75h2.53l.4.862a1.948,1.948,0,0,1,2.086-1.2v2.422c-1.212,0-1.9.31-1.9,1.494v1.386h.674v1.763Z" transform="translate(-1387.989 -1351.339)"/></g></g></svg>