<svg xmlns="http://www.w3.org/2000/svg" width="306" height="216" viewBox="0 0 306 216"><defs><style>.a{fill:#f7f7f7;}.b{fill:#d48b67;}.c{fill:#fff;}.d{fill:#c76261;}.e{fill:#4844ae;}.f{fill:#049ae6;}</style></defs><g transform="translate(-3709 -650)"><rect class="a" width="306" height="216" transform="translate(3709 650)"/><g transform="translate(3817.809 703.618)"><g transform="translate(5.105)"><g transform="translate(31.173)"><path class="b" d="M2046.959,717.6l-43.573-25.992-7.756-4.74v91.036h38.7V717.6h12.631Z" transform="translate(-1995.631 -686.869)"/><g transform="translate(6.412 39.404)"><rect class="c" width="12.227" height="12.227"/><rect class="c" width="12.227" height="12.227" transform="translate(14.631)"/><rect class="c" width="12.227" height="12.227" transform="translate(0 13.913)"/><rect class="c" width="12.227" height="12.227" transform="translate(14.631 13.913)"/></g></g><path class="d" d="M1989.959,777.905V686.869l-6.808,5.32v85.8Z" transform="translate(-1961.294 -686.869)"/><path class="e" d="M1977.479,781.454V700.869l-6.808,5.32V781.54Z" transform="translate(-1958.13 -690.418)"/><path class="f" d="M1963.9,790.581V736.869l-9.4,7.348-.629,46.489Z" transform="translate(-1953.871 -699.545)"/></g><path class="e" d="M2034.638,815.339s-51.6-7.524-87.605,0" transform="translate(-1947.033 -718.591)"/></g><g transform="translate(3816 806.097)"><path d="M1951.093,832.4v-5.263l-2.049,3.919h-.84l-2.049-3.919V832.4h-1.545v-7.95h1.657l2.352,4.524,2.373-4.524h1.646v7.95Z" transform="translate(-1944.61 -824.228)"/><path d="M1957.585,832.406v-7.939h1.545v7.939Z" transform="translate(-1947.899 -824.232)"/><path d="M1970.98,831.047V832.4h-5.52v-7.95h5.419v1.355H1967v1.915h3.349v1.253H1967v2.071Z" transform="translate(-1949.896 -824.228)"/><path d="M1976.434,833.184a5.182,5.182,0,0,1-.744-.057,6.278,6.278,0,0,1-.756-.157,5.143,5.143,0,0,1-.705-.246,3.365,3.365,0,0,1-.593-.325l.6-1.018a3.98,3.98,0,0,0,2.161.727,1.4,1.4,0,0,0,.739-.167.538.538,0,0,0,.269-.482.491.491,0,0,0-.319-.464,5.978,5.978,0,0,0-1.07-.33,9,9,0,0,1-.975-.28,2.4,2.4,0,0,1-.649-.337,1.148,1.148,0,0,1-.358-.437,1.393,1.393,0,0,1-.113-.582,1.747,1.747,0,0,1,.678-1.416,2.3,2.3,0,0,1,.75-.387,3.122,3.122,0,0,1,.935-.134,4.125,4.125,0,0,1,1.248.2,5.036,5.036,0,0,1,1.159.531l-.616.929a4.079,4.079,0,0,0-.929-.453,2.848,2.848,0,0,0-.873-.14,1.354,1.354,0,0,0-.677.157.538.538,0,0,0-.275.5.456.456,0,0,0,.263.437,4.954,4.954,0,0,0,.935.3c.418.1.774.21,1.07.313a3.01,3.01,0,0,1,.727.359,1.24,1.24,0,0,1,.415.464,1.436,1.436,0,0,1,.128.632,1.668,1.668,0,0,1-.661,1.361,2.255,2.255,0,0,1-.767.37A3.667,3.667,0,0,1,1976.434,833.184Z" transform="translate(-1951.968 -824.897)"/><path d="M1985.238,832.161a6.487,6.487,0,0,1-.744.269,3.165,3.165,0,0,1-.924.134,2.159,2.159,0,0,1-.588-.078,1.314,1.314,0,0,1-.482-.252,1.244,1.244,0,0,1-.33-.448,1.622,1.622,0,0,1-.123-.667v-3.37h-.761V826.6h.761v-1.9h1.5v1.9h1.243v1.153h-1.243v2.867a.521.521,0,0,0,.167.441.64.64,0,0,0,.4.129,1.38,1.38,0,0,0,.459-.078q.224-.078.358-.134Z" transform="translate(-1953.908 -824.289)"/><path d="M1989.063,833.188a2.222,2.222,0,0,1-.794-.14,1.932,1.932,0,0,1-.639-.392,1.852,1.852,0,0,1-.42-.587,1.785,1.785,0,0,1-.151-.74,1.625,1.625,0,0,1,.184-.767,1.76,1.76,0,0,1,.515-.6,2.575,2.575,0,0,1,.79-.386,3.438,3.438,0,0,1,1.007-.14,4.409,4.409,0,0,1,.767.067,3.2,3.2,0,0,1,.666.19v-.336a1.173,1.173,0,0,0-.33-.9,1.371,1.371,0,0,0-.98-.314,2.588,2.588,0,0,0-.917.167,4.3,4.3,0,0,0-.919.493l-.459-.952a4.335,4.335,0,0,1,2.442-.75,2.857,2.857,0,0,1,1.965.622,2.279,2.279,0,0,1,.7,1.8v1.826a.5.5,0,0,0,.089.335.432.432,0,0,0,.314.112v1.276a3.3,3.3,0,0,1-.4.061c-.123.012-.23.018-.319.018a1.045,1.045,0,0,1-.649-.2.806.806,0,0,1-.28-.5l-.034-.325a2.6,2.6,0,0,1-.952.784A2.725,2.725,0,0,1,1989.063,833.188Zm.426-1.1a1.957,1.957,0,0,0,.722-.134,1.311,1.311,0,0,0,.531-.358.537.537,0,0,0,.246-.425V830.5a3.746,3.746,0,0,0-.582-.163,3.2,3.2,0,0,0-.605-.061,1.6,1.6,0,0,0-.951.264.79.79,0,0,0-.37.666.8.8,0,0,0,.291.633A1.055,1.055,0,0,0,1989.49,832.09Z" transform="translate(-1955.372 -824.901)"/><path d="M1999.5,832.161a6.609,6.609,0,0,1-.744.269,3.17,3.17,0,0,1-.925.134,2.158,2.158,0,0,1-.588-.078,1.3,1.3,0,0,1-.481-.252,1.244,1.244,0,0,1-.331-.448,1.634,1.634,0,0,1-.123-.667v-3.37h-.761V826.6h.761v-1.9h1.5v1.9h1.243v1.153h-1.243v2.867a.519.519,0,0,0,.168.441.638.638,0,0,0,.4.129,1.38,1.38,0,0,0,.459-.078q.223-.078.358-.134Z" transform="translate(-1957.524 -824.289)"/><path d="M2004.459,833.188a3.26,3.26,0,0,1-1.277-.242,2.875,2.875,0,0,1-1.6-1.618,3.089,3.089,0,0,1-.219-1.153,3.273,3.273,0,0,1,.213-1.182,2.869,2.869,0,0,1,.616-.973,2.924,2.924,0,0,1,.979-.667,3.259,3.259,0,0,1,1.293-.246,3.185,3.185,0,0,1,1.282.246,2.955,2.955,0,0,1,.962.661,2.817,2.817,0,0,1,.605.963,3.223,3.223,0,0,1,.207,1.142c0,.1,0,.19-.006.28a1.078,1.078,0,0,1-.028.224h-4.535a1.738,1.738,0,0,0,.169.616,1.5,1.5,0,0,0,.347.46,1.512,1.512,0,0,0,.481.29,1.581,1.581,0,0,0,.56.1,1.741,1.741,0,0,0,.846-.218,1.153,1.153,0,0,0,.543-.577l1.288.358a2.611,2.611,0,0,1-1.036,1.1A3.207,3.207,0,0,1,2004.459,833.188Zm1.523-3.539a1.566,1.566,0,0,0-.487-1.059,1.53,1.53,0,0,0-2.077.006,1.537,1.537,0,0,0-.33.459,1.624,1.624,0,0,0-.152.593Z" transform="translate(-1959 -824.901)"/><path d="M2013.1,832.4l3.135-7.95h1.254l3.123,7.95h-1.634l-.729-1.982h-2.787l-.729,1.982Zm3.762-6.282-1.143,3.214h2.251Z" transform="translate(-1961.974 -824.228)"/><path d="M2026.152,832.439a2.629,2.629,0,0,1-1.115-.236,2.655,2.655,0,0,1-.879-.649,3.039,3.039,0,0,1-.577-.968,3.378,3.378,0,0,1-.208-1.192,3.5,3.5,0,0,1,.2-1.187,3.119,3.119,0,0,1,.543-.963,2.5,2.5,0,0,1,.829-.649,2.362,2.362,0,0,1,1.052-.236,2.21,2.21,0,0,1,1.158.313,2.27,2.27,0,0,1,.812.817v-3.337h1.5v6.45a.5.5,0,0,0,.09.335.429.429,0,0,0,.313.112v1.276a4.017,4.017,0,0,1-.717.079,1.077,1.077,0,0,1-.643-.191.777.777,0,0,1-.286-.5l-.034-.4a2.133,2.133,0,0,1-.873.846A2.486,2.486,0,0,1,2026.152,832.439Zm.391-1.276a1.431,1.431,0,0,0,.437-.073,1.575,1.575,0,0,0,.415-.207,2.009,2.009,0,0,0,.347-.314,1.228,1.228,0,0,0,.234-.392v-1.4a1.832,1.832,0,0,0-.621-.817,1.478,1.478,0,0,0-.9-.325,1.357,1.357,0,0,0-.621.146,1.468,1.468,0,0,0-.487.4,1.877,1.877,0,0,0-.314.576,2.033,2.033,0,0,0-.113.672,1.858,1.858,0,0,0,.123.684,1.733,1.733,0,0,0,.342.548,1.589,1.589,0,0,0,.515.37A1.545,1.545,0,0,0,2026.543,831.162Z" transform="translate(-1964.578 -824.152)"/><path d="M2034.85,833.109l-2.161-5.867h1.545l1.489,4.647,1.5-4.647h1.41l-2.16,5.867Z" transform="translate(-1966.94 -824.935)"/><path d="M2041.645,825.641v-1.489h1.5v1.489Zm0,6.685v-5.867h1.5v5.867Z" transform="translate(-1969.21 -824.152)"/><path d="M2047.593,833.184a5.188,5.188,0,0,1-.744-.057,6.268,6.268,0,0,1-.756-.157,5.139,5.139,0,0,1-.706-.246,3.371,3.371,0,0,1-.594-.325l.605-1.018a3.978,3.978,0,0,0,2.16.727,1.4,1.4,0,0,0,.739-.167.536.536,0,0,0,.269-.482.491.491,0,0,0-.319-.464,5.979,5.979,0,0,0-1.07-.33,8.984,8.984,0,0,1-.974-.28,2.375,2.375,0,0,1-.649-.337,1.15,1.15,0,0,1-.359-.437,1.4,1.4,0,0,1-.112-.582,1.744,1.744,0,0,1,.678-1.416,2.3,2.3,0,0,1,.75-.387,3.127,3.127,0,0,1,.935-.134,4.133,4.133,0,0,1,1.249.2,5.046,5.046,0,0,1,1.158.531l-.616.929a4.058,4.058,0,0,0-.929-.453,2.848,2.848,0,0,0-.873-.14,1.354,1.354,0,0,0-.677.157.538.538,0,0,0-.275.5.456.456,0,0,0,.263.437,4.99,4.99,0,0,0,.935.3c.418.1.774.21,1.07.313a3.012,3.012,0,0,1,.727.359,1.24,1.24,0,0,1,.415.464,1.435,1.435,0,0,1,.128.632,1.667,1.667,0,0,1-.661,1.361,2.256,2.256,0,0,1-.767.37A3.663,3.663,0,0,1,2047.593,833.184Z" transform="translate(-1970.008 -824.897)"/><path d="M2055.658,833.188a3.228,3.228,0,0,1-1.287-.246,2.878,2.878,0,0,1-.969-.667,2.93,2.93,0,0,1-.611-.969,3.262,3.262,0,0,1,0-2.317,2.922,2.922,0,0,1,.611-.969,2.877,2.877,0,0,1,.969-.667,3.216,3.216,0,0,1,1.287-.246,3.182,3.182,0,0,1,1.282.246,2.9,2.9,0,0,1,.963.667,2.944,2.944,0,0,1,.61.969,3.248,3.248,0,0,1,0,2.317,2.987,2.987,0,0,1-.6.969,2.827,2.827,0,0,1-.963.667A3.232,3.232,0,0,1,2055.658,833.188Zm-1.534-3.035a2.036,2.036,0,0,0,.118.711,1.75,1.75,0,0,0,.324.555,1.47,1.47,0,0,0,.488.364,1.48,1.48,0,0,0,1.209,0,1.466,1.466,0,0,0,.487-.364,1.724,1.724,0,0,0,.325-.56,2.1,2.1,0,0,0,.117-.717,2.062,2.062,0,0,0-.117-.706,1.724,1.724,0,0,0-.325-.56,1.457,1.457,0,0,0-.487-.364,1.435,1.435,0,0,0-.605-.129,1.384,1.384,0,0,0-.6.134,1.53,1.53,0,0,0-.488.37,1.74,1.74,0,0,0-.324.56A2.057,2.057,0,0,0,2054.124,830.153Z" transform="translate(-1971.982 -824.901)"/><path d="M2065.627,828.51a2.955,2.955,0,0,0-1.22.264,1.532,1.532,0,0,0-.772.755v3.549h-1.5v-5.867h1.377v1.255a2.728,2.728,0,0,1,.789-.975,1.671,1.671,0,0,1,1.024-.37c.083,0,.144,0,.185.006a.973.973,0,0,1,.118.016Z" transform="translate(-1974.405 -824.905)"/></g></g></svg>