<svg xmlns="http://www.w3.org/2000/svg" width="306" height="216" viewBox="0 0 306 216"><defs><style>.a{fill:#f7f7f7;}.b{fill:#9c8035;}.c{fill:#231f20;}</style></defs><g transform="translate(-807 -650)"><rect class="a" width="306" height="216" transform="translate(807 650)"/><g transform="translate(914.674 707.522)"><path class="b" d="M2785.386,203.232l-19.51,19.5v57.343h39.881V223.6Zm-16.165,20.159,16.65-15.063,16.391,15.063v6.128l-16.525-13.241-16.516,13.241Zm.008,28.32,16.673-7.488,16.391,8.013-.07,6.073-16.486-6.23-16.524,6.089Zm-.008-2.916.008-6.464L2785.9,232l16.36,10.717-.078,6.073-16.447-8.941Zm0,12.515,16.681-4.979,16.431,5.136-.071,6.065-16.525-3.346-16.531,3.58Zm32.995,16.391-33.807-.492v-6.332l17.619-2.61,16.547,3.048Zm.094-37.847L2785.9,228.182l-16.681,10.943v-6.464l16.681-12.64,16.672,13.007Z" transform="translate(-2739.309 -203.232)"/><path class="b" d="M2817.6,224.306l-14.236,14.231v41.842h29.1V239.17Zm-11.795,14.71,12.149-10.991,11.961,10.991v4.471l-12.057-9.662-12.052,9.662Zm.006,20.664,12.166-5.465,11.961,5.846-.051,4.432-12.029-4.546-12.057,4.444Zm-.006-2.128.006-4.717,12.166-7.535,11.938,7.82-.057,4.432-12-6.524Zm0,9.132,12.171-3.633,11.99,3.748-.051,4.426-12.057-2.442-12.063,2.613Zm24.075,11.961-24.667-.36v-4.62l12.856-1.9,12.074,2.224Zm.069-27.617-11.973-8.516L2805.8,250.5V245.78l12.171-9.222,12.166,9.49Z" transform="translate(-2739.845 -203.533)"/><path class="b" d="M2753.161,224.306l-14.237,14.231v41.842h29.1V239.17Zm-11.8,14.71,12.148-10.991,11.96,10.991v4.471l-12.057-9.662-12.051,9.662Zm.005,20.664,12.167-5.465,11.96,5.846-.051,4.432-12.029-4.546-12.057,4.444Zm-.005-2.128.005-4.717,12.167-7.535,11.937,7.82-.057,4.432-12-6.524Zm0,9.132,12.172-3.633,11.988,3.748-.051,4.426-12.057-2.442-12.063,2.613Zm24.075,11.961-24.668-.36v-4.62l12.856-1.9,12.075,2.224Zm.068-27.617-11.972-8.516-12.172,7.985V245.78l12.172-9.222,12.166,9.49Z" transform="translate(-2738.924 -203.533)"/></g><g transform="translate(896.829 794.355)"><path class="c" d="M2728.331,300.062l-.99-2.3h-4.32l-.99,2.3h-1.212l3.623-8.636h1.506l3.622,8.636Zm-3.122-7.469h-.07l-1.756,4.155h3.581Z" transform="translate(-2720.82 -291.325)"/><path class="c" d="M2732.468,300.062v-8.636h1.2v7.594h4.473v1.042Z" transform="translate(-2720.987 -291.325)"/><path class="c" d="M2740.454,297.04v-.992h3.4v.992Z" transform="translate(-2721.101 -291.392)"/><path class="c" d="M2753.34,300.062v-3.829h-5.03v3.829h-1.2v-8.636h1.2v3.766h5.03v-3.766h1.184v8.636Z" transform="translate(-2721.196 -291.325)"/><path class="c" d="M2764.912,300.062l-.99-2.3H2759.6l-.99,2.3H2757.4l3.622-8.636h1.506l3.622,8.636Zm-3.122-7.469h-.07l-1.756,4.155h3.581Z" transform="translate(-2721.343 -291.325)"/><path class="c" d="M2769.049,300.062v-8.636h5.964v1h-4.766v2.962h4.237v1.016h-4.237v3.653Z" transform="translate(-2721.509 -291.325)"/><path class="c" d="M2778.01,300.062v-8.636h1.2v8.636Z" transform="translate(-2721.637 -291.325)"/><path class="c" d="M2782.363,300.062v-.954l5.406-6.677h-5.252v-1h6.771v.93l-5.434,6.7h5.5v1Z" transform="translate(-2721.699 -291.325)"/><path class="c" d="M2796.837,300.062v-8.636h6.242v1h-5.044V295.2h4.375v1h-4.375v2.849h5.044v1Z" transform="translate(-2721.906 -291.325)"/><path class="c" d="M2807.814,300.111q-.94-.05-1.665-.125v-.992q1.811.163,3.023.163a9.639,9.639,0,0,0,1.192-.057,2.338,2.338,0,0,0,.745-.207.706.706,0,0,0,.362-.446,2.963,2.963,0,0,0,.084-.785,3.505,3.505,0,0,0-.069-.834.549.549,0,0,0-.327-.358,3.063,3.063,0,0,0-.885-.164l-2.369-.239a2.994,2.994,0,0,1-1.3-.37,1.351,1.351,0,0,1-.584-.741,3.987,3.987,0,0,1-.147-1.2,2.56,2.56,0,0,1,.4-1.556,1.916,1.916,0,0,1,1.114-.7,8.438,8.438,0,0,1,1.931-.175c.537,0,1.086.021,1.643.062s1,.093,1.324.151v.954q-.53-.075-1.31-.119c-.52-.029-1-.044-1.449-.044a9.824,9.824,0,0,0-1.254.064,2.054,2.054,0,0,0-.738.213.716.716,0,0,0-.377.4,2.391,2.391,0,0,0-.083.715,2.426,2.426,0,0,0,.083.747.578.578,0,0,0,.321.339,2.671,2.671,0,0,0,.781.157l2.341.239a4.674,4.674,0,0,1,1.3.263,1.21,1.21,0,0,1,.667.678,3.9,3.9,0,0,1,.2,1.443,2.992,2.992,0,0,1-.39,1.7,1.718,1.718,0,0,1-1.045.715,8.02,8.02,0,0,1-1.8.158Q2808.754,300.161,2807.814,300.111Z" transform="translate(-2722.035 -291.324)"/><path class="c" d="M2818.236,300.062v-7.594H2815.2v-1.042h7.26v1.042h-3.024v7.594Z" transform="translate(-2722.168 -291.325)"/><path class="c" d="M2830.878,300.062l-.989-2.3h-4.319l-.989,2.3h-1.214l3.624-8.636h1.5l3.623,8.636Zm-3.121-7.469h-.07l-1.755,4.155h3.58Z" transform="translate(-2722.285 -291.325)"/><path class="c" d="M2836.075,300.062v-7.594h-3.038v-1.042h7.26v1.042h-3.024v7.594Z" transform="translate(-2722.423 -291.325)"/><path class="c" d="M2843.214,300.062v-8.636h6.242v1h-5.044V295.2h4.375v1h-4.375v2.849h5.044v1Z" transform="translate(-2722.569 -291.325)"/></g><g transform="translate(940.122 808.825)"><path class="b" d="M2766.017,309.71v-1.543l-1.276-2.1h.536l.651,1.1c.129.217.242.423.339.616q.148-.285.362-.644l.645-1.071h.507l-1.323,2.1v1.543Z" transform="translate(-2764.741 -306.004)"/><path class="b" d="M2767.978,307.935a2.053,2.053,0,0,1,.455-1.431,1.464,1.464,0,0,1,1.133-.5,1.494,1.494,0,0,1,.8.224,1.552,1.552,0,0,1,.572.65,2.269,2.269,0,0,1,.211,1.014,2.043,2.043,0,0,1-.408,1.319,1.5,1.5,0,0,1-2.358-.014A2,2,0,0,1,2767.978,307.935Zm.452.007a1.523,1.523,0,0,0,.329,1.046,1.054,1.054,0,0,0,1.61,0,1.632,1.632,0,0,0,.328-1.1,2.023,2.023,0,0,0-.169-.841,1.062,1.062,0,0,0-.39-.453,1.064,1.064,0,0,0-1.387.2A1.736,1.736,0,0,0,2768.43,307.942Z" transform="translate(-2764.787 -306.003)"/><path class="b" d="M2773.8,306.069h.438v2.1a2.781,2.781,0,0,1-.113.867,1.01,1.01,0,0,1-.417.535,1.377,1.377,0,0,1-.767.2,1.274,1.274,0,0,1-.982-.354,1.837,1.837,0,0,1-.326-1.246v-2.1h.439v2.1a2.151,2.151,0,0,0,.086.715.654.654,0,0,0,.279.337.916.916,0,0,0,.474.115.865.865,0,0,0,.679-.239,1.46,1.46,0,0,0,.211-.929Z" transform="translate(-2764.839 -306.004)"/><path class="b" d="M2774.907,309.71v-3.641h1.471a1.7,1.7,0,0,1,.679.1.811.811,0,0,1,.36.339,1.054,1.054,0,0,1,.141.55.941.941,0,0,1-.239.667,1.155,1.155,0,0,1-.694.325,1.123,1.123,0,0,1,.282.2,2.471,2.471,0,0,1,.344.463l.579.992h-.551l-.442-.757a4.679,4.679,0,0,0-.387-.6.743.743,0,0,0-.253-.207.888.888,0,0,0-.343-.053h-.507v1.617Zm.439-2.035h.943a1.267,1.267,0,0,0,.468-.067.543.543,0,0,0,.253-.212.587.587,0,0,0,.095-.334.549.549,0,0,0-.179-.434.786.786,0,0,0-.532-.158h-1.048Z" transform="translate(-2764.886 -306.004)"/><path class="b" d="M2779.363,309.71v-3.641h.439v1.494h1.724v-1.494h.438v3.641h-.438v-1.716H2779.8v1.716Z" transform="translate(-2764.95 -306.004)"/><path class="b" d="M2782.51,307.935a2.053,2.053,0,0,1,.455-1.431,1.465,1.465,0,0,1,1.133-.5,1.492,1.492,0,0,1,.8.224,1.55,1.55,0,0,1,.572.65,2.269,2.269,0,0,1,.211,1.014,2.045,2.045,0,0,1-.407,1.319,1.438,1.438,0,0,1-1.179.563,1.424,1.424,0,0,1-1.18-.577A2,2,0,0,1,2782.51,307.935Zm.452.007a1.523,1.523,0,0,0,.329,1.046,1.055,1.055,0,0,0,1.611,0,1.637,1.637,0,0,0,.327-1.1,2.027,2.027,0,0,0-.169-.841,1.062,1.062,0,0,0-.39-.453,1.064,1.064,0,0,0-1.387.2A1.737,1.737,0,0,0,2782.962,307.942Z" transform="translate(-2764.995 -306.003)"/><path class="b" d="M2786.158,309.71v-3.641h.659l.787,2.578.158.539c.038-.134.1-.328.177-.584l.8-2.533h.589v3.641h-.421v-3.046l-.967,3.046h-.394l-.961-3.1v3.1Z" transform="translate(-2765.047 -306.004)"/><path class="b" d="M2789.974,309.71v-3.641h2.4v.429h-1.957v1.113h1.833v.431h-1.833v1.24h2.035v.429Z" transform="translate(-2765.101 -306.004)"/><path class="b" d="M2793.537,309.71l1.278-3.641h.469l1.358,3.641h-.5l-.385-1.1h-1.395l-.36,1.1Zm.951-1.5h1.13l-.345-1.008c-.106-.31-.183-.562-.234-.755a4.808,4.808,0,0,1-.182.7Z" transform="translate(-2765.152 -306.004)"/><path class="b" d="M2797.334,309.71l-.884-3.641h.449l.506,2.387c.054.244.1.493.142.745l.148-.673.631-2.459h.533l.472,1.843a11.561,11.561,0,0,1,.258,1.289c.042-.238.1-.5.163-.793l.521-2.34h.443l-.912,3.641h-.422l-.7-2.775-.1-.427c-.032.159-.064.3-.1.427l-.7,2.775Z" transform="translate(-2765.194 -306.004)"/><path class="b" d="M2800.523,309.71l1.279-3.641h.468l1.359,3.641h-.5l-.385-1.1h-1.395l-.361,1.1Zm.95-1.5h1.13l-.345-1.008c-.105-.31-.183-.562-.234-.755a4.8,4.8,0,0,1-.181.7Z" transform="translate(-2765.252 -306.004)"/><path class="b" d="M2804.488,309.71v-1.543l-1.278-2.1h.536l.651,1.1c.129.217.241.423.34.616q.146-.285.362-.644l.643-1.071h.507l-1.324,2.1v1.543Z" transform="translate(-2765.291 -306.004)"/></g><rect class="b" width="41.212" height="1.627" transform="translate(896.438 809.995)"/><rect class="b" width="41.212" height="1.627" transform="translate(982.458 809.995)"/></g></svg>