<svg xmlns="http://www.w3.org/2000/svg" width="306" height="216" viewBox="0 0 306 216"><defs><style>.a{fill:#f7f7f7;}.b{fill:#1d5b9e;}.c{fill:#fff;}.d{fill:#212223;}</style></defs><g transform="translate(-4996 -893)"><rect class="a" width="306" height="216" transform="translate(4996 893)"/><circle class="b" cx="39.694" cy="39.694" r="39.694" transform="translate(5113.186 973.424)"/><g transform="translate(5119.631 1001.07)"><path class="c" d="M1341.256,1890.078a2.109,2.109,0,0,0-2.15,2.241c.165,2.526,3.308,2.435,2.871,1.2-.541-1.533.722-1.894.722-1.894h3.518s1.473-.12-1.984,2.075c-4.917,3.112-5.473,14.073-5.142,16.509s-3.263,3.669-2.255,1.233-1.474-1.969-1.474-1.969a2.128,2.128,0,0,0-1.353,3.052,4.048,4.048,0,0,0,3.4,1.638,8.23,8.23,0,0,0,4.029-.977c4.42-2.255,4.42-11.728,4.42-11.728l7.307-.09v10.645H1351.9v1.714h7.427v-23.651Zm11.682,9.849h-7.216s0-8.871,7.216-8.585Z" transform="translate(-1333.737 -1890.078)"/><path class="c" d="M1402.76,1902.693c-.21-.2-2.316-2.09-2.526-1.909l.993-.873c6.6-7.638-3.654-9.833-3.654-9.833h-25.906a2.108,2.108,0,0,0-2.15,2.241c.165,2.525,3.308,2.435,2.872,1.2-.542-1.534.721-1.894.721-1.894h3.518s1.474-.12-1.984,2.074c-4.917,3.113-5.473,14.073-5.142,16.51s-3.263,3.669-2.255,1.233-1.474-1.97-1.474-1.97a2.128,2.128,0,0,0-1.354,3.052,4.048,4.048,0,0,0,3.4,1.639,8.229,8.229,0,0,0,4.029-.977c4.421-2.256,4.421-11.728,4.421-11.728l7.307-.09v10.645h-1.262v1.714h7.428v-4.512l3.578,4.074a8.2,8.2,0,0,0,4.345.361c2.977-.5,7.126-2.526,7.382-5.969A6.643,6.643,0,0,0,1402.76,1902.693Zm-19.409-2.765h-7.217s0-8.871,7.217-8.585Zm14.192-4.5a5.293,5.293,0,0,1-.872,3.188,4.71,4.71,0,0,1-3.489,1.428h-.992l-1.909-2.12,2.27-.917v-1.037l-2.811.688v-4.972h5.4A4.157,4.157,0,0,1,1397.543,1895.431Zm3.879,9.683a3.744,3.744,0,0,1-3.744,3.744h-7.938v-9.305l1.969,1.8h5.969a3.744,3.744,0,0,1,3.744,3.744Z" transform="translate(-1338.559 -1890.078)"/></g><g transform="translate(5100 960.063)"><path class="d" d="M1358.837,1954.669l4.5.982.993-1.446,2.424.53-6.319,9.2-2.423-.53-1.911-10.992,2.44.532Zm.348,2,.693,4.016,2.3-3.36Z" transform="translate(-1317.651 -1858.951)"/><path class="d" d="M1348.388,1960.438l-1.982-.975,2.089-4.25-5.839,2.4-2.412-1.188,5.592-2.241-1.289-7.151,2.413,1.188.96,5.231,1.771-.67,1.274-2.59,1.981.976Z" transform="translate(-1315.138 -1858.1)"/><path class="d" d="M1337.885,1941.56l-.309,4.088,1.265,1.043,2.131-2.59,1.706,1.406-6.568,7.973-3.585-2.953a3.581,3.581,0,0,1-.788-5.168,3.359,3.359,0,0,1,3.866-1l.332-4.4Zm-.335,6.7-1.695-1.4a1.6,1.6,0,0,0-2.355-.05c-.562.686-.347,1.6.5,2.3l1.695,1.4Z" transform="translate(-1313.665 -1856.976)"/><path class="d" d="M1328.428,1933.065l2.764,3.679,1.7-.448,1.49,1.984-10.788,2.844-1.491-1.984,5.725-9.573,1.5,2Zm-1.042,1.744-2.1,3.494,3.938-1.043Z" transform="translate(-1312.262 -1855.33)"/><path class="d" d="M1316.317,1930.692l-.806-2.058,4.265-5.113-6.6-.838-.812-2.073,9.621-3.771.81,2.072-5.992,2.349,6.6.841-4.266,5.112,5.994-2.349.808,2.058Z" transform="translate(-1310.718 -1853.312)"/><path class="d" d="M1319.1,1901.567l.037,4.6,1.628.647.021,2.481-10.363-4.127-.019-2.478,10.294-4.294.019,2.5Zm-1.873.781-3.76,1.565,3.787,1.5Z" transform="translate(-1310.408 -1850.388)"/><path class="d" d="M1319.494,1896.16l-1.2-1.578a5.1,5.1,0,0,0,2.063-3.019c.244-1.086-.13-1.756-.762-1.9-.719-.162-1.069.375-1.767,1.837-.962,2.02-1.9,3.4-3.852,2.958-1.864-.417-2.8-2.229-2.306-4.43a5.961,5.961,0,0,1,2.279-3.634l1.3,1.478a4.778,4.778,0,0,0-1.759,2.626c-.207.926.15,1.59.753,1.726.732.164,1.1-.385,1.8-1.86.971-2.064,1.94-3.358,3.8-2.939,1.92.43,2.872,2.17,2.32,4.634A6.631,6.631,0,0,1,1319.494,1896.16Z" transform="translate(-1310.587 -1848.486)"/><path class="d" d="M1322.2,1885.146l-.845-1.8a5.087,5.087,0,0,0,2.655-2.518c.467-1.009.241-1.744-.345-2.015-.67-.308-1.126.143-2.115,1.425-1.364,1.772-2.573,2.919-4.387,2.081-1.734-.8-2.266-2.768-1.32-4.817a5.974,5.974,0,0,1,2.992-3.073l.96,1.719a4.784,4.784,0,0,0-2.271,2.2c-.4.86-.187,1.587.371,1.844.685.317,1.162-.142,2.158-1.437,1.383-1.812,2.6-2.874,4.334-2.072,1.79.825,2.352,2.726,1.293,5.019A6.639,6.639,0,0,1,1322.2,1885.146Z" transform="translate(-1311.197 -1846.59)"/><path class="d" d="M1324.529,1872.2a5.492,5.492,0,1,1,7.615-.927A5.489,5.489,0,0,1,1324.529,1872.2Zm5.453-6.79a3.213,3.213,0,1,0,.589,4.6A3.324,3.324,0,0,0,1329.982,1865.41Z" transform="translate(-1312.34 -1844.699)"/><path class="d" d="M1334.631,1860.7a5.5,5.5,0,0,1,5.427-8.6l-.418,2.119a3.215,3.215,0,0,0-2.618.522,3.332,3.332,0,0,0,4,5.322,3.216,3.216,0,0,0,1.227-2.371l2.153.187a5.573,5.573,0,0,1-2.168,3.795A5.5,5.5,0,0,1,1334.631,1860.7Z" transform="translate(-1314.086 -1843.037)"/><path class="d" d="M1343.084,1849.044l1.975-1.029,4.776,9.164-1.973,1.027Z" transform="translate(-1315.588 -1842.402)"/><path class="d" d="M1358.72,1852.006l-4.387,1.388-.144,1.748-2.367.746.906-11.121,2.367-.747,7.127,8.586-2.382.752Zm-1.3-1.561-2.6-3.139-.326,4.063Z" transform="translate(-1316.973 -1841.768)"/><path class="d" d="M1365.572,1843.85l-3.2.3-.19-1.993,8.626-.818.188,1.991-3.2.3.788,8.3-2.215.209Z" transform="translate(-1318.615 -1841.344)"/><path class="d" d="M1377.954,1843.724l-.244,2.044,5.145.612-.235,1.984-5.148-.613-.265,2.253,5.682.676-.236,1.983-7.891-.938,1.219-10.249,7.891.94-.235,1.983Z" transform="translate(-1320.61 -1841.365)"/><path class="d" d="M1385.348,1851.758l1.7-1.022a5.092,5.092,0,0,0,2.775,2.385c1.054.364,1.759.065,1.969-.546.241-.7-.256-1.107-1.632-1.961-1.9-1.178-3.167-2.267-2.517-4.159.622-1.807,2.526-2.535,4.661-1.8a5.968,5.968,0,0,1,3.362,2.667l-1.616,1.131a4.776,4.776,0,0,0-2.415-2.038c-.9-.309-1.6-.025-1.8.559-.244.712.261,1.139,1.652,2,1.945,1.193,3.123,2.3,2.5,4.106-.639,1.864-2.472,2.618-4.865,1.8A6.632,6.632,0,0,1,1385.348,1851.758Z" transform="translate(-1322.288 -1841.824)"/><path class="d" d="M1405.272,1864.16l-.189-1.573a4.65,4.65,0,0,1-3.053-.943c-1.585-1.195-2.1-2.979-.975-4.481.815-1.079,1.859-1.366,3.545-.981a3.4,3.4,0,0,1,.677-2.126,2.788,2.788,0,0,1,3.925-.337,2.708,2.708,0,0,1,.758,3.844c-.7.924-1.653,1-3.415.609.044.692.11,1.456.207,2.376a9.744,9.744,0,0,0,1.944-.908l.82,1.559a15.47,15.47,0,0,1-2.578,1.05l.267,2.347Zm-.382-3.242c-.154-1.32-.232-2.339-.28-3.147a1.724,1.724,0,0,0-1.724.583,1.465,1.465,0,0,0,.364,2.119A2.632,2.632,0,0,0,1404.89,1860.917Zm1.887-5.73a2.25,2.25,0,0,0-.311,1.514c1.048.282,1.563.274,1.971-.266a.989.989,0,0,0-.16-1.437A1.047,1.047,0,0,0,1406.777,1855.188Z" transform="translate(-1324.682 -1843.204)"/><path class="d" d="M1420.625,1864.721l2.969,4.309c1.049,1.523.884,3.189-.356,4.042a2.482,2.482,0,0,1-2.713.118,2.9,2.9,0,0,1-1.1,3.06c-1.362.94-3.105.423-4.221-1.2l-3.081-4.469Zm-4.1,8.921a1.285,1.285,0,1,0,2.08-1.433l-1.6-2.316-2.079,1.433Zm3.32-2.708a1.163,1.163,0,1,0,1.869-1.289l-1.4-2.029-1.87,1.287Z" transform="translate(-1326.532 -1845.05)"/><path class="d" d="M1423.033,1879.158l5.49-2.057.775,2.069-5.406,2.026a2.47,2.47,0,1,0,1.726,4.6l5.4-2.025.781,2.083-5.49,2.056a4.674,4.674,0,0,1-3.28-8.754Z" transform="translate(-1327.779 -1847.013)"/><path class="d" d="M1432.874,1891.533l.41,2.189-10.159,1.9-.406-2.188Z" transform="translate(-1328.213 -1849.3)"/><path class="d" d="M1425.9,1905.478l-2,.083-.3-7.365,10.325-.417.089,2.224-8.325.338Z" transform="translate(-1328.354 -1850.291)"/><path class="d" d="M1433.973,1910.155l-.674,3.639c-.633,3.419-3.183,5.457-6.16,4.9s-4.64-3.37-4.007-6.79l.674-3.64Zm-8.91,2.4a3.161,3.161,0,1,0,6.2,1.149l.322-1.748-6.2-1.149Z" transform="translate(-1328.257 -1851.954)"/><path class="d" d="M1427.4,1926.213l-1.881-.836-2.1,4.742-1.828-.81,2.1-4.742-2.075-.922-2.322,5.237-1.828-.812,3.226-7.269,9.443,4.19-3.228,7.269-1.828-.812Z" transform="translate(-1327.38 -1853.94)"/><path class="d" d="M1412.041,1935.657l4.095.11.979-1.314-2.687-2,1.32-1.771,8.277,6.171-2.779,3.72a3.574,3.574,0,0,1-5.118,1.037,3.355,3.355,0,0,1-1.188-3.808l-4.409-.12Zm6.7.01-1.31,1.758c-.656.881-.647,1.822.063,2.354s1.617.268,2.274-.611l1.311-1.759Z" transform="translate(-1326.281 -1855.507)"/><path class="d" d="M1410.282,1940.609l.028,1.983a5.1,5.1,0,0,0-3.453,1.2c-.841.729-.938,1.488-.516,1.978.482.555,1.084.332,2.514-.427,1.972-1.052,3.546-1.6,4.854-.087,1.25,1.441.924,3.453-.781,4.929a5.96,5.96,0,0,1-3.991,1.566l-.168-1.962a4.783,4.783,0,0,0,2.975-1.064c.716-.619.824-1.368.42-1.833-.49-.57-1.114-.347-2.555.422-2.008,1.081-3.553,1.543-4.8.1-1.287-1.489-1.019-3.453.89-5.1A6.625,6.625,0,0,1,1410.282,1940.609Z" transform="translate(-1325.247 -1857.08)"/></g><path class="d" d="M1387.852,1958.036l4.04.321-2.712,3.011.943,3.941-3.7-1.649-3.457,2.115.424-4.03-3.08-2.634,3.964-.842,1.553-3.743Z" transform="translate(3778.511 -899.225)"/></g></svg>