<svg xmlns="http://www.w3.org/2000/svg" width="306" height="216" viewBox="0 0 306 216"><defs><style>.a{fill:#f7f7f7;}.b{fill:#090601;}.c{fill:#952b1d;}.d{fill:#89171c;}.e{fill:#4b1316;}.f{fill:#2f2f66;}.g{fill:#191919;}</style></defs><g transform="translate(-4353 -893)"><rect class="a" width="306" height="216" transform="translate(4353 893)"/><g transform="translate(4476.133 999.367)"><path class="b" d="M1386.271,1574.157c-.741-.851-1.5-1.685-2.258-2.521l-.522-10.366h-4.4v5.074c-2.014-2.082-4.043-4.151-6.139-6.155-.26-.25-.53-.493-.791-.742,1.725-2.122,3.417-4.274,5-6.525-2.063,1.807-4.016,3.711-5.935,5.645-1.772-1.665-3.571-3.305-5.458-4.862,1.471,1.965,3.031,3.845,4.617,5.7-.07.071-.143.141-.212.212-2.26,2.294-4.44,4.66-6.6,7.042-2.137,2.406-4.257,4.825-6.3,7.317s-4.049,5.011-5.914,7.66c2.436-2.136,4.736-4.394,6.986-6.7s4.44-4.66,6.6-7.041c2.139-2.4,4.26-4.823,6.3-7.314l.069-.086c.2.228.389.463.589.69,2.114,2.429,4.306,4.784,6.515,7.123,2.233,2.314,4.482,4.615,6.81,6.84s4.685,4.422,7.184,6.485C1390.468,1579.045,1388.393,1576.579,1386.271,1574.157Z" transform="translate(-1351.354 -1552.923)"/><circle class="b" cx="2.488" cy="2.488" r="2.488" transform="translate(17.211 12.82)"/></g><path class="c" d="M1337.127,1604.238a26.442,26.442,0,0,1,4.234-9.228,28.256,28.256,0,0,1,7.441-7.238,27.956,27.956,0,0,1,9.692-4.066q1.291-.275,2.594-.5l2.622-.206,1.311-.1c.435-.026.854-.009,1.282-.016l2.554-.007a95.956,95.956,0,0,1,10.161.89,92.921,92.921,0,0,0,9.719,1.279,20.632,20.632,0,0,0,9.21-1.858,87.4,87.4,0,0,0,8.8-4.655,48.875,48.875,0,0,1-7.969,6.278c-.753.418-1.527.809-2.3,1.215-.8.345-1.62.673-2.449.985a20.523,20.523,0,0,1-5.25.929,31.878,31.878,0,0,1-5.21-.165l-4.991-.524c-3.279-.371-6.534-.6-9.806-.668l-2.455-.035c-.406,0-.824-.024-1.222-.006l-1.186.073-2.376.14-2.335.387-1.172.184-1.137.314c-.751.228-1.537.376-2.268.667l-2.2.875c-.726.308-1.409.709-2.122,1.057a30.47,30.47,0,0,0-7.529,5.913A33.649,33.649,0,0,0,1337.127,1604.238Z" transform="translate(3125.812 -555.414)"/><path class="d" d="M1337.945,1607.406a26.464,26.464,0,0,1,4.81-8.942,28.289,28.289,0,0,1,7.883-6.754,27.972,27.972,0,0,1,9.93-3.444c.87-.13,1.745-.244,2.62-.34l2.629-.039,1.316-.017c.435,0,.852.044,1.28.065l2.55.155a96.326,96.326,0,0,1,10.084,1.53,93.159,93.159,0,0,0,9.619,1.892,20.644,20.644,0,0,0,9.309-1.272,87.388,87.388,0,0,0,9.071-4.09,48.831,48.831,0,0,1-8.35,5.762c-.777.369-1.575.71-2.369,1.068-.822.293-1.66.569-2.506.827a20.5,20.5,0,0,1-5.3.6,31.828,31.828,0,0,1-5.189-.494l-4.948-.838c-3.249-.578-6.483-1.013-9.744-1.287l-2.448-.19c-.405-.026-.821-.076-1.22-.083l-1.189,0-2.38-.01-2.355.237-1.181.109-1.155.243c-.764.18-1.558.277-2.306.521l-2.248.735c-.745.261-1.452.618-2.185.921a30.416,30.416,0,0,0-7.887,5.424A33.629,33.629,0,0,0,1337.945,1607.406Z" transform="translate(3125.752 -555.967)"/><path class="e" d="M1339.3,1609.969a26.433,26.433,0,0,1,5.732-8.381,28.271,28.271,0,0,1,8.556-5.878,27.955,27.955,0,0,1,10.239-2.372c.879-.036,1.762-.057,2.642-.059l2.618.24,1.31.123c.432.047.843.135,1.265.2l2.519.424a95.993,95.993,0,0,1,9.865,2.593,93.1,93.1,0,0,0,9.364,2.9,20.618,20.618,0,0,0,9.391-.277,87.425,87.425,0,0,0,9.454-3.1,48.841,48.841,0,0,1-8.914,4.843c-.812.285-1.642.539-2.469.81-.848.2-1.711.391-2.58.557a20.567,20.567,0,0,1-5.332.031,31.917,31.917,0,0,1-5.107-1.042l-4.831-1.359c-3.169-.92-6.339-1.7-9.553-2.314l-2.413-.45c-.4-.07-.809-.162-1.2-.212l-1.182-.128-2.366-.262-2.366-.014-1.186-.017-1.174.119c-.779.1-1.578.11-2.347.274l-2.314.493c-.768.181-1.509.46-2.27.684a30.425,30.425,0,0,0-8.418,4.557A33.594,33.594,0,0,0,1339.3,1609.969Z" transform="translate(3125.653 -556.483)"/><g transform="translate(4412 965.854)"><path class="f" d="M1302.538,1535.939h-6.321l-.861-2.609h-6l-.861,2.609H1282.2l7.209-19.15h5.97Zm-10.893-9.547-.942,2.877h3.336l-.941-2.877-.726-2.5Z" transform="translate(-1282.204 -1516.789)"/><path class="f" d="M1311.446,1535.939h-5.432v-19.15h5.432Z" transform="translate(-1283.931 -1516.789)"/><path class="f" d="M1321.961,1531.4h-7.828v-4.116h7.828Z" transform="translate(-1284.52 -1517.55)"/><path class="f" d="M1336.5,1523.728l1.721-6.939h7.988v19.15h-5.487V1527.9l.269-4.6-1.022,4.6-2.071,8.041h-4.357l-2.1-8.041-.941-4.411.242,4.411v8.041h-5.621v-19.15h7.961l1.775,6.939.834,3.9Z" transform="translate(-1285.318 -1516.789)"/><path class="f" d="M1365.995,1536.313h-5.378a5.713,5.713,0,0,1-.511-1.64,4.876,4.876,0,0,1-4.465,2.179,5.625,5.625,0,0,1-3.713-1.143,3.861,3.861,0,0,1-1.371-3.134,3.644,3.644,0,0,1,1.035-2.716,6.053,6.053,0,0,1,3.322-1.4l4.868-.754v-.994q0-1.238-1.749-1.237a1.858,1.858,0,0,0-1.237.35,1.6,1.6,0,0,0-.456,1.156l-5.164-.187a4.928,4.928,0,0,1,1.963-3.672,8.964,8.964,0,0,1,5.11-1.17,9.259,9.259,0,0,1,5.245,1.2,4.314,4.314,0,0,1,1.721,3.806v5.863A6.917,6.917,0,0,0,1365.995,1536.313Zm-8.471-2.877a2.588,2.588,0,0,0,1.775-.593,2.239,2.239,0,0,0,.672-1.775v-.619l-2.367.43q-1.722.27-1.721,1.345Q1355.882,1533.436,1357.523,1533.437Z" transform="translate(-1287.163 -1517.163)"/><path class="f" d="M1375.1,1535.939h-5.433v-19.15h5.433Z" transform="translate(-1288.549 -1516.789)"/><path class="f" d="M1383.858,1520.313h-5.433v-3.524h5.433Zm0,15.626h-5.433v-13.877h5.433Z" transform="translate(-1289.184 -1516.789)"/><path class="f" d="M1392.615,1535.939h-5.432v-19.15h5.432Z" transform="translate(-1289.82 -1516.789)"/><path class="f" d="M1411.567,1535.939h-6.455l-2.932-5-.807.806v4.2h-5.432v-19.15h5.432v9.253l3.309-3.981h6.427l-5.324,5.54Z" transform="translate(-1290.455 -1516.789)"/><g transform="translate(126.086 0.23)"><path class="g" d="M1424.33,1524.828h-6.177v-7.791h6.177v1.559h-4.174v1.5h3.283v1.558h-3.283v1.614h4.174Z" transform="translate(-1418.153 -1517.037)"/><path class="g" d="M1426.713,1523.214q3.049.167,4.129.168a.517.517,0,0,0,.556-.557v-1h-2.56a1.91,1.91,0,0,1-2.225-2.225v-.335a1.911,1.911,0,0,1,2.225-2.226h3.906v1.559h-3.461a.59.59,0,0,0-.668.667v.223a.59.59,0,0,0,.668.667h2a1.835,1.835,0,0,1,2.114,2.116v.556a1.835,1.835,0,0,1-2.114,2.115q-.569,0-1.2-.023l-1.024-.045q-1.135-.056-2.348-.156Z" transform="translate(-1418.767 -1517.037)"/><path class="g" d="M1439.353,1524.828h-2V1518.6h-2.337v-1.559h6.678v1.559h-2.337Z" transform="translate(-1419.376 -1517.037)"/><path class="g" d="M1444.742,1524.828h-2.169l2.948-7.791h2.227l2.948,7.791h-2.17l-.5-1.391h-2.782Zm1-2.837h1.781l-.89-2.615Z" transform="translate(-1419.925 -1517.037)"/><path class="g" d="M1456.032,1524.828h-2V1518.6h-2.336v-1.559h6.678v1.559h-2.338Z" transform="translate(-1420.586 -1517.037)"/><path class="g" d="M1467.11,1524.828h-6.177v-7.791h6.177v1.559h-4.173v1.5h3.283v1.558h-3.283v1.614h4.173Z" transform="translate(-1421.256 -1517.037)"/><g transform="translate(0 12.429)"><path class="g" d="M1423.718,1536.838q-2.106.185-3.8.185a1.529,1.529,0,0,1-1.762-1.761,1.877,1.877,0,0,1,.352-1.169.53.53,0,1,0,.088-.989,1.492,1.492,0,0,1-.255-.9v-.094a1.673,1.673,0,0,1,.427-1.256,1.859,1.859,0,0,1,1.336-.414h2.967v1.3h-2.5a.491.491,0,0,0-.557.556v.278a.492.492,0,0,0,.557.557h1.484l.139-.743h1.53v.743h.741v1.3h-.741Zm-3.432-1.113q1.021,0,1.763-.047v-1.253h-1.67a.493.493,0,0,0-.557.557v.278a.433.433,0,0,0,.464.464Z" transform="translate(-1418.153 -1530.438)"/><path class="g" d="M1426.653,1530.438h3.71a1.862,1.862,0,0,1,1.336.414,1.673,1.673,0,0,1,.427,1.256,1.558,1.558,0,0,1-.241.905,1.291,1.291,0,0,1-.594.486,1.437,1.437,0,0,1,1.02,1,2.179,2.179,0,0,1,.093.668,1.529,1.529,0,0,1-1.762,1.762h-3.988Zm3.8,1.855a.491.491,0,0,0-.557-.556h-1.577v1.3h1.577a.492.492,0,0,0,.557-.556Zm.278,2.6a.491.491,0,0,0-.556-.556h-1.855v1.3h1.855a.491.491,0,0,0,.556-.557Z" transform="translate(-1418.77 -1530.438)"/><path class="g" d="M1438.926,1530.438h1.67v4.73a1.594,1.594,0,0,1-1.855,1.855h-2.134a1.594,1.594,0,0,1-1.855-1.855v-4.73h1.67v4.73a.492.492,0,0,0,.556.557h1.391a.492.492,0,0,0,.556-.557Z" transform="translate(-1419.357 -1530.438)"/><path class="g" d="M1446.292,1536.93h-3.34v-1.3h.836v-3.894h-.836v-1.3h3.34v1.3h-.835v3.894h.835Z" transform="translate(-1419.952 -1530.438)"/><path class="g" d="M1450.122,1535.632h3.385v1.3h-5.055v-6.492h1.67Z" transform="translate(-1420.351 -1530.438)"/><path class="g" d="M1459.219,1530.438a1.905,1.905,0,0,1,2.133,2.133v2.227a1.905,1.905,0,0,1-2.133,2.132H1455.6v-6.492Zm.464,2.133a.738.738,0,0,0-.835-.834h-1.576v3.894h1.576a.737.737,0,0,0,.835-.834Z" transform="translate(-1420.87 -1530.438)"/><path class="g" d="M1468.95,1536.93H1463.8v-6.492h5.148v1.3h-3.478v1.251h2.735v1.3h-2.735v1.344h3.478Z" transform="translate(-1421.464 -1530.438)"/><path class="g" d="M1471.152,1530.438h3.9a1.593,1.593,0,0,1,1.855,1.855v.836a2.347,2.347,0,0,1-.255,1.2,1.241,1.241,0,0,1-.812.565l1.159,2.04h-1.809l-1.066-1.947h-1.3v1.947h-1.67Zm4.081,1.855a.491.491,0,0,0-.556-.556h-1.855v1.947h1.855a.491.491,0,0,0,.556-.556Z" transform="translate(-1421.998 -1530.438)"/><path class="g" d="M1479.135,1535.585q2.542.14,3.441.14a.432.432,0,0,0,.464-.464v-.836h-2.133a1.593,1.593,0,0,1-1.855-1.855v-.278a1.594,1.594,0,0,1,1.855-1.855h3.255v1.3h-2.884a.491.491,0,0,0-.556.556v.187a.492.492,0,0,0,.556.556h1.669a1.53,1.53,0,0,1,1.763,1.763v.464a1.529,1.529,0,0,1-1.763,1.761q-.473,0-1-.018l-.853-.038c-.63-.031-1.284-.074-1.957-.129Z" transform="translate(-1422.571 -1530.438)"/></g></g></g></g></svg>