<svg xmlns="http://www.w3.org/2000/svg" width="306" height="216" viewBox="0 0 306 216"><defs><style>.a{fill:#f7f7f7;}.b{fill:#4a6d86;}.c{fill:#425d72;}.d{fill:#608493;}.e{fill:#470f13;}.f{fill:#6e2527;}.g{fill:#2e3f54;}.h{fill:#212121;}</style></defs><g transform="translate(-4675 -650)"><rect class="a" width="306" height="216" transform="translate(4675 650)"/><g transform="translate(4783.313 720.889)"><path class="b" d="M1639.437,1684.515l-2.052-1.283h-5.644l2.052,1.283Z" transform="translate(-1555.877 -1683.233)"/><path class="b" d="M1630.837,1687.839l-1.813-1.133h-4.986l1.813,1.133Z" transform="translate(-1554.354 -1683.919)"/><path class="b" d="M1624,1692.845l-1.48-.925h-4.07l1.48.925Z" transform="translate(-1553.25 -1684.95)"/><rect class="c" width="5.644" height="25.785" transform="translate(75.863)"/><rect class="d" width="5.644" height="24.503" transform="translate(77.915 1.283)"/><rect class="c" width="4.986" height="22.777" transform="translate(69.684 2.787)"/><rect class="d" width="4.986" height="21.644" transform="translate(71.497 3.92)"/><rect class="c" width="6.358" height="17.193" transform="matrix(0.894, -0.447, 0.447, 0.894, 31.262, 11.876)"/><rect class="d" width="6.358" height="16.338" transform="matrix(0.894, -0.447, 0.447, 0.894, 33.713, 11.607)"/><path class="b" d="M1584.285,1694.157l-2.45.269-5.687,2.843,2.45-.269Z" transform="translate(-1544.885 -1685.393)"/><rect class="c" width="4.07" height="18.594" transform="translate(65.203 6.97)"/><rect class="d" width="4.07" height="17.669" transform="translate(66.683 7.895)"/><rect class="c" width="3.48" height="15.9" transform="translate(61.124 9.664)"/><rect class="d" width="3.48" height="15.109" transform="translate(62.389 10.455)"/><path class="b" d="M1618.114,1696.069l-1.266-.791h-3.48l1.266.791Z" transform="translate(-1552.245 -1685.614)"/><g transform="translate(56.012 13.504)"><rect class="e" width="4.139" height="12.06"/><rect class="f" width="4.139" height="11.46" transform="translate(1.505 0.6)"/><path class="f" d="M1612.641,1700.665l-1.505-.6H1607l1.505.6Z" transform="translate(-1606.996 -1700.065)"/></g><g transform="translate(3.425 14.527)"><path class="g" d="M1572.02,1712.9l-27.4-4.99-3.168-5.4,28.024,5.144Z" transform="translate(-1541.45 -1701.571)"/><path class="d" d="M1572.359,1711.954l-27.424-5.256-3.335-5.359,28.478,5.659Z" transform="translate(-1541.48 -1701.339)"/><path class="g" d="M1544.618,1707.682l.288-.984-3.335-5.359-.12.939Z" transform="translate(-1541.45 -1701.339)"/><path class="g" d="M1572.8,1713.992l.31-.718-27.424-5.256-.288.984Z" transform="translate(-1542.231 -1702.66)"/></g><g transform="translate(0 24.616)"><path class="g" d="M1568.844,1717.668l-25.473,11.265-5.656-2.691,26.074-11.486Z" transform="translate(-1537.286 -1714.082)"/><path class="d" d="M1568.591,1716.734l-25.641,11.057-5.77-2.56,26.739-11.316Z" transform="translate(-1537.181 -1713.916)"/><path class="g" d="M1543.265,1731.556l-.314-.976-5.77-2.56.428.844Z" transform="translate(-1537.181 -1716.704)"/><path class="g" d="M1570.16,1718.2l-.147-.768-25.641,11.057.314.976Z" transform="translate(-1538.603 -1714.61)"/></g></g><g transform="translate(4818.058 749.736)"><path class="h" d="M1585.575,1724.57h-2.916v1.495h3.258v1.776h-5.431v-8.11h5.262v1.775h-3.09v1.308h2.916Z" transform="translate(-1580.487 -1719.297)"/><path class="h" d="M1588.861,1719.19h2.172v8.544h-2.172Z" transform="translate(-1582.143 -1719.19)"/><path class="h" d="M1595.038,1726.148c.07.469.752.731,1.516.731a5.315,5.315,0,0,0,1.625-.229l.274,1.45a6.024,6.024,0,0,1-2.218.373c-2.085,0-3.262-1.149-3.262-3.023a3.017,3.017,0,0,1,3.069-3.156c1.914,0,2.732,1.4,2.732,3.03a3.921,3.921,0,0,1-.079.825Zm1.739-1.468a.874.874,0,0,0-.839-.968.983.983,0,0,0-.927.968Z" transform="translate(-1582.956 -1719.804)"/><path class="h" d="M1607.348,1722.426c-.026.368-.051.876-.051,1.826v3.235a3.361,3.361,0,0,1-.924,2.641,3.765,3.765,0,0,1-2.5.734,5.139,5.139,0,0,1-2.193-.439l.406-1.637a3.833,3.833,0,0,0,1.7.43,1.249,1.249,0,0,0,1.377-1.339v-.262h-.023a1.821,1.821,0,0,1-1.478.665,2.583,2.583,0,0,1-2.494-2.876,2.828,2.828,0,0,1,2.687-3.111,1.687,1.687,0,0,1,1.525.765h.024l.069-.632Zm-2.22,2.449a1.347,1.347,0,0,0-.027-.28.769.769,0,0,0-.767-.674c-.517,0-.966.5-.966,1.447,0,.764.368,1.333.966,1.333a.764.764,0,0,0,.755-.586,1.986,1.986,0,0,0,.039-.452Z" transform="translate(-1584.576 -1719.804)"/><path class="h" d="M1613.9,1728.347l-.114-.52h-.042a2.078,2.078,0,0,1-1.639.652,1.857,1.857,0,0,1-1.958-1.859c0-1.589,1.426-2.3,3.439-2.3v-.054c0-.244-.184-.505-.972-.505a3.641,3.641,0,0,0-1.669.443l-.38-1.375a5.311,5.311,0,0,1,2.449-.536c2.04,0,2.741,1.135,2.741,2.611v2a8.356,8.356,0,0,0,.1,1.441Zm-.246-2.7c-.885,0-1.384.247-1.384.764a.544.544,0,0,0,.614.572.8.8,0,0,0,.743-.548,1.211,1.211,0,0,0,.027-.3Z" transform="translate(-1586.351 -1719.804)"/><path class="h" d="M1618.893,1724.443c0-.789-.023-1.468-.047-2.016h1.871l.1.756h.042a2.143,2.143,0,0,1,1.775-.888c1.378,0,2.133.942,2.133,2.56v3.493h-2.172v-3.225c0-.679-.235-1.083-.753-1.083a.758.758,0,0,0-.713.521,1.186,1.186,0,0,0-.06.436v3.352h-2.173Z" transform="translate(-1588.071 -1719.804)"/><path class="h" d="M1632.459,1728.229a4.395,4.395,0,0,1-1.627.246,2.9,2.9,0,0,1-3.207-3.032c0-1.69,1.158-3.141,3.471-3.141a4.576,4.576,0,0,1,1.366.2l-.307,1.6a2.505,2.505,0,0,0-.932-.147,1.315,1.315,0,0,0-1.378,1.41,1.342,1.342,0,0,0,1.432,1.43,2.532,2.532,0,0,0,.95-.154Z" transform="translate(-1589.807 -1719.805)"/><path class="h" d="M1636.364,1726.148c.07.469.753.731,1.517.731a5.313,5.313,0,0,0,1.624-.229l.274,1.45a6.025,6.025,0,0,1-2.218.373c-2.084,0-3.261-1.149-3.261-3.023a3.016,3.016,0,0,1,3.069-3.156c1.913,0,2.732,1.4,2.732,3.03a3.916,3.916,0,0,1-.078.825Zm1.739-1.468a.874.874,0,0,0-.839-.968.983.983,0,0,0-.927.968Z" transform="translate(-1591.127 -1719.804)"/></g><g transform="translate(4836.76 762.203)"><path class="h" d="M1603.827,1737.69c0-.365-.012-.655-.028-.943h.551l.034.562h.018a1.207,1.207,0,0,1,1.1-.642,1.028,1.028,0,0,1,.984.7h.015a1.416,1.416,0,0,1,.394-.454,1.19,1.19,0,0,1,.769-.246c.466,0,1.154.3,1.154,1.516v2.056h-.621v-1.975c0-.676-.249-1.077-.757-1.077a.83.83,0,0,0-.757.57,1.051,1.051,0,0,0-.051.319v2.162h-.62v-2.1c0-.556-.246-.956-.726-.956a.879.879,0,0,0-.792.634,1.007,1.007,0,0,0-.048.312v2.106h-.62Z" transform="translate(-1603.799 -1735.111)"/><path class="h" d="M1613.272,1740.239l-.055-.441h-.019a1.3,1.3,0,0,1-1.069.521,1,1,0,0,1-1.068-1c0-.846.75-1.311,2.1-1.3v-.074a.72.72,0,0,0-.8-.806,1.7,1.7,0,0,0-.909.26l-.144-.422a2.2,2.2,0,0,1,1.153-.306c1.068,0,1.328.73,1.328,1.43v1.307a5.442,5.442,0,0,0,.053.836Zm-.1-1.783c-.687-.014-1.475.108-1.475.785a.559.559,0,0,0,.594.608.875.875,0,0,0,.851-.586.639.639,0,0,0,.03-.2Z" transform="translate(-1605.235 -1735.111)"/><path class="h" d="M1615.8,1737.833c0-.411-.01-.764-.029-1.087h.557l.023.684h.023a1.06,1.06,0,0,1,.972-.765.713.713,0,0,1,.177.018v.6a.949.949,0,0,0-.215-.019.888.888,0,0,0-.851.813,1.725,1.725,0,0,0-.026.3v1.866h-.631Z" transform="translate(-1606.165 -1735.111)"/><path class="h" d="M1619.413,1737.964h.015c.085-.123.205-.277.3-.4l1.03-1.2h.762l-1.348,1.436,1.537,2.056h-.773l-1.2-1.679-.326.365v1.314h-.631v-5.127h.631Z" transform="translate(-1606.761 -1734.728)"/><path class="h" d="M1623.225,1738.607a1.116,1.116,0,0,0,1.2,1.213,2.356,2.356,0,0,0,.968-.179l.112.452a2.827,2.827,0,0,1-1.166.222,1.628,1.628,0,0,1-1.719-1.763,1.7,1.7,0,0,1,1.643-1.886,1.473,1.473,0,0,1,1.438,1.643,1.584,1.584,0,0,1-.022.3Zm1.859-.456a.9.9,0,0,0-.875-1.029,1.044,1.044,0,0,0-.975,1.029Z" transform="translate(-1607.519 -1735.111)"/><path class="h" d="M1628.168,1735.512v1.006h.912V1737h-.912v1.883c0,.435.124.681.48.681a1.261,1.261,0,0,0,.368-.047l.03.483a1.636,1.636,0,0,1-.568.088.892.892,0,0,1-.686-.269,1.343,1.343,0,0,1-.246-.911V1737h-.541v-.481h.541v-.842Z" transform="translate(-1608.387 -1734.883)"/><path class="h" d="M1631.237,1735.437a.394.394,0,1,1-.393-.395A.382.382,0,0,1,1631.237,1735.437Zm-.71,4.481v-3.492h.632v3.492Z" transform="translate(-1609.068 -1734.79)"/><path class="h" d="M1632.708,1737.69c0-.365-.012-.655-.028-.943h.561l.035.574h.017a1.289,1.289,0,0,1,1.155-.655c.48,0,1.231.289,1.231,1.489v2.083h-.632v-2.014c0-.565-.214-1.037-.808-1.037a.913.913,0,0,0-.855.651.96.96,0,0,0-.044.294v2.105h-.632Z" transform="translate(-1609.509 -1735.111)"/><path class="h" d="M1640.725,1736.746c-.018.246-.03.53-.03.956v2.028a2.031,2.031,0,0,1-.5,1.6,1.882,1.882,0,0,1-1.272.419,2.265,2.265,0,0,1-1.166-.287l.159-.489a1.966,1.966,0,0,0,1.028.28c.648,0,1.125-.339,1.125-1.223v-.39h-.014a1.24,1.24,0,0,1-1.11.589,1.566,1.566,0,0,1-1.489-1.709,1.673,1.673,0,0,1,1.577-1.852,1.16,1.16,0,0,1,1.09.6h.014l.026-.522Zm-.661,1.374a.991.991,0,0,0-.035-.284.916.916,0,0,0-.892-.676c-.606,0-1.041.513-1.041,1.325,0,.683.353,1.258,1.034,1.258a.93.93,0,0,0,.884-.655,1.132,1.132,0,0,0,.05-.338Z" transform="translate(-1610.454 -1735.111)"/></g><g transform="translate(4748 786.624)"><path d="M1501.739,1771.73l-.153,2.685h-7.964v-.626l5.4-7.665h-2.112a6.956,6.956,0,0,0-1.212.083,1.4,1.4,0,0,0-.782.446,2.119,2.119,0,0,0-.449,1.15h-.639l.166-2.418h7.432v.6l-5.4,7.692h2.591a7.061,7.061,0,0,0,.822-.039,2.018,2.018,0,0,0,.68-.22,1.643,1.643,0,0,0,.612-.579,3.052,3.052,0,0,0,.4-1.106Z" transform="translate(-1493.254 -1765.211)"/><path d="M1513.559,1774.372H1509.3v-.613a2.887,2.887,0,0,0,.786-.077.338.338,0,0,0,.246-.363,1.115,1.115,0,0,0-.08-.407l-.426-1.065h-2.93l-.22.586a2.353,2.353,0,0,0-.187.713.473.473,0,0,0,.31.506,2.219,2.219,0,0,0,.723.107v.613h-3.11v-.613a1.32,1.32,0,0,0,.632-.14,1.421,1.421,0,0,0,.5-.53,7.258,7.258,0,0,0,.509-1.1l2.6-6.819h.633l2.75,7.033q.3.746.44,1.009a1,1,0,0,0,.386.405,1.381,1.381,0,0,0,.693.144Zm-3.97-3.176-1.245-3.151-1.186,3.151Z" transform="translate(-1495.389 -1765.168)"/><path d="M1529.053,1774.415h-4.529v-.613a2.351,2.351,0,0,0,.859-.116.6.6,0,0,0,.356-.339,1.8,1.8,0,0,0,.083-.61v-5.661l-3.41,7.339h-.407l-3.456-7.339v5.375a5.473,5.473,0,0,0,.03.653.786.786,0,0,0,.154.385.721.721,0,0,0,.389.237,2.783,2.783,0,0,0,.74.077v.613h-3.343v-.613a2.652,2.652,0,0,0,.742-.08.721.721,0,0,0,.383-.239.777.777,0,0,0,.147-.384,5.954,5.954,0,0,0,.026-.649v-5.115a3.989,3.989,0,0,0-.06-.826.559.559,0,0,0-.329-.382,2.259,2.259,0,0,0-.909-.13v-.613h3.3l3,6.373,3-6.373h3.23V1766a1.617,1.617,0,0,0-1.076.242,1.139,1.139,0,0,0-.243.823v5.674a1.793,1.793,0,0,0,.08.592.614.614,0,0,0,.369.351,2.345,2.345,0,0,0,.87.123Z" transform="translate(-1497.782 -1765.211)"/><path d="M1545.62,1771.73l-.152,2.685H1537.5v-.626l5.4-7.665h-2.111a6.936,6.936,0,0,0-1.211.083,1.4,1.4,0,0,0-.783.446,2.114,2.114,0,0,0-.449,1.15h-.639l.167-2.418h7.432v.6l-5.4,7.692h2.591a7.061,7.061,0,0,0,.822-.039,2.023,2.023,0,0,0,.68-.22,1.64,1.64,0,0,0,.612-.579,3.034,3.034,0,0,0,.4-1.106Z" transform="translate(-1501.93 -1765.211)"/><path d="M1557.439,1774.372h-4.255v-.613a2.884,2.884,0,0,0,.785-.077.338.338,0,0,0,.247-.363,1.111,1.111,0,0,0-.08-.407l-.426-1.065h-2.93l-.22.586a2.347,2.347,0,0,0-.186.713.473.473,0,0,0,.31.506,2.21,2.21,0,0,0,.722.107v.613h-3.11v-.613a1.32,1.32,0,0,0,.632-.14,1.408,1.408,0,0,0,.5-.53,7.163,7.163,0,0,0,.51-1.1l2.6-6.819h.632l2.751,7.033q.3.746.439,1.009a1,1,0,0,0,.387.405,1.376,1.376,0,0,0,.692.144Zm-3.969-3.176-1.246-3.151-1.185,3.151Z" transform="translate(-1504.064 -1765.168)"/><path d="M1572.934,1774.415h-4.528v-.613a2.346,2.346,0,0,0,.858-.116.609.609,0,0,0,.357-.339,1.806,1.806,0,0,0,.083-.61v-5.661l-3.41,7.339h-.407l-3.455-7.339v5.375a5.35,5.35,0,0,0,.03.653.787.787,0,0,0,.153.385.725.725,0,0,0,.389.237,2.793,2.793,0,0,0,.74.077v.613H1560.4v-.613a2.658,2.658,0,0,0,.743-.08.726.726,0,0,0,.383-.239.782.782,0,0,0,.146-.384,5.666,5.666,0,0,0,.027-.649v-5.115a4.049,4.049,0,0,0-.06-.826.56.56,0,0,0-.33-.382,2.259,2.259,0,0,0-.91-.13v-.613h3.3l3,6.373,3-6.373h3.23V1766a1.614,1.614,0,0,0-1.075.242,1.135,1.135,0,0,0-.244.823v5.674a1.8,1.8,0,0,0,.08.592.615.615,0,0,0,.369.351,2.349,2.349,0,0,0,.87.123Z" transform="translate(-1506.458 -1765.211)"/><path d="M1589.43,1767.756a2.078,2.078,0,0,1-.687,1.689,3.361,3.361,0,0,1-1.614.739,11.256,11.256,0,0,1-1.955.164h-.6v2.357a1.72,1.72,0,0,0,.087.619.608.608,0,0,0,.372.334,2.531,2.531,0,0,0,.873.113v.613h-4.542v-.613a2.3,2.3,0,0,0,.857-.12.624.624,0,0,0,.359-.339,1.776,1.776,0,0,0,.083-.607V1767a1.8,1.8,0,0,0-.079-.6.621.621,0,0,0-.359-.34,2.246,2.246,0,0,0-.86-.123v-.626l2.578-.067c.133,0,.279-.008.436-.01s.283,0,.376-.006.231,0,.412,0q.341,0,.506.007a12.552,12.552,0,0,1,1.525.152,3.446,3.446,0,0,1,1.482.676A1.976,1.976,0,0,1,1589.43,1767.756Zm-2.051.014a1.521,1.521,0,0,0-.629-1.442,3.293,3.293,0,0,0-1.655-.363c-.124,0-.3,0-.519.013v3.63h.613a3.254,3.254,0,0,0,1.584-.337Q1587.379,1768.935,1587.379,1767.771Z" transform="translate(-1510.603 -1765.179)"/><path d="M1602.209,1774.382h-2.417a4.555,4.555,0,0,1-.329-.426c-.132-.187-.274-.405-.43-.656l-.387-.623-.613-1.012a8.609,8.609,0,0,0-.622-.929.94.94,0,0,0-.48-.32,4.188,4.188,0,0,0-.915-.069h-.339v2.357a1.852,1.852,0,0,0,.079.6.607.607,0,0,0,.376.347,2.412,2.412,0,0,0,.862.12v.613h-4.528v-.613a1.589,1.589,0,0,0,1.062-.24,1.159,1.159,0,0,0,.237-.826V1767a1.187,1.187,0,0,0-.229-.823,1.572,1.572,0,0,0-1.069-.243v-.626l2.092-.067c.16-.009.343-.015.55-.02s.4-.006.576-.006c.137,0,.367,0,.686.014q.673.019,1.258.079a5.915,5.915,0,0,1,.927.153,3.159,3.159,0,0,1,.948.42,2.3,2.3,0,0,1,.733.773,2.14,2.14,0,0,1,.283,1.113,2.078,2.078,0,0,1-.2.879,2.032,2.032,0,0,1-.632.759,3.3,3.3,0,0,1-1.15.526,2.978,2.978,0,0,1,.826.709q.342.422,1.066,1.555a10.992,10.992,0,0,0,.692.976,1.724,1.724,0,0,0,.5.447,1.632,1.632,0,0,0,.583.149Zm-3.743-6.627a1.474,1.474,0,0,0-.655-1.431,3.619,3.619,0,0,0-1.715-.354c-.1,0-.174,0-.229,0s-.119,0-.189,0v3.63h.419a3.892,3.892,0,0,0,1.689-.327Q1598.467,1768.954,1598.466,1767.755Z" transform="translate(-1512.798 -1765.178)"/><path d="M1614.828,1769.86a4.75,4.75,0,0,1-.586,2.307,4.375,4.375,0,0,1-1.734,1.725,5.431,5.431,0,0,1-2.714.649,5.724,5.724,0,0,1-2.251-.412,4.383,4.383,0,0,1-1.588-1.106,4.611,4.611,0,0,1-.913-1.518,4.883,4.883,0,0,1-.3-1.658,4.812,4.812,0,0,1,.566-2.278,4.31,4.31,0,0,1,1.7-1.728,5.372,5.372,0,0,1,2.725-.655,5.764,5.764,0,0,1,2.457.473,4.239,4.239,0,0,1,1.578,1.191,4.648,4.648,0,0,1,.81,1.508A5.1,5.1,0,0,1,1614.828,1769.86Zm-2.157-.026a7.652,7.652,0,0,0-.13-1.438,3.771,3.771,0,0,0-.456-1.229,2.4,2.4,0,0,0-.893-.872,2.78,2.78,0,0,0-1.4-.323,2.6,2.6,0,0,0-1.787.57,2.841,2.841,0,0,0-.873,1.426,7.176,7.176,0,0,0-.229,1.868,9.688,9.688,0,0,0,.073,1.165,4.391,4.391,0,0,0,.353,1.243,2.584,2.584,0,0,0,.892,1.072,2.675,2.675,0,0,0,1.585.436,2.555,2.555,0,0,0,1.568-.45,2.647,2.647,0,0,0,.879-1.1,4.537,4.537,0,0,0,.347-1.242A9.66,9.66,0,0,0,1612.671,1769.833Z" transform="translate(-1515.226 -1765.171)"/><path d="M1626.734,1767.756a2.078,2.078,0,0,1-.687,1.689,3.362,3.362,0,0,1-1.614.739,11.253,11.253,0,0,1-1.955.164h-.6v2.357a1.743,1.743,0,0,0,.086.619.612.612,0,0,0,.373.334,2.527,2.527,0,0,0,.873.113v.613h-4.543v-.613a2.29,2.29,0,0,0,.856-.12.626.626,0,0,0,.36-.339,1.78,1.78,0,0,0,.083-.607V1767a1.782,1.782,0,0,0-.08-.6.616.616,0,0,0-.359-.34,2.241,2.241,0,0,0-.859-.123v-.626l2.578-.067c.133,0,.278-.008.437-.01s.282,0,.376-.006.231,0,.412,0q.339,0,.506.007a12.538,12.538,0,0,1,1.524.152,3.443,3.443,0,0,1,1.483.676A1.975,1.975,0,0,1,1626.734,1767.756Zm-2.051.014a1.523,1.523,0,0,0-.629-1.442,3.3,3.3,0,0,0-1.656-.363c-.124,0-.3,0-.518.013v3.63h.613a3.257,3.257,0,0,0,1.584-.337Q1624.683,1768.935,1624.683,1767.771Z" transform="translate(-1517.979 -1765.179)"/><path d="M1637.854,1771.444l-.073,2.97h-8.045v-.613a1.617,1.617,0,0,0,1.073-.24,1.147,1.147,0,0,0,.24-.826v-5.674a1.857,1.857,0,0,0-.077-.6.6.6,0,0,0-.359-.34,2.318,2.318,0,0,0-.876-.123v-.613h7.492l.12,2.344h-.613a3.114,3.114,0,0,0-.477-1.116,1.087,1.087,0,0,0-.606-.412,4.9,4.9,0,0,0-1.009-.076h-1.691v3.189h.919a2.238,2.238,0,0,0,.705-.083.528.528,0,0,0,.327-.317,2.552,2.552,0,0,0,.127-.732h.639v3h-.613a2.173,2.173,0,0,0-.133-.736.562.562,0,0,0-.336-.316,2.273,2.273,0,0,0-.7-.08h-.932v2.125c0,.355.009.615.026.778a.857.857,0,0,0,.144.41.659.659,0,0,0,.38.237,2.942,2.942,0,0,0,.749.073h.726a3.223,3.223,0,0,0,.875-.116,1.693,1.693,0,0,0,.816-.6,3.14,3.14,0,0,0,.559-1.515Z" transform="translate(-1520.167 -1765.211)"/><path d="M1650.781,1774.382h-2.418a4.71,4.71,0,0,1-.329-.426c-.131-.187-.274-.405-.429-.656s-.285-.458-.387-.623l-.612-1.012a8.6,8.6,0,0,0-.623-.929.941.941,0,0,0-.479-.32,4.2,4.2,0,0,0-.916-.069h-.339v2.357a1.83,1.83,0,0,0,.08.6.6.6,0,0,0,.375.347,2.417,2.417,0,0,0,.862.12v.613h-4.529v-.613a1.586,1.586,0,0,0,1.062-.24,1.155,1.155,0,0,0,.237-.826V1767a1.183,1.183,0,0,0-.229-.823,1.571,1.571,0,0,0-1.069-.243v-.626l2.092-.067c.16-.009.342-.015.549-.02s.4-.006.576-.006q.207,0,.686.014.673.019,1.259.079a5.918,5.918,0,0,1,.926.153,3.163,3.163,0,0,1,.949.42,2.308,2.308,0,0,1,.732.773,2.146,2.146,0,0,1,.282,1.113,2.08,2.08,0,0,1-.2.879,2.033,2.033,0,0,1-.632.759,3.291,3.291,0,0,1-1.15.526,2.983,2.983,0,0,1,.826.709q.341.422,1.065,1.555a11.144,11.144,0,0,0,.692.976,1.744,1.744,0,0,0,.5.447,1.637,1.637,0,0,0,.583.149Zm-3.743-6.627a1.474,1.474,0,0,0-.656-1.431,3.617,3.617,0,0,0-1.714-.354c-.1,0-.174,0-.23,0s-.119,0-.189,0v3.63h.42a3.889,3.889,0,0,0,1.688-.327Q1647.038,1768.954,1647.038,1767.755Z" transform="translate(-1522.401 -1765.178)"/><path d="M1661.743,1767.947h-.633a2.641,2.641,0,0,0-.37-1.238,1.182,1.182,0,0,0-.609-.493,2.756,2.756,0,0,0-.753-.092h-1.146v6.612a1.839,1.839,0,0,0,.08.61.613.613,0,0,0,.373.336,2.381,2.381,0,0,0,.859.12v.613h-4.528v-.613a1.62,1.62,0,0,0,1.073-.24,1.147,1.147,0,0,0,.239-.826v-6.612h-.959a4.144,4.144,0,0,0-.939.089,1.139,1.139,0,0,0-.656.493,2.383,2.383,0,0,0-.323,1.242h-.632v-2.563h8.924Z" transform="translate(-1524.731 -1765.211)"/><path d="M1669.424,1774.415h-4.582v-.613a2.6,2.6,0,0,0,.865-.11.611.611,0,0,0,.383-.33,1.687,1.687,0,0,0,.091-.626v-5.674a1.137,1.137,0,0,0-.243-.826,1.675,1.675,0,0,0-1.1-.239v-.613h4.582V1766a2.536,2.536,0,0,0-.866.112.63.63,0,0,0-.383.33,1.685,1.685,0,0,0-.09.623v5.674a1.712,1.712,0,0,0,.087.607.634.634,0,0,0,.369.339,2.427,2.427,0,0,0,.883.12Z" transform="translate(-1527.108 -1765.211)"/><path d="M1679.536,1771.444l-.074,2.97h-8.044v-.613a1.618,1.618,0,0,0,1.073-.24,1.147,1.147,0,0,0,.24-.826v-5.674a1.882,1.882,0,0,0-.077-.6.6.6,0,0,0-.359-.34,2.32,2.32,0,0,0-.876-.123v-.613h7.493l.12,2.344h-.612a3.125,3.125,0,0,0-.477-1.116,1.092,1.092,0,0,0-.606-.412,4.9,4.9,0,0,0-1.009-.076h-1.691v3.189h.919a2.24,2.24,0,0,0,.706-.083.529.529,0,0,0,.326-.317,2.564,2.564,0,0,0,.128-.732h.639v3h-.612a2.195,2.195,0,0,0-.133-.736.564.564,0,0,0-.336-.316,2.278,2.278,0,0,0-.7-.08h-.932v2.125c0,.355.008.615.026.778a.849.849,0,0,0,.144.41.656.656,0,0,0,.379.237,2.952,2.952,0,0,0,.75.073h.725a3.228,3.228,0,0,0,.876-.116,1.693,1.693,0,0,0,.816-.6,3.141,3.141,0,0,0,.559-1.515Z" transform="translate(-1528.408 -1765.211)"/><path d="M1689.7,1771.785a2.5,2.5,0,0,1-.179.889,3.147,3.147,0,0,1-.543.9,2.78,2.78,0,0,1-.915.7,2.887,2.887,0,0,1-1.279.27,3.516,3.516,0,0,1-1.429-.313,3.131,3.131,0,0,1-1.2-.932,3.572,3.572,0,0,0-.273.913h-.612v-3.09h.612a6.081,6.081,0,0,0,.46,1.252,2.961,2.961,0,0,0,.829,1.009,2.059,2.059,0,0,0,1.315.423,1.557,1.557,0,0,0,1.09-.373,1.218,1.218,0,0,0,.41-.939,1.175,1.175,0,0,0-.128-.559,1.351,1.351,0,0,0-.367-.429,4.237,4.237,0,0,0-.655-.406q-.417-.217-.949-.456a7.975,7.975,0,0,1-1.344-.78,3.788,3.788,0,0,1-.8-.762,2.457,2.457,0,0,1-.372-.7,2.251,2.251,0,0,1-.1-.673,2.433,2.433,0,0,1,.326-1.195,2.567,2.567,0,0,1,.956-.967,2.784,2.784,0,0,1,1.455-.375,2.7,2.7,0,0,1,1.206.282,3.1,3.1,0,0,1,.992.777,4.031,4.031,0,0,0,.219-.786h.627v2.517h-.627q-.664-2.059-2.317-2.058a1.414,1.414,0,0,0-.962.316,1.032,1.032,0,0,0-.363.816,1.074,1.074,0,0,0,.227.683,1.93,1.93,0,0,0,.6.5q.368.207,1.195.593a17.027,17.027,0,0,1,1.562.818,3.378,3.378,0,0,1,.952.873A2.077,2.077,0,0,1,1689.7,1771.785Z" transform="translate(-1530.751 -1765.171)"/><path d="M1493.164,1778.6v-.68H1652.8v.68Z" transform="translate(-1493.164 -1767.689)"/></g></g></svg>