<svg xmlns="http://www.w3.org/2000/svg" width="306" height="216" viewBox="0 0 306 216"><defs><style>.a{fill:#f7f7f7;}.b{fill:#379228;}.c{fill:#3e3e15;}.d{fill:#cfcf5f;}</style></defs><g transform="translate(-5318 -650)"><rect class="a" width="306" height="216" transform="translate(5318 650)"/><g transform="translate(5425.04 721.117)"><path class="b" d="M1928.757,1321.676a12.449,12.449,0,0,1,9.729,4.5,17.419,17.419,0,0,1,0,22.089,12.447,12.447,0,0,1-9.729,4.5h-7.039v15.211h-7.9v-46.293Zm0,22.551a5.186,5.186,0,0,0,4.178-2.017,8.39,8.39,0,0,0,0-10.019,5.222,5.222,0,0,0-4.178-1.983h-7.039v14.02Z" transform="translate(-1913.82 -1321.676)"/><path class="b" d="M1980.494,1367.969l-2.547-8.332H1961.49l-2.4,8.332h-8.527l14.022-46.293h9.786l14.133,46.293Zm-16.432-16.864h11.276l-5.781-18.915Z" transform="translate(-1927.95 -1321.676)"/><path class="b" d="M2044.171,1367.969h-9.1l-14.308-21.685v21.685h-7.9v-46.293h7.9v20.4l13.735-20.4h9.1l-14.822,22.484Z" transform="translate(-1951.914 -1321.676)"/></g><g transform="translate(5425.113 739.601)"><g transform="translate(0 0)"><rect class="c" width="9.702" height="36.043"/><g transform="translate(1.103 0.621)"><rect class="d" width="2.031" height="5.169"/><rect class="d" width="2.031" height="5.169" transform="translate(2.689)"/><rect class="d" width="2.031" height="5.169" transform="translate(5.378)"/><rect class="d" width="2.031" height="5.169" transform="translate(0 5.926)"/><rect class="d" width="2.031" height="5.169" transform="translate(2.689 5.926)"/><rect class="d" width="2.031" height="5.169" transform="translate(5.378 5.926)"/><rect class="d" width="2.031" height="5.169" transform="translate(0 11.852)"/><rect class="d" width="2.031" height="5.169" transform="translate(2.689 11.852)"/><rect class="d" width="2.031" height="5.169" transform="translate(5.378 11.852)"/><rect class="d" width="2.031" height="5.169" transform="translate(0 17.779)"/><rect class="d" width="2.031" height="5.169" transform="translate(2.689 17.779)"/><rect class="d" width="2.031" height="5.169" transform="translate(5.378 17.779)"/><rect class="d" width="2.031" height="5.169" transform="translate(0 23.705)"/><rect class="d" width="2.031" height="5.169" transform="translate(2.689 23.705)"/><rect class="d" width="2.031" height="5.169" transform="translate(5.378 23.705)"/><rect class="d" width="2.031" height="5.169" transform="translate(0 29.631)"/><rect class="d" width="2.031" height="5.169" transform="translate(2.689 29.631)"/><rect class="d" width="2.031" height="5.169" transform="translate(5.378 29.631)"/></g></g><g transform="translate(11.943 8.839)"><rect class="c" width="7.323" height="27.204"/><g transform="translate(0.833 0.469)"><rect class="d" width="1.533" height="3.902"/><rect class="d" width="1.533" height="3.902" transform="translate(2.03)"/><rect class="d" width="1.533" height="3.902" transform="translate(4.06)"/><rect class="d" width="1.533" height="3.902" transform="translate(0 4.473)"/><rect class="d" width="1.533" height="3.902" transform="translate(2.03 4.473)"/><rect class="d" width="1.533" height="3.902" transform="translate(4.06 4.473)"/><rect class="d" width="1.533" height="3.902" transform="translate(0 8.946)"/><rect class="d" width="1.533" height="3.902" transform="translate(2.03 8.946)"/><rect class="d" width="1.533" height="3.902" transform="translate(4.06 8.946)"/><rect class="d" width="1.533" height="3.902" transform="translate(0 13.419)"/><rect class="d" width="1.533" height="3.902" transform="translate(2.03 13.419)"/><rect class="d" width="1.533" height="3.902" transform="translate(4.06 13.419)"/><rect class="d" width="1.533" height="3.902" transform="translate(0 17.892)"/><rect class="d" width="1.533" height="3.902" transform="translate(2.03 17.892)"/><rect class="d" width="1.533" height="3.902" transform="translate(4.06 17.892)"/><rect class="d" width="1.533" height="3.902" transform="translate(0 22.365)"/><rect class="d" width="1.533" height="3.902" transform="translate(2.03 22.365)"/><rect class="d" width="1.533" height="3.902" transform="translate(4.06 22.365)"/></g></g><g transform="translate(21.506 8.839)"><rect class="c" width="4.652" height="27.204"/><rect class="d" width="1.533" height="3.902" transform="translate(0.65 0.469)"/><rect class="d" width="1.533" height="3.902" transform="translate(2.68 0.469)"/><rect class="d" width="1.533" height="3.902" transform="translate(0.65 4.942)"/><rect class="d" width="1.533" height="3.902" transform="translate(2.68 4.942)"/><rect class="d" width="1.533" height="3.902" transform="translate(0.65 9.415)"/><rect class="d" width="1.533" height="3.902" transform="translate(2.68 9.415)"/><rect class="d" width="1.533" height="3.902" transform="translate(0.65 13.888)"/><rect class="d" width="1.533" height="3.902" transform="translate(2.68 13.888)"/><rect class="d" width="1.533" height="3.902" transform="translate(0.65 18.361)"/><rect class="d" width="1.533" height="3.902" transform="translate(2.68 18.361)"/><rect class="d" width="1.533" height="3.902" transform="translate(0.65 22.834)"/><rect class="d" width="1.533" height="3.902" transform="translate(2.68 22.834)"/></g><g transform="translate(56.675 8.839)"><rect class="c" width="5.211" height="27.204"/><g transform="translate(0.824 0.469)"><rect class="d" width="1.533" height="3.902"/><rect class="d" width="1.533" height="3.902" transform="translate(2.03)"/><rect class="d" width="1.533" height="3.902" transform="translate(0 4.473)"/><rect class="d" width="1.533" height="3.902" transform="translate(2.03 4.473)"/><rect class="d" width="1.533" height="3.902" transform="translate(0 8.946)"/><rect class="d" width="1.533" height="3.902" transform="translate(2.03 8.946)"/><rect class="d" width="1.533" height="3.902" transform="translate(0 13.419)"/><rect class="d" width="1.533" height="3.902" transform="translate(2.03 13.419)"/><rect class="d" width="1.533" height="3.902" transform="translate(0 17.892)"/><rect class="d" width="1.533" height="3.902" transform="translate(2.03 17.892)"/><rect class="d" width="1.533" height="3.902" transform="translate(0 22.365)"/><rect class="d" width="1.533" height="3.902" transform="translate(2.03 22.365)"/></g></g><g transform="translate(41.598 8.839)"><rect class="c" width="4.652" height="27.204"/><g transform="translate(0.545 0.469)"><rect class="d" width="1.533" height="3.902"/><rect class="d" width="1.533" height="3.902" transform="translate(2.03)"/><rect class="d" width="1.533" height="3.902" transform="translate(0 4.473)"/><rect class="d" width="1.533" height="3.902" transform="translate(2.03 4.473)"/><rect class="d" width="1.533" height="3.902" transform="translate(0 8.946)"/><rect class="d" width="1.533" height="3.902" transform="translate(2.03 8.946)"/><rect class="d" width="1.533" height="3.902" transform="translate(0 13.419)"/><rect class="d" width="1.533" height="3.902" transform="translate(2.03 13.419)"/><rect class="d" width="1.533" height="3.902" transform="translate(0 17.892)"/><rect class="d" width="1.533" height="3.902" transform="translate(2.03 17.892)"/><rect class="d" width="1.533" height="3.902" transform="translate(0 22.365)"/><rect class="d" width="1.533" height="3.902" transform="translate(2.03 22.365)"/></g></g><g transform="translate(77.45 8.839)"><rect class="c" width="4.652" height="27.204"/><rect class="d" width="1.533" height="3.902" transform="translate(0.65 0.469)"/><rect class="d" width="1.533" height="3.902" transform="translate(2.68 0.469)"/><rect class="d" width="1.533" height="3.902" transform="translate(0.65 4.942)"/><rect class="d" width="1.533" height="3.902" transform="translate(2.68 4.942)"/><rect class="d" width="1.533" height="3.902" transform="translate(0.65 9.415)"/><rect class="d" width="1.533" height="3.902" transform="translate(2.68 9.415)"/><rect class="d" width="1.533" height="3.902" transform="translate(0.65 13.888)"/><rect class="d" width="1.533" height="3.902" transform="translate(2.68 13.888)"/><rect class="d" width="1.533" height="3.902" transform="translate(0.65 18.361)"/><rect class="d" width="1.533" height="3.902" transform="translate(2.68 18.361)"/><rect class="d" width="1.533" height="3.902" transform="translate(0.65 22.834)"/><rect class="d" width="1.533" height="3.902" transform="translate(2.68 22.834)"/></g><g transform="translate(37.118 22.947)"><rect class="c" width="2.24" height="13.096"/><rect class="d" width="0.738" height="1.878" transform="translate(0.313 0.226)"/><rect class="d" width="0.738" height="1.878" transform="translate(1.29 0.226)"/><rect class="d" width="0.738" height="1.878" transform="translate(0.313 2.379)"/><rect class="d" width="0.738" height="1.878" transform="translate(1.29 2.379)"/><rect class="d" width="0.738" height="1.878" transform="translate(0.313 4.532)"/><rect class="d" width="0.738" height="1.878" transform="translate(1.29 4.532)"/><rect class="d" width="0.738" height="1.878" transform="translate(0.313 6.685)"/><rect class="d" width="0.738" height="1.878" transform="translate(1.29 6.685)"/><rect class="d" width="0.738" height="1.878" transform="translate(0.313 8.839)"/><rect class="d" width="0.738" height="1.878" transform="translate(1.29 8.839)"/><rect class="d" width="0.738" height="1.878" transform="translate(0.313 10.992)"/><rect class="d" width="0.738" height="1.878" transform="translate(1.29 10.992)"/></g><g transform="translate(28.398 28.865)"><rect class="c" width="6.48" height="7.178"/><g transform="translate(0.69 0.942)"><rect class="d" width="2.275" height="2.275"/><rect class="d" width="2.275" height="2.275" transform="translate(2.825)"/><rect class="d" width="2.275" height="2.275" transform="translate(0 3.02)"/><rect class="d" width="2.275" height="2.275" transform="translate(2.825 3.02)"/></g></g><g transform="translate(64.127 28.865)"><rect class="c" width="6.48" height="7.178"/><g transform="translate(0.69 0.942)"><rect class="d" width="2.275" height="2.275"/><rect class="d" width="2.275" height="2.275" transform="translate(2.825)"/><rect class="d" width="2.275" height="2.275" transform="translate(0 3.02)"/><rect class="d" width="2.275" height="2.275" transform="translate(2.825 3.02)"/></g></g><g transform="translate(48.491 19.164)"><rect class="c" width="5.945" height="16.879"/><g transform="translate(0.688 0.694)"><rect class="d" width="1.719" height="1.719"/><rect class="d" width="1.719" height="1.719" transform="translate(2.849)"/><rect class="d" width="1.719" height="1.719" transform="translate(0 2.754)"/><rect class="d" width="1.719" height="1.719" transform="translate(2.849 2.754)"/><rect class="d" width="1.719" height="1.719" transform="translate(0 5.509)"/><rect class="d" width="1.719" height="1.719" transform="translate(2.849 5.509)"/><rect class="d" width="1.719" height="1.719" transform="translate(0 8.263)"/><rect class="d" width="1.719" height="1.719" transform="translate(2.849 8.263)"/><rect class="d" width="1.719" height="1.719" transform="translate(0 11.017)"/><rect class="d" width="1.719" height="1.719" transform="translate(2.849 11.017)"/><rect class="d" width="1.719" height="1.719" transform="translate(0 13.772)"/><rect class="d" width="1.719" height="1.719" transform="translate(2.849 13.772)"/></g></g><rect class="c" width="2.363" height="13.651" transform="translate(72.847 22.392)"/><g transform="translate(84.343 2.492)"><rect class="c" width="7.68" height="33.55"/><g transform="translate(1.477 2.184)"><rect class="d" width="1.994" height="4.073"/><rect class="d" width="1.994" height="4.073" transform="translate(2.732)"/><rect class="d" width="1.994" height="4.073" transform="translate(0 5.022)"/><rect class="d" width="1.994" height="4.073" transform="translate(2.732 5.022)"/><rect class="d" width="1.994" height="4.073" transform="translate(0 10.043)"/><rect class="d" width="1.994" height="4.073" transform="translate(2.732 10.043)"/><rect class="d" width="1.994" height="4.073" transform="translate(0 15.065)"/><rect class="d" width="1.994" height="4.073" transform="translate(2.732 15.065)"/><rect class="d" width="1.994" height="4.073" transform="translate(0 20.087)"/><rect class="d" width="1.994" height="4.073" transform="translate(2.732 20.087)"/><rect class="d" width="1.994" height="4.073" transform="translate(0 25.108)"/><rect class="d" width="1.994" height="4.073" transform="translate(2.732 25.108)"/></g></g></g><g transform="translate(5425 777.74)"><path d="M1918.548,1418.2a1.456,1.456,0,0,1,.866.45,1.773,1.773,0,0,1,.341.871l.33,2.573h-1.73l-.193-2.084a1.221,1.221,0,0,0-.336-.808,1.323,1.323,0,0,0-.894-.25h-1.491v3.142h-1.686v-8.106h3.78a2.647,2.647,0,0,1,1.958.627,2.243,2.243,0,0,1,.6,1.6A1.875,1.875,0,0,1,1918.548,1418.2Zm-3.108-2.8v2.186h1.616a1.55,1.55,0,0,0,1.042-.3,1.047,1.047,0,0,0,.347-.837,1.019,1.019,0,0,0-.29-.769,1.217,1.217,0,0,0-.871-.279Z" transform="translate(-1913.755 -1413.802)"/><path d="M1933.285,1422.09h-1.8l-.547-1.685H1928l-.546,1.685h-1.788l2.869-8.106h1.947Zm-4.5-4.076-.33,1h2.037l-.33-1-.682-2.333Z" transform="translate(-1918.337 -1413.802)"/><path d="M1944.691,1417.115v-3.131h1.684v8.106h-1.684v-3.472h-3.165v3.472h-1.686v-8.106h1.686v3.131Z" transform="translate(-1923.788 -1413.802)"/><path d="M1957.867,1417.684a1.9,1.9,0,0,1,1.571,2.026,2.238,2.238,0,0,1-.695,1.7,2.672,2.672,0,0,1-1.958.683h-3.792v-8.106h3.769a2.735,2.735,0,0,1,1.77.53,1.764,1.764,0,0,1,.654,1.451,1.74,1.74,0,0,1-.342,1.093A1.819,1.819,0,0,1,1957.867,1417.684Zm-1.4-2.334h-1.787v1.764h1.719a1.3,1.3,0,0,0,.854-.238.818.818,0,0,0,.284-.661Q1957.536,1415.351,1956.466,1415.35Zm-1.787,5.317h1.81a1.4,1.4,0,0,0,.968-.3,1.042,1.042,0,0,0,.33-.82.994.994,0,0,0-.319-.791,1.321,1.321,0,0,0-.9-.279h-1.89Z" transform="translate(-1928.847 -1413.802)"/><path d="M1972.524,1422.09h-1.8l-.546-1.685h-2.937l-.547,1.685h-1.787l2.868-8.106h1.947Zm-4.5-4.076-.33,1h2.038l-.33-1-.682-2.333Z" transform="translate(-1933.429 -1413.802)"/><path d="M1983.871,1418.2a1.453,1.453,0,0,1,.865.45,1.776,1.776,0,0,1,.342.871l.33,2.573h-1.73l-.193-2.084a1.217,1.217,0,0,0-.336-.808,1.321,1.321,0,0,0-.894-.25h-1.492v3.142h-1.685v-8.106h3.78a2.647,2.647,0,0,1,1.958.627,2.243,2.243,0,0,1,.6,1.6A1.875,1.875,0,0,1,1983.871,1418.2Zm-3.108-2.8v2.186h1.617a1.55,1.55,0,0,0,1.041-.3,1.047,1.047,0,0,0,.348-.837,1.019,1.019,0,0,0-.291-.769,1.215,1.215,0,0,0-.871-.279Z" transform="translate(-1938.879 -1413.802)"/><path d="M1998.171,1418.606v2.061h4.326v1.423h-6.011v-8.106h5.9v1.423h-4.212v1.753h3.791v1.446Z" transform="translate(-1945.574 -1413.802)"/><path d="M2011.284,1422.238a3.845,3.845,0,0,1-2.487-.74,2.568,2.568,0,0,1-.951-2.038h1.651a1.328,1.328,0,0,0,.5,1.036,2.022,2.022,0,0,0,1.276.364,1.945,1.945,0,0,0,1.093-.268.848.848,0,0,0,.4-.746.711.711,0,0,0-.285-.609,2.873,2.873,0,0,0-.956-.382l-1.492-.375a2.839,2.839,0,0,1-1.474-.82,2.078,2.078,0,0,1-.518-1.435,2.378,2.378,0,0,1,.785-1.8,3.123,3.123,0,0,1,2.243-.74,3.554,3.554,0,0,1,2.345.729,2.661,2.661,0,0,1,.957,1.936h-1.639a1.367,1.367,0,0,0-.524-.946,1.794,1.794,0,0,0-1.127-.341,1.594,1.594,0,0,0-.979.273.843.843,0,0,0-.364.706q0,.672.945.911l1.617.4q2.208.536,2.208,2.333a2.257,2.257,0,0,1-.859,1.868A3.7,3.7,0,0,1,2011.284,1422.238Z" transform="translate(-1949.943 -1413.688)"/><path d="M2019.612,1413.984h6.547v1.5h-2.425v6.6h-1.685v-6.6h-2.436Z" transform="translate(-1954.469 -1413.802)"/><path d="M2037.162,1422.09h-1.8l-.546-1.685h-2.938l-.546,1.685h-1.788l2.869-8.106h1.947Zm-4.5-4.076-.33,1h2.037l-.33-1-.682-2.333Z" transform="translate(-1958.29 -1413.802)"/><path d="M2041.219,1413.984h6.546v1.5h-2.425v6.6h-1.685v-6.6h-2.436Z" transform="translate(-1962.779 -1413.802)"/><path d="M2055.243,1418.606v2.061h4.327v1.423h-6.012v-8.106h5.9v1.423h-4.212v1.753h3.792v1.446Z" transform="translate(-1967.525 -1413.802)"/></g><g transform="translate(5437.814 789.545)"><path d="M1940.52,1439.291l1.537,1.89h-1.924l-.615-.8a3.275,3.275,0,0,1-2.333.956,2.725,2.725,0,0,1-1.879-.627,2.056,2.056,0,0,1-.728-1.639,2.757,2.757,0,0,1,1.935-2.527l-.057-.069a3.087,3.087,0,0,1-.82-1.764,1.674,1.674,0,0,1,.615-1.332,2.6,2.6,0,0,1,3.143.035,1.74,1.74,0,0,1,.615,1.354,2.51,2.51,0,0,1-1.435,2.129l1.025,1.252a4.36,4.36,0,0,0,.353-1.344h1.537A5.654,5.654,0,0,1,1940.52,1439.291Zm-3.153.66a1.787,1.787,0,0,0,1.332-.615l-1.344-1.708q-1.116.546-1.116,1.332a.914.914,0,0,0,.308.717A1.188,1.188,0,0,0,1937.367,1439.951Zm.968-5.578a.686.686,0,0,0-.489-.182.678.678,0,0,0-.484.177.618.618,0,0,0-.188.472,1.18,1.18,0,0,0,.319.729l.239.3q.8-.5.8-1A.639.639,0,0,0,1938.334,1434.373Z" transform="translate(-1934.578 -1432.87)"/><path d="M1957.987,1436.885a1.9,1.9,0,0,1,1.571,2.026,2.239,2.239,0,0,1-.694,1.7,2.673,2.673,0,0,1-1.958.683h-3.791v-8.105h3.769a2.739,2.739,0,0,1,1.771.529,1.764,1.764,0,0,1,.654,1.451,1.746,1.746,0,0,1-.341,1.094A1.827,1.827,0,0,1,1957.987,1436.885Zm-1.4-2.334H1954.8v1.764h1.719a1.3,1.3,0,0,0,.854-.238.817.817,0,0,0,.285-.66Q1957.657,1434.551,1956.586,1434.551Zm-1.787,5.317h1.81a1.4,1.4,0,0,0,.968-.3,1.042,1.042,0,0,0,.331-.82.994.994,0,0,0-.319-.791,1.324,1.324,0,0,0-.9-.279h-1.89Z" transform="translate(-1941.707 -1432.991)"/><path d="M1971.232,1440.835a3.438,3.438,0,0,1-2.322.718,3.394,3.394,0,0,1-2.312-.718,2.544,2.544,0,0,1-.831-2.037v-5.612h1.685v5.635q0,1.276,1.469,1.275t1.457-1.275v-5.635h1.685v5.612A2.545,2.545,0,0,1,1971.232,1440.835Z" transform="translate(-1946.574 -1432.991)"/><path d="M1980.218,1441.29h-1.685v-8.105h1.685Z" transform="translate(-1951.484 -1432.991)"/><path d="M1985.49,1433.185v6.6h3.951v1.5h-5.636v-8.105Z" transform="translate(-1953.511 -1432.991)"/><path d="M1994.572,1433.185h2.983q3.848,0,3.848,4.052a4.437,4.437,0,0,1-.916,2.994,3.381,3.381,0,0,1-2.7,1.059h-3.211Zm1.685,6.682h1.309a2.015,2.015,0,0,0,1.662-.609,3.256,3.256,0,0,0,.49-2.021,3.325,3.325,0,0,0-.512-2.072,2.381,2.381,0,0,0-1.867-.615h-1.082Z" transform="translate(-1957.652 -1432.991)"/><path d="M2009.28,1437.807v2.061h4.327v1.423h-6.012v-8.105h5.9v1.423h-4.212v1.753h3.791v1.445Z" transform="translate(-1962.661 -1432.991)"/><path d="M2024.229,1437.4a1.452,1.452,0,0,1,.865.45,1.767,1.767,0,0,1,.342.871l.33,2.572h-1.73l-.194-2.083a1.216,1.216,0,0,0-.336-.809,1.32,1.32,0,0,0-.894-.25h-1.492v3.142h-1.685v-8.105h3.78a2.645,2.645,0,0,1,1.958.626,2.243,2.243,0,0,1,.6,1.606A1.875,1.875,0,0,1,2024.229,1437.4Zm-3.108-2.8v2.185h1.617a1.553,1.553,0,0,0,1.042-.3,1.047,1.047,0,0,0,.347-.836,1.014,1.014,0,0,0-.29-.769,1.212,1.212,0,0,0-.871-.279Z" transform="translate(-1967.215 -1432.991)"/><path d="M2035.047,1441.439a3.846,3.846,0,0,1-2.487-.74,2.568,2.568,0,0,1-.951-2.038h1.65a1.329,1.329,0,0,0,.5,1.036,2.016,2.016,0,0,0,1.275.364,1.944,1.944,0,0,0,1.094-.268.849.849,0,0,0,.4-.746.711.711,0,0,0-.285-.609,2.884,2.884,0,0,0-.956-.382l-1.491-.375a2.836,2.836,0,0,1-1.475-.82,2.078,2.078,0,0,1-.518-1.434,2.38,2.38,0,0,1,.786-1.8,3.121,3.121,0,0,1,2.242-.74,3.552,3.552,0,0,1,2.345.728,2.657,2.657,0,0,1,.956,1.936h-1.639a1.365,1.365,0,0,0-.524-.945,1.794,1.794,0,0,0-1.127-.342,1.593,1.593,0,0,0-.979.273.842.842,0,0,0-.365.706q0,.672.945.911l1.617.4q2.209.535,2.208,2.333a2.258,2.258,0,0,1-.859,1.867A3.7,3.7,0,0,1,2035.047,1441.439Z" transform="translate(-1971.897 -1432.877)"/></g></g></svg>