<svg xmlns="http://www.w3.org/2000/svg" width="306" height="216" viewBox="0 0 306 216"><defs><style>.a{fill:#f7f7f7;}.b{fill:#b50606;}</style></defs><g transform="translate(-6607 -893)"><rect class="a" width="306" height="216" transform="translate(6607 893)"/><g transform="translate(6691 946.832)"><path class="b" d="M2395.209,1814.33a9.383,9.383,0,0,0,9.383,9.383h9.458v24.165a9.382,9.382,0,0,0,9.383-9.382V1814.33h-28.223Z" transform="translate(-2395.209 -1814.33)"/><path class="b" d="M2464.435,1814.33h-24.255v6.769h18.573Z" transform="translate(-2410.088 -1814.33)"/><path class="b" d="M2440.181,1838.228h18.573l5.682-6.769h-24.255Z" transform="translate(-2410.088 -1819.997)"/><path class="b" d="M2440.181,1855.356h18.573l5.682-6.769h-24.255Z" transform="translate(-2410.088 -1825.664)"/></g><g transform="translate(6746.867 951.829)"><path class="b" d="M2522.6,1821.8q-1.867,2.433-3.65,5.033t-3.415,5.381q-1.633,2.784-3.083,5.716t-2.65,6.032a4.9,4.9,0,0,0,1.366-.183,7.09,7.09,0,0,0,1.2-.467,5.514,5.514,0,0,0,1.05-.683q.483-.4.917-.833a.138.138,0,0,1,.1-.033.585.585,0,0,1,.134.017.36.36,0,0,1,.116.05c.034.022.039.056.018.1a1.992,1.992,0,0,1-.533.851,4.807,4.807,0,0,1-1.116.832,8.373,8.373,0,0,1-1.583.666,7.037,7.037,0,0,1-1.9.316l-.833,1.7-2.8.333.933-2.2a12.846,12.846,0,0,1-1.717-.316,15.549,15.549,0,0,1-1.682-.533,15.253,15.253,0,0,1-1.633-.733q-.8-.417-1.6-.85-.533.432-1.166.882t-1.316.867q-.683.417-1.449.8t-1.566.717q-.8.333-1.633.6t-1.683.451a12.931,12.931,0,0,1-1.716.249q-.868.067-1.7.067-.767,0-1.566-.067a11.517,11.517,0,0,1-1.6-.249,12.77,12.77,0,0,1-1.567-.467,8.277,8.277,0,0,1-1.45-.7,7.635,7.635,0,0,1-1.267-.966,5.586,5.586,0,0,1-1-1.266,6.375,6.375,0,0,1-.65-1.617,7.108,7.108,0,0,1-.2-2,5.814,5.814,0,0,1,.183-1.449,7.823,7.823,0,0,1,.517-1.417,7.045,7.045,0,0,1,.815-1.316,9.879,9.879,0,0,1,1.083-1.167,8.673,8.673,0,0,1,1.3-.982,9.253,9.253,0,0,1,1.517-.751,10.819,10.819,0,0,1,1.7-.5,8.94,8.94,0,0,1,1.817-.183,6.159,6.159,0,0,1,1.1.033,11.007,11.007,0,0,1,1.149.2,7.258,7.258,0,0,1,1.15.366,8.05,8.05,0,0,1,1.067.533,5.728,5.728,0,0,1,.934.7,4.264,4.264,0,0,1,.733.884,4.15,4.15,0,0,1,.467,1.083,4.836,4.836,0,0,1,.167,1.3,6.771,6.771,0,0,1-.1,1.15,6.033,6.033,0,0,1-.3,1.116,5.148,5.148,0,0,1-.516,1.016,5.759,5.759,0,0,1-.75.916,5.416,5.416,0,0,1-.966.767,6.562,6.562,0,0,1-1.217.584,9.414,9.414,0,0,1-1.5.4,9.991,9.991,0,0,1-1.784.149,1.76,1.76,0,0,1-.433-.05c-.133-.033-.272-.071-.417-.116s-.283-.089-.416-.134-.279-.088-.434-.133c.267,0,.533.006.8.017a5.792,5.792,0,0,0,.766-.017,13.136,13.136,0,0,0,2.983-.583,6.105,6.105,0,0,0,1.982-1.067,4.084,4.084,0,0,0,1.134-1.5,6.245,6.245,0,0,0,.466-1.883,3.573,3.573,0,0,0-.033-1.1,3.142,3.142,0,0,0-.333-.916,2.874,2.874,0,0,0-.583-.733,4.954,4.954,0,0,0-.766-.567,5.051,5.051,0,0,0-.883-.416c-.312-.111-.622-.2-.933-.283a6.952,6.952,0,0,0-.949-.167q-.484-.048-.917-.083a9.176,9.176,0,0,0-1.649.15,9.557,9.557,0,0,0-1.584.433,10.527,10.527,0,0,0-1.482.683,8.479,8.479,0,0,0-1.334.917,8.571,8.571,0,0,0-1.1,1.1,8.429,8.429,0,0,0-.85,1.233,5.7,5.7,0,0,0-.55,1.334,5.293,5.293,0,0,0-.183,1.382,5.729,5.729,0,0,0,.217,1.633,4.645,4.645,0,0,0,.6,1.3,4.959,4.959,0,0,0,.916,1.017,6.721,6.721,0,0,0,1.15.783,8.157,8.157,0,0,0,1.316.567,10.554,10.554,0,0,0,1.417.367q.715.133,1.433.2t1.383.066a16.783,16.783,0,0,0,3.166-.3,18.028,18.028,0,0,0,3.083-.883,17.336,17.336,0,0,0,2.916-1.45,18.86,18.86,0,0,0,2.633-1.967,11.037,11.037,0,0,1-1.666-1.516,11.969,11.969,0,0,1-1.416-1.917,9.37,9.37,0,0,1-.95-2.149,5.839,5.839,0,0,1-.234-2.216,9.256,9.256,0,0,1,.117-.95,8.9,8.9,0,0,1,.216-.95,5.163,5.163,0,0,1,.35-.9,4.316,4.316,0,0,1,.517-.8,5.171,5.171,0,0,1,.7-.7,4.149,4.149,0,0,1,.9-.567,5.294,5.294,0,0,1,1.117-.366,6.423,6.423,0,0,1,1.349-.134,5.208,5.208,0,0,1,1.083.117,7.477,7.477,0,0,1,1.083.316,7.646,7.646,0,0,1,1.067.5,10.625,10.625,0,0,1,1.017.65q.482.348.916.733a7.633,7.633,0,0,1,.783.8,5.923,5.923,0,0,1,.6.849,7.393,7.393,0,0,1,.417.833q.766-.832,1.566-1.666t1.633-1.666q.832-.832,1.7-1.633t1.783-1.566q.915-.766,1.882-1.482t1.983-1.333q1.016-.617,2.083-1.133A21.277,21.277,0,0,1,2522.6,1821.8Zm-15.23,11.831a6.949,6.949,0,0,0-.983-1.633,7.618,7.618,0,0,0-1.35-1.317,6.752,6.752,0,0,0-1.583-.883,4.684,4.684,0,0,0-1.716-.333,4.54,4.54,0,0,0-1.033.117,4.948,4.948,0,0,0-.967.333,3.975,3.975,0,0,0-.866.549,6.366,6.366,0,0,0-.733.717,5.664,5.664,0,0,0-.6.833,6.048,6.048,0,0,0-.45.933,5.177,5.177,0,0,0-.266.984,4.3,4.3,0,0,0-.05,1,7.871,7.871,0,0,0,.266,1.766,8.028,8.028,0,0,0,.667,1.683,7.48,7.48,0,0,0,1.083,1.533,8.734,8.734,0,0,0,1.516,1.316q.966-.967,1.849-1.916t1.75-1.9q.866-.948,1.733-1.882T2507.366,1833.629Zm.333.5-6.965,7.365q.8.533,1.566.949a12.058,12.058,0,0,0,1.516.7,11.686,11.686,0,0,0,1.55.467q.8.184,1.7.317l.733-2.266a10.6,10.6,0,0,0,.4-2.05,14.229,14.229,0,0,0,.05-2.049,14.041,14.041,0,0,0-.217-1.884Q2507.864,1834.8,2507.7,1834.129Zm.367-.434c.044.156.1.339.167.551a5.463,5.463,0,0,1,.167.716q.066.4.149.866c.056.312.1.633.133.966s.056.672.067,1.016.011.7,0,1.066-.039.729-.083,1.084-.1.7-.167,1.033q1.166-2.366,2.516-4.749t2.85-4.666q1.5-2.282,3.183-4.366a45.23,45.23,0,0,1,3.482-3.849,21.626,21.626,0,0,0-3.166,1.766,35.871,35.871,0,0,0-3.182,2.4q-1.584,1.334-3.132,2.9T2508.066,1833.7Z" transform="translate(-2478.701 -1821.798)"/><path class="b" d="M2540.092,1851.008a4.419,4.419,0,0,1-.333.434c-.133.155-.279.316-.433.483l-.483.516a5.7,5.7,0,0,1-.533.5q-.284.233-.584.433a4.956,4.956,0,0,1-.616.351,2.838,2.838,0,0,1-.65.216,3.254,3.254,0,0,1-.634.067,1.747,1.747,0,0,1-1.483-.9,5.136,5.136,0,0,1-.517-2.433,3.737,3.737,0,0,1,.1-.833c.067-.288.122-.577.167-.866l-.2.267a1.186,1.186,0,0,1-.234.233.622.622,0,0,1-.117.083.706.706,0,0,0-.116.084.4.4,0,0,1-.167-.05c-.066-.034-.087-.062-.066-.084a7.49,7.49,0,0,1,.5-.783,6.951,6.951,0,0,1,.734-.85q.431-.432.932-.866t1.049-.851a13.156,13.156,0,0,1,2.284-1.382,6.9,6.9,0,0,1,1.116-.417,4,4,0,0,1,1.05-.15,1.588,1.588,0,0,1,.616.133,2.431,2.431,0,0,1,.583.35,1.777,1.777,0,0,1,.433.517,1.349,1.349,0,0,1,.167.666,2.452,2.452,0,0,1-.033.4,2.4,2.4,0,0,0-.033.4l1.533-2.4h1.666q-.5.9-1.033,1.849t-1.066,1.917q-.533.968-1.083,1.932t-1.1,1.916q-.551.951-1.067,1.85t-.984,1.766l-.9,1.666q-.432.8-.8,1.5.5-.667,1.1-1.416t1.233-1.55q.632-.8,1.3-1.566t1.283-1.5q.616-.733,1.183-1.366c.379-.422.705-.788.984-1.1s.5-.561.684-.75l.3-.317a.915.915,0,0,0,.117-.066.114.114,0,0,1,.117,0c.022,0,.044.017.067.05s.021.062,0,.084l-.549.683q-.417.517-1.05,1.283t-1.433,1.717q-.8.948-1.666,2t-1.767,2.183q-.9,1.132-1.749,2.266t-1.6,2.216q-.751,1.082-1.283,2.016h-1.933q1.733-3.133,3.483-6.265T2540.092,1851.008Zm.867-6.2a2.361,2.361,0,0,0-1.066.266,5.408,5.408,0,0,0-1.033.683,7.424,7.424,0,0,0-.967.983,13.053,13.053,0,0,0-.867,1.184q-.4.616-.733,1.249a11.739,11.739,0,0,0-.567,1.233,7.718,7.718,0,0,0-.35,1.133,4.292,4.292,0,0,0-.116.9.755.755,0,0,0,.016.35,1.146,1.146,0,0,0,.151.333.809.809,0,0,0,.266.25.7.7,0,0,0,.366.1,2.086,2.086,0,0,0,.867-.216,4.467,4.467,0,0,0,.949-.617q.483-.4,1-.916a12.19,12.19,0,0,0,.984-1.117q.467-.6.883-1.233a11.074,11.074,0,0,0,.717-1.249,9.152,9.152,0,0,0,.483-1.184,3.36,3.36,0,0,0,.183-1.033,1.032,1.032,0,0,0-.1-.466,1.2,1.2,0,0,0-.267-.351,1.311,1.311,0,0,0-.367-.232A.812.812,0,0,0,2540.958,1844.81Z" transform="translate(-2496.697 -1829.213)"/><path class="b" d="M2559.428,1844.307a2.439,2.439,0,0,1,.833.133,1.76,1.76,0,0,1,.6.349,1.392,1.392,0,0,1,.35.517,1.648,1.648,0,0,1,.117.6,2.155,2.155,0,0,1-.184.883,3.409,3.409,0,0,1-.5.8,5.708,5.708,0,0,1-.733.734,6.627,6.627,0,0,1-.933.65q-.518.3-1.067.55t-1.133.466q-.584.218-1.168.384t-1.115.267c-.045.266-.089.511-.134.733a2.236,2.236,0,0,0-.034.667,1.893,1.893,0,0,0,.117.717,1.455,1.455,0,0,0,.317.482,1.13,1.13,0,0,0,.45.283,1.511,1.511,0,0,0,.483.084,2.682,2.682,0,0,0,.7-.1,3.416,3.416,0,0,0,.733-.3c.244-.134.5-.288.767-.467a9.425,9.425,0,0,0,.782-.583c.255-.211.511-.434.767-.667s.5-.472.733-.717l.7-.734q.35-.366.649-.733l.15-.149a.293.293,0,0,1,.217-.084c.021,0,.055.022.1.066a.11.11,0,0,1,.033.134,1.9,1.9,0,0,1-.217.366,5.875,5.875,0,0,1-.5.616q-.318.351-.717.784t-.883.867q-.484.434-1,.833a8.05,8.05,0,0,1-1.066.7,6.019,6.019,0,0,1-1.084.466,3.554,3.554,0,0,1-1.066.167,2.5,2.5,0,0,1-1.133-.266,2.694,2.694,0,0,1-.916-.75,3.628,3.628,0,0,1-.6-1.133,4.547,4.547,0,0,1-.217-1.449,4.36,4.36,0,0,1,.067-.751q.067-.381.167-.749a2.234,2.234,0,0,0-.25.3,1.153,1.153,0,0,1-.25.266.5.5,0,0,1-.133.1.29.29,0,0,1-.133.034.282.282,0,0,1-.116-.116c-.034-.056-.039-.094-.017-.117q.133-.2.366-.533a8.9,8.9,0,0,1,.583-.733q.349-.4.8-.85t.949-.883a12.332,12.332,0,0,1,1.083-.833,10.1,10.1,0,0,1,1.183-.7,6.443,6.443,0,0,1,1.233-.466A4.1,4.1,0,0,1,2559.428,1844.307Zm.133.4a1.875,1.875,0,0,0-.75.167,4,4,0,0,0-.766.45,6.654,6.654,0,0,0-.75.65q-.367.367-.716.783a8.492,8.492,0,0,0-.65.883q-.3.468-.549.9a8.85,8.85,0,0,0-.434.849,6.658,6.658,0,0,0-.282.751,7.513,7.513,0,0,0,.983-.267,8.85,8.85,0,0,0,.966-.4,7.69,7.69,0,0,0,.933-.533,9.9,9.9,0,0,0,.85-.634,7.1,7.1,0,0,0,.733-.7,5.386,5.386,0,0,0,.567-.733,4.079,4.079,0,0,0,.367-.717,1.924,1.924,0,0,0,.133-.683.828.828,0,0,0-.05-.3.8.8,0,0,0-.133-.234.674.674,0,0,0-.217-.167A.54.54,0,0,0,2559.561,1844.707Z" transform="translate(-2502.936 -1829.244)"/><path class="b" d="M2573.821,1844.307a2.44,2.44,0,0,1,.833.133,1.767,1.767,0,0,1,.6.349,1.394,1.394,0,0,1,.35.517,1.653,1.653,0,0,1,.117.6,2.174,2.174,0,0,1-.183.883,3.426,3.426,0,0,1-.5.8,5.772,5.772,0,0,1-.733.734,6.6,6.6,0,0,1-.934.65q-.517.3-1.066.55t-1.133.466q-.584.218-1.167.384t-1.116.267c-.044.266-.089.511-.133.733a2.212,2.212,0,0,0-.034.667,1.889,1.889,0,0,0,.117.717,1.437,1.437,0,0,0,.317.482,1.13,1.13,0,0,0,.449.283,1.516,1.516,0,0,0,.484.084,2.684,2.684,0,0,0,.7-.1,3.441,3.441,0,0,0,.733-.3c.244-.134.5-.288.766-.467a9.272,9.272,0,0,0,.783-.583c.256-.211.511-.434.767-.667s.5-.472.733-.717.467-.489.7-.734.45-.488.65-.733l.149-.149a.3.3,0,0,1,.218-.084c.021,0,.055.022.1.066a.11.11,0,0,1,.033.134,1.916,1.916,0,0,1-.217.366,6,6,0,0,1-.5.616q-.318.351-.717.784c-.266.289-.562.579-.883.867s-.656.567-1,.833a8.057,8.057,0,0,1-1.067.7,6.043,6.043,0,0,1-1.083.466,3.56,3.56,0,0,1-1.067.167,2.5,2.5,0,0,1-1.133-.266,2.7,2.7,0,0,1-.916-.75,3.633,3.633,0,0,1-.6-1.133,4.533,4.533,0,0,1-.217-1.449,4.289,4.289,0,0,1,.067-.751q.066-.381.167-.749a2.234,2.234,0,0,0-.25.3,1.18,1.18,0,0,1-.25.266.506.506,0,0,1-.134.1.153.153,0,0,1-.25-.083c-.034-.056-.038-.094-.017-.117.089-.134.211-.311.367-.533a8.643,8.643,0,0,1,.583-.733q.348-.4.8-.85t.949-.883a12.324,12.324,0,0,1,1.083-.833,10.069,10.069,0,0,1,1.184-.7,6.425,6.425,0,0,1,1.233-.466A4.1,4.1,0,0,1,2573.821,1844.307Zm.133.4a1.876,1.876,0,0,0-.75.167,4,4,0,0,0-.765.45,6.654,6.654,0,0,0-.75.65q-.368.367-.717.783a8.451,8.451,0,0,0-.65.883c-.2.312-.384.612-.55.9a8.731,8.731,0,0,0-.434.849,6.622,6.622,0,0,0-.283.751,7.537,7.537,0,0,0,.983-.267,8.843,8.843,0,0,0,.966-.4,7.678,7.678,0,0,0,.933-.533,9.819,9.819,0,0,0,.85-.634,7.109,7.109,0,0,0,.733-.7,5.443,5.443,0,0,0,.567-.733,4.058,4.058,0,0,0,.366-.717,1.93,1.93,0,0,0,.134-.683.839.839,0,0,0-.051-.3.79.79,0,0,0-.133-.234.669.669,0,0,0-.216-.167A.54.54,0,0,0,2573.955,1844.707Z" transform="translate(-2507.698 -1829.244)"/><path class="b" d="M2582.362,1847.455a.434.434,0,0,0,.067.217.626.626,0,0,0,.183.2,1.115,1.115,0,0,0,.25.133.685.685,0,0,0,.234.049.92.92,0,0,0,.4-.116,5.057,5.057,0,0,0,.533-.317q.3-.2.65-.466c.234-.178.472-.378.717-.6s.5-.45.767-.682.521-.472.766-.717.483-.488.717-.733.449-.467.649-.667a.329.329,0,0,1,.167-.133.656.656,0,0,1,.2-.033.148.148,0,0,1,.067.017.915.915,0,0,1,.083.05.181.181,0,0,1,.067.067.055.055,0,0,1-.016.066,8.323,8.323,0,0,0-.734.684l-.733.765-.75.784q-.384.4-.767.767t-.75.683q-.367.317-.716.566a2.753,2.753,0,0,1-.683.367,1.933,1.933,0,0,1-.633.116,1.9,1.9,0,0,1-.884-.183,1.6,1.6,0,0,1-.565-.484,1.786,1.786,0,0,1-.3-.683,3.35,3.35,0,0,1-.083-.716,3.3,3.3,0,0,1,.282-1.25,12.906,12.906,0,0,1,.7-1.417q.415-.732.867-1.466t.783-1.4q-.668.733-1.284,1.5t-1.316,1.5c-.045.046-.094.1-.15.167a.237.237,0,0,1-.183.1c-.021,0-.044-.021-.066-.067a1.243,1.243,0,0,1-.067-.167,1.55,1.55,0,0,1-.049-.183c-.012-.055-.006-.083.016-.083q1.767-1.832,3.266-3.716t2.883-3.882q1.383-2,2.716-4.132t2.733-4.432h2.033q-.766,1.267-1.683,2.733t-1.917,3.033q-1,1.567-2.033,3.132t-1.983,3.05q-.949,1.484-1.765,2.816t-1.434,2.383a19.812,19.812,0,0,0-.949,1.783A2.363,2.363,0,0,0,2582.362,1847.455Z" transform="translate(-2512.473 -1823.693)"/></g><path class="b" d="M2522.669,1861.371l-53.351,75.1-32.739,8.263,40.673-2.632,47.817-67.31,23.444,16.035v-11.787Z" transform="translate(4282.104 -883.062)"/><rect class="b" width="10.791" height="10.791" transform="translate(6798.594 1019.992)"/><rect class="b" width="10.791" height="10.791" transform="translate(6813.758 1019.992)"/><rect class="b" width="10.791" height="10.791" transform="translate(6798.594 1035.891)"/><rect class="b" width="10.791" height="10.791" transform="translate(6813.758 1035.891)"/></g></svg>