<svg xmlns="http://www.w3.org/2000/svg" width="306" height="216" viewBox="0 0 306 216"><defs><style>.a{fill:#f7f7f7;}.b{fill:#be1e2d;}.c{fill:#006838;}</style></defs><g transform="translate(-4031 -893)"><rect class="a" width="306" height="216" transform="translate(4031 893)"/><g transform="translate(4143.447 962.411)"><path class="b" d="M1624.082,1223.909v8.584h-16.739l-16.274-15.075h-10.774l-22.736,19.89,1.895,1.675,3.157-1.675.067,18.424h12.565l-.211-16.182,9.978.118.127,16.064h48l.421-18.215,3.579,2.3,2.105-2.722Zm-24.474,23.051h-6.731v-6.694h6.731Zm12.682,0h-6.731v-6.694h6.731Zm11.986,0h-6.731v-6.694h6.731Z" transform="translate(-1557.558 -1195.72)"/><path class="b" d="M1632.255,1200.645v-12.429h-5.8v6.511l-6.843-6.806-19.683,15.684,1.979,2.812,2.6-1.9-.187,2.8,14.992,14.335h12.051v-16.72l3.422,1.923,1.773-3.107Zm-10.928,7.49H1614.6v-6.694h6.731Z" transform="translate(-1568.59 -1187.92)"/></g><g transform="translate(4115 1027.421)"><path class="c" d="M1519.1,1287.152l1.184-10.146h4.147l1.169,10.146h-2.323l-.171-1.642h-1.482l-.143,1.642Zm2.708-3.261h1.113l-.542-5.162h-.114Z" transform="translate(-1519.096 -1276.485)"/><path class="c" d="M1528.461,1287.152v-10.146h2.452v8.422h2.522v1.725Z" transform="translate(-1521.534 -1276.485)"/><path class="c" d="M1535.514,1286.32v-1.335h3.592v1.335Z" transform="translate(-1523.371 -1278.595)"/><path class="c" d="M1541.256,1287.152v-10.146h4.9v1.972h-2.437v1.619h2.309v1.948h-2.309v4.607Z" transform="translate(-1524.866 -1276.485)"/><path class="c" d="M1548.623,1287.083a3.4,3.4,0,0,1-.449-1.907,3.105,3.105,0,0,1,.32-1.56,1.924,1.924,0,0,1,.891-.8,12.338,12.338,0,0,1,1.739-.561l.684-.189v-.886a.761.761,0,0,0-.164-.526.509.509,0,0,0-.392-.183.473.473,0,0,0-.349.154.566.566,0,0,0-.149.413v.52h-2.423v-.284a2.134,2.134,0,0,1,.72-1.819,3.947,3.947,0,0,1,2.344-.544,3.636,3.636,0,0,1,2.109.562,1.817,1.817,0,0,1,.812,1.588v6.592h-2.48v-1.028a1.658,1.658,0,0,1-.591.827,1.589,1.589,0,0,1-.962.3A1.857,1.857,0,0,1,1548.623,1287.083Zm3.05-1.134a.889.889,0,0,0,.121-.478v-2.41a1.965,1.965,0,0,0-.82.449,1.042,1.042,0,0,0-.263.756v1.11q0,.768.556.768A.442.442,0,0,0,1551.673,1285.95Z" transform="translate(-1526.667 -1276.99)"/><path class="c" d="M1558.049,1286.9a1.434,1.434,0,0,1-.371-1.1v-5.4h-.7v-1.572h.7v-1.83h2.423v1.83h.713v1.572h-.713v4.854a.955.955,0,0,0,.043.331c.029.071.1.106.228.106.1,0,.186,0,.271-.012s.143-.011.171-.011v1.417c-.143.032-.349.064-.62.1a6.118,6.118,0,0,1-.792.054A2.02,2.02,0,0,1,1558.049,1286.9Z" transform="translate(-1528.96 -1276.485)"/><path class="c" d="M1563.382,1287.018a3.054,3.054,0,0,1-.7-2.185v-3.474a2.143,2.143,0,0,1,.827-1.819,3.753,3.753,0,0,1,2.309-.626q3.008,0,3.008,2.445v.627c0,.63-.01,1.142-.029,1.536h-3.621v1.677a1.753,1.753,0,0,0,.114.7.474.474,0,0,0,.484.255.51.51,0,0,0,.407-.143.6.6,0,0,0,.142-.324,5.1,5.1,0,0,0,.021-.538v-.839h2.481v.5a3.064,3.064,0,0,1-.706,2.227,3.348,3.348,0,0,1-2.43.715A3.08,3.08,0,0,1,1563.382,1287.018Zm2.964-4.524v-1.111q0-.932-.556-.933c-.417,0-.627.311-.627.933v1.111Z" transform="translate(-1530.445 -1276.99)"/><path class="c" d="M1571.78,1276.924h2.565v2.41a1.5,1.5,0,0,1,1.525-.945,2.133,2.133,0,0,1,1.6.555,2.091,2.091,0,0,1,.542,1.524v6.662h-2.495V1280.6a.674.674,0,0,0-.156-.461.58.58,0,0,0-.457-.177.5.5,0,0,0-.405.182.679.679,0,0,0-.15.443v6.544h-2.565Z" transform="translate(-1532.813 -1276.464)"/><path class="c" d="M1585.23,1287.152v-10.146h4.9v1.96h-2.409v1.972h2.309v1.914h-2.309v2.327h2.566v1.973Z" transform="translate(-1536.315 -1276.485)"/><path class="c" d="M1592.378,1285.152l.015-.685h2.494l.014,1.016a.676.676,0,0,0,.143.466.6.6,0,0,0,.47.16c.332,0,.5-.225.5-.673a1.183,1.183,0,0,0-.235-.78,3.1,3.1,0,0,0-.749-.6l-1.325-.85a3.177,3.177,0,0,1-.983-.9,2.436,2.436,0,0,1-.3-1.318,1.626,1.626,0,0,1,.42-1.128,2.6,2.6,0,0,1,1.119-.7,4.833,4.833,0,0,1,1.554-.236q3.035,0,3.036,2.5v.166h-2.579v-.331a1.078,1.078,0,0,0-.121-.525.428.428,0,0,0-.407-.219.557.557,0,0,0-.391.124.431.431,0,0,0-.136.337.809.809,0,0,0,.442.732l1.539.933a4.457,4.457,0,0,1,1.268,1.1,2.464,2.464,0,0,1,.442,1.506,2.223,2.223,0,0,1-.826,1.855,3.651,3.651,0,0,1-2.309.65Q1592.378,1287.752,1592.378,1285.152Z" transform="translate(-1538.177 -1276.99)"/><path class="c" d="M1602.119,1286.9a1.432,1.432,0,0,1-.371-1.1v-5.4h-.7v-1.572h.7v-1.83h2.423v1.83h.713v1.572h-.713v4.854a.959.959,0,0,0,.042.331c.03.071.105.106.229.106.095,0,.186,0,.271-.012s.143-.011.172-.011v1.417c-.143.032-.35.064-.621.1a6.1,6.1,0,0,1-.791.054A2.022,2.022,0,0,1,1602.119,1286.9Z" transform="translate(-1540.434 -1276.485)"/><path class="c" d="M1607.029,1287.083a3.405,3.405,0,0,1-.449-1.907,3.1,3.1,0,0,1,.321-1.56,1.922,1.922,0,0,1,.89-.8,12.324,12.324,0,0,1,1.739-.561l.683-.189v-.886a.765.765,0,0,0-.163-.526.51.51,0,0,0-.392-.183.477.477,0,0,0-.35.154.566.566,0,0,0-.149.413v.52h-2.423v-.284a2.137,2.137,0,0,1,.72-1.819,3.948,3.948,0,0,1,2.345-.544,3.635,3.635,0,0,1,2.109.562,1.815,1.815,0,0,1,.812,1.588v6.592h-2.479v-1.028a1.66,1.66,0,0,1-.592.827,1.587,1.587,0,0,1-.962.3A1.858,1.858,0,0,1,1607.029,1287.083Zm3.05-1.134a.888.888,0,0,0,.121-.478v-2.41a1.962,1.962,0,0,0-.82.449,1.039,1.039,0,0,0-.264.756v1.11q0,.768.556.768A.439.439,0,0,0,1610.079,1285.95Z" transform="translate(-1541.875 -1276.99)"/><path class="c" d="M1616.456,1286.9a1.432,1.432,0,0,1-.37-1.1v-5.4h-.7v-1.572h.7v-1.83h2.423v1.83h.713v1.572h-.713v4.854a.962.962,0,0,0,.042.331q.043.106.229.106c.095,0,.186,0,.271-.012s.143-.011.172-.011v1.417c-.144.032-.35.064-.62.1a6.1,6.1,0,0,1-.792.054A2.021,2.021,0,0,1,1616.456,1286.9Z" transform="translate(-1544.167 -1276.485)"/><path class="c" d="M1621.789,1287.018a3.054,3.054,0,0,1-.7-2.185v-3.474a2.143,2.143,0,0,1,.827-1.819,3.752,3.752,0,0,1,2.308-.626q3.008,0,3.008,2.445v.627q0,.945-.028,1.536h-3.621v1.677a1.754,1.754,0,0,0,.115.7.474.474,0,0,0,.484.255.511.511,0,0,0,.407-.143.606.606,0,0,0,.142-.324,4.877,4.877,0,0,0,.021-.538v-.839h2.48v.5a3.067,3.067,0,0,1-.706,2.227,3.35,3.35,0,0,1-2.43.715A3.079,3.079,0,0,1,1621.789,1287.018Zm2.964-4.524v-1.111q0-.932-.556-.933-.627,0-.626.933v1.111Z" transform="translate(-1545.652 -1276.99)"/><path class="c" d="M1634.494,1286.989a2.465,2.465,0,0,1-.571-1.689,3.758,3.758,0,0,1,.4-1.86,3.556,3.556,0,0,1,1.254-1.235,3.916,3.916,0,0,1-.7-1.96,1.579,1.579,0,0,1,.677-1.353,2.908,2.908,0,0,1,1.746-.491,2.985,2.985,0,0,1,1.731.467,1.5,1.5,0,0,1,.677,1.3,2.929,2.929,0,0,1-1.638,2.3l.441.863a3.019,3.019,0,0,1,1.2-1.359l.97,1.253a3.81,3.81,0,0,0-1.369,1.795l1.24,2.493h-2.365l-.257-.555a2.314,2.314,0,0,1-.762.484,2.63,2.63,0,0,1-1.005.189A2.1,2.1,0,0,1,1634.494,1286.989Zm2.508-1a.8.8,0,0,0,.242-.4l-.84-1.677-.086.107a1.142,1.142,0,0,0-.186.448,2.674,2.674,0,0,0-.071.6v.06a2.641,2.641,0,0,0,.086.744.375.375,0,0,0,.4.284A.648.648,0,0,0,1637,1285.991Zm.555-4.98a1.16,1.16,0,0,0,.256-.372,1.087,1.087,0,0,0,.114-.466q0-.354-.413-.354a.366.366,0,0,0-.272.1.348.348,0,0,0-.1.254,2.557,2.557,0,0,0,.3.945Z" transform="translate(-1548.994 -1276.854)"/><path class="c" d="M1647.721,1277.005h3.321a2.872,2.872,0,0,1,1.945.543,2.277,2.277,0,0,1,.606,1.772v.449a1.558,1.558,0,0,1-1.255,1.736,1.493,1.493,0,0,1,1.084.768,3.468,3.468,0,0,1,.313,1.594,4.265,4.265,0,0,1-.584,2.451,2.406,2.406,0,0,1-2.109.833h-3.321Zm2.894,3.815a.454.454,0,0,0,.427-.194,1.1,1.1,0,0,0,.114-.549v-1.016c0-.332-.176-.5-.527-.5h-.513v2.256Zm.7,3.793v-1.264a1.225,1.225,0,0,0-.163-.7.656.656,0,0,0-.578-.237h-.456v2.942l.242.012Q1651.313,1285.368,1651.313,1284.613Z" transform="translate(-1552.586 -1276.485)"/><path class="c" d="M1656.866,1287.206a2.849,2.849,0,0,1-.435-1.724v-6.438h2.509v6.468a.744.744,0,0,0,.135.507.543.543,0,0,0,.421.148.457.457,0,0,0,.485-.266,2.261,2.261,0,0,0,.1-.762v-.071l.013-6.024h2.481v8.647h-2.494v-.922a1.908,1.908,0,0,1-.6.78,1.786,1.786,0,0,1-1.012.237A1.894,1.894,0,0,1,1656.866,1287.206Z" transform="translate(-1554.854 -1277.024)"/><path class="c" d="M1665.642,1277.739V1276.3h2.494v1.441Zm0,9.226v-8.647h2.494v8.647Z" transform="translate(-1557.252 -1276.298)"/><path class="c" d="M1669.92,1287.13v-10.206h2.537v10.206Z" transform="translate(-1558.366 -1276.464)"/><path class="c" d="M1674.922,1286.864a1.694,1.694,0,0,1-.613-.956,6.456,6.456,0,0,1-.149-1.53l.029-3.9a2.084,2.084,0,0,1,.562-1.507,2.107,2.107,0,0,1,1.59-.585,1.93,1.93,0,0,1,1.511.555v-2.02h2.494v10.206h-2.494v-.922a1.706,1.706,0,0,1-.578.762,1.676,1.676,0,0,1-.976.254A2.21,2.21,0,0,1,1674.922,1286.864Zm2.814-1.559a2.33,2.33,0,0,0,.115-.808v-3.615a1.43,1.43,0,0,0-.129-.638.464.464,0,0,0-.456-.26.5.5,0,0,0-.492.243,1.473,1.473,0,0,0-.121.655v3.638q0,1.087.6,1.087A.463.463,0,0,0,1677.736,1285.3Z" transform="translate(-1559.47 -1276.464)"/><path class="c" d="M1684.03,1287.018a3.054,3.054,0,0,1-.7-2.185v-3.474a2.142,2.142,0,0,1,.828-1.819,3.753,3.753,0,0,1,2.309-.626q3.008,0,3.007,2.445v.627q0,.945-.028,1.536h-3.621v1.677a1.75,1.75,0,0,0,.115.7.474.474,0,0,0,.484.255.511.511,0,0,0,.407-.143.6.6,0,0,0,.142-.324,4.833,4.833,0,0,0,.022-.538v-.839h2.479v.5a3.064,3.064,0,0,1-.706,2.227,3.349,3.349,0,0,1-2.43.715A3.082,3.082,0,0,1,1684.03,1287.018Zm2.965-4.524v-1.111q0-.932-.556-.933-.628,0-.627.933v1.111Z" transform="translate(-1561.858 -1276.99)"/><path class="c" d="M1692.427,1279.006h2.494v.957a1.485,1.485,0,0,1,.649-.786,2.2,2.2,0,0,1,1.147-.277v1.725a6.047,6.047,0,0,0-1.161.124c-.424.083-.635.179-.635.289v6.615h-2.494Z" transform="translate(-1564.227 -1276.986)"/><path class="c" d="M1698.324,1285.152l.014-.685h2.494l.015,1.016a.675.675,0,0,0,.142.466.6.6,0,0,0,.47.16c.332,0,.5-.225.5-.673a1.184,1.184,0,0,0-.236-.78,3.114,3.114,0,0,0-.748-.6l-1.325-.85a3.174,3.174,0,0,1-.984-.9,2.435,2.435,0,0,1-.3-1.318,1.627,1.627,0,0,1,.421-1.128,2.588,2.588,0,0,1,1.118-.7,4.83,4.83,0,0,1,1.554-.236q3.035,0,3.035,2.5v.166h-2.579v-.331a1.076,1.076,0,0,0-.121-.525.427.427,0,0,0-.407-.219.558.558,0,0,0-.391.124.433.433,0,0,0-.136.337.808.808,0,0,0,.442.732l1.539.933a4.458,4.458,0,0,1,1.269,1.1,2.464,2.464,0,0,1,.442,1.506,2.223,2.223,0,0,1-.826,1.855,3.652,3.652,0,0,1-2.309.65Q1698.323,1287.752,1698.324,1285.152Z" transform="translate(-1565.762 -1276.99)"/></g></g></svg>