<svg xmlns="http://www.w3.org/2000/svg" width="306" height="216" viewBox="0 0 306 216"><defs><style>.a{fill:#f7f7f7;}.b{fill:#7f8a80;}.c{fill:#4b4c4e;}</style></defs><g transform="translate(-1451 -893)"><rect class="a" width="306" height="216" transform="translate(1451 893)"/><g transform="translate(1527.158 969.031)"><path class="b" d="M2572.866,501.8V483.669l4.259-3.6V501.8Z" transform="translate(-2431.556 -461.787)"/><path class="c" d="M2578.385,501.176V479.24l4.1,3.972v18.51h-4.1Z" transform="translate(-2432.053 -461.713)"/><path class="b" d="M2561.767,498.941l.242-34.476-7.863,6.334v20.749Z" transform="translate(-2429.872 -460.383)"/><path class="c" d="M2567.525,464.566l-.41.491,4.441,3.7v2.048l-4.031-3.358-.41.482,4.441,3.7v2.048l-4.031-3.358-.41.491,4.441,3.7v2.038l-4.031-3.358-.41.491,4.441,3.7v2.048l-4.031-3.358-.41.491,4.441,3.7v2.038l-4.031-3.358-.41.491,4.441,3.7v2.048l-4.031-3.358-.41.482,4.441,3.713v2.038l-4.031-3.358-.41.491,4.441,3.7v2.048l-4.031-3.358-.41.482,4.441,3.7v2.048l-4.031-3.358-.41.491,4.441,3.7v2.048l-4.031-3.367-.41.491,4.441,3.7V499.6l-4.031-3.358-.41.491,4.441,3.7-7.782.01V459.98l7.781,6.634v1.31Z" transform="translate(-2430.739 -459.98)"/><path class="c" d="M2546.466,483.685v-19.22l6.225,5.624v19.82Z" transform="translate(-2429.181 -460.383)"/><path class="b" d="M2538.906,476.424v-5.733l5.733-5v16.626Z" transform="translate(-2428.5 -460.494)"/><path class="c" d="M2575.15,500.755l2.894,2.139h-26.537l-32.215-34.108-18.019,19.438-4.368-4.259,22.387-23.67,37.566,40.46Z" transform="translate(-2424.722 -460.008)"/><path class="c" d="M4.314,0H4.86A4.314,4.314,0,0,1,9.173,4.314v0a0,0,0,0,1,0,0H0a0,0,0,0,1,0,0v0A4.314,4.314,0,0,1,4.314,0Z" transform="translate(90.748 21.827)"/><rect class="c" width="3.877" height="4.532" transform="translate(90.748 27.233)"/><rect class="c" width="3.877" height="4.532" transform="translate(96.045 27.233)"/><path class="c" d="M4.314,0H4.86A4.314,4.314,0,0,1,9.173,4.314v0a0,0,0,0,1,0,0H0a0,0,0,0,1,0,0v0A4.314,4.314,0,0,1,4.314,0Z" transform="translate(52.964 32.679)"/><rect class="c" width="3.877" height="4.532" transform="translate(52.964 38.084)"/><rect class="c" width="3.877" height="4.532" transform="translate(58.26 38.084)"/><path class="c" d="M2549.7,507.482h-42.589l-2.33-2.457h42.6Z" transform="translate(-2425.431 -464.033)"/><path class="c" d="M2476.119,471.485l-22.387,23.661-7.317,6.93h-26.209l-2.621,3.426H2449.8l7.317-6.853,18.323-19.12,21.5,22.478,2.33,2.457h7.481l-2.284-2.457Z" transform="translate(-2417.586 -461.015)"/><rect class="c" width="6.81" height="12.128" transform="translate(34.181 23.984)"/><rect class="c" width="9.719" height="2.621" transform="translate(32.434 20.79)"/></g><g transform="translate(1528.176 1018.178)"><path class="c" d="M2435.56,530.805c0,.144-.1.244-.3.3a13.823,13.823,0,0,1-2.231.1,15.231,15.231,0,0,1-2.208-.1.646.646,0,0,1-.515-.541,4.6,4.6,0,0,0-.636-1.846,26.266,26.266,0,0,0-3.215-.085,9.582,9.582,0,0,0-2.172.107,3.29,3.29,0,0,0-.455,1.284c-.153.664-.336,1.024-.553,1.08a20.24,20.24,0,0,1-2.735.1q-1.835,0-1.835-.348,0-.311,2.711-7.666,2.94-7.954,3.191-8.747.145-.454.336-.455.325,0,1,.06t1.014.059c.217,0,.534-.013.954-.042s.734-.041.942-.041c.152,0,.292.131.42.4q.589,1.259,3.433,8.638Q2435.56,530.483,2435.56,530.805Zm-8.505-10.929q-.252.528-.853,2.292a12.4,12.4,0,0,0-.647,2.2c0,.144.24.224.72.239q.371.025,1.223.025.792,0,.876-.192a.463.463,0,0,0,.024-.168,11.677,11.677,0,0,0-.552-2.183A17.146,17.146,0,0,0,2427.054,519.876Z" transform="translate(-2418.704 -513.985)"/><path class="c" d="M2446.4,524.153c0,.311-.173.468-.516.468-.153,0-.374-.01-.667-.03s-.51-.031-.654-.031a2.143,2.143,0,0,0-1.355.313,1.654,1.654,0,0,0-.36,1.26q0,.516.018,1.566c.012.7.017,1.221.017,1.564q0,.349.048,1.038t.048,1.026q0,.288-.4.324-.576.048-1.764.048a18.2,18.2,0,0,1-1.824-.072c-.263-.032-.4-.164-.4-.4q0-.958.012-2.873t.012-2.873a17.457,17.457,0,0,0-.516-4.643.846.846,0,0,1-.024-.18.235.235,0,0,1,.18-.24q.66-.071,1.931-.264,1.9-.371,1.956-.371c.144,0,.235.252.276.755s.111.755.216.755q-.168,0,.985-.629a4.614,4.614,0,0,1,2.219-.63q.672,0,.672.288a9.283,9.283,0,0,1-.072.984c-.047.456-.076.784-.083.984,0,.232,0,.54.011.924Q2446.4,523.925,2446.4,524.153Z" transform="translate(-2420.448 -514.507)"/><path class="c" d="M2460.909,527.222v1.705q0,.969.06,2.945t.061,2.945a.362.362,0,0,1-.372.4q-.516.046-1.716.047c-.216,0-.539.016-.972.048s-.756.048-.972.048c-.16,0-.24-.121-.24-.361q0-.707.013-2.129t.012-2.129c0-.112-.037-.168-.108-.168q.191,0-.972.654a4.587,4.587,0,0,1-2.244.653,4.783,4.783,0,0,1-3.886-1.859,6.386,6.386,0,0,1-1.417-4.162,6.816,6.816,0,0,1,1.369-4.344,4.83,4.83,0,0,1,4.006-1.872,3.746,3.746,0,0,1,2.928,1.1,1.077,1.077,0,0,0,.24.217.759.759,0,0,0,.121-.48v-.516q.034-.456.407-.456.984,0,2.219.12,1.728.156,1.728.42l-.024.275Q2460.909,523.54,2460.909,527.222Zm-4.2-1.571a2.6,2.6,0,0,0-.541-1.7,1.941,1.941,0,0,0-1.607-.72,1.854,1.854,0,0,0-1.535.732,2.642,2.642,0,0,0-.528,1.668,2.456,2.456,0,0,0,.587,1.679,2.045,2.045,0,0,0,1.608.709,1.814,1.814,0,0,0,1.523-.7A2.649,2.649,0,0,0,2456.71,525.652Z" transform="translate(-2421.353 -514.482)"/><path class="c" d="M2476.748,525.621q0,.924.107,2.748t.108,2.736q0,.479-.419.515-1.488.108-3.407.108c-.153,0-.254-.23-.307-.691s-.114-.693-.186-.7a1.1,1.1,0,0,0-.252.2,4.017,4.017,0,0,1-2.879,1.356,4.827,4.827,0,0,1-3.875-1.847,6.209,6.209,0,0,1-1.452-4.127,6.476,6.476,0,0,1,1.5-4.463,5.428,5.428,0,0,1,4.271-1.753,3.66,3.66,0,0,1,2.976,1.32c.032.04.06.06.084.06.073,0,.154-.194.246-.582s.2-.582.329-.582a10.5,10.5,0,0,1,1.693.252,17.221,17.221,0,0,1,1.7.408c.12.048.18.112.18.192a2.3,2.3,0,0,1-.036.252A26.387,26.387,0,0,0,2476.748,525.621Zm-3.863.072a2.331,2.331,0,0,0-.642-1.685A2.436,2.436,0,0,0,2468.9,524a2.484,2.484,0,0,0,.035,3.359,2.183,2.183,0,0,0,1.632.7,2.225,2.225,0,0,0,1.668-.665A2.333,2.333,0,0,0,2472.885,525.693Z" transform="translate(-2422.796 -514.5)"/><path class="c" d="M2499.772,531.176c0,.28-.119.436-.359.468s-.833.048-1.775.048a13.091,13.091,0,0,1-1.824-.072c-.24-.048-.361-.244-.361-.589q0-.55.036-1.649t.037-1.65q0-2.1-.048-2.988-.072-1.426-1.356-1.427a1.739,1.739,0,0,0-1.122.473,1.6,1.6,0,0,0-.619,1.05q-.048.5-.047,2.952,0,.564.036,1.709t.036,1.721q0,.4-.348.4h-3.635c-.225,0-.336-.164-.336-.492q0-.562.035-1.691t.036-1.7q0-.444-.024-1.343t-.025-1.356q0-1.714-1.307-1.715a2.089,2.089,0,0,0-1.14.408q-.673.444-.673.935,0,1.092.013,3.263t.013,3.252a.6.6,0,0,1-.073.372.672.672,0,0,1-.372.1q-.539.048-1.7.048-.755,0-1.715-.072a.632.632,0,0,1-.342-.084.679.679,0,0,1-.054-.36q0-.958.012-2.874t.012-2.873a38.466,38.466,0,0,0-.288-4.427,1.356,1.356,0,0,1-.024-.215.273.273,0,0,1,.167-.277,4.084,4.084,0,0,1,1-.18q.9-.083,1.068-.107.12-.025.948-.252a3.642,3.642,0,0,1,.948-.168c.152,0,.232.278.24.834s.04.834.1.834a1.275,1.275,0,0,0,.277-.168,11.383,11.383,0,0,1,1.7-1.152,4.566,4.566,0,0,1,2-.444,3.91,3.91,0,0,1,1.968.492,2.556,2.556,0,0,1,1.259,1.548,5.038,5.038,0,0,1,1.753-1.451,4.637,4.637,0,0,1,2.17-.589,4.251,4.251,0,0,1,2.58.733,2.759,2.759,0,0,1,1.127,2.364q0,.635-.036,1.913t-.036,1.914q0,.755.036,2.273T2499.772,531.176Z" transform="translate(-2424.261 -514.5)"/><path class="c" d="M2523.309,527.4a15.656,15.656,0,0,1-.2,1.895,7.282,7.282,0,0,1-.384,1.788.447.447,0,0,1-.4.228,2.773,2.773,0,0,1-.36-.036q-.876-.12-5.111-.12-.923,0-2.747-.011t-2.735-.013c-.265,0-.4-.116-.4-.349q0-1.342.151-4.036t.15-4.038q0-1.368-.145-5.1-.037-.961-.132-2.868l-.012-.167c-.017-.185.084-.276.3-.276q.888,0,2.67.048t2.668.047q.876,0,2.64-.047t2.639-.048q.624,0,.719.468.06.276.187,1.673t.126,1.7c0,.167-.081.251-.24.251-.047,0-.132,0-.252-.012q-3.192-.263-5.735-.265c-.424,0-.684.1-.779.3a3.715,3.715,0,0,0-.061.925,1.687,1.687,0,0,0,.24,1.079,1.032,1.032,0,0,0,.78.228c.079,0,.235-.006.468-.018s.424-.019.576-.019q1.511,0,3.058-.083l.661-.061a6.1,6.1,0,0,1,.648-.047c.192,0,.288.092.288.276a17.318,17.318,0,0,0-.216,1.836q-.1.961-.1,1.919c0,.161-.117.24-.347.24l-1.081-.119q-.683-.072-3.12-.073h-1.27c-.329,0-.521.081-.576.24-.009.041-.013.288-.013.744a3.514,3.514,0,0,0,.12,1.175q.2.457,1.536.541h1.752q.635,0,1.889-.114t1.877-.114C2523.221,526.971,2523.309,527.115,2523.309,527.4Z" transform="translate(-2427.006 -514.014)"/><path class="c" d="M2533.157,521.856a.569.569,0,0,1-.18.324,2.784,2.784,0,0,0-.672-.084,2.137,2.137,0,0,0-1.188.312,1.137,1.137,0,0,0-.576,1.019,1.8,1.8,0,0,0,.611,1.068,12.136,12.136,0,0,1,1.14,1.309,3.448,3.448,0,0,1,.612,1.955,3.925,3.925,0,0,1-.24,1.3,2.526,2.526,0,0,1-.7,1.1,8.285,8.285,0,0,1-2.076,1.3,6.033,6.033,0,0,1-2.362.552q-.242,0-1.075-1.3a5.334,5.334,0,0,1-.833-1.59c0-.073.043-.116.132-.132l1.692-.313q1.055-.334,1.056-1.1a1.993,1.993,0,0,0-.613-1.222q-1.092-1.212-1.139-1.285a3.1,3.1,0,0,1-.612-1.823,3.658,3.658,0,0,1,1.824-3.06,6.078,6.078,0,0,1,3.491-1.115q.192,0,.947,1.289A6.24,6.24,0,0,1,2533.157,521.856Z" transform="translate(-2428.324 -514.442)"/><path class="c" d="M2543.75,527.744a9.916,9.916,0,0,1-.09,1.092,9.811,9.811,0,0,0-.09,1.074.85.85,0,0,1-.071.438,1.46,1.46,0,0,1-.4.276,6.989,6.989,0,0,1-3.431.852q-3.467,0-3.467-2.651,0-.792.059-2.382t.06-2.382q0-.528-.612-.528h-.156a1.488,1.488,0,0,1-.156.012q-.456,0-.456-.324c0-.128.01-.324.03-.588s.031-.46.031-.588c0-.168-.011-.424-.031-.768s-.03-.6-.03-.768.256-.248.768-.264c.288-.007.444-.087.468-.239a8.9,8.9,0,0,0,.047-1.44q-.048-1.548-.047-1.476,0-1.391.265-1.392a4.264,4.264,0,0,1,.923.145,8.556,8.556,0,0,0,.948.18q.612.083,1.847.228c.2.015.3.084.3.2q0,.48-.078,1.452t-.078,1.465c0,.391.117.587.348.587q.419,0,1.271-.036c.568-.023,1-.036,1.284-.036.175,0,.263.06.263.179a8.3,8.3,0,0,1-.059.828q-.06.553-.06.828c0,.192,0,.472.012.839s.012.649.012.841c0,.167-.115.252-.347.252q-.241,0-.8-.018c-.376-.013-.643-.018-.8-.018h-.9c-.121,0-.18.177-.18.528V525c.008.384.012.669.012.853a2.963,2.963,0,0,0,.229,1.391,1.387,1.387,0,0,0,1.271.515,3.852,3.852,0,0,0,.857-.137,3.8,3.8,0,0,1,.787-.137C2543.666,527.481,2543.75,527.568,2543.75,527.744Z" transform="translate(-2429.162 -514.139)"/><path class="c" d="M2558.012,525.621q0,.924.108,2.748t.108,2.736q0,.479-.42.515-1.489.108-3.407.108c-.153,0-.254-.23-.307-.691s-.114-.693-.186-.7a1.1,1.1,0,0,0-.252.2,4.019,4.019,0,0,1-2.879,1.356,4.827,4.827,0,0,1-3.875-1.847,6.2,6.2,0,0,1-1.452-4.127,6.474,6.474,0,0,1,1.5-4.463,5.426,5.426,0,0,1,4.271-1.753,3.657,3.657,0,0,1,2.975,1.32c.033.04.061.06.084.06q.109,0,.247-.582c.092-.388.2-.582.329-.582a10.5,10.5,0,0,1,1.692.252,17.115,17.115,0,0,1,1.7.408c.12.048.181.112.181.192a2.4,2.4,0,0,1-.036.252A26.316,26.316,0,0,0,2558.012,525.621Zm-3.863.072a2.335,2.335,0,0,0-.642-1.685,2.435,2.435,0,0,0-3.341-.005,2.484,2.484,0,0,0,.035,3.359,2.183,2.183,0,0,0,1.632.7,2.225,2.225,0,0,0,1.668-.665A2.337,2.337,0,0,0,2554.149,525.693Z" transform="translate(-2430.107 -514.5)"/><path class="c" d="M2569.826,527.744a10.044,10.044,0,0,1-.089,1.092,9.643,9.643,0,0,0-.091,1.074.837.837,0,0,1-.071.438,1.445,1.445,0,0,1-.4.276,6.987,6.987,0,0,1-3.431.852q-3.467,0-3.467-2.651,0-.792.06-2.382t.059-2.382q0-.528-.611-.528h-.157a1.475,1.475,0,0,1-.156.012q-.456,0-.456-.324c0-.128.01-.324.031-.588s.03-.46.03-.588c0-.168-.011-.424-.03-.768s-.031-.6-.031-.768.257-.248.768-.264q.432-.011.467-.239a8.841,8.841,0,0,0,.049-1.44q-.049-1.548-.049-1.476,0-1.391.265-1.392a4.26,4.26,0,0,1,.923.145,8.547,8.547,0,0,0,.948.18q.611.083,1.847.228c.2.015.3.084.3.2q0,.48-.078,1.452t-.078,1.465c0,.391.117.587.348.587q.419,0,1.272-.036c.568-.023,1-.036,1.284-.036.176,0,.263.06.263.179a8.243,8.243,0,0,1-.059.828c-.04.369-.059.644-.059.828s0,.472.011.839.012.649.012.841c0,.167-.116.252-.348.252q-.241,0-.8-.018c-.376-.013-.643-.018-.8-.018h-.9c-.121,0-.18.177-.18.528V525c.008.384.012.669.012.853a2.967,2.967,0,0,0,.228,1.391,1.388,1.388,0,0,0,1.271.515,3.867,3.867,0,0,0,.858-.137,3.787,3.787,0,0,1,.786-.137C2569.742,527.481,2569.826,527.568,2569.826,527.744Z" transform="translate(-2431.508 -514.139)"/><path class="c" d="M2583.02,525.079q0,1.211-.78,1.379-.132.024-2.483.264-1.417.157-4.222.373a1.7,1.7,0,0,0,1.019,1.187,3.6,3.6,0,0,0,1.583.336,4.541,4.541,0,0,0,2.148-.575l.912-.576a3.577,3.577,0,0,1,.845,1.224,4.508,4.508,0,0,1,.594,1.4q0,.085-.18.276a5.936,5.936,0,0,1-4.548,1.573,6.408,6.408,0,0,1-4.607-1.668,5.912,5.912,0,0,1-1.8-4.523,6.459,6.459,0,0,1,1.606-4.524,5.647,5.647,0,0,1,4.393-1.824,5.208,5.208,0,0,1,3.91,1.68A5.582,5.582,0,0,1,2583.02,525.079Zm-4.2-.733a1.859,1.859,0,0,0-.528-1.308,1.668,1.668,0,0,0-1.26-.564,1.514,1.514,0,0,0-1.248.637,2.182,2.182,0,0,0-.456,1.379c0,.217.112.324.336.324a21.083,21.083,0,0,0,2.759-.276Q2578.82,524.478,2578.821,524.346Z" transform="translate(-2432.452 -514.472)"/></g><g transform="translate(1554.075 1042.772)"><path class="c" d="M2451.159,548.348l-1.48-2.553h-1.362v2.553h-1.152v-7.007h2.8a2.238,2.238,0,0,1,2.252,2.252,2.094,2.094,0,0,1-.386,1.226,2.2,2.2,0,0,1-1.005.806l1.592,2.723Zm-2.843-5.926v2.341h1.652a1.031,1.031,0,0,0,.781-.339,1.239,1.239,0,0,0,0-1.662,1.029,1.029,0,0,0-.781-.34Z" transform="translate(-2447.164 -541.041)"/><path class="c" d="M2454.423,546.491a1.375,1.375,0,0,0,.551.876,1.77,1.77,0,0,0,1.05.3,1.465,1.465,0,0,0,1.291-.621l.892.521a2.48,2.48,0,0,1-2.192,1.091,2.672,2.672,0,0,1-1.972-.746,2.547,2.547,0,0,1-.752-1.886,2.577,2.577,0,0,1,.742-1.877,2.548,2.548,0,0,1,1.9-.755,2.342,2.342,0,0,1,1.806.771,2.672,2.672,0,0,1,.705,1.872,3.3,3.3,0,0,1-.04.45Zm-.01-.881h2.942a1.443,1.443,0,0,0-.5-.921,1.46,1.46,0,0,0-.926-.31,1.525,1.525,0,0,0-1,.33A1.489,1.489,0,0,0,2454.413,545.61Z" transform="translate(-2447.715 -541.226)"/><path class="c" d="M2463.959,543.528h1.082v5.005h-1.082v-.721a2.026,2.026,0,0,1-1.752.851,2.348,2.348,0,0,1-1.761-.765,2.755,2.755,0,0,1,0-3.739,2.354,2.354,0,0,1,1.761-.761,2.033,2.033,0,0,1,1.752.841Zm-2.712,3.649a1.633,1.633,0,0,0,2.262,0,1.685,1.685,0,0,0,0-2.293,1.633,1.633,0,0,0-2.262,0,1.685,1.685,0,0,0,0,2.293Z" transform="translate(-2448.293 -541.226)"/><path class="c" d="M2467.009,548.319v-7.308h1.081v7.308Z" transform="translate(-2448.949 -541.011)"/><path class="c" d="M2473.255,546.491a1.375,1.375,0,0,0,.551.876,1.773,1.773,0,0,0,1.05.3,1.466,1.466,0,0,0,1.291-.621l.892.521a2.478,2.478,0,0,1-2.192,1.091,2.672,2.672,0,0,1-1.972-.746,2.548,2.548,0,0,1-.752-1.886,2.577,2.577,0,0,1,.742-1.877,2.548,2.548,0,0,1,1.9-.755,2.342,2.342,0,0,1,1.806.771,2.671,2.671,0,0,1,.706,1.872,3.4,3.4,0,0,1-.039.45Zm-.01-.881h2.942a1.44,1.44,0,0,0-.5-.921,1.458,1.458,0,0,0-.926-.31,1.525,1.525,0,0,0-1,.33A1.487,1.487,0,0,0,2473.245,545.61Z" transform="translate(-2449.41 -541.226)"/><path class="c" d="M2479.607,544.9a.433.433,0,0,0,.277.39,3.981,3.981,0,0,0,.666.263l.8.246a1.372,1.372,0,0,1,.681.465,1.447,1.447,0,0,1-.283,1.987,2.284,2.284,0,0,1-1.4.41,2.477,2.477,0,0,1-1.271-.31,1.816,1.816,0,0,1-.771-.861l.931-.541a1.062,1.062,0,0,0,1.111.721q.851,0,.851-.561a.444.444,0,0,0-.276-.39,3.554,3.554,0,0,0-.662-.27q-.39-.119-.8-.246a1.416,1.416,0,0,1-.682-.45,1.226,1.226,0,0,1-.276-.825,1.35,1.35,0,0,1,.526-1.111,2.024,2.024,0,0,1,1.306-.42,2.2,2.2,0,0,1,1.105.275,1.879,1.879,0,0,1,.746.766l-.911.51a1.067,1.067,0,0,0-1.461-.436A.433.433,0,0,0,2479.607,544.9Z" transform="translate(-2449.966 -541.226)"/><path class="c" d="M2486.322,544.443h-1.24v2.4a.593.593,0,0,0,.139.445.624.624,0,0,0,.416.15,6.724,6.724,0,0,0,.686,0v.971a2.7,2.7,0,0,1-1.782-.215,1.511,1.511,0,0,1-.541-1.347v-2.4h-.921V543.4H2484V542.32l1.082-.319v1.4h1.24Z" transform="translate(-2450.395 -541.1)"/><path class="c" d="M2491.492,543.528h1.082v5.005h-1.082v-.721a2.024,2.024,0,0,1-1.751.851,2.349,2.349,0,0,1-1.762-.765,2.755,2.755,0,0,1,0-3.739,2.354,2.354,0,0,1,1.762-.761,2.032,2.032,0,0,1,1.751.841Zm-2.712,3.649a1.633,1.633,0,0,0,2.262,0,1.685,1.685,0,0,0,0-2.293,1.633,1.633,0,0,0-2.262,0,1.685,1.685,0,0,0,0,2.293Z" transform="translate(-2450.771 -541.226)"/><path class="c" d="M2497.29,544.443h-1.241v2.4a.6.6,0,0,0,.14.445.623.623,0,0,0,.416.15,6.724,6.724,0,0,0,.686,0v.971a2.7,2.7,0,0,1-1.782-.215,1.511,1.511,0,0,1-.54-1.347v-2.4h-.921V543.4h.921V542.32l1.081-.319v1.4h1.241Z" transform="translate(-2451.382 -541.1)"/><path class="c" d="M2499.346,546.491a1.376,1.376,0,0,0,.552.876,1.77,1.77,0,0,0,1.05.3,1.466,1.466,0,0,0,1.292-.621l.892.521a2.48,2.48,0,0,1-2.193,1.091,2.675,2.675,0,0,1-1.972-.746,2.55,2.55,0,0,1-.751-1.886,2.577,2.577,0,0,1,.741-1.877,2.549,2.549,0,0,1,1.9-.755,2.343,2.343,0,0,1,1.807.771,2.676,2.676,0,0,1,.7,1.872,3.226,3.226,0,0,1-.04.45Zm-.009-.881h2.942a1.443,1.443,0,0,0-.505-.921,1.458,1.458,0,0,0-.926-.31,1.522,1.522,0,0,0-1,.33A1.489,1.489,0,0,0,2499.337,545.61Z" transform="translate(-2451.757 -541.226)"/><path class="c" d="M2513.6,547.985l-.931.541-.669-.717a3.055,3.055,0,0,1-1.952.657,2.641,2.641,0,0,1-1.738-.551,1.843,1.843,0,0,1-.666-1.5,2.223,2.223,0,0,1,.316-1.161,2.289,2.289,0,0,1,.916-.851,2.031,2.031,0,0,1-.4-1.221,1.83,1.83,0,0,1,.616-1.431,2.191,2.191,0,0,1,1.516-.551,2.331,2.331,0,0,1,1.3.38,2.251,2.251,0,0,1,.86,1.081l-.981.561a1.359,1.359,0,0,0-.45-.661,1.147,1.147,0,0,0-.721-.24,1.047,1.047,0,0,0-.707.245.812.812,0,0,0-.285.646,1.1,1.1,0,0,0,.088.422,1.169,1.169,0,0,0,.2.337l.318.347,1.7,1.853a4.276,4.276,0,0,0,.359-1.217l.98.561a4.588,4.588,0,0,1-.581,1.483Zm-3.5-.591a1.853,1.853,0,0,0,1.16-.376l-1.72-1.845a1.214,1.214,0,0,0-.739,1.15.972.972,0,0,0,.34.78A1.439,1.439,0,0,0,2510.1,547.394Z" transform="translate(-2452.605 -541.028)"/><path class="c" d="M2522.194,544.714a1.773,1.773,0,0,1,.981,1.632,1.877,1.877,0,0,1-.611,1.431,2.1,2.1,0,0,1-1.491.571h-3v-7.007h2.783a2.061,2.061,0,0,1,1.457.555,1.822,1.822,0,0,1,.6,1.387A1.678,1.678,0,0,1,2522.194,544.714Zm-1.341-2.292h-1.632v1.842h1.632a.863.863,0,0,0,.641-.265.955.955,0,0,0,0-1.312A.863.863,0,0,0,2520.853,542.422Zm.22,4.844a.9.9,0,0,0,.676-.285,1.017,1.017,0,0,0,0-1.391.9.9,0,0,0-.676-.286h-1.852v1.961Z" transform="translate(-2453.543 -541.041)"/><path class="c" d="M2528.232,543.541h1.08v5.005h-1.08v-.641a1.707,1.707,0,0,1-1.552.771,1.847,1.847,0,0,1-1.392-.551,2.088,2.088,0,0,1-.531-1.512v-3.073h1.082V546.5a1.164,1.164,0,0,0,.3.861,1.11,1.11,0,0,0,.821.3,1.237,1.237,0,0,0,.921-.355,1.493,1.493,0,0,0,.351-1.087Z" transform="translate(-2454.145 -541.239)"/><path class="c" d="M2532.215,542.374a.69.69,0,0,1-1.176-.485.673.673,0,0,1,.2-.485.688.688,0,0,1,.981,0,.67.67,0,0,1,.2.485A.661.661,0,0,1,2532.215,542.374Zm-1.025,5.962V543.33h1.081v5.005Z" transform="translate(-2454.71 -541.028)"/><path class="c" d="M2533.823,548.319v-7.308h1.08v7.308Z" transform="translate(-2454.961 -541.011)"/><path class="c" d="M2540.375,541.341h1.082v7.007h-1.082v-.721a2.025,2.025,0,0,1-1.751.851,2.348,2.348,0,0,1-1.761-.765,2.755,2.755,0,0,1,0-3.739,2.353,2.353,0,0,1,1.761-.761,2.032,2.032,0,0,1,1.751.841Zm-2.712,5.651a1.633,1.633,0,0,0,2.261,0,1.685,1.685,0,0,0,0-2.293,1.632,1.632,0,0,0-2.261,0,1.685,1.685,0,0,0,0,2.293Z" transform="translate(-2455.168 -541.041)"/><path class="c" d="M2544.248,546.491a1.377,1.377,0,0,0,.551.876,1.773,1.773,0,0,0,1.051.3,1.466,1.466,0,0,0,1.291-.621l.892.521a2.48,2.48,0,0,1-2.193,1.091,2.674,2.674,0,0,1-1.972-.746,2.548,2.548,0,0,1-.751-1.886,2.576,2.576,0,0,1,.741-1.877,2.549,2.549,0,0,1,1.9-.755,2.341,2.341,0,0,1,1.807.771,2.674,2.674,0,0,1,.706,1.872,3.35,3.35,0,0,1-.04.45Zm-.01-.881h2.942a1.444,1.444,0,0,0-.5-.921,1.461,1.461,0,0,0-.927-.31,1.523,1.523,0,0,0-1,.33A1.488,1.488,0,0,0,2544.238,545.61Z" transform="translate(-2455.797 -541.226)"/><path class="c" d="M2550.963,544.373a1.53,1.53,0,0,1,1.542-.931v1.171a1.6,1.6,0,0,0-1.081.3,1.274,1.274,0,0,0-.46,1.1v2.523h-1.081v-5.005h1.081Z" transform="translate(-2456.406 -541.23)"/><path class="c" d="M2554.439,544.9a.433.433,0,0,0,.277.39,3.984,3.984,0,0,0,.666.263l.8.246a1.375,1.375,0,0,1,.681.465,1.448,1.448,0,0,1-.283,1.987,2.283,2.283,0,0,1-1.4.41,2.475,2.475,0,0,1-1.271-.31,1.814,1.814,0,0,1-.771-.861l.931-.541a1.062,1.062,0,0,0,1.111.721q.85,0,.851-.561a.443.443,0,0,0-.276-.39,3.547,3.547,0,0,0-.662-.27q-.39-.119-.8-.246a1.416,1.416,0,0,1-.683-.45,1.226,1.226,0,0,1-.276-.825,1.351,1.351,0,0,1,.526-1.111,2.024,2.024,0,0,1,1.306-.42,2.205,2.205,0,0,1,1.106.275,1.877,1.877,0,0,1,.746.766l-.911.51a1.067,1.067,0,0,0-1.461-.436A.433.433,0,0,0,2554.439,544.9Z" transform="translate(-2456.699 -541.226)"/></g><path class="c" d="M2436.59,548.17h-17.965v-6.747h22.5Z" transform="translate(-890.521 501.725)"/><path class="c" d="M2565.877,548.17h17.964v-6.747h-22.5Z" transform="translate(-903.361 501.725)"/></g></svg>