<svg xmlns="http://www.w3.org/2000/svg" xmlns:xlink="http://www.w3.org/1999/xlink" width="306" height="216" viewBox="0 0 306 216"><defs><style>.a{fill:#f7f7f7;}.b{fill:url(#a);}.c{fill:#3e4240;}.d{fill:url(#b);}.e{fill:url(#c);}.f{fill:#975857;}.g{fill:url(#e);}.h{fill:url(#f);}.i{fill:#fff;}.j{fill:url(#h);}.k{fill:url(#i);}.l{fill:#b55148;}.m{fill:#535451;}</style><linearGradient id="a" y1="0.5" x2="1" y2="0.5" gradientUnits="objectBoundingBox"><stop offset="0" stop-color="#e6e7e8" stop-opacity="0.102"/><stop offset="0.022" stop-color="#e8e9e9" stop-opacity="0.176"/><stop offset="0.078" stop-color="#ecedee" stop-opacity="0.349"/><stop offset="0.139" stop-color="#f1f1f2" stop-opacity="0.506"/><stop offset="0.204" stop-color="#f4f5f5" stop-opacity="0.639"/><stop offset="0.275" stop-color="#f8f8f8" stop-opacity="0.753"/><stop offset="0.354" stop-color="#fafafa" stop-opacity="0.843"/><stop offset="0.444" stop-color="#fcfcfc" stop-opacity="0.914"/><stop offset="0.55" stop-color="#fdfefe" stop-opacity="0.965"/><stop offset="0.691" stop-color="#fefefe" stop-opacity="0.992"/><stop offset="1" stop-color="#fff"/></linearGradient><linearGradient id="b" y1="0.5" x2="1" y2="0.5" gradientUnits="objectBoundingBox"><stop offset="0" stop-color="#b55148"/><stop offset="1" stop-color="#884d44"/></linearGradient><linearGradient id="c" y1="0.5" x2="1" y2="0.5" gradientUnits="objectBoundingBox"><stop offset="0" stop-opacity="0.6"/><stop offset="1" stop-color="#b55148" stop-opacity="0"/></linearGradient><linearGradient id="e" y1="0.5" x2="1" y2="0.5" gradientUnits="objectBoundingBox"><stop offset="0" stop-color="#fff"/><stop offset="1" stop-color="#c2b59b"/></linearGradient><linearGradient id="f" y1="0.5" x2="1" y2="0.5" gradientUnits="objectBoundingBox"><stop offset="0" stop-color="#fff"/><stop offset="0.573" stop-color="#817f7f" stop-opacity="0"/><stop offset="1" stop-color="#231f20" stop-opacity="0.2"/></linearGradient><radialGradient id="h" cx="0.5" cy="0.5" r="3.567" gradientTransform="translate(0.45) scale(0.1 1)" gradientUnits="objectBoundingBox"><stop offset="0" stop-color="#231f20"/><stop offset="0.062" stop-color="#2f2323"/><stop offset="0.382" stop-color="#683632"/><stop offset="0.656" stop-color="#91443e"/><stop offset="0.871" stop-color="#ab4d45"/><stop offset="1" stop-color="#b55148"/></radialGradient><radialGradient id="i" cx="0.5" cy="0.531" r="4.165" gradientTransform="matrix(0.085, 0.022, -0.002, 1, 0.26, -0.01)" gradientUnits="objectBoundingBox"><stop offset="0" stop-color="#b55148"/><stop offset="0.129" stop-color="#ab4d45"/><stop offset="0.344" stop-color="#91443e"/><stop offset="0.618" stop-color="#683632"/><stop offset="0.938" stop-color="#2f2323"/><stop offset="1" stop-color="#231f20"/></radialGradient></defs><g transform="translate(-1129 -650)"><rect class="a" width="306" height="216" transform="translate(1129 650)"/><g transform="translate(1223.632 733.632)"><path class="b" d="M2810.536,403.287l8.01-9.131,9.593,9.79Z" transform="translate(-2754.366 -389.949)"/><path class="c" d="M2768.478,423.664s-1.121-1.253,1.747-3.923,16.02-16.02,16.02-16.02l-2.175-2.274L2763.1,423.664Z" transform="translate(-2759.051 -389.229)"/><path class="c" d="M2798.948,423.954s-.3-1.267,1.384-3.447c1.613-2.09,10.5-10.928,10.5-10.928l-1.465-1.532-15.01,15.907Z" transform="translate(-2755.964 -388.577)"/><path class="c" d="M2827.418,404.071h2.67L2819.111,392.9l-1.286,1.384Z" transform="translate(-2753.646 -390.073)"/><g transform="translate(25.656)"><path class="d" d="M2822.387,391.382l-12.921,2.373v3.626l-1.516.066v-.527h.011v-6.593h-1.846v5.2l-7.395,7.2-15.954-3.824,17.339,18.064,11.01-11.01-1.252-1.187Zm-16.976,18.393-2.835-2.11v-6.856l2.835-.461Z" transform="translate(-2782.765 -390.327)"/><path class="e" d="M2803.375,408.874l1.088-1.187v-8.241h-1.088Z" transform="translate(-2780.729 -389.426)"/></g><path class="d" d="M2809.426,405.689l14.556,16.02h17.009l-3.164-4.351,10.087-11.669-19.976,3.461-19.371-4.6Z" transform="translate(-2754.561 -388.923)"/><rect class="f" width="3.296" height="4.285" transform="translate(22.744 25.996)"/><rect class="f" width="3.296" height="4.285" transform="translate(27.689 25.996)"/><rect class="f" width="3.296" height="4.285" transform="translate(22.744 31.666)"/><rect class="f" width="3.296" height="4.285" transform="translate(27.689 31.666)"/><rect class="f" width="2.571" height="2.769" transform="translate(52.082 28.436)"/><rect class="f" width="2.571" height="2.769" transform="translate(55.444 28.436)"/><rect class="f" width="2.571" height="2.769" transform="translate(52.082 32.424)"/><rect class="f" width="2.571" height="2.769" transform="translate(55.444 32.424)"/><rect class="f" width="1.78" height="2.176" transform="translate(91.572 27.101)"/><rect class="f" width="1.78" height="2.176" transform="translate(94.242 27.101)"/><rect class="f" width="1.78" height="2.176" transform="translate(91.572 30.265)"/><rect class="f" width="1.78" height="2.176" transform="translate(94.242 30.265)"/><rect class="f" width="2.225" height="2.225" transform="translate(61.954 9.795)"/><rect class="f" width="2.225" height="2.225" transform="translate(65.02 9.795)"/><rect class="f" width="2.225" height="2.225" transform="translate(61.954 12.885)"/><rect class="f" width="2.225" height="2.225" transform="translate(65.02 12.885)"/><path class="g" d="M2822.855,420.167,2822.2,423l16.416-.4,1.055-2.439Z" transform="translate(-2753.215 -387.38)"/><path class="h" d="M2828.836,422.343l-1.385,2.835-14.636-16.152-10.2,10.812-18.178-18.064-20.965,22.217h-4.054l25.656-25.865,17.339,18.064,11.01-11.01Z" transform="translate(-2759.415 -389.557)"/><path class="b" d="M2859.007,422.711l2.708-.141-16.448-16.383-.89,2.022Z" transform="translate(-2751.024 -388.761)"/><path class="c" d="M2854.577,422.577s.3-1.266-1.385-3.447c-1.612-2.09-10.5-10.928-10.5-10.928l2.278-.67,14.2,15.045Z" transform="translate(-2751.19 -388.628)"/><path class="i" d="M2835.2,417.255l.82,1.127,10.624-11.672-1.357-1.124Z" transform="translate(-2751.93 -388.82)"/></g><path class="j" d="M2767.873,428.83s-4.022,4.879,5.538,6.131c12.937,1.7,25.022-1.2,37.875-3.56a292.646,292.646,0,0,1,33.553-3.812,112.825,112.825,0,0,1,15.261-.142c3.173.23,7.332.461,9.927,2.569,0,0-22.266-2.594-60.916,4.549C2770.11,441.774,2760.061,434.962,2767.873,428.83Z" transform="translate(-1535.191 346.951)"/><path class="k" d="M2811.829,435.473s52.038-4.88,55.538-2.132C2867.368,433.341,2863.007,426.254,2811.829,435.473Z" transform="translate(-1530.607 347.296)"/><g transform="translate(1199.134 790.297)"><path class="l" d="M2754.454,451.234c0-.065.053-.118.159-.16a14.189,14.189,0,0,0,2.183-1.305,19.637,19.637,0,0,0,2.135-1.754,13.267,13.267,0,0,0,1.625-1.832,2.886,2.886,0,0,0,.653-1.61,1.5,1.5,0,0,0-.35-.972,1.319,1.319,0,0,0-1.083-.43,13.432,13.432,0,0,0-3.951.686,29.23,29.23,0,0,0-4.493,1.847,42.01,42.01,0,0,0-4.493,2.646,30.583,30.583,0,0,0-3.9,3.091,18.033,18.033,0,0,0-2.757,3.218,5.542,5.542,0,0,0-1.052,2.979,1.486,1.486,0,0,0,.446,1.067,1.687,1.687,0,0,0,1.274.463,10.767,10.767,0,0,0,2.868-.414q1.5-.414,3-.892t2.931-.892a9.881,9.881,0,0,1,2.74-.414,3,3,0,0,1,1.2.255,3.471,3.471,0,0,1,1.035.686,3.654,3.654,0,0,1,.718.956,2.371,2.371,0,0,1,.27,1.1,9.757,9.757,0,0,1,1.848-.191.7.7,0,0,1,.542.208c.127.138.191.238.191.3,0,.085-.064.127-.191.127-.425,0-.844.017-1.258.047s-.834.07-1.259.112a6.116,6.116,0,0,1-1.1,1.816,18.718,18.718,0,0,1-1.928,1.992,27.385,27.385,0,0,1-2.437,1.944,29.926,29.926,0,0,1-2.629,1.673,19.175,19.175,0,0,1-2.469,1.178,5.7,5.7,0,0,1-1.96.446,2.559,2.559,0,0,1-.78-.127,2.644,2.644,0,0,1-.733-.366,2.113,2.113,0,0,1-.558-.59,1.513,1.513,0,0,1-.222-.828,2.032,2.032,0,0,1,.557-1.275,7.927,7.927,0,0,1,1.53-1.355,22.651,22.651,0,0,1,2.231-1.37q1.257-.684,2.677-1.29t2.9-1.131q1.481-.526,2.851-.877a3.6,3.6,0,0,0,.287-1.37,1.8,1.8,0,0,0-.382-1.131,1.594,1.594,0,0,0-1.338-.493,9.122,9.122,0,0,0-2.549.461q-1.529.461-3.186,1t-3.266,1a10.275,10.275,0,0,1-2.756.463,3.369,3.369,0,0,1-1.1-.192,3.584,3.584,0,0,1-1-.526,2.6,2.6,0,0,1-.717-.812,2.029,2.029,0,0,1-.271-1.02,6.136,6.136,0,0,1,1.1-3.234,18.9,18.9,0,0,1,2.883-3.458,32.428,32.428,0,0,1,4.095-3.314,39.978,39.978,0,0,1,4.716-2.8,31.462,31.462,0,0,1,4.748-1.943,14.166,14.166,0,0,1,4.19-.733,2.96,2.96,0,0,1,1.227.237,2.8,2.8,0,0,1,.876.606,2.493,2.493,0,0,1,.526.812,2.431,2.431,0,0,1,.175.892,2.906,2.906,0,0,1-.446,1.418,10.883,10.883,0,0,1-1.131,1.593,19.239,19.239,0,0,1-1.5,1.578q-.813.765-1.546,1.354t-1.29.955a2.217,2.217,0,0,1-.686.367.67.67,0,0,1-.382-.175C2754.529,451.42,2754.454,451.319,2754.454,451.234Zm-11.376,17.588a3.966,3.966,0,0,0,1.434-.35,12.088,12.088,0,0,0,1.848-.972,22.288,22.288,0,0,0,2.007-1.433,25.635,25.635,0,0,0,1.96-1.736,17.929,17.929,0,0,0,1.689-1.913,11.406,11.406,0,0,0,1.194-1.912,25.017,25.017,0,0,0-4.253,1.308,21.408,21.408,0,0,0-3.569,1.832,10.522,10.522,0,0,0-2.453,2.118,3.474,3.474,0,0,0-.909,2.167.873.873,0,0,0,.256.621A1.046,1.046,0,0,0,2743.079,468.822Z" transform="translate(-2737.12 -441.898)"/><path class="l" d="M2768.621,458.9q-.893.859-1.722,1.528a13.26,13.26,0,0,1-1.561,1.052,3.02,3.02,0,0,1-1.466.478,1.069,1.069,0,0,1-.509-.159,3.134,3.134,0,0,1-.558-.4,2.087,2.087,0,0,1-.446-.558,1.262,1.262,0,0,1-.176-.605,4.154,4.154,0,0,1,.352-1.672,10.455,10.455,0,0,1,.764-1.466,9.645,9.645,0,0,1,.765-1.068,1.968,1.968,0,0,0,.352-.477c0-.129-.074-.192-.224-.192a3.236,3.236,0,0,0-1.1.478,15.478,15.478,0,0,0-1.88,1.29,18.44,18.44,0,0,0-2.039,1.881,9.832,9.832,0,0,0-1.608,2.246,13.917,13.917,0,0,0-.654,1.514c-.117.349-.229.526-.335.526a.824.824,0,0,1-.621-.4,1.327,1.327,0,0,1-.3-.812,11.077,11.077,0,0,1,.557-3.281,24.494,24.494,0,0,1,1.45-3.585,29.574,29.574,0,0,1,2.023-3.473,26.953,26.953,0,0,1,2.279-2.948,15.327,15.327,0,0,1,2.2-2.055,3.242,3.242,0,0,1,1.816-.781,1.652,1.652,0,0,1,1.082.431,1.188,1.188,0,0,1,.511.877,3.645,3.645,0,0,1-.622,1.8,17.642,17.642,0,0,1-1.561,2.168q-.94,1.131-2.088,2.278t-2.214,2.136q-1.068.986-1.912,1.736t-1.194,1.067a8.59,8.59,0,0,0-.637,2.294,9.538,9.538,0,0,1,1.625-2.166,18.533,18.533,0,0,1,2.15-1.913,18.9,18.9,0,0,1,2.023-1.354,3.633,3.633,0,0,1,1.18-.526,1.1,1.1,0,0,1,.445.143,2.647,2.647,0,0,1,.573.4,3.244,3.244,0,0,1,.51.572,1.142,1.142,0,0,1,.223.669,1.588,1.588,0,0,1-.4.876q-.4.527-.86,1.116c-.308.392-.6.792-.86,1.194a2.071,2.071,0,0,0-.4,1.115q0,.574.478.574a2.809,2.809,0,0,0,1.387-.461,18,18,0,0,0,1.514-1,20.6,20.6,0,0,0,1.689-1.466l.063-.064a.216.216,0,0,1,.159-.064.113.113,0,0,1,.128.127c0,.043-.048.108-.144.191S2768.663,458.851,2768.621,458.9Zm-1.658-11.409q0-.287-.254-.287a3.337,3.337,0,0,0-2.024,1.02,18.2,18.2,0,0,0-2.358,2.566,31.181,31.181,0,0,0-2.279,3.408,31.845,31.845,0,0,0-1.784,3.522c.149-.147.463-.446.941-.892s1.041-.971,1.689-1.578,1.327-1.268,2.039-1.991,1.365-1.439,1.96-2.15a18.611,18.611,0,0,0,1.481-2.007A3.19,3.19,0,0,0,2766.963,447.487Z" transform="translate(-2735.29 -441.497)"/><path class="l" d="M2779.811,458.153q-.955.923-1.848,1.656a14.281,14.281,0,0,1-1.657,1.147,3.079,3.079,0,0,1-1.529.51,1.985,1.985,0,0,1-1.338-.493,1.769,1.769,0,0,1-.573-1.419v-.431a1.931,1.931,0,0,1,.031-.366c.021-.128.043-.244.064-.351q-.6.575-1.29,1.259t-1.322,1.258q-.64.575-1.148.956a1.528,1.528,0,0,1-.8.382,1.479,1.479,0,0,1-.605-.143,2.152,2.152,0,0,1-.589-.4,2.556,2.556,0,0,1-.462-.591,1.417,1.417,0,0,1-.191-.716,4.37,4.37,0,0,1,.718-2.167,11.19,11.19,0,0,1,1.784-2.262,11.885,11.885,0,0,1,2.31-1.784,4.547,4.547,0,0,1,2.262-.733,2.215,2.215,0,0,1,.909.191,3.774,3.774,0,0,1,.78.463,2.441,2.441,0,0,1,.558.589,1.094,1.094,0,0,1,.207.574,1.559,1.559,0,0,1-.1.605c-.063.149-.116.223-.159.223s-.1-.036-.175-.111a.31.31,0,0,1-.112-.208.361.361,0,0,1,.08-.207.729.729,0,0,0,.079-.4.474.474,0,0,0-.207-.334.61.61,0,0,0-.367-.176,4.131,4.131,0,0,0-1.577.335,8.316,8.316,0,0,0-1.609.892,11.207,11.207,0,0,0-1.513,1.275,12.9,12.9,0,0,0-1.259,1.449,7.755,7.755,0,0,0-.861,1.449,3.189,3.189,0,0,0-.317,1.259.366.366,0,0,0,.413.414,1.6,1.6,0,0,0,.733-.366,13.828,13.828,0,0,0,1.132-.924q.621-.559,1.306-1.211t1.258-1.227c.489-.488.9-.877,1.227-1.162a1.444,1.444,0,0,1,.717-.431.584.584,0,0,1,.287.144,3.579,3.579,0,0,1,.382.334,2.248,2.248,0,0,1,.335.43.858.858,0,0,1,.143.431.719.719,0,0,1-.223.414q-.223.255-.477.574a6.5,6.5,0,0,0-.479.685,1.433,1.433,0,0,0-.223.749.523.523,0,0,0,.208.463.845.845,0,0,0,.495.143,2.777,2.777,0,0,0,1.354-.461,14.125,14.125,0,0,0,1.513-1.036q.829-.669,1.72-1.529c.085-.085.148-.127.191-.127a.113.113,0,0,1,.127.127c0,.043-.043.108-.127.191S2779.853,458.109,2779.811,458.153Z" transform="translate(-2734.213 -440.755)"/><path class="l" d="M2786.718,461.507a1.664,1.664,0,0,0,.876-.287,5.669,5.669,0,0,0,.75-.541,1.245,1.245,0,0,1,.381-.256.113.113,0,0,1,.128.128c0,.043-.107.17-.318.382a4.791,4.791,0,0,1-.941.7,2.2,2.2,0,0,1-1.13.35,1.578,1.578,0,0,1-1.147-.572,1.722,1.722,0,0,1-.542-1.18,4.172,4.172,0,0,1,.35-1.672,10.534,10.534,0,0,1,.765-1.466,9.573,9.573,0,0,1,.766-1.068,1.96,1.96,0,0,0,.349-.477c0-.129-.074-.192-.222-.192a3.232,3.232,0,0,0-1.1.478,15.459,15.459,0,0,0-1.88,1.29,18.446,18.446,0,0,0-2.04,1.881,9.9,9.9,0,0,0-1.608,2.246,14.016,14.016,0,0,0-.654,1.514c-.117.349-.229.526-.335.526a.823.823,0,0,1-.621-.4,1.328,1.328,0,0,1-.3-.812,11.07,11.07,0,0,1,.557-3.281,24.575,24.575,0,0,1,1.45-3.585,29.925,29.925,0,0,1,2.024-3.473,26.984,26.984,0,0,1,2.279-2.948,15.315,15.315,0,0,1,2.2-2.055,3.239,3.239,0,0,1,1.815-.781,1.655,1.655,0,0,1,1.083.431,1.182,1.182,0,0,1,.51.877,3.727,3.727,0,0,1-.621,1.815,17.605,17.605,0,0,1-1.561,2.2q-.941,1.147-2.088,2.31t-2.214,2.136q-1.068.972-1.913,1.705c-.562.488-.961.827-1.193,1.019a8.543,8.543,0,0,0-.638,2.294,9.6,9.6,0,0,1,1.625-2.166,19.365,19.365,0,0,1,4.175-3.267,3.641,3.641,0,0,1,1.178-.526,1.1,1.1,0,0,1,.446.143,2.7,2.7,0,0,1,.575.4,3.344,3.344,0,0,1,.51.572,1.158,1.158,0,0,1,.223.669,1.58,1.58,0,0,1-.4.876q-.4.527-.859,1.116c-.309.392-.6.792-.86,1.194a2.067,2.067,0,0,0-.4,1.115Q2786.146,461.507,2786.718,461.507Zm2.836-14.02q0-.287-.254-.287a3.331,3.331,0,0,0-2.024,1.02,18.218,18.218,0,0,0-2.358,2.566,31.216,31.216,0,0,0-2.279,3.408,31.546,31.546,0,0,0-1.784,3.522q.222-.191.956-.828t1.705-1.56q.971-.925,2.023-2.024t1.944-2.167a17.485,17.485,0,0,0,1.482-2.024A3.269,3.269,0,0,0,2789.554,447.487Z" transform="translate(-2733.059 -441.497)"/><path class="l" d="M2804.954,459.1a.865.865,0,0,1,.24-.541,6.431,6.431,0,0,1,.716-.7,15.477,15.477,0,0,1,2.47-1.721,24.757,24.757,0,0,1,2.852-1.37,29.529,29.529,0,0,1,3.092-1.052q1.592-.445,3.217-.8,2.041-2.2,4.112-4.191a35.891,35.891,0,0,1,4.221-3.5,22.514,22.514,0,0,1,4.349-2.422,11.67,11.67,0,0,1,4.493-.908.587.587,0,0,1,.446.207.579.579,0,0,1,.191.366c0,.085-.021.127-.063.127a2.022,2.022,0,0,1-.256-.032,2.34,2.34,0,0,0-.381-.031,8.7,8.7,0,0,0-3.569.828,19.351,19.351,0,0,0-3.713,2.229,35.245,35.245,0,0,0-3.711,3.25q-1.849,1.849-3.537,3.887,2.038-.191,4.047-.191h.589a4.3,4.3,0,0,1,.525.032q.8-1.338,1.705-2.645t1.848-2.485q.94-1.177,1.88-2.2t1.8-1.816a.909.909,0,0,1,.479-.287.14.14,0,0,1,.158.159.311.311,0,0,1-.063.159,2.292,2.292,0,0,1-.256.287,22.4,22.4,0,0,0-1.562,1.753,24.955,24.955,0,0,0-1.545,2.151q-.748,1.164-1.449,2.437t-1.308,2.614a5.034,5.034,0,0,1,1.466.366c.256.138.384.26.384.367a.112.112,0,0,1-.127.126,2.02,2.02,0,0,1-.431-.159,6.239,6.239,0,0,0-1.482-.286,28.63,28.63,0,0,0-1.609,4.508,16.556,16.556,0,0,0-.59,4.191,3.472,3.472,0,0,0,.112.955,1.994,1.994,0,0,0,.271.605.953.953,0,0,0,.367.32,1.754,1.754,0,0,0,.366.126c.127.043.192.085.192.127,0,.107-.086.159-.255.159a3.507,3.507,0,0,1-.766-.143,3.585,3.585,0,0,1-1.083-.51,3.974,3.974,0,0,1-.973-.956,2.4,2.4,0,0,1-.429-1.45,11.644,11.644,0,0,1,.733-3.887,25.207,25.207,0,0,1,1.942-4.174c-.212-.021-.43-.032-.653-.032h-.716a29.5,29.5,0,0,0-3.983.287q-2.519,3.123-4.923,5.783a47.032,47.032,0,0,1-4.716,4.588,23.144,23.144,0,0,1-4.54,3.028,9.9,9.9,0,0,1-4.4,1.1,7.326,7.326,0,0,1-2.215-.335,5.381,5.381,0,0,1-1.88-1.019,5.079,5.079,0,0,1-1.307-1.722,5.523,5.523,0,0,1-.493-2.405,10.018,10.018,0,0,1,.907-4.109,17.714,17.714,0,0,1,2.39-3.887,23.192,23.192,0,0,1,3.377-3.411,29.626,29.626,0,0,1,3.855-2.708,22.346,22.346,0,0,1,3.807-1.8,10.049,10.049,0,0,1,3.283-.653,2.567,2.567,0,0,1,1.943.669,2.154,2.154,0,0,1,.637,1.529,4.585,4.585,0,0,1-.381,1.816,9.393,9.393,0,0,1-.861,1.593,6.712,6.712,0,0,1-.939,1.132c-.308.286-.515.43-.622.43a2.34,2.34,0,0,1-.6-.1c-.234-.063-.352-.148-.352-.255,0-.064.053-.105.161-.126a2,2,0,0,0,.859-.511,5.778,5.778,0,0,0,.972-1.132,7.962,7.962,0,0,0,.8-1.528,4.6,4.6,0,0,0,.334-1.705,1.471,1.471,0,0,0-.4-1.035,1.784,1.784,0,0,0-1.354-.431,8.025,8.025,0,0,0-3.026.7,19.16,19.16,0,0,0-3.474,1.928,26.781,26.781,0,0,0-3.489,2.883,26.143,26.143,0,0,0-3.059,3.553,18.59,18.59,0,0,0-2.167,3.935,10.8,10.8,0,0,0-.812,4.015,4.678,4.678,0,0,0,1,3.186,3.748,3.748,0,0,0,2.98,1.147,6.208,6.208,0,0,0,3.377-1.243,29.672,29.672,0,0,0,3.918-3.234q2.072-1.991,4.254-4.445t4.382-4.876a27.465,27.465,0,0,0-3,.956,22.982,22.982,0,0,0-2.884,1.338,19.739,19.739,0,0,0-2.629,1.737,13.025,13.025,0,0,0-2.2,2.182c-.062.086-.111.148-.143.191a.167.167,0,0,1-.143.064,1.086,1.086,0,0,1-.605-.334A.9.9,0,0,1,2804.954,459.1Z" transform="translate(-2731.38 -441.898)"/><path class="l" d="M2824.549,459.037a3.336,3.336,0,0,1,.637.079c.255.054.543.112.86.177a14,14,0,0,0,1.083-1.451c.341-.519.626-1,.86-1.449-.084-.211-.159-.414-.223-.605a2.245,2.245,0,0,1-.1-.7,1.774,1.774,0,0,1,.256-.892,3.771,3.771,0,0,1,.621-.812,3.876,3.876,0,0,1,.733-.589,1.233,1.233,0,0,1,.589-.224,1.1,1.1,0,0,1,.75.414,1.155,1.155,0,0,1,.4.733c0,.129-.106.27-.318.431s-.452.345-.717.557a5.339,5.339,0,0,0-.718.686,1.214,1.214,0,0,0-.319.812,2.41,2.41,0,0,0,.143.877c.1.245.2.482.3.716s.211.478.318.733a3.563,3.563,0,0,1,.222.924,6.275,6.275,0,0,0,1.642-.493,5.263,5.263,0,0,0,1.545-1.1l.064-.064a.182.182,0,0,1,.127-.064.113.113,0,0,1,.127.127c0,.043-.043.108-.127.191s-.149.148-.191.192a4.914,4.914,0,0,1-1.514,1.052,6.7,6.7,0,0,1-1.64.477,2.02,2.02,0,0,1-.254.956,3.47,3.47,0,0,1-.654.86,3.241,3.241,0,0,1-.941.622,2.754,2.754,0,0,1-1.115.238,2.007,2.007,0,0,1-1.227-.446,5.2,5.2,0,0,1-1-.988,2.762,2.762,0,0,1-.605.4,1.607,1.607,0,0,1-.733.176,1.429,1.429,0,0,1-.3-.032c-.1-.02-.143-.053-.143-.1a.984.984,0,0,1,.159-.319c.106-.169.181-.255.223-.255a.56.56,0,0,1,.127.015,1.033,1.033,0,0,0,.223.016,1.691,1.691,0,0,0,.828-.254,2.356,2.356,0,0,1-.446-1.18.537.537,0,0,1,.1-.3A.391.391,0,0,1,2824.549,459.037Zm.1.542a1.321,1.321,0,0,0,.351.733,3.443,3.443,0,0,0,.415-.35l.413-.414a5.249,5.249,0,0,0-.956-.159Q2824.646,459.388,2824.645,459.579Zm1.688,1.466a2.123,2.123,0,0,0,1.036-.271,1.848,1.848,0,0,0,.78-.908,10.037,10.037,0,0,1-1.036-.111c-.328-.053-.632-.1-.908-.143-.148.169-.3.333-.446.493s-.308.324-.478.493a2.368,2.368,0,0,0,.478.319A1.272,1.272,0,0,0,2826.334,461.045Zm1.784-4.364q-.446.829-.844,1.466a14.364,14.364,0,0,1-.845,1.21,11,11,0,0,0,1.816.191c.043-.169.08-.34.111-.51a3.307,3.307,0,0,0,.048-.605,5.308,5.308,0,0,0-.079-1A5.108,5.108,0,0,0,2828.118,456.681Z" transform="translate(-2728.639 -440.844)"/><path class="l" d="M2836.043,459.77a2.023,2.023,0,0,1-.254.956,3.465,3.465,0,0,1-.654.86,3.243,3.243,0,0,1-.94.622,2.756,2.756,0,0,1-1.115.238,1.866,1.866,0,0,1-1.051-.318,3.308,3.308,0,0,1-.812-.766,3.973,3.973,0,0,1-.526-.923,2.25,2.25,0,0,1-.191-.8.533.533,0,0,1,.1-.3.391.391,0,0,1,.351-.144,8.047,8.047,0,0,1,1.355.144,17.213,17.213,0,0,0,2.023.207c.043-.169.08-.34.111-.51a3.223,3.223,0,0,0,.048-.605,5.308,5.308,0,0,0-.079-1,5.169,5.169,0,0,0-.208-.747c-.362.424-.647.743-.86.955s-.424.414-.637.607a.26.26,0,0,1-.158.095.113.113,0,0,1-.128-.127c0-.043.1-.159.287-.35l.382-.382q.192-.191.446-.463c.169-.18.351-.387.542-.621-.085-.211-.159-.414-.223-.605a2.245,2.245,0,0,1-.1-.7,1.774,1.774,0,0,1,.256-.892,3.762,3.762,0,0,1,.621-.812,3.877,3.877,0,0,1,.733-.589,1.232,1.232,0,0,1,.589-.224,1.1,1.1,0,0,1,.749.414,1.153,1.153,0,0,1,.4.733c0,.129-.107.27-.319.431s-.451.345-.716.557a5.415,5.415,0,0,0-.718.686,1.213,1.213,0,0,0-.319.812,2.4,2.4,0,0,0,.143.877c.1.245.2.482.3.716s.211.478.319.733a3.563,3.563,0,0,1,.222.924,6.273,6.273,0,0,0,1.641-.493,5.264,5.264,0,0,0,1.545-1.1l.064-.064a.181.181,0,0,1,.127-.064.113.113,0,0,1,.127.127c0,.043-.043.108-.127.191s-.149.148-.191.192a4.914,4.914,0,0,1-1.514,1.052A6.7,6.7,0,0,1,2836.043,459.77Zm-3.633,1.275a2.119,2.119,0,0,0,1.036-.271,1.849,1.849,0,0,0,.78-.908,16.7,16.7,0,0,1-1.88-.191,7.085,7.085,0,0,0-1.083-.127c-.148,0-.223.065-.223.191a1.392,1.392,0,0,0,.064.35,1.158,1.158,0,0,0,.24.431,1.8,1.8,0,0,0,.429.366A1.183,1.183,0,0,0,2832.411,461.045Z" transform="translate(-2727.897 -440.844)"/><path class="l" d="M2847.57,458.213q-.349.318-.827.716a8.373,8.373,0,0,1-1.068.749,7.117,7.117,0,0,1-1.338.6,5.7,5.7,0,0,1-1.672.287,8.637,8.637,0,0,1-1.291.845,2.245,2.245,0,0,1-.908.3,1.814,1.814,0,0,1-.654-.143,2.475,2.475,0,0,1-1.259-1.132,2,2,0,0,1-.223-.956,4.606,4.606,0,0,1,.351-1.753.354.354,0,0,0-.016-.112.333.333,0,0,1-.017-.111,3.718,3.718,0,0,1,.478-1.863,5.529,5.529,0,0,1,1.2-1.466,5.964,5.964,0,0,1,1.514-.972,3.619,3.619,0,0,1,1.433-.35,2.589,2.589,0,0,1,1.784.622,2.087,2.087,0,0,1,.7,1.64,4.886,4.886,0,0,1-.24,1.531,6.594,6.594,0,0,1-.621,1.369,8.74,8.74,0,0,1-.876,1.211,10.054,10.054,0,0,1-1,1.02,4.337,4.337,0,0,0,1.37-.287,8.03,8.03,0,0,0,1.259-.605,8.188,8.188,0,0,0,1.067-.748c.319-.265.605-.526.86-.781l.064-.064a.181.181,0,0,1,.127-.064c.106,0,.159.043.159.127,0,.043-.047.108-.143.191S2847.612,458.169,2847.57,458.213Zm-6.6-3.379a5.339,5.339,0,0,1,.764-.59,1.359,1.359,0,0,1,.7-.238.584.584,0,0,1,.32.143,1.725,1.725,0,0,1,.334.335,3.419,3.419,0,0,1,.255.4.774.774,0,0,1,.111.335.3.3,0,0,1-.127.255,1.21,1.21,0,0,1-.287.159,12.391,12.391,0,0,0-1.928,1.5,7.339,7.339,0,0,0-1.577,2.007,2.622,2.622,0,0,0,1.1.828,4.932,4.932,0,0,0,1.545.352,8.271,8.271,0,0,0,.988-1.037,8.022,8.022,0,0,0,.845-1.273,7.6,7.6,0,0,0,.589-1.45,5.448,5.448,0,0,0,.223-1.529,1.7,1.7,0,0,0-.463-1.258,1.876,1.876,0,0,0-1.385-.463,2.854,2.854,0,0,0-1.084.255,4.728,4.728,0,0,0-1.179.733,5.912,5.912,0,0,0-1.035,1.131,3.4,3.4,0,0,0-.589,1.45,5.428,5.428,0,0,1,.875-1.115Q2840.464,455.281,2840.974,454.835Zm-1.594,4.684a2.237,2.237,0,0,0-.127.765,1.167,1.167,0,0,0,.24.749.785.785,0,0,0,.654.3,3.126,3.126,0,0,0,1.751-.765A3.88,3.88,0,0,1,2839.381,459.519Z" transform="translate(-2727.124 -440.815)"/><path class="l" d="M2855.558,458.156a25.407,25.407,0,0,1-2.548,2.134,17.277,17.277,0,0,1-2.294,1.482,4.721,4.721,0,0,1-2.2.653,2.6,2.6,0,0,1-1.61-.574,2,2,0,0,1-.75-1.689,5.44,5.44,0,0,1,.589-2.39,9.642,9.642,0,0,1,1.435-2.167,8.464,8.464,0,0,1,1.8-1.561,3.274,3.274,0,0,1,1.689-.6,1.709,1.709,0,0,1,1.1.4,1.267,1.267,0,0,1,.493,1.035,1.833,1.833,0,0,1-.191.717,2.985,2.985,0,0,1-.637.876.429.429,0,0,1-.191.064,1.3,1.3,0,0,1-.255.032.056.056,0,0,1-.064-.064.269.269,0,0,1,.1-.159,3.653,3.653,0,0,0,.59-.765,1.451,1.451,0,0,0,.239-.668.281.281,0,0,0-.319-.319,2.834,2.834,0,0,0-1.466.525,7.119,7.119,0,0,0-1.562,1.37,8.8,8.8,0,0,0-1.242,1.88,4.621,4.621,0,0,0-.509,2.055,1.673,1.673,0,0,0,.286,1,1.061,1.061,0,0,0,.924.4,4.311,4.311,0,0,0,2.024-.622,18.177,18.177,0,0,0,2.151-1.387q1.178-.892,2.42-2.039l.065-.064a.18.18,0,0,1,.127-.064.113.113,0,0,1,.126.127c0,.043-.043.108-.126.191Z" transform="translate(-2726.35 -440.758)"/><path class="l" d="M2857.865,453.9a1.279,1.279,0,0,1,.908.431,1.254,1.254,0,0,1,.43.876,1.3,1.3,0,0,1-.271.557q-.271.4-.668.956t-.876,1.212q-.478.653-.877,1.275a12.691,12.691,0,0,0-.668,1.164,2.1,2.1,0,0,0-.271.891q0,.542.51.542a3.459,3.459,0,0,0,1.625-.542,15.029,15.029,0,0,0,1.816-1.21,24.748,24.748,0,0,0,2.071-1.754l.064-.064a.215.215,0,0,1,.159-.064.113.113,0,0,1,.127.127c0,.043-.048.108-.143.191s-.166.148-.208.192a28.3,28.3,0,0,1-2.2,1.879,16.47,16.47,0,0,1-1.959,1.276,3.867,3.867,0,0,1-1.8.572,1.135,1.135,0,0,1-.463-.127,1.855,1.855,0,0,1-.51-.366,2.184,2.184,0,0,1-.4-.558,1.541,1.541,0,0,1-.159-.7,3.338,3.338,0,0,1,.446-1.386q.447-.877,1.02-1.8t1.132-1.8a8.863,8.863,0,0,0,.78-1.449C2857.589,454.01,2857.717,453.9,2857.865,453.9Zm3.154-5.8a.746.746,0,0,1,.43.175,2.046,2.046,0,0,1,.431.43,4.026,4.026,0,0,1,.335.526,1.017,1.017,0,0,1,.143.431,1.951,1.951,0,0,1-.669,1.019c-.107.043-.245.1-.415.159s-.329.116-.478.159a1.724,1.724,0,0,0-.637.352c-.127.126-.223.19-.287.19a.169.169,0,0,1-.191-.19,1.748,1.748,0,0,1,.191-.7q.191-.414.414-.86c.148-.3.287-.583.414-.859a1.739,1.739,0,0,0,.191-.7A.112.112,0,0,1,2861.02,448.1Z" transform="translate(-2725.565 -441.285)"/><path class="l" d="M2873.277,458.153q-.956.923-1.848,1.656a14.323,14.323,0,0,1-1.657,1.147,3.083,3.083,0,0,1-1.53.51,1.986,1.986,0,0,1-1.338-.493,1.77,1.77,0,0,1-.573-1.419v-.431a1.924,1.924,0,0,1,.032-.366c.021-.128.042-.244.064-.351q-.605.575-1.29,1.259t-1.323,1.258q-.638.575-1.147.956a1.532,1.532,0,0,1-.8.382,1.474,1.474,0,0,1-.605-.143,2.172,2.172,0,0,1-.59-.4,2.546,2.546,0,0,1-.461-.591,1.417,1.417,0,0,1-.191-.716,4.358,4.358,0,0,1,.718-2.167,11.173,11.173,0,0,1,1.784-2.262,11.862,11.862,0,0,1,2.311-1.784,4.541,4.541,0,0,1,2.261-.733,2.2,2.2,0,0,1,.907.191,3.786,3.786,0,0,1,.781.463,2.459,2.459,0,0,1,.558.589,1.1,1.1,0,0,1,.208.574,1.557,1.557,0,0,1-.1.605c-.063.149-.117.223-.159.223s-.1-.036-.175-.111a.31.31,0,0,1-.112-.208.359.359,0,0,1,.08-.207.738.738,0,0,0,.079-.4.472.472,0,0,0-.208-.334.607.607,0,0,0-.366-.176,4.132,4.132,0,0,0-1.577.335,8.325,8.325,0,0,0-1.61.892,11.237,11.237,0,0,0-1.513,1.275,12.84,12.84,0,0,0-1.258,1.449,7.721,7.721,0,0,0-.861,1.449,3.193,3.193,0,0,0-.319,1.259.366.366,0,0,0,.414.414,1.6,1.6,0,0,0,.733-.366,14.039,14.039,0,0,0,1.132-.924q.621-.559,1.307-1.211t1.259-1.227c.488-.488.9-.877,1.226-1.162a1.443,1.443,0,0,1,.716-.431.578.578,0,0,1,.287.144,3.58,3.58,0,0,1,.383.334,2.244,2.244,0,0,1,.334.43.853.853,0,0,1,.144.431.72.72,0,0,1-.223.414c-.149.17-.308.361-.478.574a6.8,6.8,0,0,0-.478.685,1.433,1.433,0,0,0-.223.749.522.522,0,0,0,.207.463.851.851,0,0,0,.494.143,2.777,2.777,0,0,0,1.355-.461,14.223,14.223,0,0,0,1.513-1.036q.829-.669,1.72-1.529c.085-.085.148-.127.191-.127a.113.113,0,0,1,.127.127c0,.043-.043.108-.127.191S2873.319,458.109,2873.277,458.153Z" transform="translate(-2724.981 -440.755)"/><path class="l" d="M2879.416,450.261a11.914,11.914,0,0,1,1.227.064c.414.044.79.091,1.131.143s.611.1.812.144.3.076.3.1c0,.127-.044.191-.128.191-.043,0-.334-.036-.877-.112a15.4,15.4,0,0,0-2.023-.111c-.276,0-.515.012-.718.032s-.366.043-.493.064c-.17.021-.308.043-.414.064q-.86,1.243-1.912,2.821t-1.959,3.234a25.032,25.032,0,0,0-1.514,3.282,8.672,8.672,0,0,0-.6,3,2.312,2.312,0,0,0,.4,1.514,1.421,1.421,0,0,0,1.133.461.264.264,0,0,1,.19.111.324.324,0,0,1,.1.177c0,.063-.037.1-.111.126a.785.785,0,0,1-.208.032,1.682,1.682,0,0,1-.716-.191,2.542,2.542,0,0,1-.765-.589,3.238,3.238,0,0,1-.605-.988,3.664,3.664,0,0,1-.24-1.387,8.933,8.933,0,0,1,.414-2.534,21.629,21.629,0,0,1,1.083-2.836q.669-1.449,1.466-2.932t1.561-2.819a6.57,6.57,0,0,0-1.337.35,2.837,2.837,0,0,1-.511.191q-.191,0-.43-.287a.827.827,0,0,1-.239-.446c0-.085.052-.148.159-.191a6.167,6.167,0,0,1,1.132-.3c.5-.1,1.078-.176,1.736-.24q.892-1.561,1.5-2.757a4.527,4.527,0,0,0,.605-1.8c0-.149.052-.224.159-.224a.747.747,0,0,1,.414.208,2.8,2.8,0,0,1,.494.542,3.615,3.615,0,0,1,.4.716,1.9,1.9,0,0,1,.159.733,2.2,2.2,0,0,1-.414.861q-.414.636-1.115,1.592Z" transform="translate(-2723.855 -441.531)"/><path class="l" d="M2883.808,457.743a.182.182,0,0,1,.129-.064.112.112,0,0,1,.126.127c0,.043-.042.108-.126.191l-.192.192a20.032,20.032,0,0,1-1.88,1.72,14.012,14.012,0,0,1-1.816,1.179,3.965,3.965,0,0,1-1.912.542,2.337,2.337,0,0,1-1.847-.716,2.846,2.846,0,0,1-.637-1.96,5.287,5.287,0,0,1,.46-2.135,8.265,8.265,0,0,1,1.132-1.879,6.839,6.839,0,0,1,1.4-1.339,2.352,2.352,0,0,1,1.275-.51.991.991,0,0,1,.573.176,2.077,2.077,0,0,1,.446.414,1.823,1.823,0,0,1,.287.493,1.242,1.242,0,0,1,.1.382,1.458,1.458,0,0,1-.335.813,6.827,6.827,0,0,1-.86.955,14.34,14.34,0,0,1-1.18.989q-.653.494-1.322.908a1.62,1.62,0,0,0-.079.494c-.012.222-.016.388-.016.493a2.29,2.29,0,0,0,.35,1.275,1.168,1.168,0,0,0,1.052.543,2.956,2.956,0,0,0,1.466-.5,12.2,12.2,0,0,0,1.562-1.1,23.554,23.554,0,0,0,1.784-1.625Zm-6.148.064a10.121,10.121,0,0,0,1.066-.8,12.445,12.445,0,0,0,.956-.892,6.582,6.582,0,0,0,.7-.845,1.286,1.286,0,0,0,.271-.685c0-.234-.085-.35-.255-.35q-.413,0-1.211.909A9.814,9.814,0,0,0,2877.66,457.807Z" transform="translate(-2723.437 -440.793)"/><path class="l" d="M2885.319,458.432a5.414,5.414,0,0,0-.079-1,5.3,5.3,0,0,0-.208-.747c-.212.234-.4.441-.573.621s-.329.346-.478.493l-.446.447c-.085.085-.139.126-.159.126a.112.112,0,0,1-.127-.126c0-.065.1-.192.287-.383.105-.127.234-.265.381-.414.128-.127.271-.276.431-.446s.345-.371.558-.605c-.084-.211-.16-.414-.223-.605a2.237,2.237,0,0,1-.1-.7,1.783,1.783,0,0,1,.255-.892,4.093,4.093,0,0,1,1.355-1.4,1.228,1.228,0,0,1,.589-.224,1.1,1.1,0,0,1,.748.414,1.152,1.152,0,0,1,.4.733c0,.129-.107.27-.319.431s-.452.345-.718.557a5.3,5.3,0,0,0-.716.686,1.211,1.211,0,0,0-.319.812,2.558,2.558,0,0,0,.1.733,3.693,3.693,0,0,0,.24.605c.1.191.194.393.3.607a3.313,3.313,0,0,1,.254.7,4.233,4.233,0,0,1,1.147.319c.256.129.383.234.383.319a.261.261,0,0,1-.112.191.331.331,0,0,1-.207.1,1.1,1.1,0,0,1-.351-.207,2.781,2.781,0,0,0-.828-.367,2.892,2.892,0,0,1,.063.542,2.266,2.266,0,0,1-.237,1.021,3,3,0,0,1-.654.859,3.253,3.253,0,0,1-.94.607,2.811,2.811,0,0,1-1.1.222,2.646,2.646,0,0,1-1.1-.238,3.49,3.49,0,0,1-.923-.605,3.41,3.41,0,0,1-.637-.765,1.417,1.417,0,0,1-.24-.717c0-.233.158-.413.477-.542.129-.043.335-.1.623-.175s.605-.154.955-.24.722-.159,1.115-.223.759-.105,1.1-.127A1.643,1.643,0,0,0,2885.319,458.432Zm-3.441,1.466c-.212.086-.319.191-.319.319,0,.17.155.351.461.543a2.32,2.32,0,0,0,1.228.286,1.679,1.679,0,0,0,1.322-.6,3,3,0,0,0,.686-1.371,8.274,8.274,0,0,0-1.163.143,9.523,9.523,0,0,0-1,.256c-.3.1-.552.186-.765.27A3.935,3.935,0,0,1,2881.878,459.9Z" transform="translate(-2722.908 -440.844)"/></g><g transform="translate(1292.606 817.148)"><path class="m" d="M2822.19,473.321a3.028,3.028,0,0,1,.067-.653,1.883,1.883,0,0,1,.252-.6,2.979,2.979,0,0,1,.5-.592,7.057,7.057,0,0,1,.821-.647,8.532,8.532,0,0,1-.544-.664,3.753,3.753,0,0,1-.348-.566,2.128,2.128,0,0,1-.184-.544,3.239,3.239,0,0,1-.052-.6,3.677,3.677,0,0,1,.085-.789,1.494,1.494,0,0,1,.34-.679,1.78,1.78,0,0,1,.738-.477,3.726,3.726,0,0,1,1.278-.18,3.767,3.767,0,0,1,1.271.18,1.945,1.945,0,0,1,.776.486,1.653,1.653,0,0,1,.39.709,3.3,3.3,0,0,1,.107.841,3.928,3.928,0,0,1-.062.756,1.412,1.412,0,0,1-.251.567,2.633,2.633,0,0,1-.534.524q-.344.264-.9.632l1.531,1.693a5.98,5.98,0,0,0,.139-.622c.033-.2.055-.342.068-.441h1.23c-.009.137-.025.294-.048.472s-.054.365-.09.56-.078.392-.125.589-.1.382-.155.554l1.72,1.873h-1.83l-.669-.714a3.328,3.328,0,0,1-1.171.692,4.149,4.149,0,0,1-1.314.209,6.293,6.293,0,0,1-1.387-.132,2.2,2.2,0,0,1-.94-.437,1.783,1.783,0,0,1-.534-.8A3.705,3.705,0,0,1,2822.19,473.321Zm1.532.04a1.807,1.807,0,0,0,.068.524.753.753,0,0,0,.24.367,1.143,1.143,0,0,0,.474.215,3.363,3.363,0,0,0,.757.071,3.168,3.168,0,0,0,.369-.023,2.415,2.415,0,0,0,.4-.08,2.127,2.127,0,0,0,.4-.16,1.887,1.887,0,0,0,.37-.258l-2.042-2.2a5.945,5.945,0,0,0-.559.464,1.943,1.943,0,0,0-.312.374.946.946,0,0,0-.135.341A2.051,2.051,0,0,0,2823.722,473.36Zm1.326-3.316c.261-.171.473-.32.634-.444a2.2,2.2,0,0,0,.371-.348.884.884,0,0,0,.171-.322,1.485,1.485,0,0,0,.042-.367,2.007,2.007,0,0,0-.048-.476.661.661,0,0,0-.171-.315.687.687,0,0,0-.331-.175,2.3,2.3,0,0,0-.531-.051,1.97,1.97,0,0,0-.521.057.7.7,0,0,0-.325.183.683.683,0,0,0-.165.315,2.073,2.073,0,0,0-.045.46.836.836,0,0,0,.072.319,2.1,2.1,0,0,0,.2.358c.084.124.181.254.293.389S2824.92,469.9,2825.048,470.044Z" transform="translate(-2822.19 -466.336)"/><path class="m" d="M2833.322,466.506h3.6a3.833,3.833,0,0,1,1.153.152,1.837,1.837,0,0,1,.782.465,1.866,1.866,0,0,1,.448.785,3.931,3.931,0,0,1,.142,1.119,2.886,2.886,0,0,1-.113.89,1.616,1.616,0,0,1-.28.541.973.973,0,0,1-.374.287,2.195,2.195,0,0,1-.386.126v.012a2.122,2.122,0,0,1,.277.055,1.807,1.807,0,0,1,.334.129,1.693,1.693,0,0,1,.342.231,1.52,1.52,0,0,1,.3.37,2.091,2.091,0,0,1,.22.544,2.971,2.971,0,0,1,.083.743,4.717,4.717,0,0,1-.168,1.383,1.819,1.819,0,0,1-.5.836,1.838,1.838,0,0,1-.857.412,5.954,5.954,0,0,1-1.213.109h-3.786Zm3.3,3.882a3.362,3.362,0,0,0,.592-.045.81.81,0,0,0,.4-.185.792.792,0,0,0,.229-.39,2.539,2.539,0,0,0,.07-.665,1.677,1.677,0,0,0-.083-.571.836.836,0,0,0-.245-.364.941.941,0,0,0-.4-.194,2.237,2.237,0,0,0-.531-.058h-1.79v2.472Zm.3,3.9a2.776,2.776,0,0,0,.537-.048.9.9,0,0,0,.412-.19.894.894,0,0,0,.264-.4,1.978,1.978,0,0,0,.094-.672,2.3,2.3,0,0,0-.08-.674.784.784,0,0,0-.25-.389.916.916,0,0,0-.432-.177,3.908,3.908,0,0,0-.622-.042h-1.976v2.588Z" transform="translate(-2821.09 -466.319)"/><path class="m" d="M2841.1,466.506h1.531v6.142a3.531,3.531,0,0,0,.1.9,1.139,1.139,0,0,0,.319.557,1.249,1.249,0,0,0,.577.284,3.976,3.976,0,0,0,.869.08,3.574,3.574,0,0,0,.808-.08,1.311,1.311,0,0,0,.576-.284,1.2,1.2,0,0,0,.345-.557,3.041,3.041,0,0,0,.112-.9v-6.142h1.533v6.232a4.755,4.755,0,0,1-.183,1.4,2.253,2.253,0,0,1-.589.982,2.542,2.542,0,0,1-1.046.582,5.454,5.454,0,0,1-1.555.193,5.564,5.564,0,0,1-1.558-.19,2.553,2.553,0,0,1-1.053-.576,2.251,2.251,0,0,1-.6-.976,4.581,4.581,0,0,1-.187-1.388Z" transform="translate(-2820.323 -466.319)"/><path class="m" d="M2849.482,466.506h1.545v9.187h-1.545Z" transform="translate(-2819.495 -466.319)"/><path class="m" d="M2853.141,466.506h1.545v7.752h3.8v1.435h-5.343Z" transform="translate(-2819.133 -466.319)"/><path class="m" d="M2859.448,466.506h3.3a6.492,6.492,0,0,1,.976.07,3.32,3.32,0,0,1,.867.252,2.515,2.515,0,0,1,.728.5,2.764,2.764,0,0,1,.56.824,4.966,4.966,0,0,1,.356,1.211,9.628,9.628,0,0,1,.126,1.66,11.156,11.156,0,0,1-.115,1.716,5.363,5.363,0,0,1-.335,1.248,2.78,2.78,0,0,1-.534.85,2.42,2.42,0,0,1-.719.522,3.134,3.134,0,0,1-.882.26,7.044,7.044,0,0,1-1.027.07h-3.3Zm2.879,7.752c.219,0,.43-.006.637-.017a1.981,1.981,0,0,0,.576-.113,1.488,1.488,0,0,0,.489-.292,1.563,1.563,0,0,0,.38-.557,3.761,3.761,0,0,0,.245-.911,8.978,8.978,0,0,0,.088-1.355,8.215,8.215,0,0,0-.084-1.266,3.428,3.428,0,0,0-.239-.859,1.54,1.54,0,0,0-.371-.531,1.411,1.411,0,0,0-.485-.284,2.208,2.208,0,0,0-.584-.113c-.208-.013-.426-.019-.653-.019h-1.333v6.316Z" transform="translate(-2818.51 -466.319)"/><path class="m" d="M2867.6,466.506h5.524v1.436h-3.979v2.414h3.335v1.41h-3.335v2.492h4.088v1.435H2867.6Z" transform="translate(-2817.705 -466.319)"/><path class="m" d="M2874.448,466.506h3.419a5.323,5.323,0,0,1,.717.048,2.9,2.9,0,0,1,.664.17,2.121,2.121,0,0,1,.569.332,1.928,1.928,0,0,1,.447.537,2.777,2.777,0,0,1,.293.786,4.976,4.976,0,0,1,.1,1.076,3.618,3.618,0,0,1-.068.736,2.814,2.814,0,0,1-.18.577,2.114,2.114,0,0,1-.257.437,2.522,2.522,0,0,1-.293.322,2.009,2.009,0,0,1-.8.432v.013l1.938,3.72h-1.764l-1.72-3.373h-1.525v3.373h-1.546Zm3.406,4.359q1.21,0,1.211-1.5a2.215,2.215,0,0,0-.088-.667,1.07,1.07,0,0,0-.25-.441.953.953,0,0,0-.4-.242,1.685,1.685,0,0,0-.515-.074h-1.822v2.923Z" transform="translate(-2817.028 -466.319)"/><path class="m" d="M2881.742,474.338c.219.031.455.056.708.078.219.021.469.038.75.051s.578.02.891.02a4.832,4.832,0,0,0,.992-.08,1.331,1.331,0,0,0,.559-.238.7.7,0,0,0,.249-.39,2.348,2.348,0,0,0,.055-.534,3.8,3.8,0,0,0-.023-.434.974.974,0,0,0-.105-.352.831.831,0,0,0-.239-.267,1.284,1.284,0,0,0-.425-.183l-1.874-.489a2.64,2.64,0,0,1-.754-.312,1.6,1.6,0,0,1-.5-.5,2.192,2.192,0,0,1-.277-.731,5.173,5.173,0,0,1-.087-1.008,3.085,3.085,0,0,1,.207-1.182,2.129,2.129,0,0,1,.582-.821,2.41,2.41,0,0,1,.911-.476,4.275,4.275,0,0,1,1.191-.155,7.549,7.549,0,0,1,1,.062q.454.061.782.132a7.138,7.138,0,0,1,.7.187v1.191c-.193-.026-.4-.049-.612-.071-.185-.021-.391-.04-.621-.055s-.467-.022-.712-.022c-.381,0-.7.013-.94.038a1.478,1.478,0,0,0-.58.161.654.654,0,0,0-.3.347,1.751,1.751,0,0,0-.083.6,2.782,2.782,0,0,0,.022.367.679.679,0,0,0,.1.284.7.7,0,0,0,.232.212,1.841,1.841,0,0,0,.41.167l1.748.5a6.224,6.224,0,0,1,.6.2,1.988,1.988,0,0,1,.455.252,1.537,1.537,0,0,1,.332.337,1.622,1.622,0,0,1,.223.46,3.224,3.224,0,0,1,.122.627,7.671,7.671,0,0,1,.039.831,5.494,5.494,0,0,1-.125,1.259,1.689,1.689,0,0,1-.475.856,2.123,2.123,0,0,1-.957.489,6.431,6.431,0,0,1-1.575.158,9.409,9.409,0,0,1-1.241-.068,6.809,6.809,0,0,1-.8-.151,2.268,2.268,0,0,1-.561-.22Z" transform="translate(-2816.316 -466.336)"/></g></g></svg>