<svg xmlns="http://www.w3.org/2000/svg" width="306" height="216" viewBox="0 0 306 216"><defs><style>.a{fill:#f7f7f7;}.b{fill:#5d5c62;}</style></defs><g transform="translate(-5962 -893)"><rect class="a" width="306" height="216" transform="translate(5962 893)"/><g transform="translate(6042 994.402)"><path class="b" d="M2176.211,1631.937l-.8,3.276H2171.5l4.1-14.133h5.043l4.216,14.133h-4.09l-.9-3.276Zm3.134-2.794-.655-2.543c-.215-.8-.482-1.95-.7-2.784h-.042c-.209.834-.419,2-.623,2.8l-.608,2.527Z" transform="translate(-2171.498 -1620.859)"/><path class="b" d="M2190.3,1621.08h3.749v6h.048c.282-.529.6-1.048.906-1.557l2.715-4.444h4.65l-4.488,6.018,4.666,8.115h-4.393l-2.973-5.729-1.131,1.447v4.282H2190.3Z" transform="translate(-2175.137 -1620.859)"/><path class="b" d="M2218.978,1630.154c-.047-1.6-.085-3.491-.079-5.7h-.057c-.435,1.881-1.033,3.99-1.489,5.54l-1.4,4.928h-2.962l-1.185-4.912c-.361-1.52-.8-3.612-1.126-5.557h-.042c-.079,1.992-.152,4.1-.215,5.7l-.215,5.058h-3.486l.87-14.133h5.1l.933,3.8c.389,1.573.807,3.444,1.1,5.18h.073c.394-1.724.865-3.722,1.279-5.211l1.06-3.774h4.98l.708,14.133h-3.675Z" transform="translate(-2178.315 -1620.859)"/><path class="b" d="M2232.969,1631.937l-.8,3.276h-3.916l4.1-14.133h5.043l4.214,14.133h-4.089l-.9-3.276Zm3.134-2.794-.655-2.543c-.215-.8-.482-1.95-.7-2.784h-.042c-.21.834-.42,2-.624,2.8l-.608,2.527Z" transform="translate(-2182.482 -1620.859)"/><path class="b" d="M2247.06,1621.08h3.785v10.961h5.441v3.172h-9.226Z" transform="translate(-2186.122 -1620.859)"/><path class="b" d="M2274.8,1629.515h-5.08v2.6h5.678v3.093h-9.462V1621.08h9.169v3.093h-5.384v2.28h5.08Z" transform="translate(-2189.775 -1620.859)"/><path class="b" d="M2280.428,1631.4a8.682,8.682,0,0,0,3.665.875c1.294,0,1.934-.451,1.934-1.163,0-.677-.635-1.075-2.234-1.62-2.379-.844-3.968-2.16-3.968-4.262,0-2.5,2.107-4.42,5.678-4.42a9.244,9.244,0,0,1,3.822.724l-.792,3.024a7.459,7.459,0,0,0-3.071-.671c-1.153,0-1.788.425-1.788,1.043,0,.718.75,1.007,2.532,1.672,2.548.933,3.685,2.3,3.685,4.262,0,2.443-1.9,4.52-6.023,4.52a10.113,10.113,0,0,1-4.157-.861Z" transform="translate(-2192.44 -1620.806)"/><path class="b" d="M2297.408,1624.256h-3.6v-3.176h11.056v3.176h-3.67v10.957h-3.785Z" transform="translate(-2195.169 -1620.859)"/><path class="b" d="M2310.968,1631.937l-.8,3.276h-3.916l4.1-14.133h5.043l4.215,14.133h-4.089l-.9-3.276Zm3.134-2.794-.655-2.543c-.215-.8-.482-1.95-.7-2.784h-.042c-.21.834-.42,2-.623,2.8l-.608,2.527Z" transform="translate(-2197.578 -1620.859)"/><path class="b" d="M2325.125,1624.256h-3.6v-3.176h11.056v3.176h-3.67v10.957h-3.785Z" transform="translate(-2200.533 -1620.859)"/><path class="b" d="M2346.272,1629.515h-5.079v2.6h5.677v3.093h-9.463V1621.08h9.169v3.093h-5.383v2.28h5.079Z" transform="translate(-2203.607 -1620.859)"/></g><g transform="translate(6042.591 1014.369)"><path class="b" d="M2172.231,1646.167a11.091,11.091,0,0,1,1.959-.158,3.233,3.233,0,0,1,2.208.656,2.143,2.143,0,0,1,.694,1.649,2.315,2.315,0,0,1-.613,1.686,3.258,3.258,0,0,1-2.407.863,3.325,3.325,0,0,1-.823-.073v3.161h-1.017Zm1.017,3.794a3.14,3.14,0,0,0,.844.089c1.233,0,1.979-.606,1.979-1.682,0-1.043-.744-1.553-1.86-1.553a4.9,4.9,0,0,0-.963.081Z" transform="translate(-2172.231 -1645.65)"/><path class="b" d="M2179.72,1650.576c0-.667-.016-1.236-.046-1.761h.9l.04,1.11h.036a1.717,1.717,0,0,1,1.574-1.238,1.173,1.173,0,0,1,.286.029v.967a1.651,1.651,0,0,0-.35-.03,1.435,1.435,0,0,0-1.376,1.315,2.72,2.72,0,0,0-.042.481v3.02h-1.023Z" transform="translate(-2173.671 -1646.168)"/><path class="b" d="M2189.35,1651.588a2.77,2.77,0,0,1-2.812,3.009,2.691,2.691,0,0,1-2.718-2.912,2.762,2.762,0,0,1,2.808-3A2.674,2.674,0,0,1,2189.35,1651.588Zm-4.483.065c0,1.24.711,2.174,1.714,2.174.986,0,1.722-.92,1.722-2.2,0-.957-.482-2.166-1.7-2.166S2184.867,1650.581,2184.867,1651.653Z" transform="translate(-2174.474 -1646.168)"/><path class="b" d="M2192.277,1650.656c0-.72-.019-1.308-.047-1.842h.918l.058.965h.023a2.206,2.206,0,0,1,2.007-1.093c1.369,0,2.4,1.153,2.4,2.87,0,2.037-1.247,3.041-2.572,3.041a1.973,1.973,0,0,1-1.742-.89h-.023v3.077h-1.022Zm1.022,1.511a1.9,1.9,0,0,0,.044.418,1.579,1.579,0,0,0,1.538,1.206c1.089,0,1.718-.894,1.718-2.189,0-1.128-.59-2.1-1.679-2.1a1.633,1.633,0,0,0-1.555,1.269,1.771,1.771,0,0,0-.066.418Z" transform="translate(-2176.101 -1646.168)"/><path class="b" d="M2201.075,1651.827a1.806,1.806,0,0,0,1.936,1.963,3.807,3.807,0,0,0,1.565-.289l.18.73a4.55,4.55,0,0,1-1.886.361,2.635,2.635,0,0,1-2.781-2.853c0-1.714,1.009-3.052,2.66-3.052a2.384,2.384,0,0,1,2.326,2.659,2.454,2.454,0,0,1-.035.482Zm3.01-.74a1.459,1.459,0,0,0-1.418-1.664,1.69,1.69,0,0,0-1.579,1.664Z" transform="translate(-2177.622 -1646.168)"/><path class="b" d="M2207.85,1650.576c0-.667-.016-1.236-.046-1.761h.9l.04,1.11h.036a1.716,1.716,0,0,1,1.574-1.238,1.178,1.178,0,0,1,.286.029v.967a1.664,1.664,0,0,0-.35-.03,1.435,1.435,0,0,0-1.376,1.315,2.631,2.631,0,0,0-.042.481v3.02h-1.023Z" transform="translate(-2179.115 -1646.168)"/><path class="b" d="M2214.017,1646.828v1.627h1.477v.779h-1.477v3.047c0,.7.2,1.1.777,1.1a2.037,2.037,0,0,0,.6-.075l.046.781a2.629,2.629,0,0,1-.918.141,1.436,1.436,0,0,1-1.11-.435,2.159,2.159,0,0,1-.4-1.474v-3.088h-.876v-.779h.876v-1.361Z" transform="translate(-2179.953 -1645.809)"/><path class="b" d="M2218.018,1648.845l1.235,3.343c.133.373.272.817.365,1.153h.029c.1-.333.226-.766.361-1.176l1.119-3.32h1.09l-1.547,4.027c-.732,1.944-1.236,2.934-1.936,3.546a2.841,2.841,0,0,1-1.262.661l-.255-.86a2.7,2.7,0,0,0,.9-.5,3.274,3.274,0,0,0,.86-1.146.626.626,0,0,0,.079-.248.666.666,0,0,0-.072-.264l-2.085-5.215Z" transform="translate(-2180.876 -1646.199)"/><path class="b" d="M2227.539,1652.7a3.541,3.541,0,0,0,1.817.511c1.041,0,1.653-.544,1.653-1.342,0-.731-.427-1.161-1.489-1.559-1.286-.456-2.084-1.132-2.084-2.235a2.271,2.271,0,0,1,2.554-2.138,3.608,3.608,0,0,1,1.738.382l-.284.834a2.991,2.991,0,0,0-1.488-.374c-1.082,0-1.491.642-1.491,1.178,0,.731.48,1.093,1.567,1.513,1.337.524,2.01,1.165,2.01,2.321,0,1.209-.891,2.272-2.757,2.272a4.039,4.039,0,0,1-2.014-.514Z" transform="translate(-2182.883 -1645.635)"/><path class="b" d="M2237.962,1654.468l-.09-.715h-.031a2.1,2.1,0,0,1-1.73.843,1.612,1.612,0,0,1-1.727-1.622c0-1.37,1.214-2.121,3.4-2.107v-.119a1.164,1.164,0,0,0-1.287-1.3,2.749,2.749,0,0,0-1.473.421l-.234-.684a3.551,3.551,0,0,1,1.866-.5c1.728,0,2.149,1.182,2.149,2.314v2.115a8.792,8.792,0,0,0,.086,1.353Zm-.16-2.887c-1.113-.023-2.386.177-2.386,1.269a.9.9,0,0,0,.959.985,1.415,1.415,0,0,0,1.377-.947,1.076,1.076,0,0,0,.049-.323Z" transform="translate(-2184.26 -1646.168)"/><path class="b" d="M2241.924,1645.564h1.023v8.3h-1.023Z" transform="translate(-2185.719 -1645.564)"/><path class="b" d="M2245.822,1651.827a1.805,1.805,0,0,0,1.935,1.963,3.807,3.807,0,0,0,1.565-.289l.181.73a4.553,4.553,0,0,1-1.886.361,2.635,2.635,0,0,1-2.781-2.853c0-1.714,1.009-3.052,2.661-3.052a2.385,2.385,0,0,1,2.327,2.659,2.533,2.533,0,0,1-.035.482Zm3.009-.74a1.459,1.459,0,0,0-1.418-1.664,1.69,1.69,0,0,0-1.579,1.664Z" transform="translate(-2186.282 -1646.168)"/><path class="b" d="M2255.721,1646.167a11.074,11.074,0,0,1,1.958-.158,3.234,3.234,0,0,1,2.209.656,2.145,2.145,0,0,1,.693,1.649,2.315,2.315,0,0,1-.613,1.686,3.257,3.257,0,0,1-2.407.863,3.328,3.328,0,0,1-.823-.073v3.161h-1.016Zm1.016,3.794a3.144,3.144,0,0,0,.844.089c1.235,0,1.979-.606,1.979-1.682,0-1.043-.743-1.553-1.86-1.553a4.9,4.9,0,0,0-.963.081Z" transform="translate(-2188.389 -1645.65)"/><path class="b" d="M2267.943,1652.952c0,.593.019,1.1.047,1.548h-.909l-.055-.924H2267a2.111,2.111,0,0,1-1.872,1.052c-.885,0-1.947-.5-1.947-2.478v-3.3h1.023v3.124c0,1.077.336,1.81,1.264,1.81a1.5,1.5,0,0,0,1.361-.943,1.587,1.587,0,0,0,.094-.528v-3.463h1.023Z" transform="translate(-2189.832 -1646.199)"/><path class="b" d="M2271.2,1650.576c0-.667-.017-1.236-.047-1.761h.9l.04,1.11h.036a1.717,1.717,0,0,1,1.574-1.238,1.186,1.186,0,0,1,.287.029v.967a1.669,1.669,0,0,0-.351-.03,1.436,1.436,0,0,0-1.376,1.315,2.72,2.72,0,0,0-.042.481v3.02H2271.2Z" transform="translate(-2191.376 -1646.168)"/><path class="b" d="M2279.743,1654.264a3.909,3.909,0,0,1-1.623.327,2.694,2.694,0,0,1-2.821-2.889,2.879,2.879,0,0,1,3.037-3.015,3.316,3.316,0,0,1,1.429.3l-.228.79a2.493,2.493,0,0,0-1.2-.273,1.962,1.962,0,0,0-1.993,2.141,1.94,1.94,0,0,0,1.969,2.115,2.992,2.992,0,0,0,1.259-.272Z" transform="translate(-2192.178 -1646.169)"/><path class="b" d="M2282.306,1645.564h1.023v3.529h.023a2.028,2.028,0,0,1,.74-.725,2.064,2.064,0,0,1,1.052-.286c.762,0,1.971.464,1.971,2.415v3.367h-1.024v-3.254c0-.913-.345-1.679-1.307-1.679a1.5,1.5,0,0,0-1.388,1.026,1.406,1.406,0,0,0-.069.49v3.417h-1.023Z" transform="translate(-2193.534 -1645.564)"/><path class="b" d="M2293.381,1654.468l-.09-.715h-.031a2.1,2.1,0,0,1-1.73.843,1.612,1.612,0,0,1-1.727-1.622c0-1.37,1.214-2.121,3.4-2.107v-.119a1.164,1.164,0,0,0-1.287-1.3,2.749,2.749,0,0,0-1.472.421l-.234-.684a3.552,3.552,0,0,1,1.866-.5c1.729,0,2.149,1.182,2.149,2.314v2.115a8.759,8.759,0,0,0,.086,1.353Zm-.16-2.887c-1.113-.023-2.386.177-2.386,1.269a.9.9,0,0,0,.96.985,1.414,1.414,0,0,0,1.377-.947,1.076,1.076,0,0,0,.049-.323Z" transform="translate(-2194.985 -1646.168)"/><path class="b" d="M2297.1,1653.422a2.811,2.811,0,0,0,1.363.4c.751,0,1.1-.369,1.1-.842,0-.494-.3-.753-1.051-1.035-1.021-.37-1.5-.926-1.5-1.6a1.748,1.748,0,0,1,1.956-1.658,2.72,2.72,0,0,1,1.384.348l-.255.748a2.223,2.223,0,0,0-1.16-.334c-.606,0-.937.35-.937.777,0,.468.333.677,1.073.965.975.363,1.48.854,1.484,1.7,0,1-.779,1.7-2.115,1.7a3.232,3.232,0,0,1-1.589-.394Z" transform="translate(-2196.349 -1646.168)"/><path class="b" d="M2303.56,1651.827a1.805,1.805,0,0,0,1.935,1.963,3.811,3.811,0,0,0,1.566-.289l.18.73a4.549,4.549,0,0,1-1.886.361,2.635,2.635,0,0,1-2.781-2.853c0-1.714,1.009-3.052,2.661-3.052a2.385,2.385,0,0,1,2.327,2.659,2.508,2.508,0,0,1-.036.482Zm3.009-.74a1.459,1.459,0,0,0-1.418-1.664,1.691,1.691,0,0,0-1.579,1.664Z" transform="translate(-2197.457 -1646.168)"/><path class="b" d="M2318.273,1653.934c-.227-.227-.43-.449-.736-.768a3.254,3.254,0,0,1-2.3.9,2.234,2.234,0,0,1-2.423-2.21,2.6,2.6,0,0,1,1.537-2.3v-.036a2.73,2.73,0,0,1-.656-1.644,1.918,1.918,0,0,1,2.005-1.945,1.639,1.639,0,0,1,1.743,1.673c0,.827-.485,1.48-1.729,2.1l0,.039c.668.773,1.414,1.627,1.921,2.192a5.808,5.808,0,0,0,.758-2.3h.933a5.95,5.95,0,0,1-1.135,2.907c.423.451.83.89,1.306,1.394Zm-1.245-1.356c-.467-.51-1.344-1.476-2.212-2.481a1.919,1.919,0,0,0-1.019,1.6,1.547,1.547,0,0,0,1.607,1.591A2.18,2.18,0,0,0,2317.028,1652.579Zm-2.4-4.807a2.241,2.241,0,0,0,.6,1.419c.8-.456,1.309-.875,1.309-1.542a.931.931,0,0,0-.917-1.021A1.031,1.031,0,0,0,2314.633,1647.771Z" transform="translate(-2199.438 -1645.634)"/><path class="b" d="M2325.306,1646.179a10.75,10.75,0,0,1,1.957-.17,3.246,3.246,0,0,1,2.283.649,1.972,1.972,0,0,1,.619,1.5,2.081,2.081,0,0,1-1.486,2.008v.028a2,2,0,0,1,1.156,1.595,13.239,13.239,0,0,0,.606,2.163h-1.056a10.487,10.487,0,0,1-.517-1.886c-.234-1.079-.66-1.5-1.581-1.528h-.964v3.415h-1.016Zm1.016,3.587h1.04c1.089,0,1.78-.594,1.78-1.5,0-1.023-.739-1.468-1.812-1.469a4.414,4.414,0,0,0-1.007.089Z" transform="translate(-2201.856 -1645.65)"/><path class="b" d="M2333.6,1651.827a1.8,1.8,0,0,0,1.935,1.963,3.813,3.813,0,0,0,1.566-.289l.18.73a4.55,4.55,0,0,1-1.886.361,2.635,2.635,0,0,1-2.781-2.853c0-1.714,1.009-3.052,2.661-3.052a2.384,2.384,0,0,1,2.326,2.659,2.557,2.557,0,0,1-.035.482Zm3.009-.74a1.459,1.459,0,0,0-1.418-1.664,1.692,1.692,0,0,0-1.579,1.664Z" transform="translate(-2203.271 -1646.168)"/><path class="b" d="M2340.381,1650.342c0-.59-.02-1.059-.047-1.528h.908l.056.931h.029a2.086,2.086,0,0,1,1.87-1.059c.776,0,1.992.467,1.992,2.41v3.373h-1.023v-3.26c0-.914-.344-1.679-1.306-1.679a1.481,1.481,0,0,0-1.386,1.055,1.579,1.579,0,0,0-.071.477v3.407h-1.022Z" transform="translate(-2204.764 -1646.168)"/><path class="b" d="M2349.416,1646.828v1.627h1.478v.779h-1.478v3.047c0,.7.2,1.1.778,1.1a2.036,2.036,0,0,0,.6-.075l.047.781a2.633,2.633,0,0,1-.918.141,1.436,1.436,0,0,1-1.11-.435,2.164,2.164,0,0,1-.4-1.474v-3.088h-.876v-.779h.876v-1.361Z" transform="translate(-2206.157 -1645.809)"/></g></g></svg>