<svg xmlns="http://www.w3.org/2000/svg" width="306" height="216" viewBox="0 0 306 216"><defs><style>.a{fill:#f7f7f7;}.b{fill:#e9a97b;}.c{fill:#626668;}</style></defs><g transform="translate(-1451 -650)"><rect class="a" width="306" height="216" transform="translate(1451 650)"/><rect class="b" width="9.36" height="9.36" transform="translate(1529.831 772.28)"/><rect class="b" width="9.36" height="9.36" transform="translate(1542.386 772.28)"/><rect class="b" width="9.36" height="9.36" transform="translate(1554.94 772.28)"/><rect class="b" width="9.36" height="9.36" transform="translate(1529.831 785.359)"/><rect class="b" width="9.36" height="9.36" transform="translate(1542.386 785.359)"/><rect class="b" width="9.36" height="9.36" transform="translate(1554.94 785.359)"/><rect class="b" width="9.36" height="9.36" transform="translate(1529.831 798.439)"/><rect class="b" width="9.36" height="9.36" transform="translate(1542.386 798.439)"/><rect class="c" width="131.131" height="9.36" transform="translate(1554.94 798.439)"/><path class="b" d="M2375.658,160.157l46.08-16.56,38.52,12.24-38.52-7.2Z" transform="translate(-853.658 608.403)"/><rect class="b" width="5.28" height="4.878" transform="translate(1540.488 757.841)"/><g transform="translate(-853.658 608.403)"><path class="c" d="M2427.443,170.553l-.96,1.847H2424.8l4.2-7.8h2.017l1.012,7.8h-1.6l-.242-1.847Zm2.684-1.306c-.179-1.608-.295-2.717-.333-3.424h-.011c-.359.776-.991,2.031-1.716,3.424Z"/><path class="c" d="M2434.38,164.6h2.973c1.56,0,2.311.844,2.311,1.937a1.921,1.921,0,0,1-1.381,1.893,1.687,1.687,0,0,1,.99,1.531c0,1.575-1.229,2.436-3.052,2.436h-3.494Zm.179,6.56h1.538c.864,0,1.5-.4,1.5-1.211,0-.626-.354-1-1.309-1h-1.265Zm2.088-3.453c.788,0,1.381-.282,1.381-1.019,0-.688-.53-.85-1.043-.85h-1.305l-.392,1.869Z"/><path class="c" d="M2441.622,164.6h2.513a3.076,3.076,0,0,1,3.345,3.315,4.235,4.235,0,0,1-4.486,4.482h-3.026Zm.211,6.519h1.212c1.688,0,2.748-1.189,2.749-3.174,0-1.379-.671-2.068-1.858-2.068h-1Z"/><path class="c" d="M2451.18,164.6l-1.029,4.809c-.271,1.266.245,1.841,1.254,1.841,1.081,0,1.49-.492,1.759-1.719l1.039-4.931h1.6l-1.079,5.057c-.419,1.891-1.3,2.85-3.467,2.85-1.833,0-3.176-.851-2.681-3.2l1.01-4.708Z"/><path class="c" d="M2457.417,164.6h1.592l-1.373,6.489h3.743l-.45,1.308h-5.166Z"/><path class="c" d="M2463.64,164.6h1.592l-1.372,6.489h3.742l-.449,1.308h-5.167Z"/><path class="c" d="M2470.393,170.553l-.96,1.847h-1.677l4.2-7.8h2.017l1.011,7.8h-1.6l-.241-1.847Zm2.685-1.306c-.18-1.608-.3-2.717-.333-3.424h-.011c-.359.776-.99,2.031-1.716,3.424Z"/><path class="c" d="M2477.33,164.6h1.592l-.644,3.024h3.038l.644-3.024h1.592l-1.654,7.8h-1.592l.737-3.466h-3.037l-.738,3.466h-1.591Z"/></g><g transform="translate(-853.658 608.403)"><path class="c" d="M2430.2,182.852h.234l-.144,2.061H2424.8v-.225h.137a1.024,1.024,0,0,0,.637-.132.587.587,0,0,0,.183-.335,7.693,7.693,0,0,0,.039-1.032v-3.247a7.315,7.315,0,0,0-.041-1,.466.466,0,0,0-.191-.334,1.327,1.327,0,0,0-.627-.1v-.224h4.736l.152,1.65h-.225a2.589,2.589,0,0,0-.383-.984.957.957,0,0,0-.54-.365,4.671,4.671,0,0,0-1.006-.077h-.918v2.779h.7a1.927,1.927,0,0,0,.679-.083.437.437,0,0,0,.255-.252,2.3,2.3,0,0,0,.061-.656h.224v2.265h-.224a1.925,1.925,0,0,0-.094-.74.45.45,0,0,0-.271-.244,2.281,2.281,0,0,0-.6-.056h-.73V183.1a3.391,3.391,0,0,0,.152,1.385c.1.138.372.207.814.207h.492a2.349,2.349,0,0,0,.858-.133,1.517,1.517,0,0,0,.641-.55A3.215,3.215,0,0,0,2430.2,182.852Z"/><path class="c" d="M2431.043,185.04v-1.314h.19q.333,1.139,1.187,1.138a.672.672,0,0,0,.554-.225.762.762,0,0,0,.183-.493.7.7,0,0,0-.2-.512,3.12,3.12,0,0,0-.776-.484,2.945,2.945,0,0,1-.87-.586.989.989,0,0,1-.263-.7,1.2,1.2,0,0,1,.283-.754.954.954,0,0,1,.8-.359,1.062,1.062,0,0,1,.864.425,1.307,1.307,0,0,0,.191-.357h.18v1.235h-.18a1.7,1.7,0,0,0-.379-.764.856.856,0,0,0-.661-.32.643.643,0,0,0-.474.181.574.574,0,0,0-.181.42.607.607,0,0,0,.2.454,2.72,2.72,0,0,0,.748.444,2.124,2.124,0,0,1,1.015.733,1.515,1.515,0,0,1,.186.693,1.118,1.118,0,0,1-.345.85,1.206,1.206,0,0,1-.866.327,1.319,1.319,0,0,1-.982-.454,1.11,1.11,0,0,0-.215.42Z"/><path class="c" d="M2436.617,181.134h-1.206v2.417a3.639,3.639,0,0,0,.049.749.532.532,0,0,0,.207.31.562.562,0,0,0,.339.117.733.733,0,0,0,.611-.4l.156.093a1.039,1.039,0,0,1-.447.485,1.223,1.223,0,0,1-.6.164.98.98,0,0,1-.618-.207.874.874,0,0,1-.332-.486,4.859,4.859,0,0,1-.066-.977v-2.265h-.578v-.223a1.008,1.008,0,0,0,.716-.336,1.623,1.623,0,0,0,.4-.918h.157v1.252h1.206Z"/><path class="c" d="M2441.095,184.18h.178q-.044.836-.818.835a.745.745,0,0,1-.523-.175.885.885,0,0,1-.251-.523,5.15,5.15,0,0,1-.892.523,1.845,1.845,0,0,1-.722.175,1.089,1.089,0,0,1-.7-.234.752.752,0,0,1-.293-.62,1.091,1.091,0,0,1,.492-.879,6.011,6.011,0,0,1,1.357-.732l.758-.308v-.2a2.428,2.428,0,0,0-.053-.6.619.619,0,0,0-.28-.332,1.065,1.065,0,0,0-.592-.146q-.735,0-.818.488t-.41.5c-.2,0-.3-.1-.3-.283a.851.851,0,0,1,.4-.6,1.934,1.934,0,0,1,1.23-.32,1.958,1.958,0,0,1,.962.195,1.018,1.018,0,0,1,.452.444,2,2,0,0,1,.109.762v1.616a2.721,2.721,0,0,0,.059.728.245.245,0,0,0,.255.161C2440.909,184.659,2441.043,184.5,2441.095,184.18Zm-1.414-1.709-.533.215q-1.265.513-1.264,1.289a.734.734,0,0,0,.162.5.531.531,0,0,0,.421.188,1.244,1.244,0,0,0,.534-.151,3.906,3.906,0,0,0,.68-.454Z"/><path class="c" d="M2443.922,181.134h-1.206v2.417a3.644,3.644,0,0,0,.049.749.534.534,0,0,0,.207.31.562.562,0,0,0,.34.117.732.732,0,0,0,.61-.4l.156.093a1.04,1.04,0,0,1-.447.485,1.22,1.22,0,0,1-.6.164.976.976,0,0,1-.617-.207.869.869,0,0,1-.332-.486,4.883,4.883,0,0,1-.066-.977v-2.265h-.579v-.223a1.007,1.007,0,0,0,.716-.336,1.632,1.632,0,0,0,.405-.918h.156v1.252h1.206Z"/><path class="c" d="M2447.987,182.271h-2.793q-.02.288-.02.429a3.023,3.023,0,0,0,.331,1.582,1.086,1.086,0,0,0,.986.528,1.289,1.289,0,0,0,1.262-.8h.234a1.376,1.376,0,0,1-.621.78,1.932,1.932,0,0,1-1.012.28,1.907,1.907,0,0,1-.961-.257,2.045,2.045,0,0,1-.741-.724,2.134,2.134,0,0,1-.288-1.138,2.283,2.283,0,0,1,.557-1.575,1.788,1.788,0,0,1,1.394-.627,1.55,1.55,0,0,1,1.217.48A1.639,1.639,0,0,1,2447.987,182.271Zm-.855-.2a1.52,1.52,0,0,0,.015-.2.838.838,0,0,0-.871-.9q-.891,0-1.063,1.1Z"/><path class="c" d="M2454.974,180.914h2.09v.224a1.637,1.637,0,0,0-.691.381,3.052,3.052,0,0,0-.608,1.031,4.594,4.594,0,0,1-.483.918,3.98,3.98,0,0,0,.82.947,1.114,1.114,0,0,0,.635.2.776.776,0,0,0,.708-.435h.225a1.127,1.127,0,0,1-.438.647,1.263,1.263,0,0,1-.773.247,2.079,2.079,0,0,1-1.675-.957,2.457,2.457,0,0,1-1.817.957,1.917,1.917,0,0,1-1.591-.864,1.684,1.684,0,0,1-.269-.947,1.6,1.6,0,0,1,.334-1.034,6.1,6.1,0,0,1,1.282-1.051,2.555,2.555,0,0,1-.571-1.441,1.256,1.256,0,0,1,.391-.906,1.317,1.317,0,0,1,.981-.4,1.622,1.622,0,0,1,.952.3.915.915,0,0,1,.425.782c0,.5-.469.988-1.406,1.459q.868,1.178,1.64,2.276a3.69,3.69,0,0,0,.44-.808,1.985,1.985,0,0,0,.161-.652q0-.561-.762-.65Zm-2.1.464a2.47,2.47,0,0,0-.786.73,1.456,1.456,0,0,0-.279.808,1.675,1.675,0,0,0,.484,1.136,1.45,1.45,0,0,0,1.093.534,1.654,1.654,0,0,0,1.255-.669Q2453.613,182.349,2452.87,181.378Zm.488-.591q.977-.571.977-1.235a.927.927,0,0,0-.218-.64.8.8,0,0,0-1.137-.01.831.831,0,0,0-.213.581A2.545,2.545,0,0,0,2453.358,180.787Z"/><path class="c" d="M2463.426,181.344a2.816,2.816,0,0,1,1.675.562,1.529,1.529,0,0,1,.547,1.2,1.643,1.643,0,0,1-.371,1.077,1.717,1.717,0,0,1-.949.592,6.888,6.888,0,0,1-1.551.14h-2.6v-.225h.254a1.15,1.15,0,0,0,.588-.107.491.491,0,0,0,.208-.334,7.529,7.529,0,0,0,.044-1.058v-3.222a6.956,6.956,0,0,0-.047-1.04.454.454,0,0,0-.2-.323,1.544,1.544,0,0,0-.654-.088h-.128v-.224l1.089-.029,1.242-.04q2.716,0,2.717,1.561a1.278,1.278,0,0,1-.466,1.033A2.8,2.8,0,0,1,2463.426,181.344Zm-1.2-.093c.081,0,.149,0,.205,0a2.286,2.286,0,0,0,1.441-.332,1.351,1.351,0,0,0,.385-1.075,1.724,1.724,0,0,0-.151-.8,1.023,1.023,0,0,0-.454-.437,2.471,2.471,0,0,0-1.035-.154c-.127,0-.257.005-.391.014Zm0,.239v1.475q0,.942.034,1.2a.605.605,0,0,0,.183.386.93.93,0,0,0,.589.132,1.571,1.571,0,0,0,1.172-.4,1.656,1.656,0,0,0,.39-1.2,1.528,1.528,0,0,0-.442-1.209,2.385,2.385,0,0,0-1.555-.388C2462.484,181.48,2462.36,181.483,2462.23,181.49Z"/><path class="c" d="M2470.338,180.914v2.622c0,.436.007.71.02.82a.326.326,0,0,0,.145.249.846.846,0,0,0,.446.083v.225a3.05,3.05,0,0,0-1.084.156h-.059a2.048,2.048,0,0,1-.166-.928,2.179,2.179,0,0,1-.68.7,1.6,1.6,0,0,1-.848.234,1.357,1.357,0,0,1-.708-.183,1,1,0,0,1-.423-.447,2.112,2.112,0,0,1-.114-.8v-1.362a7.9,7.9,0,0,0-.025-.848.3.3,0,0,0-.154-.226,1.056,1.056,0,0,0-.476-.074v-.224h1.353v2.773a2.615,2.615,0,0,0,.049.6.585.585,0,0,0,.25.325.8.8,0,0,0,.465.139,1.213,1.213,0,0,0,.719-.246,1.365,1.365,0,0,0,.467-.524,1.969,1.969,0,0,0,.125-.788v-.9c0-.437,0-.7-.014-.8a.386.386,0,0,0-.125-.247.7.7,0,0,0-.456-.1h-.1v-.224Z"/><path class="c" d="M2472.714,180.753v2.788q0,.641.02.8a.347.347,0,0,0,.142.254.776.776,0,0,0,.434.088h.1v.225h-2.154v-.225h.166a.7.7,0,0,0,.452-.1.4.4,0,0,0,.123-.241c.01-.091.016-.361.016-.807V182.33a3.181,3.181,0,0,0-.065-.859.33.33,0,0,0-.176-.2,1.3,1.3,0,0,0-.384-.039h-.132v-.224a6,6,0,0,0,1.348-.259Zm-.942-2.041a.5.5,0,0,1,.149-.362.488.488,0,0,1,.359-.151.478.478,0,0,1,.356.151.524.524,0,0,1,0,.728.475.475,0,0,1-.356.151.485.485,0,0,1-.359-.151A.5.5,0,0,1,2471.772,178.712Z"/><path class="c" d="M2475.031,178.2v5.342c0,.427.006.695.016.8a.341.341,0,0,0,.14.254.779.779,0,0,0,.435.088h.117v.225H2473.6v-.225h.137a.808.808,0,0,0,.417-.08.321.321,0,0,0,.149-.227,7.632,7.632,0,0,0,.025-.84v-3.955a1.7,1.7,0,0,0-.113-.794q-.112-.164-.547-.163V178.4a4.186,4.186,0,0,0,.7-.068,2.558,2.558,0,0,0,.551-.137Z"/><path class="c" d="M2479.56,181.339v-1.563q0-.641-.017-.805a.337.337,0,0,0-.139-.254.779.779,0,0,0-.435-.088h-.1V178.4a5.477,5.477,0,0,0,1.289-.205h.1v5.376a7.859,7.859,0,0,0,.025.85.3.3,0,0,0,.154.224,1.077,1.077,0,0,0,.481.073v.225a7.046,7.046,0,0,0-1.255.127,3.2,3.2,0,0,1-.059-.723,2.649,2.649,0,0,1-.746.542,1.852,1.852,0,0,1-.794.181,1.751,1.751,0,0,1-1.343-.625,2.381,2.381,0,0,1,.013-3.093,1.838,1.838,0,0,1,1.374-.6,2.045,2.045,0,0,1,.768.146A2.3,2.3,0,0,1,2479.56,181.339Zm0,.283a2.56,2.56,0,0,0-.648-.418,1.664,1.664,0,0,0-.653-.139,1.175,1.175,0,0,0-.923.425,2.1,2.1,0,0,0-.369,1.387,2.253,2.253,0,0,0,.379,1.44,1.166,1.166,0,0,0,.937.464,1.4,1.4,0,0,0,.69-.176,1.929,1.929,0,0,0,.587-.527Z"/><path class="c" d="M2484.9,182.271h-2.793q-.02.288-.02.429a3.043,3.043,0,0,0,.33,1.582,1.087,1.087,0,0,0,.987.528,1.29,1.29,0,0,0,1.262-.8h.234a1.376,1.376,0,0,1-.621.78,1.932,1.932,0,0,1-1.012.28,1.91,1.91,0,0,1-.961-.257,2.037,2.037,0,0,1-.741-.724,2.134,2.134,0,0,1-.288-1.138,2.283,2.283,0,0,1,.557-1.575,1.788,1.788,0,0,1,1.394-.627,1.549,1.549,0,0,1,1.217.48A1.644,1.644,0,0,1,2484.9,182.271Zm-.855-.2a1.52,1.52,0,0,0,.015-.2.838.838,0,0,0-.871-.9q-.891,0-1.063,1.1Z"/><path class="c" d="M2486.845,181.773a1.67,1.67,0,0,1,.539-.727,1.193,1.193,0,0,1,.731-.293.657.657,0,0,1,.508.2.6.6,0,0,1,.185.41.338.338,0,0,1-.1.244.3.3,0,0,1-.231.1c-.163,0-.286-.12-.371-.362-.059-.163-.147-.244-.264-.244a.817.817,0,0,0-.5.285,1.34,1.34,0,0,0-.376.594,3.407,3.407,0,0,0-.083.845v.713q0,.641.018.8a.335.335,0,0,0,.14.254.785.785,0,0,0,.437.088h.138v.225h-2.124v-.225h.1a.815.815,0,0,0,.418-.08.33.33,0,0,0,.149-.227,8.037,8.037,0,0,0,.024-.84v-1.128c0-.43-.006-.7-.016-.809a.352.352,0,0,0-.14-.254.778.778,0,0,0-.435-.089h-.1v-.22a6.858,6.858,0,0,0,1.2-.288A3.207,3.207,0,0,1,2486.845,181.773Z"/><path class="c" d="M2489.236,185.04v-1.314h.19q.333,1.139,1.187,1.138a.672.672,0,0,0,.554-.225.756.756,0,0,0,.183-.493.7.7,0,0,0-.2-.512,3.158,3.158,0,0,0-.777-.484,2.953,2.953,0,0,1-.869-.586.988.988,0,0,1-.263-.7,1.2,1.2,0,0,1,.283-.754.953.953,0,0,1,.8-.359,1.061,1.061,0,0,1,.864.425,1.273,1.273,0,0,0,.19-.357h.181v1.235h-.181a1.693,1.693,0,0,0-.378-.764.856.856,0,0,0-.662-.32.641.641,0,0,0-.473.181.579.579,0,0,0-.181.42.606.606,0,0,0,.2.454,2.688,2.688,0,0,0,.747.444,2.128,2.128,0,0,1,1.016.733,1.515,1.515,0,0,1,.186.693,1.117,1.117,0,0,1-.345.85,1.207,1.207,0,0,1-.866.327,1.315,1.315,0,0,1-.982-.454,1.1,1.1,0,0,0-.215.42Z"/></g></g></svg>