<svg xmlns="http://www.w3.org/2000/svg" xmlns:xlink="http://www.w3.org/1999/xlink" width="306" height="216" viewBox="0 0 306 216"><defs><style>.a{fill:#f7f7f7;}.b{fill:#383a40;}.c{fill:url(#a);}.d{fill:url(#b);}.e{fill:#094b81;}</style><linearGradient id="a" x1="0.436" y1="0.092" x2="0.513" y2="0.962" gradientUnits="objectBoundingBox"><stop offset="0" stop-color="#231f20"/><stop offset="0.131" stop-color="#241f21"/><stop offset="0.178" stop-color="#2b2225"/><stop offset="0.212" stop-color="#37282d"/><stop offset="0.215" stop-color="#39292f"/><stop offset="0.377" stop-color="#402c34"/><stop offset="0.578" stop-color="#90516b"/><stop offset="0.749" stop-color="#9d5861"/><stop offset="1" stop-color="#b9684d"/></linearGradient><linearGradient id="b" x1="0.497" y1="1.039" x2="0.582" y2="0.006" gradientUnits="objectBoundingBox"><stop offset="0" stop-color="#b9684d"/><stop offset="0.251" stop-color="#9d5861"/><stop offset="0.422" stop-color="#90516b"/><stop offset="0.623" stop-color="#402c34"/><stop offset="0.785" stop-color="#39292f"/><stop offset="0.788" stop-color="#37282d"/><stop offset="0.822" stop-color="#2b2225"/><stop offset="0.869" stop-color="#241f21"/><stop offset="1" stop-color="#231f20"/></linearGradient></defs><g transform="translate(-3065 -893)"><rect class="a" width="306" height="216" transform="translate(3065 893)"/><g transform="translate(3166.803 973.854)"><path class="b" d="M1919.037,501.593v14.663l31.191-14.663Z" transform="translate(-1903.339 -492.529)"/><g transform="translate(15.698 14.596)"><path class="c" d="M1948.373,531.977a17.844,17.844,0,0,0,7.6-6.365,15.963,15.963,0,0,0,2.877-9.175,16.8,16.8,0,0,0-2.177-8.5,14.743,14.743,0,0,0-.855-1.366q-5.065,1.983-10.086,4.077c.078.067.156.144.233.222a7.565,7.565,0,0,1,1.189,1.633,7.749,7.749,0,0,1,.989,3.932,7.948,7.948,0,0,1-2.177,5.6,6.874,6.874,0,0,1-5.2,2.322h-11.019V518.07c-3.621,1.855-7.231,3.8-10.708,5.954v28.07h10.708V533.577h8.109l10.986,18.517H1960.4Z" transform="translate(-1919.037 -506.573)"/></g><path class="b" d="M1997.6,493.433s-19.328,6.72-39.367,15.962c-3.188,1.455-6.387,2.988-9.52,4.565a190.206,190.206,0,0,0-17.406,9.742,76.093,76.093,0,0,0-10.708,8.109c-7.531,7.109-9.42,13.963-.178,19.339a11.7,11.7,0,0,0-2.822-.467,33.571,33.571,0,0,1-6.043-1.744c-3.943-1.6-7.976-4.654-6.243-9.409,1.311-3.577,4.632-6.387,7.531-8.675a83,83,0,0,1,7.753-5.376c3.477-2.155,7.087-4.1,10.708-5.954.433-.233.878-.455,1.311-.678,4.81-2.455,9.72-4.654,14.674-6.743q5.015-2.1,10.086-4.077c2.244-.9,4.488-1.777,6.732-2.655,10.853-4.254,21.86-9,33.2-11.863A2.177,2.177,0,0,1,1997.6,493.433Z" transform="translate(-1904.905 -493.433)"/><g transform="translate(49.928 6.689)"><path class="d" d="M1986.746,541.935H1965.34l-5.109,10.947h-10.378l26.19-53.427,26.111,53.427h-10.3Zm-3.4-7.16-7.3-15.56-7.3,15.56Z" transform="translate(-1949.853 -499.455)"/></g></g><g transform="translate(3195.048 1039.022)"><path class="e" d="M1932.821,558.57a2.851,2.851,0,0,1-1.586-.413,2.254,2.254,0,0,1-.9-1.125l1.226-.711a1.32,1.32,0,0,0,1.306.863c.562,0,.844-.17.844-.506a.482.482,0,0,0-.271-.432,4.967,4.967,0,0,0-1.017-.359,4.855,4.855,0,0,1-.684-.24,2.865,2.865,0,0,1-.573-.352,1.407,1.407,0,0,1-.427-.547,1.817,1.817,0,0,1-.147-.754,1.7,1.7,0,0,1,.618-1.378,2.221,2.221,0,0,1,1.469-.516,2.534,2.534,0,0,1,1.352.361,2.468,2.468,0,0,1,.924,1.043l-1.2.7a1.368,1.368,0,0,0-.417-.536,1.083,1.083,0,0,0-.659-.183.772.772,0,0,0-.492.138.416.416,0,0,0-.173.333.5.5,0,0,0,.218.4,3.179,3.179,0,0,0,.9.373q.373.115.578.187a4.335,4.335,0,0,1,.52.234,1.726,1.726,0,0,1,.48.346,1.776,1.776,0,0,1,.293.481,1.858,1.858,0,0,1-.511,2.079A2.6,2.6,0,0,1,1932.821,558.57Z" transform="translate(-1930.333 -552.1)"/><path class="e" d="M1935.333,552.213h1.421v6.219h-1.421Z" transform="translate(-1929.779 -552.087)"/><path class="e" d="M1941.119,552.213h1.422v6.219h-1.066l-2.4-3.377v3.377h-1.422v-6.219h1.066l2.4,3.377Z" transform="translate(-1929.522 -552.087)"/><path class="e" d="M1946.089,558.57a3.236,3.236,0,1,1,0-6.47,3.192,3.192,0,0,1,1.545.387,2.93,2.93,0,0,1,1.12,1.053l-1.225.711a1.4,1.4,0,0,0-.588-.564,1.808,1.808,0,0,0-.852-.2,1.761,1.761,0,0,0-1.321.508,2.072,2.072,0,0,0,0,2.684,1.764,1.764,0,0,0,1.321.506,1.8,1.8,0,0,0,.856-.205,1.373,1.373,0,0,0,.583-.56l1.225.712a2.854,2.854,0,0,1-1.111,1.052A3.2,3.2,0,0,1,1946.089,558.57Z" transform="translate(-1928.946 -552.1)"/><path class="e" d="M1950.267,557.064h2.488v1.369h-3.909v-6.219h3.865v1.367h-2.444v1.031h2.221v1.352h-2.221Z" transform="translate(-1928.282 -552.087)"/><path class="e" d="M1956.471,552.213h1.244v6.219h-1.422v-4.719l-1.1.3-.345-1.219Z" transform="translate(-1927.617 -552.087)"/><path class="e" d="M1962.85,554.295a2.214,2.214,0,0,1-.364,1.263l-1.9,2.887h-1.636l1.352-1.963a2.219,2.219,0,0,1-1.5-.676,2.107,2.107,0,0,1-.572-1.511,2.086,2.086,0,0,1,.644-1.582,2.577,2.577,0,0,1,3.337,0A2.1,2.1,0,0,1,1962.85,554.295Zm-2.943-.625a.892.892,0,0,0,0,1.252.97.97,0,0,0,1.262,0,.9.9,0,0,0,0-1.261.97.97,0,0,0-1.262,0Z" transform="translate(-1927.242 -552.1)"/><path class="e" d="M1967.41,554.295a2.207,2.207,0,0,1-.364,1.263l-1.9,2.887h-1.635l1.351-1.963a2.219,2.219,0,0,1-1.5-.676,2.27,2.27,0,0,1,.071-3.093,2.577,2.577,0,0,1,3.337,0A2.1,2.1,0,0,1,1967.41,554.295Zm-2.941-.625a.889.889,0,0,0,0,1.252.9.9,0,0,0,.631.235.91.91,0,0,0,.631-.231.9.9,0,0,0,0-1.261.91.91,0,0,0-.631-.231A.9.9,0,0,0,1964.469,553.67Z" transform="translate(-1926.737 -552.1)"/><path class="e" d="M1971.97,554.295a2.2,2.2,0,0,1-.365,1.263l-1.9,2.887h-1.636l1.352-1.963a2.22,2.22,0,0,1-1.5-.676,2.112,2.112,0,0,1-.572-1.511,2.085,2.085,0,0,1,.644-1.582,2.577,2.577,0,0,1,3.337,0A2.094,2.094,0,0,1,1971.97,554.295Zm-2.943-.625a.892.892,0,0,0,0,1.252.97.97,0,0,0,1.262,0,.9.9,0,0,0,0-1.261.97.97,0,0,0-1.262,0Z" transform="translate(-1926.232 -552.1)"/></g></g></svg>