<svg xmlns="http://www.w3.org/2000/svg" width="152.63" height="9.175" viewBox="0 0 152.63 9.175"><defs><style>.a{fill:#050505;}</style></defs><path class="a" d="M2532.523,147.248c-.758.134-.851.187-.851,1.091v1.024a7.484,7.484,0,0,0,.08,1.29,20.184,20.184,0,0,1-3.218.44c-3.125,0-4.92-1.9-4.92-4.535,0-2.991,2.434-4.493,5.266-4.493a20.85,20.85,0,0,1,2.686.306c.027.584.133,1.594.225,2.326l-.518.094a2.516,2.516,0,0,0-1.635-1.981,3.992,3.992,0,0,0-1.131-.159c-1.609,0-2.818,1.4-2.818,3.682,0,2.34.824,4.189,3.006,4.189a1.735,1.735,0,0,0,.85-.186c.2-.12.306-.346.306-.758v-1.171c0-.93-.186-1.024-1.3-1.157v-.492h3.977Z" transform="translate(-2523.614 -141.917)"/><path class="a" d="M2538.081,150.846v-.493c1.01-.106,1.077-.2,1.077-1.4l-.013-5.186c-.958,2.287-2.007,4.813-2.966,7.074h-.438c-.865-2.168-1.808-4.642-2.765-6.967-.173,4.174-.173,5-.173,5.477.012.718.278.9,1.277,1v.493h-3.3v-.493c.758-.065,1.1-.212,1.211-1.01.052-.4.106-1.156.412-5.544.038-.639-.053-1-1.2-1.1V142.2h2.873l2.566,5.863,2.58-5.863h2.805v.492c-1.064.106-1.183.212-1.158,1.276l.107,4.987c.013,1.2.065,1.25,1.144,1.4v.493Z" transform="translate(-2521.202 -141.87)"/><path class="a" d="M2549.548,148.592c-.067.36-.438,1.889-.559,2.261h-6.9v-.48c1.209-.119,1.289-.186,1.289-1.3v-5.08c0-1.129-.16-1.211-1.064-1.29v-.492h4.321c1.4,0,1.862-.013,2.049-.027.012.239.079,1.33.132,2.154l-.518.065a3.361,3.361,0,0,0-.572-1.236c-.24-.266-.412-.345-1.091-.345h-.865c-.505,0-.557.025-.557.479v2.779h1.3c.746,0,.879-.2,1.079-1.144h.517V147.9h-.517c-.214-.984-.319-1.144-1.09-1.144h-1.29v2.287c0,.918.025,1.2.851,1.211h.944c.744,0,.944-.094,1.237-.453a5.951,5.951,0,0,0,.811-1.328Z" transform="translate(-2517.397 -141.877)"/><path class="a" d="M2553.385,144.443c-.266-.85-.638-1.82-1.861-1.82a1.224,1.224,0,0,0-1.277,1.288c0,.732.492,1.171,1.663,1.756,1.422.7,2.327,1.4,2.327,2.712,0,1.569-1.3,2.713-3.206,2.713a7.647,7.647,0,0,1-2.233-.413c-.08-.306-.306-1.688-.4-2.314l.519-.119c.266.837,1.012,2.287,2.315,2.287a1.224,1.224,0,0,0,1.3-1.357c0-.771-.479-1.223-1.6-1.822-1.383-.744-2.287-1.41-2.287-2.792s1.091-2.5,3.086-2.5a9.81,9.81,0,0,1,1.9.239c.053.492.147,1.183.253,2.021Z" transform="translate(-2515.273 -141.917)"/><path class="a" d="M2560.889,144.587a4.071,4.071,0,0,0-.572-1.3c-.24-.279-.345-.385-1.131-.385h-.85v6.25c0,1.116.133,1.2,1.317,1.288v.493h-4.415v-.493c1.131-.092,1.25-.172,1.25-1.288V142.9h-.812c-.744,0-.957.119-1.21.438a5.075,5.075,0,0,0-.545,1.263h-.506c.093-.97.186-2.007.213-2.646h.4c.2.306.358.333.758.333h5.318a.879.879,0,0,0,.771-.333h.386c.012.559.066,1.729.132,2.593Z" transform="translate(-2513.585 -141.954)"/><path class="a" d="M2564.077,150.893V150.4c.837-.119.837-.265.652-.838-.134-.4-.346-1-.545-1.529h-2.593c-.145.413-.332.918-.465,1.33-.279.838.041.945,1.089,1.037v.493h-3.284V150.4c.839-.106,1.051-.226,1.5-1.343l2.767-6.874.637-.119c.851,2.314,1.756,4.681,2.62,6.9.491,1.236.612,1.33,1.477,1.435v.493Zm-1.17-6.357c-.386.957-.758,1.848-1.091,2.819h2.115Z" transform="translate(-2511.729 -141.917)"/><path class="a" d="M2572.614,144.587a4.037,4.037,0,0,0-.572-1.3c-.238-.279-.344-.385-1.129-.385h-.852v6.25c0,1.116.133,1.2,1.317,1.288v.493h-4.415v-.493c1.131-.092,1.249-.172,1.249-1.288V142.9h-.811c-.744,0-.957.119-1.209.438a5.055,5.055,0,0,0-.545,1.263h-.505c.092-.97.186-2.007.212-2.646h.4c.2.306.358.333.757.333h5.318a.879.879,0,0,0,.771-.333h.386c.013.559.067,1.729.133,2.593Z" transform="translate(-2509.639 -141.954)"/><path class="a" d="M2579.151,148.592c-.067.36-.439,1.889-.559,2.261h-6.9v-.48c1.211-.119,1.291-.186,1.291-1.3v-5.08c0-1.129-.16-1.211-1.064-1.29v-.492h4.321c1.4,0,1.861-.013,2.047-.027.013.239.08,1.33.134,2.154l-.519.065a3.361,3.361,0,0,0-.572-1.236c-.239-.266-.412-.345-1.09-.345h-.865c-.505,0-.557.025-.557.479v2.779h1.3c.746,0,.878-.2,1.079-1.144h.517V147.9h-.517c-.214-.984-.32-1.144-1.091-1.144h-1.29v2.287c0,.918.026,1.2.851,1.211h.944c.744,0,.944-.094,1.236-.453a5.889,5.889,0,0,0,.811-1.328Z" transform="translate(-2507.435 -141.877)"/><path class="a" d="M2589.191,145.7a1.564,1.564,0,0,0-1.463.863c-.385.48-.758.972-1.171,1.542a17.223,17.223,0,0,1,2.38,2.807l-.065.159a4.264,4.264,0,0,1-2.327-.465c-.174-.174-.612-.6-1.09-1.091a3.266,3.266,0,0,1-2.606,1.556,2.552,2.552,0,0,1-2.765-2.473c0-1.117.6-1.6,1.9-2.382a2.59,2.59,0,0,1-.918-1.914,2.325,2.325,0,0,1,2.434-2.235,2.01,2.01,0,0,1,2.235,1.929,1.362,1.362,0,0,1-.585,1.131,12.65,12.65,0,0,1-1.077.678c.373.306,1.158,1.024,2.088,1.9a7.5,7.5,0,0,0,.677-1.117c.279-.585.253-.8-.718-.89V145.2h3.073Zm-5.706,4.149a2.143,2.143,0,0,0,1.57-.759,35.716,35.716,0,0,0-2.7-2.513,1.663,1.663,0,0,0-.6,1.41A1.7,1.7,0,0,0,2583.486,149.853Zm-.105-7.233a1,1,0,0,0-.9,1.116c0,.666.293,1.051,1.184,1.741a1.751,1.751,0,0,0,.744-1.542C2584.4,143.257,2584.085,142.62,2583.38,142.62Z" transform="translate(-2504.611 -141.914)"/><path class="a" d="M2594.854,146.086c1.4.253,2.381.918,2.381,2.18a2.394,2.394,0,0,1-1.277,2.022,5.26,5.26,0,0,1-2.526.559h-3.723v-.493c1.024-.106,1.13-.172,1.13-1.288V144c0-1.117-.173-1.236-1.117-1.3V142.2h4.041a3.909,3.909,0,0,1,2.182.465,1.711,1.711,0,0,1,.811,1.476A2.177,2.177,0,0,1,2594.854,146.086Zm-1.688-.172c1.263,0,1.728-.545,1.728-1.529a1.436,1.436,0,0,0-1.489-1.6,1.272,1.272,0,0,0-.625.106c-.146.094-.133.212-.133.492v2.527Zm-.519,3.123c0,.958.439,1.251,1.157,1.238s1.449-.652,1.449-1.889c0-1.29-.652-1.9-2.141-1.9h-.465Z" transform="translate(-2501.373 -141.87)"/><path class="a" d="M2605.094,142.695c-.85.079-1.077.333-1.129.811a16.714,16.714,0,0,0-.067,1.782v1.741a4.381,4.381,0,0,1-.945,3.1,3.439,3.439,0,0,1-2.5.918,3.784,3.784,0,0,1-2.379-.692,3.2,3.2,0,0,1-1.144-2.884V144.1c0-1.224-.121-1.316-1.131-1.41V142.2h4.108v.492c-1,.094-1.116.186-1.116,1.41v3.536c0,1.489.731,2.473,2.153,2.473,1.583,0,2.275-1.169,2.275-3.165v-1.661c0-.918-.041-1.4-.067-1.795-.053-.612-.427-.744-1.357-.8V142.2h3.3Z" transform="translate(-2499.322 -141.87)"/><path class="a" d="M2603.255,150.846v-.493c1.012-.092,1.131-.172,1.131-1.288V144c0-1.117-.133-1.224-1.131-1.3V142.2h4.11v.492c-1,.094-1.131.186-1.131,1.3v5.067c0,1.1.119,1.183,1.131,1.288v.493Z" transform="translate(-2496.813 -141.87)"/><path class="a" d="M2614.261,148.506c-.106.571-.479,1.981-.6,2.34h-6.6v-.493c1.17-.079,1.276-.172,1.276-1.288V144c0-1.117-.134-1.224-1.131-1.3V142.2h4.148v.492c-1.037.094-1.169.186-1.169,1.3v5.159c0,.731.027,1.064.758,1.077.027.013.637.013.691.013a1.339,1.339,0,0,0,1.276-.519,5.547,5.547,0,0,0,.838-1.383Z" transform="translate(-2495.53 -141.87)"/><path class="a" d="M2617,142.2a5.341,5.341,0,0,1,3.8,1.156,3.783,3.783,0,0,1,1.2,2.9,4.174,4.174,0,0,1-1.661,3.471,6.083,6.083,0,0,1-3.764,1.117h-3.656v-.493c1.012-.079,1.131-.2,1.131-1.3V144c0-1.117-.146-1.224-1.131-1.3V142.2Zm-1.1,6.755c0,.944.239,1.263,1.209,1.263,1.8,0,2.833-1.25,2.833-3.764a4.1,4.1,0,0,0-.957-2.938,2.8,2.8,0,0,0-2.14-.746,1.184,1.184,0,0,0-.8.187c-.119.119-.146.345-.146.731Z" transform="translate(-2493.561 -141.87)"/><path class="a" d="M2627.925,148.592c-.067.36-.438,1.889-.559,2.261h-6.9v-.48c1.209-.119,1.29-.186,1.29-1.3v-5.08c0-1.129-.16-1.211-1.064-1.29v-.492h4.321c1.4,0,1.862-.013,2.048-.027.013.239.08,1.33.133,2.154l-.518.065a3.357,3.357,0,0,0-.572-1.236c-.24-.266-.412-.345-1.091-.345h-.865c-.505,0-.557.025-.557.479v2.779h1.3c.745,0,.878-.2,1.078-1.144h.517V147.9h-.517c-.214-.984-.319-1.144-1.09-1.144h-1.29v2.287c0,.918.025,1.2.852,1.211h.943c.745,0,.944-.094,1.237-.453a5.932,5.932,0,0,0,.811-1.328Z" transform="translate(-2491.021 -141.877)"/><path class="a" d="M2635,150.925c-.081,0-.241,0-.4-.013-1.688-.079-2.181-.438-2.579-1a23.994,23.994,0,0,1-1.37-2.34.75.75,0,0,0-.812-.438l-.265-.013v1.942c0,1.076.133,1.169,1.13,1.288v.493h-4.068v-.493c1.01-.106,1.129-.212,1.129-1.288v-5.094c0-1.051-.132-1.2-1.129-1.276V142.2h3.855a4.051,4.051,0,0,1,2.407.505,2.03,2.03,0,0,1,.89,1.768,2.27,2.27,0,0,1-1.661,2.154c.2.4.717,1.263,1.116,1.875a10.987,10.987,0,0,0,1.01,1.382,1.618,1.618,0,0,0,.838.585Zm-5.067-4.348a1.954,1.954,0,0,0,1.3-.346,1.891,1.891,0,0,0,.624-1.556c0-1.409-.81-1.914-1.554-1.914-.36,0-.534.053-.612.132s-.119.239-.119.505v3.178Z" transform="translate(-2488.945 -141.87)"/><path class="a" d="M2638.432,144.443c-.266-.85-.639-1.82-1.862-1.82a1.224,1.224,0,0,0-1.276,1.288c0,.732.491,1.171,1.663,1.756,1.422.7,2.327,1.4,2.327,2.712,0,1.569-1.3,2.713-3.205,2.713a7.642,7.642,0,0,1-2.233-.413c-.08-.306-.306-1.688-.4-2.314l.519-.119c.265.837,1.01,2.287,2.314,2.287a1.224,1.224,0,0,0,1.3-1.357c0-.771-.479-1.223-1.6-1.822-1.382-.744-2.287-1.41-2.287-2.792s1.091-2.5,3.084-2.5a9.816,9.816,0,0,1,1.9.239c.054.492.147,1.183.252,2.021Z" transform="translate(-2486.653 -141.917)"/></svg>