<svg xmlns="http://www.w3.org/2000/svg" width="306" height="216" viewBox="0 0 306 216"><defs><style>.a{fill:#f7f7f7;}.b{fill:#282828;}.c{fill:#b94538;}</style></defs><g transform="translate(-2743 -893)"><rect class="a" width="306" height="216" transform="translate(2743 893)"/><path class="b" d="M2067.61,396.545s7.09.519,3.8,7.782c0,0-2.075,2.421,4.842,5.88l-11.068,8.3V385.3a16.438,16.438,0,0,1,3.372-9.5,19.858,19.858,0,0,1,8.546-6.358c4.858-1.977,10.234-2.028,15.4-1.836,6.626.246,13.287-.489,19.9-.066,4.592.294,8.662,2.938,11.693,6.276a19.239,19.239,0,0,1,4.581,10.651c.688,5.869-.658,11.759-1.785,17.56s-2.029,11.856-.487,17.561l-10.507-6.223a17.577,17.577,0,0,0,6.25-8.835,52.375,52.375,0,0,0,2.13-10.775c.556-4.424,1.1-9.026-.323-13.252-2.683-7.983-12.573-12.366-20.265-8.986-7.485,3.289-8.615,11.177-6.776,18.448,0,0,3.615,9.339.819,15.737s-2.1,13.835-2.1,13.835h-5.015s6.053-10.376,2.421-21.444a23.039,23.039,0,0,1-1.1-11.8,16.733,16.733,0,0,1,.993-2.972,9.287,9.287,0,0,0-1.81-9.953c-3.035-2.949-7.8-2.507-11.568-1.565C2063.633,375.793,2067.61,396.545,2067.61,396.545Z" transform="translate(795.238 594.997)"/><path class="c" d="M2125.594,390.145s-15.564,32.166,59.836-19.023c-2.21,1.5-5.477,4.906-7.523,6.658-12.8,10.961-22.614,17.82-37.373,24.746-3.883,1.822-23.875,9.5-22.493-.56C2118.628,397.7,2122.964,393.23,2125.594,390.145Z" transform="translate(780.489 593.961)"/><g transform="translate(2843 1022.061)"><path class="b" d="M2058.945,472.194V457.631l-5.671,10.845h-2.323l-5.67-10.845v14.563H2041v-22h4.586l6.507,12.518,6.569-12.518h4.554v22Z" transform="translate(-2041.004 -450.194)"/><path class="b" d="M2093.474,468.445v3.749H2078.2v-22h15v3.75h-10.721v5.3h9.264v3.47h-9.264v5.733Z" transform="translate(-2051.397 -450.194)"/><path class="b" d="M2122.668,450.194v22h-4.245V462.8h-9.976v9.389h-4.277v-22h4.277v8.893h9.976v-8.893Z" transform="translate(-2058.654 -450.194)"/><path class="b" d="M2133.11,472.194l8.676-22h3.47l8.645,22h-4.524l-2.014-5.485h-7.715l-2.014,5.485Zm10.411-17.382-3.16,8.892h6.228Z" transform="translate(-2066.741 -450.194)"/><path class="b" d="M2165.23,472.194v-22h9.729a6.25,6.25,0,0,1,2.8.636,7.271,7.271,0,0,1,2.216,1.673,7.9,7.9,0,0,1,1.457,2.355,7.092,7.092,0,0,1,.527,2.65,7.321,7.321,0,0,1-1.069,3.888,6.133,6.133,0,0,1-2.9,2.525l5.174,8.274h-4.833l-4.617-7.375h-4.214v7.375Zm4.276-11.123h5.36a2.261,2.261,0,0,0,1.1-.28,2.789,2.789,0,0,0,.883-.759,3.781,3.781,0,0,0,.589-1.131,4.393,4.393,0,0,0,.217-1.394,3.967,3.967,0,0,0-.248-1.426,3.714,3.714,0,0,0-.666-1.131,3.008,3.008,0,0,0-.961-.744,2.5,2.5,0,0,0-1.1-.263h-5.174Z" transform="translate(-2075.716 -450.194)"/></g><g transform="translate(2843.229 1048.163)"><path class="b" d="M2046.7,493.6v.894h-5.383v-7.93h5.284v.893h-4.278v2.568h3.719v.838h-3.719V493.6Z" transform="translate(-2041.321 -486.459)"/><path class="b" d="M2055.114,488.2a1.673,1.673,0,0,0-.357-.3,3.168,3.168,0,0,0-.5-.262,3.617,3.617,0,0,0-.609-.19,3.231,3.231,0,0,0-.687-.072,2.158,2.158,0,0,0-1.357.346,1.153,1.153,0,0,0-.43.95,1.059,1.059,0,0,0,.123.536,1.02,1.02,0,0,0,.385.363,2.972,2.972,0,0,0,.653.262q.391.111.927.234a9.667,9.667,0,0,1,1.111.308,3.218,3.218,0,0,1,.849.43,1.718,1.718,0,0,1,.536.625,2,2,0,0,1,.185.9,2.076,2.076,0,0,1-.224.989,1.982,1.982,0,0,1-.609.692,2.647,2.647,0,0,1-.91.4,4.827,4.827,0,0,1-1.139.128,5.247,5.247,0,0,1-1.737-.285,4.836,4.836,0,0,1-1.491-.832l.481-.849a2.632,2.632,0,0,0,.463.38,3.684,3.684,0,0,0,.648.34,4.789,4.789,0,0,0,.782.246,3.953,3.953,0,0,0,.877.094,2.432,2.432,0,0,0,1.318-.3,1.117,1.117,0,0,0,.319-1.469,1.283,1.283,0,0,0-.442-.4,3.375,3.375,0,0,0-.72-.3q-.429-.129-.976-.262a9.781,9.781,0,0,1-1.061-.313,2.884,2.884,0,0,1-.765-.4,1.513,1.513,0,0,1-.463-.57,1.874,1.874,0,0,1-.156-.8,2.27,2.27,0,0,1,.212-1.005,2.118,2.118,0,0,1,.592-.737,2.6,2.6,0,0,1,.905-.453,4.124,4.124,0,0,1,1.139-.151,3.994,3.994,0,0,1,2.6.9Z" transform="translate(-2043.699 -486.437)"/><path class="b" d="M2065.562,487.453h-2.735v7.036h-1.006v-7.036h-2.736v-.893h6.477Z" transform="translate(-2046.285 -486.459)"/><path class="b" d="M2067.5,494.49l3.261-7.93h.827l3.25,7.93h-1.072l-.937-2.323H2069.5l-.928,2.323Zm3.674-6.768-1.475,3.663h2.9Z" transform="translate(-2048.636 -486.459)"/><path class="b" d="M2083.573,487.453h-2.736v7.036h-1.005v-7.036H2077.1v-.893h6.477Z" transform="translate(-2051.318 -486.459)"/><path class="b" d="M2093.127,493.6v.894h-5.384v-7.93h5.283v.893h-4.277v2.568h3.719v.838h-3.719V493.6Z" transform="translate(-2054.293 -486.459)"/><path class="b" d="M2106.361,494.451l-.826-.86a3.448,3.448,0,0,1-1.079.721,3.254,3.254,0,0,1-1.278.251,3,3,0,0,1-1.017-.168,2.576,2.576,0,0,1-.815-.463,2.147,2.147,0,0,1-.542-.7,1.99,1.99,0,0,1-.2-.883,1.966,1.966,0,0,1,.128-.721,2.391,2.391,0,0,1,.346-.608,3.468,3.468,0,0,1,.5-.52q.285-.24.6-.463c-.187-.2-.342-.383-.469-.547a3.389,3.389,0,0,1-.307-.464,2.1,2.1,0,0,1-.173-.413,1.471,1.471,0,0,1-.055-.408,1.629,1.629,0,0,1,.156-.709,1.75,1.75,0,0,1,.43-.57,1.989,1.989,0,0,1,.648-.374,2.381,2.381,0,0,1,.81-.134,2.484,2.484,0,0,1,.754.112,1.863,1.863,0,0,1,.614.324,1.538,1.538,0,0,1,.414.514,1.475,1.475,0,0,1,.151.67,1.512,1.512,0,0,1-.129.625,2.107,2.107,0,0,1-.346.542,3.181,3.181,0,0,1-.52.475c-.2.148-.413.3-.635.447l2.021,2.122a3.888,3.888,0,0,0,.329-.877,4.185,4.185,0,0,0,.117-1.01h.816a5.39,5.39,0,0,1-.185,1.351,4.228,4.228,0,0,1-.5,1.139l1.53,1.6Zm-3.082-.67a2.219,2.219,0,0,0,.938-.2,2.589,2.589,0,0,0,.782-.559l-2.255-2.379a4.371,4.371,0,0,0-.855.788,1.442,1.442,0,0,0-.329.932,1.242,1.242,0,0,0,.146.6,1.347,1.347,0,0,0,.385.447,1.812,1.812,0,0,0,.548.274A2.156,2.156,0,0,0,2103.279,493.781Zm-1.2-5.6a.812.812,0,0,0,.039.246,1.221,1.221,0,0,0,.134.274,3.474,3.474,0,0,0,.262.352c.112.134.254.294.424.48a7.963,7.963,0,0,0,.939-.714,1.009,1.009,0,0,0,.368-.76.808.808,0,0,0-.29-.641,1.084,1.084,0,0,0-.737-.252,1.16,1.16,0,0,0-.821.3A.949.949,0,0,0,2102.083,488.185Z" transform="translate(-2057.888 -486.42)"/><path class="b" d="M2121.932,492.446a1.892,1.892,0,0,1-.185.838,1.941,1.941,0,0,1-.5.647,2.3,2.3,0,0,1-.737.414,2.733,2.733,0,0,1-.9.146h-3.764v-7.93h3.943a1.569,1.569,0,0,1,.748.179,1.873,1.873,0,0,1,.57.463,2.138,2.138,0,0,1,.363.648,2.189,2.189,0,0,1,.128.731,2.118,2.118,0,0,1-.3,1.095,1.819,1.819,0,0,1-.844.749,1.986,1.986,0,0,1,1.078.742A2.1,2.1,0,0,1,2121.932,492.446Zm-5.082-5.014v2.647h2.524a1.133,1.133,0,0,0,.491-.106,1.222,1.222,0,0,0,.385-.285,1.347,1.347,0,0,0,.257-.419,1.374,1.374,0,0,0,.095-.508,1.533,1.533,0,0,0-.089-.525,1.386,1.386,0,0,0-.241-.424,1.038,1.038,0,0,0-.368-.28,1.094,1.094,0,0,0-.464-.1Zm4.065,4.836a1.462,1.462,0,0,0-.095-.52,1.485,1.485,0,0,0-.257-.441,1.217,1.217,0,0,0-.386-.3,1.074,1.074,0,0,0-.491-.112h-2.837v2.726h2.759a1.171,1.171,0,0,0,.513-.112,1.406,1.406,0,0,0,.414-.3,1.367,1.367,0,0,0,.38-.944Z" transform="translate(-2062.145 -486.459)"/><path class="b" d="M2129.526,493.641a2.249,2.249,0,0,0,1.151-.268,2.128,2.128,0,0,0,.731-.7,2.9,2.9,0,0,0,.385-.983,5.676,5.676,0,0,0,.112-1.123V486.56h1v4.009a6.1,6.1,0,0,1-.184,1.524,3.627,3.627,0,0,1-.587,1.268,2.836,2.836,0,0,1-1.044.865,3.973,3.973,0,0,1-3.155-.017,2.886,2.886,0,0,1-1.044-.888,3.573,3.573,0,0,1-.569-1.273,6.284,6.284,0,0,1-.173-1.48V486.56h1v4.009a5.543,5.543,0,0,0,.117,1.145,2.9,2.9,0,0,0,.391.977,2.113,2.113,0,0,0,.726.687A2.234,2.234,0,0,0,2129.526,493.641Z" transform="translate(-2065.026 -486.459)"/><path class="b" d="M2138.057,494.494v-7.919h1.005v7.919Z" transform="translate(-2068.352 -486.463)"/><path class="b" d="M2142.149,494.49v-7.93h1.005V493.6h4.423v.894Z" transform="translate(-2069.495 -486.459)"/><path class="b" d="M2151.356,494.49v-7.93h2.748a4.165,4.165,0,0,1,1.67.312,3.419,3.419,0,0,1,1.2.85,3.529,3.529,0,0,1,.72,1.256,4.833,4.833,0,0,1,.241,1.536,4.706,4.706,0,0,1-.269,1.636,3.512,3.512,0,0,1-.77,1.251,3.467,3.467,0,0,1-1.211.8,4.207,4.207,0,0,1-1.581.285Zm5.561-3.976a3.965,3.965,0,0,0-.184-1.234,2.655,2.655,0,0,0-.547-.966,2.558,2.558,0,0,0-.889-.631,2.958,2.958,0,0,0-1.195-.228h-1.742V493.6h1.742a2.971,2.971,0,0,0,1.212-.234,2.437,2.437,0,0,0,.882-.648,2.843,2.843,0,0,0,.536-.977A3.927,3.927,0,0,0,2156.917,490.514Z" transform="translate(-2072.068 -486.459)"/><path class="b" d="M2167.929,493.6v.894h-5.384v-7.93h5.283v.893h-4.277v2.568h3.719v.838h-3.719V493.6Z" transform="translate(-2075.195 -486.459)"/><path class="b" d="M2172.063,494.49v-7.93h3.4a2.156,2.156,0,0,1,.966.217,2.437,2.437,0,0,1,.76.582,2.781,2.781,0,0,1,.5.815,2.5,2.5,0,0,1,.178.922,2.752,2.752,0,0,1-.117.8,2.494,2.494,0,0,1-.335.7,2.25,2.25,0,0,1-.525.536,2.044,2.044,0,0,1-.687.324l1.921,3.038h-1.139l-1.809-2.848h-2.1v2.848Zm1.005-3.742h2.4a1.18,1.18,0,0,0,.564-.134,1.341,1.341,0,0,0,.43-.362,1.758,1.758,0,0,0,.279-.531,1.947,1.947,0,0,0,.1-.625,1.692,1.692,0,0,0-.117-.631,1.869,1.869,0,0,0-.313-.525,1.421,1.421,0,0,0-.458-.357,1.243,1.243,0,0,0-.553-.128h-2.334Z" transform="translate(-2077.854 -486.459)"/><path class="b" d="M2186.862,488.2a1.673,1.673,0,0,0-.357-.3,3.168,3.168,0,0,0-.5-.262,3.617,3.617,0,0,0-.609-.19,3.231,3.231,0,0,0-.687-.072,2.159,2.159,0,0,0-1.357.346,1.154,1.154,0,0,0-.429.95,1.059,1.059,0,0,0,.123.536,1.02,1.02,0,0,0,.385.363,2.972,2.972,0,0,0,.653.262q.391.111.927.234a9.653,9.653,0,0,1,1.111.308,3.219,3.219,0,0,1,.849.43,1.718,1.718,0,0,1,.536.625,2,2,0,0,1,.184.9,2.079,2.079,0,0,1-.223.989,1.987,1.987,0,0,1-.608.692,2.658,2.658,0,0,1-.911.4,4.819,4.819,0,0,1-1.139.128,5.246,5.246,0,0,1-1.737-.285,4.833,4.833,0,0,1-1.491-.832l.481-.849a2.629,2.629,0,0,0,.463.38,3.686,3.686,0,0,0,.648.34,4.789,4.789,0,0,0,.782.246,3.953,3.953,0,0,0,.877.094,2.432,2.432,0,0,0,1.318-.3,1.115,1.115,0,0,0,.319-1.469,1.285,1.285,0,0,0-.442-.4,3.375,3.375,0,0,0-.72-.3q-.429-.129-.976-.262a9.8,9.8,0,0,1-1.062-.313,2.892,2.892,0,0,1-.765-.4,1.514,1.514,0,0,1-.463-.57,1.885,1.885,0,0,1-.156-.8,2.27,2.27,0,0,1,.212-1.005,2.118,2.118,0,0,1,.592-.737,2.6,2.6,0,0,1,.905-.453,4.127,4.127,0,0,1,1.139-.151,3.994,3.994,0,0,1,2.6.9Z" transform="translate(-2080.513 -486.437)"/></g></g></svg>