<svg xmlns="http://www.w3.org/2000/svg" width="306" height="216" viewBox="0 0 306 216"><defs><style>.a{fill:#f7f7f7;}.b{fill:#425d95;}.c{fill:#212121;}</style></defs><g transform="translate(-485 -893)"><rect class="a" width="306" height="216" transform="translate(485 893)"/><g transform="translate(574.921 980.794)"><path class="b" d="M2543.987,189.628h-17.952l-7.045,35h12.726l1.364-6.135,4.545.227.681,5.908h12.953Zm-11.059,22.421,2.879-13.786,1.59,13.786Z" transform="translate(-2518.99 -183.27)"/><path class="b" d="M2550.535,189.628v35h20.3v-6.741h-6.969V189.628Z" transform="translate(-2515.843 -183.27)"/><rect class="b" width="13.937" height="34.995" transform="translate(57.417 6.358)"/><g transform="translate(89.023)"><path class="c" d="M2619.549,196.057s-1.307,1.38.625,5.016a7.839,7.839,0,0,0,5.965,3.92s-3.806,1.136-4.659.739-5.226-1.591-4.772-7.272Z" transform="translate(-2598.266 -182.628)"/><path class="c" d="M2619.317,197.632l.824-1.831a7.08,7.08,0,0,1,7.669,3.27S2622.327,196.808,2619.317,197.632Z" transform="translate(-2598.002 -182.671)"/><path class="c" d="M2614.823,201.823s2.215,3.607,5.623,3.835,11.306-2.471,11.306-2.471l-2.954,3.862s-6.862,2.163-9.829,1.222a8.77,8.77,0,0,1-4.146-2.471Z" transform="translate(-2598.451 -182.053)"/><path class="c" d="M2614.192,183.847l1.022,25.451-3.3,4.09-1.022-26.474Z" transform="translate(-2598.842 -183.847)"/><path class="c" d="M2612.324,211.294s-5.038-2.917-8.446-2.462c-3.38.451-3.106,1.591-3.106,1.591s.834-4.869,3.712-5.484,7.84,1.734,7.84,1.734Z" transform="translate(-2599.853 -181.752)"/><path class="c" d="M2602.885,205.841s-.553,6.6,8.65,10.352,13.962.454,13.962.454a6.388,6.388,0,0,1-4.531,4.6c-3.692.852-8.8.511-15.565-3.124s-5.341-9.431-5.341-9.431Z" transform="translate(-2599.936 -181.652)"/><path class="c" d="M2625.665,215.735s4.211-5.113.575-6.078-8.067.284-8.067.284l-10.737,3.011,2.442,1.761S2625.346,209.855,2625.665,215.735Z" transform="translate(-2599.188 -181.308)"/></g></g><g transform="translate(574.534 1028.617)"><path class="c" d="M2518.638,227.89a17.838,17.838,0,0,1,2.691-.185,4.558,4.558,0,0,1,2.89.7,2.268,2.268,0,0,1,.822,1.869,2.369,2.369,0,0,1-1.577,2.2v.041a2.252,2.252,0,0,1,1.194,1.671c.278,1.007.556,2.174.729,2.518h-2.069a11.214,11.214,0,0,1-.623-2.081c-.239-1.114-.624-1.42-1.445-1.432h-.61v3.513h-2Zm2,3.845h.8c1.007,0,1.6-.5,1.6-1.286,0-.823-.558-1.233-1.486-1.247a5.074,5.074,0,0,0-.915.066Z" transform="translate(-2518.638 -227.294)"/><path class="c" d="M2527.311,233.893c.066.835.888,1.233,1.829,1.233a5.734,5.734,0,0,0,1.79-.265l.265,1.365a6.409,6.409,0,0,1-2.347.4,3.11,3.11,0,0,1-3.46-3.3,3.247,3.247,0,0,1,3.275-3.46c2.094,0,2.889,1.63,2.889,3.234a4.829,4.829,0,0,1-.066.8Zm2.372-1.379a1.17,1.17,0,0,0-1.139-1.312,1.322,1.322,0,0,0-1.246,1.312Z" transform="translate(-2517.965 -227.078)"/><path class="c" d="M2535.813,236.49l-.119-.65h-.04a2.335,2.335,0,0,1-1.856.8,1.986,1.986,0,0,1-2.094-1.99c0-1.683,1.511-2.491,3.8-2.479v-.092c0-.344-.185-.835-1.18-.835a3.65,3.65,0,0,0-1.79.491l-.372-1.3a5.357,5.357,0,0,1,2.52-.57,2.521,2.521,0,0,1,2.85,2.8v2.253a10.074,10.074,0,0,0,.093,1.577Zm-.237-3.062c-1.062-.014-1.883.239-1.883,1.021a.724.724,0,0,0,.8.769,1.1,1.1,0,0,0,1.047-.742,1.468,1.468,0,0,0,.041-.344Z" transform="translate(-2517.334 -227.078)"/><path class="c" d="M2538.454,227.331h2.015v9.412h-2.015Z" transform="translate(-2516.661 -227.331)"/><path class="c" d="M2549.579,232.922h-3.288v2.12h3.672V236.7h-5.7v-8.936h5.514v1.657h-3.486v1.855h3.288Z" transform="translate(-2516.081 -227.288)"/><path class="c" d="M2550.708,234.727a3.931,3.931,0,0,0,1.736.491c.61,0,.863-.212.863-.543s-.2-.492-.956-.742c-1.338-.451-1.855-1.18-1.842-1.95,0-1.205,1.034-2.12,2.638-2.12a4.348,4.348,0,0,1,1.83.372l-.358,1.391a3.192,3.192,0,0,0-1.406-.372c-.49,0-.769.2-.769.531,0,.3.252.464,1.047.742,1.234.423,1.75,1.047,1.763,2,0,1.206-.954,2.094-2.81,2.094a4.583,4.583,0,0,1-2.094-.45Z" transform="translate(-2515.474 -227.078)"/><path class="c" d="M2558.224,228.307v1.856h1.445v1.484h-1.445v2.347c0,.783.186,1.14.8,1.14a3.2,3.2,0,0,0,.6-.054l.013,1.525a3.939,3.939,0,0,1-1.312.172,2.1,2.1,0,0,1-1.512-.556,2.688,2.688,0,0,1-.557-1.922v-2.652h-.861v-1.484h.861v-1.407Z" transform="translate(-2514.971 -227.234)"/><path class="c" d="M2564.065,236.49l-.119-.65h-.04a2.335,2.335,0,0,1-1.856.8,1.987,1.987,0,0,1-2.095-1.99c0-1.683,1.511-2.491,3.805-2.479v-.092c0-.344-.186-.835-1.18-.835a3.646,3.646,0,0,0-1.789.491l-.372-1.3a5.357,5.357,0,0,1,2.52-.57,2.521,2.521,0,0,1,2.85,2.8v2.253a10.069,10.069,0,0,0,.094,1.577Zm-.239-3.062c-1.06-.014-1.882.239-1.882,1.021a.724.724,0,0,0,.8.769,1.1,1.1,0,0,0,1.047-.742,1.469,1.469,0,0,0,.04-.344Z" transform="translate(-2514.515 -227.078)"/><path class="c" d="M2568.916,228.307v1.856h1.445v1.484h-1.445v2.347c0,.783.186,1.14.8,1.14a3.205,3.205,0,0,0,.6-.054l.013,1.525a3.941,3.941,0,0,1-1.312.172,2.1,2.1,0,0,1-1.512-.556,2.689,2.689,0,0,1-.556-1.922v-2.652h-.861v-1.484h.861v-1.407Z" transform="translate(-2513.904 -227.234)"/><path class="c" d="M2572.557,233.893c.067.835.888,1.233,1.83,1.233a5.729,5.729,0,0,0,1.79-.265l.265,1.365a6.4,6.4,0,0,1-2.346.4,3.11,3.11,0,0,1-3.46-3.3,3.246,3.246,0,0,1,3.274-3.46c2.1,0,2.89,1.63,2.89,3.234a4.8,4.8,0,0,1-.066.8Zm2.373-1.379a1.17,1.17,0,0,0-1.141-1.312,1.321,1.321,0,0,0-1.245,1.312Z" transform="translate(-2513.45 -227.078)"/><path class="c" d="M2585.56,236.713c-.186-.2-.371-.4-.583-.637a3.92,3.92,0,0,1-2.452.783c-2.161,0-3.115-1.287-3.115-2.533a2.823,2.823,0,0,1,1.7-2.558v-.054a2.7,2.7,0,0,1-.677-1.722,2.452,2.452,0,0,1,2.679-2.36,2.175,2.175,0,0,1,2.425,2.1c0,.9-.53,1.669-1.763,2.293l-.013.053c.517.57,1.061,1.22,1.5,1.671a5.861,5.861,0,0,0,.757-2.174h1.8a6.7,6.7,0,0,1-1.485,3.394c.5.57,1.021,1.154,1.577,1.75Zm-1.523-1.763c-.558-.556-1.287-1.366-2.016-2.187a1.486,1.486,0,0,0-.7,1.233,1.4,1.4,0,0,0,1.486,1.406A1.805,1.805,0,0,0,2584.037,234.95Zm-1.8-5.144a1.9,1.9,0,0,0,.61,1.286c.649-.45.98-.8.98-1.313a.814.814,0,0,0-.782-.888A.846.846,0,0,0,2582.233,229.806Z" transform="translate(-2512.574 -227.301)"/><path class="c" d="M2590.438,227.89a16.149,16.149,0,0,1,2.611-.185,4.929,4.929,0,0,1,2.638.5,1.941,1.941,0,0,1,1.074,1.749,2.02,2.02,0,0,1-1.471,1.91v.025a2.235,2.235,0,0,1,1.776,2.2,2.382,2.382,0,0,1-.928,1.9,5.644,5.644,0,0,1-3.514.808,15.518,15.518,0,0,1-2.187-.132Zm2,3.42h.663c1.06,0,1.63-.438,1.63-1.1s-.517-1.035-1.432-1.035a5.535,5.535,0,0,0-.861.053Zm0,3.964a6.15,6.15,0,0,0,.782.027c.915,0,1.725-.345,1.725-1.287,0-.9-.81-1.259-1.818-1.259h-.688Z" transform="translate(-2511.474 -227.294)"/><path class="c" d="M2603.77,234.4c0,.848.028,1.538.054,2.081h-1.751l-.092-.915h-.04a2.311,2.311,0,0,1-2.029,1.061c-1.312,0-2.28-.823-2.28-2.823V230h2.029v3.485c0,.943.3,1.512,1.007,1.512a1.083,1.083,0,0,0,1.007-.7,1.114,1.114,0,0,0,.067-.438V230h2.027Z" transform="translate(-2510.756 -227.065)"/><path class="c" d="M2606.771,228.448a1.012,1.012,0,0,1-1.088,1.007,1.015,1.015,0,1,1,.013-2.028A1.011,1.011,0,0,1,2606.771,228.448Zm-2.082,8.286v-6.482h2.015v6.482Z" transform="translate(-2510.057 -227.321)"/><path class="c" d="M2607.987,227.331H2610v9.412h-2.015Z" transform="translate(-2509.723 -227.331)"/><path class="c" d="M2617.619,227.331v7.476c0,.729.026,1.5.053,1.936h-1.789l-.093-.955h-.026a2.264,2.264,0,0,1-2.029,1.1c-1.539,0-2.771-1.312-2.771-3.328-.012-2.187,1.353-3.447,2.9-3.447a1.975,1.975,0,0,1,1.71.729h.027v-3.513ZM2615.6,233a3.542,3.542,0,0,0-.027-.359,1.211,1.211,0,0,0-1.181-.994c-.914,0-1.391.822-1.391,1.843,0,1.1.543,1.789,1.379,1.789a1.178,1.178,0,0,0,1.166-.968,1.725,1.725,0,0,0,.054-.464Z" transform="translate(-2509.426 -227.331)"/><path class="c" d="M2620.068,233.893c.066.835.889,1.233,1.83,1.233a5.733,5.733,0,0,0,1.789-.265l.265,1.365a6.4,6.4,0,0,1-2.347.4,3.111,3.111,0,0,1-3.46-3.3,3.247,3.247,0,0,1,3.274-3.46c2.1,0,2.89,1.63,2.89,3.234a4.789,4.789,0,0,1-.066.8Zm2.373-1.379a1.17,1.17,0,0,0-1.141-1.312,1.323,1.323,0,0,0-1.246,1.312Z" transform="translate(-2508.709 -227.078)"/><path class="c" d="M2624.853,232.142c0-.954-.026-1.578-.053-2.134h1.737l.066,1.193h.054a1.9,1.9,0,0,1,1.75-1.34,2.084,2.084,0,0,1,.423.026v1.9a2.812,2.812,0,0,0-.543-.053,1.3,1.3,0,0,0-1.379,1.021,2.475,2.475,0,0,0-.04.451v3.287h-2.015Z" transform="translate(-2508.045 -227.078)"/><path class="c" d="M2629.449,234.727a3.936,3.936,0,0,0,1.738.491c.608,0,.861-.212.861-.543s-.2-.492-.955-.742c-1.338-.451-1.856-1.18-1.843-1.95,0-1.205,1.034-2.12,2.639-2.12a4.339,4.339,0,0,1,1.829.372l-.357,1.391a3.193,3.193,0,0,0-1.4-.372c-.492,0-.769.2-.769.531,0,.3.25.464,1.047.742,1.233.423,1.749,1.047,1.763,2,0,1.206-.955,2.094-2.81,2.094a4.6,4.6,0,0,1-2.1-.45Z" transform="translate(-2507.617 -227.078)"/></g></g></svg>