<svg xmlns="http://www.w3.org/2000/svg" width="306" height="216" viewBox="0 0 306 216"><defs><style>.a{fill:#f7f7f7;}.b{fill:#b7c750;}.c{fill:#dae22c;}</style></defs><g transform="translate(-163 -893)"><rect class="a" width="306" height="216" transform="translate(163 893)"/><g transform="translate(283.413 955)"><path class="b" d="M2659.783,332.128v37.085l-32.107,18.534v-52.16l12.571,10.21v24.236h3.483V348.086l6.8,5.343v12.4l2.29-1.145v-27.48l-25.142-14.217v-9.406Z" transform="translate(-2595.563 -313.585)"/><path class="c" d="M2619.4,387.747l-32.113-18.54V332.126l32.113-18.541v9.4l-23.7,13.644-.286,28.052,3.149,1.431V353.807l6.583-6.011v22.327h2.863v-24.9l11.4-9.637Z" transform="translate(-2587.289 -313.585)"/></g><g transform="translate(273 1035.261)"><path class="c" d="M2585.5,422.456a4.181,4.181,0,0,1-.665,2.32,4.41,4.41,0,0,1-1.946,1.611,7.3,7.3,0,0,1-3.038.582,6.838,6.838,0,0,1-3.475-.8,4.631,4.631,0,0,1-1.577-1.529,3.475,3.475,0,0,1-.607-1.859,1.26,1.26,0,0,1,1.291-1.271,1.1,1.1,0,0,1,.771.29,2.3,2.3,0,0,1,.539.864,5.8,5.8,0,0,0,.587,1.136,2.386,2.386,0,0,0,.888.751,3.274,3.274,0,0,0,1.5.3,3.392,3.392,0,0,0,2.082-.6,1.8,1.8,0,0,0,.8-1.49,1.572,1.572,0,0,0-.432-1.15,2.786,2.786,0,0,0-1.116-.675q-.685-.233-1.829-.5a13.349,13.349,0,0,1-2.568-.84,4.153,4.153,0,0,1-1.64-1.31,3.4,3.4,0,0,1-.607-2.063,3.543,3.543,0,0,1,.641-2.087,4.041,4.041,0,0,1,1.854-1.4,7.575,7.575,0,0,1,2.854-.491,7.052,7.052,0,0,1,2.267.326,4.791,4.791,0,0,1,1.586.863,3.62,3.62,0,0,1,.923,1.131,2.611,2.611,0,0,1,.291,1.155,1.361,1.361,0,0,1-.364.926,1.157,1.157,0,0,1-.907.413,1.043,1.043,0,0,1-.752-.247,3.32,3.32,0,0,1-.558-.81,3.682,3.682,0,0,0-.932-1.257,2.727,2.727,0,0,0-1.747-.451,3.034,3.034,0,0,0-1.8.49,1.426,1.426,0,0,0-.684,1.179,1.2,1.2,0,0,0,.233.738,1.963,1.963,0,0,0,.641.534,4.376,4.376,0,0,0,.825.349q.417.126,1.379.368a21.86,21.86,0,0,1,2.178.621,6.6,6.6,0,0,1,1.659.825,3.4,3.4,0,0,1,1.068,1.228A3.931,3.931,0,0,1,2585.5,422.456Z" transform="translate(-2574.193 -412.254)"/><path class="c" d="M2591.515,420.845V414a1.906,1.906,0,0,1,.393-1.31,1.324,1.324,0,0,1,1.033-.437,1.36,1.36,0,0,1,1.064.437,1.9,1.9,0,0,1,.394,1.31v7a6.382,6.382,0,0,0,.266,1.995,2.3,2.3,0,0,0,.946,1.243,3.48,3.48,0,0,0,1.9.44,2.851,2.851,0,0,0,2.388-.9,4.393,4.393,0,0,0,.7-2.722V414a1.913,1.913,0,0,1,.389-1.315,1.323,1.323,0,0,1,1.037-.433,1.374,1.374,0,0,1,1.054.433,1.879,1.879,0,0,1,.4,1.315v6.843a10.155,10.155,0,0,1-.324,2.785,4.314,4.314,0,0,1-1.228,1.962,4.78,4.78,0,0,1-1.806,1.048,7.891,7.891,0,0,1-2.408.329,9.912,9.912,0,0,1-2.823-.354,4.516,4.516,0,0,1-1.932-1.1,4.418,4.418,0,0,1-1.1-1.9A9.7,9.7,0,0,1,2591.515,420.845Z" transform="translate(-2577.742 -412.254)"/><path class="c" d="M2616.556,426.79h-4.349a1.794,1.794,0,0,1-1.344-.423,1.892,1.892,0,0,1-.4-1.344v-10.7a1.866,1.866,0,0,1,.412-1.354,1.833,1.833,0,0,1,1.335-.413h4.61a10.75,10.75,0,0,1,1.768.126,3.766,3.766,0,0,1,1.338.485,3.487,3.487,0,0,1,.893.763,3.342,3.342,0,0,1,.593,1.019,3.414,3.414,0,0,1,.2,1.179,3.272,3.272,0,0,1-2.135,3.126q2.8.893,2.8,3.475a3.9,3.9,0,0,1-.612,2.15,3.652,3.652,0,0,1-1.649,1.411,5.815,5.815,0,0,1-1.5.384A15.147,15.147,0,0,1,2616.556,426.79Zm-3.212-12.065V418.4h2.64a5.328,5.328,0,0,0,1.664-.2,1.6,1.6,0,0,0,.9-.777,1.751,1.751,0,0,0,.242-.913,1.415,1.415,0,0,0-.767-1.431,5.856,5.856,0,0,0-2.339-.355Zm3,5.746h-3v4.155h3.1q2.922,0,2.922-2.106a1.715,1.715,0,0,0-.758-1.562A4.231,4.231,0,0,0,2616.342,420.47Z" transform="translate(-2581.623 -412.317)"/><path class="c" d="M2631.373,414v4.077h6.221V414a1.907,1.907,0,0,1,.393-1.31,1.329,1.329,0,0,1,1.035-.437,1.373,1.373,0,0,1,1.052.433,1.874,1.874,0,0,1,.4,1.315v11.211a1.879,1.879,0,0,1-.406,1.32,1.369,1.369,0,0,1-1.049.437,1.312,1.312,0,0,1-1.039-.441,1.941,1.941,0,0,1-.389-1.316v-4.784h-6.221v4.784a1.873,1.873,0,0,1-.409,1.32,1.365,1.365,0,0,1-1.048.437,1.314,1.314,0,0,1-1.038-.441,1.946,1.946,0,0,1-.388-1.316V414a1.932,1.932,0,0,1,.384-1.31,1.317,1.317,0,0,1,1.043-.437,1.375,1.375,0,0,1,1.054.433A1.874,1.874,0,0,1,2631.373,414Z" transform="translate(-2585.317 -412.254)"/><path class="c" d="M2656.3,425.115l-.679-1.786h-5.785l-.679,1.825a6.39,6.39,0,0,1-.68,1.441,1.08,1.08,0,0,1-.923.374,1.35,1.35,0,0,1-.96-.4,1.219,1.219,0,0,1-.417-.9,2.012,2.012,0,0,1,.1-.6q.1-.31.32-.864l3.639-9.24q.156-.4.374-.957a4.812,4.812,0,0,1,.466-.927,1.893,1.893,0,0,1,.65-.6,2,2,0,0,1,.995-.228,2.027,2.027,0,0,1,1,.228,1.943,1.943,0,0,1,.65.588,4.178,4.178,0,0,1,.417.771q.17.414.432,1.1l3.717,9.182a4.61,4.61,0,0,1,.438,1.523,1.265,1.265,0,0,1-.413.908,1.358,1.358,0,0,1-.995.412,1.294,1.294,0,0,1-.583-.121,1.187,1.187,0,0,1-.407-.33,3,3,0,0,1-.354-.641Q2656.437,425.446,2656.3,425.115Zm-5.707-3.95h4.251l-2.144-5.872Z" transform="translate(-2588.941 -412.254)"/><path class="c" d="M2669.208,413.983l5.542,8.386v-8.463a1.857,1.857,0,0,1,.354-1.238,1.2,1.2,0,0,1,.956-.413,1.231,1.231,0,0,1,.981.413,1.843,1.843,0,0,1,.36,1.238V425.1q0,1.873-1.553,1.873a2.077,2.077,0,0,1-.7-.111,1.773,1.773,0,0,1-.583-.355,3.412,3.412,0,0,1-.5-.568q-.233-.324-.466-.665l-5.406-8.288v8.338a1.782,1.782,0,0,1-.378,1.232,1.254,1.254,0,0,1-.971.417,1.239,1.239,0,0,1-.98-.421,1.813,1.813,0,0,1-.369-1.228V414.341a3.127,3.127,0,0,1,.155-1.1,1.561,1.561,0,0,1,.612-.713,1.661,1.661,0,0,1,.921-.277,1.519,1.519,0,0,1,1.15.466,3.477,3.477,0,0,1,.428.554Q2668.975,413.614,2669.208,413.983Z" transform="translate(-2592.897 -412.254)"/></g></g></svg>