<svg xmlns="http://www.w3.org/2000/svg" width="306" height="216" viewBox="0 0 306 216"><defs><style>.a{fill:#f7f7f7;}.b{fill:#3c5748;}.c{fill:#dacfc5;}.d{fill:#809a39;}.e{fill:#282828;}</style></defs><g transform="translate(-2743 -650)"><rect class="a" width="306" height="216" transform="translate(2743 650)"/><path class="b" d="M1686.2,524.413V499.584l23.174-16.346,21.312,15.1v6.414S1698.412,505.171,1686.2,524.413Z" transform="translate(1138.623 249.981)"/><g transform="translate(2843.346 741.582)"><rect class="c" width="3.931" height="3.931"/><rect class="c" width="3.931" height="3.931" transform="translate(5.121)"/><rect class="c" width="3.931" height="3.931" transform="translate(0 5.276)"/><rect class="c" width="3.931" height="3.931" transform="translate(5.121 5.276)"/></g><path class="d" d="M1739.642,497.174l-11.153-7.507v-8.236a.905.905,0,0,0-.905-.905h-4.914a.905.905,0,0,0-.905.905v3.71L1707,475.2l-33.389,23.08a1.725,1.725,0,0,0,1.961,2.837l31.453-21.743,30.694,20.66a1.724,1.724,0,1,0,1.925-2.861Z" transform="translate(1140.462 251.09)"/><path class="d" d="M1687.582,530.315a27.406,27.406,0,0,1,2.9-3.971,39.558,39.558,0,0,1,3.436-3.544,45.3,45.3,0,0,1,8.016-5.812c.717-.414,1.47-.767,2.2-1.154l1.109-.567,1.146-.489,2.3-.967,2.372-.781,1.186-.39,1.215-.292,2.436-.571c.815-.172,1.648-.247,2.473-.373.829-.093,1.65-.276,2.486-.294l2.5-.1c.84-.04,1.671-.066,2.47-.053h4.856l9.728-.091,19.467-.312,77.889-1.308a1.724,1.724,0,0,1,.064,3.448c-12.985.293-25.971.48-38.957.66l-38.963.333-19.49-.027-9.75-.082-4.882-.087c-.824-.029-1.616-.016-2.4.01l-2.365.053c-.79,0-1.567.164-2.352.237-.78.108-1.571.16-2.345.31l-2.316.5-1.157.254-1.133.352-2.266.7-2.206.884-1.1.446-1.068.524c-.708.357-1.435.681-2.129,1.066A73.245,73.245,0,0,0,1687.582,530.315Z" transform="translate(1138.433 246.396)"/><g transform="translate(2883.981 738.298)"><path class="b" d="M1765.474,501.109h-6.332l-.91,2.235h-3.414l5.793-14.216h3.415l5.794,14.216h-3.435Zm-1.055-2.587-2.111-5.193-2.11,5.193Z" transform="translate(-1754.818 -489.128)"/><path class="b" d="M1776.142,491.88h-4.429v-2.752h11.92v2.752H1779.2v11.464h-3.062Z" transform="translate(-1757.147 -489.128)"/><path class="b" d="M1791.476,491.88h-4.427v-2.752h11.918v2.752h-4.428v11.464h-3.063Z" transform="translate(-1759.262 -489.128)"/><path class="b" d="M1811.338,501.109h-6.332l-.911,2.235h-3.414l5.793-14.216h3.415l5.794,14.216h-3.436Zm-1.055-2.587-2.111-5.193-2.11,5.193Z" transform="translate(-1761.141 -489.128)"/><path class="b" d="M1817.913,489.128h3.311l2.628,9.539,3.145-9.539h3.311l3.145,9.539,2.628-9.539h3.312l-4.3,14.216h-3.062l-3.353-9.767-3.373,9.767h-3.083Z" transform="translate(-1763.517 -489.128)"/><path class="b" d="M1853.313,501.109h-6.332l-.91,2.235h-3.414l5.793-14.216h3.415l5.793,14.216h-3.435Zm-1.054-2.587-2.111-5.193-2.11,5.193Z" transform="translate(-1766.928 -489.128)"/></g><g transform="translate(2871.623 762.303)"><path class="e" d="M1746.894,527.853l-2.436-3.462h-1.692v3.462h-2.282V517.188h4.8c2.312,0,4.02,1.49,4.02,3.6a3.469,3.469,0,0,1-2.422,3.337l2.623,3.726Zm-4.129-5.558h2.267c1.133,0,1.909-.589,1.909-1.505s-.776-1.506-1.909-1.506h-2.267Z" transform="translate(-1740.483 -517.002)"/><path class="e" d="M1754.984,519.253v2.127h5.356v2.064h-5.356v2.344h5.915v2.065h-8.212V517.188h8.212v2.065Z" transform="translate(-1742.166 -517.002)"/><path class="e" d="M1771.23,526.176h-4.75l-.683,1.677h-2.562l4.346-10.665h2.561l4.347,10.665h-2.577Zm-.792-1.941-1.584-3.9-1.584,3.9Z" transform="translate(-1743.62 -517.002)"/><path class="e" d="M1785.259,525.788v2.065h-7.606V517.188h2.3v8.6Z" transform="translate(-1745.608 -517.002)"/><path class="e" d="M1795.5,519.253v2.127h5.356v2.064H1795.5v2.344h5.914v2.065H1793.2V517.188h8.211v2.065Z" transform="translate(-1747.752 -517.002)"/><path class="e" d="M1803.931,526.239l1.32-1.568a5.263,5.263,0,0,0,3.508,1.4c1.148,0,1.739-.528,1.739-1.195,0-.761-.621-.994-2.251-1.367-2.251-.512-3.85-1.148-3.85-3.213,0-1.972,1.615-3.322,3.943-3.322a6.16,6.16,0,0,1,4.175,1.475l-1.195,1.645a4.944,4.944,0,0,0-3.042-1.179c-.978,0-1.568.511-1.568,1.148,0,.776.636,1.024,2.283,1.4,2.3.512,3.818,1.195,3.818,3.167,0,2.033-1.536,3.383-4.144,3.383A6.849,6.849,0,0,1,1803.931,526.239Z" transform="translate(-1749.23 -516.972)"/><path class="e" d="M1818.811,519.253h-3.323v-2.065h8.941v2.065h-3.322v8.6h-2.3Z" transform="translate(-1750.824 -517.002)"/><path class="e" d="M1833.706,526.176h-4.75l-.683,1.677h-2.56l4.346-10.665h2.561l4.347,10.665h-2.577Zm-.791-1.941-1.584-3.9-1.584,3.9Z" transform="translate(-1752.233 -517.002)"/><path class="e" d="M1841.706,519.253h-3.322v-2.065h8.941v2.065H1844v8.6h-2.3Z" transform="translate(-1753.98 -517.002)"/><path class="e" d="M1852.832,519.253v2.127h5.355v2.064h-5.355v2.344h5.913v2.065h-8.211V517.188h8.211v2.065Z" transform="translate(-1755.656 -517.002)"/></g><g transform="translate(2850.785 781.02)"><path class="e" d="M1716.313,541.5a11.982,11.982,0,0,1,.972-2.461l.579-.063a14.45,14.45,0,0,0-.61,2.42Zm1.54,0a12.113,12.113,0,0,1,.962-2.461l.578-.063a14.534,14.534,0,0,0-.61,2.42Z" transform="translate(-1716.313 -538.723)"/><path class="e" d="M1721.064,539.113h.9v6.214h2.978v.755h-3.878Z" transform="translate(-1716.968 -538.741)"/><path class="e" d="M1726.973,544.041a1.6,1.6,0,0,0,1.716,1.738,3.288,3.288,0,0,0,1.385-.259l.155.651a4.054,4.054,0,0,1-1.665.31,2.323,2.323,0,0,1-2.461-2.523,2.429,2.429,0,0,1,2.347-2.7,2.12,2.12,0,0,1,2.068,2.357,3.544,3.544,0,0,1-.031.423Zm2.667-.651a1.3,1.3,0,0,0-1.261-1.479,1.509,1.509,0,0,0-1.4,1.479Z" transform="translate(-1717.663 -539.038)"/><path class="e" d="M1733.541,539.726v1.437h1.3v.692h-1.3v2.7c0,.621.176.972.683.972a2.021,2.021,0,0,0,.527-.062l.042.682a2.22,2.22,0,0,1-.806.124,1.26,1.26,0,0,1-.982-.383,1.852,1.852,0,0,1-.352-1.3v-2.729h-.776v-.692h.776v-1.2Z" transform="translate(-1718.459 -538.826)"/><path class="e" d="M1743.234,545.032c0,.517.011.972.042,1.365h-.806l-.052-.816h-.02a1.884,1.884,0,0,1-1.654.93c-.786,0-1.727-.435-1.727-2.192v-2.925h.91v2.77c0,.952.29,1.593,1.116,1.593a1.284,1.284,0,0,0,1.283-1.293v-3.07h.909Z" transform="translate(-1719.443 -539.056)"/><path class="e" d="M1745.484,545.448a2.388,2.388,0,0,0,1.2.362c.662,0,.972-.331.972-.745,0-.435-.258-.672-.93-.921-.9-.32-1.323-.816-1.323-1.416a1.544,1.544,0,0,1,1.727-1.468,2.5,2.5,0,0,1,1.23.31l-.228.662a1.943,1.943,0,0,0-1.023-.29c-.537,0-.837.31-.837.683,0,.413.3.6.95.847.869.331,1.314.766,1.314,1.51,0,.879-.682,1.5-1.872,1.5a2.861,2.861,0,0,1-1.406-.341Z" transform="translate(-1720.303 -539.038)"/><path class="e" d="M1758.235,545.761a6.5,6.5,0,0,1-2.141.382,3.273,3.273,0,0,1-3.577-3.516,3.5,3.5,0,0,1,3.775-3.6,4.3,4.3,0,0,1,1.736.321l-.216.734a3.628,3.628,0,0,0-1.542-.3,2.607,2.607,0,0,0-2.8,2.8,2.555,2.555,0,0,0,2.689,2.813,2.949,2.949,0,0,0,1.2-.186v-2.079h-1.417v-.724h2.3Z" transform="translate(-1721.304 -538.73)"/><path class="e" d="M1764.894,545.032c0,.517.01.972.041,1.365h-.806l-.053-.816h-.02a1.883,1.883,0,0,1-1.655.93c-.786,0-1.727-.435-1.727-2.192v-2.925h.909v2.77c0,.952.29,1.593,1.117,1.593a1.284,1.284,0,0,0,1.282-1.293v-3.07h.909Z" transform="translate(-1722.429 -539.056)"/><path class="e" d="M1768.318,539.671a.563.563,0,0,1-1.127,0,.555.555,0,0,1,.569-.569A.54.54,0,0,1,1768.318,539.671Zm-1.013,6.41v-5h.91v5Z" transform="translate(-1723.327 -538.74)"/><path class="e" d="M1774.4,538.682v6.049c0,.445.01.952.041,1.292h-.817l-.041-.869h-.022a1.848,1.848,0,0,1-1.705.983,2.281,2.281,0,0,1-2.141-2.543,2.394,2.394,0,0,1,2.244-2.688,1.675,1.675,0,0,1,1.51.765h.02v-2.988Zm-.91,4.374a1.6,1.6,0,0,0-.041-.382,1.337,1.337,0,0,0-1.313-1.055c-.941,0-1.5.828-1.5,1.934,0,1.013.5,1.851,1.478,1.851a1.367,1.367,0,0,0,1.334-1.086,1.587,1.587,0,0,0,.041-.393Z" transform="translate(-1723.675 -538.682)"/><path class="e" d="M1777.348,544.041a1.6,1.6,0,0,0,1.716,1.738,3.3,3.3,0,0,0,1.385-.259l.154.651a4.048,4.048,0,0,1-1.664.31,2.323,2.323,0,0,1-2.461-2.523,2.429,2.429,0,0,1,2.347-2.7,2.12,2.12,0,0,1,2.067,2.357,3.4,3.4,0,0,1-.031.423Zm2.667-.651a1.3,1.3,0,0,0-1.261-1.479,1.508,1.508,0,0,0-1.4,1.479Z" transform="translate(-1724.608 -539.038)"/><path class="e" d="M1785.68,541.393l1.095,2.956c.114.331.239.724.321,1.024h.022c.092-.3.2-.682.32-1.044l.992-2.936h.961l-1.365,3.567a7.6,7.6,0,0,1-1.716,3.133,2.468,2.468,0,0,1-1.117.59l-.227-.766a2.413,2.413,0,0,0,.8-.445,2.75,2.75,0,0,0,.766-1.012.666.666,0,0,0,.072-.217.794.794,0,0,0-.062-.239l-1.851-4.611Z" transform="translate(-1725.74 -539.056)"/><path class="e" d="M1795.458,543.835a2.445,2.445,0,0,1-2.492,2.657,2.379,2.379,0,0,1-2.4-2.574,2.444,2.444,0,0,1,2.481-2.657A2.37,2.37,0,0,1,1795.458,543.835Zm-3.97.052c0,1.1.63,1.923,1.519,1.923.869,0,1.52-.817,1.52-1.944,0-.847-.423-1.923-1.5-1.923S1791.488,542.935,1791.488,543.887Z" transform="translate(-1726.55 -539.038)"/><path class="e" d="M1801.757,545.032c0,.517.011.972.042,1.365h-.806l-.053-.816h-.02a1.884,1.884,0,0,1-1.655.93c-.786,0-1.727-.435-1.727-2.192v-2.925h.91v2.77c0,.952.289,1.593,1.116,1.593a1.283,1.283,0,0,0,1.283-1.293v-3.07h.909Z" transform="translate(-1727.511 -539.056)"/><path class="e" d="M1807.665,539.113v2.917h3.371v-2.917h.91v6.97h-.91v-3.268h-3.371v3.268h-.9v-6.97Z" transform="translate(-1728.783 -538.741)"/><path class="e" d="M1819.025,543.835a2.446,2.446,0,0,1-2.492,2.657,2.378,2.378,0,0,1-2.4-2.574,2.443,2.443,0,0,1,2.48-2.657A2.37,2.37,0,0,1,1819.025,543.835Zm-3.97.052c0,1.1.63,1.923,1.52,1.923.868,0,1.519-.817,1.519-1.944,0-.847-.423-1.923-1.5-1.923S1815.055,542.935,1815.055,543.887Z" transform="translate(-1729.799 -539.038)"/><path class="e" d="M1821.135,542.729c0-.517-.01-.941-.041-1.354h.8l.041.806h.031a1.726,1.726,0,0,1,1.573-.92,1.478,1.478,0,0,1,1.416,1h.022a2.06,2.06,0,0,1,.558-.652,1.706,1.706,0,0,1,1.106-.351c.662,0,1.644.435,1.644,2.171v2.947h-.889v-2.833c0-.961-.352-1.541-1.086-1.541a1.177,1.177,0,0,0-1.075.828,1.52,1.52,0,0,0-.073.454v3.092h-.889v-3c0-.8-.352-1.375-1.045-1.375a1.358,1.358,0,0,0-1.2,1.354v3.019h-.89Z" transform="translate(-1730.759 -539.038)"/><path class="e" d="M1831.6,544.041a1.6,1.6,0,0,0,1.716,1.738,3.3,3.3,0,0,0,1.386-.259l.154.651a4.048,4.048,0,0,1-1.664.31,2.324,2.324,0,0,1-2.461-2.523,2.429,2.429,0,0,1,2.348-2.7,2.12,2.12,0,0,1,2.067,2.357,3.37,3.37,0,0,1-.031.423Zm2.668-.651a1.3,1.3,0,0,0-1.261-1.479,1.509,1.509,0,0,0-1.4,1.479Z" transform="translate(-1732.087 -539.038)"/><path class="e" d="M1837.934,538.981a12.535,12.535,0,0,1-.961,2.451l-.578.072a15.842,15.842,0,0,0,.609-2.43Zm1.531,0a12.59,12.59,0,0,1-.961,2.451l-.579.072a14.724,14.724,0,0,0,.61-2.43Z" transform="translate(-1732.868 -538.723)"/></g></g></svg>