<svg xmlns="http://www.w3.org/2000/svg" xmlns:xlink="http://www.w3.org/1999/xlink" width="306" height="216" viewBox="0 0 306 216"><defs><style>.a{fill:#f7f7f7;}.b{fill:url(#a);}.c{fill:#2b388f;}.d{fill:#231f20;}</style><linearGradient id="a" x1="0.5" y1="1" x2="0.5" gradientUnits="objectBoundingBox"><stop offset="0" stop-color="#fff"/><stop offset="0.006" stop-color="#fbfcfa"/><stop offset="0.058" stop-color="#e1e9d5"/><stop offset="0.116" stop-color="#cad7b5"/><stop offset="0.181" stop-color="#b7c99a"/><stop offset="0.253" stop-color="#a7bd84"/><stop offset="0.338" stop-color="#9bb473"/><stop offset="0.443" stop-color="#93ae67"/><stop offset="0.591" stop-color="#8eaa60"/><stop offset="1" stop-color="#8daa5f"/></linearGradient></defs><g transform="translate(-5962 -650)"><rect class="a" width="306" height="216" transform="translate(5962 650)"/><path class="b" d="M2159.106,1900.99l44.4-102.815,45.565,102.815Z" transform="translate(3910.894 -1091.176)"/><g transform="translate(6087.961 787.272)"><path class="c" d="M2174.777,1875.614l.115-.582h.947l1.3-6.122h-.948l.125-.582h1.343c.146,0,.288,0,.427-.011l.438-.021.488-.021c.174-.007.365-.01.573-.01a4.938,4.938,0,0,1,.891.078,2.335,2.335,0,0,1,.734.255,1.378,1.378,0,0,1,.5.462,1.276,1.276,0,0,1,.181.7,1.731,1.731,0,0,1-.532,1.315,2.555,2.555,0,0,1-1.4.638v.041a2.313,2.313,0,0,1,.532.109,1.528,1.528,0,0,1,.5.277,1.446,1.446,0,0,1,.376.475,1.508,1.508,0,0,1,.147.693,1.91,1.91,0,0,1-.272,1.022,2.3,2.3,0,0,1-.754.74,3.708,3.708,0,0,1-1.151.454,6.521,6.521,0,0,1-1.448.151c-.269,0-.575-.01-.916-.031s-.666-.032-.978-.032Zm3.313-.52a3.044,3.044,0,0,0,.815-.109,2.239,2.239,0,0,0,.709-.333,1.708,1.708,0,0,0,.5-.557,1.568,1.568,0,0,0,.188-.78.9.9,0,0,0-.492-.889,3.049,3.049,0,0,0-1.348-.245h-.868L2177,1875a2.168,2.168,0,0,0,.377.067A6.63,6.63,0,0,0,2178.091,1875.094Zm.2-3.477c.138,0,.3-.006.474-.016s.326-.023.444-.037a2.7,2.7,0,0,0,.722-.326,1.811,1.811,0,0,0,.448-.421,1.427,1.427,0,0,0,.235-.482,1.929,1.929,0,0,0,.069-.5.929.929,0,0,0-.3-.705,1.516,1.516,0,0,0-1.041-.28c-.236,0-.441,0-.612.015s-.315.023-.433.037l-.583,2.718Z" transform="translate(-2174.777 -1868.202)"/><path class="c" d="M2183.184,1875.606h-2.53l.124-.582h.792l4.1-6.7h1.1l1.021,6.7h.769l-.124.582h-2.947l.125-.582h.927l-.282-1.833h-2.749l-1.1,1.833h.894Zm.7-3h2.333l-.323-2.4a1.063,1.063,0,0,1-.01-.2c0-.115,0-.241-.01-.379s-.01-.327-.01-.521h-.042l-.562,1.125Z" transform="translate(-2173.918 -1868.194)"/><path class="c" d="M2193.661,1875.123a4.292,4.292,0,0,1-1.166.464,5.282,5.282,0,0,1-1.25.161,4.425,4.425,0,0,1-1.593-.244,2.6,2.6,0,0,1-.984-.635,2.16,2.16,0,0,1-.5-.885,3.651,3.651,0,0,1-.141-1.005,5.734,5.734,0,0,1,.307-1.915,4.362,4.362,0,0,1,.885-1.51,3.989,3.989,0,0,1,1.411-.989,4.813,4.813,0,0,1,1.894-.354,6.516,6.516,0,0,1,1.3.11,3.829,3.829,0,0,1,.9.285q-.03.156-.062.282c-.021.083-.043.179-.067.286s-.047.217-.068.328c-.056.264-.118.558-.188.885h-.666l.24-1.093-.1-.209a.911.911,0,0,0-.24-.093,2.75,2.75,0,0,0-.333-.068c-.118-.017-.24-.03-.365-.037s-.236-.01-.333-.01a2.8,2.8,0,0,0-1.37.328,3.031,3.031,0,0,0-1,.885,4.113,4.113,0,0,0-.62,1.3,5.6,5.6,0,0,0-.213,1.561,3.308,3.308,0,0,0,.094.781,1.74,1.74,0,0,0,.338.688,1.7,1.7,0,0,0,.666.484,2.743,2.743,0,0,0,1.078.182,2.693,2.693,0,0,0,.562-.047,3.608,3.608,0,0,0,.427-.119l.2-.188.416-1.968h-1.1l.125-.582h2.884l-.126.582h-.728Z" transform="translate(-2172.84 -1868.21)"/><path class="c" d="M2197.178,1875.024l-.124.582h-2.968l.115-.582h.947l1.3-6.122h-.948l.125-.582h2.978l-.125.582h-.864l-.562,2.675h3.644l.562-2.675h-.864l.125-.582h2.978l-.126.582h-.947l-1.3,6.122h.947l-.125.582h-2.967l.115-.582h.864l.614-2.863h-3.643l-.614,2.863Z" transform="translate(-2171.954 -1868.194)"/><path class="c" d="M2201.444,1875.617l.115-.582h.947l1.3-6.122h-.948l.125-.582h1.28c.132,0,.288,0,.469-.011s.367-.015.557-.025l.551-.032c.177-.01.324-.015.443-.015a4.868,4.868,0,0,1,1.654.234,2.61,2.61,0,0,1,.989.6,1.893,1.893,0,0,1,.479.813,3.255,3.255,0,0,1,.125.885,6.218,6.218,0,0,1-.307,2,4.261,4.261,0,0,1-.911,1.562,4.085,4.085,0,0,1-1.5,1.01,5.537,5.537,0,0,1-2.073.359c-.111,0-.249,0-.41-.015l-.517-.032-.54-.031c-.181-.01-.344-.016-.491-.016Zm4.56-6.787c-.194,0-.385,0-.572.009a3.174,3.174,0,0,0-.448.042l-1.312,6.2a1.837,1.837,0,0,0,.209.016l.317.01.329.01c.1,0,.177.006.218.006a3.321,3.321,0,0,0,1.671-.386,3.074,3.074,0,0,0,1.073-1,4.252,4.252,0,0,0,.572-1.411,7.53,7.53,0,0,0,.172-1.6,2.889,2.889,0,0,0-.088-.718,1.36,1.36,0,0,0-.338-.6,1.763,1.763,0,0,0-.683-.416A3.339,3.339,0,0,0,2206,1868.83Z" transform="translate(-2170.879 -1868.204)"/><path class="c" d="M2210.206,1875.606h-2.53l.125-.582h.79l4.1-6.7h1.1l1.02,6.7h.771l-.126.582h-2.946l.125-.582h.926l-.281-1.833h-2.748l-1.1,1.833h.9Zm.7-3h2.333l-.323-2.4a1.073,1.073,0,0,1-.01-.2c0-.115,0-.241-.01-.379s-.01-.327-.01-.521h-.043l-.562,1.125Z" transform="translate(-2169.968 -1868.194)"/><path class="c" d="M2214.706,1875.617l.113-.582h.948l1.3-6.122h-.947l.125-.582h1.28c.132,0,.288,0,.469-.011s.366-.015.556-.025l.552-.032c.177-.01.324-.015.443-.015a4.874,4.874,0,0,1,1.655.234,2.61,2.61,0,0,1,.989.6,1.893,1.893,0,0,1,.479.813,3.3,3.3,0,0,1,.124.885,6.225,6.225,0,0,1-.306,2,4.265,4.265,0,0,1-.911,1.562,4.086,4.086,0,0,1-1.5,1.01,5.532,5.532,0,0,1-2.071.359c-.111,0-.249,0-.411-.015l-.516-.032-.541-.031c-.181-.01-.343-.016-.49-.016Zm4.558-6.787c-.194,0-.385,0-.572.009a3.135,3.135,0,0,0-.447.042l-1.312,6.2a1.827,1.827,0,0,0,.209.016l.317.01.328.01c.1,0,.178.006.219.006a3.32,3.32,0,0,0,1.671-.386,3.07,3.07,0,0,0,1.072-1,4.206,4.206,0,0,0,.572-1.411,7.453,7.453,0,0,0,.173-1.6,2.947,2.947,0,0,0-.088-.718,1.362,1.362,0,0,0-.338-.6,1.762,1.762,0,0,0-.683-.416A3.343,3.343,0,0,0,2219.264,1868.83Z" transform="translate(-2168.94 -1868.204)"/></g><g transform="translate(6078.866 799.596)"><path class="d" d="M2170.322,1879.083l2.27,5.543h-1.1l-.667-1.621h-2.234q-.16.4-.332.81t-.331.81h-1.085l2.269-5.543Zm-.614,1.165-.792,1.971h1.581Z" transform="translate(-2166.842 -1878.944)"/><path class="d" d="M2175.093,1882.7a1.522,1.522,0,0,0,.132.522,1.336,1.336,0,0,0,.288.408,1.253,1.253,0,0,0,.417.264,1.462,1.462,0,0,0,.53.094,2.409,2.409,0,0,0,.488-.048,1.3,1.3,0,0,0,.41-.155.825.825,0,0,0,.285-.281.787.787,0,0,0,.107-.423.51.51,0,0,0-.154-.379,1.386,1.386,0,0,0-.4-.268,3.961,3.961,0,0,0-.57-.206c-.213-.061-.431-.125-.652-.19s-.437-.141-.651-.225a2.572,2.572,0,0,1-.571-.306,1.466,1.466,0,0,1-.4-.436,1.168,1.168,0,0,1-.153-.612,1.282,1.282,0,0,1,.16-.645,1.373,1.373,0,0,1,.452-.471,2.2,2.2,0,0,1,.695-.288,3.725,3.725,0,0,1,.883-.1,2.908,2.908,0,0,1,1.066.167,1.9,1.9,0,0,1,.683.431,1.607,1.607,0,0,1,.374.586,2.29,2.29,0,0,1,.137.632h-1.072a1.278,1.278,0,0,0-.127-.461.979.979,0,0,0-.26-.322,1.1,1.1,0,0,0-.365-.189,1.541,1.541,0,0,0-.437-.061,2.285,2.285,0,0,0-.414.038,1.28,1.28,0,0,0-.364.123.75.75,0,0,0-.258.222.565.565,0,0,0-.1.336.533.533,0,0,0,.154.387,1.358,1.358,0,0,0,.4.274,3.8,3.8,0,0,0,.57.211c.214.063.432.127.655.195s.441.142.655.225a2.478,2.478,0,0,1,.57.3,1.46,1.46,0,0,1,.4.43,1.116,1.116,0,0,1,.155.6,1.46,1.46,0,0,1-.666,1.272,2.374,2.374,0,0,1-.744.318,3.9,3.9,0,0,1-.941.106,2.814,2.814,0,0,1-.889-.142,2.5,2.5,0,0,1-.772-.414,2.146,2.146,0,0,1-.551-.653,1.882,1.882,0,0,1-.225-.869Z" transform="translate(-2165.792 -1878.962)"/><path class="d" d="M2181.421,1882.7a1.55,1.55,0,0,0,.132.522,1.336,1.336,0,0,0,.288.408,1.253,1.253,0,0,0,.417.264,1.464,1.464,0,0,0,.53.094,2.409,2.409,0,0,0,.488-.048,1.321,1.321,0,0,0,.411-.155.832.832,0,0,0,.284-.281.777.777,0,0,0,.107-.423.513.513,0,0,0-.153-.379,1.41,1.41,0,0,0-.4-.268,3.968,3.968,0,0,0-.57-.206c-.213-.061-.431-.125-.651-.19s-.439-.141-.652-.225a2.534,2.534,0,0,1-.569-.306,1.467,1.467,0,0,1-.4-.436,1.164,1.164,0,0,1-.154-.612,1.284,1.284,0,0,1,.16-.645,1.387,1.387,0,0,1,.452-.471,2.214,2.214,0,0,1,.695-.288,3.728,3.728,0,0,1,.883-.1,2.909,2.909,0,0,1,1.066.167,1.9,1.9,0,0,1,.683.431,1.607,1.607,0,0,1,.374.586,2.33,2.33,0,0,1,.139.632H2183.9a1.278,1.278,0,0,0-.127-.461.976.976,0,0,0-.26-.322,1.1,1.1,0,0,0-.365-.189,1.543,1.543,0,0,0-.437-.061,2.259,2.259,0,0,0-.412.038,1.274,1.274,0,0,0-.366.123.746.746,0,0,0-.258.222.563.563,0,0,0-.1.336.533.533,0,0,0,.154.387,1.371,1.371,0,0,0,.4.274,3.758,3.758,0,0,0,.57.211c.213.063.431.127.653.195s.441.142.655.225a2.485,2.485,0,0,1,.57.3,1.463,1.463,0,0,1,.4.43,1.118,1.118,0,0,1,.155.6,1.46,1.46,0,0,1-.666,1.272,2.382,2.382,0,0,1-.743.318,3.914,3.914,0,0,1-.942.106,2.813,2.813,0,0,1-.89-.142,2.5,2.5,0,0,1-.773-.414,2.152,2.152,0,0,1-.551-.653,1.885,1.885,0,0,1-.224-.869Z" transform="translate(-2164.867 -1878.962)"/><path class="d" d="M2192.472,1881.859a3.515,3.515,0,0,1-.191,1.182,2.578,2.578,0,0,1-.558.926,2.51,2.51,0,0,1-.9.6,3.589,3.589,0,0,1-2.446,0,2.5,2.5,0,0,1-1.456-1.53,3.542,3.542,0,0,1-.189-1.182,3.482,3.482,0,0,1,.189-1.176,2.449,2.449,0,0,1,1.456-1.506,3.643,3.643,0,0,1,2.446,0,2.472,2.472,0,0,1,1.459,1.509A3.462,3.462,0,0,1,2192.472,1881.859Zm-1.05,0a2.623,2.623,0,0,0-.143-.9,1.943,1.943,0,0,0-.388-.661,1.666,1.666,0,0,0-.579-.409,1.892,1.892,0,0,0-1.433,0,1.62,1.62,0,0,0-.574.409,1.93,1.93,0,0,0-.383.661,2.655,2.655,0,0,0-.14.9,2.7,2.7,0,0,0,.14.9,2.018,2.018,0,0,0,.383.673,1.624,1.624,0,0,0,.574.422,1.85,1.85,0,0,0,1.433,0,1.669,1.669,0,0,0,.579-.422,2.033,2.033,0,0,0,.388-.673A2.662,2.662,0,0,0,2191.422,1881.855Z" transform="translate(-2163.935 -1878.962)"/><path class="d" d="M2195.131,1881.8a2.788,2.788,0,0,0,.158.989,2.035,2.035,0,0,0,.416.689,1.656,1.656,0,0,0,.586.406,1.744,1.744,0,0,0,.66.133,1.512,1.512,0,0,0,.623-.125,1.66,1.66,0,0,0,.492-.333,1.9,1.9,0,0,0,.35-.471,2.191,2.191,0,0,0,.2-.542h1.068a3.271,3.271,0,0,1-.326.88,2.672,2.672,0,0,1-.57.712,2.585,2.585,0,0,1-.806.477,2.932,2.932,0,0,1-1.03.172,3.317,3.317,0,0,1-1.187-.2,2.432,2.432,0,0,1-.9-.583,2.572,2.572,0,0,1-.577-.94,3.681,3.681,0,0,1-.2-1.268,2.984,2.984,0,0,1,.191-1.062,2.66,2.66,0,0,1,1.457-1.531,2.97,2.97,0,0,1,1.213-.235,3.362,3.362,0,0,1,1.033.147,2.652,2.652,0,0,1,.8.408,2.459,2.459,0,0,1,.576.618,3.244,3.244,0,0,1,.371.783h-1.09a1.9,1.9,0,0,0-.65-.885,1.754,1.754,0,0,0-1.037-.292,1.647,1.647,0,0,0-.731.163,1.777,1.777,0,0,0-.572.444,2.034,2.034,0,0,0-.374.653A2.337,2.337,0,0,0,2195.131,1881.8Z" transform="translate(-2162.86 -1878.962)"/><path class="d" d="M2202.465,1879.083v5.543h-1.051v-5.543Z" transform="translate(-2161.788 -1878.944)"/><path class="d" d="M2208.323,1879.083l2.268,5.543h-1.1l-.667-1.621h-2.234c-.106.267-.218.537-.331.81s-.225.543-.331.81h-1.085l2.268-5.543Zm-.614,1.165-.792,1.971h1.579Z" transform="translate(-2161.287 -1878.944)"/><path class="d" d="M2216.989,1879.083v.791h-1.962v4.752h-1.051v-4.752h-1.966v-.791Z" transform="translate(-2160.239 -1878.944)"/><path class="d" d="M2223.226,1879.083v.791h-3.333v1.5h3.128v.794h-3.128v1.657h3.475v.8h-4.525v-5.543Z" transform="translate(-2159.24 -1878.944)"/><path class="d" d="M2226.143,1882.7a1.473,1.473,0,0,0,.13.522,1.313,1.313,0,0,0,.288.408,1.228,1.228,0,0,0,.418.264,1.46,1.46,0,0,0,.53.094,2.4,2.4,0,0,0,.487-.048,1.3,1.3,0,0,0,.412-.155.811.811,0,0,0,.284-.281.777.777,0,0,0,.108-.423.512.512,0,0,0-.155-.379,1.4,1.4,0,0,0-.4-.268,4.027,4.027,0,0,0-.57-.206c-.214-.061-.431-.125-.653-.19s-.438-.141-.651-.225a2.517,2.517,0,0,1-.57-.306,1.474,1.474,0,0,1-.4-.436,1.17,1.17,0,0,1-.153-.612,1.277,1.277,0,0,1,.161-.645,1.386,1.386,0,0,1,.453-.471,2.2,2.2,0,0,1,.693-.288,3.729,3.729,0,0,1,.884-.1,2.9,2.9,0,0,1,1.065.167,1.9,1.9,0,0,1,.683.431,1.6,1.6,0,0,1,.374.586,2.357,2.357,0,0,1,.139.632h-1.072a1.278,1.278,0,0,0-.128-.461.96.96,0,0,0-.259-.322,1.109,1.109,0,0,0-.366-.189,1.539,1.539,0,0,0-.436-.061,2.284,2.284,0,0,0-.415.038,1.293,1.293,0,0,0-.365.123.751.751,0,0,0-.258.222.563.563,0,0,0-.1.336.533.533,0,0,0,.153.387,1.368,1.368,0,0,0,.4.274,3.768,3.768,0,0,0,.57.211c.213.063.432.127.654.195s.44.142.653.225a2.49,2.49,0,0,1,.57.3,1.483,1.483,0,0,1,.4.43,1.127,1.127,0,0,1,.154.6,1.461,1.461,0,0,1-.666,1.272,2.365,2.365,0,0,1-.744.318,3.9,3.9,0,0,1-.94.106,2.824,2.824,0,0,1-.891-.142,2.479,2.479,0,0,1-.771-.414,2.145,2.145,0,0,1-.552-.653,1.876,1.876,0,0,1-.225-.869Z" transform="translate(-2158.33 -1878.962)"/></g></g></svg>