<svg xmlns="http://www.w3.org/2000/svg" width="306" height="216" viewBox="0 0 306 216"><defs><style>.a{fill:#f7f7f7;}.b{fill:#5fbb60;}.c{fill:#fcee3c;}.d{fill:#fbee3b;}.e{fill:#f1f1f2;}.f{fill:#fff;}.g{fill:#ed3342;}.h{fill:#231f20;}</style></defs><g transform="translate(-5640 -893)"><rect class="a" width="306" height="216" transform="translate(5640 893)"/><rect class="b" width="101.664" height="101.664" rx="18.909" transform="translate(5743 959)"/><path class="c" d="M2158.381,1931.847l41.186-13.577,40.5,13.351-7.663.225-32.771-10.587-32.726,10.587Z" transform="translate(3594.271 -947.994)"/><path class="c" d="M2176.063,1931.034l21.372-7.8,21.722,7.892h-7.4l-14.211-5.329-14.265,5.329Z" transform="translate(3596.402 -947.396)"/><rect class="d" width="78.144" height="3.292" transform="translate(5754.326 986.126)"/><rect class="d" width="76.444" height="3.519" transform="translate(5755.646 1024.821)"/><rect class="d" width="70.394" height="3.519" transform="translate(5758.662 1020.381)"/><rect class="d" width="85.374" height="3.519" transform="translate(5751.109 1029.263)"/><rect class="d" width="85.374" height="3.519" transform="translate(5751.182 1045.868)"/><rect class="e" width="85.447" height="11.888" transform="translate(5751.109 1033.277)"/><rect class="f" width="77.969" height="9.971" transform="translate(5756.367 1009.318)"/><rect class="g" width="77.969" height="9.971" transform="translate(5754.828 1010.41)"/><g transform="translate(5762.919 1011.248)"><path class="f" d="M2167.544,1963.049v-8.093h8.544v1.369h-6.218v1.794h5.785v1.364h-5.785v2.2h6.437v1.364Z" transform="translate(-2167.544 -1954.819)"/><path class="f" d="M2177.146,1960.432l2.262-.156a1.832,1.832,0,0,0,.829,1.177,3.259,3.259,0,0,0,1.685.375,3.426,3.426,0,0,0,1.694-.334.941.941,0,0,0,.57-.782.622.622,0,0,0-.24-.489,2.183,2.183,0,0,0-.837-.35q-.408-.1-1.863-.353a7.807,7.807,0,0,1-2.625-.8,1.918,1.918,0,0,1-1.061-1.628,1.676,1.676,0,0,1,.5-1.156,3.156,3.156,0,0,1,1.439-.82,8,8,0,0,1,2.268-.281,6.39,6.39,0,0,1,3.265.668,2.152,2.152,0,0,1,1.151,1.783l-2.326.072a1.32,1.32,0,0,0-.64-.9,3.113,3.113,0,0,0-1.475-.273,3.555,3.555,0,0,0-1.588.292.563.563,0,0,0-.369.5.583.583,0,0,0,.346.492,7.869,7.869,0,0,0,2.137.541,14.8,14.8,0,0,1,2.511.582,3.1,3.1,0,0,1,1.274.822,1.885,1.885,0,0,1,.459,1.29,1.911,1.911,0,0,1-.55,1.3,3.284,3.284,0,0,1-1.556.9,9.071,9.071,0,0,1-2.507.295,6.525,6.525,0,0,1-3.356-.709A2.855,2.855,0,0,1,2177.146,1960.432Z" transform="translate(-2166.386 -1954.834)"/><path class="f" d="M2190.48,1963.049v-6.723h-3.418v-1.369h9.156v1.369h-3.411v6.723Z" transform="translate(-2165.191 -1954.819)"/><path class="f" d="M2206.567,1963.049h-2.53l-1.006-1.838h-4.605l-.951,1.838h-2.468l4.488-8.093h2.46Zm-4.283-3.2-1.588-3-1.556,3Z" transform="translate(-2164.233 -1954.819)"/><path class="f" d="M2208.589,1963.049v-6.723h-3.419v-1.369h9.157v1.369h-3.412v6.723Z" transform="translate(-2163.008 -1954.819)"/><path class="f" d="M2215.227,1963.049v-8.093h8.544v1.369h-6.218v1.794h5.785v1.364h-5.785v2.2h6.438v1.364Z" transform="translate(-2161.796 -1954.819)"/></g><path class="h" d="M2159.432,1975.693c.167,0,1.235-.029,1.677-.029,1.351,0,1.986,1.131,1.986,2.956,0,1.781-.709,3.042-2.085,3.042h-.584v3.839h-.993Zm.993,4.68h.642c.7,0,.976-.725.976-1.7,0-.9-.242-1.781-1.06-1.781-.241,0-.425,0-.558.013Z" transform="translate(3594.397 -941.075)"/><path class="h" d="M2163.278,1975.693c.167,0,1.234-.029,1.676-.029,1.376,0,1.984.985,1.984,2.68a2.589,2.589,0,0,1-1.034,2.435c.625.607.927,2.158,1.56,4.722h-1.076c-.759-3.07-1.042-4.244-1.877-4.244h-.242v4.244h-.992Zm.992,4.3h.642c.619,0,.976-.492.976-1.433,0-.856-.241-1.666-1.059-1.666h-.559Z" transform="translate(3594.861 -941.075)"/><path class="h" d="M2171.669,1980.451c0,3.014-.774,5.072-2.459,5.072-1.668,0-2.361-1.8-2.361-4.869,0-3.027.775-5.157,2.469-5.157C2170.978,1975.5,2171.669,1977.4,2171.669,1980.451Zm-3.745.044c0,1.956.251,3.7,1.4,3.7.967,0,1.276-1.536,1.276-3.594,0-1.956-.25-3.767-1.4-3.767C2168.234,1976.829,2167.925,1978.424,2167.925,1980.495Z" transform="translate(3595.291 -941.096)"/><path class="h" d="M2171.455,1975.693c.167,0,1.235-.029,1.676-.029,1.353,0,1.986,1.131,1.986,2.956,0,1.781-.709,3.042-2.085,3.042h-.584v3.839h-.993Zm.993,4.68h.642c.7,0,.976-.725.976-1.7,0-.9-.242-1.781-1.059-1.781-.242,0-.426,0-.559.013Z" transform="translate(3595.847 -941.075)"/><path class="h" d="M2175.3,1975.69h3.353v1.3h-2.36v2.739h1.943l-.124,1.318h-1.819v3.144h2.485v1.3H2175.3Z" transform="translate(3596.311 -941.072)"/><path class="h" d="M2178.983,1975.693c.167,0,1.234-.029,1.676-.029,1.376,0,1.985.985,1.985,2.68a2.587,2.587,0,0,1-1.034,2.435c.626.607.926,2.158,1.56,4.722h-1.076c-.759-3.07-1.042-4.244-1.877-4.244h-.241v4.244h-.993Zm.993,4.3h.642c.617,0,.976-.492.976-1.433,0-.856-.242-1.666-1.06-1.666h-.558Z" transform="translate(3596.754 -941.075)"/><path class="h" d="M2186.312,1975.69l-.125,1.3h-1.4v8.5h-.984v-8.5h-1.426v-1.3Z" transform="translate(3597.163 -941.072)"/><path class="h" d="M2187.8,1981.746l-1.753-6.057h1.077l1.183,4.449,1.21-4.449h1.051l-1.777,6.128v3.68h-.992Z" transform="translate(3597.605 -941.072)"/><path class="h" d="M2195.212,1977.675c-.267-.493-.55-.768-.935-.768-.95,0-1.284,1.623-1.284,3.664s.292,3.7,1.361,3.7a2.242,2.242,0,0,0,1.05-.378l.234,1.217a2.663,2.663,0,0,1-1.477.493c-1.485,0-2.243-1.71-2.243-4.867,0-3.043.792-5.158,2.461-5.158a1.567,1.567,0,0,1,1.342,1.043Z" transform="translate(3598.313 -941.086)"/><path class="h" d="M2200.385,1980.528c0,3.014-.777,5.072-2.461,5.072-1.668,0-2.36-1.8-2.36-4.867,0-3.028.774-5.158,2.468-5.158C2199.691,1975.574,2200.385,1977.472,2200.385,1980.528Zm-3.745.044c0,1.957.25,3.7,1.4,3.7.967,0,1.276-1.536,1.276-3.594,0-1.957-.251-3.766-1.4-3.766C2196.948,1976.907,2196.639,1978.5,2196.639,1980.572Z" transform="translate(3598.753 -941.086)"/><path class="h" d="M2203.92,1975.693h.993v9.824h-.825l-1.9-5.159c-.208-.55-.484-1.333-.7-1.926.034.623.067,1.332.067,1.942l.024,5.128h-.993v-9.837h.777l1.958,5.1c.218.55.46,1.216.676,1.8-.025-.623-.05-1.29-.05-1.739Z" transform="translate(3599.357 -941.075)"/><path class="h" d="M2208.648,1976.342l-.409,1.246a2.252,2.252,0,0,0-1.176-.667c-.4,0-.742.319-.742,1.015a1.966,1.966,0,0,0,1,1.825,2.984,2.984,0,0,1,1.417,2.883c0,1.477-.659,2.955-1.876,2.955a2.782,2.782,0,0,1-1.811-.941l.351-1.333c-.009,0,.917.928,1.393.928.584,0,.875-.537.875-1.435a1.6,1.6,0,0,0-.834-1.55,3.263,3.263,0,0,1-1.6-3.086c0-1.42.742-2.607,1.776-2.607A2.5,2.5,0,0,1,2208.648,1976.342Z" transform="translate(3599.896 -941.086)"/><path class="h" d="M2209.9,1975.69v6.071c0,1.8.467,2.492,1.209,2.492s1.109-.928,1.109-2.492v-6.071h.992v6.2c0,2-.558,3.694-2.21,3.694-1.567,0-2.085-1.7-2.085-3.694v-6.2Z" transform="translate(3600.362 -941.072)"/><path class="h" d="M2213.579,1975.69h.993v8.505h2.11v1.3h-3.1Z" transform="translate(3600.925 -941.072)"/><path class="h" d="M2219.479,1975.69l-.125,1.3h-1.4v8.5h-.985v-8.5h-1.426v-1.3Z" transform="translate(3601.161 -941.072)"/><path class="h" d="M2220.687,1975.69h.783l2.178,9.808h-1.06l-.517-2.564h-2.036l-.533,2.564h-.984Zm1.126,5.969c-.351-1.723-.617-3.245-.751-4.042-.151.855-.417,2.362-.76,4.042Z" transform="translate(3601.521 -941.072)"/><path class="h" d="M2226.779,1975.693h.992v9.824h-.825l-1.9-5.159c-.208-.55-.484-1.333-.7-1.926.032.623.066,1.332.066,1.942l.024,5.128h-.993v-9.837h.776l1.96,5.1c.217.55.458,1.216.675,1.8-.025-.623-.05-1.29-.05-1.739Z" transform="translate(3602.113 -941.075)"/><path class="h" d="M2231.7,1975.69l-.125,1.3h-1.4v8.5h-.984v-8.5h-1.428v-1.3Z" transform="translate(3602.635 -941.072)"/><g transform="translate(5759.055 991.305)"><path class="f" d="M2164.095,1955.544v-18.508h9.545a11.453,11.453,0,0,1,5.528,1.016,3.94,3.94,0,0,1,2,3.64v.749a3.223,3.223,0,0,1-1.569,2.881,3.548,3.548,0,0,1,.942.8,4.832,4.832,0,0,1,1,3.151,6,6,0,0,1-1.794,4.666c-1.193,1.08-3.191,1.606-6.1,1.606Zm7.945-4.571c.45-.012,1.48-.083,1.48-.46v-2.107a.782.782,0,0,0-.175-.585c-.018-.017-.21-.173-.94-.173h-.365Zm.478-7.578a1.147,1.147,0,0,0,.52-.073.712.712,0,0,0,.071-.37V1941.3a1.7,1.7,0,0,0-.552-.066h-.515v2.165Z" transform="translate(-2164.095 -1937.036)"/><path class="g" d="M2164.425,1937.5h8.688a10.406,10.406,0,0,1,5.091.94,3.288,3.288,0,0,1,1.586,3.066v.777q0,2.514-3.282,3a4.209,4.209,0,0,1,2.834,1.329,4.335,4.335,0,0,1,.82,2.759,5.551,5.551,0,0,1-1.529,4.241q-1.529,1.441-5.52,1.441h-8.688Zm7.57,6.6a1.461,1.461,0,0,0,1.118-.338,1.381,1.381,0,0,0,.3-.949v-1.758q0-.859-1.379-.859h-1.343v3.905Zm1.828,6.561v-2.187a1.588,1.588,0,0,0-.429-1.206,2.178,2.178,0,0,0-1.51-.409h-1.193v5.09l.634.02Q2173.822,1951.97,2173.823,1950.662Z" transform="translate(-2164.055 -1936.98)"/><path class="f" d="M2190.6,1955.707a12.143,12.143,0,0,1-6.319-1.306,4.625,4.625,0,0,1-2.3-4.179v-13.186h7.885v13.048a1.51,1.51,0,0,0,.168.83h0a1.236,1.236,0,0,0,.569.085,1.091,1.091,0,0,0,.586-.094,1.582,1.582,0,0,0,.152-.821v-13.048h7.884v13.186a4.622,4.622,0,0,1-2.3,4.178A12.135,12.135,0,0,1,2190.6,1955.707Z" transform="translate(-2161.939 -1937.036)"/><path class="g" d="M2184.23,1953.993a4.038,4.038,0,0,1-1.921-3.638V1937.5h6.228v12.713a2.432,2.432,0,0,0,.3,1.309,1.4,1.4,0,0,0,1.267.469,1.424,1.424,0,0,0,1.269-.459,2.423,2.423,0,0,0,.3-1.319V1937.5h6.228v12.856a4.038,4.038,0,0,1-1.92,3.638,14.684,14.684,0,0,1-11.747,0Z" transform="translate(-2161.899 -1936.98)"/><path class="f" d="M2203.237,1955.515v-14.208h-3.8v-4.036h15.679v4.776h-4.534v13.469Z" transform="translate(-2159.835 -1937.008)"/><path class="g" d="M2203.567,1955.056v-14.184h-3.8V1937.5h14.022v3.373h-4.535v14.184Z" transform="translate(-2159.795 -1936.98)"/><path class="f" d="M2218.693,1955.515l0-14.293h-3.8l0-3.952h15.678v4.776h-4.533v13.469Z" transform="translate(-2157.972 -1937.008)"/><path class="g" d="M2219.022,1955.056v-14.184h-3.8V1937.5h14.021v3.373h-4.533v14.184Z" transform="translate(-2157.932 -1936.98)"/></g></g></svg>