<svg xmlns="http://www.w3.org/2000/svg" width="43.282" height="8.989" viewBox="0 0 43.282 8.989"><defs><style>.a{fill:#dae22c;}</style></defs><path class="a" d="M2606.552,446.083a.875.875,0,0,1-.22.6.79.79,0,0,1-.626.25h-5.288v-8.793h5.288a.79.79,0,0,1,.626.25.92.92,0,0,1,0,1.193.789.789,0,0,1-.626.249h-3.6v1.329h2.19a.792.792,0,0,1,.619.249.858.858,0,0,1,.227.6.824.824,0,0,1-.846.846h-2.19v2.387h3.6a.779.779,0,0,1,.626.257A.886.886,0,0,1,2606.552,446.083Z" transform="translate(-2600.418 -438.03)"/><path class="a" d="M2616.08,444.088a2.6,2.6,0,0,1-.634,1.67,3.127,3.127,0,0,1-1.495,1.05,5.112,5.112,0,0,1-1.481.2,7.305,7.305,0,0,1-2.72-.529.759.759,0,0,1-.529-.755.9.9,0,0,1,.235-.612.749.749,0,0,1,.582-.264,1.118,1.118,0,0,1,.347.06,5.523,5.523,0,0,0,2.085.408,3.244,3.244,0,0,0,1.012-.136,1.236,1.236,0,0,0,.566-.377.858.858,0,0,0,.235-.56.669.669,0,0,0-.2-.468,2.716,2.716,0,0,0-1.737-.711q-3.248-.453-3.248-2.567a2.078,2.078,0,0,1,1.224-1.935,5.226,5.226,0,0,1,2.386-.5,5.324,5.324,0,0,1,2.312.438.784.784,0,0,1,.482.74.9.9,0,0,1-.234.6.735.735,0,0,1-.581.272,1.045,1.045,0,0,1-.408-.09,3.686,3.686,0,0,0-1.6-.273q-1.888,0-1.888.741,0,.513,1.5.875l1.994.453a3.124,3.124,0,0,1,1.193.756A2.182,2.182,0,0,1,2616.08,444.088Z" transform="translate(-2602.197 -438.015)"/><path class="a" d="M2626.4,438.983a.853.853,0,0,1-.227.6.792.792,0,0,1-.618.249h-1.979v6.254a.789.789,0,0,1-.25.627.91.91,0,0,1-1.186,0,.776.776,0,0,1-.257-.627v-6.254h-2.207a.791.791,0,0,1-.627-.249.924.924,0,0,1,0-1.193.792.792,0,0,1,.627-.25h5.878a.792.792,0,0,1,.618.25A.854.854,0,0,1,2626.4,438.983Z" transform="translate(-2604.189 -438.03)"/><path class="a" d="M2635.449,446.085a.76.76,0,0,1-.266.6.893.893,0,0,1-.614.235.775.775,0,0,1-.773-.572l-.528-1.513h-3.606l-.539,1.513a.776.776,0,0,1-.773.572.888.888,0,0,1-.613-.235.759.759,0,0,1-.266-.6.923.923,0,0,1,.061-.317l2.431-6.813a1.439,1.439,0,0,1,1.512-.953,1.423,1.423,0,0,1,1.511.953l2.417,6.813A1.246,1.246,0,0,1,2635.449,446.085Zm-2.778-2.916-.665-1.828q-.138-.363-.274-.725-.136-.453-.273-1.132a16.523,16.523,0,0,1-.561,1.887l-.643,1.8Z" transform="translate(-2605.961 -438.003)"/><path class="a" d="M2644.295,438.983a.857.857,0,0,1-.227.6.794.794,0,0,1-.619.249h-1.98v6.254a.788.788,0,0,1-.249.627.91.91,0,0,1-1.186,0,.776.776,0,0,1-.258-.627v-6.254h-2.206a.789.789,0,0,1-.626-.249.922.922,0,0,1,0-1.193.789.789,0,0,1,.626-.25h5.877a.8.8,0,0,1,.619.25A.857.857,0,0,1,2644.295,438.983Z" transform="translate(-2607.856 -438.03)"/><path class="a" d="M2653.272,446.083a.871.871,0,0,1-.219.6.79.79,0,0,1-.627.25h-5.287v-8.793h5.287a.79.79,0,0,1,.627.25.924.924,0,0,1,0,1.193.79.79,0,0,1-.627.249h-3.6v1.329h2.19a.8.8,0,0,1,.62.249.862.862,0,0,1,.227.6.825.825,0,0,1-.847.846h-2.19v2.387h3.6a.779.779,0,0,1,.627.257A.882.882,0,0,1,2653.272,446.083Z" transform="translate(-2609.99 -438.03)"/></svg>