<svg xmlns="http://www.w3.org/2000/svg" width="790.21" height="867.561" viewBox="0 0 790.21 867.561"><defs><style>.a{fill:rgba(0,0,0,0.09);}</style></defs><path class="a" d="M1065.953,772.217s6.76-.434,13.117,5.924c6.358,6.326,8.063,18.637,8.063,18.637s-6.823-6.357-13.118-7.225c-6.357-.837-13.583-1.272-13.583-1.272s.465,12.684-15.661,14.39c-16.064,1.705-42.734-7.629-50.363-3.38s-13.522,11.443-28.748,9.3c-15.258-2.078-40.223-19.041-53.806-19.878a33.21,33.21,0,0,0-14.482,2.047c-3.164-.093-6.234.093-8.807.218a28.062,28.062,0,0,0-20.406,10.575c-1.209,1.519.4,4.28,2.233,2.915a33.113,33.113,0,0,1,20.591-6.915c-2.077,6.109-8.093,18.979-25.212,31.786-23.724,17.77-99.919,41.494-99.919,41.494s45.711,4.218,62.643,33c16.933,28.81,13.553,43.2,1.705,74.49-11.877,31.322-27.073,46.548,6.792,59.263,33.834,12.715,42.487,33.679,61.56,26.7,19.04-7.039,36.841-19.072,62.208-11.475,25.43,7.629,19.073,15.91,19.073,15.91s12.684-1.923,20.964,7.6c8.188,9.521,6.978,25.367,6.978,25.367s-5.086-10.729-12.715-13.955c-7.63-3.163-16.529,0-16.529,0a81.579,81.579,0,0,1-.621,8.28c-.62,5.4-3.473,13.645-3.473,13.645s6.637.62,12.653,9.49c6.047,8.931.992,27.972.992,27.972s-2.543-10.481-9.242-15.567a55.793,55.793,0,0,0-12.312-7.289s-.992,2.823-5.116,6.669c-4.125,3.782-17.77,4.434-17.77,4.434s6.357,2.854,7.008,12.994c.589,10.172-5.737,21.925-5.737,21.925s-1.271-9.521-4.466-16.188c-3.163-6.668-10.481-10.172-10.481-10.172s-15.227,6.667-27.29,2.543c-12.064-4.093-18.39-18.389-24.779-17.77-6.3.651-29.8,2.543-41.215-2.852-11.474-5.428-14.3-33.028-32.376-34.61-18.112-1.612-53.03,2.2-64.783-10.792-11.785-13.024.341-52.378,4.124-66.675,3.814-14.266,4.744-19.01-14.607-18.7-19.382.31-55.232,12.032-67.3,4.435-10.761-6.791-19.009-22.2-20.653-25.4,6.946-15.041,22.049-24.686,36.1-38.052,13.614-12.993,25.336-29.4,30.485-47.633a1.431,1.431,0,0,0-2.606-1.085c-14.916,24.034-29.74,43.975-51.51,62.3-12.809,10.761-20.22,22.98-20.158,37.835-9.551,15.008-28.809,37.028-60.565,38.7-48.533,2.542-58.705-4.436-79.607,8.249-21,12.653-25.771,31.446-17.832,47.944,7.939,16.468,43.54,9.211,67.947,19.041,24.468,9.831,32.407,18.7,32.066,30.733a22.247,22.247,0,0,1-9.862,17.8s2.885,2.264,3.815,11.444c.992,9.211-7.257,23.2-7.257,23.2a67.879,67.879,0,0,0-4.467-18.452c-3.782-9.179-8.59-12.342-8.59-12.342s-.652.31-3.132,1.891c-2.574,1.552-8.28,3.165-8.28,3.165a43.5,43.5,0,0,1,1.922,14.575c-.341,8.621-9.21,22.546-9.21,22.546s.621-13.614-2.852-19.631a40.253,40.253,0,0,0-7.661-9.552,26.409,26.409,0,0,1-10.76,1.582,63.282,63.282,0,0,1-14.018-2.852,16.649,16.649,0,0,1,1.644,14.3c-2.884,7.938-14.3,14.576-14.3,14.576s4.776-10.792,1.55-16.188c-3.131-5.4-8.248-12.373-8.248-12.373s-5.675,1.271-13.614-3.783c-7.94-5.086-5.737-27.942-16.188-30.485-10.482-2.543-26.361,1.271-32.376-9.211-6.047-10.482,17.429-53.619,17.149-76.164-.341-22.546-27.973-79.049-12.715-88.57,15.227-9.551,40.9,4.745,62.861-3.845,21.894-8.528,26.669-9.49,24.716-30.8-1.892-21.243-1.55-33.616-1.55-33.616a50.863,50.863,0,0,1-.621-5.737c-5.489.433-12.156.775-20.25.775-29.617,0-49.929-1.705-57.527-38.114-7.629-36.408,21.15-71.947,53.279-109.223,32.158-37.214,40.687-93.9,28.84-122.714-11.877-28.779-37.245-47.385-72.846-51.634-35.571-4.218-43.974,14.39-67.7,38.083-23.723,23.755-53.34,13.552-53.34,13.552A238.991,238.991,0,0,0,358.7,584.72c21.987-18.607,14.39-50.8,33.865-68.567C412.01,498.384,417.1,503.47,417.1,503.47a503.1,503.1,0,0,1-36.408-50.828c-18.608-29.617-.868-40.625-3.349-64.318C374.794,364.63,344.31,355.3,344.31,355.3s19.475-1.674,61.806,12.684c42.3,14.42,26.205,63.512,29.647,89.748,3.38,26.267,19.445,36.407,19.445,36.407a80.422,80.422,0,0,1,3.411-30.485c5.055-16.063,17.739-43.168,44.006-44.873,26.174-1.674,38.92,9.365,38.92,9.365s-33.834,19.414-56.721,51.6c-22.855,32.159,6.76,52.471,33.028,94.8C544.088,616.911,539,640.6,533.079,687.989s-66.893,100.726-76.165,120.2c-9.334,19.475-8.5,33.865,6.76,44.006,9.924,6.637,29.8,5.706,42.548,4.249a71.6,71.6,0,0,1,24.127-36.625c34.268-27.911,85.686-45.711,111.736-59.667,15.133-8.156,24.034-16.9,28.809-22.793,3.536-1.613,7.164-3.008,10.637-4.528,7.723-3.349,13.987-8.466,19.785-14.482,10.049-10.576,18.391-25.554,21.337-39.912a1.235,1.235,0,0,0-2.078-1.148c-10.481,11.847-16.374,26.95-27.291,38.7-10.357,11.133-25.057,14.173-34.888,25.647a27.644,27.644,0,0,1-13.148,1.395c-16.5-2.573-30.453-14.017-30.453-14.017s18.358-3.783,28.592-12.033c10.11-8.28,13.3-17.8,13.3-17.8s-31.724-15.847-49.557-34.918c-17.77-19.011-6.357-60.319-6.357-60.319s-13.955-14.576-22.2-41.276c-8.219-26.64,10.14-62.83,10.14-62.83s-10.761-10.172-10.14-34.919c.527-20.685,10.792-39.106,14.172-44.626,7.659,5.861,16.436,10.42,26.019,10.078a1.473,1.473,0,0,0,.371-2.883c-10.76-3.97-20.095-8.343-29.057-14.917-3.225-5.489-7.66-13.738-9.615-20.685-3.163-11.412,1.3-15.2,11.444-17.739,10.172-2.543,33.679,8.249,33.679,8.249s10.141-35.539,34.268-45.09c24.1-9.521,59.666-8.9,59.666-8.9s-12.063,5.086-17.8,8.9c-5.706,3.814-12.063,17.149-12.063,17.149s31.724-6.326,49.556-2.512c17.739,3.815,26.019,24.748,26.019,24.748s60.318-22.856,71.111-19.072c10.822,3.814,7.6,15.258,7.6,15.258a34.1,34.1,0,0,1,10.823,16.5c3.132,10.792,4.466,23.475,1.923,28.592-2.574,5.055-11.661,13.118-11.661,13.118A29.16,29.16,0,0,1,846.7,442.5c-.4,5.923-1.675,13.521-1.675,13.521s-1.706-7.164-4.652-10.575a65.9,65.9,0,0,1-5.953-8.435,95.226,95.226,0,0,1-26.267,6.3c-14.358,1.3-22.39-3.349-32.562,6.791-10.141,10.171-22.019,30.919-6.327,35.136,15.63,4.249,25.367,8.5,40.222,2.575,14.793-5.924,21.988-9.769,21.988-9.769s2.946-8.032,2.108-12.281c-.837-4.218-2.108-9.273-2.108-9.273s8,5.489,9.334,10.575a19.52,19.52,0,0,1,0,9.273s8.839-5.893,16.5-4.622c7.6,1.241,14.358,10.172,13.087,18.2s-27.508,27.073-27.508,27.073-.837,15.63,9.334,22.856c10.11,7.195,21.987,13.955,31.725,7.629a116.455,116.455,0,0,0,18.2-15.258,23.059,23.059,0,0,1-3.412,14.824c-4.62,7.6-14.792,15.227-14.792,15.227s6.358,1.271,21.151,12.28c14.823,11.009,22.018,19.91,22.018,19.91s18.639-20.343,27.1-41.06c8.435-20.778,21.616-59.293,18.608-79.576-2.946-20.343-2.109-40.625,10.606-47.417,12.653-6.76,27.446-5.055,27.446-5.055s-.373-5.086,6.388-8.869c6.76-3.814,21.15-2.14,21.15-2.14a37.2,37.2,0,0,0-8.063,5.489l-6.327,6.327a67.422,67.422,0,0,1,12.311,5.117c5.055,2.946,9.3,9.737,9.3,9.737s9.3-4.28,18.608-4.28,18.2,5.086,18.2,5.086-10.607.434-16.9,3.007c-6.358,2.482-12.312,5.458-12.312,5.458s4.249,3.815,5.519,11.444a33.334,33.334,0,0,1,0,12.715s14.391-4.218,21.988-2.139c7.629,2.139,14.824,8.9,14.824,8.9s-11.413-.868-18.2,1.705a44.725,44.725,0,0,0-11.814,6.761s5.891,8.436,1.674,16.932c-4.217,8.466-34.3,21.987-46.114,37.245-11.878,15.227-18.669,38.486-16.963,66.892,1.674,28.313-2.109,46.548-25,74.025-14.979,18.049-28.438,28.593-35.974,33.741-4.094,1.644-8.156,3.256-12.312,4.744-23.693,8.436-47.882,15.2-70.738,25.772-.868.4-.279,1.674.59,1.426,27.321-7.133,54.332-15.63,80.879-25.212,2.295,1.551,5.675,3.846,10.512,7.381,12.715,9.334,19.01,15.227,32.159,13.118,13.117-2.14,34.7-40.625,52.5-38.951,17.77,1.706,18.576,8.063,18.576,8.063s1.3-3.814,10.2-4.248c8.838-.434,20.281,7.66,20.281,7.66a24.17,24.17,0,0,0-12.281,2.078c-6.761,2.946-11.847,9.3-11.847,9.3a19,19,0,0,1,7.629,4.248c3.815,3.38,3.381,9.3,3.381,9.3a45.82,45.82,0,0,1,19.041,5.054c9.737,5.117,12.281,19.506,12.281,19.506s-8.063-7.194-13.956-8.5a55.059,55.059,0,0,0-12.715-.807s-.838,3.38-2.512,8.064c-1.705,4.62-8.9,9.706-8.9,9.706Zm-364.078-362h0a113.455,113.455,0,0,1,17.181-7.6c8.062-2.512,13.118-2.077,23.2-.714-1.147-3.907-8.839-4.434-11.2-7.255s-.434-5.49.962-8.87c-3.443-.371-11.94,4.5-18.081,9.707-6.048,5.21-12.063,14.731-12.063,14.731Zm64.969,135.676h0c11.847,26.36,32.036,50.765,57.31,64.784,4.155,2.294,7.256-3.536,3.628-6.2-23.785-17.738-47.385-38.7-57.557-67.451-.9-2.606-4.59-3.443-6.079-.806a174.71,174.71,0,0,0-13.893,32.872c-8.28-18.112-18.948-35.664-16.933-56.224.31-2.76-3.473-4.931-5.737-3.287a65.227,65.227,0,0,0-21.118,25.181c-3.877-14.421-2.543-29-.093-44.1.589-3.6-3.443-6.574-6.358-3.721-9.675,9.614-19.817,18.67-27.942,29.369,3.691-15.972,9.334-31.043,20.22-44.254,1.613-2.016.187-5.923-2.853-4.838-15.32,5.489-27.539,14.606-38.579,25.833,5.861-17.553,14.234-34.02,20.871-51.325.527-1.3-1.613-2.2-2.264-.961-10.575,19.475-20.283,39.385-26.236,60.752-.651,2.233,2.326,4.125,4,2.326,10.2-11.2,21.026-20.81,34.422-27.2-11.319,16.994-16.31,36.19-19.816,56.72-.621,3.6,4.559,6.513,6.357,2.7,6.761-14.482,17.77-25.274,29.12-36-2.14,16.715-1.643,32.717,5.241,48.905,1.551,3.629,6.915,2.171,7.845-1.023,3.008-10.576,7.846-19.351,15.258-26.732,1.551,21.584,14.173,40.408,21.522,60.566,1.272,3.442,6.482,4,7.505,0,3.256-12.374,6.915-24.283,12.157-35.88ZM879.883,701.355h0c-.062-1.147-1.706-1.768-2.233-.62-.713,1.457-1.426,2.853-2.047,4.249a1.084,1.084,0,0,0-1.241.092C854.577,720.4,835.35,733.7,810.51,739.592a1.114,1.114,0,0,0,.278,2.171c19.01-1.457,44.719-10.855,58.829-26.453a84.172,84.172,0,0,1-11.381,13.707c-8.094,7.939-15.754,14.978-21.212,25.058a1.71,1.71,0,0,0,2.946,1.737c12.125-18.08,40.625-29.586,39.912-54.457Z" transform="translate(-313.826 -328.4)"/></svg>