<svg xmlns="http://www.w3.org/2000/svg" width="745.272" height="728.278" viewBox="0 0 745.272 728.278"><defs><style>.a{opacity:0.1;}.b{fill:#f3e9b5;}</style></defs><g class="a"><path class="b" d="M288.718,483.71,425.753,381.458V336.909L288.718,439.893Z" transform="translate(-152.546 -107.972)"/><path class="b" d="M288.718,488.695,425.753,386.448v-45.7L288.718,442.986Z" transform="translate(-152.546 -12.265)"/><path class="b" d="M891.453,974.248c24.927-20.175,47.476-42.5,66.244-67.286,21.068-29.835,38.674-61.147,50.305-94.013a333.461,333.461,0,0,0,13.8-49.467c1.374-8.314,2.775-16.576,4.15-24.785,1.269-8.261,1.454-17.249,2.115-25.692,1.744-18,.052-31.313-.423-46.074l-.29-7.019-.82-5.853-1.665-11.6c-1.269-7.692-1.85-15.359-3.728-22.791-4.017-14.814-6.555-29.577-12.266-43.3q-3.767-10.373-7.481-20.538-4.679-9.791-9.252-19.4c-11.737-25.744-27.36-48.25-43.062-68.762C916.01,427.65,879,397.634,842.893,377.251c-36.11-20.563-70.739-31.752-99.368-38.719q-10.825-2.369-20.461-4.481c-6.476-1.268-12.688-1.787-18.4-2.589-11.447-1.632-21.147-2.8-28.946-2.669-15.65-.491-24-.725-24-.725h-.159s-8.432.44-24.213,1.269c-7.958.078-17.579,1.476-28.92,3.341-5.63.958-11.79,1.6-18.213,3q-9.6,2.37-20.354,5c-28.444,7.588-62.782,19.632-98.363,41-35.66,21.211-71.848,52.135-103.914,92.873-15.173,20.875-30.241,43.744-41.317,69.72-2.908,6.474-5.816,13.028-8.751,19.606-2.326,6.837-4.626,13.727-7,20.693-5.313,13.6-7.666,29.343-11.261,44.78-1.692,7.847-2.01,14.3-3.066,21.574l-1.348,10.67-.687,5.387-.186,7.381c-.133,15.747-1.216,31.934.9,48.172,2.035,32.686,10.1,65.887,22.258,98.391,12.424,32.529,30.8,63.4,52.552,92.693,22.575,28.773,50.6,53.818,81.392,75.934,31.166,21.73,66.351,38.461,103.518,50.141l28.311,7.434c9.094,2.615,20.381,3.444,30.532,5.1l15.65,2.072c5.551.778,8.724.545,13.19.855l28.048,1.191c39.07-1.5,78.246-6.941,115.334-19.165,36.85-12.613,71.743-29.939,102.407-52.445,2.988-2.253,5.948-4.559,8.882-6.89m100.5-269.012c-3.251,28.67-12.5,57.5-24.187,85.285-12,27.867-29.158,53.844-48.746,78.189a327.182,327.182,0,0,1-23.05,24.449V806.63L754.416,644.788V977.3c-9.728,2.874-19.588,5.232-29.528,7.2V361.789L587.878,455V984.918c-8.512-1.631-16.971-3.548-25.377-5.879-1.9-.57-3.807-1.192-5.737-1.813V757.266L419.729,859.49v37.32c-6.239-6.009-12.292-12.147-18-18.6-20.169-23.879-37.96-49.441-50.6-77.049a327.064,327.064,0,0,1-29.184-170.027,332.665,332.665,0,0,1,52.1-146.044,336.982,336.982,0,0,1,94-93.858c33.149-22.558,66.43-35.067,93.974-43.174q10.469-2.8,19.8-5.31c6.265-1.424,12.265-2.123,17.791-3.133,11.076-1.943,20.513-3.419,28.285-3.549l23.686-1.528c.714.026,8.909.363,23.87.984,7.9-.052,17.341,1.217,28.391,2.926,5.5.854,11.472,1.4,17.764,2.693q9.4,2.292,19.906,4.843c27.755,7.485,61.327,19.217,95.005,41a338.353,338.353,0,0,1,96.221,91.683A332.746,332.746,0,0,1,988.335,623.68c1.375,13.674,2.379,28.023,2.432,41.853C989.974,679.881,990.212,694.746,987.436,708.835Z" transform="translate(-283.566 -328.069)"/></g></svg>