<?xml version="1.0" encoding="utf-8"?>
<!-- Generator: Adobe Illustrator 24.1.0, SVG Export Plug-In . SVG Version: 6.00 Build 0)  -->
<svg version="1.1" id="Layer_1" xmlns="http://www.w3.org/2000/svg" xmlns:xlink="http://www.w3.org/1999/xlink" x="0px" y="0px"
	 viewBox="0 0 31.55 16.13" style="enable-background:new 0 0 31.55 16.13;" xml:space="preserve">
<style type="text/css">
	.st0{fill:#AA1D45;}
</style>
<path class="st0" d="M24.25,48.63c0,0,0.23-0.16,0.29-0.31c0.05-0.15,0.08-0.26,0.08-0.26s0.22-0.01,0.41,0.03
	c0.19,0.04,0.45,0.27,0.45,0.27s-0.08-0.46-0.4-0.63c-0.31-0.16-0.61-0.16-0.61-0.16s0.01-0.19-0.11-0.3
	c-0.12-0.11-0.25-0.14-0.25-0.14s0.16-0.21,0.38-0.3c0.22-0.1,0.4-0.07,0.4-0.07s-0.37-0.26-0.65-0.25
	c-0.29,0.01-0.33,0.14-0.33,0.14s-0.03-0.2-0.6-0.26c-0.57-0.05-1.27,1.19-1.69,1.26c-0.42,0.07-0.63-0.12-1.04-0.42
	c-0.16-0.11-0.26-0.19-0.34-0.24c-0.86,0.31-1.73,0.58-2.61,0.81c-0.03,0.01-0.05-0.03-0.02-0.05c0.74-0.34,1.52-0.56,2.28-0.83
	c0.13-0.05,0.27-0.1,0.4-0.15c0.24-0.17,0.68-0.51,1.16-1.09c0.74-0.89,0.86-1.47,0.81-2.39c-0.05-0.92,0.16-1.67,0.55-2.16
	c0.38-0.49,1.35-0.93,1.49-1.2c0.14-0.27-0.05-0.55-0.05-0.55s0.16-0.14,0.38-0.22c0.22-0.08,0.59-0.05,0.59-0.05
	s-0.23-0.22-0.48-0.29c-0.25-0.07-0.71,0.07-0.71,0.07s0.04-0.16,0-0.41c-0.04-0.25-0.18-0.37-0.18-0.37s0.19-0.1,0.4-0.18
	c0.2-0.08,0.55-0.1,0.55-0.1s-0.29-0.16-0.59-0.16c-0.3,0-0.6,0.14-0.6,0.14s-0.14-0.22-0.3-0.31c-0.16-0.1-0.4-0.16-0.4-0.16
	s0.11-0.11,0.2-0.2c0.1-0.1,0.26-0.18,0.26-0.18s-0.46-0.05-0.68,0.07c-0.22,0.12-0.21,0.29-0.21,0.29s-0.48-0.05-0.89,0.16
	c-0.41,0.22-0.44,0.87-0.34,1.53c0.1,0.65-0.33,1.9-0.6,2.57c-0.27,0.67-0.87,1.32-0.87,1.32s-0.23-0.29-0.71-0.64
	c-0.48-0.36-0.68-0.4-0.68-0.4s0.33-0.25,0.48-0.49c0.15-0.25,0.11-0.48,0.11-0.48s-0.27,0.29-0.59,0.49
	c-0.31,0.2-0.7-0.01-1.02-0.25c-0.33-0.23-0.3-0.74-0.3-0.74s0.85-0.61,0.89-0.87c0.04-0.26-0.18-0.55-0.42-0.59
	c-0.25-0.04-0.53,0.15-0.53,0.15s0.04-0.14,0-0.3c-0.04-0.16-0.3-0.34-0.3-0.34s0.04,0.16,0.07,0.3c0.03,0.14-0.07,0.4-0.07,0.4
	s-0.23,0.12-0.71,0.31c-0.48,0.19-0.79,0.05-1.3-0.08c-0.51-0.14-0.12-0.81,0.2-1.13c0.33-0.33,0.59-0.18,1.05-0.22
	c0.47-0.04,0.85-0.2,0.85-0.2s0.1,0.16,0.19,0.27c0.1,0.11,0.15,0.34,0.15,0.34s0.04-0.24,0.05-0.44c0.01-0.19-0.05-0.37-0.05-0.37
	s0.29-0.26,0.38-0.42c0.08-0.16,0.04-0.57-0.06-0.92c-0.1-0.35-0.35-0.53-0.35-0.53s0.1-0.37-0.25-0.49
	c-0.35-0.12-2.29,0.61-2.29,0.61s-0.27-0.68-0.84-0.8c-0.57-0.12-1.6,0.08-1.6,0.08s0.2-0.43,0.39-0.55
	c0.18-0.12,0.57-0.29,0.57-0.29s-1.15-0.02-1.92,0.29c-0.78,0.31-1.11,1.45-1.11,1.45s-0.76-0.35-1.09-0.27
	C8.64,35.87,8.5,36,8.6,36.36c0.06,0.22,0.21,0.49,0.31,0.67c0.29,0.21,0.59,0.35,0.94,0.48c0.05,0.02,0.04,0.09-0.01,0.09
	c-0.31,0.01-0.59-0.14-0.84-0.32c-0.11,0.18-0.44,0.77-0.46,1.44c-0.02,0.8,0.33,1.13,0.33,1.13s-0.59,1.17-0.33,2.03
	c0.27,0.86,0.72,1.33,0.72,1.33s-0.37,1.33,0.2,1.94c0.57,0.61,1.6,1.13,1.6,1.13s-0.1,0.31-0.43,0.57
	c-0.33,0.27-0.92,0.39-0.92,0.39s0.45,0.37,0.98,0.45c0.15,0.02,0.29,0,0.42-0.04c0.32-0.37,0.79-0.47,1.13-0.83
	c0.35-0.38,0.54-0.87,0.88-1.25c0.03-0.03,0.07,0,0.07,0.04c-0.1,0.46-0.36,0.95-0.69,1.29c-0.19,0.19-0.39,0.36-0.64,0.47
	c-0.11,0.05-0.23,0.09-0.34,0.15c-0.15,0.19-0.44,0.47-0.93,0.74c-0.84,0.45-2.5,1.02-3.6,1.92c-0.44,0.36-0.67,0.79-0.78,1.18
	c-0.41,0.05-1.05,0.08-1.37-0.14c-0.49-0.33-0.52-0.79-0.22-1.42c0.3-0.63,2.26-2.35,2.46-3.88c0.19-1.53,0.35-2.29-0.49-3.66
	c-0.85-1.36-1.8-2.02-1.06-3.06c0.74-1.04,1.83-1.66,1.83-1.66s-0.41-0.36-1.25-0.3c-0.85,0.06-1.26,0.93-1.42,1.45
	c-0.16,0.52-0.11,0.98-0.11,0.98s-0.52-0.33-0.63-1.17c-0.11-0.85,0.41-2.43-0.96-2.89c-1.36-0.46-1.99-0.41-1.99-0.41
	s0.98,0.3,1.06,1.06c0.08,0.76-0.49,1.12,0.11,2.07c0.6,0.96,1.17,1.64,1.17,1.64s-0.16-0.16-0.79,0.41
	c-0.63,0.57-0.38,1.61-1.09,2.21C0.74,43.18,0,43.54,0,43.54s0.95,0.33,1.72-0.44c0.76-0.76,1.04-1.36,2.18-1.23
	c1.15,0.14,1.97,0.74,2.35,1.66c0.38,0.93,0.11,2.76-0.93,3.96c-1.04,1.2-1.96,2.35-1.72,3.52c0.25,1.17,0.9,1.23,1.85,1.23
	c0.26,0,0.48-0.01,0.65-0.02c0.01,0.12,0.02,0.19,0.02,0.19s-0.01,0.4,0.05,1.08c0.06,0.69-0.09,0.72-0.8,0.99
	c-0.71,0.28-1.54-0.18-2.03,0.12c-0.49,0.31,0.4,2.13,0.41,2.86c0.01,0.73-0.75,2.12-0.55,2.46c0.19,0.34,0.71,0.22,1.04,0.3
	c0.34,0.08,0.27,0.82,0.52,0.98c0.26,0.16,0.44,0.12,0.44,0.12s0.16,0.23,0.27,0.4c0.1,0.17-0.05,0.52-0.05,0.52
	s0.37-0.21,0.46-0.47c0.09-0.26-0.05-0.46-0.05-0.46s0.25,0.08,0.45,0.09c0.2,0.01,0.35-0.05,0.35-0.05s0.13,0.11,0.25,0.31
	c0.11,0.19,0.09,0.63,0.09,0.63s0.29-0.45,0.3-0.73c0.01-0.28-0.06-0.47-0.06-0.47s0.18-0.05,0.27-0.1c0.08-0.05,0.1-0.06,0.1-0.06
	s0.16,0.1,0.28,0.4c0.12,0.3,0.14,0.59,0.14,0.59s0.27-0.45,0.23-0.75c-0.03-0.3-0.12-0.37-0.12-0.37s0.31-0.18,0.32-0.57
	c0.01-0.39-0.25-0.67-1.03-0.99c-0.79-0.32-1.93-0.08-2.19-0.61c-0.26-0.53-0.1-1.14,0.57-1.55c0.67-0.41,1-0.18,2.57-0.27
	c1.02-0.05,1.65-0.76,1.95-1.25c0-0.48,0.24-0.87,0.65-1.22c0.7-0.59,1.18-1.23,1.66-2.01c0.03-0.04,0.1-0.02,0.08,0.04
	c-0.17,0.59-0.54,1.12-0.98,1.54c-0.45,0.43-0.94,0.74-1.16,1.23c0.05,0.1,0.32,0.6,0.67,0.82c0.39,0.25,1.55-0.13,2.17-0.14
	c0.62-0.01,0.59,0.14,0.47,0.6c-0.12,0.46-0.51,1.73-0.13,2.15c0.38,0.42,1.5,0.3,2.09,0.35c0.58,0.05,0.67,0.94,1.04,1.12
	c0.37,0.17,1.13,0.11,1.33,0.09c0.21-0.02,0.41,0.44,0.8,0.57c0.39,0.13,0.88-0.08,0.88-0.08s0.24,0.11,0.34,0.33
	c0.1,0.21,0.14,0.52,0.14,0.52s0.2-0.38,0.18-0.71c-0.02-0.33-0.23-0.42-0.23-0.42s0.44-0.02,0.57-0.14
	c0.13-0.12,0.16-0.21,0.16-0.21s0.18,0.07,0.4,0.24c0.22,0.16,0.3,0.5,0.3,0.5s0.16-0.61-0.03-0.9c-0.19-0.29-0.41-0.31-0.41-0.31
	s0.09-0.27,0.11-0.44c0.02-0.17,0.02-0.27,0.02-0.27s0.29-0.1,0.53,0c0.25,0.1,0.41,0.45,0.41,0.45s0.04-0.51-0.23-0.82
	c-0.27-0.31-0.68-0.25-0.68-0.25s0.2-0.27-0.61-0.51c-0.82-0.25-1.39,0.14-2.01,0.37c-0.61,0.23-0.89-0.45-1.99-0.86
	c-1.09-0.41-0.6-0.9-0.22-1.91c0.38-1.01,0.49-1.47-0.05-2.4c-0.55-0.93-2.02-1.06-2.02-1.06s2.46-0.77,3.22-1.34
	c0.55-0.41,0.75-0.83,0.81-1.03c-0.25,0-0.46,0.07-0.66,0.22c-0.06,0.04-0.11-0.05-0.07-0.09c0.16-0.2,0.4-0.33,0.66-0.34
	c0.08,0,0.18-0.01,0.28-0.01c0.11-0.04,0.26-0.08,0.47-0.07c0.44,0.03,1.24,0.57,1.73,0.64c0.49,0.07,0.68-0.16,0.93-0.3
	c0.25-0.14,1.11,0.16,1.62,0.11c0.52-0.06,0.5-0.46,0.5-0.46s0.23,0.01,0.44,0.04c0.2,0.03,0.42,0.23,0.42,0.23s-0.05-0.4-0.26-0.6
	C24.47,48.61,24.25,48.63,24.25,48.63L24.25,48.63z M12.51,36.95c0,0,0.19-0.31,0.39-0.47c0.2-0.17,0.47-0.33,0.58-0.31
	c-0.05,0.11-0.11,0.2-0.03,0.29c0.08,0.09,0.32,0.11,0.36,0.23c-0.32-0.04-0.49-0.06-0.75,0.02C12.81,36.79,12.51,36.95,12.51,36.95
	L12.51,36.95L12.51,36.95z M14.61,41.33c-0.17,0.37-0.29,0.76-0.39,1.16c-0.03,0.13-0.2,0.11-0.24,0c-0.24-0.65-0.64-1.26-0.69-1.95
	c-0.24,0.24-0.4,0.52-0.49,0.86c-0.03,0.1-0.2,0.15-0.25,0.03c-0.22-0.52-0.24-1.04-0.17-1.58c-0.37,0.35-0.72,0.69-0.94,1.16
	c-0.06,0.12-0.22,0.03-0.2-0.09c0.11-0.66,0.27-1.28,0.64-1.83c-0.43,0.21-0.78,0.52-1.11,0.88c-0.05,0.06-0.15,0-0.13-0.08
	c0.19-0.69,0.5-1.33,0.85-1.96c0.02-0.04,0.09-0.01,0.07,0.03c-0.21,0.56-0.48,1.09-0.67,1.65c0.36-0.36,0.75-0.66,1.24-0.83
	c0.1-0.04,0.14,0.09,0.09,0.16c-0.35,0.43-0.53,0.91-0.65,1.43c0.26-0.34,0.59-0.64,0.9-0.95c0.09-0.09,0.22,0,0.2,0.12
	c-0.08,0.49-0.12,0.96,0,1.42c0.15-0.32,0.37-0.59,0.68-0.81c0.07-0.05,0.19,0.02,0.18,0.11c-0.06,0.66,0.28,1.23,0.55,1.81
	c0.12-0.37,0.26-0.72,0.45-1.06c0.05-0.09,0.17-0.06,0.2,0.03c0.33,0.93,1.09,1.6,1.86,2.17c0.12,0.09,0.02,0.27-0.12,0.2
	C15.64,42.97,14.99,42.18,14.61,41.33L14.61,41.33L14.61,41.33z M18.25,46.34c0.02,0.8-0.9,1.17-1.29,1.76
	c-0.04,0.06-0.13,0.01-0.1-0.06c0.18-0.32,0.42-0.55,0.68-0.81c0.15-0.14,0.26-0.29,0.37-0.44c-0.45,0.5-1.28,0.81-1.9,0.85
	c-0.04,0-0.05-0.06-0.01-0.07c0.8-0.19,1.42-0.62,2.06-1.11c0.01-0.01,0.03-0.01,0.04,0c0.02-0.04,0.04-0.09,0.07-0.14
	C18.2,46.29,18.25,46.3,18.25,46.34L18.25,46.34L18.25,46.34z"/>
<g>
	<g>
		<g>
			<polygon class="st0" points="37.77,52.1 41.4,49.34 41.4,48.13 37.77,50.92 			"/>
			<polygon class="st0" points="37.77,54.83 41.4,52.06 41.4,50.83 37.77,53.59 			"/>
			<path class="st0" d="M50.27,59.42c0.66-0.55,1.26-1.15,1.76-1.82c0.56-0.81,1.02-1.65,1.33-2.54c0.15-0.44,0.28-0.89,0.37-1.34
				c0.04-0.22,0.07-0.45,0.11-0.67c0.03-0.22,0.04-0.47,0.06-0.69c0.05-0.49,0-0.85-0.01-1.25l-0.01-0.19l-0.02-0.16l-0.04-0.31
				c-0.03-0.21-0.05-0.41-0.1-0.62c-0.11-0.4-0.17-0.8-0.32-1.17c-0.07-0.19-0.13-0.37-0.2-0.56c-0.08-0.18-0.16-0.35-0.25-0.52
				c-0.31-0.7-0.72-1.3-1.14-1.86c-0.88-1.08-1.86-1.89-2.81-2.44c-0.96-0.56-1.87-0.86-2.63-1.05c-0.19-0.04-0.37-0.08-0.54-0.12
				c-0.17-0.03-0.34-0.05-0.49-0.07c-0.3-0.04-0.56-0.08-0.77-0.07c-0.41-0.01-0.64-0.02-0.64-0.02l0,0c0,0-0.22,0.01-0.64,0.03
				c-0.21,0-0.47,0.04-0.77,0.09c-0.15,0.03-0.31,0.04-0.48,0.08c-0.17,0.04-0.35,0.09-0.54,0.13c-0.75,0.21-1.66,0.53-2.61,1.11
				c-0.94,0.57-1.9,1.41-2.75,2.51c-0.4,0.56-0.8,1.18-1.1,1.89c-0.08,0.18-0.15,0.35-0.23,0.53c-0.06,0.18-0.12,0.37-0.19,0.56
				c-0.14,0.37-0.2,0.79-0.3,1.21c-0.04,0.21-0.05,0.39-0.08,0.58l-0.04,0.29l-0.02,0.15l-0.01,0.2c0,0.43-0.03,0.86,0.02,1.3
				c0.05,0.88,0.27,1.78,0.59,2.66c0.33,0.88,0.82,1.71,1.39,2.51c0.6,0.78,1.34,1.46,2.16,2.05c0.83,0.59,1.76,1.04,2.74,1.36
				l0.75,0.2c0.24,0.07,0.54,0.09,0.81,0.14l0.41,0.06c0.15,0.02,0.23,0.01,0.35,0.02l0.74,0.03c1.04-0.04,2.07-0.19,3.06-0.52
				c0.98-0.34,1.9-0.81,2.71-1.42c0.08-0.06,0.16-0.12,0.24-0.19 M52.81,52.24c-0.09,0.78-0.33,1.56-0.64,2.31
				c-0.32,0.75-0.77,1.46-1.29,2.11c-0.19,0.23-0.4,0.45-0.61,0.66v-2.44l-3.63-4.38v8.99c-0.26,0.08-0.52,0.14-0.78,0.19V42.85
				l-3.63,2.52v14.33c-0.23-0.04-0.45-0.1-0.67-0.16c-0.05-0.02-0.1-0.03-0.15-0.05v-5.95l-3.63,2.76v1.01
				c-0.17-0.16-0.33-0.33-0.48-0.5c-0.53-0.65-1.01-1.34-1.34-2.08c-0.68-1.49-0.92-3.1-0.77-4.6c0.16-1.48,0.67-2.85,1.38-3.95
				c0.71-1.1,1.61-1.94,2.49-2.54c0.88-0.61,1.76-0.95,2.49-1.17c0.18-0.05,0.36-0.1,0.52-0.14c0.17-0.04,0.32-0.06,0.47-0.08
				c0.29-0.05,0.54-0.09,0.75-0.1c0.41-0.03,0.62-0.04,0.63-0.04c0.02,0,0.24,0.01,0.63,0.03c0.21,0,0.46,0.03,0.75,0.08
				c0.15,0.02,0.3,0.04,0.47,0.07c0.17,0.04,0.34,0.08,0.53,0.13c0.74,0.2,1.62,0.52,2.52,1.11c0.89,0.58,1.81,1.39,2.55,2.48
				c0.73,1.08,1.28,2.43,1.47,3.92c0.04,0.37,0.06,0.76,0.06,1.13C52.88,51.46,52.89,51.86,52.81,52.24z"/>
		</g>
	</g>
	<path class="st0" d="M52.87,46.25c0,0-0.2-0.26-0.56-0.73c-0.09-0.11-0.18-0.25-0.3-0.38c-0.12-0.12-0.25-0.26-0.39-0.4
		c-0.14-0.14-0.29-0.3-0.44-0.46c-0.17-0.14-0.36-0.29-0.55-0.45c-0.2-0.15-0.38-0.34-0.61-0.47c-0.22-0.14-0.46-0.29-0.7-0.44
		c-0.23-0.16-0.5-0.27-0.77-0.39c-0.27-0.11-0.53-0.28-0.83-0.36c-0.29-0.09-0.59-0.19-0.89-0.29c-0.15-0.06-0.3-0.09-0.46-0.11
		c-0.16-0.03-0.31-0.06-0.47-0.09c-0.32-0.06-0.63-0.13-0.96-0.12c-0.32-0.02-0.64-0.03-0.96-0.05c-0.66,0.06-1.35,0.05-1.95,0.22
		l-0.47,0.1c-0.16,0.03-0.31,0.06-0.46,0.12c-0.3,0.1-0.59,0.21-0.88,0.31c-0.29,0.1-0.55,0.27-0.82,0.38
		c-0.26,0.13-0.53,0.24-0.76,0.41c-0.24,0.16-0.47,0.31-0.69,0.45c-0.23,0.14-0.4,0.33-0.6,0.48c-0.19,0.16-0.37,0.32-0.54,0.46
		c-0.15,0.17-0.3,0.32-0.44,0.47c-0.14,0.15-0.27,0.29-0.39,0.41c-0.12,0.13-0.2,0.27-0.29,0.38c-0.34,0.47-0.54,0.74-0.54,0.74
		s0.17-0.29,0.47-0.79c0.08-0.12,0.15-0.27,0.26-0.41c0.11-0.14,0.23-0.29,0.36-0.45c0.13-0.16,0.26-0.33,0.41-0.51
		c0.17-0.16,0.34-0.33,0.53-0.5c0.19-0.17,0.36-0.37,0.59-0.52c0.22-0.16,0.45-0.33,0.69-0.5c0.23-0.18,0.5-0.31,0.77-0.46
		c0.27-0.14,0.54-0.31,0.84-0.42c0.3-0.11,0.6-0.22,0.91-0.34c0.15-0.06,0.31-0.1,0.48-0.14c0.16-0.04,0.33-0.07,0.49-0.11
		c0.66-0.19,1.32-0.18,1.99-0.25c0.34,0.02,0.69,0.04,1.03,0.06c0.34,0,0.67,0.08,1,0.14c0.16,0.03,0.33,0.07,0.49,0.1
		c0.16,0.03,0.32,0.06,0.48,0.12c0.31,0.11,0.62,0.21,0.92,0.31c0.3,0.1,0.57,0.27,0.85,0.4c0.27,0.14,0.54,0.26,0.78,0.44
		c0.24,0.16,0.47,0.33,0.7,0.48c0.23,0.15,0.41,0.35,0.6,0.51c0.19,0.17,0.37,0.33,0.54,0.49c0.15,0.18,0.29,0.34,0.42,0.5
		c0.13,0.16,0.25,0.3,0.37,0.44c0.11,0.14,0.19,0.28,0.27,0.4C52.69,45.97,52.87,46.25,52.87,46.25L52.87,46.25z"/>
	<path class="st0" d="M38.34,35.52c0.27,1.32,0.55,2.63,0.82,3.95c0.06-0.04,0.14-0.06,0.21-0.06c0.23,0,0.41,0.18,0.41,0.41
		c0,0.23-0.18,0.41-0.41,0.41c-0.02,0-0.04,0-0.05,0c0.04,0.21,0.09,1.28,0.13,1.51c1.36-0.69,2.89-1.09,4.52-1.11
		c1.67-0.02,3.25,0.36,4.64,1.05c0.04-0.31,0.08-1.25,0.12-1.45c0,0,0,0,0,0c-0.02,0-0.03,0-0.05,0c-0.23,0-0.41-0.18-0.41-0.41
		c0-0.23,0.18-0.41,0.41-0.41c0.02,0,0.03,0,0.05,0c0,0,0.01,0,0.01,0c0.01,0,0.02,0,0.04,0.01c0,0,0.01,0,0.01,0
		c0.02,0,0.03,0.01,0.05,0.02c0,0,0,0,0.01,0c0.01,0.01,0.02,0.01,0.04,0.02c0,0,0,0,0.01,0c0.27-1.32,0.54-2.63,0.82-3.95
		c0.07,0,0.14-0.01,0.19-0.04c0.18-0.08,0.3-0.25,0.3-0.46v0c0-0.17-0.09-0.33-0.22-0.42c-0.01-0.01-0.03-0.02-0.04-0.03
		c-0.03-0.02-0.06-0.03-0.09-0.04c-0.05-0.01-0.1-0.02-0.15-0.02c-0.05,0-0.1,0.01-0.15,0.02c-0.03,0.01-0.06,0.02-0.09,0.04
		c-0.01,0.01-0.03,0.02-0.04,0.03c-0.13,0.09-0.22,0.24-0.22,0.42v0c0,0.07,0.02,0.14,0.04,0.21c0.05,0.1,0.13,0.19,0.23,0.24
		c-0.01,0.04-0.02,0.09-0.03,0.13c0,0.02-0.01,0.03-0.01,0.05c-0.01,0.03-0.02,0.05-0.02,0.08c0,0.02-0.01,0.03-0.02,0.05
		c-0.01,0.02-0.01,0.05-0.02,0.07c-0.01,0.02-0.01,0.04-0.02,0.06c-0.01,0.02-0.01,0.04-0.02,0.07c-0.01,0.02-0.01,0.04-0.02,0.06
		c-0.01,0.02-0.01,0.04-0.02,0.06c-0.01,0.02-0.01,0.04-0.02,0.06c-0.01,0.02-0.01,0.04-0.02,0.06c-0.01,0.02-0.01,0.04-0.02,0.06
		c-0.01,0.02-0.01,0.04-0.02,0.06c-0.01,0.02-0.01,0.04-0.02,0.05c-0.01,0.02-0.01,0.04-0.02,0.06c-0.01,0.02-0.01,0.04-0.02,0.05
		c-0.01,0.02-0.01,0.04-0.02,0.05c-0.01,0.02-0.01,0.03-0.02,0.05c-0.01,0.02-0.01,0.03-0.02,0.05c-0.01,0.02-0.01,0.03-0.02,0.05
		c-0.01,0.02-0.01,0.03-0.02,0.05c-0.01,0.02-0.01,0.03-0.02,0.05c-0.01,0.02-0.01,0.03-0.02,0.05c-0.01,0.02-0.02,0.03-0.02,0.05
		c-0.01,0.02-0.01,0.03-0.02,0.05c-0.01,0.02-0.01,0.03-0.02,0.05c-0.01,0.01-0.01,0.03-0.02,0.04c-0.01,0.01-0.02,0.03-0.02,0.04
		c-0.01,0.01-0.01,0.03-0.02,0.04c-0.01,0.01-0.02,0.03-0.02,0.04c-0.01,0.01-0.01,0.03-0.02,0.04c-0.01,0.01-0.02,0.03-0.02,0.04
		c-0.01,0.01-0.02,0.03-0.02,0.04c-0.01,0.01-0.02,0.02-0.02,0.04c-0.01,0.01-0.02,0.02-0.02,0.04c-0.01,0.01-0.02,0.02-0.02,0.03
		c-0.01,0.01-0.02,0.02-0.02,0.03c-0.01,0.01-0.02,0.02-0.02,0.03c-0.01,0.01-0.02,0.02-0.02,0.03c-0.01,0.01-0.02,0.02-0.02,0.03
		c-0.01,0.01-0.02,0.02-0.02,0.03c-0.01,0.01-0.02,0.02-0.02,0.03c-0.01,0.01-0.02,0.02-0.02,0.03c-0.01,0.01-0.01,0.02-0.02,0.02
		c-0.01,0.01-0.02,0.02-0.02,0.02c-0.01,0.01-0.01,0.01-0.02,0.02c-0.01,0.01-0.02,0.02-0.02,0.02c-0.01,0.01-0.01,0.01-0.02,0.02
		c-0.01,0.01-0.02,0.01-0.02,0.02c-0.01,0.01-0.01,0.01-0.02,0.02c-0.01,0.01-0.02,0.01-0.02,0.02c-0.01,0-0.01,0.01-0.02,0.01
		c-0.01,0.01-0.02,0.01-0.03,0.01c-0.01,0-0.01,0.01-0.02,0.01c-0.01,0-0.02,0.01-0.03,0.01c-0.01,0-0.01,0.01-0.02,0.01
		c-0.01,0-0.02,0.01-0.03,0.01c0,0-0.01,0-0.01,0c-0.01,0-0.03,0.01-0.04,0.01c0,0-0.01,0-0.01,0c-0.01,0-0.02,0-0.03,0
		c-0.01,0-0.02,0-0.04,0c0,0,0,0-0.01,0c-0.29-0.05-0.49-0.56-0.57-1.32c-0.04-0.4-0.05-0.87-0.01-1.37
		c0.24-0.04,0.43-0.25,0.43-0.5c0-0.28-0.23-0.5-0.5-0.5c-0.28,0-0.5,0.23-0.5,0.5c0,0.22,0.14,0.4,0.33,0.47
		c-0.01,0.04-0.02,0.09-0.02,0.13c0,0.01-0.01,0.03-0.01,0.04c-0.01,0.03-0.01,0.06-0.02,0.09c0,0.01-0.01,0.03-0.01,0.04
		c-0.01,0.03-0.01,0.06-0.02,0.08c0,0.02-0.01,0.03-0.01,0.05c-0.01,0.03-0.01,0.05-0.02,0.08c0,0.02-0.01,0.03-0.01,0.05
		c-0.01,0.03-0.01,0.05-0.02,0.07c0,0.02-0.01,0.03-0.01,0.05c-0.01,0.02-0.01,0.05-0.02,0.07c0,0.02-0.01,0.03-0.01,0.05
		c-0.01,0.02-0.01,0.04-0.02,0.07c0,0.02-0.01,0.03-0.01,0.05c-0.01,0.02-0.01,0.04-0.02,0.06c0,0.02-0.01,0.03-0.01,0.05
		C47.01,36.17,47,36.19,47,36.21c-0.01,0.02-0.01,0.03-0.02,0.05c-0.01,0.02-0.01,0.04-0.02,0.06c-0.01,0.02-0.01,0.03-0.02,0.05
		c-0.01,0.02-0.01,0.04-0.02,0.06c-0.01,0.02-0.01,0.03-0.02,0.05c-0.01,0.02-0.01,0.04-0.02,0.06c-0.01,0.01-0.01,0.03-0.02,0.04
		c-0.01,0.02-0.01,0.04-0.02,0.05c-0.01,0.01-0.01,0.03-0.02,0.04c-0.01,0.02-0.01,0.03-0.02,0.05c-0.01,0.01-0.01,0.03-0.02,0.04
		c-0.01,0.02-0.01,0.03-0.02,0.05c-0.01,0.01-0.01,0.03-0.02,0.04c-0.01,0.02-0.01,0.03-0.02,0.05c-0.01,0.01-0.01,0.03-0.02,0.04
		c-0.01,0.01-0.01,0.03-0.02,0.04c-0.01,0.01-0.01,0.02-0.02,0.04c-0.01,0.01-0.01,0.03-0.02,0.04c-0.01,0.01-0.01,0.02-0.02,0.03
		c-0.01,0.01-0.01,0.03-0.02,0.04c-0.01,0.01-0.01,0.02-0.02,0.03c-0.01,0.01-0.01,0.02-0.02,0.04c-0.01,0.01-0.01,0.02-0.02,0.03
		c-0.01,0.01-0.01,0.02-0.02,0.03c-0.01,0.01-0.01,0.02-0.02,0.03c-0.01,0.01-0.01,0.02-0.02,0.03c-0.01,0.01-0.01,0.02-0.02,0.03
		c-0.01,0.01-0.01,0.02-0.02,0.03c-0.01,0.01-0.01,0.02-0.02,0.02c-0.01,0.01-0.01,0.02-0.02,0.02c-0.01,0.01-0.01,0.01-0.02,0.02
		c-0.01,0.01-0.01,0.01-0.02,0.02c-0.01,0.01-0.01,0.01-0.02,0.02c-0.01,0.01-0.02,0.01-0.02,0.02c-0.01,0.01-0.01,0.01-0.02,0.02
		c-0.01,0.01-0.01,0.01-0.02,0.02c-0.01,0-0.01,0.01-0.02,0.01c-0.01,0-0.01,0.01-0.02,0.01c-0.01,0-0.01,0.01-0.02,0.01
		c-0.01,0-0.01,0.01-0.02,0.01c-0.01,0-0.01,0.01-0.02,0.01c-0.01,0-0.01,0-0.02,0.01c-0.01,0-0.01,0-0.02,0c-0.01,0-0.01,0-0.02,0
		c-0.01,0-0.01,0-0.02,0c-0.01,0-0.02,0-0.03,0c-0.45-0.04-0.78-1.18-0.79-2.65c0.22-0.05,0.38-0.25,0.38-0.49
		c0-0.28-0.22-0.5-0.5-0.5c-0.28,0-0.5,0.23-0.5,0.5c0,0.23,0.16,0.43,0.38,0.49c-0.01,0.06-0.01,0.12-0.02,0.19
		c-0.01,0.07-0.02,0.15-0.03,0.22c-0.01,0.11-0.03,0.23-0.05,0.33c0,0.01-0.01,0.03-0.01,0.04c-0.01,0.04-0.01,0.07-0.02,0.11
		c0,0,0,0.01,0,0.01c-0.01,0.03-0.01,0.06-0.02,0.08c0,0.01-0.01,0.02-0.01,0.03c-0.02,0.08-0.03,0.15-0.05,0.22c0,0,0,0,0,0
		c-0.01,0.04-0.02,0.07-0.03,0.11v0c-0.01,0.03-0.02,0.07-0.03,0.1c0,0,0,0,0,0.01c-0.11,0.37-0.24,0.67-0.38,0.87v0
		c-0.01,0.02-0.02,0.03-0.04,0.05c0,0,0,0,0,0c-0.01,0.01-0.02,0.03-0.04,0.04c0,0,0,0,0,0c-0.01,0.01-0.02,0.02-0.04,0.04
		c0,0,0,0,0,0c-0.01,0.01-0.02,0.02-0.04,0.03c0,0,0,0,0,0c-0.01,0.01-0.02,0.02-0.03,0.02c0,0-0.01,0-0.01,0
		c-0.01,0.01-0.02,0.01-0.03,0.02c0,0-0.01,0-0.01,0c-0.01,0-0.02,0.01-0.03,0.01c0,0-0.01,0-0.01,0c-0.01,0-0.02,0-0.03,0.01
		c0,0-0.01,0-0.01,0c-0.01,0-0.02,0-0.03,0c0,0-0.01,0-0.01,0c-0.45,0-0.87-1.11-1-2.58c0.2-0.06,0.35-0.25,0.35-0.48
		c0-0.28-0.23-0.5-0.5-0.5c-0.28,0-0.5,0.23-0.5,0.5c0,0.24,0.18,0.45,0.41,0.49c-0.01,1.47-0.34,2.61-0.79,2.65
		c-0.45,0.04-0.95-1.03-1.2-2.48c0.19-0.07,0.32-0.26,0.32-0.47c0-0.28-0.23-0.5-0.5-0.5c-0.28,0-0.5,0.23-0.5,0.5
		c0,0.26,0.19,0.47,0.44,0.5c0.1,1.46-0.14,2.62-0.58,2.69c-0.44,0.07-1.03-0.95-1.39-2.36c0.16-0.08,0.28-0.25,0.28-0.45
		c0-0.28-0.23-0.5-0.5-0.5c-0.28,0-0.5,0.23-0.5,0.5C37.84,35.29,38.06,35.52,38.34,35.52L38.34,35.52z M46.81,39.1L46.81,39.1
		c0.1,0,0.19,0.04,0.26,0.09c0.09,0.08,0.15,0.19,0.15,0.32c0,0.12-0.05,0.22-0.13,0.3c-0.07,0.07-0.17,0.11-0.28,0.11
		c-0.13,0-0.24-0.06-0.32-0.15c-0.06-0.07-0.09-0.16-0.09-0.26C46.4,39.28,46.59,39.1,46.81,39.1L46.81,39.1z M44.95,38.93
		L44.95,38.93c0.01,0,0.03,0,0.04,0c0.21,0.02,0.37,0.2,0.37,0.41c0,0.21-0.16,0.39-0.37,0.41c-0.01,0-0.03,0-0.04,0
		c-0.23,0-0.41-0.18-0.41-0.41C44.53,39.12,44.72,38.93,44.95,38.93L44.95,38.93z M43.08,38.93L43.08,38.93
		c0.23,0,0.41,0.18,0.41,0.41c0,0.23-0.18,0.41-0.41,0.41c-0.23,0-0.41-0.18-0.41-0.41C42.67,39.12,42.85,38.93,43.08,38.93
		L43.08,38.93z M41.22,39.1L41.22,39.1c0.23,0,0.41,0.18,0.41,0.41c0,0.23-0.18,0.41-0.41,0.41c-0.23,0-0.41-0.18-0.41-0.41
		C40.81,39.28,40.99,39.1,41.22,39.1L41.22,39.1z"/>
</g>
<path class="st0" d="M9.76,10.5c0,0,0.09-0.07,0.12-0.13c0.02-0.06,0.03-0.1,0.03-0.1s0.09-0.01,0.17,0.01
	c0.08,0.02,0.18,0.11,0.18,0.11s-0.03-0.19-0.16-0.25c-0.13-0.07-0.25-0.07-0.25-0.07s0.01-0.08-0.04-0.12
	c-0.05-0.04-0.1-0.06-0.1-0.06s0.07-0.08,0.15-0.12c0.09-0.04,0.16-0.03,0.16-0.03s-0.15-0.1-0.26-0.1C9.64,9.65,9.63,9.7,9.63,9.7
	s-0.01-0.08-0.24-0.1C9.15,9.57,8.87,10.07,8.7,10.1c-0.17,0.03-0.25-0.05-0.42-0.17c-0.06-0.05-0.11-0.08-0.14-0.1
	c-0.34,0.12-0.7,0.23-1.05,0.33c-0.01,0-0.02-0.01-0.01-0.02c0.3-0.14,0.61-0.22,0.92-0.33c0.05-0.02,0.11-0.04,0.16-0.06
	c0.1-0.07,0.27-0.2,0.47-0.44c0.3-0.36,0.35-0.59,0.32-0.96C8.94,7.98,9.03,7.68,9.18,7.48C9.33,7.28,9.73,7.11,9.78,7
	c0.05-0.11-0.02-0.22-0.02-0.22s0.07-0.06,0.15-0.09c0.09-0.03,0.24-0.02,0.24-0.02s-0.09-0.09-0.19-0.12
	c-0.1-0.03-0.29,0.03-0.29,0.03s0.02-0.07,0-0.16C9.65,6.31,9.6,6.27,9.6,6.27s0.08-0.04,0.16-0.07c0.08-0.03,0.22-0.04,0.22-0.04
	S9.86,6.09,9.74,6.09c-0.12,0-0.24,0.06-0.24,0.06S9.44,6.06,9.38,6.02C9.31,5.98,9.22,5.95,9.22,5.95S9.26,5.91,9.3,5.87
	c0.04-0.04,0.1-0.07,0.1-0.07S9.22,5.78,9.13,5.83C9.04,5.88,9.05,5.94,9.05,5.94S8.86,5.92,8.69,6.01C8.53,6.1,8.52,6.36,8.55,6.62
	c0.04,0.26-0.13,0.76-0.24,1.03C8.2,7.92,7.96,8.19,7.96,8.19S7.87,8.07,7.68,7.93C7.48,7.79,7.4,7.77,7.4,7.77s0.13-0.1,0.19-0.2
	c0.06-0.1,0.04-0.19,0.04-0.19S7.53,7.5,7.4,7.58c-0.13,0.08-0.28-0.01-0.41-0.1c-0.13-0.09-0.12-0.3-0.12-0.3s0.34-0.25,0.36-0.35
	c0.02-0.1-0.07-0.22-0.17-0.24c-0.1-0.02-0.21,0.06-0.21,0.06s0.02-0.05,0-0.12C6.82,6.47,6.72,6.4,6.72,6.4s0.02,0.07,0.03,0.12
	c0.01,0.06-0.03,0.16-0.03,0.16S6.63,6.73,6.43,6.8C6.24,6.88,6.12,6.83,5.91,6.77c-0.2-0.05-0.05-0.32,0.08-0.46
	c0.13-0.13,0.24-0.07,0.42-0.09C6.6,6.21,6.76,6.14,6.76,6.14S6.8,6.21,6.84,6.25C6.87,6.3,6.9,6.39,6.9,6.39s0.02-0.1,0.02-0.18
	C6.92,6.14,6.9,6.07,6.9,6.07s0.12-0.1,0.15-0.17c0.03-0.07,0.02-0.23-0.02-0.37C6.98,5.39,6.88,5.31,6.88,5.31s0.04-0.15-0.1-0.2
	C6.64,5.06,5.86,5.36,5.86,5.36S5.75,5.09,5.52,5.04C5.29,4.99,4.88,5.07,4.88,5.07S4.96,4.9,5.04,4.85
	C5.11,4.8,5.27,4.74,5.27,4.74S4.8,4.73,4.49,4.85C4.18,4.97,4.05,5.44,4.05,5.44S3.74,5.3,3.61,5.33C3.48,5.36,3.42,5.41,3.46,5.56
	c0.03,0.09,0.08,0.2,0.12,0.27C3.7,5.91,3.82,5.97,3.96,6.02c0.02,0.01,0.02,0.04,0,0.04C3.83,6.06,3.72,6,3.62,5.93
	C3.58,6,3.44,6.24,3.44,6.51C3.43,6.83,3.57,6.96,3.57,6.96S3.33,7.43,3.44,7.78c0.11,0.35,0.29,0.54,0.29,0.54S3.58,8.85,3.81,9.1
	c0.23,0.25,0.64,0.45,0.64,0.45S4.41,9.67,4.28,9.78C4.15,9.89,3.91,9.94,3.91,9.94s0.18,0.15,0.4,0.18c0.06,0.01,0.12,0,0.17-0.02
	C4.6,9.95,4.79,9.91,4.93,9.77c0.14-0.15,0.22-0.35,0.35-0.5c0.01-0.01,0.03,0,0.03,0.02C5.27,9.47,5.16,9.66,5.03,9.8
	C4.95,9.88,4.87,9.94,4.77,9.99C4.73,10,4.68,10.02,4.64,10.04c-0.06,0.08-0.18,0.19-0.37,0.3c-0.34,0.18-1.01,0.41-1.45,0.77
	c-0.18,0.15-0.27,0.32-0.31,0.48c-0.17,0.02-0.42,0.03-0.55-0.05c-0.2-0.13-0.21-0.32-0.09-0.57c0.12-0.25,0.91-0.95,0.99-1.56
	c0.08-0.62,0.14-0.92-0.2-1.47C2.31,7.38,1.92,7.12,2.22,6.7c0.3-0.42,0.74-0.67,0.74-0.67S2.79,5.89,2.45,5.91
	C2.11,5.93,1.95,6.28,1.88,6.49c-0.07,0.21-0.04,0.4-0.04,0.4S1.63,6.75,1.58,6.41C1.54,6.07,1.75,5.44,1.2,5.25
	C0.65,5.06,0.4,5.08,0.4,5.08s0.4,0.12,0.43,0.43c0.03,0.31-0.2,0.45,0.04,0.84c0.24,0.38,0.47,0.66,0.47,0.66S1.27,6.94,1.02,7.17
	C0.77,7.4,0.87,7.82,0.58,8.06C0.3,8.3,0,8.45,0,8.45s0.38,0.13,0.69-0.18C1,7.96,1.11,7.72,1.57,7.78c0.46,0.06,0.79,0.3,0.95,0.67
	c0.15,0.37,0.04,1.11-0.37,1.59c-0.42,0.48-0.79,0.95-0.69,1.42c0.1,0.47,0.36,0.49,0.75,0.49c0.11,0,0.19,0,0.26-0.01
	c0,0.05,0.01,0.07,0.01,0.07s0,0.16,0.02,0.44c0.03,0.28-0.04,0.29-0.32,0.4c-0.28,0.11-0.62-0.07-0.82,0.05
	c-0.2,0.12,0.16,0.86,0.16,1.15c0,0.29-0.3,0.85-0.22,0.99c0.08,0.14,0.28,0.09,0.42,0.12c0.14,0.03,0.11,0.33,0.21,0.4
	c0.1,0.07,0.18,0.05,0.18,0.05s0.07,0.09,0.11,0.16c0.04,0.07-0.02,0.21-0.02,0.21s0.15-0.09,0.19-0.19
	c0.04-0.1-0.02-0.19-0.02-0.19s0.1,0.03,0.18,0.04c0.08,0,0.14-0.02,0.14-0.02s0.05,0.05,0.1,0.12C2.82,15.82,2.81,16,2.81,16
	s0.11-0.18,0.12-0.29c0-0.11-0.02-0.19-0.02-0.19s0.07-0.02,0.11-0.04c0.03-0.02,0.04-0.02,0.04-0.02s0.06,0.04,0.11,0.16
	c0.05,0.12,0.06,0.24,0.06,0.24s0.11-0.18,0.09-0.3c-0.01-0.12-0.05-0.15-0.05-0.15s0.12-0.07,0.13-0.23c0-0.16-0.1-0.27-0.42-0.4
	c-0.32-0.13-0.78-0.03-0.88-0.25c-0.1-0.21-0.04-0.46,0.23-0.62c0.27-0.16,0.4-0.07,1.03-0.11c0.41-0.02,0.66-0.31,0.79-0.5
	c0-0.19,0.1-0.35,0.26-0.49c0.28-0.24,0.48-0.5,0.67-0.81c0.01-0.02,0.04-0.01,0.03,0.01c-0.07,0.24-0.22,0.45-0.4,0.62
	c-0.18,0.17-0.38,0.3-0.47,0.49c0.02,0.04,0.13,0.24,0.27,0.33c0.16,0.1,0.62-0.05,0.87-0.06c0.25,0,0.24,0.06,0.19,0.24
	c-0.05,0.19-0.21,0.7-0.05,0.87c0.15,0.17,0.61,0.12,0.84,0.14c0.23,0.02,0.27,0.38,0.42,0.45c0.15,0.07,0.45,0.05,0.54,0.04
	c0.08-0.01,0.16,0.18,0.32,0.23C7.8,15.41,8,15.32,8,15.32s0.09,0.05,0.14,0.13c0.04,0.09,0.06,0.21,0.06,0.21s0.08-0.15,0.07-0.28
	c-0.01-0.13-0.09-0.17-0.09-0.17s0.18-0.01,0.23-0.06c0.05-0.05,0.07-0.09,0.07-0.09s0.07,0.03,0.16,0.09
	c0.09,0.07,0.12,0.2,0.12,0.2S8.82,15.12,8.74,15c-0.08-0.12-0.16-0.12-0.16-0.12s0.04-0.11,0.05-0.18
	c0.01-0.07,0.01-0.11,0.01-0.11s0.12-0.04,0.21,0c0.1,0.04,0.17,0.18,0.17,0.18s0.02-0.21-0.09-0.33c-0.11-0.12-0.27-0.1-0.27-0.1
	s0.08-0.11-0.25-0.21c-0.33-0.1-0.56,0.06-0.81,0.15c-0.25,0.09-0.36-0.18-0.8-0.35c-0.44-0.16-0.24-0.36-0.09-0.77
	c0.15-0.41,0.2-0.59-0.02-0.97c-0.22-0.37-0.81-0.43-0.81-0.43s0.99-0.31,1.3-0.54c0.22-0.17,0.3-0.33,0.33-0.41
	c-0.1,0-0.18,0.03-0.27,0.09C7.2,10.93,7.18,10.9,7.2,10.88c0.07-0.08,0.16-0.13,0.27-0.14c0.03,0,0.07,0,0.11,0
	c0.04-0.02,0.1-0.03,0.19-0.03c0.18,0.01,0.5,0.23,0.7,0.26c0.2,0.03,0.27-0.07,0.37-0.12c0.1-0.06,0.45,0.07,0.65,0.04
	c0.21-0.02,0.2-0.19,0.2-0.19s0.09,0.01,0.18,0.02c0.08,0.01,0.17,0.09,0.17,0.09s-0.02-0.16-0.1-0.24
	C9.85,10.49,9.76,10.5,9.76,10.5L9.76,10.5z M5.04,5.8c0,0,0.08-0.12,0.16-0.19c0.08-0.07,0.19-0.13,0.23-0.13
	C5.41,5.52,5.39,5.56,5.42,5.59c0.03,0.04,0.13,0.04,0.15,0.09c-0.13-0.02-0.2-0.02-0.3,0.01C5.16,5.73,5.04,5.8,5.04,5.8L5.04,5.8
	L5.04,5.8z M5.88,7.56C5.81,7.71,5.77,7.86,5.72,8.02c-0.01,0.05-0.08,0.04-0.1,0c-0.1-0.26-0.26-0.51-0.28-0.79
	c-0.1,0.1-0.16,0.21-0.2,0.35C5.14,7.63,5.07,7.65,5.05,7.6c-0.09-0.21-0.1-0.42-0.07-0.63C4.83,7.1,4.69,7.24,4.6,7.43
	C4.58,7.48,4.51,7.44,4.52,7.4c0.05-0.27,0.11-0.52,0.26-0.74C4.6,6.74,4.46,6.87,4.33,7.01c-0.02,0.02-0.06,0-0.05-0.03
	c0.08-0.28,0.2-0.54,0.34-0.79c0.01-0.02,0.04,0,0.03,0.01C4.56,6.43,4.45,6.64,4.38,6.87c0.14-0.15,0.3-0.26,0.5-0.34
	C4.92,6.52,4.93,6.57,4.91,6.6C4.77,6.77,4.7,6.97,4.65,7.17c0.11-0.14,0.24-0.26,0.36-0.38c0.04-0.04,0.09,0,0.08,0.05
	c-0.03,0.2-0.05,0.39,0,0.57c0.06-0.13,0.15-0.24,0.27-0.33C5.4,7.07,5.45,7.09,5.45,7.13C5.42,7.4,5.56,7.62,5.67,7.86
	c0.05-0.15,0.1-0.29,0.18-0.43C5.87,7.4,5.91,7.41,5.92,7.44c0.13,0.37,0.44,0.65,0.75,0.88C6.72,8.35,6.68,8.43,6.62,8.4
	C6.3,8.22,6.03,7.9,5.88,7.56L5.88,7.56L5.88,7.56z M7.35,9.58c0.01,0.32-0.36,0.47-0.52,0.71c-0.02,0.02-0.05,0-0.04-0.02
	c0.07-0.13,0.17-0.22,0.28-0.33c0.06-0.06,0.11-0.12,0.15-0.18c-0.18,0.2-0.52,0.32-0.76,0.34c-0.02,0-0.02-0.02,0-0.03
	C6.77,10,7.02,9.82,7.28,9.62c0.01,0,0.01,0,0.02,0C7.3,9.61,7.31,9.59,7.32,9.57C7.33,9.55,7.35,9.56,7.35,9.58L7.35,9.58
	L7.35,9.58z"/>
<path class="st0" d="M21.78,10.5c0,0-0.09-0.01-0.17,0.08c-0.08,0.08-0.1,0.24-0.1,0.24s0.09-0.08,0.17-0.09
	c0.08-0.01,0.18-0.02,0.18-0.02s-0.01,0.16,0.2,0.19c0.21,0.02,0.55-0.1,0.65-0.04c0.1,0.06,0.18,0.15,0.37,0.12
	c0.2-0.03,0.52-0.25,0.7-0.26c0.08-0.01,0.15,0.01,0.19,0.03c0.04,0,0.08,0,0.11,0c0.11,0.01,0.2,0.06,0.27,0.14
	c0.02,0.02-0.01,0.06-0.03,0.04c-0.08-0.06-0.17-0.09-0.27-0.09c0.03,0.08,0.11,0.25,0.33,0.41c0.31,0.23,1.3,0.54,1.3,0.54
	s-0.59,0.06-0.81,0.43c-0.22,0.37-0.18,0.56-0.02,0.97c0.15,0.41,0.35,0.6-0.09,0.77c-0.44,0.17-0.55,0.44-0.8,0.35
	c-0.25-0.09-0.48-0.25-0.81-0.15c-0.33,0.1-0.25,0.21-0.25,0.21s-0.16-0.03-0.27,0.1c-0.11,0.12-0.09,0.33-0.09,0.33
	s0.07-0.14,0.17-0.18c0.1-0.04,0.21,0,0.21,0s0,0.04,0.01,0.11c0.01,0.07,0.05,0.18,0.05,0.18s-0.09,0.01-0.16,0.12
	c-0.08,0.12-0.01,0.36-0.01,0.36s0.03-0.14,0.12-0.2c0.09-0.07,0.16-0.09,0.16-0.09s0.01,0.04,0.07,0.09
	c0.05,0.05,0.23,0.06,0.23,0.06s-0.08,0.04-0.09,0.17c-0.01,0.13,0.07,0.28,0.07,0.28s0.02-0.12,0.06-0.21
	c0.04-0.09,0.14-0.13,0.14-0.13s0.2,0.09,0.35,0.03c0.16-0.05,0.24-0.24,0.32-0.23c0.08,0.01,0.39,0.03,0.54-0.04
	c0.15-0.07,0.19-0.43,0.42-0.45c0.24-0.02,0.69,0.03,0.84-0.14c0.15-0.17,0-0.68-0.05-0.87c-0.05-0.19-0.06-0.25,0.19-0.24
	c0.25,0,0.72,0.16,0.87,0.06c0.14-0.09,0.25-0.29,0.27-0.33c-0.09-0.2-0.29-0.32-0.47-0.49c-0.18-0.17-0.33-0.38-0.4-0.62
	c-0.01-0.02,0.02-0.03,0.03-0.01c0.19,0.31,0.39,0.57,0.67,0.81c0.17,0.14,0.26,0.3,0.26,0.49c0.12,0.2,0.37,0.48,0.79,0.5
	c0.63,0.03,0.76-0.06,1.03,0.11c0.27,0.16,0.33,0.41,0.23,0.62c-0.1,0.21-0.57,0.12-0.88,0.25c-0.32,0.13-0.42,0.24-0.42,0.4
	c0,0.16,0.13,0.23,0.13,0.23s-0.04,0.03-0.05,0.15c-0.01,0.12,0.09,0.3,0.09,0.3s0.01-0.12,0.06-0.24c0.05-0.12,0.11-0.16,0.11-0.16
	s0.01,0,0.04,0.02c0.03,0.02,0.11,0.04,0.11,0.04s-0.03,0.08-0.02,0.19c0,0.11,0.12,0.29,0.12,0.29s-0.01-0.18,0.04-0.26
	c0.05-0.08,0.1-0.12,0.1-0.12s0.06,0.02,0.14,0.02c0.08,0,0.18-0.04,0.18-0.04s-0.06,0.08-0.02,0.19c0.04,0.1,0.19,0.19,0.19,0.19
	s-0.06-0.14-0.02-0.21c0.04-0.07,0.11-0.16,0.11-0.16s0.07,0.02,0.18-0.05c0.1-0.07,0.07-0.36,0.21-0.4
	c0.14-0.03,0.34,0.02,0.42-0.12c0.08-0.14-0.23-0.7-0.22-0.99c0-0.29,0.36-1.03,0.16-1.15c-0.2-0.12-0.53,0.06-0.82-0.05
	c-0.28-0.11-0.35-0.12-0.32-0.4c0.02-0.28,0.02-0.44,0.02-0.44s0.01-0.03,0.01-0.07c0.07,0.01,0.16,0.01,0.26,0.01
	c0.38,0,0.65-0.02,0.75-0.49c0.1-0.47-0.27-0.93-0.69-1.42c-0.42-0.48-0.53-1.22-0.37-1.59c0.15-0.37,0.48-0.62,0.95-0.67
	c0.46-0.05,0.57,0.19,0.88,0.49c0.31,0.31,0.69,0.18,0.69,0.18s-0.3-0.14-0.58-0.38c-0.29-0.24-0.19-0.66-0.44-0.89
	c-0.25-0.23-0.32-0.16-0.32-0.16s0.23-0.27,0.47-0.66c0.24-0.38,0.01-0.53,0.04-0.84c0.03-0.31,0.43-0.43,0.43-0.43
	s-0.25-0.02-0.8,0.16c-0.55,0.19-0.34,0.82-0.38,1.16c-0.04,0.34-0.25,0.47-0.25,0.47s0.02-0.19-0.04-0.4
	c-0.07-0.21-0.23-0.56-0.57-0.58c-0.34-0.02-0.51,0.12-0.51,0.12s0.44,0.25,0.74,0.67c0.3,0.42-0.09,0.68-0.43,1.23
	c-0.34,0.55-0.27,0.86-0.2,1.47c0.08,0.62,0.87,1.31,0.99,1.56c0.12,0.25,0.11,0.44-0.09,0.57c-0.13,0.09-0.39,0.07-0.55,0.05
	c-0.04-0.16-0.13-0.33-0.31-0.48c-0.44-0.36-1.11-0.59-1.45-0.77c-0.2-0.11-0.31-0.22-0.37-0.3c-0.05-0.02-0.09-0.04-0.14-0.06
	c-0.1-0.04-0.18-0.11-0.26-0.19c-0.13-0.14-0.24-0.33-0.28-0.52c0-0.01,0.02-0.03,0.03-0.02c0.14,0.15,0.21,0.35,0.35,0.5
	c0.13,0.14,0.33,0.18,0.45,0.33c0.05,0.02,0.11,0.03,0.17,0.02c0.21-0.03,0.4-0.18,0.4-0.18s-0.24-0.05-0.37-0.16
	c-0.13-0.11-0.17-0.23-0.17-0.23s0.41-0.21,0.64-0.45c0.23-0.25,0.08-0.78,0.08-0.78S28,8.12,28.11,7.78
	c0.11-0.35-0.13-0.82-0.13-0.82s0.14-0.13,0.13-0.45C28.1,6.24,27.97,6,27.93,5.93c-0.1,0.08-0.21,0.14-0.34,0.13
	c-0.02,0-0.02-0.03,0-0.04c0.14-0.05,0.26-0.11,0.38-0.19c0.04-0.07,0.1-0.18,0.12-0.27c0.04-0.15-0.02-0.2-0.15-0.23
	C27.81,5.3,27.5,5.44,27.5,5.44s-0.13-0.46-0.44-0.59c-0.31-0.12-0.77-0.12-0.77-0.12s0.16,0.07,0.23,0.12
	c0.07,0.05,0.16,0.22,0.16,0.22s-0.41-0.08-0.64-0.03c-0.23,0.05-0.34,0.32-0.34,0.32s-0.78-0.3-0.92-0.25
	c-0.14,0.05-0.1,0.2-0.1,0.2s-0.1,0.07-0.14,0.21c-0.04,0.14-0.06,0.3-0.02,0.37c0.03,0.07,0.15,0.17,0.15,0.17
	s-0.03,0.07-0.02,0.15c0.01,0.08,0.02,0.18,0.02,0.18s0.02-0.09,0.06-0.14c0.04-0.04,0.08-0.11,0.08-0.11s0.15,0.07,0.34,0.08
	c0.19,0.02,0.29-0.04,0.42,0.09c0.13,0.13,0.29,0.4,0.08,0.46c-0.2,0.06-0.33,0.11-0.52,0.03c-0.19-0.08-0.29-0.13-0.29-0.13
	s-0.04-0.1-0.03-0.16c0.01-0.05,0.03-0.12,0.03-0.12s-0.1,0.07-0.12,0.14c-0.02,0.07,0,0.12,0,0.12s-0.11-0.08-0.21-0.06
	c-0.1,0.02-0.19,0.13-0.17,0.24c0.02,0.1,0.36,0.35,0.36,0.35s0.01,0.2-0.12,0.3c-0.13,0.09-0.29,0.18-0.41,0.1
	c-0.13-0.08-0.24-0.2-0.24-0.2s-0.02,0.09,0.04,0.19c0.06,0.1,0.19,0.2,0.19,0.2s-0.08,0.02-0.27,0.16
	c-0.19,0.14-0.29,0.26-0.29,0.26s-0.24-0.26-0.35-0.53c-0.11-0.27-0.28-0.77-0.24-1.03c0.04-0.26,0.03-0.53-0.14-0.62
	c-0.16-0.09-0.36-0.07-0.36-0.07s0-0.07-0.08-0.12c-0.09-0.05-0.27-0.03-0.27-0.03s0.07,0.03,0.1,0.07
	c0.04,0.04,0.08,0.08,0.08,0.08s-0.09,0.03-0.16,0.07c-0.07,0.04-0.12,0.13-0.12,0.13s-0.12-0.06-0.24-0.06
	c-0.12,0-0.24,0.07-0.24,0.07s0.14,0.01,0.22,0.04c0.08,0.03,0.16,0.07,0.16,0.07s-0.06,0.05-0.07,0.15c-0.02,0.1,0,0.16,0,0.16
	s-0.19-0.05-0.29-0.03c-0.1,0.03-0.19,0.12-0.19,0.12s0.15-0.01,0.24,0.02c0.09,0.03,0.15,0.09,0.15,0.09S21.71,6.89,21.77,7
	c0.06,0.11,0.45,0.29,0.6,0.48c0.15,0.2,0.24,0.5,0.22,0.87c-0.02,0.37,0.03,0.6,0.32,0.96c0.19,0.23,0.37,0.37,0.47,0.44
	c0.05,0.02,0.11,0.04,0.16,0.06c0.31,0.11,0.62,0.2,0.92,0.33c0.01,0.01,0,0.02-0.01,0.02c-0.35-0.09-0.71-0.2-1.05-0.33
	c-0.03,0.02-0.07,0.05-0.14,0.1c-0.16,0.12-0.25,0.2-0.42,0.17c-0.17-0.03-0.45-0.53-0.68-0.51c-0.23,0.02-0.24,0.1-0.24,0.1
	s-0.02-0.05-0.13-0.06c-0.11-0.01-0.26,0.1-0.26,0.1s0.07-0.01,0.16,0.03c0.09,0.04,0.15,0.12,0.15,0.12s-0.05,0.01-0.1,0.06
	c-0.05,0.04-0.04,0.12-0.04,0.12s-0.12,0-0.25,0.07c-0.13,0.07-0.16,0.25-0.16,0.25s0.1-0.09,0.18-0.11
	c0.08-0.02,0.17-0.01,0.17-0.01s0.01,0.04,0.03,0.1C21.69,10.43,21.78,10.5,21.78,10.5L21.78,10.5z M26.51,5.8L26.51,5.8
	c0,0-0.12-0.07-0.22-0.1c-0.1-0.03-0.17-0.03-0.3-0.01C26,5.64,26.1,5.63,26.13,5.59c0.03-0.04,0.01-0.07-0.01-0.12
	c0.04,0,0.16,0.06,0.23,0.13C26.43,5.67,26.51,5.8,26.51,5.8L26.51,5.8z M25.67,7.56L25.67,7.56c-0.15,0.34-0.42,0.66-0.74,0.84
	c-0.05,0.03-0.09-0.05-0.05-0.08c0.31-0.23,0.62-0.5,0.75-0.88c0.01-0.03,0.06-0.04,0.08-0.01c0.08,0.14,0.13,0.28,0.18,0.43
	c0.11-0.24,0.25-0.46,0.22-0.73c0-0.04,0.05-0.06,0.07-0.04c0.12,0.09,0.21,0.2,0.27,0.33c0.05-0.19,0.03-0.38,0-0.57
	c-0.01-0.05,0.04-0.09,0.08-0.05c0.13,0.12,0.26,0.24,0.36,0.38c-0.05-0.21-0.12-0.4-0.26-0.57c-0.02-0.03,0-0.08,0.04-0.06
	c0.2,0.07,0.36,0.19,0.5,0.34c-0.08-0.23-0.18-0.44-0.27-0.67c-0.01-0.02,0.02-0.03,0.03-0.01c0.14,0.25,0.26,0.51,0.34,0.79
	c0.01,0.03-0.03,0.05-0.05,0.03c-0.13-0.15-0.27-0.27-0.45-0.35c0.15,0.22,0.21,0.47,0.26,0.74c0.01,0.05-0.06,0.08-0.08,0.03
	c-0.09-0.19-0.23-0.33-0.38-0.47c0.03,0.22,0.02,0.42-0.07,0.63c-0.02,0.05-0.09,0.03-0.1-0.01c-0.04-0.14-0.1-0.25-0.2-0.35
	c-0.02,0.28-0.18,0.52-0.28,0.79c-0.02,0.04-0.08,0.05-0.1,0C25.78,7.86,25.74,7.71,25.67,7.56L25.67,7.56z M24.2,9.58L24.2,9.58
	c0-0.01,0.02-0.02,0.03-0.01c0.01,0.02,0.02,0.04,0.03,0.05c0,0,0.01,0,0.02,0c0.26,0.2,0.51,0.37,0.83,0.45
	c0.02,0,0.01,0.03,0,0.03c-0.25-0.02-0.58-0.14-0.76-0.34c0.04,0.06,0.09,0.12,0.15,0.18c0.11,0.1,0.2,0.19,0.28,0.33
	c0.01,0.03-0.02,0.05-0.04,0.02C24.56,10.05,24.19,9.9,24.2,9.58L24.2,9.58z"/>
<g>
	<g>
		<polygon class="st0" points="12.18,10.44 14.27,8.85 14.27,8.16 12.18,9.76 		"/>
		<polygon class="st0" points="12.18,12.01 14.27,10.42 14.27,9.71 12.18,11.3 		"/>
		<path class="st0" d="M19.37,14.65c0.38-0.31,0.72-0.66,1.01-1.05c0.32-0.46,0.59-0.95,0.77-1.46c0.09-0.25,0.16-0.51,0.21-0.77
			c0.02-0.13,0.04-0.26,0.06-0.39c0.02-0.13,0.02-0.27,0.03-0.4c0.03-0.28,0-0.49-0.01-0.72l0-0.11l-0.01-0.09L21.4,9.49
			c-0.02-0.12-0.03-0.24-0.06-0.35c-0.06-0.23-0.1-0.46-0.19-0.67c-0.04-0.11-0.08-0.21-0.11-0.32c-0.05-0.1-0.09-0.2-0.14-0.3
			c-0.18-0.4-0.42-0.75-0.66-1.07c-0.5-0.62-1.07-1.09-1.62-1.41c-0.55-0.32-1.08-0.49-1.51-0.6C17,4.74,16.9,4.72,16.8,4.69
			c-0.1-0.02-0.19-0.03-0.28-0.04c-0.17-0.03-0.32-0.04-0.44-0.04c-0.24-0.01-0.37-0.01-0.37-0.01l0,0c0,0-0.13,0.01-0.37,0.02
			c-0.12,0-0.27,0.02-0.44,0.05c-0.09,0.02-0.18,0.02-0.28,0.05c-0.1,0.02-0.2,0.05-0.31,0.08c-0.43,0.12-0.96,0.31-1.5,0.64
			c-0.54,0.33-1.09,0.81-1.58,1.44C11,7.2,10.77,7.56,10.61,7.96c-0.04,0.1-0.09,0.2-0.13,0.3c-0.04,0.11-0.07,0.21-0.11,0.32
			c-0.08,0.21-0.12,0.46-0.17,0.7c-0.03,0.12-0.03,0.22-0.05,0.34l-0.02,0.17l-0.01,0.08l0,0.11c0,0.24-0.02,0.5,0.01,0.75
			c0.03,0.51,0.15,1.02,0.34,1.53c0.19,0.51,0.47,0.99,0.8,1.44c0.34,0.45,0.77,0.84,1.24,1.18c0.47,0.34,1.01,0.6,1.58,0.78
			l0.43,0.12c0.14,0.04,0.31,0.05,0.46,0.08l0.24,0.03c0.08,0.01,0.13,0.01,0.2,0.01l0.43,0.02c0.6-0.02,1.19-0.11,1.76-0.3
			c0.56-0.2,1.09-0.47,1.56-0.82c0.05-0.04,0.09-0.07,0.14-0.11 M20.83,10.52c-0.05,0.45-0.19,0.89-0.37,1.33
			c-0.18,0.43-0.44,0.84-0.74,1.22c-0.11,0.13-0.23,0.26-0.35,0.38v-1.4l-2.09-2.52v5.17c-0.15,0.04-0.3,0.08-0.45,0.11V5.13
			l-2.09,1.45v8.24c-0.13-0.03-0.26-0.06-0.39-0.09c-0.03-0.01-0.06-0.02-0.09-0.03v-3.42l-2.09,1.59v0.58
			c-0.1-0.09-0.19-0.19-0.27-0.29c-0.31-0.37-0.58-0.77-0.77-1.2c-0.39-0.85-0.53-1.78-0.44-2.64c0.09-0.85,0.39-1.64,0.79-2.27
			c0.41-0.63,0.93-1.11,1.43-1.46c0.5-0.35,1.01-0.54,1.43-0.67c0.11-0.03,0.21-0.06,0.3-0.08c0.1-0.02,0.19-0.03,0.27-0.05
			c0.17-0.03,0.31-0.05,0.43-0.06c0.23-0.02,0.36-0.02,0.36-0.02c0.01,0,0.14,0.01,0.36,0.02c0.12,0,0.26,0.02,0.43,0.05
			c0.08,0.01,0.17,0.02,0.27,0.04c0.1,0.02,0.2,0.05,0.3,0.08c0.42,0.12,0.93,0.3,1.45,0.64c0.51,0.33,1.04,0.8,1.47,1.42
			c0.42,0.62,0.74,1.4,0.85,2.25c0.02,0.21,0.04,0.44,0.04,0.65C20.87,10.07,20.87,10.3,20.83,10.52z"/>
	</g>
</g>
<path class="st0" d="M20.86,7.08c0,0-0.12-0.15-0.32-0.42c-0.05-0.07-0.1-0.15-0.17-0.22c-0.07-0.07-0.15-0.15-0.23-0.23
	c-0.08-0.08-0.17-0.17-0.26-0.26c-0.1-0.08-0.21-0.17-0.32-0.26c-0.11-0.09-0.22-0.19-0.35-0.27c-0.13-0.08-0.26-0.16-0.4-0.25
	c-0.13-0.09-0.29-0.15-0.44-0.23c-0.16-0.06-0.31-0.16-0.47-0.21c-0.17-0.05-0.34-0.11-0.51-0.17c-0.08-0.03-0.17-0.05-0.27-0.06
	c-0.09-0.02-0.18-0.03-0.27-0.05c-0.18-0.03-0.36-0.07-0.55-0.07c-0.18-0.01-0.37-0.02-0.55-0.03c-0.38,0.04-0.77,0.03-1.12,0.13
	l-0.27,0.06c-0.09,0.02-0.18,0.04-0.26,0.07c-0.17,0.06-0.34,0.12-0.51,0.18c-0.17,0.06-0.31,0.15-0.47,0.22
	c-0.15,0.08-0.31,0.14-0.44,0.24c-0.14,0.09-0.27,0.18-0.39,0.26c-0.13,0.08-0.23,0.19-0.34,0.28c-0.11,0.09-0.21,0.18-0.31,0.27
	c-0.09,0.1-0.17,0.19-0.25,0.27c-0.08,0.08-0.15,0.16-0.22,0.24C11.1,6.63,11.05,6.71,11,6.78c-0.2,0.27-0.31,0.43-0.31,0.43
	s0.1-0.16,0.27-0.45c0.05-0.07,0.09-0.16,0.15-0.24c0.06-0.08,0.13-0.17,0.21-0.26c0.07-0.09,0.15-0.19,0.23-0.29
	c0.1-0.09,0.2-0.19,0.3-0.29c0.11-0.1,0.21-0.21,0.34-0.3c0.13-0.09,0.26-0.19,0.39-0.29c0.13-0.11,0.29-0.18,0.44-0.27
	c0.16-0.08,0.31-0.18,0.48-0.24c0.17-0.06,0.35-0.13,0.52-0.19c0.09-0.04,0.18-0.06,0.27-0.08c0.09-0.02,0.19-0.04,0.28-0.06
	c0.38-0.11,0.76-0.1,1.14-0.15c0.2,0.01,0.4,0.02,0.59,0.04c0.2,0,0.39,0.04,0.57,0.08c0.09,0.02,0.19,0.04,0.28,0.06
	c0.09,0.02,0.19,0.04,0.27,0.07c0.18,0.06,0.35,0.12,0.53,0.18c0.17,0.06,0.33,0.15,0.49,0.23c0.16,0.08,0.31,0.15,0.45,0.25
	c0.14,0.09,0.27,0.19,0.4,0.28c0.13,0.08,0.23,0.2,0.35,0.29c0.11,0.1,0.21,0.19,0.31,0.28c0.09,0.1,0.17,0.2,0.24,0.29
	c0.08,0.09,0.15,0.17,0.21,0.25c0.07,0.08,0.11,0.16,0.16,0.23C20.76,6.92,20.86,7.08,20.86,7.08L20.86,7.08z"/>
<path class="st0" d="M12.51,0.91c0.16,0.76,0.31,1.51,0.47,2.27c0.04-0.02,0.08-0.03,0.12-0.03c0.13,0,0.24,0.11,0.24,0.24
	c0,0.13-0.11,0.24-0.24,0.24c-0.01,0-0.02,0-0.03,0c0.03,0.12,0.05,0.74,0.08,0.87c0.78-0.4,1.66-0.63,2.6-0.64
	c0.96-0.01,1.87,0.21,2.67,0.6c0.02-0.18,0.05-0.72,0.07-0.83c0,0,0,0,0,0c-0.01,0-0.02,0-0.03,0c-0.13,0-0.24-0.11-0.24-0.24
	c0-0.13,0.11-0.24,0.24-0.24c0.01,0,0.02,0,0.03,0c0,0,0.01,0,0.01,0c0.01,0,0.01,0,0.02,0c0,0,0,0,0.01,0
	c0.01,0,0.02,0.01,0.03,0.01c0,0,0,0,0,0c0.01,0,0.01,0.01,0.02,0.01c0,0,0,0,0,0c0.16-0.76,0.31-1.51,0.47-2.27
	c0.04,0,0.08-0.01,0.11-0.02c0.1-0.04,0.18-0.15,0.18-0.27v0c0-0.1-0.05-0.19-0.13-0.24c-0.01-0.01-0.02-0.01-0.02-0.01
	c-0.02-0.01-0.03-0.02-0.05-0.02c-0.03-0.01-0.06-0.01-0.09-0.01c-0.03,0-0.06,0-0.09,0.01c-0.02,0.01-0.04,0.01-0.05,0.02
	c-0.01,0-0.02,0.01-0.02,0.01c-0.08,0.05-0.13,0.14-0.13,0.24v0c0,0.04,0.01,0.08,0.03,0.12c0.03,0.06,0.08,0.11,0.13,0.14
	C18.9,0.9,18.9,0.93,18.89,0.95c0,0.01,0,0.02-0.01,0.03c0,0.02-0.01,0.03-0.01,0.05c0,0.01-0.01,0.02-0.01,0.03
	c0,0.01-0.01,0.03-0.01,0.04c0,0.01-0.01,0.02-0.01,0.03c0,0.01-0.01,0.03-0.01,0.04c0,0.01-0.01,0.02-0.01,0.03
	c0,0.01-0.01,0.02-0.01,0.04c0,0.01-0.01,0.02-0.01,0.03c0,0.01-0.01,0.02-0.01,0.03c0,0.01-0.01,0.02-0.01,0.03
	c0,0.01-0.01,0.02-0.01,0.03c0,0.01-0.01,0.02-0.01,0.03c0,0.01-0.01,0.02-0.01,0.03c0,0.01-0.01,0.02-0.01,0.03
	c0,0.01-0.01,0.02-0.01,0.03c0,0.01-0.01,0.02-0.01,0.03c0,0.01-0.01,0.02-0.01,0.03c0,0.01-0.01,0.02-0.01,0.03
	c0,0.01-0.01,0.02-0.01,0.03c0,0.01-0.01,0.02-0.01,0.03c0,0.01-0.01,0.02-0.01,0.03c0,0.01-0.01,0.02-0.01,0.03
	c0,0.01-0.01,0.02-0.01,0.03c0,0.01-0.01,0.02-0.01,0.03c0,0.01-0.01,0.02-0.01,0.03c0,0.01-0.01,0.02-0.01,0.02
	c0,0.01-0.01,0.02-0.01,0.02c0,0.01-0.01,0.02-0.01,0.02c0,0.01-0.01,0.02-0.01,0.02c0,0.01-0.01,0.02-0.01,0.02
	c0,0.01-0.01,0.01-0.01,0.02c0,0.01-0.01,0.01-0.01,0.02c0,0.01-0.01,0.01-0.01,0.02c0,0.01-0.01,0.01-0.01,0.02
	c0,0.01-0.01,0.01-0.01,0.02c0,0.01-0.01,0.01-0.01,0.02c0,0.01-0.01,0.01-0.01,0.02c0,0.01-0.01,0.01-0.01,0.02
	c0,0.01-0.01,0.01-0.01,0.02c0,0.01-0.01,0.01-0.01,0.02c0,0.01-0.01,0.01-0.01,0.02c0,0-0.01,0.01-0.01,0.01
	c0,0-0.01,0.01-0.01,0.01c0,0-0.01,0.01-0.01,0.01c0,0-0.01,0.01-0.01,0.01c0,0-0.01,0.01-0.01,0.01c0,0-0.01,0.01-0.01,0.01
	c0,0-0.01,0.01-0.01,0.01c0,0-0.01,0.01-0.01,0.01c0,0-0.01,0.01-0.01,0.01c0,0-0.01,0.01-0.01,0.01c0,0-0.01,0-0.01,0.01
	c-0.01,0-0.01,0.01-0.02,0.01c0,0-0.01,0-0.01,0c-0.01,0-0.01,0-0.02,0.01c0,0,0,0,0,0c-0.01,0-0.02,0-0.03,0.01c0,0,0,0-0.01,0
	c-0.01,0-0.01,0-0.02,0c-0.01,0-0.01,0-0.02,0c0,0,0,0,0,0c-0.17-0.03-0.28-0.32-0.33-0.76c-0.02-0.23-0.03-0.5-0.01-0.79
	c0.14-0.02,0.25-0.14,0.25-0.29c0-0.16-0.13-0.29-0.29-0.29c-0.16,0-0.29,0.13-0.29,0.29c0,0.13,0.08,0.23,0.19,0.27
	c0,0.03-0.01,0.05-0.01,0.08c0,0.01,0,0.02,0,0.02c0,0.02-0.01,0.04-0.01,0.05c0,0.01,0,0.02-0.01,0.03c0,0.02-0.01,0.03-0.01,0.05
	c0,0.01,0,0.02-0.01,0.03c0,0.01-0.01,0.03-0.01,0.04c0,0.01,0,0.02-0.01,0.03c0,0.01-0.01,0.03-0.01,0.04c0,0.01,0,0.02-0.01,0.03
	c0,0.01-0.01,0.03-0.01,0.04c0,0.01,0,0.02-0.01,0.03c0,0.01-0.01,0.03-0.01,0.04c0,0.01-0.01,0.02-0.01,0.03
	c0,0.01-0.01,0.02-0.01,0.04c0,0.01-0.01,0.02-0.01,0.03c0,0.01-0.01,0.02-0.01,0.04c0,0.01-0.01,0.02-0.01,0.03
	c0,0.01-0.01,0.02-0.01,0.03c0,0.01-0.01,0.02-0.01,0.03c0,0.01-0.01,0.02-0.01,0.03c0,0.01-0.01,0.02-0.01,0.03
	c0,0.01-0.01,0.02-0.01,0.03c0,0.01-0.01,0.02-0.01,0.03c0,0.01-0.01,0.02-0.01,0.03c0,0.01-0.01,0.02-0.01,0.02
	c0,0.01-0.01,0.02-0.01,0.03c0,0.01-0.01,0.02-0.01,0.02c0,0.01-0.01,0.02-0.01,0.03c0,0.01-0.01,0.02-0.01,0.02
	c0,0.01-0.01,0.02-0.01,0.03c0,0.01-0.01,0.01-0.01,0.02c0,0.01-0.01,0.02-0.01,0.02c0,0.01-0.01,0.01-0.01,0.02
	c0,0.01-0.01,0.02-0.01,0.02c0,0.01-0.01,0.01-0.01,0.02c0,0.01-0.01,0.01-0.01,0.02c0,0.01-0.01,0.01-0.01,0.02
	c0,0.01-0.01,0.01-0.01,0.02c0,0.01-0.01,0.01-0.01,0.02c0,0.01-0.01,0.01-0.01,0.02c0,0.01-0.01,0.01-0.01,0.02
	c0,0.01-0.01,0.01-0.01,0.02c0,0-0.01,0.01-0.01,0.01c0,0.01-0.01,0.01-0.01,0.02c0,0-0.01,0.01-0.01,0.01c0,0-0.01,0.01-0.01,0.01
	c0,0-0.01,0.01-0.01,0.01c0,0-0.01,0.01-0.01,0.01c0,0-0.01,0.01-0.01,0.01c0,0-0.01,0.01-0.01,0.01c0,0-0.01,0.01-0.01,0.01
	c0,0-0.01,0.01-0.01,0.01c0,0-0.01,0.01-0.01,0.01c0,0-0.01,0-0.01,0.01c0,0-0.01,0-0.01,0.01c0,0-0.01,0-0.01,0.01
	c0,0-0.01,0-0.01,0c0,0-0.01,0-0.01,0c0,0-0.01,0-0.01,0c0,0-0.01,0-0.01,0c0,0-0.01,0-0.01,0c-0.01,0-0.01,0-0.02,0
	c-0.26-0.02-0.45-0.68-0.45-1.53c0.13-0.03,0.22-0.14,0.22-0.28c0-0.16-0.13-0.29-0.29-0.29c-0.16,0-0.29,0.13-0.29,0.29
	c0,0.13,0.09,0.25,0.22,0.28c0,0.04-0.01,0.07-0.01,0.11c0,0.04-0.01,0.08-0.02,0.12c-0.01,0.07-0.02,0.13-0.03,0.19
	c0,0.01,0,0.02,0,0.03c0,0.02-0.01,0.04-0.01,0.06c0,0,0,0,0,0.01c0,0.02-0.01,0.03-0.01,0.05c0,0.01,0,0.01,0,0.02
	c-0.01,0.04-0.02,0.09-0.03,0.13c0,0,0,0,0,0c0,0.02-0.01,0.04-0.02,0.06v0c0,0.02-0.01,0.04-0.02,0.06c0,0,0,0,0,0
	c-0.06,0.22-0.14,0.39-0.22,0.5v0c-0.01,0.01-0.01,0.02-0.02,0.03c0,0,0,0,0,0c-0.01,0.01-0.01,0.02-0.02,0.02c0,0,0,0,0,0
	c-0.01,0.01-0.01,0.01-0.02,0.02c0,0,0,0,0,0C15.91,1.99,15.9,2,15.9,2c0,0,0,0,0,0c-0.01,0-0.01,0.01-0.02,0.01c0,0,0,0,0,0
	c-0.01,0-0.01,0.01-0.02,0.01c0,0,0,0,0,0c-0.01,0-0.01,0-0.02,0.01c0,0,0,0-0.01,0c-0.01,0-0.01,0-0.02,0c0,0,0,0-0.01,0
	c-0.01,0-0.01,0-0.02,0c0,0-0.01,0-0.01,0c-0.26,0-0.5-0.64-0.57-1.48c0.12-0.04,0.2-0.15,0.2-0.28C15.4,0.13,15.27,0,15.11,0
	c-0.16,0-0.29,0.13-0.29,0.29c0,0.14,0.1,0.26,0.23,0.28c-0.01,0.85-0.2,1.5-0.45,1.52c-0.26,0.02-0.55-0.59-0.69-1.42
	c0.11-0.04,0.18-0.15,0.18-0.27c0-0.16-0.13-0.29-0.29-0.29c-0.16,0-0.29,0.13-0.29,0.29c0,0.15,0.11,0.27,0.25,0.29
	c0.06,0.84-0.08,1.51-0.33,1.55c-0.25,0.04-0.59-0.54-0.8-1.36c0.09-0.05,0.16-0.15,0.16-0.26c0-0.16-0.13-0.29-0.29-0.29
	c-0.16,0-0.29,0.13-0.29,0.29C12.22,0.78,12.35,0.91,12.51,0.91L12.51,0.91z M17.38,2.96L17.38,2.96c0.06,0,0.11,0.02,0.15,0.05
	c0.05,0.04,0.09,0.11,0.09,0.18c0,0.07-0.03,0.13-0.07,0.17c-0.04,0.04-0.1,0.06-0.16,0.06c-0.07,0-0.14-0.03-0.18-0.09
	c-0.03-0.04-0.05-0.09-0.05-0.15C17.14,3.07,17.25,2.96,17.38,2.96L17.38,2.96z M16.3,2.87L16.3,2.87c0.01,0,0.02,0,0.02,0
	c0.12,0.01,0.21,0.11,0.21,0.24c0,0.12-0.09,0.22-0.21,0.24c-0.01,0-0.02,0-0.02,0c-0.13,0-0.24-0.11-0.24-0.24
	C16.07,2.98,16.17,2.87,16.3,2.87L16.3,2.87z M15.23,2.87L15.23,2.87c0.13,0,0.24,0.11,0.24,0.24c0,0.13-0.11,0.24-0.24,0.24
	C15.1,3.35,15,3.24,15,3.11C15,2.98,15.1,2.87,15.23,2.87L15.23,2.87z M14.16,2.96L14.16,2.96c0.13,0,0.24,0.11,0.24,0.24
	c0,0.13-0.11,0.24-0.24,0.24c-0.13,0-0.24-0.11-0.24-0.24C13.92,3.07,14.03,2.96,14.16,2.96L14.16,2.96z"/>
</svg>
