<?xml version="1.0" encoding="utf-8"?>
<!-- Generator: Adobe Illustrator 24.1.0, SVG Export Plug-In . SVG Version: 6.00 Build 0)  -->
<svg version="1.1" id="Layer_1" xmlns="http://www.w3.org/2000/svg" xmlns:xlink="http://www.w3.org/1999/xlink" x="0px" y="0px"
	 viewBox="0 0 112.35 53.69" style="enable-background:new 0 0 112.35 53.69;" xml:space="preserve">
<style type="text/css">
	.st0{fill:url(#SVGID_1_);}
	.st1{fill:url(#SVGID_2_);}
	.st2{fill:url(#SVGID_3_);}
	.st3{fill:url(#SVGID_4_);}
	.st4{fill:url(#SVGID_5_);}
	.st5{fill:url(#SVGID_6_);}
	.st6{fill:url(#SVGID_7_);}
	.st7{fill:url(#SVGID_8_);}
	.st8{fill:url(#SVGID_9_);}
	.st9{fill:url(#SVGID_10_);}
	.st10{fill:url(#SVGID_11_);}
	.st11{fill:url(#SVGID_12_);}
	.st12{fill:url(#SVGID_13_);}
	.st13{fill:url(#SVGID_14_);}
	.st14{fill:url(#SVGID_15_);}
	.st15{fill:url(#SVGID_16_);}
	.st16{fill:url(#SVGID_17_);}
	.st17{fill:url(#SVGID_18_);}
	.st18{fill:url(#SVGID_19_);}
	.st19{fill:url(#SVGID_20_);}
	.st20{fill:url(#SVGID_21_);}
	.st21{fill:url(#SVGID_22_);}
	.st22{fill:url(#SVGID_23_);}
	.st23{fill:url(#SVGID_24_);}
	.st24{fill:url(#SVGID_25_);}
	.st25{fill:url(#SVGID_26_);}
</style>
<g>
	<g>
		<linearGradient id="SVGID_1_" gradientUnits="userSpaceOnUse" x1="53.2254" y1="-37.494" x2="63.7254" y2="81.756">
			<stop  offset="0" style="stop-color:#FEE495"/>
			<stop  offset="0.0503" style="stop-color:#FCE69D"/>
			<stop  offset="0.1747" style="stop-color:#F9EAAE"/>
			<stop  offset="0.2992" style="stop-color:#F7ECB8"/>
			<stop  offset="0.4232" style="stop-color:#F6EDBC"/>
			<stop  offset="0.4942" style="stop-color:#DDC694"/>
			<stop  offset="0.5889" style="stop-color:#C4A06F"/>
			<stop  offset="0.6635" style="stop-color:#B78B5A"/>
			<stop  offset="0.7081" style="stop-color:#B28453"/>
			<stop  offset="0.8182" style="stop-color:#B78857"/>
			<stop  offset="0.9406" style="stop-color:#C69763"/>
			<stop  offset="1" style="stop-color:#D2A26D"/>
		</linearGradient>
		<path class="st0" d="M17.87,16.82c0-0.52-0.4-0.78-1.2-0.78V15.8h3.31c2.26,0,3.39,0.72,3.39,2.17c0,0.96-0.55,1.57-1.65,1.84
			v0.02c0.59,0.11,1.08,0.35,1.47,0.71c0.39,0.36,0.59,0.83,0.59,1.4c0,0.75-0.29,1.33-0.86,1.73c-0.58,0.4-1.36,0.6-2.36,0.6h-3.89
			v-0.25c0.8,0,1.2-0.26,1.2-0.78V16.82z M20.13,19.58c0.63,0,1.12-0.14,1.47-0.4c0.34-0.27,0.52-0.66,0.52-1.17
			c0-0.93-0.49-1.49-1.46-1.67c-0.47-0.03-0.76-0.04-0.86-0.04c-0.25,0-0.42,0.03-0.52,0.08c-0.1,0.05-0.15,0.15-0.15,0.31v2.89
			H20.13z M19.13,23.13c0,0.25,0.06,0.42,0.19,0.53c0.12,0.1,0.4,0.16,0.82,0.16c0.71,0,1.25-0.14,1.64-0.43
			c0.39-0.28,0.58-0.78,0.58-1.48c0-1.2-0.87-1.8-2.62-1.8h-0.62V23.13z"/>
		<linearGradient id="SVGID_2_" gradientUnits="userSpaceOnUse" x1="53.2254" y1="-37.494" x2="63.7254" y2="81.756">
			<stop  offset="0" style="stop-color:#FEE495"/>
			<stop  offset="0.0503" style="stop-color:#FCE69D"/>
			<stop  offset="0.1747" style="stop-color:#F9EAAE"/>
			<stop  offset="0.2992" style="stop-color:#F7ECB8"/>
			<stop  offset="0.4232" style="stop-color:#F6EDBC"/>
			<stop  offset="0.4942" style="stop-color:#DDC694"/>
			<stop  offset="0.5889" style="stop-color:#C4A06F"/>
			<stop  offset="0.6635" style="stop-color:#B78B5A"/>
			<stop  offset="0.7081" style="stop-color:#B28453"/>
			<stop  offset="0.8182" style="stop-color:#B78857"/>
			<stop  offset="0.9406" style="stop-color:#C69763"/>
			<stop  offset="1" style="stop-color:#D2A26D"/>
		</linearGradient>
		<path class="st1" d="M26.02,16.82c0-0.52-0.36-0.78-1.09-0.78V15.8h3.42v0.25c-0.72,0-1.09,0.26-1.09,0.78v4.3
			c0,0.67,0.07,1.21,0.21,1.61c0.14,0.4,0.37,0.69,0.68,0.87c0.31,0.18,0.72,0.27,1.24,0.27c0.71,0,1.23-0.15,1.57-0.46
			c0.34-0.31,0.55-0.67,0.63-1.08c0.08-0.41,0.12-0.9,0.12-1.48v-4.03c0-0.52-0.39-0.78-1.16-0.78V15.8h2.86v0.25
			c-0.77,0-1.16,0.26-1.16,0.78v4.03c0,0.56-0.03,1.03-0.1,1.41c-0.06,0.38-0.21,0.73-0.42,1.04c-0.22,0.31-0.55,0.58-1,0.8
			c-0.45,0.22-0.97,0.33-1.57,0.33c-1.12,0-1.93-0.27-2.42-0.82c-0.49-0.55-0.74-1.41-0.74-2.59V16.82z"/>
		<linearGradient id="SVGID_3_" gradientUnits="userSpaceOnUse" x1="53.2254" y1="-37.494" x2="63.7254" y2="81.756">
			<stop  offset="0" style="stop-color:#FEE495"/>
			<stop  offset="0.0503" style="stop-color:#FCE69D"/>
			<stop  offset="0.1747" style="stop-color:#F9EAAE"/>
			<stop  offset="0.2992" style="stop-color:#F7ECB8"/>
			<stop  offset="0.4232" style="stop-color:#F6EDBC"/>
			<stop  offset="0.4942" style="stop-color:#DDC694"/>
			<stop  offset="0.5889" style="stop-color:#C4A06F"/>
			<stop  offset="0.6635" style="stop-color:#B78B5A"/>
			<stop  offset="0.7081" style="stop-color:#B28453"/>
			<stop  offset="0.8182" style="stop-color:#B78857"/>
			<stop  offset="0.9406" style="stop-color:#C69763"/>
			<stop  offset="1" style="stop-color:#D2A26D"/>
		</linearGradient>
		<path class="st2" d="M36.42,23.25c0,0.52,0.4,0.78,1.21,0.78v0.25h-3.68v-0.25c0.81,0,1.21-0.26,1.21-0.78v-6.42
			c0-0.52-0.4-0.78-1.21-0.78V15.8h3.68v0.25c-0.81,0-1.21,0.26-1.21,0.78V23.25z"/>
		<linearGradient id="SVGID_4_" gradientUnits="userSpaceOnUse" x1="53.2254" y1="-37.494" x2="63.7254" y2="81.756">
			<stop  offset="0" style="stop-color:#FEE495"/>
			<stop  offset="0.0503" style="stop-color:#FCE69D"/>
			<stop  offset="0.1747" style="stop-color:#F9EAAE"/>
			<stop  offset="0.2992" style="stop-color:#F7ECB8"/>
			<stop  offset="0.4232" style="stop-color:#F6EDBC"/>
			<stop  offset="0.4942" style="stop-color:#DDC694"/>
			<stop  offset="0.5889" style="stop-color:#C4A06F"/>
			<stop  offset="0.6635" style="stop-color:#B78B5A"/>
			<stop  offset="0.7081" style="stop-color:#B28453"/>
			<stop  offset="0.8182" style="stop-color:#B78857"/>
			<stop  offset="0.9406" style="stop-color:#C69763"/>
			<stop  offset="1" style="stop-color:#D2A26D"/>
		</linearGradient>
		<path class="st3" d="M38.07,24.27v-0.25c0.72,0,1.08-0.26,1.08-0.78v-6.42c0-0.52-0.36-0.78-1.08-0.78V15.8h3.42v0.25
			c-0.72,0-1.08,0.26-1.08,0.78v6.42c0,0.33,0.41,0.5,1.23,0.5c0.68,0,1.22-0.03,1.59-0.09c0.38-0.06,0.71-0.21,1.01-0.46
			c0.3-0.24,0.54-0.63,0.74-1.15h0.32l-0.6,2.23H38.07z"/>
		<linearGradient id="SVGID_5_" gradientUnits="userSpaceOnUse" x1="53.2254" y1="-37.494" x2="63.7254" y2="81.756">
			<stop  offset="0" style="stop-color:#FEE495"/>
			<stop  offset="0.0503" style="stop-color:#FCE69D"/>
			<stop  offset="0.1747" style="stop-color:#F9EAAE"/>
			<stop  offset="0.2992" style="stop-color:#F7ECB8"/>
			<stop  offset="0.4232" style="stop-color:#F6EDBC"/>
			<stop  offset="0.4942" style="stop-color:#DDC694"/>
			<stop  offset="0.5889" style="stop-color:#C4A06F"/>
			<stop  offset="0.6635" style="stop-color:#B78B5A"/>
			<stop  offset="0.7081" style="stop-color:#B28453"/>
			<stop  offset="0.8182" style="stop-color:#B78857"/>
			<stop  offset="0.9406" style="stop-color:#C69763"/>
			<stop  offset="1" style="stop-color:#D2A26D"/>
		</linearGradient>
		<path class="st4" d="M45.77,24.27v-0.25c0.72,0,1.09-0.26,1.09-0.78v-6.42c0-0.52-0.36-0.78-1.09-0.78V15.8h3.18
			c1.06,0,1.97,0.16,2.73,0.47c0.76,0.31,1.34,0.79,1.75,1.43c0.4,0.64,0.61,1.43,0.61,2.37c0,0.87-0.19,1.63-0.56,2.25
			c-0.37,0.63-0.93,1.11-1.67,1.45c-0.74,0.34-1.66,0.51-2.75,0.51H45.77z M48.13,23.13c0,0.39,0.19,0.59,0.58,0.62
			c1.3,0,2.28-0.32,2.96-0.97c0.68-0.65,1.02-1.54,1.02-2.7c0-0.82-0.16-1.52-0.48-2.09c-0.32-0.57-0.78-1-1.36-1.28
			c-0.59-0.29-1.26-0.43-2.02-0.43c-0.3,0-0.5,0.03-0.58,0.1c-0.08,0.06-0.12,0.25-0.12,0.55V23.13z"/>
		<linearGradient id="SVGID_6_" gradientUnits="userSpaceOnUse" x1="53.2254" y1="-37.494" x2="63.7254" y2="81.756">
			<stop  offset="0" style="stop-color:#FEE495"/>
			<stop  offset="0.0503" style="stop-color:#FCE69D"/>
			<stop  offset="0.1747" style="stop-color:#F9EAAE"/>
			<stop  offset="0.2992" style="stop-color:#F7ECB8"/>
			<stop  offset="0.4232" style="stop-color:#F6EDBC"/>
			<stop  offset="0.4942" style="stop-color:#DDC694"/>
			<stop  offset="0.5889" style="stop-color:#C4A06F"/>
			<stop  offset="0.6635" style="stop-color:#B78B5A"/>
			<stop  offset="0.7081" style="stop-color:#B28453"/>
			<stop  offset="0.8182" style="stop-color:#B78857"/>
			<stop  offset="0.9406" style="stop-color:#C69763"/>
			<stop  offset="1" style="stop-color:#D2A26D"/>
		</linearGradient>
		<path class="st5" d="M58.86,24.27v-0.25c0.72,0,1.08-0.26,1.08-0.78v-6.42c0-0.52-0.36-0.78-1.08-0.78V15.8h6.54v1.82h-0.26
			c-0.07-0.38-0.22-0.69-0.45-0.93c-0.23-0.24-0.55-0.37-0.95-0.37h-2c-0.16,0-0.29,0.04-0.39,0.13c-0.1,0.09-0.15,0.21-0.15,0.37
			v2.76h1.74c0.48,0,0.85-0.09,1.13-0.27c0.27-0.18,0.41-0.5,0.41-0.97h0.26v3.01h-0.26c0-0.47-0.14-0.79-0.41-0.97
			c-0.27-0.18-0.65-0.27-1.13-0.27H61.2v3.14c0,0.33,0.11,0.5,0.31,0.5h1.65c0.43,0,0.78-0.03,1.06-0.09
			c0.28-0.06,0.55-0.21,0.82-0.44c0.27-0.24,0.5-0.61,0.71-1.12h0.34l-0.56,2.17H58.86z"/>
		<linearGradient id="SVGID_7_" gradientUnits="userSpaceOnUse" x1="53.2254" y1="-37.494" x2="63.7254" y2="81.756">
			<stop  offset="0" style="stop-color:#FEE495"/>
			<stop  offset="0.0503" style="stop-color:#FCE69D"/>
			<stop  offset="0.1747" style="stop-color:#F9EAAE"/>
			<stop  offset="0.2992" style="stop-color:#F7ECB8"/>
			<stop  offset="0.4232" style="stop-color:#F6EDBC"/>
			<stop  offset="0.4942" style="stop-color:#DDC694"/>
			<stop  offset="0.5889" style="stop-color:#C4A06F"/>
			<stop  offset="0.6635" style="stop-color:#B78B5A"/>
			<stop  offset="0.7081" style="stop-color:#B28453"/>
			<stop  offset="0.8182" style="stop-color:#B78857"/>
			<stop  offset="0.9406" style="stop-color:#C69763"/>
			<stop  offset="1" style="stop-color:#D2A26D"/>
		</linearGradient>
		<path class="st6" d="M73.86,22.78c0.18,0.42,0.35,0.73,0.5,0.93c0.15,0.21,0.38,0.31,0.68,0.31v0.25H71.9v-0.25
			c0.32-0.01,0.54-0.04,0.67-0.11c0.13-0.06,0.19-0.17,0.19-0.32c0-0.16-0.1-0.49-0.3-0.99l-0.45-1.11h-3.23
			c-0.03,0.09-0.11,0.31-0.25,0.66c-0.14,0.34-0.24,0.61-0.31,0.82c-0.07,0.2-0.1,0.38-0.1,0.53c0,0.35,0.28,0.53,0.84,0.53v0.25
			h-2.45v-0.25c0.34-0.03,0.61-0.2,0.8-0.52c0.19-0.32,0.45-0.89,0.79-1.71l2.51-6.17h0.24L73.86,22.78z M69,20.98h2.84l-1.44-3.51
			L69,20.98z"/>
		<linearGradient id="SVGID_8_" gradientUnits="userSpaceOnUse" x1="53.2254" y1="-37.494" x2="63.7254" y2="81.756">
			<stop  offset="0" style="stop-color:#FEE495"/>
			<stop  offset="0.0503" style="stop-color:#FCE69D"/>
			<stop  offset="0.1747" style="stop-color:#F9EAAE"/>
			<stop  offset="0.2992" style="stop-color:#F7ECB8"/>
			<stop  offset="0.4232" style="stop-color:#F6EDBC"/>
			<stop  offset="0.4942" style="stop-color:#DDC694"/>
			<stop  offset="0.5889" style="stop-color:#C4A06F"/>
			<stop  offset="0.6635" style="stop-color:#B78B5A"/>
			<stop  offset="0.7081" style="stop-color:#B28453"/>
			<stop  offset="0.8182" style="stop-color:#B78857"/>
			<stop  offset="0.9406" style="stop-color:#C69763"/>
			<stop  offset="1" style="stop-color:#D2A26D"/>
		</linearGradient>
		<path class="st7" d="M76.51,16.82c0-0.52-0.35-0.78-1.05-0.78V15.8h3.25c1.05,0,1.86,0.19,2.43,0.57
			c0.57,0.38,0.86,0.94,0.86,1.68c0,0.63-0.21,1.13-0.63,1.48c-0.42,0.35-0.96,0.57-1.61,0.66l2.45,3.14
			c0.19,0.23,0.37,0.4,0.54,0.51c0.17,0.11,0.38,0.17,0.64,0.19v0.25h-2l-2.94-3.93l-0.69,0.02v2.89c0,0.52,0.36,0.78,1.08,0.78
			v0.25h-3.38v-0.25c0.7,0,1.05-0.26,1.05-0.78V16.82z M77.77,19.89c0.97-0.04,1.7-0.19,2.18-0.46c0.48-0.26,0.72-0.73,0.72-1.38
			c0-0.6-0.18-1.04-0.54-1.33c-0.36-0.29-0.84-0.43-1.44-0.43c-0.3,0-0.51,0.01-0.62,0.03c-0.11,0.02-0.19,0.07-0.23,0.15
			c-0.04,0.08-0.06,0.22-0.06,0.42V19.89z"/>
		<linearGradient id="SVGID_9_" gradientUnits="userSpaceOnUse" x1="53.2254" y1="-37.494" x2="63.7254" y2="81.756">
			<stop  offset="0" style="stop-color:#FEE495"/>
			<stop  offset="0.0503" style="stop-color:#FCE69D"/>
			<stop  offset="0.1747" style="stop-color:#F9EAAE"/>
			<stop  offset="0.2992" style="stop-color:#F7ECB8"/>
			<stop  offset="0.4232" style="stop-color:#F6EDBC"/>
			<stop  offset="0.4942" style="stop-color:#DDC694"/>
			<stop  offset="0.5889" style="stop-color:#C4A06F"/>
			<stop  offset="0.6635" style="stop-color:#B78B5A"/>
			<stop  offset="0.7081" style="stop-color:#B28453"/>
			<stop  offset="0.8182" style="stop-color:#B78857"/>
			<stop  offset="0.9406" style="stop-color:#C69763"/>
			<stop  offset="1" style="stop-color:#D2A26D"/>
		</linearGradient>
		<path class="st8" d="M89.1,24.27h-3.42v-0.25c0.72,0,1.08-0.26,1.08-0.78v-6.9h-0.89c-0.38,0-0.67,0.03-0.87,0.08
			c-0.2,0.05-0.37,0.19-0.53,0.42c-0.15,0.23-0.27,0.61-0.37,1.13h-0.28l0.07-2.17h6.98l0.08,2.17h-0.3
			c-0.08-0.51-0.2-0.89-0.35-1.12c-0.15-0.23-0.33-0.38-0.53-0.43c-0.2-0.05-0.49-0.08-0.87-0.08h-0.88v6.9
			c0,0.52,0.36,0.78,1.08,0.78V24.27z"/>
		<linearGradient id="SVGID_10_" gradientUnits="userSpaceOnUse" x1="53.2254" y1="-37.494" x2="63.7254" y2="81.756">
			<stop  offset="0" style="stop-color:#FEE495"/>
			<stop  offset="0.0503" style="stop-color:#FCE69D"/>
			<stop  offset="0.1747" style="stop-color:#F9EAAE"/>
			<stop  offset="0.2992" style="stop-color:#F7ECB8"/>
			<stop  offset="0.4232" style="stop-color:#F6EDBC"/>
			<stop  offset="0.4942" style="stop-color:#DDC694"/>
			<stop  offset="0.5889" style="stop-color:#C4A06F"/>
			<stop  offset="0.6635" style="stop-color:#B78B5A"/>
			<stop  offset="0.7081" style="stop-color:#B28453"/>
			<stop  offset="0.8182" style="stop-color:#B78857"/>
			<stop  offset="0.9406" style="stop-color:#C69763"/>
			<stop  offset="1" style="stop-color:#D2A26D"/>
		</linearGradient>
		<path class="st9" d="M97.57,19.68v-2.85c0-0.52-0.37-0.78-1.1-0.78V15.8h3.44v0.25c-0.72,0-1.09,0.26-1.09,0.78v6.42
			c0,0.52,0.36,0.78,1.09,0.78v0.25h-3.44v-0.25c0.74,0,1.1-0.26,1.1-0.78V20.2h-3.74v3.04c0,0.52,0.36,0.78,1.09,0.78v0.25h-3.44
			v-0.25c0.72,0,1.09-0.26,1.09-0.78v-6.42c0-0.52-0.36-0.78-1.09-0.78V15.8h3.44v0.25c-0.72,0-1.09,0.26-1.09,0.78v2.85H97.57z"/>
	</g>
</g>
<g>
	<g>
		<linearGradient id="SVGID_11_" gradientUnits="userSpaceOnUse" x1="54.6949" y1="2.6832" x2="62.5283" y2="67.8499">
			<stop  offset="0" style="stop-color:#FEE495"/>
			<stop  offset="0.0435" style="stop-color:#FCE69D"/>
			<stop  offset="0.1512" style="stop-color:#F9EAAE"/>
			<stop  offset="0.259" style="stop-color:#F7ECB8"/>
			<stop  offset="0.3663" style="stop-color:#F6EDBC"/>
			<stop  offset="0.3895" style="stop-color:#F1E6B4"/>
			<stop  offset="0.5743" style="stop-color:#D3B784"/>
			<stop  offset="0.7387" style="stop-color:#C09A68"/>
			<stop  offset="0.8751" style="stop-color:#B68958"/>
			<stop  offset="0.9668" style="stop-color:#B28453"/>
			<stop  offset="0.9793" style="stop-color:#B78857"/>
			<stop  offset="0.9932" style="stop-color:#C69763"/>
			<stop  offset="1" style="stop-color:#D2A26D"/>
		</linearGradient>
		<path class="st10" d="M27.37,35.03h-1.81v-0.13c0.38,0,0.57-0.14,0.57-0.41v-3.66h-0.47c-0.2,0-0.36,0.01-0.46,0.04
			c-0.11,0.03-0.2,0.1-0.28,0.22c-0.08,0.12-0.14,0.32-0.2,0.6h-0.15l0.04-1.15h3.7l0.04,1.15h-0.16c-0.04-0.27-0.11-0.47-0.19-0.6
			c-0.08-0.12-0.17-0.2-0.28-0.23c-0.11-0.03-0.26-0.04-0.46-0.04h-0.46v3.66c0,0.27,0.19,0.41,0.57,0.41V35.03z"/>
		<linearGradient id="SVGID_12_" gradientUnits="userSpaceOnUse" x1="54.6949" y1="2.6832" x2="62.5283" y2="67.8499">
			<stop  offset="0" style="stop-color:#FEE495"/>
			<stop  offset="0.0435" style="stop-color:#FCE69D"/>
			<stop  offset="0.1512" style="stop-color:#F9EAAE"/>
			<stop  offset="0.259" style="stop-color:#F7ECB8"/>
			<stop  offset="0.3663" style="stop-color:#F6EDBC"/>
			<stop  offset="0.3895" style="stop-color:#F1E6B4"/>
			<stop  offset="0.5743" style="stop-color:#D3B784"/>
			<stop  offset="0.7387" style="stop-color:#C09A68"/>
			<stop  offset="0.8751" style="stop-color:#B68958"/>
			<stop  offset="0.9668" style="stop-color:#B28453"/>
			<stop  offset="0.9793" style="stop-color:#B78857"/>
			<stop  offset="0.9932" style="stop-color:#C69763"/>
			<stop  offset="1" style="stop-color:#D2A26D"/>
		</linearGradient>
		<path class="st11" d="M31.84,32.59v-1.51c0-0.27-0.2-0.41-0.59-0.41v-0.13h1.83v0.13c-0.38,0-0.58,0.14-0.58,0.41v3.41
			c0,0.27,0.19,0.41,0.58,0.41v0.13h-1.83v-0.13c0.39,0,0.59-0.14,0.59-0.41v-1.62h-1.99v1.62c0,0.27,0.19,0.41,0.58,0.41v0.13
			h-1.83v-0.13c0.38,0,0.58-0.14,0.58-0.41v-3.41c0-0.27-0.19-0.41-0.58-0.41v-0.13h1.83v0.13c-0.38,0-0.58,0.14-0.58,0.41v1.51
			H31.84z"/>
		<linearGradient id="SVGID_13_" gradientUnits="userSpaceOnUse" x1="54.6949" y1="2.6832" x2="62.5283" y2="67.8499">
			<stop  offset="0" style="stop-color:#FEE495"/>
			<stop  offset="0.0435" style="stop-color:#FCE69D"/>
			<stop  offset="0.1512" style="stop-color:#F9EAAE"/>
			<stop  offset="0.259" style="stop-color:#F7ECB8"/>
			<stop  offset="0.3663" style="stop-color:#F6EDBC"/>
			<stop  offset="0.3895" style="stop-color:#F1E6B4"/>
			<stop  offset="0.5743" style="stop-color:#D3B784"/>
			<stop  offset="0.7387" style="stop-color:#C09A68"/>
			<stop  offset="0.8751" style="stop-color:#B68958"/>
			<stop  offset="0.9668" style="stop-color:#B28453"/>
			<stop  offset="0.9793" style="stop-color:#B78857"/>
			<stop  offset="0.9932" style="stop-color:#C69763"/>
			<stop  offset="1" style="stop-color:#D2A26D"/>
		</linearGradient>
		<path class="st12" d="M33.31,35.03v-0.13c0.38,0,0.57-0.14,0.57-0.41v-3.41c0-0.27-0.19-0.41-0.57-0.41v-0.13h3.47v0.97h-0.14
			c-0.04-0.2-0.12-0.36-0.24-0.49c-0.12-0.13-0.29-0.19-0.5-0.19h-1.06c-0.08,0-0.15,0.02-0.21,0.07c-0.05,0.05-0.08,0.11-0.08,0.2
			v1.46h0.92c0.25,0,0.45-0.05,0.6-0.14s0.22-0.27,0.22-0.51h0.14v1.6h-0.14c0-0.25-0.07-0.42-0.22-0.52
			c-0.14-0.1-0.34-0.14-0.6-0.14h-0.92v1.67c0,0.18,0.06,0.27,0.17,0.27h0.87c0.23,0,0.41-0.01,0.56-0.05
			c0.15-0.03,0.29-0.11,0.43-0.24c0.14-0.13,0.27-0.32,0.37-0.59h0.18l-0.3,1.15H33.31z"/>
		<linearGradient id="SVGID_14_" gradientUnits="userSpaceOnUse" x1="54.6949" y1="2.6832" x2="62.5283" y2="67.8499">
			<stop  offset="0" style="stop-color:#FEE495"/>
			<stop  offset="0.0435" style="stop-color:#FCE69D"/>
			<stop  offset="0.1512" style="stop-color:#F9EAAE"/>
			<stop  offset="0.259" style="stop-color:#F7ECB8"/>
			<stop  offset="0.3663" style="stop-color:#F6EDBC"/>
			<stop  offset="0.3895" style="stop-color:#F1E6B4"/>
			<stop  offset="0.5743" style="stop-color:#D3B784"/>
			<stop  offset="0.7387" style="stop-color:#C09A68"/>
			<stop  offset="0.8751" style="stop-color:#B68958"/>
			<stop  offset="0.9668" style="stop-color:#B28453"/>
			<stop  offset="0.9793" style="stop-color:#B78857"/>
			<stop  offset="0.9932" style="stop-color:#C69763"/>
			<stop  offset="1" style="stop-color:#D2A26D"/>
		</linearGradient>
		<path class="st13" d="M40.31,31.45c-0.1-0.25-0.21-0.45-0.31-0.58c-0.1-0.13-0.24-0.2-0.41-0.2v-0.13h1.75v0.13
			c-0.2,0-0.33,0.02-0.4,0.06c-0.07,0.04-0.1,0.1-0.1,0.19c0,0.07,0.1,0.33,0.31,0.8l0.95,2.22l0.93-2.42
			c0.1-0.26,0.16-0.45,0.16-0.57c0-0.19-0.16-0.29-0.49-0.29v-0.13h1.35v0.13c-0.24,0-0.43,0.16-0.54,0.48
			c-0.23,0.58-0.5,1.27-0.8,2.06c-0.3,0.79-0.54,1.43-0.71,1.91h-0.09L40.31,31.45z"/>
		<linearGradient id="SVGID_15_" gradientUnits="userSpaceOnUse" x1="54.6949" y1="2.6832" x2="62.5283" y2="67.8499">
			<stop  offset="0" style="stop-color:#FEE495"/>
			<stop  offset="0.0435" style="stop-color:#FCE69D"/>
			<stop  offset="0.1512" style="stop-color:#F9EAAE"/>
			<stop  offset="0.259" style="stop-color:#F7ECB8"/>
			<stop  offset="0.3663" style="stop-color:#F6EDBC"/>
			<stop  offset="0.3895" style="stop-color:#F1E6B4"/>
			<stop  offset="0.5743" style="stop-color:#D3B784"/>
			<stop  offset="0.7387" style="stop-color:#C09A68"/>
			<stop  offset="0.8751" style="stop-color:#B68958"/>
			<stop  offset="0.9668" style="stop-color:#B28453"/>
			<stop  offset="0.9793" style="stop-color:#B78857"/>
			<stop  offset="0.9932" style="stop-color:#C69763"/>
			<stop  offset="1" style="stop-color:#D2A26D"/>
		</linearGradient>
		<path class="st14" d="M45.63,34.48c0,0.27,0.21,0.41,0.64,0.41v0.13h-1.95v-0.13c0.43,0,0.64-0.14,0.64-0.41v-3.41
			c0-0.27-0.21-0.41-0.64-0.41v-0.13h1.95v0.13c-0.43,0-0.64,0.14-0.64,0.41V34.48z"/>
		<linearGradient id="SVGID_16_" gradientUnits="userSpaceOnUse" x1="54.6949" y1="2.6832" x2="62.5283" y2="67.8499">
			<stop  offset="0" style="stop-color:#FEE495"/>
			<stop  offset="0.0435" style="stop-color:#FCE69D"/>
			<stop  offset="0.1512" style="stop-color:#F9EAAE"/>
			<stop  offset="0.259" style="stop-color:#F7ECB8"/>
			<stop  offset="0.3663" style="stop-color:#F6EDBC"/>
			<stop  offset="0.3895" style="stop-color:#F1E6B4"/>
			<stop  offset="0.5743" style="stop-color:#D3B784"/>
			<stop  offset="0.7387" style="stop-color:#C09A68"/>
			<stop  offset="0.8751" style="stop-color:#B68958"/>
			<stop  offset="0.9668" style="stop-color:#B28453"/>
			<stop  offset="0.9793" style="stop-color:#B78857"/>
			<stop  offset="0.9932" style="stop-color:#C69763"/>
			<stop  offset="1" style="stop-color:#D2A26D"/>
		</linearGradient>
		<path class="st15" d="M46.69,33.66h0.15c0.11,0.34,0.28,0.63,0.51,0.86c0.24,0.23,0.52,0.34,0.84,0.34c0.22,0,0.4-0.07,0.55-0.22
			c0.14-0.15,0.22-0.33,0.22-0.54c0-0.08-0.01-0.17-0.03-0.25c-0.06-0.2-0.16-0.37-0.32-0.49c-0.16-0.12-0.4-0.28-0.74-0.49
			c-0.34-0.2-0.59-0.4-0.75-0.59c-0.16-0.19-0.24-0.43-0.24-0.72c0-0.33,0.11-0.6,0.33-0.82c0.22-0.21,0.5-0.32,0.83-0.32
			c0.18,0,0.38,0.04,0.58,0.11c0.21,0.08,0.32,0.11,0.36,0.11c0.1,0,0.17-0.08,0.22-0.23h0.14l0.15,1.44h-0.17
			c-0.05-0.21-0.13-0.41-0.24-0.58c-0.11-0.18-0.25-0.32-0.41-0.42c-0.16-0.1-0.34-0.16-0.54-0.16c-0.21,0-0.37,0.06-0.5,0.17
			c-0.13,0.11-0.19,0.27-0.19,0.48c0,0.29,0.23,0.57,0.7,0.85c0.43,0.27,0.73,0.47,0.89,0.58c0.16,0.11,0.3,0.26,0.42,0.43
			c0.12,0.18,0.18,0.39,0.18,0.64c0,0.33-0.12,0.62-0.37,0.87C49,35,48.66,35.12,48.24,35.12c-0.14,0-0.26-0.01-0.36-0.04
			c-0.11-0.03-0.23-0.06-0.37-0.11c-0.14-0.05-0.24-0.07-0.29-0.07c-0.12,0-0.18,0.07-0.2,0.22h-0.14L46.69,33.66z"/>
		<linearGradient id="SVGID_17_" gradientUnits="userSpaceOnUse" x1="54.6949" y1="2.6832" x2="62.5283" y2="67.8499">
			<stop  offset="0" style="stop-color:#FEE495"/>
			<stop  offset="0.0435" style="stop-color:#FCE69D"/>
			<stop  offset="0.1512" style="stop-color:#F9EAAE"/>
			<stop  offset="0.259" style="stop-color:#F7ECB8"/>
			<stop  offset="0.3663" style="stop-color:#F6EDBC"/>
			<stop  offset="0.3895" style="stop-color:#F1E6B4"/>
			<stop  offset="0.5743" style="stop-color:#D3B784"/>
			<stop  offset="0.7387" style="stop-color:#C09A68"/>
			<stop  offset="0.8751" style="stop-color:#B68958"/>
			<stop  offset="0.9668" style="stop-color:#B28453"/>
			<stop  offset="0.9793" style="stop-color:#B78857"/>
			<stop  offset="0.9932" style="stop-color:#C69763"/>
			<stop  offset="1" style="stop-color:#D2A26D"/>
		</linearGradient>
		<path class="st16" d="M51.5,34.48c0,0.27,0.21,0.41,0.64,0.41v0.13h-1.95v-0.13c0.43,0,0.64-0.14,0.64-0.41v-3.41
			c0-0.27-0.21-0.41-0.64-0.41v-0.13h1.95v0.13c-0.43,0-0.64,0.14-0.64,0.41V34.48z"/>
		<linearGradient id="SVGID_18_" gradientUnits="userSpaceOnUse" x1="54.6949" y1="2.6832" x2="62.5283" y2="67.8499">
			<stop  offset="0" style="stop-color:#FEE495"/>
			<stop  offset="0.0435" style="stop-color:#FCE69D"/>
			<stop  offset="0.1512" style="stop-color:#F9EAAE"/>
			<stop  offset="0.259" style="stop-color:#F7ECB8"/>
			<stop  offset="0.3663" style="stop-color:#F6EDBC"/>
			<stop  offset="0.3895" style="stop-color:#F1E6B4"/>
			<stop  offset="0.5743" style="stop-color:#D3B784"/>
			<stop  offset="0.7387" style="stop-color:#C09A68"/>
			<stop  offset="0.8751" style="stop-color:#B68958"/>
			<stop  offset="0.9668" style="stop-color:#B28453"/>
			<stop  offset="0.9793" style="stop-color:#B78857"/>
			<stop  offset="0.9932" style="stop-color:#C69763"/>
			<stop  offset="1" style="stop-color:#D2A26D"/>
		</linearGradient>
		<path class="st17" d="M56.77,32.78c0,0.33-0.05,0.63-0.15,0.92c-0.1,0.28-0.24,0.53-0.43,0.74c-0.19,0.21-0.42,0.38-0.68,0.5
			c-0.27,0.12-0.56,0.18-0.88,0.18c-0.38,0-0.74-0.1-1.07-0.29c-0.33-0.19-0.59-0.47-0.78-0.82c-0.19-0.35-0.29-0.76-0.29-1.22
			c0-0.44,0.09-0.84,0.27-1.2c0.18-0.36,0.43-0.64,0.75-0.84c0.33-0.2,0.7-0.3,1.12-0.3c0.39,0,0.75,0.1,1.08,0.3
			c0.33,0.2,0.59,0.47,0.78,0.83C56.68,31.92,56.77,32.33,56.77,32.78z M53.23,32.78c0,0.66,0.13,1.17,0.39,1.54
			c0.26,0.37,0.59,0.55,1.01,0.55c0.34-0.03,0.62-0.14,0.82-0.36c0.21-0.21,0.36-0.47,0.44-0.78c0.09-0.31,0.13-0.62,0.13-0.95
			c0-0.38-0.05-0.73-0.14-1.04c-0.09-0.32-0.25-0.57-0.46-0.77c-0.21-0.19-0.48-0.29-0.8-0.29C53.7,30.74,53.23,31.44,53.23,32.78z"
			/>
		<linearGradient id="SVGID_19_" gradientUnits="userSpaceOnUse" x1="54.6949" y1="2.6832" x2="62.5283" y2="67.8499">
			<stop  offset="0" style="stop-color:#FEE495"/>
			<stop  offset="0.0435" style="stop-color:#FCE69D"/>
			<stop  offset="0.1512" style="stop-color:#F9EAAE"/>
			<stop  offset="0.259" style="stop-color:#F7ECB8"/>
			<stop  offset="0.3663" style="stop-color:#F6EDBC"/>
			<stop  offset="0.3895" style="stop-color:#F1E6B4"/>
			<stop  offset="0.5743" style="stop-color:#D3B784"/>
			<stop  offset="0.7387" style="stop-color:#C09A68"/>
			<stop  offset="0.8751" style="stop-color:#B68958"/>
			<stop  offset="0.9668" style="stop-color:#B28453"/>
			<stop  offset="0.9793" style="stop-color:#B78857"/>
			<stop  offset="0.9932" style="stop-color:#C69763"/>
			<stop  offset="1" style="stop-color:#D2A26D"/>
		</linearGradient>
		<path class="st18" d="M61.03,35.12h-0.1l-2.91-3.74v3.1c0,0.27,0.21,0.41,0.63,0.41v0.13H57.1v-0.13c0.42,0,0.63-0.14,0.63-0.41
			v-3.45l-0.05-0.07c-0.11-0.13-0.2-0.21-0.27-0.25s-0.17-0.05-0.32-0.05v-0.13h1.12l2.52,3.27v-2.73c0-0.27-0.21-0.41-0.63-0.41
			v-0.13h1.56v0.13c-0.42,0-0.63,0.14-0.63,0.41V35.12z"/>
		<linearGradient id="SVGID_20_" gradientUnits="userSpaceOnUse" x1="54.6949" y1="2.6832" x2="62.5283" y2="67.8499">
			<stop  offset="0" style="stop-color:#FEE495"/>
			<stop  offset="0.0435" style="stop-color:#FCE69D"/>
			<stop  offset="0.1512" style="stop-color:#F9EAAE"/>
			<stop  offset="0.259" style="stop-color:#F7ECB8"/>
			<stop  offset="0.3663" style="stop-color:#F6EDBC"/>
			<stop  offset="0.3895" style="stop-color:#F1E6B4"/>
			<stop  offset="0.5743" style="stop-color:#D3B784"/>
			<stop  offset="0.7387" style="stop-color:#C09A68"/>
			<stop  offset="0.8751" style="stop-color:#B68958"/>
			<stop  offset="0.9668" style="stop-color:#B28453"/>
			<stop  offset="0.9793" style="stop-color:#B78857"/>
			<stop  offset="0.9932" style="stop-color:#C69763"/>
			<stop  offset="1" style="stop-color:#D2A26D"/>
		</linearGradient>
		<path class="st19" d="M64.97,32.18c-0.24-0.67-0.41-1.09-0.51-1.25c-0.08-0.15-0.22-0.24-0.43-0.26v-0.13h1.61v0.13h-0.1
			c-0.13,0.02-0.21,0.04-0.26,0.07c-0.05,0.03-0.07,0.1-0.07,0.21c0,0.02,0.02,0.08,0.05,0.17c0.03,0.09,0.05,0.14,0.05,0.15
			l0.91,2.48l0.7-1.91c-0.17-0.45-0.28-0.73-0.34-0.85c-0.06-0.12-0.13-0.2-0.21-0.24c-0.08-0.04-0.19-0.07-0.34-0.07v-0.13h1.75
			v0.13c-0.33,0-0.5,0.07-0.5,0.21c0,0.04,0.01,0.1,0.03,0.17c0.02,0.07,0.03,0.11,0.03,0.12l0.98,2.6l0.78-2.22
			c0.08-0.31,0.12-0.51,0.13-0.58c0-0.07-0.01-0.11-0.03-0.14c-0.05-0.09-0.19-0.14-0.42-0.16v-0.13h1.3v0.13
			c-0.17,0.01-0.31,0.07-0.41,0.19c-0.06,0.1-0.11,0.2-0.14,0.3l-1.34,3.97h-0.09l-1.05-2.89l-1.01,2.89h-0.09L64.97,32.18z"/>
		<linearGradient id="SVGID_21_" gradientUnits="userSpaceOnUse" x1="54.6949" y1="2.6832" x2="62.5283" y2="67.8499">
			<stop  offset="0" style="stop-color:#FEE495"/>
			<stop  offset="0.0435" style="stop-color:#FCE69D"/>
			<stop  offset="0.1512" style="stop-color:#F9EAAE"/>
			<stop  offset="0.259" style="stop-color:#F7ECB8"/>
			<stop  offset="0.3663" style="stop-color:#F6EDBC"/>
			<stop  offset="0.3895" style="stop-color:#F1E6B4"/>
			<stop  offset="0.5743" style="stop-color:#D3B784"/>
			<stop  offset="0.7387" style="stop-color:#C09A68"/>
			<stop  offset="0.8751" style="stop-color:#B68958"/>
			<stop  offset="0.9668" style="stop-color:#B28453"/>
			<stop  offset="0.9793" style="stop-color:#B78857"/>
			<stop  offset="0.9932" style="stop-color:#C69763"/>
			<stop  offset="1" style="stop-color:#D2A26D"/>
		</linearGradient>
		<path class="st20" d="M70.26,35.03v-0.13c0.38,0,0.57-0.14,0.57-0.41v-3.41c0-0.27-0.19-0.41-0.57-0.41v-0.13h3.47v0.97h-0.14
			c-0.04-0.2-0.12-0.36-0.24-0.49c-0.12-0.13-0.29-0.19-0.5-0.19h-1.06c-0.08,0-0.15,0.02-0.21,0.07c-0.05,0.05-0.08,0.11-0.08,0.2
			v1.46h0.92c0.25,0,0.45-0.05,0.6-0.14c0.14-0.1,0.22-0.27,0.22-0.51h0.14v1.6h-0.14c0-0.25-0.07-0.42-0.22-0.52
			c-0.14-0.1-0.34-0.14-0.6-0.14H71.5v1.67c0,0.18,0.06,0.27,0.17,0.27h0.87c0.23,0,0.41-0.01,0.56-0.05
			c0.15-0.03,0.29-0.11,0.43-0.24c0.14-0.13,0.27-0.32,0.37-0.59h0.18l-0.3,1.15H70.26z"/>
		<linearGradient id="SVGID_22_" gradientUnits="userSpaceOnUse" x1="54.6949" y1="2.6832" x2="62.5283" y2="67.8499">
			<stop  offset="0" style="stop-color:#FEE495"/>
			<stop  offset="0.0435" style="stop-color:#FCE69D"/>
			<stop  offset="0.1512" style="stop-color:#F9EAAE"/>
			<stop  offset="0.259" style="stop-color:#F7ECB8"/>
			<stop  offset="0.3663" style="stop-color:#F6EDBC"/>
			<stop  offset="0.3895" style="stop-color:#F1E6B4"/>
			<stop  offset="0.5743" style="stop-color:#D3B784"/>
			<stop  offset="0.7387" style="stop-color:#C09A68"/>
			<stop  offset="0.8751" style="stop-color:#B68958"/>
			<stop  offset="0.9668" style="stop-color:#B28453"/>
			<stop  offset="0.9793" style="stop-color:#B78857"/>
			<stop  offset="0.9932" style="stop-color:#C69763"/>
			<stop  offset="1" style="stop-color:#D2A26D"/>
		</linearGradient>
		<path class="st21" d="M80.48,31.88h-0.15c-0.27-0.78-0.75-1.17-1.45-1.17c-0.35,0-0.64,0.09-0.87,0.28
			c-0.24,0.19-0.41,0.44-0.52,0.76c-0.11,0.32-0.17,0.69-0.17,1.1c0,0.56,0.15,1.03,0.44,1.42c0.29,0.39,0.7,0.58,1.22,0.58
			c0.29,0,0.53-0.05,0.73-0.14c0.09-0.05,0.15-0.1,0.16-0.13c0.02-0.04,0.03-0.1,0.03-0.21v-1.01c0-0.22-0.03-0.38-0.1-0.47
			c-0.07-0.09-0.22-0.13-0.48-0.13v-0.14h1.68v0.14c-0.2,0-0.32,0.05-0.38,0.14c-0.06,0.09-0.09,0.25-0.09,0.47v1.29
			c-0.21,0.12-0.47,0.23-0.79,0.33c-0.32,0.1-0.61,0.15-0.86,0.15c-0.39,0-0.76-0.09-1.12-0.26c-0.36-0.17-0.65-0.43-0.87-0.79
			c-0.22-0.35-0.34-0.78-0.34-1.28c0-0.44,0.1-0.84,0.29-1.2c0.19-0.36,0.46-0.64,0.8-0.85c0.34-0.21,0.73-0.31,1.15-0.31
			c0.21,0,0.45,0.04,0.72,0.11c0.27,0.08,0.43,0.11,0.48,0.11c0.13,0,0.22-0.08,0.28-0.23h0.14L80.48,31.88z"/>
		<linearGradient id="SVGID_23_" gradientUnits="userSpaceOnUse" x1="54.6949" y1="2.6832" x2="62.5283" y2="67.8499">
			<stop  offset="0" style="stop-color:#FEE495"/>
			<stop  offset="0.0435" style="stop-color:#FCE69D"/>
			<stop  offset="0.1512" style="stop-color:#F9EAAE"/>
			<stop  offset="0.259" style="stop-color:#F7ECB8"/>
			<stop  offset="0.3663" style="stop-color:#F6EDBC"/>
			<stop  offset="0.3895" style="stop-color:#F1E6B4"/>
			<stop  offset="0.5743" style="stop-color:#D3B784"/>
			<stop  offset="0.7387" style="stop-color:#C09A68"/>
			<stop  offset="0.8751" style="stop-color:#B68958"/>
			<stop  offset="0.9668" style="stop-color:#B28453"/>
			<stop  offset="0.9793" style="stop-color:#B78857"/>
			<stop  offset="0.9932" style="stop-color:#C69763"/>
			<stop  offset="1" style="stop-color:#D2A26D"/>
		</linearGradient>
		<path class="st22" d="M82.58,34.48c0,0.27,0.21,0.41,0.64,0.41v0.13h-1.95v-0.13c0.43,0,0.64-0.14,0.64-0.41v-3.41
			c0-0.27-0.21-0.41-0.64-0.41v-0.13h1.95v0.13c-0.43,0-0.64,0.14-0.64,0.41V34.48z"/>
		<linearGradient id="SVGID_24_" gradientUnits="userSpaceOnUse" x1="54.6949" y1="2.6832" x2="62.5283" y2="67.8499">
			<stop  offset="0" style="stop-color:#FEE495"/>
			<stop  offset="0.0435" style="stop-color:#FCE69D"/>
			<stop  offset="0.1512" style="stop-color:#F9EAAE"/>
			<stop  offset="0.259" style="stop-color:#F7ECB8"/>
			<stop  offset="0.3663" style="stop-color:#F6EDBC"/>
			<stop  offset="0.3895" style="stop-color:#F1E6B4"/>
			<stop  offset="0.5743" style="stop-color:#D3B784"/>
			<stop  offset="0.7387" style="stop-color:#C09A68"/>
			<stop  offset="0.8751" style="stop-color:#B68958"/>
			<stop  offset="0.9668" style="stop-color:#B28453"/>
			<stop  offset="0.9793" style="stop-color:#B78857"/>
			<stop  offset="0.9932" style="stop-color:#C69763"/>
			<stop  offset="1" style="stop-color:#D2A26D"/>
		</linearGradient>
		<path class="st23" d="M84.2,31.45C84.1,31.2,84,31,83.89,30.87c-0.1-0.13-0.24-0.2-0.41-0.2v-0.13h1.75v0.13
			c-0.2,0-0.33,0.02-0.4,0.06c-0.07,0.04-0.1,0.1-0.1,0.19c0,0.07,0.1,0.33,0.31,0.8l0.95,2.22l0.93-2.42
			c0.1-0.26,0.16-0.45,0.16-0.57c0-0.19-0.16-0.29-0.49-0.29v-0.13h1.35v0.13c-0.24,0-0.43,0.16-0.54,0.48
			c-0.23,0.58-0.5,1.27-0.8,2.06c-0.3,0.79-0.54,1.43-0.71,1.91h-0.09L84.2,31.45z"/>
		<linearGradient id="SVGID_25_" gradientUnits="userSpaceOnUse" x1="54.6949" y1="2.6832" x2="62.5283" y2="67.8499">
			<stop  offset="0" style="stop-color:#FEE495"/>
			<stop  offset="0.0435" style="stop-color:#FCE69D"/>
			<stop  offset="0.1512" style="stop-color:#F9EAAE"/>
			<stop  offset="0.259" style="stop-color:#F7ECB8"/>
			<stop  offset="0.3663" style="stop-color:#F6EDBC"/>
			<stop  offset="0.3895" style="stop-color:#F1E6B4"/>
			<stop  offset="0.5743" style="stop-color:#D3B784"/>
			<stop  offset="0.7387" style="stop-color:#C09A68"/>
			<stop  offset="0.8751" style="stop-color:#B68958"/>
			<stop  offset="0.9668" style="stop-color:#B28453"/>
			<stop  offset="0.9793" style="stop-color:#B78857"/>
			<stop  offset="0.9932" style="stop-color:#C69763"/>
			<stop  offset="1" style="stop-color:#D2A26D"/>
		</linearGradient>
		<path class="st24" d="M88.18,35.03v-0.13c0.38,0,0.57-0.14,0.57-0.41v-3.41c0-0.27-0.19-0.41-0.57-0.41v-0.13h3.47v0.97h-0.14
			c-0.04-0.2-0.12-0.36-0.24-0.49c-0.12-0.13-0.29-0.19-0.5-0.19h-1.06c-0.08,0-0.15,0.02-0.21,0.07c-0.05,0.05-0.08,0.11-0.08,0.2
			v1.46h0.92c0.25,0,0.45-0.05,0.6-0.14c0.14-0.1,0.22-0.27,0.22-0.51h0.14v1.6h-0.14c0-0.25-0.07-0.42-0.22-0.52
			c-0.14-0.1-0.34-0.14-0.6-0.14h-0.92v1.67c0,0.18,0.06,0.27,0.17,0.27h0.87c0.23,0,0.41-0.01,0.56-0.05
			c0.15-0.03,0.29-0.11,0.43-0.24c0.14-0.13,0.27-0.32,0.37-0.59h0.18l-0.3,1.15H88.18z"/>
	</g>
</g>
<linearGradient id="SVGID_26_" gradientUnits="userSpaceOnUse" x1="58.6097" y1="-15.8745" x2="57.8132" y2="87.3155">
	<stop  offset="0" style="stop-color:#FEE495"/>
	<stop  offset="0.0232" style="stop-color:#FCE69D"/>
	<stop  offset="0.0808" style="stop-color:#F9EAAE"/>
	<stop  offset="0.1384" style="stop-color:#F7ECB8"/>
	<stop  offset="0.1957" style="stop-color:#F6EDBC"/>
	<stop  offset="0.352" style="stop-color:#DDC694"/>
	<stop  offset="0.5606" style="stop-color:#C4A06F"/>
	<stop  offset="0.7248" style="stop-color:#B78B5A"/>
	<stop  offset="0.8231" style="stop-color:#B28453"/>
	<stop  offset="0.9264" style="stop-color:#B48654"/>
	<stop  offset="0.9636" style="stop-color:#BB8D5A"/>
	<stop  offset="0.9901" style="stop-color:#C99A65"/>
	<stop  offset="1" style="stop-color:#D2A26D"/>
</linearGradient>
<rect x="16.66" y="26.87" class="st25" width="83.23" height="0.55"/>
</svg>
