<svg id="Layer_1" data-name="Layer 1" xmlns="http://www.w3.org/2000/svg" viewBox="0 0 25.48 27.98"><defs><style>.cls-1{fill:#aa1d45;}</style></defs><path class="cls-1" d="M24.25,14.31s.24-.16.29-.31a1.5,1.5,0,0,0,.08-.26,1.61,1.61,0,0,1,.41,0,1.51,1.51,0,0,1,.45.28,1,1,0,0,0-.39-.63,1.54,1.54,0,0,0-.62-.16.38.38,0,0,0-.11-.3.62.62,0,0,0-.24-.14,1.06,1.06,0,0,1,.38-.3.75.75,0,0,1,.4-.07,1.39,1.39,0,0,0-.66-.25c-.29,0-.33.14-.33.14s0-.2-.6-.26S22,13.26,21.62,13.33s-.63-.12-1-.43l-.34-.23c-.85.31-1.72.58-2.6.81a0,0,0,0,1,0-.05c.73-.34,1.51-.55,2.28-.83l.4-.15a6,6,0,0,0,1.15-1.09A2.92,2.92,0,0,0,22.26,9a3.17,3.17,0,0,1,.55-2.15c.38-.49,1.35-.93,1.49-1.2a.6.6,0,0,0-.06-.55,1.34,1.34,0,0,1,.38-.22,1.77,1.77,0,0,1,.59,0,1.36,1.36,0,0,0-.48-.29,1.73,1.73,0,0,0-.71.07,1.12,1.12,0,0,0,0-.41.64.64,0,0,0-.18-.37l.4-.18a2.05,2.05,0,0,1,.55-.09,1.35,1.35,0,0,0-.59-.17,1.64,1.64,0,0,0-.6.14,1.09,1.09,0,0,0-.3-.31A2.19,2.19,0,0,0,22.9,3l.21-.2a1,1,0,0,1,.26-.18,1.57,1.57,0,0,0-.69.07.34.34,0,0,0-.2.29,1.67,1.67,0,0,0-.89.16c-.41.22-.43.87-.34,1.53a6.5,6.5,0,0,1-.6,2.56,5.34,5.34,0,0,1-.87,1.33,3.91,3.91,0,0,0-.71-.64,2.13,2.13,0,0,0-.68-.4,2.15,2.15,0,0,0,.47-.49A.76.76,0,0,0,19,6.57a3.54,3.54,0,0,1-.58.49c-.32.21-.7,0-1-.24a.92.92,0,0,1-.3-.74s.85-.61.89-.87a.56.56,0,0,0-.42-.59.92.92,0,0,0-.54.15.64.64,0,0,0,0-.3c0-.16-.3-.34-.3-.34s0,.16.07.3a1,1,0,0,1-.07.4s-.23.12-.71.31a1.81,1.81,0,0,1-1.29-.08c-.51-.14-.13-.81.2-1.14s.59-.17,1-.21a2.93,2.93,0,0,0,.85-.21,1.35,1.35,0,0,0,.19.27.91.91,0,0,1,.15.34s0-.24.05-.43a.9.9,0,0,0-.05-.37,2.49,2.49,0,0,0,.38-.42A1.61,1.61,0,0,0,17.44,2a1.13,1.13,0,0,0-.34-.54.4.4,0,0,0-.25-.49,9,9,0,0,0-2.29.62,1.38,1.38,0,0,0-.84-.8,5.37,5.37,0,0,0-1.6.08,1.87,1.87,0,0,1,.39-.55A3.73,3.73,0,0,1,13.08,0a6,6,0,0,0-1.92.29c-.78.3-1.11,1.45-1.11,1.45A2.54,2.54,0,0,0,9,1.47c-.33.09-.47.21-.37.58a3.09,3.09,0,0,0,.31.66,3.5,3.5,0,0,0,.94.49s0,.08,0,.09A1.34,1.34,0,0,1,9,3,3.29,3.29,0,0,0,8.54,4.4a1.52,1.52,0,0,0,.33,1.13,3.24,3.24,0,0,0-.33,2,3.53,3.53,0,0,0,.71,1.34s-.36,1.33.21,1.94A6.85,6.85,0,0,0,11.06,12a1.52,1.52,0,0,1-.43.57,2.54,2.54,0,0,1-.92.39,2.31,2.31,0,0,0,1,.45.84.84,0,0,0,.42,0c.32-.36.79-.46,1.13-.82s.54-.87.88-1.25c0,0,.07,0,.06,0a2.75,2.75,0,0,1-.68,1.28,2,2,0,0,1-.64.47c-.11.05-.23.09-.34.15a3.18,3.18,0,0,1-.93.73A20.63,20.63,0,0,0,7,15.85,2.24,2.24,0,0,0,6.21,17a2.52,2.52,0,0,1-1.38-.14c-.49-.33-.52-.79-.22-1.42s2.27-2.35,2.46-3.88.36-2.29-.49-3.65-1.8-2-1.07-3.06A6.45,6.45,0,0,1,7.34,3.22a1.8,1.8,0,0,0-1.25-.31c-.85.06-1.26.93-1.42,1.45a2.71,2.71,0,0,0-.11,1,1.62,1.62,0,0,1-.63-1.17c-.11-.85.41-2.43-1-2.89A5.47,5.47,0,0,0,1,.87s1,.3,1.07,1.06S1.56,3.05,2.16,4A16.64,16.64,0,0,0,3.33,5.64s-.16-.16-.79.41S2.16,7.66,1.45,8.26A7.28,7.28,0,0,1,0,9.22a1.73,1.73,0,0,0,1.72-.44c.77-.76,1-1.36,2.18-1.23A2.74,2.74,0,0,1,6.25,9.22a4.38,4.38,0,0,1-.93,4c-1,1.2-2,2.35-1.71,3.52s.9,1.23,1.85,1.23a5.79,5.79,0,0,0,.65,0c0,.12,0,.19,0,.19a10.62,10.62,0,0,0,0,1.08c.07.69-.09.72-.79,1s-1.54-.19-2,.12.4,2.13.41,2.85S3,25.26,3.22,25.6s.7.22,1,.3.27.82.52,1a.64.64,0,0,0,.44.12s.17.23.27.4,0,.52,0,.52a1.15,1.15,0,0,0,.46-.47A.55.55,0,0,0,5.85,27a2,2,0,0,0,.45.09.67.67,0,0,0,.34,0,1.32,1.32,0,0,1,.25.31A1.63,1.63,0,0,1,7,28a2,2,0,0,0,.3-.73,1.35,1.35,0,0,0-.06-.47,1.36,1.36,0,0,0,.26-.1l.11-.07a1,1,0,0,1,.27.4,2.49,2.49,0,0,1,.15.6,1.66,1.66,0,0,0,.23-.75c0-.3-.12-.37-.12-.37a.71.71,0,0,0,.32-.57c0-.39-.25-.68-1-1s-1.93-.09-2.19-.62a1.15,1.15,0,0,1,.58-1.54c.67-.41,1-.19,2.56-.27a2.49,2.49,0,0,0,2-1.25A1.53,1.53,0,0,1,11,20a7.85,7.85,0,0,0,1.66-2s.09,0,.08,0a3.45,3.45,0,0,1-1,1.53,5,5,0,0,0-1.17,1.23,2.45,2.45,0,0,0,.67.82c.39.24,1.55-.13,2.17-.14s.59.14.47.6-.51,1.73-.13,2.15,1.5.3,2.09.35.67.94,1,1.11a3.18,3.18,0,0,0,1.33.1c.21,0,.41.44.8.57a1.46,1.46,0,0,0,.88-.08.82.82,0,0,1,.34.33,2.08,2.08,0,0,1,.14.52,1.72,1.72,0,0,0,.19-.71.49.49,0,0,0-.23-.42,1.31,1.31,0,0,0,.57-.14.62.62,0,0,0,.17-.22,1.8,1.8,0,0,1,.4.24,1,1,0,0,1,.29.5s.17-.61,0-.9a.62.62,0,0,0-.41-.31,1.85,1.85,0,0,0,.11-.44,1.68,1.68,0,0,0,0-.26.77.77,0,0,1,.53,0,1,1,0,0,1,.41.44,1.23,1.23,0,0,0-.23-.81.79.79,0,0,0-.67-.25s.2-.27-.62-.51a2.79,2.79,0,0,0-2,.37c-.62.22-.9-.45-2-.86s-.6-.9-.22-1.91a2.27,2.27,0,0,0,0-2.41,3,3,0,0,0-2-1.06,16.29,16.29,0,0,0,3.22-1.34,2.13,2.13,0,0,0,.81-1,1,1,0,0,0-.66.22c-.06,0-.11,0-.07-.09a.88.88,0,0,1,.65-.34h.29a1.13,1.13,0,0,1,.47-.07c.43,0,1.24.58,1.73.64a1.2,1.2,0,0,0,.93-.3c.24-.13,1.1.17,1.62.11s.51-.46.51-.46.23,0,.43,0a1,1,0,0,1,.43.23,1.31,1.31,0,0,0-.26-.6.64.64,0,0,0-.43-.19ZM12.51,2.64a2.88,2.88,0,0,1,.39-.48,1.24,1.24,0,0,1,.59-.31c-.05.11-.11.19,0,.29s.33.1.37.23a1.56,1.56,0,0,0-.75,0,4.68,4.68,0,0,0-.56.25ZM14.61,7a6.88,6.88,0,0,0-.39,1.16.12.12,0,0,1-.24,0,7.47,7.47,0,0,1-.7-1.95,1.94,1.94,0,0,0-.49.86c0,.1-.2.15-.25,0a2.83,2.83,0,0,1-.17-1.57,3.78,3.78,0,0,0-.94,1.16c-.06.12-.23,0-.21-.09a4.82,4.82,0,0,1,.64-1.83,3.76,3.76,0,0,0-1.11.88c-.05.06-.15,0-.13-.08a10,10,0,0,1,.85-2s.09,0,.07,0c-.21.56-.48,1.09-.67,1.66a3.27,3.27,0,0,1,1.24-.83c.1,0,.15.09.09.15a3.38,3.38,0,0,0-.65,1.43,10.11,10.11,0,0,1,.9-.95.13.13,0,0,1,.21.12,3.4,3.4,0,0,0,0,1.42,2.21,2.21,0,0,1,.68-.81.13.13,0,0,1,.19.11,3.57,3.57,0,0,0,.54,1.81,5.82,5.82,0,0,1,.45-1.06.11.11,0,0,1,.2,0A5,5,0,0,0,16.57,8.9c.12.09,0,.28-.11.2A4.48,4.48,0,0,1,14.61,7Zm3.64,5c0,.8-.89,1.17-1.28,1.75,0,.06-.13,0-.1,0a3.16,3.16,0,0,1,.69-.81,2.89,2.89,0,0,0,.36-.44,3.1,3.1,0,0,1-1.89.85,0,0,0,0,1,0-.07,5.43,5.43,0,0,0,2.06-1.11h0l.06-.13a0,0,0,0,1,.07,0Z"/></svg>