<svg xmlns="http://www.w3.org/2000/svg" width="1904.569" height="2091" viewBox="0 0 1904.569 2091">
  <path id="Lion_Abt" data-name="Lion Abt" d="M405.613,1398.089s-16.294-1.046-31.616,14.278c-15.323,15.247-19.434,44.92-19.434,44.92s16.444-15.322,31.617-17.415c15.322-2.018,32.738-3.065,32.738-3.065s-1.121,30.572,37.746,34.682c38.718,4.111,103-18.388,121.385-8.146s32.589,27.58,69.288,22.422c36.775-5.01,96.945-45.893,129.684-47.911,15.472-.971,26.983,1.792,34.9,4.933,7.625-.225,15.025.225,21.227.524,19.586.97,37,10.539,49.183,25.487,2.915,3.661-.971,10.316-5.383,7.026-15.47-11.661-31.018-16.369-49.627-16.667,5.006,14.724,19.507,45.744,60.766,76.611,57.179,42.828,240.826,100.009,240.826,100.009s-110.173,10.165-150.982,79.528c-40.811,69.438-32.665,104.118-4.11,179.536,28.625,75.493,65.25,112.191-16.369,142.837-81.548,30.645-102.4,81.172-148.371,64.355-45.891-16.966-88.794-45.968-149.934-27.657-61.292,18.388-45.97,38.345-45.97,38.345s-30.57-4.635-50.527,18.312c-19.734,22.946-16.818,61.14-16.818,61.14s12.258-25.86,30.645-33.633c18.389-7.625,39.838,0,39.838,0a196.627,196.627,0,0,0,1.5,19.956c1.495,13,8.371,32.888,8.371,32.888s-16,1.495-30.5,22.872c-14.574,21.526-2.391,67.418-2.391,67.418s6.13-25.262,22.274-37.521c15.994-12.258,29.675-17.566,29.675-17.566s2.39,6.8,12.331,16.073c9.943,9.117,42.828,10.687,42.828,10.687s-15.322,6.878-16.891,31.318c-1.421,24.517,13.828,52.844,13.828,52.844s3.063-22.947,10.763-39.016c7.623-16.071,25.263-24.516,25.263-24.516s36.7,16.069,65.775,6.128c29.077-9.865,44.323-44.322,59.722-42.829,15.173,1.569,71.83,6.13,99.335-6.874,27.655-13.083,34.457-79.6,78.034-83.418,43.653-3.884,127.813,5.308,156.14-26.01,28.4-31.391-.821-126.243-9.941-160.7-9.192-34.383-11.434-45.818,35.207-45.071,46.715.748,133.12,29,162.2,10.689,25.937-16.369,45.817-53.517,49.779-61.215-16.742-36.252-53.142-59.5-87-91.714-32.813-31.316-61.065-70.858-73.476-114.807-.971-3.811,4.337-5.906,6.28-2.616,35.951,57.927,71.679,105.988,124.15,150.161,30.872,25.936,48.733,55.387,48.586,91.19,23.02,36.174,69.436,89.245,145.974,93.281,116.975,6.128,141.491-10.691,191.87,19.881,50.6,30.5,62.113,75.791,42.979,115.556-19.135,39.691-104.941,22.2-163.765,45.892-58.973,23.7-78.109,45.07-77.286,74.072.747,29.15,23.769,42.9,23.769,42.9s-6.953,5.457-9.195,27.582c-2.391,22.2,17.491,55.907,17.491,55.907a163.6,163.6,0,0,1,10.766-44.473c9.116-22.123,20.7-29.746,20.7-29.746s1.572.746,7.55,4.556c6.2,3.74,19.957,7.627,19.957,7.627s-5.233,14.573-4.633,35.128c.821,20.779,22.2,54.34,22.2,54.34s-1.5-32.813,6.874-47.314a97.018,97.018,0,0,1,18.464-23.022s10.614,4.561,25.935,3.812,33.787-6.874,33.787-6.874-10.765,15.321-3.963,34.457c6.951,19.133,34.458,35.13,34.458,35.13s-11.511-26.012-3.736-39.018c7.547-13.006,19.88-29.822,19.88-29.822s13.679,3.063,32.812-9.118c19.136-12.259,13.829-67.345,39.017-73.476,25.263-6.129,63.535,3.063,78.034-22.2,14.574-25.264-42.008-129.233-41.333-183.572.821-54.341,67.42-190.524,30.645-213.472-36.7-23.02-98.588,11.436-151.509-9.268-52.769-20.554-64.278-22.872-59.57-74.223,4.56-51.2,3.736-81.022,3.736-81.022a122.533,122.533,0,0,0,1.5-13.827c13.229,1.043,29.3,1.868,48.807,1.868,71.382,0,120.339-4.11,138.652-91.862,18.387-87.751-50.977-173.408-128.414-263.25-77.509-89.693-98.063-226.326-69.511-295.765,28.627-69.363,89.769-114.209,175.574-124.45C2012.4,882.95,2032.652,927.8,2089.833,984.9c57.178,57.254,128.561,32.662,128.561,32.662s-55.086-26.533-108.156-71.38c-52.994-44.847-34.682-122.432-81.621-165.26-46.866-42.829-59.124-30.57-59.124-30.57s42.905-51.051,87.751-122.507c44.848-71.382,2.093-97.915,8.073-155.02,6.13-57.106,79.6-79.6,79.6-79.6s-46.939-4.035-148.966,30.57C1894,458.55,1932.795,576.871,1924.5,640.106c-8.148,63.308-46.865,87.749-46.865,87.749s4.112-34.68-8.221-73.475c-12.184-38.716-42.754-104.043-106.063-108.154-63.085-4.036-93.8,22.572-93.8,22.572s81.547,46.791,136.708,124.377c55.086,77.509-16.294,126.465-79.6,228.493-63.235,102.1-50.977,159.207-36.7,273.416s161.227,242.771,183.574,289.71c22.5,46.939,20.481,81.623-16.294,106.063-23.919,16-71.83,13.754-102.55,10.24a172.568,172.568,0,0,0-58.15-88.274c-82.594-67.27-206.52-110.173-269.307-143.808-36.474-19.659-57.927-40.736-69.437-54.937-8.522-3.888-17.266-7.25-25.637-10.913-18.614-8.072-33.712-20.4-47.687-34.906-24.219-25.489-44.326-61.59-51.426-96.2-.523-2.692,2.84-5.158,5.008-2.768,25.262,28.555,39.466,64.955,65.777,93.282,24.963,26.832,60.392,34.159,84.086,61.814,9.643,3.287,20.4,5.081,31.69,3.361,39.766-6.2,73.4-33.783,73.4-33.783s-44.247-9.119-68.914-29c-24.367-19.957-32.065-42.9-32.065-42.9s76.461-38.193,119.442-84.16c42.828-45.821,15.322-145.38,15.322-145.38s33.635-35.13,53.516-99.484c19.809-64.207-24.44-151.434-24.44-151.434s25.937-24.516,24.44-84.162c-1.27-49.854-26.01-94.254-34.158-107.558-18.46,14.126-39.615,25.115-62.71,24.29-4.185-.223-4.56-5.529-.9-6.949,25.935-9.568,48.432-20.108,70.034-35.952,7.773-13.229,18.463-33.112,23.173-49.856,7.623-27.505-3.141-36.623-27.582-42.753-24.516-6.129-81.173,19.881-81.173,19.881s-24.441-85.657-82.593-108.677c-58.075-22.947-143.807-21.453-143.807-21.453s29.075,12.258,42.9,21.453c13.752,9.191,29.073,41.332,29.073,41.332s-76.462-15.247-119.44-6.053c-42.754,9.2-62.711,59.647-62.711,59.647S985.035,389.711,959.022,398.83c-26.084,9.193-18.311,36.775-18.311,36.775s-18.387,13.753-26.085,39.763c-7.55,26.01-10.765,56.58-4.635,68.913,6.2,12.183,28.1,31.617,28.1,31.617s-5.158,13.231-4.038,27.507c.971,14.276,4.038,32.589,4.038,32.589s4.111-17.268,11.211-25.487c7.176-8.148,14.349-20.331,14.349-20.331a229.51,229.51,0,0,0,63.309,15.174c34.606,3.138,53.965-8.073,78.481,16.369,24.442,24.515,53.07,74.521,15.248,84.685-37.671,10.241-61.14,20.48-96.943,6.205-35.654-14.279-53-23.545-53-23.545s-7.1-19.359-5.081-29.6c2.018-10.166,5.081-22.349,5.081-22.349s-19.284,13.229-22.5,25.488a47.048,47.048,0,0,0,0,22.351s-21.3-14.2-39.764-11.139c-18.313,2.992-34.607,24.516-31.544,43.875s66.3,65.253,66.3,65.253,2.018,37.671-22.5,55.087c-24.369,17.341-52.994,33.635-76.464,18.387-23.546-15.322-43.876-36.775-43.876-36.775s-3.065,17.343,8.223,35.73c11.136,18.314,35.653,36.7,35.653,36.7s-15.325,3.063-50.978,29.6c-35.726,26.534-53.067,47.986-53.067,47.986s-44.923-49.031-65.326-98.962c-20.331-50.079-52.1-142.909-44.848-191.795,7.1-49.03,5.083-97.915-25.564-114.284-30.5-16.294-66.15-12.183-66.15-12.183s.9-12.259-15.4-21.377c-16.294-9.193-50.976-5.158-50.976-5.158s12.185,6.053,19.433,13.23l15.248,15.249S489.328,559.532,477,566.707c-12.183,7.1-22.422,23.469-22.422,23.469s-22.425-10.316-44.848-10.316-43.876,12.259-43.876,12.259,25.565,1.046,40.734,7.249c15.325,5.982,29.675,13.156,29.675,13.156s-10.239,9.195-13.3,27.582c-3.142,18.386,0,30.645,0,30.645s-34.684-10.165-53-5.156c-18.387,5.156-35.728,21.45-35.728,21.45s27.507-2.091,43.876,4.111a107.8,107.8,0,0,1,28.475,16.3s-14.2,20.331-4.033,40.811c10.164,20.4,82.666,52.994,111.144,89.767,28.627,36.7,45,92.759,40.885,161.225-4.035,68.241,5.083,112.191,60.244,178.414,36.1,43.5,68.541,68.915,86.7,81.323,9.866,3.962,19.657,7.847,29.674,11.434,57.105,20.332,115.406,36.627,170.493,62.116,2.091.969.673,4.034-1.421,3.436-65.85-17.191-130.951-37.671-194.935-60.767-5.531,3.738-13.677,9.269-25.337,17.789-30.646,22.5-45.819,36.7-77.511,31.617-31.615-5.158-83.639-97.915-126.543-93.88-42.829,4.113-44.771,19.434-44.771,19.434s-3.141-9.193-24.594-10.239c-21.3-1.047-48.882,18.462-48.882,18.462s13.306-2.094,29.6,5.008,28.553,22.424,28.553,22.424a45.8,45.8,0,0,0-18.387,10.239c-9.2,8.146-8.148,22.424-8.148,22.424a110.437,110.437,0,0,0-45.894,12.182c-23.469,12.333-29.6,47.014-29.6,47.014s19.434-17.339,33.636-20.478c14.277-2.992,30.646-1.944,30.646-1.944s2.02,8.148,6.053,19.436c4.11,11.134,21.452,23.393,21.452,23.393Zm877.5-872.493h0s-22.049-12.183-41.409-18.313c-19.432-6.053-31.617-5.006-55.909-1.72,2.766-9.416,21.3-10.686,26.982-17.487s1.047-13.231-2.318-21.379c8.3-.9,28.777,10.837,43.578,23.395,14.576,12.556,29.075,35.5,29.075,35.5ZM1126.525,852.6h0c-28.554,63.532-77.213,122.355-138.128,156.142-10.016,5.529-17.489-8.523-8.743-14.949,57.327-42.753,114.207-93.283,138.724-162.569,2.168-6.28,11.063-8.3,14.651-1.943,14.126,25.262,24.817,51.8,33.485,79.229,19.957-43.653,45.669-85.958,40.811-135.513-.748-6.653,8.371-11.885,13.828-7.923,22.947,16.669,39.391,36.625,50.9,60.692,9.343-34.757,6.13-69.887.225-106.288-1.42-8.669,8.3-15.844,15.323-8.968,23.32,23.172,47.763,45,67.345,70.785-8.9-38.5-22.5-74.82-48.734-106.66-3.888-4.858-.45-14.276,6.876-11.661,36.923,13.231,66.374,35.2,92.982,62.262-14.127-42.305-34.306-82-50.3-123.7-1.27-3.138,3.888-5.306,5.456-2.316,25.489,46.939,48.885,94.925,63.234,146.424,1.57,5.381-5.605,9.941-9.641,5.607-24.592-26.982-50.678-50.155-82.964-65.552,27.28,40.96,39.312,87.225,47.76,136.708,1.5,8.67-10.988,15.7-15.322,6.5-16.3-34.905-42.828-60.917-70.185-86.779,5.157,40.288,3.961,78.856-12.633,117.871-3.738,8.746-16.666,5.233-18.909-2.465-7.25-25.489-18.911-46.639-36.774-64.43-3.739,52.021-34.159,97.392-51.873,145.976-3.065,8.3-15.623,9.643-18.089,0-7.848-29.824-16.667-58.526-29.3-86.479ZM854.08,1227.3h0c.15-2.765,4.112-4.26,5.383-1.495,1.718,3.513,3.438,6.876,4.933,10.24a2.612,2.612,0,0,1,2.99.223c47.686,36.925,94.028,68.99,153.9,83.191,2.915.673,2.169,5.381-.671,5.233-45.818-3.513-107.783-26.162-141.791-63.757a202.883,202.883,0,0,0,27.432,33.037c19.507,19.134,37.971,36.1,51.125,60.394,2.617,4.708-4.108,8.594-7.1,4.186-29.223-43.576-97.915-71.308-96.2-131.253Z" transform="translate(-313.826 -328.4)" fill="rgba(0,0,0,0.09)"/>
</svg>
