<svg id="Layer_1" data-name="Layer 1" xmlns="http://www.w3.org/2000/svg" xmlns:xlink="http://www.w3.org/1999/xlink" viewBox="0 0 83.25 19.5"><defs><style>.cls-1{fill:url(#linear-gradient);}.cls-2{fill:url(#linear-gradient-11);}.cls-3{fill:url(#linear-gradient-26);}</style><linearGradient id="linear-gradient" x1="37" y1="-52.12" x2="47.5" y2="67.13" gradientTransform="translate(-0.44 -1.26)" gradientUnits="userSpaceOnUse"><stop offset="0" stop-color="#fee495"/><stop offset="0.02" stop-color="#fde598"/><stop offset="0.15" stop-color="#f9e9ac"/><stop offset="0.29" stop-color="#f7ecb8"/><stop offset="0.42" stop-color="#f6edbc"/><stop offset="0.48" stop-color="#e4d1a0"/><stop offset="0.58" stop-color="#c9a776"/><stop offset="0.66" stop-color="#b88e5d"/><stop offset="0.71" stop-color="#b28453"/><stop offset="0.81" stop-color="#b78857"/><stop offset="0.92" stop-color="#c49562"/><stop offset="1" stop-color="#d2a26d"/></linearGradient><linearGradient id="linear-gradient-11" x1="38.47" y1="-11.94" x2="46.31" y2="53.23" gradientTransform="translate(-0.44 -1.26)" gradientUnits="userSpaceOnUse"><stop offset="0" stop-color="#fee495"/><stop offset="0.01" stop-color="#fde598"/><stop offset="0.13" stop-color="#f9e9ac"/><stop offset="0.25" stop-color="#f7ecb8"/><stop offset="0.37" stop-color="#f6edbc"/><stop offset="0.56" stop-color="#d9c190"/><stop offset="0.73" stop-color="#c4a06f"/><stop offset="0.87" stop-color="#b78b5a"/><stop offset="0.97" stop-color="#b28453"/><stop offset="0.98" stop-color="#b78857"/><stop offset="0.99" stop-color="#c49562"/><stop offset="1" stop-color="#d2a26d"/></linearGradient><linearGradient id="linear-gradient-26" x1="41.95" y1="-31.5" x2="41.15" y2="71.69" gradientUnits="userSpaceOnUse"><stop offset="0" stop-color="#fee495"/><stop offset="0.01" stop-color="#fde598"/><stop offset="0.07" stop-color="#f9e9ac"/><stop offset="0.13" stop-color="#f7ecb8"/><stop offset="0.2" stop-color="#f6edbc"/><stop offset="0.33" stop-color="#e4d1a0"/><stop offset="0.55" stop-color="#c9a776"/><stop offset="0.72" stop-color="#b88e5d"/><stop offset="0.82" stop-color="#b28453"/><stop offset="0.92" stop-color="#b48655"/><stop offset="0.96" stop-color="#bb8c5a"/><stop offset="0.98" stop-color="#c69764"/><stop offset="1" stop-color="#d2a26d"/></linearGradient></defs><path class="cls-1" d="M1.21,1Q1.21.17,0,.17V-.08H3.32c2.26,0,3.39.72,3.39,2.17A1.82,1.82,0,0,1,5.06,3.93V4a2.91,2.91,0,0,1,1.47.72,1.81,1.81,0,0,1,.59,1.4,2,2,0,0,1-.86,1.72,4.08,4.08,0,0,1-2.36.6H0V8.14c.8,0,1.2-.25,1.2-.77ZM3.47,3.7a2.34,2.34,0,0,0,1.47-.4,1.41,1.41,0,0,0,.51-1.17A1.56,1.56,0,0,0,4,.46l-.87,0A1.31,1.31,0,0,0,2.61.5a.33.33,0,0,0-.15.31V3.7Zm-1,3.55a.64.64,0,0,0,.19.52,1.38,1.38,0,0,0,.82.16A2.67,2.67,0,0,0,5.11,7.5,1.69,1.69,0,0,0,5.7,6c0-1.21-.88-1.81-2.62-1.81H2.46Z" transform="translate(0 0.26)"/><path class="cls-1" d="M9.36,1q0-.78-1.08-.78V-.08H11.7V.17c-.72,0-1.09.26-1.09.78v4.3a5,5,0,0,0,.22,1.61,1.56,1.56,0,0,0,.68.87A2.35,2.35,0,0,0,12.75,8a2.27,2.27,0,0,0,1.57-.47A2,2,0,0,0,15,6.46,7.83,7.83,0,0,0,15.07,5V1c0-.52-.39-.78-1.16-.78V-.08h2.86V.17c-.78,0-1.16.26-1.16.78V5a8,8,0,0,1-.1,1.41,2.53,2.53,0,0,1-.42,1.05,2.58,2.58,0,0,1-1,.8,3.52,3.52,0,0,1-1.57.33,3.12,3.12,0,0,1-2.42-.82,3.81,3.81,0,0,1-.74-2.59Z" transform="translate(0 0.26)"/><path class="cls-1" d="M19.76,7.37c0,.52.4.77,1.21.77v.25H17.29V8.14c.81,0,1.21-.25,1.21-.77V1c0-.52-.4-.78-1.21-.78V-.08H21V.17c-.81,0-1.21.26-1.21.78Z" transform="translate(0 0.26)"/><path class="cls-1" d="M21.4,8.39V8.14c.73,0,1.09-.25,1.09-.77V1c0-.52-.36-.78-1.09-.78V-.08h3.42V.17q-1.08,0-1.08.78V7.37c0,.33.41.5,1.23.5a10.86,10.86,0,0,0,1.6-.09,2.12,2.12,0,0,0,1-.46,2.8,2.8,0,0,0,.74-1.16h.32L28,8.39Z" transform="translate(0 0.26)"/><path class="cls-1" d="M29.11,8.39V8.14c.72,0,1.08-.25,1.08-.77V1q0-.78-1.08-.78V-.08h3.18A7,7,0,0,1,35,.39a3.64,3.64,0,0,1,1.75,1.42,4.4,4.4,0,0,1,.61,2.38,4.37,4.37,0,0,1-.56,2.25,3.62,3.62,0,0,1-1.67,1.45,6.59,6.59,0,0,1-2.75.5Zm2.35-1.14a.56.56,0,0,0,.58.62,4.14,4.14,0,0,0,3-1,3.53,3.53,0,0,0,1-2.7,4.05,4.05,0,0,0-.49-2.08A3.08,3.08,0,0,0,34.18.83a4.62,4.62,0,0,0-2-.43,1,1,0,0,0-.58.1c-.08.06-.12.25-.12.55Z" transform="translate(0 0.26)"/><path class="cls-1" d="M42.2,8.39V8.14c.72,0,1.08-.25,1.08-.77V1q0-.78-1.08-.78V-.08h6.54V1.74h-.26A1.85,1.85,0,0,0,48,.81a1.26,1.26,0,0,0-1-.37h-2a.56.56,0,0,0-.39.14.47.47,0,0,0-.15.37V3.7h1.74a2,2,0,0,0,1.12-.27,1.08,1.08,0,0,0,.41-1h.26v3h-.26a1.08,1.08,0,0,0-.41-1,1.91,1.91,0,0,0-1.12-.28H44.54V7.37c0,.33.1.5.31.5H46.5a5.16,5.16,0,0,0,1.06-.09,1.72,1.72,0,0,0,.81-.44,2.88,2.88,0,0,0,.71-1.12h.34l-.56,2.17Z" transform="translate(0 0.26)"/><path class="cls-1" d="M57.2,6.9a5.15,5.15,0,0,0,.5.94.79.79,0,0,0,.68.3v.25H55.23V8.14A1.91,1.91,0,0,0,55.9,8a.32.32,0,0,0,.19-.32,3.57,3.57,0,0,0-.3-1l-.45-1.11H52.11l-.24.66c-.14.34-.24.61-.31.81a1.67,1.67,0,0,0-.11.53c0,.35.29.52.85.52v.25H49.85V8.14a1,1,0,0,0,.8-.52,15.42,15.42,0,0,0,.79-1.71l2.5-6.17h.24ZM52.34,5.1h2.84L53.74,1.59Z" transform="translate(0 0.26)"/><path class="cls-1" d="M59.85,1c0-.52-.35-.78-1-.78V-.08h3.25a4.37,4.37,0,0,1,2.43.57,1.89,1.89,0,0,1,.86,1.68,1.82,1.82,0,0,1-.64,1.48,3,3,0,0,1-1.6.65l2.44,3.14a3,3,0,0,0,.54.51,1.18,1.18,0,0,0,.64.19v.25h-2L61.8,4.46l-.69,0V7.37c0,.52.36.77,1.08.77v.25H58.81V8.14c.69,0,1-.25,1-.77ZM61.11,4a5,5,0,0,0,2.17-.46A1.43,1.43,0,0,0,64,2.17,1.59,1.59,0,0,0,63.46.84,2.23,2.23,0,0,0,62,.4a4.18,4.18,0,0,0-.62,0,.3.3,0,0,0-.23.15,1,1,0,0,0-.06.42Z" transform="translate(0 0.26)"/><path class="cls-1" d="M72.43,8.39H69V8.14c.72,0,1.08-.25,1.08-.77V.46h-.9a3.77,3.77,0,0,0-.87.08.9.9,0,0,0-.52.42,3.15,3.15,0,0,0-.37,1.13h-.28l.08-2.17h7l.08,2.17H74A3.2,3.2,0,0,0,73.64,1,1,1,0,0,0,73.1.54a3.77,3.77,0,0,0-.87-.08h-.88V7.37c0,.52.36.77,1.08.77Z" transform="translate(0 0.26)"/><path class="cls-1" d="M80.91,3.8V1q0-.78-1.11-.78V-.08h3.45V.17c-.73,0-1.09.26-1.09.78V7.37c0,.52.36.77,1.09.77v.25H79.8V8.14c.74,0,1.11-.25,1.11-.77v-3H77.17V7.37c0,.52.36.77,1.08.77v.25H74.81V8.14c.72,0,1.09-.25,1.09-.77V1c0-.52-.37-.78-1.09-.78V-.08h3.44V.17q-1.08,0-1.08.78V3.8Z" transform="translate(0 0.26)"/><path class="cls-2" d="M10.71,19.15H8.89V19c.39,0,.58-.14.58-.42V14.94H9a2.52,2.52,0,0,0-.46,0,.51.51,0,0,0-.28.23,1.68,1.68,0,0,0-.19.6H7.91l0-1.16h3.7l0,1.16h-.16a1.5,1.5,0,0,0-.19-.6.51.51,0,0,0-.28-.23,2.52,2.52,0,0,0-.46,0h-.47V18.6c0,.28.19.42.58.42Z" transform="translate(0 0.26)"/><path class="cls-2" d="M15.18,16.71V15.2c0-.28-.19-.41-.58-.41v-.14h1.82v.14c-.38,0-.57.13-.57.41v3.4q0,.42.57.42v.13H14.6V19c.39,0,.58-.14.58-.42V17h-2V18.6q0,.42.57.42v.13H12V19q.57,0,.57-.42V15.2c0-.28-.19-.41-.57-.41v-.14h1.82v.14c-.38,0-.57.13-.57.41v1.51Z" transform="translate(0 0.26)"/><path class="cls-2" d="M16.65,19.15V19q.57,0,.57-.42V15.2c0-.28-.19-.41-.57-.41v-.14h3.47v1H20a.84.84,0,0,0-.24-.49.65.65,0,0,0-.5-.2H18.18A.38.38,0,0,0,18,15a.26.26,0,0,0-.08.2v1.46h.92a1.11,1.11,0,0,0,.6-.14.57.57,0,0,0,.22-.52h.14v1.6h-.14a.57.57,0,0,0-.22-.52,1,1,0,0,0-.6-.14h-.92V18.6c0,.18.06.27.17.27h.87a2.86,2.86,0,0,0,.56,0,1,1,0,0,0,.44-.24A1.71,1.71,0,0,0,20.3,18h.18l-.3,1.15Z" transform="translate(0 0.26)"/><path class="cls-2" d="M23.64,15.57a2.19,2.19,0,0,0-.31-.58.47.47,0,0,0-.41-.2v-.14h1.75v.14a.9.9,0,0,0-.4.05.2.2,0,0,0-.1.19,4,4,0,0,0,.31.81l.95,2.22.93-2.42a1.66,1.66,0,0,0,.16-.57c0-.19-.16-.28-.49-.28v-.14h1.35v.14q-.36,0-.54.48c-.24.58-.5,1.27-.81,2.06s-.54,1.44-.71,1.91h-.09Z" transform="translate(0 0.26)"/><path class="cls-2" d="M29,18.6c0,.28.22.42.65.42v.13h-2V19c.43,0,.65-.14.65-.42V15.2c0-.28-.22-.41-.65-.41v-.14h2v.14c-.43,0-.65.13-.65.41Z" transform="translate(0 0.26)"/><path class="cls-2" d="M30,17.78h.15a2,2,0,0,0,.52.86,1.14,1.14,0,0,0,.84.34.75.75,0,0,0,.77-.76.67.67,0,0,0,0-.24.83.83,0,0,0-.32-.49A6.68,6.68,0,0,0,31.2,17a3.62,3.62,0,0,1-.75-.58,1.09,1.09,0,0,1-.24-.73,1,1,0,0,1,.34-.81,1.14,1.14,0,0,1,.82-.32,1.85,1.85,0,0,1,.59.11,1.67,1.67,0,0,0,.36.12c.09,0,.17-.08.21-.23h.14L32.82,16h-.17a2,2,0,0,0-.24-.58A1.41,1.41,0,0,0,32,15a1,1,0,0,0-.54-.15A.76.76,0,0,0,31,15a.62.62,0,0,0-.18.48c0,.28.23.57.69.85s.73.47.9.58a1.53,1.53,0,0,1,.41.43A1.13,1.13,0,0,1,33,18a1.23,1.23,0,0,1-.37.87,1.37,1.37,0,0,1-1,.37,1.32,1.32,0,0,1-.36,0,2.45,2.45,0,0,1-.37-.11,1.13,1.13,0,0,0-.29-.06c-.12,0-.18.07-.2.21h-.14Z" transform="translate(0 0.26)"/><path class="cls-2" d="M34.83,18.6c0,.28.22.42.65.42v.13h-2V19c.43,0,.65-.14.65-.42V15.2c0-.28-.22-.41-.65-.41v-.14h2v.14c-.43,0-.65.13-.65.41Z" transform="translate(0 0.26)"/><path class="cls-2" d="M40.11,16.91a2.71,2.71,0,0,1-.15.91,2.23,2.23,0,0,1-.43.75,1.94,1.94,0,0,1-.68.49,2.13,2.13,0,0,1-.88.18A2,2,0,0,1,36.9,19a2,2,0,0,1-.78-.82,2.42,2.42,0,0,1-.29-1.22,2.65,2.65,0,0,1,.26-1.21,2.18,2.18,0,0,1,.75-.84,2.12,2.12,0,0,1,1.13-.3,2,2,0,0,1,1.08.3,2,2,0,0,1,.78.83A2.53,2.53,0,0,1,40.11,16.91Zm-3.54,0A2.68,2.68,0,0,0,37,18.44,1.2,1.2,0,0,0,38,19a1.27,1.27,0,0,0,.82-.36,1.78,1.78,0,0,0,.45-.78,3.75,3.75,0,0,0,.13-.95,3.51,3.51,0,0,0-.15-1.05,1.56,1.56,0,0,0-.45-.76,1.11,1.11,0,0,0-.8-.29C37,14.87,36.57,15.57,36.57,16.91Z" transform="translate(0 0.26)"/><path class="cls-2" d="M44.37,19.24h-.1l-2.91-3.73V18.6c0,.28.21.42.64.42v.13H40.44V19q.63,0,.63-.42V15.16l0-.08a1.25,1.25,0,0,0-.26-.24.64.64,0,0,0-.32-.05v-.14h1.12l2.52,3.28V15.2c0-.28-.21-.41-.64-.41v-.14H45v.14c-.42,0-.63.13-.63.41Z" transform="translate(0 0.26)"/><path class="cls-2" d="M48.31,16.3A9.18,9.18,0,0,0,47.8,15a.5.5,0,0,0-.43-.25v-.14H49v.14h-.1a.59.59,0,0,0-.26.07s-.07.09-.07.2a.82.82,0,0,0,.05.17c0,.09,0,.14,0,.15l.92,2.48.7-1.91c-.17-.45-.28-.73-.34-.86a.5.5,0,0,0-.21-.24.75.75,0,0,0-.33-.06v-.14h1.74v.14c-.33,0-.49.06-.49.2a.74.74,0,0,0,0,.18l0,.11,1,2.6.78-2.22a4.15,4.15,0,0,0,.13-.58.26.26,0,0,0,0-.14q-.08-.13-.42-.15v-.14h1.3v.14A.56.56,0,0,0,53,15a1.31,1.31,0,0,0-.14.3l-1.34,4h-.09l-1-2.89-1,2.89h-.09Z" transform="translate(0 0.26)"/><path class="cls-2" d="M53.59,19.15V19c.39,0,.58-.14.58-.42V15.2c0-.28-.19-.41-.58-.41v-.14h3.47v1h-.13a1,1,0,0,0-.24-.49.68.68,0,0,0-.51-.2H55.12a.38.38,0,0,0-.21.07.26.26,0,0,0-.08.2v1.46h.93a1.09,1.09,0,0,0,.59-.14.57.57,0,0,0,.22-.52h.14v1.6h-.14a.57.57,0,0,0-.22-.52,1,1,0,0,0-.59-.14h-.93V18.6c0,.18.06.27.17.27h.88a3,3,0,0,0,.56,0,.94.94,0,0,0,.43-.24,1.58,1.58,0,0,0,.37-.59h.18l-.3,1.15Z" transform="translate(0 0.26)"/><path class="cls-2" d="M63.82,16h-.15a1.48,1.48,0,0,0-1.45-1.17,1.35,1.35,0,0,0-.87.28,1.67,1.67,0,0,0-.52.76,3.44,3.44,0,0,0-.16,1.1,2.3,2.3,0,0,0,.43,1.42,1.45,1.45,0,0,0,1.22.57,1.66,1.66,0,0,0,.74-.14.38.38,0,0,0,.16-.13.48.48,0,0,0,0-.21v-1a.89.89,0,0,0-.1-.47c-.07-.09-.23-.13-.48-.13v-.14h1.68v.14c-.2,0-.33,0-.38.13a.9.9,0,0,0-.09.47v1.29a3.76,3.76,0,0,1-.79.33,2.88,2.88,0,0,1-.86.15A2.41,2.41,0,0,1,61.12,19a2,2,0,0,1-.87-.78,2.37,2.37,0,0,1-.34-1.28,2.53,2.53,0,0,1,.29-1.2,2.12,2.12,0,0,1,.8-.85,2.16,2.16,0,0,1,1.15-.31,2.94,2.94,0,0,1,.72.11,3,3,0,0,0,.48.12.28.28,0,0,0,.28-.23h.14Z" transform="translate(0 0.26)"/><path class="cls-2" d="M65.92,18.6c0,.28.21.42.64.42v.13h-2V19c.42,0,.64-.14.64-.42V15.2c0-.28-.22-.41-.64-.41v-.14h2v.14c-.43,0-.64.13-.64.41Z" transform="translate(0 0.26)"/><path class="cls-2" d="M67.54,15.57a2.52,2.52,0,0,0-.31-.58.47.47,0,0,0-.41-.2v-.14h1.74v.14a.85.85,0,0,0-.39.05.2.2,0,0,0-.1.19,4.36,4.36,0,0,0,.3.81l1,2.22.93-2.42a1.66,1.66,0,0,0,.16-.57c0-.19-.16-.28-.49-.28v-.14h1.35v.14c-.24,0-.43.16-.54.48-.24.58-.51,1.27-.81,2.06s-.54,1.44-.71,1.91h-.09Z" transform="translate(0 0.26)"/><path class="cls-2" d="M71.52,19.15V19q.57,0,.57-.42V15.2c0-.28-.19-.41-.57-.41v-.14H75v1h-.14a.84.84,0,0,0-.24-.49.65.65,0,0,0-.5-.2H73.05a.35.35,0,0,0-.21.07.26.26,0,0,0-.08.2v1.46h.92a1.11,1.11,0,0,0,.6-.14A.6.6,0,0,0,74.5,16h.13v1.6H74.5a.6.6,0,0,0-.22-.52,1,1,0,0,0-.6-.14h-.92V18.6c0,.18.06.27.17.27h.87a2.86,2.86,0,0,0,.56,0,1,1,0,0,0,.44-.24,1.71,1.71,0,0,0,.37-.59h.18l-.3,1.15Z" transform="translate(0 0.26)"/><rect class="cls-3" y="11.24" width="83.23" height="0.55"/></svg>