<svg xmlns="http://www.w3.org/2000/svg" width="141.965" height="141.965" viewBox="0 0 141.965 141.965"><defs><style>.a{fill:#aa1d45;}</style></defs><path class="a" d="M145.4,437a10.4,10.4,0,1,0,10.4,10.4A10.409,10.409,0,0,0,145.4,437Zm0,16.637a6.239,6.239,0,1,1,6.239-6.239A6.246,6.246,0,0,1,145.4,453.637Z" transform="translate(-97.568 -315.831)"/><ellipse class="a" cx="2" cy="2.5" rx="2" ry="2.5" transform="translate(46 128.965)"/><ellipse class="a" cx="2" cy="2.5" rx="2" ry="2.5" transform="translate(117 128.965)"/><path class="a" d="M402.4,437a10.4,10.4,0,1,0,10.4,10.4A10.409,10.409,0,0,0,402.4,437Zm0,16.637a6.239,6.239,0,1,1,6.239-6.239A6.246,6.246,0,0,1,402.4,453.637Z" transform="translate(-283.308 -315.831)"/><path class="a" d="M34.339,100.638l15.137-8.583H83.46a10.416,10.416,0,0,0,10.189-8.318h21.658a14.549,14.549,0,0,0,14.1-10.95L141.9,23.945a2.08,2.08,0,0,0-2.015-2.6H37.782L36.722,17.2A22.857,22.857,0,0,0,14.557,0H6.239a6.239,6.239,0,1,0,0,12.477h8.318a10.388,10.388,0,0,1,10.076,7.816L40.6,82.742l-12.416,7.04a14.556,14.556,0,0,0,7.164,27.228h92.055a6.239,6.239,0,1,0,0-12.477H35.353a2.079,2.079,0,0,1-1.013-3.895Zm77.082-40.469H98.642l.78-15.25h14.339Zm6.547-15.25h14.275l-3.9,15.25H115.629Zm-7.186,19.409-2.34,15.25H97.65l.78-15.25ZM94.477,60.169h-12.8l-.78-15.25H95.257ZM99.634,40.76l.78-15.25h16.325L114.4,40.76Zm-4.165,0H80.683l-.78-15.25H96.249Zm-18.951,0H68.287a2.08,2.08,0,1,0,0,4.159h8.444l.78,15.25H64.732L59.413,25.509H75.738ZM60.525,60.169H47.71l-3.9-15.25H58.184Zm.638,4.159,2.34,15.25H52.675l-3.9-15.25Zm6.548,15.25-2.34-15.25H77.724l.78,15.25Zm14.958,0-.78-15.25H94.265l-.78,15.25Zm42.711-7.822a10.393,10.393,0,0,1-10.074,7.822h-2.656l2.34-15.25H127.28Zm7.927-31h-14.7l2.34-15.25h16.261Zm-78.1-15.25,2.34,15.25h-14.8l-3.9-15.25ZM14.557,8.318H6.239a2.08,2.08,0,0,1,0-4.159h8.318A18.7,18.7,0,0,1,26.241,8.25l-2.965,2.965a14.54,14.54,0,0,0-8.719-2.9Zm20.8,100.374h92.055a2.08,2.08,0,0,1,0,4.159H35.353A10.4,10.4,0,0,1,30.239,93.4l13.8-7.825a2.08,2.08,0,0,0,.989-2.324L28.662,19.263a14.5,14.5,0,0,0-2.444-5.108l2.966-2.966a18.652,18.652,0,0,1,3.508,7.044l16.353,63.94a2.08,2.08,0,0,0,2.015,1.564H89.342A6.25,6.25,0,0,1,83.46,87.9H48.928a2.078,2.078,0,0,0-1.026.271L32.289,97.02a6.238,6.238,0,0,0,3.063,11.672Z"/></svg>