<svg xmlns="http://www.w3.org/2000/svg" width="143.158" height="144.224" viewBox="0 0 143.158 144.224"><defs><style>.a{fill:#aa1d45;}</style></defs><g transform="translate(0 0)"><path class="a" d="M4,195.054a2.113,2.113,0,1,1,0-4.225H13.54v-6.336a2.113,2.113,0,0,1,4.225,0v6.336H25.19v-24.4a2.731,2.731,0,0,1,2.749-2.772H49.6a3.253,3.253,0,0,1,3.112,3.439v91.245a3.253,3.253,0,0,1-3.112,3.439H5a3.292,3.292,0,0,1-3.112-3.439v-21.9a2.113,2.113,0,1,1,4.225,0v21.119H48.489V167.884H29.415V173.2h7.136a2.113,2.113,0,0,1,0,4.225H29.416V185.1h6.4a2.113,2.113,0,0,1,0,4.225h-6.4V207.99A2.112,2.112,0,0,1,27.3,210.1H6.116v16.512a2.113,2.113,0,0,1-4.225,0V208.649a2.813,2.813,0,0,1,2.838-2.772H13.54V195.054Zm13.762,10.823H25.19V195.054H17.766v10.823Z" transform="translate(90.443 -117.558)"/><path class="a" d="M134.867,97.713V25.954h-4.115a3.485,3.485,0,0,1-3.482-3.479V22.28H116.323a4.092,4.092,0,0,1-2.463-.806,2.121,2.121,0,0,1-.342-.285c-.024-.025-.045-.051-.067-.076a3.3,3.3,0,0,1-.989-2.328V7.169a3.7,3.7,0,0,1,3.861-3.5H127.27V3.479A3.485,3.485,0,0,1,130.751,0H157.62A3.485,3.485,0,0,1,161.1,3.479v.194h59.5a3.7,3.7,0,0,1,3.869,3.5V18.784a3.7,3.7,0,0,1-3.869,3.5H210.552v7.283l7.815,8.307H220.3a3.356,3.356,0,0,1,3.353,3.351V51.1a3.36,3.36,0,0,1-3.353,3.359h-23.71a3.364,3.364,0,0,1-3.361-3.359V41.22a3.36,3.36,0,0,1,3.361-3.351h1.923l7.816-8.307V22.28H161.1v.194a3.485,3.485,0,0,1-3.482,3.479H153.5v84.423h6.621a5.314,5.314,0,0,1,5.311,5.3V129.46h2.318a7.4,7.4,0,0,1,7.4,7.386v3.85a3.537,3.537,0,0,1-3.539,3.527H116.089a3.533,3.533,0,0,1-3.53-3.527v-3.85a7.4,7.4,0,0,1,7.39-7.386h2.318V115.68a5.318,5.318,0,0,1,5.319-5.3h7.281V97.713ZM116.687,7.9v7.268L124.173,7.9Zm10.582,2.882-7.491,7.273h7.491Zm92.979,7.271V7.9h-1.171L208.621,18.054Zm-22.8,24.041v8.138h21.974V42.095Zm6.861-4.225h8.253l-4.127-4.386Zm8.7-29.971h-19.2l9.6,9.323ZM190.361,18.054H198.2l-9.6-9.323L179,18.054ZM183.4,7.9H164.2l9.6,9.323ZM165.1,18.054h3.493L161.1,10.783v7.271ZM127.586,114.6a1.088,1.088,0,0,0-1.094,1.079V129.46h12.3a2.113,2.113,0,1,1,0,4.225H119.948a3.166,3.166,0,0,0-3.164,3.161V140h54.143v-3.152a3.17,3.17,0,0,0-3.173-3.161H149.023a2.113,2.113,0,1,1,0-4.225h12.188V115.681a1.1,1.1,0,0,0-1.086-1.079h-32.54Zm12.345-75.986,9.349,9.584V29.032Zm6.449-12.662h-7.288v7.471Zm-7.288,17.853V62.974l9.349-9.584Zm.839,24.358,9.349,9.584V58.581Zm-.839,5.191V92.523l9.349-9.584Zm.839,24.359,9.349,9.584V88.131Zm-.839,5.191v7.471h7.288Zm-2.113-81.177h19.9V4.225H131.5v17.5Z" transform="translate(-112.462 0)"/><path class="a" d="M34.84,354.1a3.158,3.158,0,0,1,3.152-3.158H63.934a3.162,3.162,0,0,1,3.16,3.158v8.617a3.162,3.162,0,0,1-3.16,3.158H37.992a3.158,3.158,0,0,1-3.152-3.158Zm18.236,7.55h9.793v-6.482H53.075v6.482Zm-14.01,0H48.85v-6.482H39.066v6.482Z" transform="translate(66.783 -252.09)"/><path class="a" d="M37.992,426.371H63.934a3.162,3.162,0,0,1,3.16,3.158v8.617a3.162,3.162,0,0,1-3.16,3.157H37.992a3.158,3.158,0,0,1-3.152-3.157v-8.617a3.158,3.158,0,0,1,3.152-3.158Zm15.084,10.707h9.793V430.6H53.075v6.482Zm-14.01,0H48.85V430.6H39.066v6.482Z" transform="translate(66.783 -306.268)"/></g></svg>