<svg xmlns="http://www.w3.org/2000/svg" width="146.204" height="164.881" viewBox="0 0 146.204 164.881"><defs><style>.a{fill:#aa1d45;}</style></defs><path class="a" d="M173.717,312.606a4.523,4.523,0,0,1,3.24-1.367h0a4.548,4.548,0,0,1,3.254,1.37,2.415,2.415,0,1,0,3.436-3.395,9.369,9.369,0,0,0-13.376,0,2.415,2.415,0,1,0,3.442,3.389Z" transform="translate(-124.309 -207.734)"/><path class="a" d="M304.1,312.605a4.528,4.528,0,0,1,6.485,0,2.415,2.415,0,0,0,3.443-3.389,9.359,9.359,0,0,0-13.37,0,2.415,2.415,0,0,0,3.443,3.389Z" transform="translate(-212.701 -207.734)"/><path class="a" d="M243.481,408.279a2.415,2.415,0,0,0-3.414-3.417,7.151,7.151,0,0,1-10.086,0,2.415,2.415,0,1,0-3.409,3.422,11.988,11.988,0,0,0,16.909,0Z" transform="translate(-162.465 -274.004)"/><path class="a" d="M164.385,79.312A74.352,74.352,0,0,0,159.127,52.9a25.824,25.824,0,0,0,4.506-4.109,30.152,30.152,0,0,0,7.06-19.83,30.153,30.153,0,0,0-7.06-19.829C158.458,3.157,151.114,0,142.4,0H135.1a27.634,27.634,0,0,0-25.4,15.867A65.777,65.777,0,0,0,84.96,17.7,60.285,60.285,0,0,0,61.179,30.264c-9.49,8.2-20.75,23.318-21.361,49.048A13.224,13.224,0,0,0,29,92.294v13.035a13.221,13.221,0,0,0,13.21,13.2h8.507a25.243,25.243,0,0,0,.819,3.917,37.72,37.72,0,0,0,6.032,11.659,2.42,2.42,0,0,0,3.914-2.848,33.46,33.46,0,0,1-5.289-10.132,17.743,17.743,0,0,1-.778-4.76,2.46,2.46,0,0,0,.014-.254,2.433,2.433,0,0,0-.018-.284l.018-25.255h0v-4h2.864c9.965,0,13.874-9.127,16.209-14.581.4-.932.776-1.812,1.127-2.528.371-.759.718-.822.849-.845a2.885,2.885,0,0,1,2.115.858c10.031,9.467,22.523,15.067,37.128,16.643a2.419,2.419,0,1,0,.52-4.811c-13.531-1.46-25.079-6.625-34.32-15.346a7.563,7.563,0,0,0-6.3-2.107,6.031,6.031,0,0,0-4.337,3.48c-.4.824-.805,1.76-1.23,2.751-2.729,6.371-5.5,11.646-11.758,11.646H55.429V75.249c-.013-3.159,2.8-20.467,16.451-26.5a16.3,16.3,0,0,0,5.4-4.268A19.745,19.745,0,0,1,79.09,42.7c7.028-5.664,17.333-7.866,28.469-6.134a28.426,28.426,0,0,0,8.285,13.795L115.3,60.429a2.908,2.908,0,0,0,1.159,2.612,2.8,2.8,0,0,0,1.661.532,3.546,3.546,0,0,0,1.255-.243,2.485,2.485,0,0,0,.252-.112l10.33-5.3h12.233a38.943,38.943,0,0,1,6.588,19.916v3.9H126.934a2.419,2.419,0,1,0,0,4.839h21.841v26.411a44.7,44.7,0,0,1-.784,8.146c-2.664,9.4-13.58,21.223-25.907,28.309a10.1,10.1,0,0,0-8.549-4.729H95.927a10.112,10.112,0,0,0-9.587,6.927A68.943,68.943,0,0,1,68.768,139.46a2.42,2.42,0,1,0-3.333,3.51,71.873,71.873,0,0,0,20.6,13.844,10.111,10.111,0,0,0,9.894,8.068h17.608a10.111,10.111,0,0,0,9.8-7.666h26.518a14.683,14.683,0,0,0,14.561-14.77v-24.14A13.224,13.224,0,0,0,175.2,105.329V92.294a13.224,13.224,0,0,0-10.818-12.982ZM50.7,90.555l-.016,23.082H42.342a8.359,8.359,0,0,1-8.35-8.349V92.277a8.359,8.359,0,0,1,8.35-8.349H50.7Zm56.013-59C94.832,30.067,83.8,32.686,76.05,38.93a23.41,23.41,0,0,0-2.3,2.242A12.411,12.411,0,0,1,69.969,44.3l-.031.013C53.958,51.364,50.57,70.828,50.587,75.258v3.833H44.668c.531-18.891,7.3-34.472,19.678-45.168A57.8,57.8,0,0,1,107.9,20.538a30.213,30.213,0,0,0-1.188,11.019Zm6.795,128.348H95.94a5.237,5.237,0,1,1,0-10.474h17.569a5.237,5.237,0,1,1,0,10.474ZM129.848,53.129h-.176a3.449,3.449,0,0,0-1.91.495l-7.493,3.848.416-7.666a2.474,2.474,0,0,0-.711-2.154c-.047-.047-.1-.093-.147-.136a24.185,24.185,0,0,1-6.778-27.1C115.79,12.953,123,4.977,135.03,4.977h7.277c16.081,0,23.405,12.48,23.405,24.076a25.286,25.286,0,0,1-5.865,16.632c-4.22,4.87-10.285,7.445-17.54,7.445H129.848Zm17.684,4.425a27.927,27.927,0,0,0,7.243-2.16,69.619,69.619,0,0,1,4.633,23.7H153.5V77.782q0-.057,0-.114a43.468,43.468,0,0,0-5.967-20.114Zm11.914,84.785a9.819,9.819,0,0,1-9.7,9.914h-23.2c12.564-7.811,23.133-19.792,25.989-29.869a25.09,25.09,0,0,0,.644-3.916h6.267Zm10.765-37.051a8.359,8.359,0,0,1-8.35,8.349h-8.37c.007-.271.01-.51.01-.706v-29h8.359a8.359,8.359,0,0,1,8.35,8.349Z" transform="translate(-29 0)"/><path class="a" d="M364.226,82.984a2.415,2.415,0,0,0-2.415,2.415V96.846a2.415,2.415,0,0,0,4.831,0V85.4A2.415,2.415,0,0,0,364.226,82.984Z" transform="translate(-254.635 -56.26)"/><path class="a" d="M364.226,45.448a2.422,2.422,0,1,0,2.415,2.429v-.027A2.4,2.4,0,0,0,364.226,45.448Z" transform="translate(-254.635 -30.812)"/></svg>