<svg xmlns="http://www.w3.org/2000/svg" width="48.097" height="39.93" viewBox="0 0 48.097 39.93"><defs><style>.a{fill:#aa1d45;}</style></defs><path class="a" d="M31.766,6.2q-.148,8.758,6.457,16.773a39.17,39.17,0,0,0,10.465,8.98,8.06,8.06,0,0,0,2.672,1.188q2.227,0,3.414-3.191Q43.047,22.3,42.3,13.691q-.3-2.375,4.453-7.125,2.82-3.191,2.82-5.715,0-3.117-3.6-5.381A14.685,14.685,0,0,0,38-6.793a13.2,13.2,0,0,0-3.562.52Q32.063-2.637,31.766,6.2ZM6.68,6.2q-.148,8.758,6.457,16.773A39.17,39.17,0,0,0,23.6,31.949a8.06,8.06,0,0,0,2.672,1.188q2.227,0,3.414-3.191Q17.961,22.3,17.219,13.691q-.3-2.375,4.453-7.125,2.82-3.191,2.82-5.715,0-3.117-3.6-5.381a14.685,14.685,0,0,0-7.979-2.264,13.2,13.2,0,0,0-3.562.52Q6.977-2.637,6.68,6.2Z" transform="translate(54.773 33.137) rotate(180)"/></svg>