<svg xmlns="http://www.w3.org/2000/svg" width="140.727" height="147.834" viewBox="0 0 140.727 147.834"><defs><style>.a{fill:#aa1d45;}</style></defs><path class="a" d="M24.687,78.21A2.112,2.112,0,0,1,22.575,76.1V17.512a2.112,2.112,0,0,1,4.224,0V76.1A2.112,2.112,0,0,1,24.687,78.21Z" transform="translate(17.313 12.885)"/><path class="a" d="M114.053,121.4a10.3,10.3,0,0,1-6.457-2.285c-.727-.583-1.479-1.166-2.207-1.73a2.113,2.113,0,1,1,2.583-3.344c.748.579,1.517,1.179,2.266,1.776a6.037,6.037,0,0,0,6.514.735,6.125,6.125,0,0,0,3.551-5.633V12.467a6.125,6.125,0,0,0-3.551-5.633,6.034,6.034,0,0,0-6.514.733A126.865,126.865,0,0,1,45.929,34.5a124.687,124.687,0,0,1-15.013.9H11.864a3.954,3.954,0,0,0-3.95,3.95V84.048A3.954,3.954,0,0,0,11.864,88H30.916c3.168,0,6.277.116,9.245.344,1.812.12,3.764.308,5.779.56a126.061,126.061,0,0,1,25.722,5.813,2.112,2.112,0,1,1-1.356,4,122.082,122.082,0,0,0-24.871-5.627c-1.95-.241-3.821-.422-5.578-.541-2.919-.224-5.838-.332-8.941-.332H11.864A8.183,8.183,0,0,1,3.69,84.042V39.355a8.183,8.183,0,0,1,8.174-8.174H30.916a120.263,120.263,0,0,0,14.508-.872A122.647,122.647,0,0,0,107.6,4.27a10.44,10.44,0,0,1,16.929,8.2v98.448A10.5,10.5,0,0,1,114.053,121.4Z" transform="translate(-3.69 -2.008)"/><path class="a" d="M49.788,56.174a2.127,2.127,0,0,1-1.027-.266c-2.024-1.13-4.051-2.192-6.026-3.168a2.116,2.116,0,0,1,1.859-3.8c2.042,1,4.136,2.1,6.225,3.261a2.112,2.112,0,0,1-1.031,3.958Z" transform="translate(38.414 49.945)"/><path class="a" d="M61.012,63.854a2.112,2.112,0,1,1,0-4.224,17.778,17.778,0,1,0,0-35.555,2.112,2.112,0,0,1,0-4.223,22,22,0,1,1,0,44Z" transform="translate(57.713 17.836)"/><path class="a" d="M34.351,104.567H20.56a6.11,6.11,0,0,1-6.1-5.53l-5.325-54a2.112,2.112,0,1,1,4.2-.422l5.325,54a1.9,1.9,0,0,0,1.9,1.719h13.79a1.9,1.9,0,0,0,1.838-2.421L32.752,85.6a44.218,44.218,0,0,1-1.618-13.074l.722-27.583a2.112,2.112,0,0,1,2.112-2.057h.057a2.112,2.112,0,0,1,2.055,2.167l-.722,27.583a40.061,40.061,0,0,0,1.464,11.828l3.441,12.316a6.125,6.125,0,0,1-5.912,7.79Z" transform="translate(2.352 43.267)"/><path class="a" d="M27.878,66.119H27.77l-6.125-.152A2.112,2.112,0,0,1,19.585,63.8a2.083,2.083,0,0,1,2.165-2.057l5.969.148.49-9.969-6.2-.163a2.112,2.112,0,0,1-2.055-2.167,2.053,2.053,0,0,1,2.167-2.055l6.356.167a4.07,4.07,0,0,1,3.958,4.269l-.5,10.271A4.047,4.047,0,0,1,27.878,66.119Z" transform="translate(13.988 48.625)"/></svg>