<svg xmlns="http://www.w3.org/2000/svg" width="1562.609" height="1029.908" viewBox="0 0 1562.609 1029.908"><defs><style>.a{fill:#aa1d45;}.b,.c,.e{fill:none;}.b,.c{stroke:#aa1d45;}.b{stroke-width:66px;}.c{stroke-width:6px;}.d{stroke:none;}</style></defs><g transform="translate(-194.391 -3211.536)"><path class="a" d="M347.785,724.156s-6.028-.387-11.7,5.282c-5.669,5.641-7.19,16.619-7.19,16.619s6.084-5.669,11.7-6.443c5.669-.746,12.112-1.134,12.112-1.134s-.415,11.311,13.965,12.831c14.325,1.521,38.106-6.8,44.909-3.014s12.057,10.2,25.635,8.3c13.606-1.853,35.867-16.979,47.98-17.726a29.612,29.612,0,0,1,12.913,1.825c2.821-.083,5.559.083,7.853.194a25.023,25.023,0,0,1,18.2,9.43c1.078,1.354-.359,3.817-1.992,2.6a29.527,29.527,0,0,0-18.361-6.166c1.852,5.447,7.217,16.924,22.482,28.344,21.155,15.845,89.1,37,89.1,37s-40.761,3.761-55.859,29.423c-15.1,25.69-12.085,38.521-1.521,66.424,10.59,27.93,24.141,41.508-6.056,52.846-30.171,11.338-37.886,30.032-54.894,23.81-16.979-6.277-32.852-17.007-55.472-10.232-22.676,6.8-17.008,14.187-17.008,14.187s-11.31-1.715-18.693,6.775c-7.3,8.49-6.222,22.62-6.222,22.62S404.2,1008.379,411,1005.5c6.8-2.821,14.739,0,14.739,0a72.741,72.741,0,0,0,.554,7.383,74.233,74.233,0,0,0,3.1,12.167s-5.918.553-11.283,8.462c-5.392,7.964-.885,24.943-.885,24.943s2.268-9.346,8.241-13.881a49.739,49.739,0,0,1,10.979-6.5s.884,2.517,4.562,5.946c3.679,3.373,15.845,3.954,15.845,3.954s-5.669,2.545-6.249,11.587c-.526,9.07,5.116,19.551,5.116,19.551s1.133-8.49,3.982-14.435c2.82-5.946,9.346-9.071,9.346-9.071s13.578,5.946,24.335,2.267c10.758-3.649,16.4-16.4,22.1-15.845,5.614.581,26.575,2.268,36.751-2.543,10.232-4.84,12.748-29.451,28.87-30.862,16.15-1.437,47.287,1.964,57.768-9.623,10.509-11.614-.3-46.707-3.678-59.455-3.4-12.721-4.23-16.952,13.026-16.675,17.283.277,49.251,10.73,60.008,3.954,9.6-6.056,16.951-19.8,18.417-22.648-6.194-13.412-19.661-22.013-32.188-33.931-12.14-11.586-22.593-26.216-27.184-42.475a1.276,1.276,0,0,1,2.323-.968c13.3,21.431,26.519,39.213,45.932,55.555,11.422,9.6,18.03,20.492,17.975,33.738,8.517,13.383,25.69,33.018,54.007,34.511,43.278,2.267,52.348-3.955,70.987,7.356,18.722,11.283,22.98,28.04,15.9,42.753-7.079,14.684-38.825,8.213-60.589,16.979-21.818,8.767-28.9,16.675-28.594,27.4A19.838,19.838,0,0,0,794,1060.975s-2.572,2.019-3.4,10.2c-.885,8.213,6.471,20.684,6.471,20.684a60.531,60.531,0,0,1,3.983-16.454c3.373-8.185,7.659-11.005,7.659-11.005s.582.276,2.793,1.686a41.366,41.366,0,0,0,7.384,2.822,38.792,38.792,0,0,0-1.714,13c.3,7.688,8.213,20.1,8.213,20.1s-.554-12.14,2.543-17.505a35.891,35.891,0,0,1,6.831-8.518,23.552,23.552,0,0,0,9.6,1.41,56.431,56.431,0,0,0,12.5-2.543,14.845,14.845,0,0,0-1.466,12.748c2.572,7.079,12.748,13,12.748,13s-4.259-9.624-1.382-14.436c2.792-4.812,7.355-11.033,7.355-11.033s5.061,1.133,12.14-3.374c7.08-4.536,5.116-24.916,14.435-27.184,9.346-2.268,23.506,1.133,28.87-8.213,5.392-9.347-15.542-47.813-15.292-67.917.3-20.1,24.944-70.489,11.338-78.979-13.578-8.517-36.474,4.231-56.054-3.429-19.523-7.6-23.781-8.462-22.039-27.46a286.226,286.226,0,0,0,1.382-29.976,45.385,45.385,0,0,0,.554-5.115c4.894.386,10.84.691,18.057.691,26.409,0,44.522-1.521,51.3-33.987,6.8-32.466-18.86-64.156-47.51-97.4-28.676-33.184-36.281-83.734-25.717-109.425,10.591-25.662,33.212-42.254,64.958-46.043,31.719-3.761,39.212,12.832,60.368,33.959,21.154,21.182,47.564,12.084,47.564,12.084a213.112,213.112,0,0,1-40.015-26.409c-19.606-16.592-12.831-45.3-30.2-61.142-17.339-15.845-21.874-11.31-21.874-11.31a448.612,448.612,0,0,0,32.466-45.324c16.592-26.41.774-36.226,2.987-57.353,2.268-21.128,29.451-29.451,29.451-29.451s-17.366-1.493-55.113,11.31c-37.719,12.859-23.367,56.634-26.436,80.029-3.014,23.422-17.339,32.465-17.339,32.465A71.714,71.714,0,0,0,889.351,449c-4.508-14.324-15.818-38.493-39.24-40.014-23.34-1.493-34.705,8.351-34.705,8.351s30.17,17.311,50.578,46.016c20.38,28.676-6.028,46.789-29.451,84.536-23.4,37.775-18.86,58.9-13.578,101.156s59.649,89.819,67.917,107.185c8.323,17.366,7.577,30.2-6.028,39.24-8.849,5.918-26.575,5.089-37.941,3.789A63.846,63.846,0,0,0,825.389,766.6c-30.557-24.888-76.407-40.761-99.636-53.205-13.494-7.273-21.432-15.071-25.69-20.325-3.153-1.439-6.388-2.682-9.485-4.038-6.887-2.986-12.473-7.549-17.643-12.914-8.96-9.43-16.4-22.786-19.026-35.589a1.1,1.1,0,0,1,1.853-1.024c9.346,10.565,14.6,24.032,24.336,34.512,9.236,9.927,22.343,12.638,31.11,22.87a24.651,24.651,0,0,0,11.725,1.244c14.712-2.294,27.156-12.5,27.156-12.5s-16.37-3.374-25.5-10.73a38.926,38.926,0,0,1-11.863-15.873s28.289-14.131,44.19-31.137c15.845-16.952,5.669-53.787,5.669-53.787s12.444-13,19.8-36.806c7.329-23.755-9.042-56.026-9.042-56.026s9.6-9.07,9.042-31.138c-.47-18.445-9.623-34.872-12.637-39.794-6.83,5.226-14.656,9.292-23.2,8.987a1.313,1.313,0,0,1-.331-2.571c9.6-3.54,17.919-7.439,25.91-13.3,2.876-4.894,6.831-12.251,8.573-18.445,2.82-10.176-1.162-13.55-10.2-15.818-9.07-2.267-30.032,7.356-30.032,7.356s-9.043-31.691-30.557-40.207c-21.486-8.49-53.2-7.937-53.2-7.937s10.757,4.535,15.873,7.937c5.088,3.4,10.756,15.292,10.756,15.292s-28.289-5.641-44.19-2.24c-15.818,3.4-23.2,22.068-23.2,22.068s-53.786-20.381-63.41-17.007c-9.651,3.4-6.775,13.606-6.775,13.606a30.4,30.4,0,0,0-9.651,14.711c-2.793,9.623-3.983,20.933-1.715,25.5,2.295,4.508,10.4,11.7,10.4,11.7a26,26,0,0,0-1.494,10.177c.359,5.282,1.494,12.057,1.494,12.057s1.521-6.389,4.148-9.43a58.748,58.748,0,0,0,5.309-7.522,84.911,84.911,0,0,0,23.423,5.614c12.8,1.161,19.966-2.987,29.036,6.056,9.043,9.07,19.635,27.571,5.641,31.331-13.937,3.789-22.62,7.577-35.866,2.3-13.191-5.283-19.607-8.711-19.607-8.711s-2.627-7.162-1.88-10.951c.747-3.761,1.88-8.269,1.88-8.269s-7.134,4.894-8.323,9.43a17.407,17.407,0,0,0,0,8.269s-7.882-5.255-14.712-4.121c-6.775,1.107-12.8,9.07-11.67,16.233S546.7,496.568,546.7,496.568s.746,13.937-8.323,20.38c-9.016,6.416-19.606,12.444-28.289,6.8a103.834,103.834,0,0,1-16.233-13.606,20.563,20.563,0,0,0,3.042,13.219c4.12,6.776,13.191,13.578,13.191,13.578s-5.67,1.133-18.861,10.95c-13.218,9.817-19.633,17.754-19.633,17.754s-16.62-18.14-24.169-36.613c-7.522-18.528-19.276-52.873-16.593-70.959,2.627-18.14,1.88-36.226-9.458-42.282-11.282-6.028-24.474-4.508-24.474-4.508s.333-4.535-5.7-7.909c-6.028-3.4-18.86-1.908-18.86-1.908a33.173,33.173,0,0,1,7.19,4.895L385.172,412a60.122,60.122,0,0,0-10.978,4.563c-4.507,2.627-8.3,8.683-8.3,8.683s-8.3-3.816-16.593-3.816-16.233,4.535-16.233,4.535,9.458.387,15.07,2.682c5.67,2.213,10.979,4.867,10.979,4.867a18.4,18.4,0,0,0-4.921,10.2,29.72,29.72,0,0,0,0,11.338s-12.832-3.761-19.607-1.907c-6.8,1.907-13.218,7.936-13.218,7.936s10.177-.774,16.233,1.521a39.886,39.886,0,0,1,10.535,6.029s-5.253,7.522-1.492,15.1c3.76,7.549,30.584,19.606,41.12,33.211,10.591,13.578,16.647,34.318,15.126,59.649-1.493,25.247,1.881,41.508,22.289,66.008,13.357,16.094,25.358,25.5,32.078,30.087,3.65,1.466,7.273,2.9,10.979,4.23,21.127,7.522,42.7,13.551,63.078,22.981.774.359.249,1.492-.526,1.271-24.363-6.36-48.448-13.937-72.121-22.482-2.046,1.383-5.06,3.429-9.374,6.581-11.338,8.323-16.952,13.578-28.677,11.7-11.7-1.908-30.944-36.226-46.817-34.733-15.845,1.522-16.564,7.19-16.564,7.19s-1.162-3.4-9.1-3.788c-7.88-.387-18.085,6.83-18.085,6.83a21.553,21.553,0,0,1,10.951,1.853c6.029,2.627,10.564,8.3,10.564,8.3a16.943,16.943,0,0,0-6.8,3.788c-3.4,3.014-3.014,8.3-3.014,8.3a40.859,40.859,0,0,0-16.98,4.507c-8.683,4.563-10.951,17.394-10.951,17.394s7.19-6.415,12.445-7.576a49.1,49.1,0,0,1,11.338-.719s.747,3.015,2.24,7.191c1.521,4.119,7.937,8.655,7.937,8.655Zm324.652-322.8h0a101.171,101.171,0,0,0-15.32-6.776c-7.189-2.24-11.7-1.852-20.685-.636,1.023-3.484,7.882-3.954,9.983-6.47s.387-4.9-.857-7.91c3.071-.331,10.647,4.009,16.123,8.655,5.393,4.645,10.757,13.136,10.757,13.136ZM614.5,522.342h0c-10.564,23.505-28.567,45.268-51.1,57.768-3.706,2.045-6.471-3.153-3.235-5.531,21.21-15.818,42.253-34.512,51.324-60.146.8-2.324,4.093-3.07,5.42-.719A155.8,155.8,0,0,1,629.3,543.026c7.383-16.15,16.9-31.8,15.1-50.136-.277-2.461,3.1-4.4,5.116-2.931a58.162,58.162,0,0,1,18.832,22.455c3.457-12.859,2.268-25.857.083-39.324-.525-3.207,3.07-5.862,5.669-3.318,8.628,8.573,17.671,16.648,24.916,26.189-3.291-14.242-8.324-27.682-18.03-39.462-1.438-1.8-.166-5.282,2.544-4.314,13.661,4.895,24.557,13.024,34.4,23.035-5.226-15.652-12.692-30.336-18.611-45.767-.47-1.161,1.438-1.963,2.018-.857,9.43,17.366,18.086,35.12,23.4,54.173a2.146,2.146,0,0,1-3.567,2.075c-9.1-9.983-18.75-18.556-30.695-24.252,10.093,15.154,14.544,32.271,17.67,50.578.554,3.208-4.065,5.807-5.669,2.406-6.029-12.914-15.845-22.538-25.967-32.106,1.908,14.905,1.465,29.174-4.674,43.609-1.383,3.236-6.166,1.936-7-.912-2.682-9.43-7-17.255-13.605-23.837-1.383,19.246-12.638,36.032-19.192,54.007-1.134,3.069-5.78,3.568-6.692,0a200.7,200.7,0,0,0-10.84-31.995Zm-100.8,138.627h0c.055-1.023,1.521-1.576,1.992-.553.636,1.3,1.272,2.544,1.825,3.789a.967.967,0,0,1,1.106.082c17.643,13.661,34.788,25.525,56.938,30.779a.994.994,0,0,1-.248,1.936c-16.952-1.3-39.877-9.679-52.459-23.589a75.058,75.058,0,0,0,10.149,12.223c7.217,7.079,14.048,13.356,18.915,22.344a1.525,1.525,0,0,1-2.627,1.549c-10.812-16.122-36.226-26.382-35.591-48.56Z" transform="translate(738.535 3139.43)"/><g class="b" transform="translate(243 3273)"><ellipse class="d" cx="411.5" cy="409.5" rx="411.5" ry="409.5"/><ellipse class="e" cx="411.5" cy="409.5" rx="378.5" ry="376.5"/></g><path class="a" d="M101.775-260.146q-.476-28.06,20.688-53.741,16.17-19.023,33.529-28.773,6.658-3.8,8.561-3.8,7.134,0,10.938,10.225-37.571,24.493-39.949,52.077-.951,7.609,14.268,22.828,9.036,10.225,9.036,18.31,0,9.987-11.533,17.24a47.049,47.049,0,0,1-25.563,7.253,42.3,42.3,0,0,1-11.414-1.665Q102.727-231.848,101.775-260.146Zm-80.374,0q-.476-28.06,20.688-53.741,16.17-19.023,33.529-28.773,6.658-3.8,8.561-3.8,7.134,0,10.938,10.225-37.571,24.493-39.949,52.077-.951,7.609,14.268,22.828,9.036,10.225,9.036,18.31,0,9.987-11.533,17.24a47.049,47.049,0,0,1-25.563,7.253A42.3,42.3,0,0,1,29.962-220.2Q22.353-231.848,21.4-260.146Z" transform="translate(173 3558)"/><g class="c" transform="translate(699 3852)"><ellipse class="d" cx="195" cy="194.5" rx="195" ry="194.5"/><ellipse class="e" cx="195" cy="194.5" rx="192" ry="191.5"/></g></g></svg>