<svg xmlns="http://www.w3.org/2000/svg" width="140.928" height="140.999" viewBox="0 0 140.928 140.999"><defs><style>.a{fill:#aa1d45;}</style></defs><g transform="translate(-2.018 -2.001)"><path class="a" d="M140.932,82.175H4.032a2.014,2.014,0,0,1-2.014-2.014V63.982a2.014,2.014,0,0,1,2.014-2.014h136.9a2.014,2.014,0,0,1,2.014,2.014V80.161A2.014,2.014,0,0,1,140.932,82.175ZM6.047,78.147H138.918V66H6.047Z" transform="translate(0 60.824)"/><path class="a" d="M8.394,38.5A2.014,2.014,0,0,1,6.38,36.486v-5.9a2.014,2.014,0,0,1,4.029,0v5.9A2.014,2.014,0,0,1,8.394,38.5Z" transform="translate(4.424 26.949)"/><path class="a" d="M80.99,126.825H8.394a2.014,2.014,0,0,1-2.014-2.014V97.557a2.014,2.014,0,0,1,4.029,0V122.8H78.975V6.769L10.409,28.61v14.8a2.014,2.014,0,0,1-4.029,0V27.137a2.014,2.014,0,0,1,1.41-1.92l72.6-23.124A2.014,2.014,0,0,1,83,4.013v120.8A2.014,2.014,0,0,1,80.99,126.825Z" transform="translate(4.424)"/><path class="a" d="M8.394,48.451A2.014,2.014,0,0,1,6.38,46.436V40.514a2.014,2.014,0,0,1,4.029,0v5.922A2.014,2.014,0,0,1,8.394,48.451Z" transform="translate(4.424 37.021)"/><path class="a" d="M91.214,108.781H44.434a2.014,2.014,0,0,1-2.014-2.014V21.8a2.014,2.014,0,0,1,2.7-1.9L91.893,36.677a2.014,2.014,0,0,1,1.335,1.9v68.192a2.014,2.014,0,0,1-2.014,2.014Zm-44.766-4.029H89.2V39.99L46.449,24.663Z" transform="translate(40.98 18.041)"/><path class="a" d="M71.988,80.445H50.636a2.014,2.014,0,0,1-2.014-2.014V60.413a12.69,12.69,0,1,1,25.38,0V78.431A2.014,2.014,0,0,1,71.988,80.445ZM52.651,76.417H69.974v-16a8.661,8.661,0,0,0-17.323,0Z" transform="translate(47.27 46.376)"/><path class="a" d="M74.07,38.006H49.953a2.014,2.014,0,1,1,0-4.029H74.07a2.014,2.014,0,1,1,0,4.029Z" transform="translate(46.578 32.433)"/><path class="a" d="M74.07,43.475H49.953a2.014,2.014,0,1,1,0-4.029H74.07a2.014,2.014,0,1,1,0,4.029Z" transform="translate(46.578 37.98)"/><path class="a" d="M44.582,36.511H30.77A2.014,2.014,0,0,1,28.756,34.5V20.684A2.014,2.014,0,0,1,30.77,18.67H44.582A2.014,2.014,0,0,1,46.6,20.684V34.5A2.014,2.014,0,0,1,44.582,36.511Zm-11.8-4.029h9.783V22.7H32.785Z" transform="translate(27.12 16.907)"/><path class="a" d="M28.881,36.511H15.069A2.014,2.014,0,0,1,13.055,34.5V20.684a2.014,2.014,0,0,1,2.014-2.014H28.881A2.014,2.014,0,0,1,30.9,20.684V34.5A2.014,2.014,0,0,1,28.881,36.511Zm-11.8-4.029h9.783V22.7H17.084Z" transform="translate(11.195 16.907)"/><path class="a" d="M44.582,51.545H30.77a2.014,2.014,0,0,1-2.014-2.014V35.714A2.014,2.014,0,0,1,30.77,33.7H44.582A2.014,2.014,0,0,1,46.6,35.714V49.526a2.014,2.014,0,0,1-2.014,2.018Zm-11.8-4.029h9.783V37.729H32.785Z" transform="translate(27.12 32.152)"/><path class="a" d="M28.881,51.545H15.069a2.014,2.014,0,0,1-2.014-2.014V35.714A2.014,2.014,0,0,1,15.069,33.7H28.881A2.014,2.014,0,0,1,30.9,35.714V49.526a2.014,2.014,0,0,1-2.014,2.018Zm-11.8-4.029h9.783V37.729H17.084Z" transform="translate(11.195 32.152)"/><path class="a" d="M44.582,66.575H30.77a2.014,2.014,0,0,1-2.014-2.014V50.748a2.014,2.014,0,0,1,2.014-2.014H44.582A2.014,2.014,0,0,1,46.6,50.748V64.56A2.014,2.014,0,0,1,44.582,66.575Zm-11.8-4.029h9.783V52.763H32.785Z" transform="translate(27.12 47.401)"/><path class="a" d="M28.881,66.575H15.069a2.014,2.014,0,0,1-2.014-2.014V50.748a2.014,2.014,0,0,1,2.014-2.014H28.881A2.014,2.014,0,0,1,30.9,50.748V64.56A2.014,2.014,0,0,1,28.881,66.575Zm-11.8-4.029h9.783V52.763H17.084Z" transform="translate(11.195 47.401)"/></g></svg>