<svg xmlns="http://www.w3.org/2000/svg" width="139.737" height="139.845" viewBox="0 0 139.737 139.845"><defs><style>.a{fill:#aa1d45;}</style></defs><path class="a" d="M130.74,18.1H79.7V5.253A5.259,5.259,0,0,0,74.45,0H65.683A5.259,5.259,0,0,0,60.43,5.253V18.1H9.393a9.206,9.206,0,0,0-9.2,9.2V77.147a9.206,9.206,0,0,0,9.2,9.2H23.421a2.048,2.048,0,0,0,0-4.1H9.393a5.1,5.1,0,0,1-5.1-5.1V27.293a5.1,5.1,0,0,1,5.1-5.1H130.74a5.1,5.1,0,0,1,5.1,5.1V77.148a5.1,5.1,0,0,1-5.1,5.1H32.15a2.048,2.048,0,1,0,0,4.1H50.36v7.108a5.565,5.565,0,0,0,5.559,5.559h.225v5.48a4.475,4.475,0,0,0,4.285,4.464V137.8a2.048,2.048,0,1,0,4.1,0V108.965H75.607v10.812a2.048,2.048,0,0,0,4.1,0V108.955a4.475,4.475,0,0,0,4.285-4.464v-5.48h.225a5.565,5.565,0,0,0,5.559-5.559V86.344H130.74a9.206,9.206,0,0,0,9.2-9.2V27.293a9.206,9.206,0,0,0-9.2-9.2Zm-66.214,0V5.253A1.158,1.158,0,0,1,65.683,4.1H74.45a1.158,1.158,0,0,1,1.157,1.157V18.1H64.527Zm15.366,86.394a.377.377,0,0,1-.377.377h-18.9a.377.377,0,0,1-.377-.377v-5.48H79.892Zm5.784-11.04a1.464,1.464,0,0,1-1.462,1.462H55.919a1.464,1.464,0,0,1-1.462-1.462V86.343H85.676Z" transform="translate(-0.198)"/><path class="a" d="M126.743,96.264h-94.5A2.048,2.048,0,0,0,30.2,98.312v47.763a2.048,2.048,0,0,0,2.048,2.048H151.5a2.048,2.048,0,0,0,2.048-2.048V98.312a2.048,2.048,0,0,0-2.048-2.048H135.472a2.048,2.048,0,0,0,0,4.1h13.979v43.666H34.294V100.361h92.449a2.048,2.048,0,0,0,0-4.1Z" transform="translate(-22.004 -69.973)"/><path class="a" d="M137.753,149.779a2.048,2.048,0,1,0,0-4.1h-9.634a3.277,3.277,0,0,0-3.273,3.273v8.158a3.277,3.277,0,0,0,3.273,3.273H135.7V167h-8.811a2.048,2.048,0,1,0,0,4.1h9.634a3.277,3.277,0,0,0,3.273-3.273v-8.258a3.277,3.277,0,0,0-3.273-3.273h-7.586v-6.511Z" transform="translate(-90.803 -105.895)"/><path class="a" d="M216.356,149.779a2.048,2.048,0,0,0,0-4.1h-10.85a3.258,3.258,0,0,0-3.254,3.254v18.9a3.258,3.258,0,0,0,3.254,3.254h10.85a2.048,2.048,0,0,0,0-4.1H206.349v-6.561h6.158a2.048,2.048,0,1,0,0-4.1h-6.158v-6.561h10.007Z" transform="translate(-147.069 -105.895)"/><path class="a" d="M283.9,145.682a2.048,2.048,0,0,0-2.048,2.048v21.316a2.048,2.048,0,0,0,2.048,2.048h8.153a2.048,2.048,0,0,0,0-4.1h-6.105V147.73A2.048,2.048,0,0,0,283.9,145.682Z" transform="translate(-204.931 -105.895)"/><path class="a" d="M348.4,145.682a2.048,2.048,0,0,0-2.048,2.048v21.316a2.048,2.048,0,0,0,2.048,2.048h8.153a2.048,2.048,0,0,0,0-4.1h-6.105V147.73A2.048,2.048,0,0,0,348.4,145.682Z" transform="translate(-251.813 -105.895)"/><path class="a" d="M278.359,463.027a2.048,2.048,0,0,0-2.048,2.048v9.292a2.048,2.048,0,0,0,4.1,0v-9.292A2.048,2.048,0,0,0,278.359,463.027Z" transform="translate(-200.902 -336.57)"/></svg>