<svg xmlns="http://www.w3.org/2000/svg" width="193.215" height="121.852" viewBox="0 0 193.215 121.852"><defs><style>.a{fill:rgba(243,233,181,0.09);}</style></defs><g transform="translate(-862.768 -123.615)"><path class="a" d="M296.6,341.352q6.384,30.835,12.756,61.659a6.438,6.438,0,1,1,3.326,11.947,5.486,5.486,0,0,1-.853-.066c.689,3.326,1.367,20.064,2.068,23.6a160.237,160.237,0,0,1,143.164-.919c.635-4.77,1.28-19.55,1.926-22.668l-.077.011c-.252.022-.5.044-.755.044a6.438,6.438,0,1,1,.8-12.822l.23.033a3.494,3.494,0,0,1,.569.121l.219.044q.361.115.722.262l.088.044a5.033,5.033,0,0,1,.59.306l.077.044,12.767-61.637a7.833,7.833,0,0,0,7.811-7.855h0a7.841,7.841,0,0,0-3.468-6.509,5.613,5.613,0,0,0-.646-.394,7.277,7.277,0,0,0-1.411-.6,7.967,7.967,0,0,0-4.672,0,7.023,7.023,0,0,0-1.411.6,5.745,5.745,0,0,0-.656.394A7.858,7.858,0,0,0,466.3,333.5h0a7.931,7.931,0,0,0,.678,3.228,8.022,8.022,0,0,0,3.643,3.8c-.175.678-.361,1.345-.536,2.013l-.2.722-.361,1.269c-.065.273-.153.536-.24.809l-.317,1.127c-.1.3-.186.579-.263.864l-.328,1.039c-.1.3-.2.58-.284.875l-.328.985c-.087.295-.2.579-.3.864l-.318.952c-.109.3-.208.58-.306.864-.12.306-.23.613-.328.908l-.328.853-.318.864c-.109.273-.23.558-.328.832l-.328.842c-.12.262-.219.536-.328.8s-.229.547-.35.81-.208.525-.328.788-.23.525-.339.788-.23.5-.35.755c-.1.252-.219.492-.328.744l-.361.733c-.109.241-.23.482-.35.722-.1.24-.219.47-.339.7s-.23.459-.35.689l-.361.678c-.109.219-.23.437-.35.656l-.361.634c-.121.219-.219.427-.339.624l-.361.613-.361.591-.361.58-.361.558-.361.536-.361.525c-.121.175-.241.339-.35.514-.131.165-.24.328-.372.493s-.241.306-.339.46l-.383.459c-.12.142-.24.284-.339.427-.121.142-.252.284-.383.416-.109.131-.219.263-.339.394s-.24.252-.372.383l-.339.339-.383.35c-.11.109-.219.208-.339.307s-.251.208-.372.317a3.707,3.707,0,0,1-.328.252,4.174,4.174,0,0,1-.383.273l-.317.219-.394.241-.3.164-.427.2-.252.12a3.8,3.8,0,0,1-.536.175l-.131.055a5.043,5.043,0,0,1-.689.131l-.142.011a4,4,0,0,1-.5.033,5.094,5.094,0,0,1-.569-.044l-.1-.011c-4.529-.733-7.691-8.763-8.872-20.677a129.935,129.935,0,0,1-.164-21.388,7.877,7.877,0,1,0-3.851-.383c-.142.7-.263,1.389-.394,2.079l-.12.623c-.088.482-.175.952-.263,1.422-.055.241-.109.46-.153.69l-.274,1.313c-.055.262-.109.514-.175.766-.077.4-.175.809-.262,1.215-.055.251-.109.5-.175.755-.1.383-.186.777-.285,1.159l-.2.788c-.1.361-.175.733-.284,1.094-.066.273-.132.536-.208.8-.087.35-.186.7-.284,1.04-.066.263-.142.514-.208.777-.1.339-.208.678-.3,1.006-.066.263-.164.515-.229.766-.11.328-.2.656-.3.963l-.241.755c-.1.317-.2.624-.306.93l-.241.722-.318.908-.241.711c-.12.285-.219.58-.317.865l-.273.689-.317.82c-.077.219-.175.449-.263.667l-.328.788-.273.635c-.11.251-.219.514-.328.755-.1.208-.2.416-.284.613l-.328.711c-.087.2-.2.394-.284.591-.11.219-.23.449-.339.667-.088.2-.2.372-.3.558-.1.208-.219.427-.328.635q-.164.262-.3.525c-.121.2-.23.4-.35.59a4.771,4.771,0,0,1-.306.5l-.328.547a5.576,5.576,0,0,0-.307.47c-.12.164-.23.339-.35.5s-.2.3-.306.427c-.12.164-.229.317-.35.47-.109.131-.2.262-.306.394s-.23.284-.35.427l-.317.361c-.11.12-.23.252-.35.372l-.306.328c-.12.11-.219.219-.339.328l-.328.284-.339.285-.328.252c-.1.077-.219.164-.339.241-.1.065-.219.131-.328.2a3.218,3.218,0,0,1-.328.2l-.317.153c-.12.055-.23.109-.35.153l-.318.12-.339.088-.317.077-.339.044-.317.033c-.175,0-.328.011-.492,0-6.991-.569-12.144-18.412-12.341-41.452a7.877,7.877,0,1,0-3.851-.044c-.1.985-.208,1.937-.3,2.9-.142,1.148-.273,2.275-.416,3.392-.229,1.783-.492,3.534-.788,5.218l-.12.711c-.1.569-.2,1.149-.306,1.728l-.044.142c-.077.449-.175.876-.252,1.313-.044.175-.077.361-.11.536-.251,1.192-.514,2.363-.8,3.49v.022c-.131.569-.284,1.116-.427,1.674v.022c-.131.514-.284,1.017-.416,1.51l-.033.12c-1.674,5.853-3.687,10.536-5.886,13.566v.011c-.208.263-.394.514-.591.755l-.011.022c-.186.23-.372.437-.558.634l-.077.077q-.279.3-.558.558l-.055.055a7.105,7.105,0,0,1-.558.47l-.066.055-.536.372-.1.066c-.175.1-.35.2-.525.273l-.12.077c-.164.065-.317.131-.492.186l-.164.055a3.231,3.231,0,0,1-.438.109l-.2.044c-.153.022-.3.033-.449.044l-.219.011c-7,0-13.555-17.362-15.6-40.3a7.87,7.87,0,1,0-3.851.208c-.23,23.007-5.372,40.807-12.351,41.376-6.958.547-14.857-16.126-18.752-38.718a7.859,7.859,0,1,0-3.862.482c1.586,22.865-2.122,40.927-9.015,42.043s-16.093-14.769-21.793-36.868a7.876,7.876,0,1,0-3.588.821Zm132.409,55.861h0a6.434,6.434,0,1,1-6.433,6.444,6.423,6.423,0,0,1,6.433-6.444Zm-29.177-2.505h0a6.439,6.439,0,0,1,.667,12.844,6.439,6.439,0,1,1-.667-12.844Zm-29.123,0h0a6.438,6.438,0,1,1-6.444,6.433,6.439,6.439,0,0,1,6.444-6.433Zm-29.09,2.505h0a6.438,6.438,0,1,1-6.444,6.444,6.434,6.434,0,0,1,6.444-6.444Z" transform="translate(573.958 -193.023)"/></g></svg>