<svg xmlns="http://www.w3.org/2000/svg" width="16.296" height="28.711" viewBox="0 0 16.296 28.711"><defs><style>.a{fill:#f3e9b5;}</style></defs><path class="a" d="M10.566,28.711h-4.6a1.394,1.394,0,0,1-1.393-1.393V16.948H1.893A1.394,1.394,0,0,1,.5,15.555V11.111A1.394,1.394,0,0,1,1.893,9.719H4.575V7.493a7.577,7.577,0,0,1,2-5.428A7.216,7.216,0,0,1,11.9,0l3.507.006A1.4,1.4,0,0,1,16.8,1.4V5.524A1.394,1.394,0,0,1,15.4,6.917H13.043c-.72,0-.9.144-.943.189-.065.073-.142.281-.142.854V9.718h3.268a1.416,1.416,0,0,1,.689.175,1.4,1.4,0,0,1,.717,1.218l0,4.444a1.394,1.394,0,0,1-1.393,1.392H11.959V27.319A1.394,1.394,0,0,1,10.566,28.711ZM6.258,27.028h4.017V16.194a.931.931,0,0,1,.93-.93h3.742l0-3.863H11.2a.931.931,0,0,1-.93-.93V7.96a2.867,2.867,0,0,1,.563-1.968,2.853,2.853,0,0,1,2.2-.758h2.07V1.688L11.9,1.683c-3.478,0-5.639,2.226-5.639,5.81v2.979a.931.931,0,0,1-.93.93H2.183v3.863H5.329a.931.931,0,0,1,.93.93ZM15.4,1.689h0Zm0,0" transform="translate(-0.5)"/></svg>