<svg xmlns="http://www.w3.org/2000/svg" width="27.704" height="27.705" viewBox="0 0 27.704 27.705"><defs><style>.a{fill:#f3e9b5;}</style></defs><path class="a" d="M14.125,27.707H13.85c-2.172.005-4.178-.05-6.13-.169A8.194,8.194,0,0,1,3,25.75,7.581,7.581,0,0,1,.449,21.637a18.225,18.225,0,0,1-.418-4.352C.017,16.274,0,15.075,0,13.857s.017-2.422.031-3.434A18.227,18.227,0,0,1,.449,6.071,7.581,7.581,0,0,1,3,1.958,8.194,8.194,0,0,1,7.72.17C9.671.052,11.679,0,13.855,0s4.178.05,6.13.169a8.194,8.194,0,0,1,4.723,1.788,7.58,7.58,0,0,1,2.548,4.113,18.226,18.226,0,0,1,.418,4.352c.014,1.011.029,2.21.031,3.429v.005c0,1.219-.017,2.417-.031,3.429a18.216,18.216,0,0,1-.418,4.352,7.58,7.58,0,0,1-2.548,4.113,8.194,8.194,0,0,1-4.723,1.788C18.116,27.651,16.2,27.707,14.125,27.707Zm-.276-2.165c2.136.005,4.1-.049,6-.165a5.962,5.962,0,0,0,3.487-1.3,5.465,5.465,0,0,0,1.818-2.97,16.58,16.58,0,0,0,.351-3.846c.014-1,.028-2.195.031-3.4s-.017-2.4-.031-3.4a16.583,16.583,0,0,0-.351-3.846,5.465,5.465,0,0,0-1.818-2.97,5.964,5.964,0,0,0-3.487-1.3c-1.906-.116-3.867-.17-6-.165s-4.1.049-6,.165a5.964,5.964,0,0,0-3.487,1.3,5.465,5.465,0,0,0-1.818,2.97A16.582,16.582,0,0,0,2.2,10.452c-.014,1.006-.028,2.2-.031,3.4s.017,2.394.031,3.4A16.58,16.58,0,0,0,2.547,21.1a5.465,5.465,0,0,0,1.818,2.97,5.964,5.964,0,0,0,3.487,1.3C9.757,25.493,11.719,25.547,13.85,25.542ZM13.8,20.618a6.764,6.764,0,1,1,6.764-6.764A6.772,6.772,0,0,1,13.8,20.618Zm0-11.364a4.6,4.6,0,1,0,4.6,4.6A4.6,4.6,0,0,0,13.8,9.255ZM21.32,4.926a1.623,1.623,0,1,0,1.623,1.623A1.623,1.623,0,0,0,21.32,4.926Zm0,0" transform="translate(0 -0.001)"/></svg>