<svg xmlns="http://www.w3.org/2000/svg" width="534.13" height="586.414" viewBox="0 0 534.13 586.414"><defs><style>.a{fill:#f3e9b5;opacity:0.086;}</style></defs><path class="a" d="M822.214,628.391s4.57-.293,8.866,4c4.3,4.276,5.45,12.6,5.45,12.6s-4.612-4.3-8.867-4.884c-4.3-.566-9.181-.86-9.181-.86s.314,8.574-10.586,9.727c-10.858,1.153-28.885-5.157-34.042-2.284s-9.14,7.735-19.432,6.288c-10.313-1.4-27.188-12.871-36.369-13.436a22.449,22.449,0,0,0-9.789,1.383c-2.138-.063-4.214.063-5.953.147a18.968,18.968,0,0,0-13.793,7.148c-.818,1.027.272,2.893,1.51,1.97a22.382,22.382,0,0,1,13.918-4.674c-1.4,4.129-5.471,12.829-17.042,21.485-16.036,12.011-67.539,28.047-67.539,28.047s30.9,2.851,42.342,22.3c11.445,19.474,9.161,29.2,1.153,50.35-8.028,21.172-18.3,31.464,4.591,40.058,22.87,8.594,28.718,22.764,41.61,18.048,12.87-4.758,24.9-12.892,42.049-7.756C768.3,823.211,764,828.808,764,828.808s8.573-1.3,14.17,5.135c5.534,6.435,4.717,17.147,4.717,17.147s-3.438-7.252-8.594-9.432c-5.157-2.138-11.172,0-11.172,0a55.15,55.15,0,0,1-.42,5.6,56.288,56.288,0,0,1-2.348,9.223s4.486.419,8.553,6.414c4.087,6.037.67,18.907.67,18.907s-1.719-7.085-6.247-10.523a37.714,37.714,0,0,0-8.322-4.926,13.076,13.076,0,0,1-3.458,4.508c-2.788,2.557-12.011,3-12.011,3s4.3,1.929,4.737,8.783c.4,6.876-3.878,14.82-3.878,14.82a43.692,43.692,0,0,0-3.018-10.942c-2.138-4.507-7.085-6.876-7.085-6.876S720,884.146,711.85,881.358c-8.154-2.766-12.43-12.43-16.749-12.011-4.255.44-20.145,1.719-27.858-1.928-7.756-3.669-9.664-22.324-21.884-23.394-12.242-1.089-35.845,1.489-43.789-7.294-7.966-8.8.23-35.4,2.788-45.068,2.578-9.642,3.207-12.849-9.874-12.64-13.1.21-37.333,8.133-45.487,3-7.274-4.591-12.849-15.009-13.96-17.167,4.7-10.167,14.9-16.686,24.4-25.721,9.2-8.782,17.126-19.872,20.606-32.2a.967.967,0,0,0-1.761-.734c-10.082,16.245-20.1,29.724-34.818,42.112-8.658,7.274-13.667,15.533-13.626,25.574-6.456,10.145-19.473,25.028-40.938,26.16-32.805,1.719-39.681-3-53.809,5.576-14.192,8.553-17.419,21.255-12.053,32.407,5.366,11.131,29.43,6.226,45.927,12.87,16.539,6.645,21.905,12.64,21.675,20.773a15.039,15.039,0,0,1-6.666,12.032s1.95,1.53,2.579,7.735c.671,6.226-4.905,15.679-4.905,15.679a45.88,45.88,0,0,0-3.019-12.472c-2.557-6.2-5.806-8.342-5.806-8.342s-.441.209-2.117,1.278a31.35,31.35,0,0,1-5.6,2.139,29.4,29.4,0,0,1,1.3,9.852c-.23,5.827-6.226,15.239-6.226,15.239s.42-9.2-1.928-13.269a27.2,27.2,0,0,0-5.178-6.456,17.854,17.854,0,0,1-7.273,1.069,42.777,42.777,0,0,1-9.475-1.928,11.253,11.253,0,0,1,1.111,9.663c-1.949,5.366-9.664,9.852-9.664,9.852S431,906.45,428.822,902.8c-2.116-3.647-5.575-8.364-5.575-8.364s-3.836.859-9.2-2.557c-5.367-3.438-3.878-18.887-10.942-20.606-7.085-1.719-17.818.859-21.884-6.226-4.087-7.085,11.781-36.243,11.592-51.482-.23-15.24-18.908-53.432-8.594-59.867,10.292-6.456,27.649,3.207,42.49-2.6,14.8-5.764,18.027-6.414,16.706-20.815a216.972,216.972,0,0,1-1.048-22.722,34.357,34.357,0,0,1-.42-3.878c-3.71.293-8.217.524-13.688.524-20.019,0-33.749-1.153-38.885-25.762-5.156-24.61,14.3-48.632,36.013-73.828,21.737-25.154,27.5-63.472,19.494-82.946-8.028-19.453-25.175-32.029-49.239-34.9-24.043-2.851-29.724,9.727-45.76,25.741-16.035,16.057-36.054,9.16-36.054,9.16a161.543,161.543,0,0,0,30.332-20.018c14.862-12.577,9.727-34.336,22.89-46.347,13.143-12.011,16.581-8.573,16.581-8.573a340.072,340.072,0,0,1-24.61-34.357c-12.577-20.019-.587-27.46-2.264-43.475-1.719-16.015-22.324-22.325-22.324-22.325s13.164-1.132,41.777,8.573c28.592,9.747,17.713,42.93,20.039,60.664,2.285,17.754,13.143,24.609,13.143,24.609A54.359,54.359,0,0,1,411.7,419.82c3.417-10.858,11.99-29.179,29.745-30.331,17.692-1.132,26.307,6.33,26.307,6.33S444.879,408.941,429.41,430.7c-15.449,21.737,4.57,35.467,22.325,64.08,17.734,28.634,14.3,44.649,10.292,76.679s-45.215,68.084-51.483,81.248c-6.309,13.164-5.744,22.891,4.57,29.745,6.708,4.486,20.145,3.857,28.76,2.872a48.4,48.4,0,0,1,16.308-24.756c23.163-18.866,57.918-30.9,75.526-40.331,10.229-5.513,16.245-11.424,19.473-15.407,2.39-1.09,4.842-2.033,7.19-3.061a41.6,41.6,0,0,0,13.374-9.789c6.792-7.148,12.431-17.273,14.422-26.978a.835.835,0,0,0-1.4-.776c-7.085,8.008-11.068,18.216-18.447,26.161-7,7.525-16.937,9.58-23.582,17.336a18.684,18.684,0,0,1-8.887.943c-11.152-1.739-20.584-9.474-20.584-9.474s12.409-2.557,19.327-8.133a29.506,29.506,0,0,0,8.992-12.032s-21.443-10.711-33.5-23.6c-12.011-12.85-4.3-40.771-4.3-40.771s-9.433-9.852-15.008-27.9c-5.555-18.007,6.854-42.469,6.854-42.469s-7.274-6.876-6.854-23.6c.356-13.981,7.294-26.433,9.579-30.164,5.177,3.962,11.11,7.043,17.587,6.812a1,1,0,0,0,.251-1.949A77,77,0,0,1,500.554,385.3c-2.18-3.71-5.178-9.286-6.5-13.982-2.138-7.714.881-10.271,7.735-11.99,6.876-1.719,22.765,5.576,22.765,5.576s6.855-24.022,23.163-30.478c16.287-6.435,40.33-6.017,40.33-6.017s-8.154,3.438-12.032,6.017c-3.857,2.578-8.154,11.591-8.154,11.591s21.443-4.276,33.5-1.7c11.99,2.579,17.587,16.728,17.587,16.728s40.771-15.449,48.066-12.892c7.315,2.578,5.135,10.313,5.135,10.313a23.046,23.046,0,0,1,7.315,11.152c2.117,7.294,3.019,15.868,1.3,19.326-1.74,3.417-7.882,8.867-7.882,8.867a19.711,19.711,0,0,1,1.132,7.714c-.272,4-1.132,9.14-1.132,9.14s-1.153-4.843-3.144-7.148a44.542,44.542,0,0,1-4.024-5.7,64.365,64.365,0,0,1-17.755,4.255c-9.705.88-15.134-2.264-22.01,4.591-6.855,6.875-14.883,20.9-4.276,23.75,10.565,2.872,17.147,5.743,27.187,1.74,10-4,14.862-6.6,14.862-6.6s1.991-5.429,1.425-8.3c-.566-2.851-1.425-6.268-1.425-6.268s5.408,3.71,6.309,7.148a13.2,13.2,0,0,1,0,6.268s5.975-3.983,11.152-3.124c5.136.839,9.706,6.876,8.846,12.3s-18.594,18.3-18.594,18.3-.566,10.565,6.309,15.449c6.834,4.863,14.862,9.433,21.444,5.156a78.709,78.709,0,0,0,12.3-10.313,15.587,15.587,0,0,1-2.306,10.02c-3.123,5.136-10,10.292-10,10.292s4.3.859,14.3,8.3c10.019,7.442,14.883,13.458,14.883,13.458s12.6-13.751,18.32-27.754c5.7-14.044,14.611-40.078,12.577-53.788-1.991-13.75-1.425-27.46,7.169-32.051,8.552-4.57,18.551-3.417,18.551-3.417s-.252-3.438,4.318-6c4.57-2.578,14.3-1.446,14.3-1.446a25.145,25.145,0,0,0-5.45,3.71l-4.276,4.276a45.571,45.571,0,0,1,8.322,3.459c3.417,1.991,6.288,6.582,6.288,6.582a34.732,34.732,0,0,1,12.578-2.893c6.289,0,12.3,3.438,12.3,3.438s-7.169.293-11.424,2.033c-4.3,1.678-8.322,3.69-8.322,3.69a13.949,13.949,0,0,1,3.73,7.735,22.531,22.531,0,0,1,0,8.594s9.727-2.851,14.863-1.446c5.156,1.446,10.02,6.015,10.02,6.015s-7.714-.586-12.3,1.153a30.234,30.234,0,0,0-7.986,4.57s3.982,5.7,1.131,11.445c-2.85,5.722-23.184,14.862-31.17,25.175-8.028,10.292-12.619,26.014-11.466,45.215,1.132,19.138-1.426,31.464-16.9,50.036-10.125,12.2-19.222,19.327-24.316,22.807-2.767,1.111-5.513,2.2-8.322,3.207-16.015,5.7-32.365,10.272-47.814,17.42-.586.272-.189,1.131.4.964,18.467-4.821,36.725-10.565,54.669-17.042,1.551,1.048,3.836,2.6,7.106,4.989,8.594,6.309,12.85,10.292,21.738,8.867,8.866-1.447,23.456-27.46,35.489-26.328,12.011,1.153,12.556,5.45,12.556,5.45s.881-2.578,6.9-2.871c5.974-.294,13.709,5.177,13.709,5.177a16.337,16.337,0,0,0-8.3,1.4,24.328,24.328,0,0,0-8.007,6.289,12.844,12.844,0,0,1,5.157,2.871c2.579,2.285,2.285,6.289,2.285,6.289a30.971,30.971,0,0,1,12.871,3.416c6.582,3.459,8.3,13.185,8.3,13.185s-5.45-4.863-9.433-5.743a37.219,37.219,0,0,0-8.594-.545s-.566,2.285-1.7,5.451c-1.153,3.123-6.016,6.561-6.016,6.561ZM576.122,383.7h0a76.688,76.688,0,0,1,11.613-5.136c5.45-1.7,8.867-1.4,15.679-.482-.776-2.641-5.975-3-7.567-4.9s-.294-3.711.65-6c-2.328-.251-8.07,3.039-12.221,6.561-4.088,3.521-8.154,9.957-8.154,9.957Zm43.915,91.708h0c8.008,17.817,21.654,34.314,38.737,43.789,2.809,1.55,4.9-2.39,2.452-4.192-16.077-11.99-32.029-26.161-38.9-45.592a2.274,2.274,0,0,0-4.109-.545,118.1,118.1,0,0,0-9.391,22.219c-5.6-12.242-12.808-24.107-11.445-38a2.578,2.578,0,0,0-3.878-2.222,44.089,44.089,0,0,0-14.275,17.021c-2.62-9.748-1.719-19.6-.063-29.808.4-2.431-2.327-4.443-4.3-2.515-6.54,6.5-13.395,12.619-18.887,19.851,2.495-10.8,6.309-20.983,13.667-29.913,1.09-1.362.126-4-1.928-3.27-10.355,3.711-18.614,9.873-26.077,17.461,3.962-11.864,9.621-23,14.108-34.692.356-.88-1.09-1.488-1.53-.649-7.148,13.164-13.71,26.621-17.734,41.064a1.627,1.627,0,0,0,2.7,1.573c6.9-7.567,14.213-14.066,23.267-18.384-7.651,11.487-11.025,24.462-13.394,38.339-.42,2.432,3.082,4.4,4.3,1.824,4.57-9.789,12.011-17.084,19.683-24.337-1.446,11.3-1.111,22.115,3.543,33.057,1.048,2.453,4.674,1.468,5.3-.691A40.154,40.154,0,0,1,592.2,458.726c1.049,14.589,9.58,27.313,14.548,40.939.86,2.327,4.381,2.7,5.073,0a152.128,152.128,0,0,1,8.217-24.253Zm76.406,105.082h0c-.042-.776-1.153-1.195-1.51-.419-.482.985-.964,1.928-1.383,2.872a.732.732,0,0,0-.838.062c-13.374,10.355-26.37,19.348-43.16,23.331a.753.753,0,0,0,.188,1.468c12.85-.985,30.227-7.337,39.765-17.88a56.9,56.9,0,0,1-7.693,9.265c-5.471,5.366-10.649,10.124-14.338,16.937a1.156,1.156,0,0,0,1.991,1.174c8.2-12.221,27.46-20,26.978-36.809Z" transform="translate(-313.826 -328.4)"/></svg>