<svg xmlns="http://www.w3.org/2000/svg" width="255.087" height="52.474" viewBox="0 0 255.087 52.474"><defs><style>.a{fill:#f3e9b5;}.b{fill:none;stroke:#f3e9b5;stroke-width:2px;}</style></defs><g transform="translate(-1596 -985.884)"><g transform="translate(1596 985.884)"><g transform="translate(0)"><path class="a" d="M298.591,347.486l-9.874-7.368v-3.21l9.874,7.42Z" transform="translate(-254.704 -320.413)"/><path class="a" d="M298.591,351.412l-9.874-7.367v-3.292l9.874,7.366Z" transform="translate(-254.704 -317.084)"/><path class="a" d="M293.465,374.628a25.387,25.387,0,0,1-8.4-11.622,24.033,24.033,0,0,1-.994-3.564c-.1-.6-.2-1.194-.3-1.786s-.1-1.243-.152-1.851a22.619,22.619,0,0,1,.031-3.32l.021-.506.059-.422.12-.836c.091-.554.133-1.107.269-1.642a25.3,25.3,0,0,1,.884-3.12q.271-.747.539-1.48.337-.706.667-1.4a25.832,25.832,0,0,1,3.1-4.955,27.757,27.757,0,0,1,7.651-6.514,27.4,27.4,0,0,1,7.16-2.79l1.474-.323c.467-.091.914-.129,1.326-.187a14.2,14.2,0,0,1,2.086-.192c1.128-.035,1.729-.052,1.729-.052h.011l1.745.091a14.574,14.574,0,0,1,2.084.241c.406.069.849.116,1.312.216l1.467.36a27.294,27.294,0,0,1,7.087,2.954,27.66,27.66,0,0,1,7.487,6.692,25.818,25.818,0,0,1,2.977,5.023c.21.466.419.939.63,1.413.168.493.333.989.5,1.491a24.233,24.233,0,0,1,.811,3.226c.122.565.145,1.03.221,1.554l.1.769.049.388.013.532a26.409,26.409,0,0,1-1.668,10.56,28.2,28.2,0,0,1-3.786,6.679,28.546,28.546,0,0,1-5.864,5.471,27.4,27.4,0,0,1-7.459,3.613l-2.04.536a20.57,20.57,0,0,1-2.2.368l-1.128.149c-.4.056-.629.039-.95.062l-2.021.086a30.261,30.261,0,0,1-8.31-1.381,27.5,27.5,0,0,1-7.379-3.779c-.215-.162-.429-.328-.64-.5M286.549,355.5a22.7,22.7,0,0,0,1.743,6.145,24.676,24.676,0,0,0,3.512,5.634,23.569,23.569,0,0,0,1.661,1.762v-6.494l9.874-11.661v23.959c.7.207,1.411.377,2.128.519V330.5l9.872,6.716V375.4c.613-.118,1.223-.256,1.828-.424.137-.041.274-.086.413-.131V358.994l9.874,7.366v2.689c.45-.433.886-.875,1.3-1.34a24.565,24.565,0,0,0,3.646-5.552,23.566,23.566,0,0,0,2.1-12.251,23.97,23.97,0,0,0-3.754-10.523,24.282,24.282,0,0,0-6.773-6.763,23.794,23.794,0,0,0-6.771-3.111q-.754-.2-1.427-.383c-.451-.1-.884-.153-1.282-.226a13.965,13.965,0,0,0-2.038-.256l-1.707-.11-1.72.071a13.608,13.608,0,0,0-2.046.211c-.4.062-.827.1-1.28.194l-1.434.349a23.853,23.853,0,0,0-6.845,2.954,24.38,24.38,0,0,0-6.933,6.606,23.976,23.976,0,0,0-4.006,10.448c-.1.985-.171,2.019-.175,3.016A22.725,22.725,0,0,0,286.549,355.5Z" transform="translate(-283.566 -328.069)"/></g></g><path class="b" d="M1960.481,81.124H1757" transform="translate(-109.394 932.045)"/></g></svg>