<svg xmlns="http://www.w3.org/2000/svg" width="29.358" height="24.028" viewBox="0 0 29.358 24.028"><defs><style>.a{fill:#f3e9b5;}</style></defs><path class="a" d="M29.358,3.209c-1.847.085-1.806.078-2.015.1L28.436.182s-3.414,1.256-4.279,1.481a6.85,6.85,0,0,0-8.067-.649A5.587,5.587,0,0,0,13.4,6.758,14.9,14.9,0,0,1,3.751,1.323L2.941.35,2.335,1.462A6.716,6.716,0,0,0,1.62,5.983a6.5,6.5,0,0,0,.629,1.765l-.695-.269L1.472,8.64a6.194,6.194,0,0,0,1.05,3.682,6.547,6.547,0,0,0,.818,1.009l-.359-.055.438,1.33a6.467,6.467,0,0,0,3.324,3.852c-1.55.658-2.8,1.078-4.861,1.755L0,20.831l1.739.951a18.258,18.258,0,0,0,5.322,1.937c5.147.807,10.942.15,14.843-3.364,3.286-2.959,4.364-7.169,4.14-11.55a2.737,2.737,0,0,1,.512-1.782C27.286,6.051,29.353,3.216,29.358,3.209ZM25.181,5.993a4.457,4.457,0,0,0-.852,2.9c.226,4.419-.976,7.846-3.574,10.185-3.034,2.733-7.928,3.805-13.427,2.943a13.315,13.315,0,0,1-2.877-.855,45.618,45.618,0,0,0,5.211-2.142l3-1.422L9.349,17.39a4.691,4.691,0,0,1-3.725-2.122,5.95,5.95,0,0,0,1.263-.211l3.164-.881L6.86,13.4a4.751,4.751,0,0,1-2.9-2.019,4.866,4.866,0,0,1-.629-1.388,7.964,7.964,0,0,0,1.294.207l2.953.292L5.237,8.663A4.924,4.924,0,0,1,3.371,3.474,17.114,17.114,0,0,0,15.43,8.664a10.185,10.185,0,0,0-.176-1.459A3.949,3.949,0,0,1,16.99,2.478a5.138,5.138,0,0,1,6.061.5,1.539,1.539,0,0,0,1.412.378A11.888,11.888,0,0,0,25.627,3l-.742,2.118h.947Zm0,0" transform="translate(0 0)"/></svg>