<svg xmlns="http://www.w3.org/2000/svg" width="27.325" height="27.325" viewBox="0 0 27.325 27.325"><defs><style>.a{fill:#f3e9b5;stroke:#f3e9b5;}</style></defs><g transform="translate(0.5 0.5)"><g transform="translate(0 0)"><path class="a" d="M13.162,0A13.165,13.165,0,0,0,1.993,20.129C1.473,21.951.534,25.4.524,25.432a.506.506,0,0,0,.637.617l5.217-1.6A13.163,13.163,0,1,0,13.162,0Zm0,25.312a12.12,12.12,0,0,1-6.445-1.848.506.506,0,0,0-.269-.077.515.515,0,0,0-.149.022l-4.556,1.4c.335-1.222.936-3.407,1.285-4.622a.508.508,0,0,0-.062-.416,12.151,12.151,0,1,1,10.2,5.538Z" transform="translate(0 0)"/><path class="a" d="M23.581,19.236c-.781-.434-1.447-.869-1.932-1.186-.371-.242-.639-.417-.835-.516a.962.962,0,0,0-1.123.08.423.423,0,0,0-.053.064A5.95,5.95,0,0,1,18.1,19.4a10.192,10.192,0,0,1-2.6-1.685,5.635,5.635,0,0,1-2.059-2.6c.767-.79,1.044-1.287,1.044-1.852a11.978,11.978,0,0,0-1.605-3.262c-.247-.246-.8-.285-1.652-.116a.427.427,0,0,0-.216.116c-.1.1-2.51,2.557-1.366,5.531,1.255,3.264,4.478,7.058,8.586,7.674a8.9,8.9,0,0,0,1.314.1,3.9,3.9,0,0,0,4.245-3.628A.422.422,0,0,0,23.581,19.236Zm-5.222,3.126c-4.344-.651-7.081-4.956-7.922-7.141-.834-2.167.7-4.1,1.09-4.536a3.193,3.193,0,0,1,.783-.054,15.2,15.2,0,0,1,1.33,2.626c0,.222-.072.532-.934,1.394a.421.421,0,0,0-.124.3c0,2.216,4.675,5.291,5.5,5.291.72,0,1.659-1.21,2.193-2a.4.4,0,0,1,.157.049c.152.077.417.249.75.467.441.288,1.027.671,1.719,1.067C22.59,21.337,21.712,22.866,18.359,22.362Z" transform="translate(-3.305 -3.481)"/></g></g></svg>