<svg xmlns="http://www.w3.org/2000/svg" width="32.885" height="25.342" viewBox="0 0 32.885 25.342"><defs><style>.a{fill:#f3e9b5;}</style></defs><path class="a" d="M10.359,7.9a1.029,1.029,0,0,0-1.554.882v9.591a1.029,1.029,0,0,0,1.554.884L18.4,14.464a1.029,1.029,0,0,0,0-1.766Zm.5,8.666V10.588l5.008,2.991Z" transform="translate(3.26 -0.903)"/><path class="a" d="M27.272,3.463a82.941,82.941,0,0,0-21.66,0,5.991,5.991,0,0,0-5,4.982,40.061,40.061,0,0,0,0,13.957,5.99,5.99,0,0,0,5,4.982,76.536,76.536,0,0,0,10.845.711,76.073,76.073,0,0,0,10.816-.71,6,6,0,0,0,5-4.982,40.077,40.077,0,0,0,0-13.96,5.992,5.992,0,0,0-5-4.981Zm2.973,18.6a3.943,3.943,0,0,1-3.275,3.291,80.664,80.664,0,0,1-21.057,0,3.943,3.943,0,0,1-3.276-3.291,37.628,37.628,0,0,1,0-13.273A3.946,3.946,0,0,1,5.915,5.495a74.435,74.435,0,0,1,10.526-.689,74.448,74.448,0,0,1,10.529.689,3.943,3.943,0,0,1,3.276,3.291A37.636,37.636,0,0,1,30.246,22.061Z" transform="translate(0 -2.753)"/></svg>