<svg xmlns="http://www.w3.org/2000/svg" width="788.216" height="865.372" viewBox="0 0 788.216 865.372"><defs><style>.a{fill:#aa1d45;}</style></defs><path class="a" d="M1064.055,771.1s6.743-.433,13.084,5.909c6.341,6.31,8.043,18.59,8.043,18.59s-6.805-6.341-13.085-7.207c-6.341-.835-13.549-1.269-13.549-1.269s.464,12.652-15.621,14.353c-16.024,1.7-42.626-7.61-50.236-3.371s-13.487,11.414-28.675,9.279c-15.22-2.073-40.121-18.993-53.671-19.828a33.125,33.125,0,0,0-14.445,2.041c-3.156-.093-6.218.093-8.785.217a27.991,27.991,0,0,0-20.355,10.548c-1.206,1.515.4,4.269,2.228,2.908a33.029,33.029,0,0,1,20.539-6.9c-2.072,6.093-8.073,18.931-25.148,31.706-23.664,17.725-99.667,41.389-99.667,41.389s45.6,4.207,62.485,32.913c16.89,28.737,13.519,43.09,1.7,74.3-11.847,31.243-27,46.431,6.774,59.114,33.749,12.683,42.38,33.594,61.4,26.634,18.992-7.021,36.748-19.024,62.051-11.446,25.366,7.61,19.025,15.87,19.025,15.87s12.652-1.919,20.911,7.578c8.167,9.5,6.96,25.3,6.96,25.3s-5.073-10.7-12.683-13.919c-7.61-3.156-16.487,0-16.487,0a81.366,81.366,0,0,1-.62,8.259c-.618,5.382-3.464,13.611-3.464,13.611s6.62.619,12.621,9.466c6.032,8.909.99,27.9.99,27.9s-2.537-10.455-9.218-15.528a55.65,55.65,0,0,0-12.281-7.27s-.989,2.816-5.1,6.652c-4.115,3.773-17.725,4.423-17.725,4.423s6.341,2.846,6.99,12.961c.588,10.146-5.723,21.87-5.723,21.87s-1.268-9.5-4.454-16.147c-3.155-6.651-10.455-10.146-10.455-10.146s-15.188,6.65-27.221,2.536c-12.034-4.082-18.344-18.343-24.716-17.725-6.279.65-29.727,2.537-41.111-2.845-11.445-5.414-14.26-32.944-32.294-34.523-18.066-1.608-52.9,2.2-64.619-10.764-11.755-12.991.34-52.246,4.114-66.507,3.8-14.229,4.732-18.962-14.57-18.653-19.333.31-55.093,12-67.126,4.424-10.734-6.774-18.961-22.148-20.6-25.334,6.929-15,21.993-24.624,36.006-37.956,13.58-12.96,25.272-29.325,30.408-47.513a1.427,1.427,0,0,0-2.6-1.082C689.2,909.9,674.417,929.786,652.7,948.067c-12.776,10.734-20.169,22.922-20.107,37.74-9.527,14.971-28.736,36.934-60.412,38.6-48.411,2.536-58.557-4.425-79.406,8.228-20.943,12.621-25.706,31.366-17.787,47.823,7.919,16.426,43.43,9.187,67.775,18.993,24.406,9.807,32.326,18.653,31.985,30.655a22.192,22.192,0,0,1-9.837,17.756s2.877,2.258,3.805,11.415c.99,9.187-7.239,23.138-7.239,23.138a67.707,67.707,0,0,0-4.455-18.406c-3.773-9.156-8.568-12.311-8.568-12.311s-.651.309-3.125,1.886c-2.567,1.548-8.259,3.156-8.259,3.156a43.4,43.4,0,0,1,1.917,14.538c-.34,8.6-9.187,22.489-9.187,22.489s.619-13.58-2.845-19.581a40.147,40.147,0,0,0-7.641-9.528,26.348,26.348,0,0,1-10.733,1.577A63.124,63.124,0,0,1,494.6,1163.4a16.607,16.607,0,0,1,1.64,14.26c-2.877,7.918-14.26,14.539-14.26,14.539s4.764-10.765,1.546-16.148c-3.123-5.383-8.227-12.342-8.227-12.342s-5.661,1.268-13.58-3.774c-7.92-5.073-5.723-27.871-16.148-30.408-10.455-2.536-26.294,1.268-32.295-9.187-6.032-10.456,17.385-53.484,17.106-75.972-.34-22.489-27.9-78.85-12.683-88.346,15.189-9.527,40.8,4.733,62.7-3.836,21.839-8.506,26.6-9.466,24.653-30.717a320.166,320.166,0,0,1-1.546-33.531,50.729,50.729,0,0,1-.619-5.722c-5.475.432-12.126.773-20.2.773-29.542,0-49.8-1.7-57.382-38.018-7.609-36.316,21.1-71.766,53.145-108.947,32.077-37.12,40.584-93.666,28.767-122.4-11.847-28.706-37.151-47.266-72.662-51.5C399.078,557.9,390.7,576.464,367.031,600.1c-23.663,23.7-53.206,13.518-53.206,13.518a238.385,238.385,0,0,0,44.761-29.541c21.932-18.56,14.353-50.669,33.779-68.394,19.4-17.725,24.469-12.652,24.469-12.652a501.841,501.841,0,0,1-36.316-50.7c-18.561-29.542-.866-40.523-3.341-64.156-2.537-23.634-32.944-32.944-32.944-32.944s19.426-1.67,61.65,12.652c42.193,14.384,26.139,63.352,29.572,89.522,3.372,26.2,19.4,36.315,19.4,36.315a80.217,80.217,0,0,1,3.4-30.408c5.042-16.023,17.694-43.059,43.895-44.76,26.108-1.67,38.822,9.341,38.822,9.341s-33.748,19.365-56.577,51.474c-22.8,32.077,6.743,52.338,32.944,94.563,26.17,42.256,21.1,65.889,15.189,113.155s-66.725,100.472-75.973,119.9c-9.31,19.426-8.476,33.78,6.743,43.895,9.9,6.62,29.727,5.692,42.441,4.238A71.419,71.419,0,0,1,529.8,818.579c34.182-27.84,85.469-45.6,111.454-59.516,15.095-8.136,23.974-16.859,28.737-22.736,3.527-1.609,7.146-3,10.61-4.517,7.7-3.34,13.952-8.444,19.735-14.446,10.023-10.549,18.344-25.489,21.283-39.811a1.232,1.232,0,0,0-2.072-1.146c-10.455,11.817-16.333,26.882-27.222,38.605-10.331,11.1-24.994,14.137-34.8,25.582a27.574,27.574,0,0,1-13.115,1.391c-16.457-2.567-30.376-13.981-30.376-13.981s18.312-3.774,28.52-12c10.084-8.259,13.27-17.756,13.27-17.756s-31.644-15.807-49.432-34.83c-17.725-18.963-6.341-60.166-6.341-60.166s-13.92-14.539-22.148-41.172c-8.2-26.572,10.114-62.672,10.114-62.672s-10.734-10.146-10.114-34.831c.525-20.632,10.764-39.008,14.136-44.514,7.64,5.846,16.395,10.394,25.953,10.053a1.469,1.469,0,0,0,.37-2.876c-10.733-3.96-20.044-8.322-28.984-14.879-3.217-5.475-7.641-13.7-9.59-20.633-3.155-11.383,1.3-15.157,11.415-17.694,10.146-2.536,33.594,8.228,33.594,8.228s10.115-35.449,34.181-44.976c24.035-9.5,59.515-8.878,59.515-8.878s-12.033,5.073-17.756,8.878c-5.691,3.8-12.032,17.105-12.032,17.105s31.644-6.31,49.431-2.505c17.694,3.805,25.953,24.685,25.953,24.685s60.166-22.8,70.931-19.024c10.8,3.8,7.578,15.22,7.578,15.22a34.008,34.008,0,0,1,10.8,16.456c3.125,10.764,4.455,23.416,1.918,28.52-2.567,5.042-11.631,13.085-11.631,13.085a29.089,29.089,0,0,1,1.671,11.384c-.4,5.908-1.671,13.487-1.671,13.487s-1.7-7.146-4.64-10.548a65.738,65.738,0,0,1-5.938-8.414,94.984,94.984,0,0,1-26.2,6.28c-14.322,1.3-22.334-3.341-32.48,6.774-10.115,10.146-21.963,30.841-6.311,35.047,15.59,4.238,25.3,8.476,40.12,2.568,14.756-5.909,21.933-9.744,21.933-9.744s2.939-8.012,2.1-12.25c-.835-4.207-2.1-9.249-2.1-9.249s7.981,5.475,9.311,10.548a19.472,19.472,0,0,1,0,9.25s8.817-5.878,16.456-4.61c7.579,1.238,14.322,10.146,13.055,18.158s-27.439,27.005-27.439,27.005-.835,15.59,9.311,22.8c10.085,7.177,21.932,13.92,31.645,7.609a116.152,116.152,0,0,0,18.158-15.22,23,23,0,0,1-3.4,14.787c-4.609,7.579-14.755,15.189-14.755,15.189s6.342,1.268,21.1,12.249c14.785,10.981,21.962,19.859,21.962,19.859s18.592-20.292,27.036-40.956c8.414-20.725,21.562-59.144,18.56-79.375-2.939-20.291-2.1-40.523,10.58-47.3,12.62-6.743,27.376-5.042,27.376-5.042s-.372-5.073,6.372-8.847c6.743-3.8,21.1-2.134,21.1-2.134a37.1,37.1,0,0,0-8.042,5.475l-6.311,6.311a67.251,67.251,0,0,1,12.28,5.1c5.042,2.939,9.28,9.713,9.28,9.713s9.281-4.269,18.561-4.269,18.158,5.073,18.158,5.073-10.58.433-16.858,3c-6.342,2.476-12.281,5.445-12.281,5.445s4.238,3.805,5.505,11.415a33.247,33.247,0,0,1,0,12.682s14.354-4.207,21.932-2.134c7.61,2.134,14.786,8.877,14.786,8.877s-11.384-.865-18.158,1.7a44.614,44.614,0,0,0-11.785,6.744s5.876,8.414,1.669,16.89c-4.206,8.445-34.212,21.932-46,37.151C1007.478,554.5,1000.7,577.7,1002.4,606.036c1.67,28.242-2.1,46.431-24.932,73.838-14.941,18-28.366,28.521-35.883,33.656-4.083,1.64-8.135,3.247-12.281,4.732-23.633,8.414-47.761,15.158-70.559,25.707-.866.4-.279,1.669.588,1.422,27.252-7.115,54.195-15.59,80.675-25.149,2.289,1.547,5.66,3.836,10.486,7.362,12.683,9.311,18.962,15.189,32.078,13.085,13.084-2.135,34.614-40.523,52.37-38.853,17.725,1.7,18.529,8.043,18.529,8.043s1.3-3.8,10.178-4.237c8.815-.433,20.23,7.64,20.23,7.64a24.109,24.109,0,0,0-12.25,2.073c-6.744,2.938-11.817,9.28-11.817,9.28a18.953,18.953,0,0,1,7.609,4.237c3.805,3.371,3.372,9.28,3.372,9.28a45.7,45.7,0,0,1,18.994,5.041c9.713,5.1,12.25,19.457,12.25,19.457s-8.043-7.176-13.921-8.475a54.921,54.921,0,0,0-12.683-.8s-.836,3.372-2.505,8.044c-1.7,4.608-8.878,9.681-8.878,9.681ZM700.9,410.011h0a113.166,113.166,0,0,1,17.137-7.579c8.042-2.505,13.085-2.072,23.138-.712-1.144-3.9-8.817-4.422-11.167-7.237s-.433-5.476.959-8.848c-3.435-.371-11.909,4.485-18.035,9.682-6.032,5.2-12.033,14.694-12.033,14.694ZM765.7,545.345h0c11.817,26.293,31.955,50.637,57.165,64.62,4.145,2.288,7.238-3.527,3.618-6.187-23.725-17.694-47.265-38.606-57.411-67.28-.9-2.6-4.578-3.434-6.063-.8a174.266,174.266,0,0,0-13.858,32.789c-8.259-18.066-18.9-35.574-16.89-56.083.309-2.753-3.464-4.919-5.723-3.279a65.064,65.064,0,0,0-21.065,25.118c-3.867-14.384-2.537-28.923-.093-43.988.588-3.588-3.434-6.557-6.342-3.712-9.651,9.59-19.767,18.623-27.871,29.295,3.682-15.931,9.311-30.965,20.169-44.142,1.609-2.011.186-5.908-2.846-4.826-15.281,5.476-27.469,14.569-38.481,25.767,5.846-17.508,14.2-33.934,20.819-51.2.526-1.3-1.609-2.2-2.258-.958-10.549,19.426-20.232,39.285-26.17,60.6-.65,2.227,2.32,4.114,3.99,2.321,10.177-11.167,20.973-20.757,34.335-27.129-11.29,16.952-16.269,36.1-19.766,56.577-.62,3.588,4.548,6.5,6.341,2.691,6.744-14.446,17.725-25.211,29.047-35.914-2.135,16.673-1.639,32.635,5.228,48.782,1.547,3.619,6.9,2.166,7.826-1.02,3-10.549,7.826-19.3,15.219-26.665,1.547,21.529,14.137,40.306,21.468,60.413,1.269,3.433,6.466,3.991,7.486,0,3.248-12.343,6.9-24.221,12.126-35.79ZM878.455,700.414h0c-.062-1.144-1.7-1.763-2.228-.619-.711,1.454-1.423,2.845-2.042,4.238a1.081,1.081,0,0,0-1.237.092c-19.735,15.281-38.914,28.552-63.691,34.429a1.112,1.112,0,0,0,.278,2.166c18.962-1.454,44.607-10.827,58.681-26.386a83.962,83.962,0,0,1-11.353,13.673c-8.073,7.919-15.714,14.94-21.158,24.995a1.706,1.706,0,0,0,2.938,1.732c12.094-18.034,40.523-29.511,39.812-54.32Z" transform="translate(-313.826 -328.4)"/></svg>