<svg xmlns="http://www.w3.org/2000/svg" width="558.718" height="581" viewBox="0 0 558.718 581"><defs><style>.a{fill:none;}.b,.c{stroke:none;}.c{fill:#aa1d45;}</style></defs><g class="a" transform="translate(6259 -517.312)"><path class="b" d="M-5967.008,1098.313h-1.493a292.632,292.632,0,0,1-58.545-5.9,289.027,289.027,0,0,1-54.53-16.927,290.543,290.543,0,0,1-49.346-26.784,292.538,292.538,0,0,1-42.993-35.473,292.552,292.552,0,0,1-35.473-42.993,290.52,290.52,0,0,1-26.784-49.346,289.048,289.048,0,0,1-16.927-54.53,292.671,292.671,0,0,1-5.9-58.546,292.669,292.669,0,0,1,5.9-58.546,289.044,289.044,0,0,1,16.927-54.53,290.511,290.511,0,0,1,26.784-49.346,292.562,292.562,0,0,1,35.473-42.993,292.548,292.548,0,0,1,42.993-35.473,290.543,290.543,0,0,1,49.346-26.784,289.033,289.033,0,0,1,54.53-16.927,292.632,292.632,0,0,1,58.545-5.9h1.493c4.71,0,9.473.114,14.158.339-.287,6.367-.433,12.846-.433,19.258a421.221,421.221,0,0,0,18.591,124.119,419.066,419.066,0,0,0,52.068,109.443,423.012,423.012,0,0,0,79.988,89.208A420.9,420.9,0,0,0-5700.282,923.1a290.35,290.35,0,0,1-43.7,70.868,291.882,291.882,0,0,1-61.594,55.4A289.116,289.116,0,0,1-5967.008,1098.313Z"/><path class="c" d="M -5967.00830078125 1092.312622070312 C -5910.40966796875 1092.312622070312 -5855.74072265625 1075.73681640625 -5808.91162109375 1044.377075195312 C -5786.32861328125 1029.253784179688 -5766.03125 1010.997924804688 -5748.58349609375 990.1167602539062 C -5732.2978515625 970.6256713867188 -5718.73193359375 949.1283569335938 -5708.20556640625 926.1415405273438 C -5743.5732421875 910.1271362304688 -5776.61474609375 889.3325805664062 -5806.49072265625 864.277099609375 C -5837.7138671875 838.0914306640625 -5865.00732421875 807.6519165039062 -5887.61328125 773.8038940429688 C -5910.544921875 739.468505859375 -5928.3134765625 702.1197509765625 -5940.42578125 662.795166015625 C -5952.9384765625 622.172607421875 -5959.28271484375 579.818603515625 -5959.28271484375 536.9096069335938 C -5959.28271484375 532.4259033203125 -5959.21240234375 527.90966796875 -5959.0732421875 523.4210815429688 C -5961.71923828125 523.3486938476562 -5964.3720703125 523.3121948242188 -5967.00830078125 523.3121948242188 L -5968.5009765625 523.3121948242188 C -5987.80810546875 523.3121948242188 -6007.1005859375 525.2568969726562 -6025.84326171875 529.0924072265625 C -6044.10693359375 532.8297119140625 -6062.07177734375 538.40625 -6079.23828125 545.6670532226562 C -6096.09375 552.7963256835938 -6112.3525390625 561.6212158203125 -6127.5625 571.8966064453125 C -6142.62890625 582.0751342773438 -6156.79638671875 593.7645263671875 -6169.67138671875 606.6403198242188 C -6182.54638671875 619.5144653320312 -6194.23583984375 633.6820678710938 -6204.41552734375 648.7494506835938 C -6214.69091796875 663.959228515625 -6223.515625 680.2177734375 -6230.64501953125 697.0734252929688 C -6237.9052734375 714.2376098632812 -6243.48193359375 732.202392578125 -6247.2197265625 750.468505859375 C -6251.05517578125 769.213134765625 -6253 788.5061645507812 -6253 807.8115844726562 C -6253 827.1170654296875 -6251.05517578125 846.4100952148438 -6247.22021484375 865.1544799804688 C -6243.48193359375 883.4208984375 -6237.9052734375 901.3857421875 -6230.64501953125 918.5501708984375 C -6223.515625 935.4057006835938 -6214.69091796875 951.664306640625 -6204.41552734375 966.8743286132812 C -6194.23583984375 981.9418334960938 -6182.54638671875 996.1095581054688 -6169.67138671875 1008.984069824219 C -6156.79638671875 1021.85986328125 -6142.62890625 1033.54931640625 -6127.5625 1043.727661132812 C -6112.35400390625 1054.00244140625 -6096.09521484375 1062.827392578125 -6079.23828125 1069.95751953125 C -6062.07080078125 1077.218872070312 -6044.10595703125 1082.79541015625 -6025.8427734375 1086.532592773438 C -6007.10107421875 1090.367919921875 -5987.80810546875 1092.312622070312 -5968.5009765625 1092.312622070312 L -5967.00830078125 1092.312622070312 M -5967.00830078125 1098.312622070312 L -5968.5009765625 1098.312622070312 C -5988.2109375 1098.312622070312 -6007.908203125 1096.327026367188 -6027.0458984375 1092.410766601562 C -6045.6982421875 1088.593994140625 -6064.04443359375 1082.898681640625 -6081.57568359375 1075.483520507812 C -6098.78857421875 1068.202880859375 -6115.39111328125 1059.191528320312 -6130.92138671875 1048.699462890625 C -6146.30419921875 1038.30712890625 -6160.76904296875 1026.372314453125 -6173.9140625 1013.226623535156 C -6187.06005859375 1000.081237792969 -6198.99462890625 985.6161499023438 -6209.38720703125 970.233154296875 C -6219.8798828125 954.70166015625 -6228.89111328125 938.099365234375 -6236.1708984375 920.8873901367188 C -6243.5859375 903.3569946289062 -6249.28076171875 885.0105590820312 -6253.09814453125 866.3574829101562 C -6257.01416015625 847.21875 -6259 827.52099609375 -6259 807.8115844726562 C -6259 788.1021728515625 -6257.01416015625 768.4044799804688 -6253.09814453125 749.2657470703125 C -6249.28076171875 730.61279296875 -6243.5859375 712.266357421875 -6236.1708984375 694.736083984375 C -6228.89111328125 677.524169921875 -6219.8798828125 660.9219360351562 -6209.38720703125 645.390625 C -6198.99462890625 630.0078125 -6187.06005859375 615.5428466796875 -6173.9140625 602.3975219726562 C -6160.76904296875 589.2520141601562 -6146.30419921875 577.3171997070312 -6130.92138671875 566.9248657226562 C -6115.390625 556.432861328125 -6098.78857421875 547.4214477539062 -6081.57568359375 540.1410522460938 C -6064.04443359375 532.7258911132812 -6045.69775390625 527.0308227539062 -6027.0458984375 523.2141723632812 C -6007.908203125 519.2978515625 -5988.2109375 517.3121948242188 -5968.5009765625 517.3121948242188 L -5967.00830078125 517.3121948242188 C -5962.29833984375 517.3121948242188 -5957.53515625 517.4263305664062 -5952.85009765625 517.6512451171875 C -5953.13671875 524.01806640625 -5953.28271484375 530.497314453125 -5953.28271484375 536.9096069335938 C -5953.28271484375 579.2192993164062 -5947.02783203125 620.9790649414062 -5934.69189453125 661.0289306640625 C -5922.75048828125 699.798583984375 -5905.23193359375 736.620361328125 -5882.62353515625 770.4715576171875 C -5860.33447265625 803.845458984375 -5833.4228515625 833.8594360351562 -5802.63525390625 859.6798095703125 C -5771.6484375 885.6669921875 -5737.2119140625 907.0033569335938 -5700.28173828125 923.0963745117188 C -5711.3466796875 948.661865234375 -5726.048828125 972.5046997070312 -5743.9794921875 993.9639282226562 C -5761.79296875 1015.283081054688 -5782.51611328125 1033.921752929688 -5805.5732421875 1049.362426757812 C -5853.3935546875 1081.385986328125 -5909.216796875 1098.312622070312 -5967.00830078125 1098.312622070312 Z"/></g></svg>