<svg xmlns="http://www.w3.org/2000/svg" width="1080.917" height="1186.724" viewBox="0 0 1080.917 1186.724"><defs><style>.a{fill:rgba(0,0,0,0.09);}</style></defs><path class="a" d="M1342.65,935.491s9.247-.594,17.943,8.1c8.7,8.653,11.029,25.494,11.029,25.494s-9.332-8.7-17.944-9.883c-8.7-1.145-18.58-1.74-18.58-1.74s.636,17.351-21.422,19.684c-21.974,2.333-58.455-10.436-68.891-4.623s-18.5,15.653-39.323,12.725c-20.871-2.843-55.02-26.046-73.6-27.191a45.426,45.426,0,0,0-19.809,2.8c-4.328-.128-8.527.128-12.047.3a38.385,38.385,0,0,0-27.913,14.465c-1.654,2.078.551,5.855,3.055,3.987,8.78-6.618,17.6-9.29,28.166-9.459-2.841,8.356-11.071,25.961-34.487,43.48-32.451,24.307-136.678,56.759-136.678,56.759s62.528,5.769,85.688,45.135c23.162,39.409,18.539,59.091,2.333,101.894-16.246,42.845-37.032,63.673,9.29,81.066,46.282,17.392,58.118,46.068,84.207,36.524,26.045-9.629,50.394-26.089,85.094-15.7,34.786,10.436,26.09,21.763,26.09,21.763s17.35-2.631,28.676,10.393c11.2,13.023,9.545,34.7,9.545,34.7s-6.957-14.677-17.392-19.088c-10.436-4.327-22.61,0-22.61,0a111.58,111.58,0,0,1-.85,11.326c-.848,7.381-4.751,18.665-4.751,18.665s9.078.849,17.308,12.981c8.271,12.217,1.357,38.262,1.357,38.262s-3.479-14.337-12.641-21.295a76.32,76.32,0,0,0-16.841-9.97s-1.356,3.861-7,9.122c-5.643,5.174-24.307,6.065-24.307,6.065s8.7,3.9,9.586,17.774c.806,13.914-7.848,29.991-7.848,29.991s-1.738-13.023-6.109-22.143c-4.326-9.121-14.338-13.914-14.338-13.914s-20.829,9.12-37.33,3.478c-16.5-5.6-25.155-25.155-33.895-24.307-8.611.891-40.766,3.479-56.377-3.9-15.7-7.425-19.556-45.178-44.287-47.343-24.775-2.2-72.539,3.012-88.615-14.762-16.121-17.815.466-71.648,5.642-91.2,5.217-19.514,6.489-26-19.981-25.58-26.513.425-75.551,16.459-92.052,6.066-14.72-9.29-26-30.373-28.252-34.742,9.5-20.574,30.16-33.768,49.377-52.051,18.622-17.773,34.657-40.215,41.7-65.157a1.957,1.957,0,0,0-3.564-1.484c-20.4,32.876-40.681,60.152-70.46,85.222-17.521,14.72-27.658,31.434-27.574,51.754-13.065,20.53-39.408,50.65-82.846,52.94-66.388,3.478-80.3-6.068-108.894,11.283-28.72,17.308-35.251,43.014-24.392,65.583,10.86,22.526,59.558,12.6,92.943,26.045,33.469,13.448,44.33,25.579,43.863,42.039a30.433,30.433,0,0,1-13.49,24.349s3.946,3.1,5.218,15.654c1.357,12.6-9.927,31.73-9.927,31.73a92.848,92.848,0,0,0-6.11-25.24c-5.174-12.556-11.749-16.882-11.749-16.882s-.892.423-4.285,2.586c-3.521,2.123-11.326,4.329-11.326,4.329a59.506,59.506,0,0,1,2.63,19.937c-.466,11.793-12.6,30.84-12.6,30.84s.849-18.623-3.9-26.853a55.06,55.06,0,0,0-10.479-13.066,36.128,36.128,0,0,1-14.719,2.163c-8.7-.424-19.175-3.9-19.175-3.9a22.774,22.774,0,0,1,2.249,19.556c-3.945,10.859-19.556,19.938-19.556,19.938s6.533-14.763,2.12-22.144c-4.283-7.381-11.283-16.925-11.283-16.925s-7.763,1.738-18.622-5.175c-10.861-6.957-7.848-38.221-22.144-41.7-14.338-3.479-36.059,1.738-44.287-12.6-8.271-14.338,23.841-73.344,23.458-104.184-.466-30.841-38.263-108.13-17.392-121.153,20.829-13.065,55.952,6.49,85.987-5.26,29.949-11.665,36.48-12.981,33.809-42.124-2.588-29.058-2.12-45.983-2.12-45.983a69.563,69.563,0,0,1-.85-7.847c-7.508.592-16.629,1.06-27.7,1.06-40.512,0-68.3-2.333-78.691-52.135-10.435-49.8,28.931-98.416,72.88-149.4,43.989-50.9,55.655-128.449,39.45-167.858-16.247-39.366-50.947-64.818-99.645-70.63-48.657-5.769-60.152,19.684-92.6,52.093-32.451,32.494-72.963,18.537-72.963,18.537a326.911,326.911,0,0,0,61.383-40.511c30.076-25.452,19.684-69.485,46.323-93.792,26.6-24.307,33.555-17.35,33.555-17.35a688.19,688.19,0,0,1-49.8-69.527c-25.453-40.512-1.188-55.571-4.582-87.98-3.479-32.41-45.178-45.178-45.178-45.178s26.64-2.29,84.544,17.35c57.861,19.725,35.846,86.877,40.554,122.765,4.624,35.93,26.6,49.8,26.6,49.8a110.007,110.007,0,0,1,4.666-41.7c6.915-21.973,24.264-59.049,60.195-61.382,35.8-2.29,53.238,12.81,53.238,12.81s-46.281,26.556-77.587,70.589C516.468,579.413,556.98,607.2,592.91,665.1c35.888,57.947,28.931,90.356,20.829,155.174S522.237,958.059,509.554,984.7c-12.768,26.64-11.624,46.324,9.247,60.195,13.575,9.078,40.766,7.806,58.2,5.812a97.939,97.939,0,0,1,33-50.1c46.875-38.179,117.208-62.528,152.842-81.617,20.7-11.157,32.876-23.119,39.408-31.179,4.837-2.207,9.8-4.115,14.55-6.194,10.564-4.581,19.133-11.58,27.064-19.81,13.745-14.466,25.156-34.955,29.186-54.594.3-1.528-1.612-2.927-2.842-1.571-14.337,16.206-22.4,36.865-37.331,52.941-14.167,15.228-34.275,19.387-47.722,35.082a37.813,37.813,0,0,1-17.985,1.908c-22.568-3.52-41.657-19.173-41.657-19.173s25.112-5.175,39.111-16.46c13.829-11.326,18.2-24.349,18.2-24.349s-43.395-21.676-67.788-47.764c-24.307-26-8.7-82.509-8.7-82.509s-19.089-19.938-30.373-56.461c-11.242-36.44,13.87-85.944,13.87-85.944S675.12,549,675.97,515.147c.721-28.294,14.762-53.493,19.386-61.043,10.477,8.017,22.483,14.253,35.59,13.786a2.015,2.015,0,0,0,.508-3.944c-14.719-5.43-27.487-11.412-39.747-20.4-4.411-7.508-10.479-18.793-13.152-28.3-4.326-15.61,1.783-20.785,15.654-24.264,13.914-3.478,46.069,11.284,46.069,11.284s13.871-48.613,46.875-61.678c32.96-13.023,81.616-12.176,81.616-12.176s-16.5,6.957-24.349,12.176c-7.8,5.216-16.5,23.457-16.5,23.457s43.395-8.653,67.787-3.436c24.265,5.219,35.591,33.852,35.591,33.852s82.508-31.264,97.271-26.089c14.8,5.217,10.392,20.871,10.392,20.871a46.637,46.637,0,0,1,14.8,22.567c4.285,14.762,6.11,32.112,2.63,39.111-3.521,6.915-15.95,17.944-15.95,17.944a39.888,39.888,0,0,1,2.292,15.611c-.551,8.1-2.292,18.5-2.292,18.5s-2.333-9.8-6.363-14.465a90.137,90.137,0,0,1-8.144-11.539,130.257,130.257,0,0,1-35.931,8.612c-19.64,1.781-30.627-4.582-44.541,9.29-13.872,13.913-30.12,42.293-8.654,48.062,21.38,5.812,34.7,11.623,55.019,3.522,20.235-8.1,30.077-13.362,30.077-13.362s4.03-10.987,2.884-16.8c-1.145-5.769-2.884-12.684-2.884-12.684s10.944,7.508,12.768,14.465a26.7,26.7,0,0,1,0,12.685s12.091-8.061,22.568-6.322c10.393,1.7,19.641,13.914,17.9,24.9s-37.628,37.033-37.628,37.033-1.145,21.38,12.768,31.264c13.83,9.842,30.076,19.089,43.4,10.435,13.364-8.7,24.9-20.871,24.9-20.871a31.543,31.543,0,0,1-4.667,20.278c-6.32,10.394-20.234,20.829-20.234,20.829s8.7,1.739,28.932,16.8c20.276,15.059,30.118,27.234,30.118,27.234s25.5-27.827,37.075-56.165c11.539-28.422,29.569-81.107,25.453-108.851-4.03-27.826-2.885-55.571,14.508-64.861,17.307-9.247,37.543-6.915,37.543-6.915s-.51-6.957,8.738-12.132c9.247-5.218,28.931-2.927,28.931-2.927s-6.915,3.436-11.029,7.509l-8.654,8.654s9.841,2.927,16.84,7c6.914,4.03,12.726,13.32,12.726,13.32s12.727-5.855,25.453-5.855,24.9,6.957,24.9,6.957-14.509.593-23.118,4.114c-8.7,3.4-16.842,7.467-16.842,7.467s5.811,5.218,7.549,15.654c1.783,10.435,0,17.392,0,17.392s19.685-5.769,30.077-2.926c10.435,2.926,20.277,12.174,20.277,12.174s-15.611-1.187-24.9,2.333a61.182,61.182,0,0,0-16.161,9.248s8.059,11.539,2.289,23.162c-5.768,11.58-46.916,30.076-63.078,50.946-16.247,20.829-25.537,52.645-23.2,91.5,2.29,38.729-2.885,63.673-34.191,101.257-20.49,24.688-38.9,39.112-49.208,46.154-5.6,2.249-11.156,4.453-16.841,6.489-32.409,11.539-65.5,20.787-96.761,35.253-1.187.55-.382,2.289.807,1.95,37.372-9.757,74.32-21.38,110.633-34.488,3.139,2.121,7.762,5.261,14.38,10.1,17.393,12.768,26,20.829,43.99,17.944,17.943-2.927,47.469-55.571,71.818-53.28,24.307,2.334,25.409,11.029,25.409,11.029s1.782-5.218,13.958-5.811c12.089-.594,27.742,10.478,27.742,10.478a33.062,33.062,0,0,0-16.8,2.842c-9.249,4.03-16.2,12.726-16.2,12.726a25.992,25.992,0,0,1,10.435,5.811c5.219,4.623,4.624,12.727,4.624,12.727a62.677,62.677,0,0,1,26.047,6.914c13.32,7,16.8,26.682,16.8,26.682s-11.03-9.841-19.09-11.622a75.316,75.316,0,0,0-17.392-1.1s-1.146,4.624-3.436,11.03c-2.333,6.319-12.175,13.276-12.175,13.276ZM844.633,440.317h0s12.514-6.915,23.5-10.394c11.028-3.436,17.944-2.841,31.73-.976-1.57-5.344-12.091-6.065-15.313-9.925s-.594-7.509,1.315-12.133c-4.71-.508-16.332,6.15-24.732,13.277-8.272,7.126-16.5,20.15-16.5,20.15ZM933.5,625.907h0c16.205,36.057,43.821,69.441,78.393,88.617,5.684,3.138,9.926-4.837,4.962-8.484-32.536-24.264-64.817-52.942-78.731-92.265-1.23-3.564-6.279-4.71-8.315-1.1a238.985,238.985,0,0,0-19,44.965c-11.326-24.775-25.919-48.785-23.162-76.909.424-3.776-4.751-6.745-7.848-4.5a89.223,89.223,0,0,0-28.888,34.445c-5.3-19.726-3.479-39.664-.128-60.323.806-4.92-4.709-8.992-8.7-5.09-13.235,13.151-27.107,25.538-38.221,40.173,5.049-21.847,12.768-42.464,27.658-60.534,2.206-2.757.255-8.1-3.9-6.618-20.955,7.509-37.67,19.979-52.771,35.336,8.017-24.01,19.47-46.536,28.549-70.207.721-1.781-2.206-3.011-3.1-1.314-14.466,26.64-27.744,53.874-35.888,83.1-.891,3.054,3.181,5.642,5.472,3.182,13.957-15.313,28.762-28.465,47.086-37.2-15.482,23.247-22.311,49.5-27.105,77.587-.849,4.921,6.236,8.908,8.7,3.691,9.248-19.81,24.307-34.573,39.833-49.25-2.927,22.865-2.248,44.754,7.17,66.9,2.121,4.963,9.459,2.97,10.732-1.4,4.115-14.466,10.733-26.47,20.87-36.566,2.122,29.524,19.387,55.274,29.44,82.847,1.74,4.708,8.867,5.473,10.266,0,4.454-16.926,9.459-33.216,16.629-49.08ZM1088.128,838.56h0c-.085-1.569-2.334-2.418-3.055-.848-.975,1.994-1.951,3.9-2.8,5.812a1.482,1.482,0,0,0-1.7.126c-27.064,20.956-53.365,39.155-87.343,47.214a1.524,1.524,0,0,0,.381,2.97c26-1.994,61.171-14.848,80.472-36.185a115.139,115.139,0,0,1-15.568,18.75c-11.071,10.859-21.55,20.489-29.015,34.276-1.485,2.672,2.332,4.877,4.03,2.376,16.585-24.731,55.571-40.47,54.6-74.491Z" transform="translate(-313.826 -328.4)"/></svg>