<svg xmlns="http://www.w3.org/2000/svg" width="894" height="877.001" viewBox="0 0 894 877.001"><defs><style>.a{fill:#aa1d45;}</style></defs><path class="a" d="M-5803.5,950h-17a445.537,445.537,0,0,1-44.834-2.264,439.643,439.643,0,0,1-43.539-6.645c-14.127-2.891-28.266-6.526-42.024-10.805-13.6-4.231-27.159-9.192-40.288-14.745a438.539,438.539,0,0,1-74.485-40.43,441.619,441.619,0,0,1-64.9-53.545,441.642,441.642,0,0,1-53.545-64.9,438.566,438.566,0,0,1-40.429-74.485c-5.552-13.127-10.514-26.682-14.746-40.288-4.278-13.756-7.914-27.895-10.805-42.023a439.869,439.869,0,0,1-6.645-43.539A445.641,445.641,0,0,1-6259,511.5a445.641,445.641,0,0,1,2.264-44.834,439.869,439.869,0,0,1,6.645-43.539c2.892-14.129,6.527-28.267,10.805-42.023,4.232-13.606,9.193-27.16,14.746-40.288a438.568,438.568,0,0,1,40.429-74.485,441.641,441.641,0,0,1,53.545-64.9,441.62,441.62,0,0,1,64.9-53.545,438.539,438.539,0,0,1,74.485-40.43c13.129-5.553,26.684-10.514,40.288-14.745,13.758-4.279,27.9-7.915,42.024-10.805a439.625,439.625,0,0,1,43.539-6.645A445.528,445.528,0,0,1-5820.5,73h17a445.52,445.52,0,0,1,44.834,2.264,439.679,439.679,0,0,1,43.539,6.645c14.127,2.891,28.266,6.526,42.024,10.805,13.6,4.232,27.159,9.193,40.287,14.745a438.539,438.539,0,0,1,74.485,40.43,441.635,441.635,0,0,1,64.9,53.545,441.656,441.656,0,0,1,53.545,64.9,438.568,438.568,0,0,1,40.429,74.485c5.553,13.129,10.514,26.684,14.745,40.288,4.278,13.755,7.914,27.893,10.806,42.023a439.725,439.725,0,0,1,6.645,43.539A445.641,445.641,0,0,1-5365,511.5a445.641,445.641,0,0,1-2.264,44.834,439.725,439.725,0,0,1-6.645,43.539c-2.892,14.13-6.527,28.269-10.806,42.023-4.231,13.6-9.192,27.158-14.745,40.288a438.568,438.568,0,0,1-40.429,74.485,441.658,441.658,0,0,1-53.545,64.9,441.633,441.633,0,0,1-64.9,53.545,438.539,438.539,0,0,1-74.485,40.43c-13.128,5.553-26.683,10.514-40.287,14.745-13.758,4.279-27.9,7.915-42.024,10.805a439.7,439.7,0,0,1-43.539,6.645A445.529,445.529,0,0,1-5803.5,950Zm-14.642-798.9a366.71,366.71,0,0,0-36.9,1.863,361.8,361.8,0,0,0-35.831,5.468,359.041,359.041,0,0,0-67.738,21.027,360.906,360.906,0,0,0-61.3,33.272,363.456,363.456,0,0,0-53.408,44.065,363.478,363.478,0,0,0-44.065,53.408,360.931,360.931,0,0,0-33.272,61.3,359.065,359.065,0,0,0-21.027,67.739,361.87,361.87,0,0,0-5.468,35.831,366.671,366.671,0,0,0-1.863,36.9,366.677,366.677,0,0,0,1.863,36.9,361.877,361.877,0,0,0,5.468,35.831,359.068,359.068,0,0,0,21.027,67.739,360.932,360.932,0,0,0,33.272,61.3,363.471,363.471,0,0,0,44.065,53.408,363.479,363.479,0,0,0,53.408,44.065,360.907,360.907,0,0,0,61.3,33.272,359.048,359.048,0,0,0,67.738,21.027,361.786,361.786,0,0,0,35.831,5.468,366.7,366.7,0,0,0,36.9,1.863h13.225a366.682,366.682,0,0,0,36.9-1.863,361.76,361.76,0,0,0,35.831-5.468,359.066,359.066,0,0,0,67.739-21.027,360.911,360.911,0,0,0,61.3-33.272,363.485,363.485,0,0,0,53.407-44.065,363.471,363.471,0,0,0,44.065-53.408,360.883,360.883,0,0,0,33.271-61.3,359.06,359.06,0,0,0,21.027-67.739,361.748,361.748,0,0,0,5.468-35.831,366.688,366.688,0,0,0,1.863-36.9,366.681,366.681,0,0,0-1.863-36.9,361.74,361.74,0,0,0-5.468-35.831,359.065,359.065,0,0,0-21.027-67.739,360.88,360.88,0,0,0-33.271-61.3,363.447,363.447,0,0,0-44.065-53.408,363.5,363.5,0,0,0-53.407-44.065,360.913,360.913,0,0,0-61.3-33.272,359.079,359.079,0,0,0-67.739-21.027,361.773,361.773,0,0,0-35.831-5.468,366.7,366.7,0,0,0-36.9-1.863Z" transform="translate(6259 -73)"/></svg>