<svg xmlns="http://www.w3.org/2000/svg" width="658.602" height="643.584" viewBox="0 0 658.602 643.584"><defs><style>.a{fill:rgba(0,0,0,0.1);}</style></defs><path class="a" d="M288.718,466.638l121.1-90.361V336.909l-121.1,91.008Z" transform="translate(-168.382 -134.596)"/><path class="a" d="M288.718,471.49l121.1-90.356V340.753L288.718,431.1Z" transform="translate(-168.382 -50.466)"/><path class="a" d="M820.76,899.1c22.029-17.829,41.955-37.558,58.541-59.461,18.618-26.365,34.177-54.036,44.455-83.08a294.666,294.666,0,0,0,12.194-43.714c1.214-7.347,2.452-14.648,3.667-21.9,1.121-7.3,1.285-15.243,1.869-22.7,1.541-15.907.046-27.671-.374-40.716l-.256-6.2-.724-5.172L938.659,605.9c-1.122-6.8-1.635-13.573-3.294-20.14-3.55-13.091-5.793-26.137-10.839-38.267q-3.329-9.166-6.611-18.149-4.135-8.652-8.176-17.142c-10.372-22.75-24.178-42.639-38.054-60.765-29.224-35.361-61.928-61.886-93.838-79.9-31.911-18.172-62.513-28.059-87.812-34.216q-9.566-2.094-18.081-3.96c-5.723-1.121-11.212-1.579-16.258-2.288-10.116-1.442-18.688-2.472-25.58-2.358-13.83-.434-21.211-.64-21.211-.64h-.141s-7.452.389-21.4,1.122c-7.032.069-15.535,1.3-25.557,2.953-4.975.846-10.419,1.418-16.1,2.654q-8.48,2.094-17.987,4.417c-25.136,6.706-55.481,17.348-86.924,36.23-31.513,18.744-63.493,46.072-91.829,82.073-13.409,18.447-26.725,38.656-36.512,61.612-2.57,5.721-5.139,11.513-7.733,17.326-2.055,6.042-4.088,12.13-6.19,18.287-4.7,12.016-6.775,25.931-9.952,39.572-1.495,6.935-1.776,12.633-2.709,19.065l-1.192,9.429-.607,4.761-.164,6.523c-.117,13.916-1.074,28.22.794,42.57,1.8,28.884,8.924,58.225,19.669,86.948,10.979,28.746,27.215,56.027,46.441,81.913,19.95,25.427,44.712,47.559,71.926,67.1,27.542,19.2,58.635,33.988,91.479,44.31l25.019,6.569c8.037,2.311,18.011,3.044,26.981,4.508l13.83,1.831c4.905.687,7.709.481,11.656.756l24.786,1.052c34.526-1.327,69.147-6.134,101.921-16.936,32.565-11.146,63.4-26.457,90.5-46.346,2.64-1.991,5.256-4.029,7.849-6.089m88.816-237.728c-2.873,25.336-11.049,50.809-21.375,75.367-10.606,24.627-25.767,47.582-43.077,69.1a289.118,289.118,0,0,1-20.37,21.606V750.976l-121.1-143.021V901.8c-8.6,2.54-17.31,4.623-26.094,6.363v-550.3L552.489,440.239V908.531c-7.522-1.442-15-3.136-22.425-5.2-1.683-.5-3.365-1.053-5.07-1.6V707.353l-121.1,90.336v32.98c-5.513-5.31-10.862-10.734-15.908-16.433-17.824-21.1-33.546-43.691-44.712-68.089a289.028,289.028,0,0,1-25.79-150.254,293.977,293.977,0,0,1,46.044-129.06A297.792,297.792,0,0,1,446.6,383.891c29.294-19.935,58.7-30.989,83.046-38.153q9.251-2.471,17.5-4.692c5.536-1.259,10.839-1.876,15.722-2.769,9.788-1.717,18.128-3.022,25-3.136l20.931-1.35c.631.023,7.872.321,21.094.87,6.985-.046,15.324,1.076,25.089,2.586,4.859.755,10.138,1.236,15.7,2.38q8.305,2.026,17.591,4.28c24.528,6.615,54.2,16.982,83.957,36.23a299.006,299.006,0,0,1,85.031,81.021A294.049,294.049,0,0,1,906.375,589.3c1.215,12.084,2.1,24.764,2.15,36.985C907.823,638.968,908.033,652.1,905.581,664.555Z" transform="translate(-283.566 -328.069)"/></svg>